<?xml version="1.0" encoding="UTF-8"?>
<svg id="Layer_2" data-name="Layer 2" xmlns="http://www.w3.org/2000/svg" viewBox="0 0 199.76 173.7">
  <defs>
    <style>
      .cls-1 {
        stroke: #fff;
        stroke-linejoin: round;
        stroke-width: 7px;
      }

      .cls-1, .cls-2, .cls-3 {
        fill: none;
      }

      .cls-1, .cls-3 {
        stroke-linecap: round;
      }

      .cls-2 {
        stroke: #949494;
      }

      .cls-2, .cls-4 {
        stroke-miterlimit: 10;
        stroke-width: 2px;
      }

      .cls-5 {
        fill: #823eed;
      }

      .cls-3 {
        stroke: #9b9b9b;
        stroke-linejoin: bevel;
      }

      .cls-4 {
        fill: #ffe59c;
        stroke: #bd8800;
      }
    </style>
  </defs>
  <g id="Layer_1-2" data-name="Layer 1">
    <g>
      <path class="cls-2" d="M29.03,40.16c-9.19,16.62-13.65,35.58-16.7,54.48-2.82,17.45,2,33.49,12.4,47.52,9.57,12.9,20.17,20.78,35.74,22.81,19.79,2.57,39.88,2.87,59.68.42,15.84-1.96,31.98-5.91,44.79-15.77,20.93-16.12,29.11-46.39,23.31-72.75-5.8-26.36-15.95-43.38-37.8-58.13-10.92-7.37-22.97-15.24-36-14.88-13.13.36-30.7-2-43.41,2.01,0,0-26.63,6.47-42,34.28Z"/>
      <path class="cls-2" d="M64.16,42.65c-15.72,15.36-23.57,41.79-19.19,65,1.04,5.51,2.73,10.94,5.57,15.54,9.38,15.2,27.9,17.32,44.07,18.05,5.17.23,10.41.46,15.44-.93,10.62-2.93,30.05-10.92,36.85-20.77,9.89-14.33,7.32-34.15,3.21-51.84-4.45-19.09-22.15-29.91-38.93-33.97-15.31-3.71-36.86-4.8-47.01,8.92"/>
      <path class="cls-2" d="M82.03,60.56c-5.85,7.71-11.84,15.69-13.88,24.86-2.04,9.17.88,19.92,9.63,24.88,3.7,2.1,8.1,3,12.45,3.17,18.41.71,36.58-13.93,35.65-30.6-.93-16.67-27.31-30.85-43.51-22.89"/>
      <rect class="cls-4" x="143.65" y="87.53" width="20.2" height="20.2" rx="2.67" ry="2.67"/>
      <path class="cls-3" d="M148.2,92.71c-.17.25.2.57.49.49s.47-.36.66-.6.49-.46.77-.36c.16.05.26.19.38.31.44.43,1.15.55,1.71.31.3-.13.56-.35.87-.42.32-.07.65.04.97.1,1.44.3,2.97-.11,4.4.24.26.06.52.15.79.14s.56-.16.63-.42"/>
      <rect class="cls-4" x="89.93" y="121.49" width="20.2" height="20.2" rx="2.67" ry="2.67"/>
      <path class="cls-3" d="M94.47,126.66c-.17.25.2.57.49.49s.47-.36.66-.6.49-.46.77-.36c.16.05.26.19.38.31.44.43,1.15.55,1.71.31.3-.13.56-.35.87-.42.32-.07.65.04.97.1,1.44.3,2.97-.11,4.4.24.26.06.52.15.79.14s.56-.16.63-.42"/>
      <path class="cls-3" d="M94.26,131.64c.05.32.53.34.8.16s.47-.48.79-.56c.33-.08.66.12.96.28.55.31,1.14.55,1.75.71.07.02.16.04.22,0,.06-.03.09-.1.12-.16.32-.62,1.14-.79,1.83-.69.69.1,1.35.39,2.05.4.5,0,.98-.13,1.46-.26"/>
      <rect class="cls-4" x="14.55" y="86.84" width="20.2" height="20.2" rx="2.67" ry="2.67"/>
      <path class="cls-3" d="M19.09,92.02c-.17.25.2.57.49.49s.47-.36.66-.6.49-.46.77-.36c.16.05.26.19.38.31.44.43,1.15.55,1.71.31.3-.13.56-.35.87-.42.32-.07.65.04.97.1,1.44.3,2.97-.11,4.4.24.26.06.52.15.79.14s.56-.16.63-.42"/>
      <path class="cls-3" d="M18.88,97c.05.32.53.34.8.16s.47-.48.79-.56c.33-.08.66.12.96.28.55.31,1.14.55,1.75.71.07.02.16.04.22,0,.06-.03.09-.1.12-.16.32-.62,1.14-.79,1.83-.69.69.1,1.35.39,2.05.4.5,0,.98-.13,1.46-.26"/>
      <rect class="cls-4" x="8.23" y="121.83" width="20.2" height="20.2" rx="2.67" ry="2.67"/>
      <path class="cls-3" d="M12.77,127c-.17.25.2.57.49.49s.47-.36.66-.6.49-.46.77-.36c.16.05.26.19.38.31.44.43,1.15.55,1.71.31.3-.13.56-.35.87-.42.32-.07.65.04.97.1,1.44.3,2.97-.11,4.4.24.26.06.52.15.79.14s.56-.16.63-.42"/>
      <path class="cls-3" d="M12.56,131.99c.05.32.53.34.8.16s.47-.48.79-.56c.33-.08.66.12.96.28.55.31,1.14.55,1.75.71.07.02.16.04.22,0,.06-.03.09-.1.12-.16.32-.62,1.14-.79,1.83-.69.69.1,1.35.39,2.05.4.5,0,.98-.13,1.46-.26"/>
      <path class="cls-3" d="M12.01,136.21c.07.18.3.25.5.22s.37-.13.56-.17c.24-.05.49,0,.73.03.42.07.85.11,1.28.13,1.71.09,3.5-.19,5.1.43"/>
      <rect class="cls-4" x="69.28" y="90.71" width="20.2" height="20.2" rx="2.67" ry="2.67"/>
      <path class="cls-3" d="M73.82,95.89c-.17.25.2.57.49.49s.47-.36.66-.6.49-.46.77-.36c.16.05.26.19.38.31.44.43,1.15.55,1.71.31.3-.13.56-.35.87-.42.32-.07.65.04.97.1,1.44.3,2.97-.11,4.4.24.26.06.52.15.79.14s.56-.16.63-.42"/>
      <path class="cls-3" d="M73.61,100.87c.05.32.53.34.8.16s.47-.48.79-.56c.33-.08.66.12.96.28.55.31,1.14.55,1.75.71.07.02.16.04.22,0,.06-.03.09-.1.12-.16.32-.62,1.14-.79,1.83-.69.69.1,1.35.39,2.05.4.5,0,.98-.13,1.46-.26"/>
      <path class="cls-3" d="M73.06,105.1c.07.18.3.25.5.22s.37-.13.56-.17c.24-.05.49,0,.73.03.42.07.85.11,1.28.13,1.71.09,3.5-.19,5.1.43"/>
      <rect class="cls-4" x="79.95" y="152.5" width="20.2" height="20.2" rx="2.67" ry="2.67"/>
      <path class="cls-3" d="M84.49,157.67c-.17.25.2.57.49.49s.47-.36.66-.6.49-.46.77-.36c.16.05.26.19.38.31.44.43,1.15.55,1.71.31.3-.13.56-.35.87-.42.32-.07.65.04.97.1,1.44.3,2.97-.11,4.4.24.26.06.52.15.79.14s.56-.16.63-.42"/>
      <path class="cls-3" d="M84.28,162.66c.05.32.53.34.8.16s.47-.48.79-.56c.33-.08.66.12.96.28.55.31,1.14.55,1.75.71.07.02.16.04.22,0,.06-.03.09-.1.12-.16.32-.62,1.14-.79,1.83-.69.69.1,1.35.39,2.05.4.5,0,.98-.13,1.46-.26"/>
      <path class="cls-3" d="M83.73,166.88c.07.18.3.25.5.22s.37-.13.56-.17c.24-.05.49,0,.73.03.42.07.85.11,1.28.13,1.71.09,3.5-.19,5.1.43"/>
      <rect class="cls-4" x="164.93" y="120.63" width="20.2" height="20.2" rx="2.67" ry="2.67"/>
      <path class="cls-3" d="M169.48,125.81c-.17.25.2.57.49.49s.47-.36.66-.6.49-.46.77-.36c.16.05.26.19.38.31.44.43,1.15.55,1.71.31.3-.13.56-.35.87-.42.32-.07.65.04.97.1,1.44.3,2.97-.11,4.4.24.26.06.52.15.79.14s.56-.16.63-.42"/>
      <path class="cls-3" d="M169.27,130.79c.05.32.53.34.8.16s.47-.48.79-.56c.33-.08.66.12.96.28.55.31,1.14.55,1.75.71.07.02.16.04.22,0,.06-.03.09-.1.12-.16.32-.62,1.14-.79,1.83-.69.69.1,1.35.39,2.05.4.5,0,.98-.13,1.46-.26"/>
      <rect class="cls-4" x="166.04" y="49.5" width="20.2" height="20.2" rx="2.67" ry="2.67"/>
      <path class="cls-3" d="M170.59,54.68c-.17.25.2.57.49.49s.47-.36.66-.6.49-.46.77-.36c.16.05.26.19.38.31.44.43,1.15.55,1.71.31.3-.13.56-.35.87-.42.32-.07.65.04.97.1,1.44.3,2.97-.11,4.4.24.26.06.52.15.79.14s.56-.16.63-.42"/>
      <path class="cls-3" d="M170.37,59.66c.05.32.53.34.8.16s.47-.48.79-.56c.33-.08.66.12.96.28.55.31,1.14.55,1.75.71.07.02.16.04.22,0,.06-.03.09-.1.12-.16.32-.62,1.14-.79,1.83-.69s1.35.39,2.05.4c.5,0,.98-.13,1.46-.26"/>
      <path class="cls-3" d="M169.82,63.89c.07.18.3.25.5.22s.37-.13.56-.17c.24-.05.49,0,.73.03.42.07.85.11,1.28.13,1.71.09,3.5-.19,5.1.43"/>
      <rect class="cls-4" x="130.3" y="122.13" width="20.2" height="20.2" rx="2.67" ry="2.67"/>
      <path class="cls-3" d="M134.84,127.31c-.17.25.2.57.49.49s.47-.36.66-.6.49-.46.77-.36c.16.05.26.19.38.31.44.43,1.15.55,1.71.31.3-.13.56-.35.87-.42.32-.07.65.04.97.1,1.44.3,2.97-.11,4.4.24.26.06.52.15.79.14s.56-.16.63-.42"/>
      <path class="cls-3" d="M134.63,132.29c.05.32.53.34.8.16s.47-.48.79-.56c.33-.08.66.12.96.28.55.31,1.14.55,1.75.71.07.02.16.04.22,0,.06-.03.09-.1.12-.16.32-.62,1.14-.79,1.83-.69s1.35.39,2.05.4c.5,0,.98-.13,1.46-.26"/>
      <path class="cls-3" d="M134.08,136.52c.07.18.3.25.5.22s.37-.13.56-.17c.24-.05.49,0,.73.03.42.07.85.11,1.28.13,1.71.09,3.5-.19,5.1.43"/>
      <rect class="cls-4" x="99.73" y="92.45" width="20.2" height="20.2" rx="2.67" ry="2.67"/>
      <path class="cls-3" d="M104.28,97.63c-.17.25.2.57.49.49s.47-.36.66-.6.49-.46.77-.36c.16.05.26.19.38.31.44.43,1.15.55,1.71.31.3-.13.56-.35.87-.42.32-.07.65.04.97.1,1.44.3,2.97-.11,4.4.24.26.06.52.15.79.14s.56-.16.63-.42"/>
      <path class="cls-3" d="M104.06,102.61c.05.32.53.34.8.16s.47-.48.79-.56c.33-.08.66.12.96.28.55.31,1.14.55,1.75.71.07.02.16.04.22,0,.06-.03.09-.1.12-.16.32-.62,1.14-.79,1.83-.69s1.35.39,2.05.4c.5,0,.98-.13,1.46-.26"/>
      <path class="cls-3" d="M103.51,106.84c.07.18.3.25.5.22s.37-.13.56-.17c.24-.05.49,0,.73.03.42.07.85.11,1.28.13,1.71.09,3.5-.19,5.1.43"/>
      <rect class="cls-4" x="82.72" y="99.76" width="20.2" height="20.2" rx="2.67" ry="2.67"/>
      <path class="cls-3" d="M87.27,104.93c-.17.25.2.57.49.49s.47-.36.66-.6.49-.46.77-.36c.16.05.26.19.38.31.44.43,1.15.55,1.71.31.3-.13.56-.35.87-.42.32-.07.65.04.97.1,1.44.3,2.97-.11,4.4.24.26.06.52.15.79.14s.56-.16.63-.42"/>
      <path class="cls-3" d="M87.05,109.91c.05.32.53.34.8.16s.47-.48.79-.56c.33-.08.66.12.96.28.55.31,1.14.55,1.75.71.07.02.16.04.22,0,.06-.03.09-.1.12-.16.32-.62,1.14-.79,1.83-.69s1.35.39,2.05.4c.5,0,.98-.13,1.46-.26"/>
      <path class="cls-3" d="M86.5,114.14c.07.18.3.25.5.22s.37-.13.56-.17c.24-.05.49,0,.73.03.42.07.85.11,1.28.13,1.71.09,3.5-.19,5.1.43"/>
      <rect class="cls-4" x="46.35" y="98.2" width="20.2" height="20.2" rx="2.67" ry="2.67"/>
      <path class="cls-3" d="M50.89,103.38c-.17.25.2.57.49.49s.47-.36.66-.6.49-.46.77-.36c.16.05.26.19.38.31.44.43,1.15.55,1.71.31.3-.13.56-.35.87-.42.32-.07.65.04.97.1,1.44.3,2.97-.11,4.4.24.26.06.52.15.79.14s.56-.16.63-.42"/>
      <path class="cls-3" d="M50.68,108.36c.05.32.53.34.8.16s.47-.48.79-.56c.33-.08.66.12.96.28.55.31,1.14.55,1.75.71.07.02.16.04.22,0,.06-.03.09-.1.12-.16.32-.62,1.14-.79,1.83-.69s1.35.39,2.05.4c.5,0,.98-.13,1.46-.26"/>
      <path class="cls-3" d="M50.12,112.59c.07.18.3.25.5.22s.37-.13.56-.17c.24-.05.49,0,.73.03.42.07.85.11,1.28.13,1.71.09,3.5-.19,5.1.43"/>
      <rect class="cls-4" x="57.1" y="121.83" width="20.2" height="20.2" rx="2.67" ry="2.67"/>
      <path class="cls-3" d="M61.64,127c-.17.25.2.57.49.49s.47-.36.66-.6.49-.46.77-.36c.16.05.26.19.38.31.44.43,1.15.55,1.71.31.3-.13.56-.35.87-.42.32-.07.65.04.97.1,1.44.3,2.97-.11,4.4.24.26.06.52.15.79.14s.56-.16.63-.42"/>
      <path class="cls-3" d="M61.43,131.99c.05.32.53.34.8.16s.47-.48.79-.56c.33-.08.66.12.96.28.55.31,1.14.55,1.75.71.07.02.16.04.22,0,.06-.03.09-.1.12-.16.32-.62,1.14-.79,1.83-.69.69.1,1.35.39,2.05.4.5,0,.98-.13,1.46-.26"/>
      <rect class="cls-4" x="78.6" y="54.43" width="20.2" height="20.2" rx="2.67" ry="2.67"/>
      <path class="cls-3" d="M83.15,59.6c-.17.25.2.57.49.49s.47-.36.66-.6.49-.46.77-.36c.16.05.26.19.38.31.44.43,1.15.55,1.71.31.3-.13.56-.35.87-.42.32-.07.65.04.97.1,1.44.3,2.97-.11,4.4.24.26.06.52.15.79.14s.56-.16.63-.42"/>
      <g>
        <g>
          <path class="cls-1" d="M57.45,77.17c.69-.35,1.18.02,1.69.35.59,1.82-.06,3.16.08,4.63.08.73.08,1.51.18,2.16.14.98.65,1.94.75,3.06-.41.45-.92.16-1.61.18.18-.39-.49-.35-.59-.69.04-.92-.02-2.04-.31-2.65-.24.65-1.12,1.14-1.31,1.79-1.08.61-1.84,2.06-3.75,1.45-.35-.1-.65-.45-.84-.59-1.37-2.94-1.41-5.65-1.29-9.1.31-.22.22-.84.43-1.18.71-.14,1.35.37,1.69.86-.2.55.06.55,0,1.02-.02.2-.22.39-.25.59-.06.37.18.39.16.84,0,.22-.2.18-.24.43-.06.24.04.98.08,1.37.04.65.2,1.73.25,1.78.02.69.33,1.35.69,2.3,2.57-1.49,4.39-3.83,4.16-8.59Z"/>
          <path class="cls-1" d="M70.61,87.37c-.29.12-.53-.55-.92-.59.04-1.88.14-4.24-.49-5.98-.43-1.16-1.82-3.37-2.9-1.77-.31.49-.57,1.55-.86,2.14-.35.71-.63,1.47-.88,2.22,0,.02-.2.04-.22.08-.57,1.51-.16,2.94-.69,4.24-.8.49-1.39-.33-1.67-.94-.08-3.24-.14-5.96-.31-9.79.33.12.27-.2.45-.24.49.22.78.14,1.06.59-.18,1.31.08,2.37.31,4.16.02-.16.2-.86.39-.78.12-.39.04-1.69.61-1.86.04-.94.71-1.14.98-1.82.59-.16,1.04-.51,1.75-.53.8.37,2,.53,2.57,1.14,1.2,2.94,2.31,6.49,1.41,9.63-.27.18-.67-.08-.59.08Z"/>
          <path class="cls-1" d="M81.4,79.44c.31.75.41,2.08.31,2.98.24.9.59,2.1.51,3.06.31.41.39,1.31.06,1.67-.69.1-1,.53-1.53.22-.02-.37-.37-.53-.14-.9-.12,0-.16,0-.18-.08.1-.33.06-.43-.02-.63-.27.71-1.33,1.12-1.82,1.78-.08-.06-.18-.1-.31-.1-4.51,1.59-6-1.69-5.43-3.77.06-.16-.12-.12-.12-.25-.12-1.73,1.51-3.77,2.71-4.24-.06-.53,0-.41.12-.73.29.02.47.22.71.14,0-.14-.04-.22-.04-.37.25-.57,1.63.59,1.84-.51.47.08,1.02-.04,1.47.24-.08-1.18.14-1.12-.16-1.82.53-1.55.02-2.35.39-3.75.18-.2.84-.06.92-.37.69.33.59.86.63,1.88.02.59.06,1.35-.16,1.51.43,1.08.27,2.86.24,4.04ZM74.4,84.03c.49,1.29.22,1.71,1.47,2.08.37-.1,1.18.14,1.53-.06.14-.08.86-.82,1.04-.33.08-.61,1.02-.86,1.39-1.14-.1-.61.08-1.53-.22-2.26.49-.2.08-2.06-.1-2.59-.27.02-.96-.04-1.14-.1-2.06.71-3.43,1.88-3.96,3.67.35.04.04.67,0,.73Z"/>
          <path class="cls-1" d="M95.23,85.66c-1.96,1.29-4.02,2.1-6.98,2.2-1.47-.41-2.84-1.26-2.92-3.02-.04-.08-.12-.12-.22-.18.22-1.45-.82-.98-1.69-1.47,0-.71.33-1.08.55-1.51.53.14.63-.16,1.08.22.18,0,.16-.29.37-.26.16-1.49,1.45-2.47,2.14-3.63.39-.25,1.02-.25,1.14-.84.1.06.16.12.16.29.18-.49,1-.41,1.14-.67.96.24,1.69-.22,2.77.33.27.75.77.49.9,1.26.2,1.43-.94,2.35-1.69,3.18-.39.08-.59-.1-.69.35-.82.08-1.2,1.22-1.9,1.06-.08.16-.2.27-.25.47-.27-.27-.33-.02-.61-.27-.41.73-1.94.18-1.98,1.16.02-.12.14.49.14.51.45.9,1.8,1.18,3.14,1.02.61-.06,1.29-.47,1.98-.71.45-.14.98-.18,1.33-.29.1-.04.31-.41.41-.43.12-.04.31.18.41.14.61-.12.41-.67.8-.8.35.59.39,1.08.47,1.88ZM87.05,81.9c1.35-.02,1.61-.75,2.71-.9.27-.49.92-.84,1.29-.75.27-.65,1.35-.78,1.33-1.71-2.35-.8-3.73.8-5,2.24-.02.22-.41,1.02-.33,1.12Z"/>
          <path class="cls-1" d="M97.9,87.62c-.88-.2-1.39-.86-1.16-1.51-.12-.31-.39-.78-.18-1.02-.29-1.39-.71-3.9-1.27-5.2.08-.39.02-.45-.16-.9.31.1.57-1.1,1.69-.88.22.06.53,1.88.55,1.92.45-.08.84-1.29.98-1.69.86-.02,1.24-1.1,1.94-.75.98-.51,1.26-.33,2.1.18.39.33.29.94.39,1.18-.22,0-.33.1-.53.31-1.31-.35-3.08.43-3.88,3.43-.14.47.06.86.22,1.06-.02.08-.12.49-.12.45-.02.75.61,1.67.2,2.98-.24.14-.53.29-.78.45Z"/>
          <path class="cls-1" d="M109.59,79.68c0-.1-.16-.39-.16-.49-1.63-1.47-4.47-1.12-5.69.49,1.24,1.77,2.55,1.08,4.47,1.63-.06.22.39.33.39.49,1.18.08,2.47.86,3.14,1.96.22,2.9-1.88,3.92-4.55,3.92-.94-.06-3.04-.02-3.94-.98-.33.06-.43-.14-.61-.24.08-.49-.24-.71-.22-.9.41-.53.29-1.33.98-1.31.16.04.16.12.08.24.39-.2.53-.06.9.08-.08.26-.27.75-.45.65.55,1.02,2.1.53,3.26.84.06-.06.12-.16.14-.25.9.08,1.55-.37,2.16-.86,0-.22.14-.57-.14-.53-.1-.12.14-.29.14-.27.02,0-.45-.71-.67-.8-.04-.02-.18.14-.31.08-.22-.12-.22-.18-.63-.35-.55-.22-1.24-.47-1.8-.63-.57-.16-1.2.14-1.73.06-.04,0-.14-.22-.22-.25-.51-.16-.61-.53-.92-.98-.18-.04-.16.14-.39.08-.47-.53-1.04-2.31.14-2.65-.06-.25.08-.29.08-.49.55-.14.45-.14.59-.75.35-.14.2,0,.33-.2.22.12.82.1.86-.35.29.29,1.06-.73,1.33.12.29-.06,0-.29.16-.41.33.12.47.2.75,0,.04.39.1.12.31.08.12.16-.02.1,0,.33.29.08.14-.27.31-.33.47.14.78.22,1,.67.12-.02.08-.2.08-.33.88.31,1.04.63,1.84,1.2.12.8-.39,1.18-1,1.39Z"/>
          <path class="cls-1" d="M118.16,77.29c-.57,1-1.96,1.08-2.96,1.51-.29,1.92-.31,4.39-.2,6.65,0,.14.67.31.65.49.84-.41,1.37-.18,2.04.1-.14,1.26-1.59,1.55-2.65,1.67-.2-.33-.51-.35-.75-.31-1.84-1.73-.53-5.77-.84-8.1-.29-.16-.75.2-1.06.25-.57-.27-.82-.84-1.06-1.43.41-.37,1.04-.61,1.67-.61.51-.18.35-.8.45-1.59.12-.88.45-1.39.53-2.29.49.02.88.12,1.37.31.51.73-.1,2.02-.08,2.73,1.06-.49,2.31-.65,2.9.61Z"/>
          <path class="cls-1" d="M121.48,77.03c.2.08.51-.24.67.18-.02-.37.29-.08.31-.37.31,0,.55.04.69.18.67-.45,2.35.14,2.43,1.1,1.06.1.96.53,1.67.96-.06,1.98-.43,3.86-.08,5.88.1-.14.16-.27.27-.41.24-.04.06.49.24.51.41.08.35-.55.35-.9.18.1.27.16.25.45.1-.16.16.02.24-.31.29-.26.16.1.18.31.24.02.27.63.39,1.1-.9.88-.49,1.98-1.96,2.24-.51-.61-.67-.9-1.24-1.43-.35-.63-.08-1.53-.45-2.33-.1.47-.49,1.37-.67,1.02-1.04,1.75-2.61,3.14-4.86,2.16-.71-1.1-1.49-2.08-1.92-3.49.16-1.04.1-1.86.16-2.94.18.04.22-.06.35-.1-.06-.18.1-.59-.08-.63.25-.27.31-.06.71-.12-.02-.14-.31-.12-.33-.43-.1-.29.33-.16.49-.18-.55-.88.47-.35.43-1.37.25.16.39-.02.35-.18.12-.29.51.08.53-.47.2.33.82-.04.88-.45ZM123.77,83.76c.18-.8.84-1.63,1.37-2.18.12-.88.18-1.37.27-2.29-.53.02-.86-.61-1.35-.71-.14-.02-.31-.16-.53-.14-.88.02-.84.1-1.51.69.02-.02-.1-.14-.18-.1-.43.24-.98.88-.94,1.51-.84.43-.88,2.06-.8,2.73-.12,0-.16.24-.29.24.18.59-.1,1.29.29,1.69.29-.22.82.88,1.16.88.9-.65,1.43-.61,2.51-2.33Z"/>
          <path class="cls-1" d="M138.64,87.37c-.29.12-.53-.55-.92-.59.04-1.88.14-4.24-.49-5.98-.43-1.16-1.82-3.37-2.9-1.77-.31.49-.57,1.55-.86,2.14-.35.71-.63,1.47-.88,2.22,0,.02-.2.04-.22.08-.57,1.51-.16,2.94-.69,4.24-.8.49-1.39-.33-1.67-.94-.08-3.24-.14-5.96-.31-9.79.33.12.27-.2.45-.24.49.22.78.14,1.06.59-.18,1.31.08,2.37.31,4.16.02-.16.2-.86.39-.78.12-.39.04-1.69.61-1.86.04-.94.71-1.14.98-1.82.59-.16,1.04-.51,1.75-.53.8.37,2,.53,2.57,1.14,1.2,2.94,2.31,6.49,1.41,9.63-.27.18-.67-.08-.59.08Z"/>
          <path class="cls-1" d="M149.43,79.44c.31.75.41,2.08.31,2.98.24.9.59,2.1.51,3.06.31.41.39,1.31.06,1.67-.69.1-1,.53-1.53.22-.02-.37-.37-.53-.14-.9-.12,0-.16,0-.18-.08.1-.33.06-.43-.02-.63-.27.71-1.33,1.12-1.82,1.78-.08-.06-.18-.1-.31-.1-4.51,1.59-6-1.69-5.43-3.77.06-.16-.12-.12-.12-.25-.12-1.73,1.51-3.77,2.71-4.24-.06-.53,0-.41.12-.73.29.02.47.22.71.14,0-.14-.04-.22-.04-.37.25-.57,1.63.59,1.84-.51.47.08,1.02-.04,1.47.24-.08-1.18.14-1.12-.16-1.82.53-1.55.02-2.35.39-3.75.18-.2.84-.06.92-.37.69.33.59.86.63,1.88.02.59.06,1.35-.16,1.51.43,1.08.27,2.86.24,4.04ZM142.44,84.03c.49,1.29.22,1.71,1.47,2.08.37-.1,1.18.14,1.53-.06.14-.08.86-.82,1.04-.33.08-.61,1.02-.86,1.39-1.14-.1-.61.08-1.53-.22-2.26.49-.2.08-2.06-.1-2.59-.27.02-.96-.04-1.14-.1-2.06.71-3.43,1.88-3.96,3.67.35.04.04.67,0,.73Z"/>
        </g>
        <g>
          <path class="cls-5" d="M57.45,77.17c.69-.35,1.18.02,1.69.35.59,1.82-.06,3.16.08,4.63.08.73.08,1.51.18,2.16.14.98.65,1.94.75,3.06-.41.45-.92.16-1.61.18.18-.39-.49-.35-.59-.69.04-.92-.02-2.04-.31-2.65-.24.65-1.12,1.14-1.31,1.79-1.08.61-1.84,2.06-3.75,1.45-.35-.1-.65-.45-.84-.59-1.37-2.94-1.41-5.65-1.29-9.1.31-.22.22-.84.43-1.18.71-.14,1.35.37,1.69.86-.2.55.06.55,0,1.02-.02.2-.22.39-.25.59-.06.37.18.39.16.84,0,.22-.2.18-.24.43-.06.24.04.98.08,1.37.04.65.2,1.73.25,1.78.02.69.33,1.35.69,2.3,2.57-1.49,4.39-3.83,4.16-8.59Z"/>
          <path class="cls-5" d="M70.61,87.37c-.29.12-.53-.55-.92-.59.04-1.88.14-4.24-.49-5.98-.43-1.16-1.82-3.37-2.9-1.77-.31.49-.57,1.55-.86,2.14-.35.71-.63,1.47-.88,2.22,0,.02-.2.04-.22.08-.57,1.51-.16,2.94-.69,4.24-.8.49-1.39-.33-1.67-.94-.08-3.24-.14-5.96-.31-9.79.33.12.27-.2.45-.24.49.22.78.14,1.06.59-.18,1.31.08,2.37.31,4.16.02-.16.2-.86.39-.78.12-.39.04-1.69.61-1.86.04-.94.71-1.14.98-1.82.59-.16,1.04-.51,1.75-.53.8.37,2,.53,2.57,1.14,1.2,2.94,2.31,6.49,1.41,9.63-.27.18-.67-.08-.59.08Z"/>
          <path class="cls-5" d="M81.4,79.44c.31.75.41,2.08.31,2.98.24.9.59,2.1.51,3.06.31.41.39,1.31.06,1.67-.69.1-1,.53-1.53.22-.02-.37-.37-.53-.14-.9-.12,0-.16,0-.18-.08.1-.33.06-.43-.02-.63-.27.71-1.33,1.12-1.82,1.78-.08-.06-.18-.1-.31-.1-4.51,1.59-6-1.69-5.43-3.77.06-.16-.12-.12-.12-.25-.12-1.73,1.51-3.77,2.71-4.24-.06-.53,0-.41.12-.73.29.02.47.22.71.14,0-.14-.04-.22-.04-.37.25-.57,1.63.59,1.84-.51.47.08,1.02-.04,1.47.24-.08-1.18.14-1.12-.16-1.82.53-1.55.02-2.35.39-3.75.18-.2.84-.06.92-.37.69.33.59.86.63,1.88.02.59.06,1.35-.16,1.51.43,1.08.27,2.86.24,4.04ZM74.4,84.03c.49,1.29.22,1.71,1.47,2.08.37-.1,1.18.14,1.53-.06.14-.08.86-.82,1.04-.33.08-.61,1.02-.86,1.39-1.14-.1-.61.08-1.53-.22-2.26.49-.2.08-2.06-.1-2.59-.27.02-.96-.04-1.14-.1-2.06.71-3.43,1.88-3.96,3.67.35.04.04.67,0,.73Z"/>
          <path class="cls-5" d="M95.23,85.66c-1.96,1.29-4.02,2.1-6.98,2.2-1.47-.41-2.84-1.26-2.92-3.02-.04-.08-.12-.12-.22-.18.22-1.45-.82-.98-1.69-1.47,0-.71.33-1.08.55-1.51.53.14.63-.16,1.08.22.18,0,.16-.29.37-.26.16-1.49,1.45-2.47,2.14-3.63.39-.25,1.02-.25,1.14-.84.1.06.16.12.16.29.18-.49,1-.41,1.14-.67.96.24,1.69-.22,2.77.33.27.75.77.49.9,1.26.2,1.43-.94,2.35-1.69,3.18-.39.08-.59-.1-.69.35-.82.08-1.2,1.22-1.9,1.06-.08.16-.2.27-.25.47-.27-.27-.33-.02-.61-.27-.41.73-1.94.18-1.98,1.16.02-.12.14.49.14.51.45.9,1.8,1.18,3.14,1.02.61-.06,1.29-.47,1.98-.71.45-.14.98-.18,1.33-.29.1-.04.31-.41.41-.43.12-.04.31.18.41.14.61-.12.41-.67.8-.8.35.59.39,1.08.47,1.88ZM87.05,81.9c1.35-.02,1.61-.75,2.71-.9.27-.49.92-.84,1.29-.75.27-.65,1.35-.78,1.33-1.71-2.35-.8-3.73.8-5,2.24-.02.22-.41,1.02-.33,1.12Z"/>
          <path class="cls-5" d="M97.9,87.62c-.88-.2-1.39-.86-1.16-1.51-.12-.31-.39-.78-.18-1.02-.29-1.39-.71-3.9-1.27-5.2.08-.39.02-.45-.16-.9.31.1.57-1.1,1.69-.88.22.06.53,1.88.55,1.92.45-.08.84-1.29.98-1.69.86-.02,1.24-1.1,1.94-.75.98-.51,1.26-.33,2.1.18.39.33.29.94.39,1.18-.22,0-.33.1-.53.31-1.31-.35-3.08.43-3.88,3.43-.14.47.06.86.22,1.06-.02.08-.12.49-.12.45-.02.75.61,1.67.2,2.98-.24.14-.53.29-.78.45Z"/>
          <path class="cls-5" d="M109.59,79.68c0-.1-.16-.39-.16-.49-1.63-1.47-4.47-1.12-5.69.49,1.24,1.77,2.55,1.08,4.47,1.63-.06.22.39.33.39.49,1.18.08,2.47.86,3.14,1.96.22,2.9-1.88,3.92-4.55,3.92-.94-.06-3.04-.02-3.94-.98-.33.06-.43-.14-.61-.24.08-.49-.24-.71-.22-.9.41-.53.29-1.33.98-1.31.16.04.16.12.08.24.39-.2.53-.06.9.08-.08.26-.27.75-.45.65.55,1.02,2.1.53,3.26.84.06-.06.12-.16.14-.25.9.08,1.55-.37,2.16-.86,0-.22.14-.57-.14-.53-.1-.12.14-.29.14-.27.02,0-.45-.71-.67-.8-.04-.02-.18.14-.31.08-.22-.12-.22-.18-.63-.35-.55-.22-1.24-.47-1.8-.63-.57-.16-1.2.14-1.73.06-.04,0-.14-.22-.22-.25-.51-.16-.61-.53-.92-.98-.18-.04-.16.14-.39.08-.47-.53-1.04-2.31.14-2.65-.06-.25.08-.29.08-.49.55-.14.45-.14.59-.75.35-.14.2,0,.33-.2.22.12.82.1.86-.35.29.29,1.06-.73,1.33.12.29-.06,0-.29.16-.41.33.12.47.2.75,0,.04.39.1.12.31.08.12.16-.02.1,0,.33.29.08.14-.27.31-.33.47.14.78.22,1,.67.12-.02.08-.2.08-.33.88.31,1.04.63,1.84,1.2.12.8-.39,1.18-1,1.39Z"/>
          <path class="cls-5" d="M118.16,77.29c-.57,1-1.96,1.08-2.96,1.51-.29,1.92-.31,4.39-.2,6.65,0,.14.67.31.65.49.84-.41,1.37-.18,2.04.1-.14,1.26-1.59,1.55-2.65,1.67-.2-.33-.51-.35-.75-.31-1.84-1.73-.53-5.77-.84-8.1-.29-.16-.75.2-1.06.25-.57-.27-.82-.84-1.06-1.43.41-.37,1.04-.61,1.67-.61.51-.18.35-.8.45-1.59.12-.88.45-1.39.53-2.29.49.02.88.12,1.37.31.51.73-.1,2.02-.08,2.73,1.06-.49,2.31-.65,2.9.61Z"/>
          <path class="cls-5" d="M121.48,77.03c.2.08.51-.24.67.18-.02-.37.29-.08.31-.37.31,0,.55.04.69.18.67-.45,2.35.14,2.43,1.1,1.06.1.96.53,1.67.96-.06,1.98-.43,3.86-.08,5.88.1-.14.16-.27.27-.41.24-.04.06.49.24.51.41.08.35-.55.35-.9.18.1.27.16.25.45.1-.16.16.02.24-.31.29-.26.16.1.18.31.24.02.27.63.39,1.1-.9.88-.49,1.98-1.96,2.24-.51-.61-.67-.9-1.24-1.43-.35-.63-.08-1.53-.45-2.33-.1.47-.49,1.37-.67,1.02-1.04,1.75-2.61,3.14-4.86,2.16-.71-1.1-1.49-2.08-1.92-3.49.16-1.04.1-1.86.16-2.94.18.04.22-.06.35-.1-.06-.18.1-.59-.08-.63.25-.27.31-.06.71-.12-.02-.14-.31-.12-.33-.43-.1-.29.33-.16.49-.18-.55-.88.47-.35.43-1.37.25.16.39-.02.35-.18.12-.29.51.08.53-.47.2.33.82-.04.88-.45ZM123.77,83.76c.18-.8.84-1.63,1.37-2.18.12-.88.18-1.37.27-2.29-.53.02-.86-.61-1.35-.71-.14-.02-.31-.16-.53-.14-.88.02-.84.1-1.51.69.02-.02-.1-.14-.18-.1-.43.24-.98.88-.94,1.51-.84.43-.88,2.06-.8,2.73-.12,0-.16.24-.29.24.18.59-.1,1.29.29,1.69.29-.22.82.88,1.16.88.9-.65,1.43-.61,2.51-2.33Z"/>
          <path class="cls-5" d="M138.64,87.37c-.29.12-.53-.55-.92-.59.04-1.88.14-4.24-.49-5.98-.43-1.16-1.82-3.37-2.9-1.77-.31.49-.57,1.55-.86,2.14-.35.71-.63,1.47-.88,2.22,0,.02-.2.04-.22.08-.57,1.51-.16,2.94-.69,4.24-.8.49-1.39-.33-1.67-.94-.08-3.24-.14-5.96-.31-9.79.33.12.27-.2.45-.24.49.22.78.14,1.06.59-.18,1.31.08,2.37.31,4.16.02-.16.2-.86.39-.78.12-.39.04-1.69.61-1.86.04-.94.71-1.14.98-1.82.59-.16,1.04-.51,1.75-.53.8.37,2,.53,2.57,1.14,1.2,2.94,2.31,6.49,1.41,9.63-.27.18-.67-.08-.59.08Z"/>
          <path class="cls-5" d="M149.43,79.44c.31.75.41,2.08.31,2.98.24.9.59,2.1.51,3.06.31.41.39,1.31.06,1.67-.69.1-1,.53-1.53.22-.02-.37-.37-.53-.14-.9-.12,0-.16,0-.18-.08.1-.33.06-.43-.02-.63-.27.71-1.33,1.12-1.82,1.78-.08-.06-.18-.1-.31-.1-4.51,1.59-6-1.69-5.43-3.77.06-.16-.12-.12-.12-.25-.12-1.73,1.51-3.77,2.71-4.24-.06-.53,0-.41.12-.73.29.02.47.22.71.14,0-.14-.04-.22-.04-.37.25-.57,1.63.59,1.84-.51.47.08,1.02-.04,1.47.24-.08-1.18.14-1.12-.16-1.82.53-1.55.02-2.35.39-3.75.18-.2.84-.06.92-.37.69.33.59.86.63,1.88.02.59.06,1.35-.16,1.51.43,1.08.27,2.86.24,4.04ZM142.44,84.03c.49,1.29.22,1.71,1.47,2.08.37-.1,1.18.14,1.53-.06.14-.08.86-.82,1.04-.33.08-.61,1.02-.86,1.39-1.14-.1-.61.08-1.53-.22-2.26.49-.2.08-2.06-.1-2.59-.27.02-.96-.04-1.14-.1-2.06.71-3.43,1.88-3.96,3.67.35.04.04.67,0,.73Z"/>
        </g>
      </g>
      <g>
        <g>
          <path class="cls-1" d="M50.28,41.11c-2.02-.04-2.71,1.51-3.73,2.61-.16,1.45-.55,2.3.94,3.02,1.77.31,2.96-.75,3.71-1.08.1-.98-.02-1.59-.14-2.33.29-.22.49-.63.84-.67,1.41-.16,1.16,1.16,1.08,2.55-.04.49.12,1.2.2,1.65.06.29.27.43.35.65.08.33.02.73,0,1.06-.02.29.04.63.06.86.02.14-.18.16-.18.16.06.57.29,1.59.24,1.96.12,2.49-2.45,3.26-4.33,3.24-.47-.02-1.82.02-1.49-.39-.22-.06-.88-.14-1.12-.26-.27-.14-.94-.2-.69-.55-.43-.04-.55-.33-.8-.22-.31.12-.33-.49-.51-.71-.69-.88-.94-1.8.43-2.53,0,.08.39.16.51.16.22,2.31,3.79,3.47,5.88,2.04.9-1.55.14-3.49-.1-5.06-.08.04-.51.82-.63.2-1.24.79-4.14,1.55-5.53-.12-.57-.69-.9-2.55-.49-3.83.41-1.2,1.73-2.82,3.2-3.37.49-.2,1.92-.59,2.35-.71.41.1.63.39,1.08.43.45.96,1.57.78.18,1.73-.61-.37-.71.08-1.31-.49Z"/>
          <path class="cls-1" d="M66.27,48.88c-1.96,1.29-4.02,2.1-6.98,2.2-1.47-.41-2.84-1.26-2.92-3.02-.04-.08-.12-.12-.22-.18.22-1.45-.82-.98-1.69-1.47,0-.71.33-1.08.55-1.51.53.14.63-.16,1.08.22.18,0,.16-.29.37-.26.16-1.49,1.45-2.47,2.14-3.63.39-.25,1.02-.25,1.14-.84.1.06.16.12.16.29.18-.49,1-.41,1.14-.67.96.24,1.69-.22,2.77.33.27.75.77.49.9,1.26.2,1.43-.94,2.35-1.69,3.18-.39.08-.59-.1-.69.35-.82.08-1.2,1.22-1.9,1.06-.08.16-.2.27-.24.47-.27-.27-.33-.02-.61-.27-.41.73-1.94.18-1.98,1.16.02-.12.14.49.14.51.45.9,1.79,1.18,3.14,1.02.61-.06,1.29-.47,1.98-.71.45-.14.98-.18,1.33-.29.1-.04.31-.41.41-.43.12-.04.31.18.41.14.61-.12.41-.67.8-.8.35.59.39,1.08.47,1.88ZM58.09,45.13c1.35-.02,1.61-.75,2.71-.9.27-.49.92-.84,1.29-.75.27-.65,1.35-.78,1.33-1.71-2.35-.8-3.73.8-5,2.24-.02.22-.41,1.02-.33,1.12Z"/>
          <path class="cls-1" d="M72.21,40.52c-.57,1-1.96,1.08-2.96,1.51-.29,1.92-.31,4.39-.2,6.65,0,.14.67.31.65.49.84-.41,1.37-.18,2.04.1-.14,1.26-1.59,1.55-2.65,1.67-.2-.33-.51-.35-.75-.31-1.84-1.73-.53-5.77-.84-8.1-.29-.16-.75.2-1.06.25-.57-.27-.82-.84-1.06-1.43.41-.37,1.04-.61,1.67-.61.51-.18.35-.8.45-1.59.12-.88.45-1.39.53-2.29.49.02.88.12,1.37.31.51.73-.1,2.02-.08,2.73,1.06-.49,2.31-.65,2.9.61Z"/>
          <path class="cls-1" d="M77.88,40.52c-.57,1-1.96,1.08-2.96,1.51-.29,1.92-.31,4.39-.2,6.65,0,.14.67.31.65.49.84-.41,1.37-.18,2.04.1-.14,1.26-1.59,1.55-2.65,1.67-.2-.33-.51-.35-.75-.31-1.84-1.73-.53-5.77-.84-8.1-.29-.16-.75.2-1.06.25-.57-.27-.82-.84-1.06-1.43.41-.37,1.04-.61,1.67-.61.51-.18.35-.8.45-1.59.12-.88.45-1.39.53-2.29.49.02.88.12,1.37.31.51.73-.1,2.02-.08,2.73,1.06-.49,2.31-.65,2.9.61Z"/>
          <path class="cls-1" d="M80.49,41.84c.57,2.53-.57,5.71-.08,7.98-.16.59-.55.98-1.06,1.24-.27.1-.57-.08-.35-.49-.39.12-.31,0-.47-.18-.41-.43-.43-.51-.14-1.43.08-.25-.29-.43-.29-.71.04-.88.33-1.92.43-2.71.06-.73,0-1.65.08-2.47.04-.49.49-.63.16-1.31.55-.63,1.1-.16,1.71.08ZM78.35,36.46c-.16.88.24,1.61.67,2.14,1.45.18,1.92-1.04,1.69-2.06-.43-.1-.16-.61-.55-.65-.47.12-.63-.04-.98-.25-.14.41-.41.69-.84.82Z"/>
          <path class="cls-1" d="M91.55,50.6c-.29.12-.53-.55-.92-.59.04-1.88.14-4.24-.49-5.98-.43-1.16-1.82-3.37-2.9-1.77-.31.49-.57,1.55-.86,2.14-.35.71-.63,1.47-.88,2.22,0,.02-.2.04-.22.08-.57,1.51-.16,2.94-.69,4.24-.8.49-1.39-.33-1.67-.94-.08-3.24-.14-5.96-.31-9.79.33.12.27-.2.45-.24.49.22.78.14,1.06.59-.18,1.31.08,2.37.31,4.16.02-.16.2-.86.39-.78.12-.39.04-1.69.61-1.86.04-.94.71-1.14.98-1.82.59-.16,1.04-.51,1.75-.53.8.37,2,.53,2.57,1.14,1.2,2.94,2.31,6.49,1.41,9.63-.27.18-.67-.08-.59.08Z"/>
          <path class="cls-1" d="M100.18,41.11c-2.02-.04-2.71,1.51-3.73,2.61-.16,1.45-.55,2.3.94,3.02,1.77.31,2.96-.75,3.71-1.08.1-.98-.02-1.59-.14-2.33.29-.22.49-.63.84-.67,1.41-.16,1.16,1.16,1.08,2.55-.04.49.12,1.2.2,1.65.06.29.27.43.35.65.08.33.02.73,0,1.06-.02.29.04.63.06.86.02.14-.18.16-.18.16.06.57.29,1.59.24,1.96.12,2.49-2.45,3.26-4.33,3.24-.47-.02-1.82.02-1.49-.39-.22-.06-.88-.14-1.12-.26-.27-.14-.94-.2-.69-.55-.43-.04-.55-.33-.8-.22-.31.12-.33-.49-.51-.71-.69-.88-.94-1.8.43-2.53,0,.08.39.16.51.16.22,2.31,3.79,3.47,5.88,2.04.9-1.55.14-3.49-.1-5.06-.08.04-.51.82-.63.2-1.24.79-4.14,1.55-5.53-.12-.57-.69-.9-2.55-.49-3.83.41-1.2,1.73-2.82,3.2-3.37.49-.2,1.92-.59,2.35-.71.41.1.63.39,1.08.43.45.96,1.57.78.18,1.73-.61-.37-.71.08-1.31-.49Z"/>
          <path class="cls-1" d="M116.44,40.52c-.57,1-1.96,1.08-2.96,1.51-.29,1.92-.31,4.39-.2,6.65,0,.14.67.31.65.49.84-.41,1.37-.18,2.04.1-.14,1.26-1.59,1.55-2.65,1.67-.2-.33-.51-.35-.75-.31-1.84-1.73-.53-5.77-.84-8.1-.29-.16-.75.2-1.06.25-.57-.27-.82-.84-1.06-1.43.41-.37,1.04-.61,1.67-.61.51-.18.35-.8.45-1.59.12-.88.45-1.39.53-2.29.49.02.88.12,1.37.31.51.73-.1,2.02-.08,2.73,1.06-.49,2.31-.65,2.9.61Z"/>
          <path class="cls-1" d="M118.31,36.52c.02.22-.06.35-.06.55,0,.31.29.61.31.75.12.41-.22.45-.06,1.25.45,1.96.31,3.69.45,5,.2-.53.39-1.1,1.43-2.16.2-.2.63-.33.69-.69.37,0,1.12-.33,1.86-.14.22.31,1,.22,1.29.51.12.12.14.49.31.69.14.16.73,1.1.82,1.37.04.14-.12.25-.08.39.06.14.24.22.31.37.39.98.25,3.24.49,4.18.2.82.75,2.41-.92,2.37-1.12-1.16-.67-3.88-1.02-5.96-.37-.8-.51-2.26-2.31-2.04-.67.24-1.39,1.47-1.82,2.2-.16.27-.06.92-.37.94-.12.51-.18,1.04-.22,1.41-.1,1.06-.06,1.67,0,2.82-.24.27-.53.51-.86.71-1.12-.45-.82-2.26-.75-3.26-.08.16-.18.04-.18-.06-.12-1.77-.08-3.61-.35-5.1.22-.25-.04-.45-.04-.41.43-.55-.14-.69-.12-1.02.33-2.06-.39-3.43.02-5.63,1.04-.53.88.35,1.2.98Z"/>
          <path class="cls-1" d="M138.86,48.88c-1.96,1.29-4.02,2.1-6.98,2.2-1.47-.41-2.84-1.26-2.92-3.02-.04-.08-.12-.12-.22-.18.22-1.45-.82-.98-1.69-1.47,0-.71.33-1.08.55-1.51.53.14.63-.16,1.08.22.18,0,.16-.29.37-.26.16-1.49,1.45-2.47,2.14-3.63.39-.25,1.02-.25,1.14-.84.1.06.16.12.16.29.18-.49,1-.41,1.14-.67.96.24,1.69-.22,2.77.33.27.75.77.49.9,1.26.2,1.43-.94,2.35-1.69,3.18-.39.08-.59-.1-.69.35-.82.08-1.2,1.22-1.9,1.06-.08.16-.2.27-.24.47-.27-.27-.33-.02-.61-.27-.41.73-1.94.18-1.98,1.16.02-.12.14.49.14.51.45.9,1.79,1.18,3.14,1.02.61-.06,1.29-.47,1.98-.71.45-.14.98-.18,1.33-.29.1-.04.31-.41.41-.43.12-.04.31.18.41.14.61-.12.41-.67.8-.8.35.59.39,1.08.47,1.88ZM130.67,45.13c1.35-.02,1.61-.75,2.71-.9.27-.49.92-.84,1.29-.75.27-.65,1.35-.78,1.33-1.71-2.35-.8-3.73.8-5,2.24-.02.22-.41,1.02-.33,1.12Z"/>
          <path class="cls-1" d="M141.53,50.84c-.88-.2-1.39-.86-1.16-1.51-.12-.31-.39-.78-.18-1.02-.29-1.39-.71-3.9-1.27-5.2.08-.39.02-.45-.16-.9.31.1.57-1.1,1.69-.88.22.06.53,1.88.55,1.92.45-.08.84-1.29.98-1.69.86-.02,1.24-1.1,1.94-.75.98-.51,1.26-.33,2.1.18.39.33.29.94.39,1.18-.22,0-.33.1-.53.31-1.31-.35-3.08.43-3.88,3.43-.14.47.06.86.22,1.06-.02.08-.12.49-.12.45-.02.75.61,1.67.2,2.98-.24.14-.53.29-.78.45Z"/>
          <path class="cls-1" d="M156.99,48.88c-1.96,1.29-4.02,2.1-6.98,2.2-1.47-.41-2.84-1.26-2.92-3.02-.04-.08-.12-.12-.22-.18.22-1.45-.82-.98-1.69-1.47,0-.71.33-1.08.55-1.51.53.14.63-.16,1.08.22.18,0,.16-.29.37-.26.16-1.49,1.45-2.47,2.14-3.63.39-.25,1.02-.25,1.14-.84.1.06.16.12.16.29.18-.49,1-.41,1.14-.67.96.24,1.69-.22,2.77.33.27.75.77.49.9,1.26.2,1.43-.94,2.35-1.69,3.18-.39.08-.59-.1-.69.35-.82.08-1.2,1.22-1.9,1.06-.08.16-.2.27-.25.47-.27-.27-.33-.02-.61-.27-.41.73-1.94.18-1.98,1.16.02-.12.14.49.14.51.45.9,1.8,1.18,3.14,1.02.61-.06,1.29-.47,1.98-.71.45-.14.98-.18,1.33-.29.1-.04.31-.41.41-.43.12-.04.31.18.41.14.61-.12.41-.67.8-.8.35.59.39,1.08.47,1.88ZM148.81,45.13c1.35-.02,1.61-.75,2.71-.9.27-.49.92-.84,1.29-.75.27-.65,1.35-.78,1.33-1.71-2.35-.8-3.73.8-5,2.24-.02.22-.41,1.02-.33,1.12Z"/>
        </g>
        <g>
          <path class="cls-5" d="M50.28,41.11c-2.02-.04-2.71,1.51-3.73,2.61-.16,1.45-.55,2.3.94,3.02,1.77.31,2.96-.75,3.71-1.08.1-.98-.02-1.59-.14-2.33.29-.22.49-.63.84-.67,1.41-.16,1.16,1.16,1.08,2.55-.04.49.12,1.2.2,1.65.06.29.27.43.35.65.08.33.02.73,0,1.06-.02.29.04.63.06.86.02.14-.18.16-.18.16.06.57.29,1.59.24,1.96.12,2.49-2.45,3.26-4.33,3.24-.47-.02-1.82.02-1.49-.39-.22-.06-.88-.14-1.12-.26-.27-.14-.94-.2-.69-.55-.43-.04-.55-.33-.8-.22-.31.12-.33-.49-.51-.71-.69-.88-.94-1.8.43-2.53,0,.08.39.16.51.16.22,2.31,3.79,3.47,5.88,2.04.9-1.55.14-3.49-.1-5.06-.08.04-.51.82-.63.2-1.24.79-4.14,1.55-5.53-.12-.57-.69-.9-2.55-.49-3.83.41-1.2,1.73-2.82,3.2-3.37.49-.2,1.92-.59,2.35-.71.41.1.63.39,1.08.43.45.96,1.57.78.18,1.73-.61-.37-.71.08-1.31-.49Z"/>
          <path class="cls-5" d="M66.27,48.88c-1.96,1.29-4.02,2.1-6.98,2.2-1.47-.41-2.84-1.26-2.92-3.02-.04-.08-.12-.12-.22-.18.22-1.45-.82-.98-1.69-1.47,0-.71.33-1.08.55-1.51.53.14.63-.16,1.08.22.18,0,.16-.29.37-.26.16-1.49,1.45-2.47,2.14-3.63.39-.25,1.02-.25,1.14-.84.1.06.16.12.16.29.18-.49,1-.41,1.14-.67.96.24,1.69-.22,2.77.33.27.75.77.49.9,1.26.2,1.43-.94,2.35-1.69,3.18-.39.08-.59-.1-.69.35-.82.08-1.2,1.22-1.9,1.06-.08.16-.2.27-.24.47-.27-.27-.33-.02-.61-.27-.41.73-1.94.18-1.98,1.16.02-.12.14.49.14.51.45.9,1.79,1.18,3.14,1.02.61-.06,1.29-.47,1.98-.71.45-.14.98-.18,1.33-.29.1-.04.31-.41.41-.43.12-.04.31.18.41.14.61-.12.41-.67.8-.8.35.59.39,1.08.47,1.88ZM58.09,45.13c1.35-.02,1.61-.75,2.71-.9.27-.49.92-.84,1.29-.75.27-.65,1.35-.78,1.33-1.71-2.35-.8-3.73.8-5,2.24-.02.22-.41,1.02-.33,1.12Z"/>
          <path class="cls-5" d="M72.21,40.52c-.57,1-1.96,1.08-2.96,1.51-.29,1.92-.31,4.39-.2,6.65,0,.14.67.31.65.49.84-.41,1.37-.18,2.04.1-.14,1.26-1.59,1.55-2.65,1.67-.2-.33-.51-.35-.75-.31-1.84-1.73-.53-5.77-.84-8.1-.29-.16-.75.2-1.06.25-.57-.27-.82-.84-1.06-1.43.41-.37,1.04-.61,1.67-.61.51-.18.35-.8.45-1.59.12-.88.45-1.39.53-2.29.49.02.88.12,1.37.31.51.73-.1,2.02-.08,2.73,1.06-.49,2.31-.65,2.9.61Z"/>
          <path class="cls-5" d="M77.88,40.52c-.57,1-1.96,1.08-2.96,1.51-.29,1.92-.31,4.39-.2,6.65,0,.14.67.31.65.49.84-.41,1.37-.18,2.04.1-.14,1.26-1.59,1.55-2.65,1.67-.2-.33-.51-.35-.75-.31-1.84-1.73-.53-5.77-.84-8.1-.29-.16-.75.2-1.06.25-.57-.27-.82-.84-1.06-1.43.41-.37,1.04-.61,1.67-.61.51-.18.35-.8.45-1.59.12-.88.45-1.39.53-2.29.49.02.88.12,1.37.31.51.73-.1,2.02-.08,2.73,1.06-.49,2.31-.65,2.9.61Z"/>
          <path class="cls-5" d="M80.49,41.84c.57,2.53-.57,5.71-.08,7.98-.16.59-.55.98-1.06,1.24-.27.1-.57-.08-.35-.49-.39.12-.31,0-.47-.18-.41-.43-.43-.51-.14-1.43.08-.25-.29-.43-.29-.71.04-.88.33-1.92.43-2.71.06-.73,0-1.65.08-2.47.04-.49.49-.63.16-1.31.55-.63,1.1-.16,1.71.08ZM78.35,36.46c-.16.88.24,1.61.67,2.14,1.45.18,1.92-1.04,1.69-2.06-.43-.1-.16-.61-.55-.65-.47.12-.63-.04-.98-.25-.14.41-.41.69-.84.82Z"/>
          <path class="cls-5" d="M91.55,50.6c-.29.12-.53-.55-.92-.59.04-1.88.14-4.24-.49-5.98-.43-1.16-1.82-3.37-2.9-1.77-.31.49-.57,1.55-.86,2.14-.35.71-.63,1.47-.88,2.22,0,.02-.2.04-.22.08-.57,1.51-.16,2.94-.69,4.24-.8.49-1.39-.33-1.67-.94-.08-3.24-.14-5.96-.31-9.79.33.12.27-.2.45-.24.49.22.78.14,1.06.59-.18,1.31.08,2.37.31,4.16.02-.16.2-.86.39-.78.12-.39.04-1.69.61-1.86.04-.94.71-1.14.98-1.82.59-.16,1.04-.51,1.75-.53.8.37,2,.53,2.57,1.14,1.2,2.94,2.31,6.49,1.41,9.63-.27.18-.67-.08-.59.08Z"/>
          <path class="cls-5" d="M100.18,41.11c-2.02-.04-2.71,1.51-3.73,2.61-.16,1.45-.55,2.3.94,3.02,1.77.31,2.96-.75,3.71-1.08.1-.98-.02-1.59-.14-2.33.29-.22.49-.63.84-.67,1.41-.16,1.16,1.16,1.08,2.55-.04.49.12,1.2.2,1.65.06.29.27.43.35.65.08.33.02.73,0,1.06-.02.29.04.63.06.86.02.14-.18.16-.18.16.06.57.29,1.59.24,1.96.12,2.49-2.45,3.26-4.33,3.24-.47-.02-1.82.02-1.49-.39-.22-.06-.88-.14-1.12-.26-.27-.14-.94-.2-.69-.55-.43-.04-.55-.33-.8-.22-.31.12-.33-.49-.51-.71-.69-.88-.94-1.8.43-2.53,0,.08.39.16.51.16.22,2.31,3.79,3.47,5.88,2.04.9-1.55.14-3.49-.1-5.06-.08.04-.51.82-.63.2-1.24.79-4.14,1.55-5.53-.12-.57-.69-.9-2.55-.49-3.83.41-1.2,1.73-2.82,3.2-3.37.49-.2,1.92-.59,2.35-.71.41.1.63.39,1.08.43.45.96,1.57.78.18,1.73-.61-.37-.71.08-1.31-.49Z"/>
          <path class="cls-5" d="M116.44,40.52c-.57,1-1.96,1.08-2.96,1.51-.29,1.92-.31,4.39-.2,6.65,0,.14.67.31.65.49.84-.41,1.37-.18,2.04.1-.14,1.26-1.59,1.55-2.65,1.67-.2-.33-.51-.35-.75-.31-1.84-1.73-.53-5.77-.84-8.1-.29-.16-.75.2-1.06.25-.57-.27-.82-.84-1.06-1.43.41-.37,1.04-.61,1.67-.61.51-.18.35-.8.45-1.59.12-.88.45-1.39.53-2.29.49.02.88.12,1.37.31.51.73-.1,2.02-.08,2.73,1.06-.49,2.31-.65,2.9.61Z"/>
          <path class="cls-5" d="M118.31,36.52c.02.22-.06.35-.06.55,0,.31.29.61.31.75.12.41-.22.45-.06,1.25.45,1.96.31,3.69.45,5,.2-.53.39-1.1,1.43-2.16.2-.2.63-.33.69-.69.37,0,1.12-.33,1.86-.14.22.31,1,.22,1.29.51.12.12.14.49.31.69.14.16.73,1.1.82,1.37.04.14-.12.25-.08.39.06.14.24.22.31.37.39.98.25,3.24.49,4.18.2.82.75,2.41-.92,2.37-1.12-1.16-.67-3.88-1.02-5.96-.37-.8-.51-2.26-2.31-2.04-.67.24-1.39,1.47-1.82,2.2-.16.27-.06.92-.37.94-.12.51-.18,1.04-.22,1.41-.1,1.06-.06,1.67,0,2.82-.24.27-.53.51-.86.71-1.12-.45-.82-2.26-.75-3.26-.08.16-.18.04-.18-.06-.12-1.77-.08-3.61-.35-5.1.22-.25-.04-.45-.04-.41.43-.55-.14-.69-.12-1.02.33-2.06-.39-3.43.02-5.63,1.04-.53.88.35,1.2.98Z"/>
          <path class="cls-5" d="M138.86,48.88c-1.96,1.29-4.02,2.1-6.98,2.2-1.47-.41-2.84-1.26-2.92-3.02-.04-.08-.12-.12-.22-.18.22-1.45-.82-.98-1.69-1.47,0-.71.33-1.08.55-1.51.53.14.63-.16,1.08.22.18,0,.16-.29.37-.26.16-1.49,1.45-2.47,2.14-3.63.39-.25,1.02-.25,1.14-.84.1.06.16.12.16.29.18-.49,1-.41,1.14-.67.96.24,1.69-.22,2.77.33.27.75.77.49.9,1.26.2,1.43-.94,2.35-1.69,3.18-.39.08-.59-.1-.69.35-.82.08-1.2,1.22-1.9,1.06-.08.16-.2.27-.24.47-.27-.27-.33-.02-.61-.27-.41.73-1.94.18-1.98,1.16.02-.12.14.49.14.51.45.9,1.79,1.18,3.14,1.02.61-.06,1.29-.47,1.98-.71.45-.14.98-.18,1.33-.29.1-.04.31-.41.41-.43.12-.04.31.18.41.14.61-.12.41-.67.8-.8.35.59.39,1.08.47,1.88ZM130.67,45.13c1.35-.02,1.61-.75,2.71-.9.27-.49.92-.84,1.29-.75.27-.65,1.35-.78,1.33-1.71-2.35-.8-3.73.8-5,2.24-.02.22-.41,1.02-.33,1.12Z"/>
          <path class="cls-5" d="M141.53,50.84c-.88-.2-1.39-.86-1.16-1.51-.12-.31-.39-.78-.18-1.02-.29-1.39-.71-3.9-1.27-5.2.08-.39.02-.45-.16-.9.31.1.57-1.1,1.69-.88.22.06.53,1.88.55,1.92.45-.08.84-1.29.98-1.69.86-.02,1.24-1.1,1.94-.75.98-.51,1.26-.33,2.1.18.39.33.29.94.39,1.18-.22,0-.33.1-.53.31-1.31-.35-3.08.43-3.88,3.43-.14.47.06.86.22,1.06-.02.08-.12.49-.12.45-.02.75.61,1.67.2,2.98-.24.14-.53.29-.78.45Z"/>
          <path class="cls-5" d="M156.99,48.88c-1.96,1.29-4.02,2.1-6.98,2.2-1.47-.41-2.84-1.26-2.92-3.02-.04-.08-.12-.12-.22-.18.22-1.45-.82-.98-1.69-1.47,0-.71.33-1.08.55-1.51.53.14.63-.16,1.08.22.18,0,.16-.29.37-.26.16-1.49,1.45-2.47,2.14-3.63.39-.25,1.02-.25,1.14-.84.1.06.16.12.16.29.18-.49,1-.41,1.14-.67.96.24,1.69-.22,2.77.33.27.75.77.49.9,1.26.2,1.43-.94,2.35-1.69,3.18-.39.08-.59-.1-.69.35-.82.08-1.2,1.22-1.9,1.06-.08.16-.2.27-.25.47-.27-.27-.33-.02-.61-.27-.41.73-1.94.18-1.98,1.16.02-.12.14.49.14.51.45.9,1.8,1.18,3.14,1.02.61-.06,1.29-.47,1.98-.71.45-.14.98-.18,1.33-.29.1-.04.31-.41.41-.43.12-.04.31.18.41.14.61-.12.41-.67.8-.8.35.59.39,1.08.47,1.88ZM148.81,45.13c1.35-.02,1.61-.75,2.71-.9.27-.49.92-.84,1.29-.75.27-.65,1.35-.78,1.33-1.71-2.35-.8-3.73.8-5,2.24-.02.22-.41,1.02-.33,1.12Z"/>
        </g>
      </g>
      <g>
        <g>
          <path class="cls-1" d="M5.93,6.97c.02.22-.06.35-.06.55,0,.31.29.61.31.75.12.41-.22.45-.06,1.25.45,1.96.31,3.69.45,5,.2-.53.39-1.1,1.43-2.16.2-.2.63-.33.69-.69.37,0,1.12-.33,1.86-.14.22.31,1,.22,1.29.51.12.12.14.49.31.69.14.16.73,1.1.82,1.37.04.14-.12.25-.08.39.06.14.24.22.31.37.39.98.25,3.24.49,4.18.2.82.75,2.41-.92,2.37-1.12-1.16-.67-3.88-1.02-5.96-.37-.8-.51-2.26-2.31-2.04-.67.24-1.39,1.47-1.82,2.2-.16.27-.06.92-.37.94-.12.51-.18,1.04-.22,1.41-.1,1.06-.06,1.67,0,2.82-.24.27-.53.51-.86.71-1.12-.45-.82-2.26-.75-3.26-.08.16-.18.04-.18-.06-.12-1.77-.08-3.61-.35-5.1.22-.25-.04-.45-.04-.41.43-.55-.14-.69-.12-1.02.33-2.06-.39-3.43.02-5.63,1.04-.53.88.35,1.2.98Z"/>
          <path class="cls-1" d="M18.72,10.7c.2.08.51-.24.67.18-.02-.37.29-.08.31-.37.31,0,.55.04.69.18.67-.45,2.35.14,2.43,1.1,1.06.1.96.53,1.67.96-.06,1.98-.43,3.86-.08,5.88.1-.14.16-.27.27-.41.24-.04.06.49.24.51.41.08.35-.55.35-.9.18.1.27.16.25.45.1-.16.16.02.24-.31.29-.26.16.1.18.31.24.02.27.63.39,1.1-.9.88-.49,1.98-1.96,2.24-.51-.61-.67-.9-1.24-1.43-.35-.63-.08-1.53-.45-2.33-.1.47-.49,1.37-.67,1.02-1.04,1.75-2.61,3.14-4.86,2.16-.71-1.1-1.49-2.08-1.92-3.49.16-1.04.1-1.86.16-2.94.18.04.22-.06.35-.1-.06-.18.1-.59-.08-.63.25-.27.31-.06.71-.12-.02-.14-.31-.12-.33-.43-.1-.29.33-.16.49-.18-.55-.88.47-.35.43-1.37.25.16.39-.02.35-.18.12-.29.51.08.53-.47.2.33.82-.04.88-.45ZM21,17.43c.18-.8.84-1.63,1.37-2.18.12-.88.18-1.37.27-2.29-.53.02-.86-.61-1.35-.71-.14-.02-.31-.16-.53-.14-.88.02-.84.1-1.51.69.02-.02-.1-.14-.18-.1-.43.24-.98.88-.94,1.51-.84.43-.88,2.06-.8,2.73-.12,0-.16.24-.29.24.18.59-.1,1.29.29,1.69.29-.22.82.88,1.16.88.9-.65,1.43-.61,2.51-2.33Z"/>
          <path class="cls-1" d="M29.2,17.04c-.2-.1-.29-.33-.59-.33-.27-2.22-1.96-4.02-2.1-6.39.08-.02.14-.06.16-.14.45-.02.47.41,1.02.31,1.71,1.53,1.69,4.59,3.3,7.14.59-.86.63-1.75,1.04-2.79.08,0,.25-.22.33-.22.2-1.14.96-2.12,1.61-3.08.06-.31-.27-.57-.2-.88.18-.33.73-.04.75-.47.77.51,1.41.49,1.02,1.86-.14.53-.55.88-.78,1.33-.43.86-.73,2.14-1.24,2.96-.27.43-.16.88-.31,1.24-.2.49-.53.84-.63,1.33-.14.75-.18,1.47-.39,2.18-.31.02-.24.39-.55.39-.12-.24-.75-.14-.86-.61.1-.02.1-.37.12-.31-.98-.45-1.02-2.26-1.98-3.2.06-.06.14-.29.27-.31Z"/>
          <path class="cls-1" d="M48.01,19.33c-1.96,1.29-4.02,2.1-6.98,2.2-1.47-.41-2.84-1.26-2.92-3.02-.04-.08-.12-.12-.22-.18.22-1.45-.82-.98-1.69-1.47,0-.71.33-1.08.55-1.51.53.14.63-.16,1.08.22.18,0,.16-.29.37-.26.16-1.49,1.45-2.47,2.14-3.63.39-.25,1.02-.25,1.14-.84.1.06.16.12.16.29.18-.49,1-.41,1.14-.67.96.24,1.69-.22,2.77.33.27.75.77.49.9,1.26.2,1.43-.94,2.35-1.69,3.18-.39.08-.59-.1-.69.35-.82.08-1.2,1.22-1.9,1.06-.08.16-.2.27-.25.47-.27-.27-.33-.02-.61-.27-.41.73-1.94.18-1.98,1.16.02-.12.14.49.14.51.45.9,1.8,1.18,3.14,1.02.61-.06,1.29-.47,1.98-.71.45-.14.98-.18,1.33-.29.1-.04.31-.41.41-.43.12-.04.31.18.41.14.61-.12.41-.67.8-.8.35.59.39,1.08.47,1.88ZM39.83,15.58c1.35-.02,1.61-.75,2.71-.9.27-.49.92-.84,1.29-.75.27-.65,1.35-.78,1.33-1.71-2.35-.8-3.73.8-5,2.24-.02.22-.41,1.02-.33,1.12Z"/>
          <path class="cls-1" d="M61.25,13.35c0-.1-.16-.39-.16-.49-1.63-1.47-4.47-1.12-5.69.49,1.24,1.77,2.55,1.08,4.47,1.63-.06.22.39.33.39.49,1.18.08,2.47.86,3.14,1.96.22,2.9-1.88,3.92-4.55,3.92-.94-.06-3.04-.02-3.94-.98-.33.06-.43-.14-.61-.24.08-.49-.24-.71-.22-.9.41-.53.29-1.33.98-1.31.16.04.16.12.08.24.39-.2.53-.06.9.08-.08.26-.27.75-.45.65.55,1.02,2.1.53,3.26.84.06-.06.12-.16.14-.25.9.08,1.55-.37,2.16-.86,0-.22.14-.57-.14-.53-.1-.12.14-.29.14-.27.02,0-.45-.71-.67-.8-.04-.02-.18.14-.31.08-.22-.12-.22-.18-.63-.35-.55-.22-1.24-.47-1.8-.63-.57-.16-1.2.14-1.73.06-.04,0-.14-.22-.22-.25-.51-.16-.61-.53-.92-.98-.18-.04-.16.14-.39.08-.47-.53-1.04-2.31.14-2.65-.06-.25.08-.29.08-.49.55-.14.45-.14.59-.75.35-.14.2,0,.33-.2.22.12.82.1.86-.35.29.29,1.06-.73,1.33.12.29-.06,0-.29.16-.41.33.12.47.2.75,0,.04.39.1.12.31.08.12.16-.02.1,0,.33.29.08.14-.27.31-.33.47.14.78.22,1,.67.12-.02.08-.2.08-.33.88.31,1.04.63,1.84,1.2.12.8-.39,1.18-1,1.39Z"/>
          <path class="cls-1" d="M72.88,12.11c.25.06.16.06.41,0,.33.45.73.82,1.04,1.31.92,2.33-.27,4.37-1.37,5.79-.14.02-.14-.06-.16-.16-.31.75-1.06,1.08-1.53,1.69-.47-.06-.65.14-.71.49-.71.18-1.65.41-2.18.14-.08.06-.08.2-.25.16.12-.29-.27-.04-.24-.25-1,.02-1.61-.39-2.16-1.2-1.59-.51-1.84-2.75-1.53-4.92.41.04.06-.53.47-.71.37-1.35,1.39-2.69,2.75-3.3.27-.29.57-.59,1.04-.65.22-.08.49-.26.92-.18,1.16-.14,2.1.31,2.79,1.16.45,0,.71.18.71.63ZM67.27,13.52c-.75,1.59-2.02,2.79-.92,5.37.51.84,1.41.65,2.59.57.04-.22.51-.24.55-.47.86.14,1.26-.82,2-1.06.16-.69.65-1.04,1.12-1.45.2-.96.39-1.37.22-2.53-.39-.22-.73-.92-1.35-.9.04-.27.04-.16,0-.41-.98-.18-1.53.04-2.37-.47-.69.33-1.12,1.08-1.86,1.35Z"/>
          <path class="cls-1" d="M90.94,17.35c-.45.94.45,1.79-.22,2.73,0,.1.2.18.31.2-.18.22-.43.37-.51.73-1.26.16-2.28-1.18-1.84-1.92-.47-1.94.47-4-.84-6.16-.35-1.12-.8.55-1.02.67.04.08.18.1.16.26-.88,1.1-.92,2.75-1.75,3.88.1,1.18-.1,1.43-.33,2.9-.9.31-1.31-.43-1.63-1-.04-2.84.06-4.73-.78-7.53-.57-.04-1,.08-.92.73-.29.08-.31.35-.59.18-.04.22-.18.39,0,.55-.39.45-.51,1.16-.94,1.55.14.86-.55,1.37-.75,2.12-.33,1.16-.22,3.04-1.02,3.94-.16.04-.37-.29-.33.08-.47-.24-.9-.57-1.27-.92-.18-2.9-.61-6-.77-9.42,1.84-1.2,1.71,2.08,2.04,3.75.22,1.24,1.06-1.88,1.08-1.92.49-.94,1.24-1.1,1.53-2.02.55-.61,1.47-.08,1.94-.37.55.43,1.14.49,1.43,1.1.12.22.04.57.18.82,0,.02.2,0,.24.1.12.22.08.59.16.82.1.2.16.51.14,1.2.53-1.94,1.39-3.18,2.06-4.22.37.04.98-.2,1.43-.1.31.08.33.45.59.29.35.67,1.1,1.22.86,2.1.08.02.35-.06.37-.14.45,1.25.41,1.94.39,3.16.02.14.14.02.16-.08.51.33-.2.78.27.88.08.59-.33.59-.33.51.06.16.24.25.49.53Z"/>
          <path class="cls-1" d="M103.56,19.33c-1.96,1.29-4.02,2.1-6.98,2.2-1.47-.41-2.84-1.26-2.92-3.02-.04-.08-.12-.12-.22-.18.22-1.45-.82-.98-1.69-1.47,0-.71.33-1.08.55-1.51.53.14.63-.16,1.08.22.18,0,.16-.29.37-.26.16-1.49,1.45-2.47,2.14-3.63.39-.25,1.02-.25,1.14-.84.1.06.16.12.16.29.18-.49,1-.41,1.14-.67.96.24,1.69-.22,2.77.33.27.75.77.49.9,1.26.2,1.43-.94,2.35-1.69,3.18-.39.08-.59-.1-.69.35-.82.08-1.2,1.22-1.9,1.06-.08.16-.2.27-.25.47-.27-.27-.33-.02-.61-.27-.41.73-1.94.18-1.98,1.16.02-.12.14.49.14.51.45.9,1.8,1.18,3.14,1.02.61-.06,1.29-.47,1.98-.71.45-.14.98-.18,1.33-.29.1-.04.31-.41.41-.43.12-.04.31.18.41.14.61-.12.41-.67.8-.8.35.59.39,1.08.47,1.88ZM95.38,15.58c1.35-.02,1.61-.75,2.71-.9.27-.49.92-.84,1.29-.75.27-.65,1.35-.78,1.33-1.71-2.35-.8-3.73.8-5,2.24-.02.22-.41,1.02-.33,1.12Z"/>
          <path class="cls-1" d="M113.88,17.49c.22-.98,1.37-1.65,1.71-2.51.51.14.98-.55,1.33-1.04.67.12.75.29,1.18.8-.65,1.75-.61,2.55-.8,4.94.39-.08.14.25.22.55.37-.49,1.02-1.69,1.49-1.08.41-.39.75.16,1.14.27-.25.2-.02.37-.08.79-1.2.75-1.59,1.67-2.43,2.79.18.9-.51,1.27-.27,1.94-.37.59-.55.73-1.22.55-.69-3.55-.39-4.65-.33-7.71-.49.35-1.04.98-1.22,1.53-1.06.33-1.71.92-3.41.86-2.61-1.71-1.98-6.43-.08-8.24.71-.47,1.41-1.88,2.37-1.49.57-.37,1.2-.14,1.84,0,.75.18,2.1,2.22.63,2.9.04-.29-.2-.29-.45-.26.06-1.78-1.73-1.37-2.59-.78.02.16-.31.35-.12.59-1.75.98-1.2,1.9-1.75,2.88-.29.49-.02,1.08.2,1.06-.06.96.51.63.41,1.25.53-.61,1.04.04.92.08.43-.04.47-.41,1.31-.65Z"/>
          <path class="cls-1" d="M128.16,10.84c.69-.35,1.18.02,1.69.35.59,1.82-.06,3.16.08,4.63.08.73.08,1.51.18,2.16.14.98.65,1.94.75,3.06-.41.45-.92.16-1.61.18.18-.39-.49-.35-.59-.69.04-.92-.02-2.04-.31-2.65-.24.65-1.12,1.14-1.31,1.79-1.08.61-1.84,2.06-3.75,1.45-.35-.1-.65-.45-.84-.59-1.37-2.94-1.41-5.65-1.29-9.1.31-.22.22-.84.43-1.18.71-.14,1.35.37,1.69.86-.2.55.06.55,0,1.02-.02.2-.22.39-.25.59-.06.37.18.39.16.84,0,.22-.2.18-.25.43-.06.24.04.98.08,1.37.04.65.2,1.73.25,1.78.02.69.33,1.35.69,2.3,2.57-1.49,4.39-3.83,4.16-8.59Z"/>
          <path class="cls-1" d="M143.26,19.33c-1.96,1.29-4.02,2.1-6.98,2.2-1.47-.41-2.84-1.26-2.92-3.02-.04-.08-.12-.12-.22-.18.22-1.45-.82-.98-1.69-1.47,0-.71.33-1.08.55-1.51.53.14.63-.16,1.08.22.18,0,.16-.29.37-.26.16-1.49,1.45-2.47,2.14-3.63.39-.25,1.02-.25,1.14-.84.1.06.16.12.16.29.18-.49,1-.41,1.14-.67.96.24,1.69-.22,2.77.33.27.75.77.49.9,1.26.2,1.43-.94,2.35-1.69,3.18-.39.08-.59-.1-.69.35-.82.08-1.2,1.22-1.9,1.06-.08.16-.2.27-.24.47-.27-.27-.33-.02-.61-.27-.41.73-1.94.18-1.98,1.16.02-.12.14.49.14.51.45.9,1.79,1.18,3.14,1.02.61-.06,1.29-.47,1.98-.71.45-.14.98-.18,1.33-.29.1-.04.31-.41.41-.43.12-.04.31.18.41.14.61-.12.41-.67.8-.8.35.59.39,1.08.47,1.88ZM135.08,15.58c1.35-.02,1.61-.75,2.71-.9.27-.49.92-.84,1.29-.75.27-.65,1.35-.78,1.33-1.71-2.35-.8-3.73.8-5,2.24-.02.22-.41,1.02-.33,1.12Z"/>
          <path class="cls-1" d="M150.83,13.35c0-.1-.16-.39-.16-.49-1.63-1.47-4.47-1.12-5.69.49,1.24,1.77,2.55,1.08,4.47,1.63-.06.22.39.33.39.49,1.18.08,2.47.86,3.14,1.96.22,2.9-1.88,3.92-4.55,3.92-.94-.06-3.04-.02-3.94-.98-.33.06-.43-.14-.61-.24.08-.49-.24-.71-.22-.9.41-.53.29-1.33.98-1.31.16.04.16.12.08.24.39-.2.53-.06.9.08-.08.26-.27.75-.45.65.55,1.02,2.1.53,3.26.84.06-.06.12-.16.14-.25.9.08,1.55-.37,2.16-.86,0-.22.14-.57-.14-.53-.1-.12.14-.29.14-.27.02,0-.45-.71-.67-.8-.04-.02-.18.14-.31.08-.22-.12-.22-.18-.63-.35-.55-.22-1.24-.47-1.8-.63-.57-.16-1.2.14-1.73.06-.04,0-.14-.22-.22-.25-.51-.16-.61-.53-.92-.98-.18-.04-.16.14-.39.08-.47-.53-1.04-2.31.14-2.65-.06-.25.08-.29.08-.49.55-.14.45-.14.59-.75.35-.14.2,0,.33-.2.22.12.82.1.86-.35.29.29,1.06-.73,1.33.12.29-.06,0-.29.16-.41.33.12.47.2.75,0,.04.39.1.12.31.08.12.16-.02.1,0,.33.29.08.14-.27.31-.33.47.14.78.22,1,.67.12-.02.08-.2.08-.33.88.31,1.04.63,1.84,1.2.12.8-.39,1.18-1,1.39Z"/>
          <path class="cls-1" d="M159.4,10.97c-.57,1-1.96,1.08-2.96,1.51-.29,1.92-.31,4.39-.2,6.65,0,.14.67.31.65.49.84-.41,1.37-.18,2.04.1-.14,1.26-1.59,1.55-2.65,1.67-.2-.33-.51-.35-.75-.31-1.84-1.73-.53-5.77-.84-8.1-.29-.16-.75.2-1.06.25-.57-.27-.82-.84-1.06-1.43.41-.37,1.04-.61,1.67-.61.51-.18.35-.8.45-1.59.12-.88.45-1.39.53-2.29.49.02.88.12,1.37.31.51.73-.1,2.02-.08,2.73,1.06-.49,2.31-.65,2.9.61Z"/>
          <path class="cls-1" d="M162.01,12.29c.57,2.53-.57,5.71-.08,7.98-.16.59-.55.98-1.06,1.24-.27.1-.57-.08-.35-.49-.39.12-.31,0-.47-.18-.41-.43-.43-.51-.14-1.43.08-.25-.29-.43-.29-.71.04-.88.33-1.92.43-2.71.06-.73,0-1.65.08-2.47.04-.49.49-.63.16-1.31.55-.63,1.1-.16,1.71.08ZM159.87,6.91c-.16.88.24,1.61.67,2.14,1.45.18,1.92-1.04,1.69-2.06-.43-.1-.16-.61-.55-.65-.47.12-.63-.04-.98-.25-.14.41-.41.69-.84.82Z"/>
          <path class="cls-1" d="M172.66,12.11c.25.06.16.06.41,0,.33.45.73.82,1.04,1.31.92,2.33-.27,4.37-1.37,5.79-.14.02-.14-.06-.16-.16-.31.75-1.06,1.08-1.53,1.69-.47-.06-.65.14-.71.49-.71.18-1.65.41-2.18.14-.08.06-.08.2-.25.16.12-.29-.27-.04-.24-.25-1,.02-1.61-.39-2.16-1.2-1.59-.51-1.84-2.75-1.53-4.92.41.04.06-.53.47-.71.37-1.35,1.39-2.69,2.75-3.3.27-.29.57-.59,1.04-.65.22-.08.49-.26.92-.18,1.16-.14,2.1.31,2.79,1.16.45,0,.71.18.71.63ZM167.05,13.52c-.75,1.59-2.02,2.79-.92,5.37.51.84,1.41.65,2.59.57.04-.22.51-.24.55-.47.86.14,1.26-.82,2-1.06.16-.69.65-1.04,1.12-1.45.2-.96.39-1.37.22-2.53-.39-.22-.73-.92-1.35-.9.04-.27.04-.16,0-.41-.98-.18-1.53.04-2.37-.47-.69.33-1.12,1.08-1.86,1.35Z"/>
          <path class="cls-1" d="M184.41,21.04c-.29.12-.53-.55-.92-.59.04-1.88.14-4.24-.49-5.98-.43-1.16-1.82-3.37-2.9-1.77-.31.49-.57,1.55-.86,2.14-.35.71-.63,1.47-.88,2.22,0,.02-.2.04-.22.08-.57,1.51-.16,2.94-.69,4.24-.8.49-1.39-.33-1.67-.94-.08-3.24-.14-5.96-.31-9.79.33.12.27-.2.45-.24.49.22.78.14,1.06.59-.18,1.31.08,2.37.31,4.16.02-.16.2-.86.39-.78.12-.39.04-1.69.61-1.86.04-.94.71-1.14.98-1.82.59-.16,1.04-.51,1.75-.53.8.37,2,.53,2.57,1.14,1.2,2.94,2.31,6.49,1.41,9.63-.27.18-.67-.08-.59.08Z"/>
          <path class="cls-1" d="M193.91,13.35c0-.1-.16-.39-.16-.49-1.63-1.47-4.47-1.12-5.69.49,1.24,1.77,2.55,1.08,4.47,1.63-.06.22.39.33.39.49,1.18.08,2.47.86,3.14,1.96.22,2.9-1.88,3.92-4.55,3.92-.94-.06-3.04-.02-3.94-.98-.33.06-.43-.14-.61-.24.08-.49-.24-.71-.22-.9.41-.53.29-1.33.98-1.31.16.04.16.12.08.24.39-.2.53-.06.9.08-.08.26-.27.75-.45.65.55,1.02,2.1.53,3.26.84.06-.06.12-.16.14-.25.9.08,1.55-.37,2.16-.86,0-.22.14-.57-.14-.53-.1-.12.14-.29.14-.27.02,0-.45-.71-.67-.8-.04-.02-.18.14-.31.08-.22-.12-.22-.18-.63-.35-.55-.22-1.24-.47-1.8-.63-.57-.16-1.2.14-1.73.06-.04,0-.14-.22-.22-.25-.51-.16-.61-.53-.92-.98-.18-.04-.16.14-.39.08-.47-.53-1.04-2.31.14-2.65-.06-.25.08-.29.08-.49.55-.14.45-.14.59-.75.35-.14.2,0,.33-.2.22.12.82.1.86-.35.29.29,1.06-.73,1.33.12.29-.06,0-.29.16-.41.33.12.47.2.75,0,.04.39.1.12.31.08.12.16-.02.1,0,.33.29.08.14-.27.31-.33.47.14.78.22,1,.67.12-.02.08-.2.08-.33.88.31,1.04.63,1.84,1.2.12.8-.39,1.18-1,1.39Z"/>
        </g>
        <g>
          <path class="cls-5" d="M5.93,6.97c.02.22-.06.35-.06.55,0,.31.29.61.31.75.12.41-.22.45-.06,1.25.45,1.96.31,3.69.45,5,.2-.53.39-1.1,1.43-2.16.2-.2.63-.33.69-.69.37,0,1.12-.33,1.86-.14.22.31,1,.22,1.29.51.12.12.14.49.31.69.14.16.73,1.1.82,1.37.04.14-.12.25-.08.39.06.14.24.22.31.37.39.98.25,3.24.49,4.18.2.82.75,2.41-.92,2.37-1.12-1.16-.67-3.88-1.02-5.96-.37-.8-.51-2.26-2.31-2.04-.67.24-1.39,1.47-1.82,2.2-.16.27-.06.92-.37.94-.12.51-.18,1.04-.22,1.41-.1,1.06-.06,1.67,0,2.82-.24.27-.53.51-.86.71-1.12-.45-.82-2.26-.75-3.26-.08.16-.18.04-.18-.06-.12-1.77-.08-3.61-.35-5.1.22-.25-.04-.45-.04-.41.43-.55-.14-.69-.12-1.02.33-2.06-.39-3.43.02-5.63,1.04-.53.88.35,1.2.98Z"/>
          <path class="cls-5" d="M18.72,10.7c.2.08.51-.24.67.18-.02-.37.29-.08.31-.37.31,0,.55.04.69.18.67-.45,2.35.14,2.43,1.1,1.06.1.96.53,1.67.96-.06,1.98-.43,3.86-.08,5.88.1-.14.16-.27.27-.41.24-.04.06.49.24.51.41.08.35-.55.35-.9.18.1.27.16.25.45.1-.16.16.02.24-.31.29-.26.16.1.18.31.24.02.27.63.39,1.1-.9.88-.49,1.98-1.96,2.24-.51-.61-.67-.9-1.24-1.43-.35-.63-.08-1.53-.45-2.33-.1.47-.49,1.37-.67,1.02-1.04,1.75-2.61,3.14-4.86,2.16-.71-1.1-1.49-2.08-1.92-3.49.16-1.04.1-1.86.16-2.94.18.04.22-.06.35-.1-.06-.18.1-.59-.08-.63.25-.27.31-.06.71-.12-.02-.14-.31-.12-.33-.43-.1-.29.33-.16.49-.18-.55-.88.47-.35.43-1.37.25.16.39-.02.35-.18.12-.29.51.08.53-.47.2.33.82-.04.88-.45ZM21,17.43c.18-.8.84-1.63,1.37-2.18.12-.88.18-1.37.27-2.29-.53.02-.86-.61-1.35-.71-.14-.02-.31-.16-.53-.14-.88.02-.84.1-1.51.69.02-.02-.1-.14-.18-.1-.43.24-.98.88-.94,1.51-.84.43-.88,2.06-.8,2.73-.12,0-.16.24-.29.24.18.59-.1,1.29.29,1.69.29-.22.82.88,1.16.88.9-.65,1.43-.61,2.51-2.33Z"/>
          <path class="cls-5" d="M29.2,17.04c-.2-.1-.29-.33-.59-.33-.27-2.22-1.96-4.02-2.1-6.39.08-.02.14-.06.16-.14.45-.02.47.41,1.02.31,1.71,1.53,1.69,4.59,3.3,7.14.59-.86.63-1.75,1.04-2.79.08,0,.25-.22.33-.22.2-1.14.96-2.12,1.61-3.08.06-.31-.27-.57-.2-.88.18-.33.73-.04.75-.47.77.51,1.41.49,1.02,1.86-.14.53-.55.88-.78,1.33-.43.86-.73,2.14-1.24,2.96-.27.43-.16.88-.31,1.24-.2.49-.53.84-.63,1.33-.14.75-.18,1.47-.39,2.18-.31.02-.24.39-.55.39-.12-.24-.75-.14-.86-.61.1-.02.1-.37.12-.31-.98-.45-1.02-2.26-1.98-3.2.06-.06.14-.29.27-.31Z"/>
          <path class="cls-5" d="M48.01,19.33c-1.96,1.29-4.02,2.1-6.98,2.2-1.47-.41-2.84-1.26-2.92-3.02-.04-.08-.12-.12-.22-.18.22-1.45-.82-.98-1.69-1.47,0-.71.33-1.08.55-1.51.53.14.63-.16,1.08.22.18,0,.16-.29.37-.26.16-1.49,1.45-2.47,2.14-3.63.39-.25,1.02-.25,1.14-.84.1.06.16.12.16.29.18-.49,1-.41,1.14-.67.96.24,1.69-.22,2.77.33.27.75.77.49.9,1.26.2,1.43-.94,2.35-1.69,3.18-.39.08-.59-.1-.69.35-.82.08-1.2,1.22-1.9,1.06-.08.16-.2.27-.25.47-.27-.27-.33-.02-.61-.27-.41.73-1.94.18-1.98,1.16.02-.12.14.49.14.51.45.9,1.8,1.18,3.14,1.02.61-.06,1.29-.47,1.98-.71.45-.14.98-.18,1.33-.29.1-.04.31-.41.41-.43.12-.04.31.18.41.14.61-.12.41-.67.8-.8.35.59.39,1.08.47,1.88ZM39.83,15.58c1.35-.02,1.61-.75,2.71-.9.27-.49.92-.84,1.29-.75.27-.65,1.35-.78,1.33-1.71-2.35-.8-3.73.8-5,2.24-.02.22-.41,1.02-.33,1.12Z"/>
          <path class="cls-5" d="M61.25,13.35c0-.1-.16-.39-.16-.49-1.63-1.47-4.47-1.12-5.69.49,1.24,1.77,2.55,1.08,4.47,1.63-.06.22.39.33.39.49,1.18.08,2.47.86,3.14,1.96.22,2.9-1.88,3.92-4.55,3.92-.94-.06-3.04-.02-3.94-.98-.33.06-.43-.14-.61-.24.08-.49-.24-.71-.22-.9.41-.53.29-1.33.98-1.31.16.04.16.12.08.24.39-.2.53-.06.9.08-.08.26-.27.75-.45.65.55,1.02,2.1.53,3.26.84.06-.06.12-.16.14-.25.9.08,1.55-.37,2.16-.86,0-.22.14-.57-.14-.53-.1-.12.14-.29.14-.27.02,0-.45-.71-.67-.8-.04-.02-.18.14-.31.08-.22-.12-.22-.18-.63-.35-.55-.22-1.24-.47-1.8-.63-.57-.16-1.2.14-1.73.06-.04,0-.14-.22-.22-.25-.51-.16-.61-.53-.92-.98-.18-.04-.16.14-.39.08-.47-.53-1.04-2.31.14-2.65-.06-.25.08-.29.08-.49.55-.14.45-.14.59-.75.35-.14.2,0,.33-.2.22.12.82.1.86-.35.29.29,1.06-.73,1.33.12.29-.06,0-.29.16-.41.33.12.47.2.75,0,.04.39.1.12.31.08.12.16-.02.1,0,.33.29.08.14-.27.31-.33.47.14.78.22,1,.67.12-.02.08-.2.08-.33.88.31,1.04.63,1.84,1.2.12.8-.39,1.18-1,1.39Z"/>
          <path class="cls-5" d="M72.88,12.11c.25.06.16.06.41,0,.33.45.73.82,1.04,1.31.92,2.33-.27,4.37-1.37,5.79-.14.02-.14-.06-.16-.16-.31.75-1.06,1.08-1.53,1.69-.47-.06-.65.14-.71.49-.71.18-1.65.41-2.18.14-.08.06-.08.2-.25.16.12-.29-.27-.04-.24-.25-1,.02-1.61-.39-2.16-1.2-1.59-.51-1.84-2.75-1.53-4.92.41.04.06-.53.47-.71.37-1.35,1.39-2.69,2.75-3.3.27-.29.57-.59,1.04-.65.22-.08.49-.26.92-.18,1.16-.14,2.1.31,2.79,1.16.45,0,.71.18.71.63ZM67.27,13.52c-.75,1.59-2.02,2.79-.92,5.37.51.84,1.41.65,2.59.57.04-.22.51-.24.55-.47.86.14,1.26-.82,2-1.06.16-.69.65-1.04,1.12-1.45.2-.96.39-1.37.22-2.53-.39-.22-.73-.92-1.35-.9.04-.27.04-.16,0-.41-.98-.18-1.53.04-2.37-.47-.69.33-1.12,1.08-1.86,1.35Z"/>
          <path class="cls-5" d="M90.94,17.35c-.45.94.45,1.79-.22,2.73,0,.1.2.18.31.2-.18.22-.43.37-.51.73-1.26.16-2.28-1.18-1.84-1.92-.47-1.94.47-4-.84-6.16-.35-1.12-.8.55-1.02.67.04.08.18.1.16.26-.88,1.1-.92,2.75-1.75,3.88.1,1.18-.1,1.43-.33,2.9-.9.31-1.31-.43-1.63-1-.04-2.84.06-4.73-.78-7.53-.57-.04-1,.08-.92.73-.29.08-.31.35-.59.18-.04.22-.18.39,0,.55-.39.45-.51,1.16-.94,1.55.14.86-.55,1.37-.75,2.12-.33,1.16-.22,3.04-1.02,3.94-.16.04-.37-.29-.33.08-.47-.24-.9-.57-1.27-.92-.18-2.9-.61-6-.77-9.42,1.84-1.2,1.71,2.08,2.04,3.75.22,1.24,1.06-1.88,1.08-1.92.49-.94,1.24-1.1,1.53-2.02.55-.61,1.47-.08,1.94-.37.55.43,1.14.49,1.43,1.1.12.22.04.57.18.82,0,.02.2,0,.24.1.12.22.08.59.16.82.1.2.16.51.14,1.2.53-1.94,1.39-3.18,2.06-4.22.37.04.98-.2,1.43-.1.31.08.33.45.59.29.35.67,1.1,1.22.86,2.1.08.02.35-.06.37-.14.45,1.25.41,1.94.39,3.16.02.14.14.02.16-.08.51.33-.2.78.27.88.08.59-.33.59-.33.51.06.16.24.25.49.53Z"/>
          <path class="cls-5" d="M103.56,19.33c-1.96,1.29-4.02,2.1-6.98,2.2-1.47-.41-2.84-1.26-2.92-3.02-.04-.08-.12-.12-.22-.18.22-1.45-.82-.98-1.69-1.47,0-.71.33-1.08.55-1.51.53.14.63-.16,1.08.22.18,0,.16-.29.37-.26.16-1.49,1.45-2.47,2.14-3.63.39-.25,1.02-.25,1.14-.84.1.06.16.12.16.29.18-.49,1-.41,1.14-.67.96.24,1.69-.22,2.77.33.27.75.77.49.9,1.26.2,1.43-.94,2.35-1.69,3.18-.39.08-.59-.1-.69.35-.82.08-1.2,1.22-1.9,1.06-.08.16-.2.27-.25.47-.27-.27-.33-.02-.61-.27-.41.73-1.94.18-1.98,1.16.02-.12.14.49.14.51.45.9,1.8,1.18,3.14,1.02.61-.06,1.29-.47,1.98-.71.45-.14.98-.18,1.33-.29.1-.04.31-.41.41-.43.12-.04.31.18.41.14.61-.12.41-.67.8-.8.35.59.39,1.08.47,1.88ZM95.38,15.58c1.35-.02,1.61-.75,2.71-.9.27-.49.92-.84,1.29-.75.27-.65,1.35-.78,1.33-1.71-2.35-.8-3.73.8-5,2.24-.02.22-.41,1.02-.33,1.12Z"/>
          <path class="cls-5" d="M113.88,17.49c.22-.98,1.37-1.65,1.71-2.51.51.14.98-.55,1.33-1.04.67.12.75.29,1.18.8-.65,1.75-.61,2.55-.8,4.94.39-.08.14.25.22.55.37-.49,1.02-1.69,1.49-1.08.41-.39.75.16,1.14.27-.25.2-.02.37-.08.79-1.2.75-1.59,1.67-2.43,2.79.18.9-.51,1.27-.27,1.94-.37.59-.55.73-1.22.55-.69-3.55-.39-4.65-.33-7.71-.49.35-1.04.98-1.22,1.53-1.06.33-1.71.92-3.41.86-2.61-1.71-1.98-6.43-.08-8.24.71-.47,1.41-1.88,2.37-1.49.57-.37,1.2-.14,1.84,0,.75.18,2.1,2.22.63,2.9.04-.29-.2-.29-.45-.26.06-1.78-1.73-1.37-2.59-.78.02.16-.31.35-.12.59-1.75.98-1.2,1.9-1.75,2.88-.29.49-.02,1.08.2,1.06-.06.96.51.63.41,1.25.53-.61,1.04.04.92.08.43-.04.47-.41,1.31-.65Z"/>
          <path class="cls-5" d="M128.16,10.84c.69-.35,1.18.02,1.69.35.59,1.82-.06,3.16.08,4.63.08.73.08,1.51.18,2.16.14.98.65,1.94.75,3.06-.41.45-.92.16-1.61.18.18-.39-.49-.35-.59-.69.04-.92-.02-2.04-.31-2.65-.24.65-1.12,1.14-1.31,1.79-1.08.61-1.84,2.06-3.75,1.45-.35-.1-.65-.45-.84-.59-1.37-2.94-1.41-5.65-1.29-9.1.31-.22.22-.84.43-1.18.71-.14,1.35.37,1.69.86-.2.55.06.55,0,1.02-.02.2-.22.39-.25.59-.06.37.18.39.16.84,0,.22-.2.18-.25.43-.06.24.04.98.08,1.37.04.65.2,1.73.25,1.78.02.69.33,1.35.69,2.3,2.57-1.49,4.39-3.83,4.16-8.59Z"/>
          <path class="cls-5" d="M143.26,19.33c-1.96,1.29-4.02,2.1-6.98,2.2-1.47-.41-2.84-1.26-2.92-3.02-.04-.08-.12-.12-.22-.18.22-1.45-.82-.98-1.69-1.47,0-.71.33-1.08.55-1.51.53.14.63-.16,1.08.22.18,0,.16-.29.37-.26.16-1.49,1.45-2.47,2.14-3.63.39-.25,1.02-.25,1.14-.84.1.06.16.12.16.29.18-.49,1-.41,1.14-.67.96.24,1.69-.22,2.77.33.27.75.77.49.9,1.26.2,1.43-.94,2.35-1.69,3.18-.39.08-.59-.1-.69.35-.82.08-1.2,1.22-1.9,1.06-.08.16-.2.27-.24.47-.27-.27-.33-.02-.61-.27-.41.73-1.94.18-1.98,1.16.02-.12.14.49.14.51.45.9,1.79,1.18,3.14,1.02.61-.06,1.29-.47,1.98-.71.45-.14.98-.18,1.33-.29.1-.04.31-.41.41-.43.12-.04.31.18.41.14.61-.12.41-.67.8-.8.35.59.39,1.08.47,1.88ZM135.08,15.58c1.35-.02,1.61-.75,2.71-.9.27-.49.92-.84,1.29-.75.27-.65,1.35-.78,1.33-1.71-2.35-.8-3.73.8-5,2.24-.02.22-.41,1.02-.33,1.12Z"/>
          <path class="cls-5" d="M150.83,13.35c0-.1-.16-.39-.16-.49-1.63-1.47-4.47-1.12-5.69.49,1.24,1.77,2.55,1.08,4.47,1.63-.06.22.39.33.39.49,1.18.08,2.47.86,3.14,1.96.22,2.9-1.88,3.92-4.55,3.92-.94-.06-3.04-.02-3.94-.98-.33.06-.43-.14-.61-.24.08-.49-.24-.71-.22-.9.41-.53.29-1.33.98-1.31.16.04.16.12.08.24.39-.2.53-.06.9.08-.08.26-.27.75-.45.65.55,1.02,2.1.53,3.26.84.06-.06.12-.16.14-.25.9.08,1.55-.37,2.16-.86,0-.22.14-.57-.14-.53-.1-.12.14-.29.14-.27.02,0-.45-.71-.67-.8-.04-.02-.18.14-.31.08-.22-.12-.22-.18-.63-.35-.55-.22-1.24-.47-1.8-.63-.57-.16-1.2.14-1.73.06-.04,0-.14-.22-.22-.25-.51-.16-.61-.53-.92-.98-.18-.04-.16.14-.39.08-.47-.53-1.04-2.31.14-2.65-.06-.25.08-.29.08-.49.55-.14.45-.14.59-.75.35-.14.2,0,.33-.2.22.12.82.1.86-.35.29.29,1.06-.73,1.33.12.29-.06,0-.29.16-.41.33.12.47.2.75,0,.04.39.1.12.31.08.12.16-.02.1,0,.33.29.08.14-.27.31-.33.47.14.78.22,1,.67.12-.02.08-.2.08-.33.88.31,1.04.63,1.84,1.2.12.8-.39,1.18-1,1.39Z"/>
          <path class="cls-5" d="M159.4,10.97c-.57,1-1.96,1.08-2.96,1.51-.29,1.92-.31,4.39-.2,6.65,0,.14.67.31.65.49.84-.41,1.37-.18,2.04.1-.14,1.26-1.59,1.55-2.65,1.67-.2-.33-.51-.35-.75-.31-1.84-1.73-.53-5.77-.84-8.1-.29-.16-.75.2-1.06.25-.57-.27-.82-.84-1.06-1.43.41-.37,1.04-.61,1.67-.61.51-.18.35-.8.45-1.59.12-.88.45-1.39.53-2.29.49.02.88.12,1.37.31.51.73-.1,2.02-.08,2.73,1.06-.49,2.31-.65,2.9.61Z"/>
          <path class="cls-5" d="M162.01,12.29c.57,2.53-.57,5.71-.08,7.98-.16.59-.55.98-1.06,1.24-.27.1-.57-.08-.35-.49-.39.12-.31,0-.47-.18-.41-.43-.43-.51-.14-1.43.08-.25-.29-.43-.29-.71.04-.88.33-1.92.43-2.71.06-.73,0-1.65.08-2.47.04-.49.49-.63.16-1.31.55-.63,1.1-.16,1.71.08ZM159.87,6.91c-.16.88.24,1.61.67,2.14,1.45.18,1.92-1.04,1.69-2.06-.43-.1-.16-.61-.55-.65-.47.12-.63-.04-.98-.25-.14.41-.41.69-.84.82Z"/>
          <path class="cls-5" d="M172.66,12.11c.25.06.16.06.41,0,.33.45.73.82,1.04,1.31.92,2.33-.27,4.37-1.37,5.79-.14.02-.14-.06-.16-.16-.31.75-1.06,1.08-1.53,1.69-.47-.06-.65.14-.71.49-.71.18-1.65.41-2.18.14-.08.06-.08.2-.25.16.12-.29-.27-.04-.24-.25-1,.02-1.61-.39-2.16-1.2-1.59-.51-1.84-2.75-1.53-4.92.41.04.06-.53.47-.71.37-1.35,1.39-2.69,2.75-3.3.27-.29.57-.59,1.04-.65.22-.08.49-.26.92-.18,1.16-.14,2.1.31,2.79,1.16.45,0,.71.18.71.63ZM167.05,13.52c-.75,1.59-2.02,2.79-.92,5.37.51.84,1.41.65,2.59.57.04-.22.51-.24.55-.47.86.14,1.26-.82,2-1.06.16-.69.65-1.04,1.12-1.45.2-.96.39-1.37.22-2.53-.39-.22-.73-.92-1.35-.9.04-.27.04-.16,0-.41-.98-.18-1.53.04-2.37-.47-.69.33-1.12,1.08-1.86,1.35Z"/>
          <path class="cls-5" d="M184.41,21.04c-.29.12-.53-.55-.92-.59.04-1.88.14-4.24-.49-5.98-.43-1.16-1.82-3.37-2.9-1.77-.31.49-.57,1.55-.86,2.14-.35.71-.63,1.47-.88,2.22,0,.02-.2.04-.22.08-.57,1.51-.16,2.94-.69,4.24-.8.49-1.39-.33-1.67-.94-.08-3.24-.14-5.96-.31-9.79.33.12.27-.2.45-.24.49.22.78.14,1.06.59-.18,1.31.08,2.37.31,4.16.02-.16.2-.86.39-.78.12-.39.04-1.69.61-1.86.04-.94.71-1.14.98-1.82.59-.16,1.04-.51,1.75-.53.8.37,2,.53,2.57,1.14,1.2,2.94,2.31,6.49,1.41,9.63-.27.18-.67-.08-.59.08Z"/>
          <path class="cls-5" d="M193.91,13.35c0-.1-.16-.39-.16-.49-1.63-1.47-4.47-1.12-5.69.49,1.24,1.77,2.55,1.08,4.47,1.63-.06.22.39.33.39.49,1.18.08,2.47.86,3.14,1.96.22,2.9-1.88,3.92-4.55,3.92-.94-.06-3.04-.02-3.94-.98-.33.06-.43-.14-.61-.24.08-.49-.24-.71-.22-.9.41-.53.29-1.33.98-1.31.16.04.16.12.08.24.39-.2.53-.06.9.08-.08.26-.27.75-.45.65.55,1.02,2.1.53,3.26.84.06-.06.12-.16.14-.25.9.08,1.55-.37,2.16-.86,0-.22.14-.57-.14-.53-.1-.12.14-.29.14-.27.02,0-.45-.71-.67-.8-.04-.02-.18.14-.31.08-.22-.12-.22-.18-.63-.35-.55-.22-1.24-.47-1.8-.63-.57-.16-1.2.14-1.73.06-.04,0-.14-.22-.22-.25-.51-.16-.61-.53-.92-.98-.18-.04-.16.14-.39.08-.47-.53-1.04-2.31.14-2.65-.06-.25.08-.29.08-.49.55-.14.45-.14.59-.75.35-.14.2,0,.33-.2.22.12.82.1.86-.35.29.29,1.06-.73,1.33.12.29-.06,0-.29.16-.41.33.12.47.2.75,0,.04.39.1.12.31.08.12.16-.02.1,0,.33.29.08.14-.27.31-.33.47.14.78.22,1,.67.12-.02.08-.2.08-.33.88.31,1.04.63,1.84,1.2.12.8-.39,1.18-1,1.39Z"/>
        </g>
      </g>
    </g>
  </g>
</svg>