<?xml version="1.0" encoding="UTF-8"?>
<svg id="Layer_2" data-name="Layer 2" xmlns="http://www.w3.org/2000/svg" xmlns:xlink="http://www.w3.org/1999/xlink" viewBox="0 0 197.54 89.84">
  <defs>
    <style>
      .cls-1 {
        fill: #757575;
      }

      .cls-2 {
        filter: url(#drop-shadow-1);
      }

      .cls-2, .cls-3, .cls-4, .cls-5, .cls-6, .cls-7, .cls-8 {
        stroke-width: 2px;
      }

      .cls-2, .cls-4, .cls-5, .cls-6, .cls-8 {
        stroke-miterlimit: 10;
      }

      .cls-2, .cls-6, .cls-8 {
        fill: #fff;
        stroke: #949494;
      }

      .cls-3, .cls-9, .cls-4, .cls-5, .cls-10, .cls-7 {
        fill: none;
      }

      .cls-3, .cls-4 {
        stroke: #949494;
      }

      .cls-3, .cls-10, .cls-7 {
        stroke-linejoin: round;
      }

      .cls-11 {
        fill: #823eed;
      }

      .cls-9, .cls-10 {
        stroke: #fff;
        stroke-width: 5px;
      }

      .cls-5, .cls-7 {
        stroke: #bfbfbf;
      }

      .cls-10, .cls-7 {
        stroke-linecap: round;
      }

      .cls-6 {
        filter: url(#drop-shadow-2);
      }
    </style>
    <filter id="drop-shadow-1" x="0" y="0" width="73.85" height="60.3" filterUnits="userSpaceOnUse">
      <feOffset dx="0" dy="2"/>
      <feGaussianBlur result="blur" stdDeviation="0"/>
      <feFlood flood-color="#000" flood-opacity=".22"/>
      <feComposite in2="blur" operator="in"/>
      <feComposite in="SourceGraphic"/>
    </filter>
    <filter id="drop-shadow-2" x="11.27" y="33.89" width="73.85" height="55.95" filterUnits="userSpaceOnUse">
      <feOffset dx="0" dy="2"/>
      <feGaussianBlur result="blur-2" stdDeviation="0"/>
      <feFlood flood-color="#000" flood-opacity=".22"/>
      <feComposite in2="blur-2" operator="in"/>
      <feComposite in="SourceGraphic"/>
    </filter>
  </defs>
  <g id="Layer_1-2" data-name="Layer 1">
    <g>
      <path class="cls-2" d="M66.65,2.02c-4.33-.32-8.67-.64-13-.96-3.65-.27-7.35.33-11,.63-4.07.34-7.76-.06-11.85-.48-3.34-.34-6.73.32-10.05.65-4.16.41-8.32.76-12.47,1.25C1.36,3.91,1.98,10.93,1.48,16.28c-.71,7.5-.42,18.01-.42,22.28,0,2.09-.27,4.39.84,6.27,1.65,2.83,4.43,3.14,7.32,2.77,8.03-1.03,14.91-.83,22.99-.83,1.7,0,2.98.18,4.64.55,2.14.47,5.13.57,7.1,1.55,2.98,1.48,4.49,5.87,7.1,7.98,3.25,2.62,6.81-6.79,9.01-8.49,1.27-.98,3.46-.49,5.15-.5,2.96-.02,5.81-.71,7.09-3.74.81-1.92.48-4.41.48-6.45v-18.42c0-3.63-.11-7.19-.03-10.8.07-3.44-2.54-6.43-6.09-6.43Z"/>
      <g>
        <g>
          <path class="cls-10" d="M103.14,32.66c.25.94.43,1.4.26,2.21,0,.06.15.11.15.13,0-.09-.13.83-.21,1.06.15.36-.11.7-.3.91-.26.3-.23.79-.43,1.19-.17.32-.77.94-1.02,1.13-.74.53-1.23,1.51-2.19,1.53-.15.02-.15.19-.23.28-.47-.02-.94-.02-1.02.36-.91,0-1.13.25-1.96.34.06-.23-.19-.15-.23-.28-.28.23-.7.17-1.19.23.08-.4-.55-.13-.81-.21v-.21c-.17.13-.51-.04-.59-.21-.08,0-.42-.4-.76-.25-1.28-1-1.68-1.81-2.21-3.55.04-.15.21-.15.23-.28-.36-.28-.09-.6-.08-1.13.02-.25-.15-.45-.15-.62.04-.32.26-.57.3-.85.06-.36-.15-.74.28-.98-.19-.7.4-1.38.45-2.02.21-.08.38-.19.59-.28-.43-.91.49-.59.4-1.44.19-.02.43-.32.51-.43-.04-.06-.11-.04-.19-.08.21-.32.66-.98,1.17-.79-.06-.09-.23-.3.08-.38,0,0-.02-.13.72-.49.49.76.28-.13.38-.25.25.02.72.19.85.43.09-.49.02-.3.28-.45.09.28.59.45.6.79.17-.02.4-.36.62-.32.57.11.62-.11,1.25-.15.08.15.77.25.85.4.32-.23.45.43.79.21.49.81,1.66,1.45,1.57,2.15.17.15.28.53.55.59-.02.28.11.3.06.6.06-.04.09-.08.25-.04-.19.47.15.17.25.66.09.36-.25.32-.25.32-.04.19.15.34.38.17ZM94.15,30.73c-.06.06-.26.08-.3.13-1.17,1.78-1.64,4.46-1.3,6.67.28.62.66,1.17.94,1.81.96.93,3.29.87,4.57.43.36-.26.62-.62,1.17-.7.64-1,1.89-1.53,1.98-2.81.11-.09.28-.15.28-.36.11-2.32-.76-4.87-2.04-6.03-2.21-.89-2.19.3-3.27.6.06-.7-.68.19-.81-.15-.04-.64.4-.7-.13-.94-.15.34-.66.51-.89.77-.08.09-.09.42-.21.57Z"/>
          <path class="cls-10" d="M116.71,29.71c.17.26-.11.55-.13.83-.02.08.15.09.13.21-.26,2.42-2.7,4.5-4.63,5.67.47.19.81.32,1.51.4,1.3.17,2.13,1.15,3.12,1.74.57.34.91.77,1.53,1.17-.15.13-.19.3.06.34-.06.6-.64.23-.68.83-.87-.04-1.47-.85-2.08-1.38-.74-.17-1.25-.93-2.17-1.06-.02.11-.25.19-.36.21-.47-.3-1.11-.28-1.36-.59-1.66.21-2.83-.21-3.91.7.51.94.47,2.44.53,3.38-.36.08-.77.28-.89.4-1.36-.45-1.04-1.91-1.25-2.97-.02-.15-.17-.28-.21-.42-.36-1.44.13-2.85.08-4.29-.06-1.25-.06-2.47.08-3.74-.3.17-.51.06-.98.08-.42-.47-.4-.89-.55-1.59.43-.23,1.04,0,1.04-.42.57-.28,1.32-.19,1.66-.83.59-.15,1.15-.04,1.51-.47.36.15.53-.15.83,0,.15-.02.15-.19.15-.36,2.1-.06,4.17-.7,5.46.91.66.15,1.23.43,1.23,1.25.08.19.17-.21.28,0ZM108.7,30.28c-.26.09-.25-.08-.36-.08-.49.57-.49.04-.98.57.68.74.34.79.62,1.95-.15.15-.34-.02-.55,0-.15.91.08,2.25-.02,3.4.11.17.59-.36.57.25,2.98-1.64,5.72-2.13,7.22-6.23-.47-1.1-2.4-1-3.46-.77-1.17-.04-1.96.55-3.04.93Z"/>
        </g>
        <g>
          <path class="cls-11" d="M103.14,32.66c.25.94.43,1.4.26,2.21,0,.06.15.11.15.13,0-.09-.13.83-.21,1.06.15.36-.11.7-.3.91-.26.3-.23.79-.43,1.19-.17.32-.77.94-1.02,1.13-.74.53-1.23,1.51-2.19,1.53-.15.02-.15.19-.23.28-.47-.02-.94-.02-1.02.36-.91,0-1.13.25-1.96.34.06-.23-.19-.15-.23-.28-.28.23-.7.17-1.19.23.08-.4-.55-.13-.81-.21v-.21c-.17.13-.51-.04-.59-.21-.08,0-.42-.4-.76-.25-1.28-1-1.68-1.81-2.21-3.55.04-.15.21-.15.23-.28-.36-.28-.09-.6-.08-1.13.02-.25-.15-.45-.15-.62.04-.32.26-.57.3-.85.06-.36-.15-.74.28-.98-.19-.7.4-1.38.45-2.02.21-.08.38-.19.59-.28-.43-.91.49-.59.4-1.44.19-.02.43-.32.51-.43-.04-.06-.11-.04-.19-.08.21-.32.66-.98,1.17-.79-.06-.09-.23-.3.08-.38,0,0-.02-.13.72-.49.49.76.28-.13.38-.25.25.02.72.19.85.43.09-.49.02-.3.28-.45.09.28.59.45.6.79.17-.02.4-.36.62-.32.57.11.62-.11,1.25-.15.08.15.77.25.85.4.32-.23.45.43.79.21.49.81,1.66,1.45,1.57,2.15.17.15.28.53.55.59-.02.28.11.3.06.6.06-.04.09-.08.25-.04-.19.47.15.17.25.66.09.36-.25.32-.25.32-.04.19.15.34.38.17ZM94.15,30.73c-.06.06-.26.08-.3.13-1.17,1.78-1.64,4.46-1.3,6.67.28.62.66,1.17.94,1.81.96.93,3.29.87,4.57.43.36-.26.62-.62,1.17-.7.64-1,1.89-1.53,1.98-2.81.11-.09.28-.15.28-.36.11-2.32-.76-4.87-2.04-6.03-2.21-.89-2.19.3-3.27.6.06-.7-.68.19-.81-.15-.04-.64.4-.7-.13-.94-.15.34-.66.51-.89.77-.08.09-.09.42-.21.57Z"/>
          <path class="cls-11" d="M116.71,29.71c.17.26-.11.55-.13.83-.02.08.15.09.13.21-.26,2.42-2.7,4.5-4.63,5.67.47.19.81.32,1.51.4,1.3.17,2.13,1.15,3.12,1.74.57.34.91.77,1.53,1.17-.15.13-.19.3.06.34-.06.6-.64.23-.68.83-.87-.04-1.47-.85-2.08-1.38-.74-.17-1.25-.93-2.17-1.06-.02.11-.25.19-.36.21-.47-.3-1.11-.28-1.36-.59-1.66.21-2.83-.21-3.91.7.51.94.47,2.44.53,3.38-.36.08-.77.28-.89.4-1.36-.45-1.04-1.91-1.25-2.97-.02-.15-.17-.28-.21-.42-.36-1.44.13-2.85.08-4.29-.06-1.25-.06-2.47.08-3.74-.3.17-.51.06-.98.08-.42-.47-.4-.89-.55-1.59.43-.23,1.04,0,1.04-.42.57-.28,1.32-.19,1.66-.83.59-.15,1.15-.04,1.51-.47.36.15.53-.15.83,0,.15-.02.15-.19.15-.36,2.1-.06,4.17-.7,5.46.91.66.15,1.23.43,1.23,1.25.08.19.17-.21.28,0ZM108.7,30.28c-.26.09-.25-.08-.36-.08-.49.57-.49.04-.98.57.68.74.34.79.62,1.95-.15.15-.34-.02-.55,0-.15.91.08,2.25-.02,3.4.11.17.59-.36.57.25,2.98-1.64,5.72-2.13,7.22-6.23-.47-1.1-2.4-1-3.46-.77-1.17-.04-1.96.55-3.04.93Z"/>
        </g>
      </g>
      <path class="cls-7" d="M11.78,11.41c-.35.77.24,1.74,1.05,1.98s1.71-.11,2.33-.68c.63-.57,1.04-1.33,1.44-2.08.66,1.29,1.56,2.46,2.64,3.43,2.02-1.07,4.04-2.14,6.06-3.2.74-.39,1.7-.76,2.34-.23.52.43.62,1.32,1.26,1.53.29.09.59,0,.89-.07,2.5-.63,5.21-.38,7.56.7.29.13.6.29.92.24.24-.03.45-.17.65-.3,3.81-2.39,8.66-1.89,13.15-1.66,4.14.22,8.28.13,12.42.04.1-.4-.05-.85-.38-1.1"/>
      <path class="cls-5" d="M8.13,23.38c.1.43.75.31,1.13.09.73-.42,1.46-.84,2.19-1.26.3-.17.63-.35.97-.3.23.03.43.16.63.29,3.07,1.92,6.8,2.76,10.39,2.34-.1-.44.23-.89.63-1.09.41-.2.88-.2,1.33-.2,3.94,0,7.88,0,11.82.01,2.78.01,5.57.03,8.35.05"/>
      <g>
        <path class="cls-1" d="M51.04,26.42c-.13-.02-.05-.23-.27-.18-.02-.34-.16-.58-.34-.76-.22-1.46-.02-2.32,1.21-3.2.18-.18.83-.79,1.15-.85.31-.25.58-.54.99-.7.85-.9,1.06-2.7-.32-3.17-.05-.05-.07-.14-.07-.25-.27.04-.99-.14-1.13.2-1.3-.27-2.95.5-3.22,1.69-.05,0-.05-.07-.05-.13-.04.18-.11.49-.22.77-.25-.07-.18.14-.4.13-.27-.22-.99-.45-.86-.9-.02-.13-.18.11-.27-.05.09-1.04.88-2.52,2.14-2.79.38-.07.76.09,1.13-.13.07,0,.05-.11.07-.18.58.18,1.85-.45,1.8,0,1.96.04,3.76,1.75,3.69,3.55-.05-.02-.14-.11-.22-.11-.04.58.31,1.17.07,1.67-.52,1.12-1.62,1.8-2.54,2.36-.94-.13-1.87.95-1.28,1.96,0,.05-.07.04-.13.05.11.22.32.32.27.7-.09.05-.25.05-.27.18-.04-.16-.2-.16-.2.07-.23-.11-.54.11-.74.05ZM52.24,29.28c-.14,0-.14.14-.14.31-.54.09-1.62-.05-1.78-.68s.4-1.24,1.03-1.4c.86.07,1.08.95,1.19,1.35-.22-.02,0,.58-.29.43Z"/>
        <path class="cls-1" d="M61.04,26.42c-.13-.02-.05-.23-.27-.18-.02-.34-.16-.58-.34-.76-.22-1.46-.02-2.32,1.21-3.2.18-.18.83-.79,1.15-.85.31-.25.58-.54.99-.7.85-.9,1.06-2.7-.32-3.17-.05-.05-.07-.14-.07-.25-.27.04-.99-.14-1.13.2-1.3-.27-2.95.5-3.22,1.69-.05,0-.05-.07-.05-.13-.04.18-.11.49-.22.77-.25-.07-.18.14-.4.13-.27-.22-.99-.45-.86-.9-.02-.13-.18.11-.27-.05.09-1.04.88-2.52,2.14-2.79.38-.07.76.09,1.13-.13.07,0,.05-.11.07-.18.58.18,1.85-.45,1.8,0,1.96.04,3.76,1.75,3.69,3.55-.05-.02-.14-.11-.22-.11-.04.58.31,1.17.07,1.67-.52,1.12-1.62,1.8-2.54,2.36-.94-.13-1.87.95-1.28,1.96,0,.05-.07.04-.13.05.11.22.32.32.27.7-.09.05-.25.05-.27.18-.04-.16-.2-.16-.2.07-.23-.11-.54.11-.74.05ZM62.25,29.28c-.14,0-.14.14-.14.31-.54.09-1.62-.05-1.78-.68s.4-1.24,1.03-1.4c.86.07,1.08.95,1.19,1.35-.22-.02,0,.58-.29.43Z"/>
      </g>
      <path class="cls-6" d="M77.92,35.91c-4.33-.32-8.67-.64-13-.96-3.65-.27-7.35.33-11,.63-4.07.34-7.76-.06-11.85-.48-3.34-.34-6.73.32-10.05.65-4.16.41-8.32.76-12.47,1.25-6.92.8-6.3,7.82-6.8,13.17-.71,7.5-.42,13.66-.42,17.93,0,2.09-.27,4.39.84,6.27,1.65,2.83,4.43,3.14,7.32,2.77,8.03-1.03,14.91-.83,22.99-.83,1.7,0,2.98.18,4.64.55,2.14.47,5.13.57,7.1,1.55,2.98,1.48,4.49,5.87,7.1,7.98,3.25,2.62,6.81-6.79,9.01-8.49,1.27-.98,3.46-.49,5.15-.5,2.96-.02,5.81-.71,7.09-3.74.81-1.92.48-4.41.48-6.45v-14.07c0-3.63-.11-7.19-.03-10.8.07-3.44-2.54-6.43-6.09-6.43Z"/>
      <path class="cls-3" d="M23.05,46.3c-.35.77.24,1.74,1.05,1.98s1.71-.11,2.33-.68c.63-.57,1.04-1.33,1.44-2.08.66,1.29,1.56,2.46,2.64,3.43,2.02-1.07,4.04-2.14,6.06-3.2.74-.39,1.7-.76,2.34-.23.52.43.62,1.32,1.26,1.53.29.09.59,0,.89-.07,2.5-.63,5.21-.38,7.56.7.29.13.6.29.92.24.24-.03.45-.17.65-.3,3.81-2.39,8.66-1.89,13.15-1.66,4.14.22,8.28.13,12.42.04.1-.4-.05-.85-.38-1.1"/>
      <path class="cls-4" d="M22.66,57.26c.1.43.75.31,1.13.09.73-.42,1.46-.84,2.19-1.26.3-.17.63-.35.97-.3.23.03.43.16.63.29,3.07,1.92,6.8,2.76,10.39,2.34-.1-.44.23-.89.63-1.09.41-.2.88-.2,1.33-.2"/>
      <g>
        <path class="cls-1" d="M51.58,63.57c-.2.27-.18.39-.23.8-.29.2-.68.25-.68.37-.16-.27-.2-.25-.53-.29-.16-.29-.29-.57-.53-.74.2-1.45-.06-3.13,0-4.11v-.04c-.04-.27-.08-.61-.04-.82,0-.04-.55-.61-.04-.92-.02-.08-.31-.14-.39-.14.08-.25.14-.65-.06-.94.12-.02.16.04.25.04v-.18c-.27-.23-.45-.53-.14-.8,0-.16-.1-.39-.27-.35.06-.14.16-.08.18-.23-.31-.55-.43-.63-.04-1.04-.08-.04-.16-.27-.12-.33.06-.08.06-.29.14-.37.12.04.25.08.39.14.04-.02.08-.06.12-.08.08.08.16.16.25.25.29.14.96.02,1.15.1,1.15,2.82.29,5.07.37,7.45.02.72-.16,1.58.23,2.23ZM52.03,67.32c-.37-.7-.86-1.27-1.74-1.04.08.27-.43.2-.45.12-.08.29-.12.35.08.51-.23.02-.25.25-.39.37.14.96.37,2.23,1.74,2.01.53-.51.78-1.1.76-1.96Z"/>
        <path class="cls-1" d="M62.96,63.57c-.2.27-.18.39-.23.8-.29.2-.68.25-.68.37-.16-.27-.2-.25-.53-.29-.16-.29-.29-.57-.53-.74.2-1.45-.06-3.13,0-4.11v-.04c-.04-.27-.08-.61-.04-.82,0-.04-.55-.61-.04-.92-.02-.08-.31-.14-.39-.14.08-.25.14-.65-.06-.94.12-.02.16.04.25.04v-.18c-.27-.23-.45-.53-.14-.8,0-.16-.1-.39-.27-.35.06-.14.16-.08.18-.23-.31-.55-.43-.63-.04-1.04-.08-.04-.16-.27-.12-.33.06-.08.06-.29.14-.37.12.04.25.08.39.14.04-.02.08-.06.12-.08.08.08.16.16.25.25.29.14.96.02,1.15.1,1.15,2.82.29,5.07.37,7.45.02.72-.16,1.58.23,2.23ZM63.41,67.32c-.37-.7-.86-1.27-1.74-1.04.08.27-.43.2-.45.12-.08.29-.12.35.08.51-.23.02-.25.25-.39.37.14.96.37,2.23,1.74,2.01.53-.51.78-1.1.76-1.96Z"/>
      </g>
      <path class="cls-8" d="M164.26,32.24c-.92-4.55-6.31-9.37-10.59-11.27-6.16-2.74-12.97-4.03-19.72-3.76-1.92,2.05-2.97,4.95-3.35,7.72-1.64,11.82-3.53,23.6-5.67,35.34,5.93-.46,11.96-.27,17.73,1.18,5.77,1.45,11.27,4.23,15.43,8.43,2.54-12.55,5.08-25.11,7-37.77,3.35-2.24,7.62-2.46,11.65-2.61,7.36-.28,12.78.54,19.76,2.88-.49,13.36-2.89,25.14-7.38,37.75-4.25-3.81-10.6-4.27-16.27-3.42-5.33.8-10.47,2.55-15.56,4.29"/>
      <g>
        <g>
          <path class="cls-9" d="M140.09,48.64l-.16-.03-.08-.14c-.36-.75-.32-1.72-.31-2.65,0-.53.03-1.04-.03-1.48-.09-.11-.18-.2-.29-.31-.24-.27-.52-.56-.54-1.06.01-.66.68-1.08.91-1.21l.21-.14c.03-.09.02-.2-.11-.39l-.06-.08.03-.14c.06-.39.14-.56.32-.71-.12-.65.12-1.49.34-2.27.1-.35.2-.68.26-.96-.37.02-.61.14-.65.23l-.02.11h-.02s.2.13.2.13l-.1.26c-.07.15-.17.24-.22.27l-.08.04-.11.02s-.05-.01-.06,0l-.13.09-.16-.03c-.07-.01-.11-.02-.18-.03-.02,0-.04,0-.07-.01t-.04,0c-.2-.04-.28-.09-.41-.24-.03-.06-.11-.11-.26-.27,0,0-.18-.2-.32-.26.06-.1.17-.13.17-.13-.04-.06-.08-.14-.09-.22l-.03-.13.1-.13s.04-.03.07-.06c0-.02.05-.06.08-.11,0,0-.19.06-.26-.1.14-.27.48-.39.48-.39.04-.03.14-.07.24-.1.22-.11.56-.23.62-.44l.05-.16.14-.05c1.07-.5,1.33-.5,2.44-.37l.03-.09h.24s.02,0,.02,0c.11,0,.32-.01.49.02.11.02.19.05.27.11.52-.05,1.05-.02,1.6.08,1.03.19,2.12.68,3.16,1.37l.03.02h.02c.77.72,1.27,1.94,1.22,2.99-.05.74-.37,1.38-.95,1.82-.42.86-1.24,1.24-1.98,1.54-.22.11-.44.19-.63.32-.53.54-1.24.56-1.82.56-.33.01-.67.02-.91.12-.22.27-.62.36-.97.46-.08.02-.16.04-.21.05-.09.59,0,1.21.06,1.81.05.4.09.81.08,1.21,0,.46-.15.82-.42,1.08-.21.16-.58.33-1.16.22,0,0-.02,0-.04,0ZM141.63,42.19c.27-.04.51-.09.85-.23.16-.08.31-.11.47-.15.06,0,.13-.01.19-.04h.02c.05-.1.13-.21.28-.31.25-.17.47-.15.65-.15.14.03.22.02.3-.04.17-.13.37-.19.53-.27.14-.05.26-.12.32-.16.3-.2.49-.48.75-.78.1-.13.17-.24.29-.37.11-.09.23-.25.26-.3.22-.38.25-.73.09-1.07-.26-.56-1.02-.95-1.62-1.06-.12-.02-.27-.03-.39-.06h-.07s-.07-.03-.07-.03c-.26-.1-.55-.2-.84-.25-.39-.07-.76-.07-1.02-.03.02.46-.16.94-.35,1.39-.1.33-.23.64-.27.92-.04.29-.06.52-.08.74-.07.54-.13.99-.3,1.71.07.2.05.4.01.52Z"/>
          <path class="cls-9" d="M150.48,50.28c-.07-.11-.1-.15-.15-.16l-.19-.07-.06-.16c-.35-1.45-.37-3.01-.01-4.41,0-.07-.03-.13-.03-.21-.02-.1-.03-.21-.06-.25l-.08-.16.07-.17c.39-.81.49-1.73.57-2.63.03-.36.07-.76.14-1.13.03-.25.14-.47.23-.65.06-.14.15-.29.17-.41.03-.18.02-.38.02-.57-.02-.19-.04-.39,0-.59,0-.15.04-.29.19-.41.04-.03.08-.06.12-.07.02-.12.02-.29.01-.46-.02-.37-.06-.87.29-1.25l.17-.21.24.1c.36.14.86.4,1.16.66l.1.06.03.13c.25,1.22-.06,2.47-.41,3.89-.22.95-.45,1.92-.57,3,.01.04.03.15.05.25.01.13.02.26.01.41-.03.62-.15,1.19-.28,1.75-.14.65-.26,1.29-.23,1.91,1.26-.13,3.28-.24,4.83.05.55.1,1.03.27,1.39.45l.21.13-.05.25s.05.14.07.2c.07.14.13.28.14.43.02.19-.05.36-.17.48-.02.12-.07.28-.2.38-.13.09-.28.13-.44.1-.07-.01-.09.08-.09.08l-.38-.11c-.07-.01-.12-.04-.17-.07h-.11s-.07-.02-.09-.02c-.16-.03-.26-.1-.32-.15t-.02.01s-.14.07-.3.11c-.11-.09-.23-.26-.23-.26h-.02c-.12.03-.29.05-.48.02-.07-.01-.12-.02-.17-.05-.11.07-.26.13-.46.1-.07-.01-.14-.04-.22-.08-1.34.37-2.04.37-3.75.21l-.09-.02-.08-.05c-.16-.1-.25-.25-.3-.37Z"/>
          <path class="cls-9" d="M159.25,51.38c-.16-.23-.36-.53-.42-.89l.02-.29.16-.08c.01-.07.06-.21.15-.32t.06-.03c0-.06-.04-.1-.04-.17.02-.11.06-.25.25-.37l.06-.04c.03-.34.14-.54.42-.75.05-.17.22-.36.3-.44.05-.05.13-.1.19-.15-.06-.29.07-.54.16-.76.09-.17.16-.34.15-.61v-.22s.17-.11.17-.11c.06-.03.1-.04.15-.03,0,0,.06-.14,0-.31.19-.06.5.06.5.06h.02c.08-.15.14-.19.23-.26-.01-.02-.01-.04-.01-.04,0,0-.01-.13-.14-.23-.02-.17.24-.21.24-.21.02-.01.09-.17.14-.18,0,0-.17-.29-.01-.33.12-.03.23.03.23.03,0,0,.06-.21.27-.56.22-.31.54-.3.54-.3t0-.04c.02-.11.04-.23.08-.33.05-.08.13-.18.21-.22.01-.27.1-.55.47-.74l.08-.04.14.03s-.05-.25.06-.3c.07.11.16.05.16.05,0-.04.04-.03.07-.06,0,0-.03-.21.06-.32.1.07.2.02.2.02.01-.07.03-.18.05-.28l.07-.15.19-.06c.72-.2.83-.23,1.25-.87l.11-.18h.13s-.03-.13.04-.22c.04-.03.25-.06.25-.06.19-.02.37-.02.57.02.5.09.9.39,1.4.84,0,0,.11.19.14.25-.1.15-.06.25-.06.25l-.03.05s0,.06.02.1c.02.1.06.25,0,.46.27.62.41,1.25.52,1.9.12.65.26,1.26.54,1.83.08-.04.17-.02.3-.02.04,0,.09.02.15,0l.24.08.09.2s.03.06.3.15l.33.1v.22s.13.06.13.06l.03.34c.05.63-.42.86-.72,1-.12.07-.24.1-.27.19-.13.29,0,.75.35,1.35l.07.11-.03.14c-.03.27.07.6.17.97.14.36.27.82.19,1.31-.03.16.05.3.09.51.13.37.3.92-.32,1.48l-.09.11h-.17s-.06-.08-.06-.06c-.05.05-.06.12-.12.14h-.04s-.04-.01-.04-.01c-.07,0-.13.01-.18,0-.05-.01-.15-.08-.19-.09-.02,0-.11.07-.12.07.04,0-.18.09-.18.09-.66-.97-.83-2.01-1-2.97-.06-.27-.12-.61-.19-.92-.18-.24-.23-.61-.31-.98-.08-.33-.16-.73-.31-.96-.37.02-.79.07-1.21.16-.76.11-1.55.22-2.32.19-.02.01-.16.04-.2.17,0,.02-.02.12-.09.11-.14-.04-.21-.06-.21-.06-.02,0-.04,0-.05-.01-.43-.08-.76-.05-1,.05l-.05.19-.49.35s-.02.03-.05.05c-.02,0-.02.01-.04.03-.05.05-.11.09-.15.12-.02.01-.04.03-.07.06-.12.16-.25.43-.35.69-.33.78-.75,1.75-1.69,1.76l-.34-.03-.07-.31c-.02-.1-.13-.26-.25-.43ZM164.04,46.37c.89-.13,2.08-.31,2.9-.15.09.02.16.03.21.08.19-.11.4-.16.62-.16-.06-.36-.22-.76-.38-1.19-.18-.49-.36-1.02-.37-1.43-.05-.05-.1-.13-.14-.21-.02-.1-.04-.19-.04-.27-.15.19-.38.44-.69.42-.4.38-.76.81-1.13,1.33-.24.32-.51.68-.8,1.03-.05.08-.11.18-.15.3-.03.05-.06.12-.09.17l.06.08h.02Z"/>
          <path class="cls-9" d="M173.18,54.42c-.16-.12-.36-.31-.48-.66l-.03-.06v-.07c.07-.47.15-.93.26-1.41.05-.28.12-.55.18-.83.06-.32.12-.55.2-.79.1-.31.16-.58.2-.96,0-.04,0-.11.02-.18,0-.24,0-.37.03-.47.04-.12.15-.23.22-.29.02-.01.04-.03.05-.05.01-.05-.02-.11-.02-.19-.05-.1-.09-.29-.06-.47.04-.2.15-.3.24-.4.02-.01.05-.06.07-.08.02-.09,0-.28-.02-.46,0-.24-.04-.45.02-.69.04-.2.12-.34.2-.48.03-.05.05-.06.06-.1l-.06-.08v-.15c.03-.42.14-.77.26-1.13.18-.54.32-1.02.06-1.68l-.05-.14.06-.12c.07-.15.2-.18.26-.23.1-.04.18-.09.16-.25,0,0,0-.24.03-.34.2,0,.43.06.43.06.4.13.72.38,1.01.58.06.07.14.12.21.17l.11.08.02.08c.44,1.35,1.08,2.72,1.82,3.97l.11.11-.07.17c-.09.19.15.56.4.89.31.5.73,1.08.63,1.72.22.28.43.63.61.98.2.31.42.69.63,1.02.05-.17.09-.37.13-.56.08-.44.16-.94.44-1.24.2-.77.45-1.51.67-2.21.52-1.47.92-2.75.9-4.28v-.26s.26-.06.26-.06c.21-.03.41-.03.59,0,.25.05.44.18.61.26.17.09.28.16.47.22l.1.04.08.09c.13.17.12.35.09.48,0,0,.14-.05.13.1,0,.15-.08.32-.08.32,0,.02-.03.05-.03.07,0,.04-.03.07-.04.1.04.06.08.16.08.27v.07s-.02.04-.02.04c-.14.36-.28.79-.38,1.16-.23.84-.46,1.64-.89,2.29-.16.93-.35,1.83-.55,2.69-.31,1.34-.62,2.71-.69,4.15l-.05.34s.02.1-.07.06c-.09-.02-.21-.08-.29-.02-.05.05-.04.14-.04.14l-.23.05c-.23.07-.46.08-.63.05-.59-.11-.81-.59-.98-.92-.06-.19-.16-.34-.25-.42l-.21-.15-.03-.24c-.03-.06-.05-.14-.14-.3-.11-.22-.28-.48-.47-.73-.36-.51-.83-1.15-1.09-1.81-.27-.7-.62-1.28-.99-1.95-.24-.38-.47-.81-.68-1.25v-.04s-.03-.02-.03-.02c-.03-.06-.03-.13-.06-.19-.04-.3-.05-.34-.26-.47l-.03-.02c-.01.16,0,.29,0,.44.02.1.02.19.03.24l-.02.09-.03.07c-.05.06-.08.13-.13.21-.06.1-.11.18-.14.27-.07.19-.08.52-.09.87,0,.29,0,.66-.06,1-.03.16-.13.31-.21.46-.12.25-.18.37-.1.55l.06.16-.08.15c-.17.32-.37.96-.27,1.35l.07.23-.17.12c-.11.09-.17.32-.21.53-.06.25-.11.49-.23.73l-.08.13-.12.03c-.1.02-.21.03-.3.02s-.17-.07-.24-.1c-.05-.03-.08-.05-.12-.06h-.02s-.31.01-.31.01l-.11-.19c-.04-.08-.1-.13-.2-.2Z"/>
        </g>
        <g>
          <path class="cls-1" d="M140.09,48.64l-.16-.03-.08-.14c-.36-.75-.32-1.72-.31-2.65,0-.53.03-1.04-.03-1.48-.09-.11-.18-.2-.29-.31-.24-.27-.52-.56-.54-1.06.01-.66.68-1.08.91-1.21l.21-.14c.03-.09.02-.2-.11-.39l-.06-.08.03-.14c.06-.39.14-.56.32-.71-.12-.65.12-1.49.34-2.27.1-.35.2-.68.26-.96-.37.02-.61.14-.65.23l-.02.11h-.02s.2.13.2.13l-.1.26c-.07.15-.17.24-.22.27l-.08.04-.11.02s-.05-.01-.06,0l-.13.09-.16-.03c-.07-.01-.11-.02-.18-.03-.02,0-.04,0-.07-.01t-.04,0c-.2-.04-.28-.09-.41-.24-.03-.06-.11-.11-.26-.27,0,0-.18-.2-.32-.26.06-.1.17-.13.17-.13-.04-.06-.08-.14-.09-.22l-.03-.13.1-.13s.04-.03.07-.06c0-.02.05-.06.08-.11,0,0-.19.06-.26-.1.14-.27.48-.39.48-.39.04-.03.14-.07.24-.1.22-.11.56-.23.62-.44l.05-.16.14-.05c1.07-.5,1.33-.5,2.44-.37l.03-.09h.24s.02,0,.02,0c.11,0,.32-.01.49.02.11.02.19.05.27.11.52-.05,1.05-.02,1.6.08,1.03.19,2.12.68,3.16,1.37l.03.02h.02c.77.72,1.27,1.94,1.22,2.99-.05.74-.37,1.38-.95,1.82-.42.86-1.24,1.24-1.98,1.54-.22.11-.44.19-.63.32-.53.54-1.24.56-1.82.56-.33.01-.67.02-.91.12-.22.27-.62.36-.97.46-.08.02-.16.04-.21.05-.09.59,0,1.21.06,1.81.05.4.09.81.08,1.21,0,.46-.15.82-.42,1.08-.21.16-.58.33-1.16.22,0,0-.02,0-.04,0ZM141.63,42.19c.27-.04.51-.09.85-.23.16-.08.31-.11.47-.15.06,0,.13-.01.19-.04h.02c.05-.1.13-.21.28-.31.25-.17.47-.15.65-.15.14.03.22.02.3-.04.17-.13.37-.19.53-.27.14-.05.26-.12.32-.16.3-.2.49-.48.75-.78.1-.13.17-.24.29-.37.11-.09.23-.25.26-.3.22-.38.25-.73.09-1.07-.26-.56-1.02-.95-1.62-1.06-.12-.02-.27-.03-.39-.06h-.07s-.07-.03-.07-.03c-.26-.1-.55-.2-.84-.25-.39-.07-.76-.07-1.02-.03.02.46-.16.94-.35,1.39-.1.33-.23.64-.27.92-.04.29-.06.52-.08.74-.07.54-.13.99-.3,1.71.07.2.05.4.01.52Z"/>
          <path class="cls-1" d="M150.48,50.28c-.07-.11-.1-.15-.15-.16l-.19-.07-.06-.16c-.35-1.45-.37-3.01-.01-4.41,0-.07-.03-.13-.03-.21-.02-.1-.03-.21-.06-.25l-.08-.16.07-.17c.39-.81.49-1.73.57-2.63.03-.36.07-.76.14-1.13.03-.25.14-.47.23-.65.06-.14.15-.29.17-.41.03-.18.02-.38.02-.57-.02-.19-.04-.39,0-.59,0-.15.04-.29.19-.41.04-.03.08-.06.12-.07.02-.12.02-.29.01-.46-.02-.37-.06-.87.29-1.25l.17-.21.24.1c.36.14.86.4,1.16.66l.1.06.03.13c.25,1.22-.06,2.47-.41,3.89-.22.95-.45,1.92-.57,3,.01.04.03.15.05.25.01.13.02.26.01.41-.03.62-.15,1.19-.28,1.75-.14.65-.26,1.29-.23,1.91,1.26-.13,3.28-.24,4.83.05.55.1,1.03.27,1.39.45l.21.13-.05.25s.05.14.07.2c.07.14.13.28.14.43.02.19-.05.36-.17.48-.02.12-.07.28-.2.38-.13.09-.28.13-.44.1-.07-.01-.09.08-.09.08l-.38-.11c-.07-.01-.12-.04-.17-.07h-.11s-.07-.02-.09-.02c-.16-.03-.26-.1-.32-.15t-.02.01s-.14.07-.3.11c-.11-.09-.23-.26-.23-.26h-.02c-.12.03-.29.05-.48.02-.07-.01-.12-.02-.17-.05-.11.07-.26.13-.46.1-.07-.01-.14-.04-.22-.08-1.34.37-2.04.37-3.75.21l-.09-.02-.08-.05c-.16-.1-.25-.25-.3-.37Z"/>
          <path class="cls-1" d="M159.25,51.38c-.16-.23-.36-.53-.42-.89l.02-.29.16-.08c.01-.07.06-.21.15-.32t.06-.03c0-.06-.04-.1-.04-.17.02-.11.06-.25.25-.37l.06-.04c.03-.34.14-.54.42-.75.05-.17.22-.36.3-.44.05-.05.13-.1.19-.15-.06-.29.07-.54.16-.76.09-.17.16-.34.15-.61v-.22s.17-.11.17-.11c.06-.03.1-.04.15-.03,0,0,.06-.14,0-.31.19-.06.5.06.5.06h.02c.08-.15.14-.19.23-.26-.01-.02-.01-.04-.01-.04,0,0-.01-.13-.14-.23-.02-.17.24-.21.24-.21.02-.01.09-.17.14-.18,0,0-.17-.29-.01-.33.12-.03.23.03.23.03,0,0,.06-.21.27-.56.22-.31.54-.3.54-.3t0-.04c.02-.11.04-.23.08-.33.05-.08.13-.18.21-.22.01-.27.1-.55.47-.74l.08-.04.14.03s-.05-.25.06-.3c.07.11.16.05.16.05,0-.04.04-.03.07-.06,0,0-.03-.21.06-.32.1.07.2.02.2.02.01-.07.03-.18.05-.28l.07-.15.19-.06c.72-.2.83-.23,1.25-.87l.11-.18h.13s-.03-.13.04-.22c.04-.03.25-.06.25-.06.19-.02.37-.02.57.02.5.09.9.39,1.4.84,0,0,.11.19.14.25-.1.15-.06.25-.06.25l-.03.05s0,.06.02.1c.02.1.06.25,0,.46.27.62.41,1.25.52,1.9.12.65.26,1.26.54,1.83.08-.04.17-.02.3-.02.04,0,.09.02.15,0l.24.08.09.2s.03.06.3.15l.33.1v.22s.13.06.13.06l.03.34c.05.63-.42.86-.72,1-.12.07-.24.1-.27.19-.13.29,0,.75.35,1.35l.07.11-.03.14c-.03.27.07.6.17.97.14.36.27.82.19,1.31-.03.16.05.3.09.51.13.37.3.92-.32,1.48l-.09.11h-.17s-.06-.08-.06-.06c-.05.05-.06.12-.12.14h-.04s-.04-.01-.04-.01c-.07,0-.13.01-.18,0-.05-.01-.15-.08-.19-.09-.02,0-.11.07-.12.07.04,0-.18.09-.18.09-.66-.97-.83-2.01-1-2.97-.06-.27-.12-.61-.19-.92-.18-.24-.23-.61-.31-.98-.08-.33-.16-.73-.31-.96-.37.02-.79.07-1.21.16-.76.11-1.55.22-2.32.19-.02.01-.16.04-.2.17,0,.02-.02.12-.09.11-.14-.04-.21-.06-.21-.06-.02,0-.04,0-.05-.01-.43-.08-.76-.05-1,.05l-.05.19-.49.35s-.02.03-.05.05c-.02,0-.02.01-.04.03-.05.05-.11.09-.15.12-.02.01-.04.03-.07.06-.12.16-.25.43-.35.69-.33.78-.75,1.75-1.69,1.76l-.34-.03-.07-.31c-.02-.1-.13-.26-.25-.43ZM164.04,46.37c.89-.13,2.08-.31,2.9-.15.09.02.16.03.21.08.19-.11.4-.16.62-.16-.06-.36-.22-.76-.38-1.19-.18-.49-.36-1.02-.37-1.43-.05-.05-.1-.13-.14-.21-.02-.1-.04-.19-.04-.27-.15.19-.38.44-.69.42-.4.38-.76.81-1.13,1.33-.24.32-.51.68-.8,1.03-.05.08-.11.18-.15.3-.03.05-.06.12-.09.17l.06.08h.02Z"/>
          <path class="cls-1" d="M173.18,54.42c-.16-.12-.36-.31-.48-.66l-.03-.06v-.07c.07-.47.15-.93.26-1.41.05-.28.12-.55.18-.83.06-.32.12-.55.2-.79.1-.31.16-.58.2-.96,0-.04,0-.11.02-.18,0-.24,0-.37.03-.47.04-.12.15-.23.22-.29.02-.01.04-.03.05-.05.01-.05-.02-.11-.02-.19-.05-.1-.09-.29-.06-.47.04-.2.15-.3.24-.4.02-.01.05-.06.07-.08.02-.09,0-.28-.02-.46,0-.24-.04-.45.02-.69.04-.2.12-.34.2-.48.03-.05.05-.06.06-.1l-.06-.08v-.15c.03-.42.14-.77.26-1.13.18-.54.32-1.02.06-1.68l-.05-.14.06-.12c.07-.15.2-.18.26-.23.1-.04.18-.09.16-.25,0,0,0-.24.03-.34.2,0,.43.06.43.06.4.13.72.38,1.01.58.06.07.14.12.21.17l.11.08.02.08c.44,1.35,1.08,2.72,1.82,3.97l.11.11-.07.17c-.09.19.15.56.4.89.31.5.73,1.08.63,1.72.22.28.43.63.61.98.2.31.42.69.63,1.02.05-.17.09-.37.13-.56.08-.44.16-.94.44-1.24.2-.77.45-1.51.67-2.21.52-1.47.92-2.75.9-4.28v-.26s.26-.06.26-.06c.21-.03.41-.03.59,0,.25.05.44.18.61.26.17.09.28.16.47.22l.1.04.08.09c.13.17.12.35.09.48,0,0,.14-.05.13.1,0,.15-.08.32-.08.32,0,.02-.03.05-.03.07,0,.04-.03.07-.04.1.04.06.08.16.08.27v.07s-.02.04-.02.04c-.14.36-.28.79-.38,1.16-.23.84-.46,1.64-.89,2.29-.16.93-.35,1.83-.55,2.69-.31,1.34-.62,2.71-.69,4.15l-.05.34s.02.1-.07.06c-.09-.02-.21-.08-.29-.02-.05.05-.04.14-.04.14l-.23.05c-.23.07-.46.08-.63.05-.59-.11-.81-.59-.98-.92-.06-.19-.16-.34-.25-.42l-.21-.15-.03-.24c-.03-.06-.05-.14-.14-.3-.11-.22-.28-.48-.47-.73-.36-.51-.83-1.15-1.09-1.81-.27-.7-.62-1.28-.99-1.95-.24-.38-.47-.81-.68-1.25v-.04s-.03-.02-.03-.02c-.03-.06-.03-.13-.06-.19-.04-.3-.05-.34-.26-.47l-.03-.02c-.01.16,0,.29,0,.44.02.1.02.19.03.24l-.02.09-.03.07c-.05.06-.08.13-.13.21-.06.1-.11.18-.14.27-.07.19-.08.52-.09.87,0,.29,0,.66-.06,1-.03.16-.13.31-.21.46-.12.25-.18.37-.1.55l.06.16-.08.15c-.17.32-.37.96-.27,1.35l.07.23-.17.12c-.11.09-.17.32-.21.53-.06.25-.11.49-.23.73l-.08.13-.12.03c-.1.02-.21.03-.3.02s-.17-.07-.24-.1c-.05-.03-.08-.05-.12-.06h-.02s-.31.01-.31.01l-.11-.19c-.04-.08-.1-.13-.2-.2Z"/>
        </g>
      </g>
    </g>
  </g>
</svg>