<?xml version="1.0" encoding="UTF-8"?>
<svg id="Layer_2" data-name="Layer 2" xmlns="http://www.w3.org/2000/svg" xmlns:xlink="http://www.w3.org/1999/xlink" viewBox="0 0 272.19 191.57">
  <defs>
    <style>
      .cls-1 {
        stroke: #c6c6c6;
      }

      .cls-1, .cls-2, .cls-3, .cls-4, .cls-5, .cls-6, .cls-7, .cls-8, .cls-9, .cls-10, .cls-11 {
        stroke-linecap: round;
        stroke-linejoin: round;
      }

      .cls-1, .cls-3, .cls-4, .cls-5, .cls-6, .cls-7, .cls-8, .cls-9, .cls-11 {
        fill: none;
      }

      .cls-2 {
        fill: #e0e0e0;
      }

      .cls-2, .cls-8, .cls-10, .cls-12 {
        stroke: #949494;
      }

      .cls-3 {
        stroke: #a16a00;
      }

      .cls-3, .cls-4, .cls-13, .cls-5, .cls-6, .cls-7, .cls-11 {
        stroke-width: 2px;
      }

      .cls-4 {
        stroke: #b23b00;
      }

      .cls-13 {
        filter: url(#drop-shadow-1);
        stroke: #949494;
      }

      .cls-13, .cls-10 {
        fill: #fff;
      }

      .cls-13, .cls-12 {
        stroke-miterlimit: 10;
      }

      .cls-14 {
        fill: #823eed;
      }

      .cls-5 {
        stroke: url(#linear-gradient-2);
      }

      .cls-6 {
        stroke: #3b9600;
      }

      .cls-7 {
        stroke: url(#linear-gradient);
      }

      .cls-9 {
        stroke: #939393;
      }

      .cls-15 {
        fill: #f5f5f5;
      }

      .cls-12 {
        fill: #afafaf;
      }

      .cls-11 {
        stroke: #c98600;
      }
    </style>
    <linearGradient id="linear-gradient" x1="-565.31" y1="11793.12" x2="-464.61" y2="11793.12" gradientTransform="translate(-699.64 11849.97) rotate(6.76) scale(1 -1)" gradientUnits="userSpaceOnUse">
      <stop offset=".13" stop-color="#c98600"/>
      <stop offset=".88" stop-color="#3b9600"/>
    </linearGradient>
    <linearGradient id="linear-gradient-2" x1="-320.31" y1="111.79" x2="-257.07" y2="111.79" gradientTransform="translate(468.08 -4.31) rotate(-.03) scale(1.05 1) skewX(-.05)" gradientUnits="userSpaceOnUse">
      <stop offset=".17" stop-color="#b23b00"/>
      <stop offset=".59" stop-color="#c98600"/>
    </linearGradient>
    <filter id="drop-shadow-1" x="0" y="118.03" width="121.68" height="73.54" filterUnits="userSpaceOnUse">
      <feOffset dx="0" dy="2"/>
      <feGaussianBlur result="blur" stdDeviation="0"/>
      <feFlood flood-color="#000" flood-opacity=".22"/>
      <feComposite in2="blur" operator="in"/>
      <feComposite in="SourceGraphic"/>
    </filter>
  </defs>
  <g id="Layer_1-2" data-name="Layer 1">
    <g>
      <g>
        <path class="cls-14" d="M60.64,7.94c.51-.43,1.2-.17,1.86-.05.55-.74,1.92.69,2.46.3.27.12.45.36.82.37.46.82,1.94,2.68-.19,2.68.14-1.1-1.32-1.08-1.84-1.57-1.32-.18-3.4-.39-4.67.65-.79-.09-1.02.93-.85,1.62,1.9,2.31,2.8.69,4.27,1.61.15.02.17-.09.33-.08.74.72,2.09.36,2.64,1.2.55.03,1.21.08,1.33.51,1.38.62,2.18,2.06,2.05,2.96-.09.81.47,1.08.42,1.68-.02.17-.59.65-.66.83,0,.04,0,.17.09.24.36.21-.48.14-.5.19-.04.09.03.37,0,.44-.8,1.12-2.32,1.46-3.96,1.58-.09.02-.06.16-.17.16-1.07.12-1.98-.19-2.93.08-.4-.21-1.13-.56-1.54-.26-1.11-.69-2.41-.94-3.07-1.88.11,0,.15-.11.15-.2-.16-.13-.36-.19-.58-.23.01-.28.05-.61-.34-.47.33-.75-.36-.49-.28-1.31.37-.05,1.14-.78,1.52-.46.13.87.85.76.96,1.37.97.19,1.25.73,2.07,1.23.3-.07.78-.24.97.19.09,0,.24-.14.25-.23.11,0,.4.23.41-.1.2-.03.24.1.33.23,1.03-.66,2.01-.01,3.03-.28.26-.07.6-.61.98-.84,0,0-.17-.54-.12-.57.17-.05.74-.11.79-.55.12-1.17-.97-1.75-1.88-2.2-.33-.17-.85-.55-1.25-.69-.18-.06-.53-.03-.64-.07-.29-.1-.43-.34-.67-.46-.24-.1-.58.26-.83.18-.69-.29-1.83-.37-2.56-.8-1.21-.14-1.37-1.1-2.13-1.74-.63-1.27-.36-2.81.3-4.06,1.21-.76,2.13-.65,3.16-1.47-.02.13.33.25.44.25Z"/>
        <path class="cls-14" d="M76.22,11.69c-.58,1.09-2.07,1.22-3.13,1.71-.25,2.06-.2,4.71-.02,7.14,0,.15.73.31.71.5.88-.46,1.46-.24,2.19.05-.12,1.36-1.66,1.71-2.79,1.87-.23-.34-.56-.36-.82-.3-2.02-1.81-.74-6.17-1.14-8.66-.31-.17-.8.24-1.13.29-.62-.27-.9-.87-1.18-1.5.43-.41,1.1-.69,1.77-.71.54-.21.35-.86.43-1.72.11-.94.44-1.5.5-2.47.53,0,.94.11,1.48.29.57.77-.05,2.17,0,2.93,1.12-.56,2.45-.77,3.12.57Z"/>
        <path class="cls-14" d="M84.07,11.34c.73-.39,1.27-.01,1.83.32.69,1.93.03,3.39.23,4.96.11.78.13,1.62.26,2.31.18,1.04.76,2.06.9,3.26-.42.49-.98.2-1.72.24.19-.42-.54-.36-.65-.72.02-.99-.08-2.19-.41-2.83-.24.71-1.17,1.26-1.35,1.96-1.14.69-1.91,2.26-3.98,1.66-.37-.1-.71-.46-.91-.61-1.55-3.11-1.68-6.02-1.65-9.72.32-.25.21-.9.42-1.28.76-.17,1.46.35,1.84.87-.2.6.08.59.03,1.09-.02.22-.23.42-.24.64-.05.4.21.41.2.89,0,.24-.21.2-.25.47-.06.26.07,1.05.13,1.46.06.7.27,1.85.31,1.9.04.74.39,1.43.81,2.45,2.71-1.67,4.59-4.24,4.21-9.33Z"/>
        <path class="cls-14" d="M97.66,13.39c.35.8.5,2.22.42,3.18.29.96.7,2.24.64,3.27.34.43.45,1.39.12,1.79-.74.13-1.06.6-1.63.29-.03-.39-.41-.56-.18-.96-.13,0-.17,0-.2-.08.1-.35.05-.46-.04-.68-.26.77-1.39,1.24-1.89,1.96-.09-.06-.2-.1-.33-.1-4.79,1.84-6.48-1.64-5.93-3.88.06-.18-.14-.13-.14-.26-.18-1.86,1.51-4.09,2.78-4.63-.08-.57-.01-.44.11-.79.31.01.51.23.77.13,0-.15-.05-.24-.05-.39.25-.62,1.77.59,1.96-.6.5.07,1.09-.07,1.58.22-.12-1.26.12-1.21-.23-1.94.52-1.68-.05-2.52.3-4.04.19-.22.9-.09.97-.42.75.33.66.9.73,1.99.04.63.11,1.44-.13,1.62.49,1.15.37,3.05.38,4.32ZM90.3,18.52c.56,1.36.29,1.83,1.64,2.19.39-.12,1.27.12,1.64-.11.15-.09.89-.9,1.11-.38.07-.66,1.07-.95,1.45-1.27-.13-.65.04-1.64-.31-2.42.52-.23.03-2.21-.19-2.77-.28.03-1.03-.01-1.23-.08-2.19.83-3.62,2.12-4.13,4.06.37.03.06.72.02.79Z"/>
        <path class="cls-14" d="M112.68,19.65c-2.06,1.44-4.25,2.37-7.41,2.57-1.59-.39-3.08-1.27-3.22-3.15-.05-.09-.13-.13-.25-.19.2-1.56-.9-1.03-1.86-1.52-.02-.77.32-1.17.55-1.64.57.14.67-.19,1.17.21.2,0,.17-.31.38-.29.13-1.6,1.48-2.69,2.19-3.96.41-.27,1.09-.29,1.2-.93.11.06.18.13.18.3.18-.53,1.06-.47,1.21-.76,1.04.23,1.81-.29,2.98.27.31.8.85.5,1,1.33.26,1.53-.94,2.54-1.72,3.46-.41.1-.64-.09-.73.39-.87.11-1.25,1.35-2,1.19-.08.18-.21.29-.25.51-.29-.28-.35-.01-.66-.27-.42.8-2.07.25-2.09,1.31.02-.13.17.52.17.54.51.95,1.96,1.21,3.4,1,.65-.08,1.36-.54,2.1-.82.48-.17,1.04-.23,1.41-.35.11-.05.32-.45.42-.47.13-.05.33.19.44.14.65-.15.42-.73.83-.88.39.62.45,1.15.56,2ZM103.8,15.87c1.44-.06,1.71-.86,2.88-1.04.27-.53.96-.92,1.36-.85.27-.71,1.42-.87,1.37-1.88-2.54-.78-3.98.96-5.29,2.56-.01.24-.41,1.11-.32,1.21Z"/>
        <path class="cls-14" d="M122.82,21.2c-.3.14-.58-.58-1-.61-.01-2.01.03-4.55-.7-6.39-.49-1.23-2.05-3.55-3.16-1.82-.31.53-.57,1.68-.86,2.32-.35.78-.63,1.59-.87,2.41,0,.02-.22.05-.24.09-.57,1.64-.09,3.16-.62,4.57-.84.55-1.5-.31-1.82-.96-.18-3.48-.33-6.38-.62-10.49.35.12.28-.23.47-.28.53.23.84.13,1.16.6-.16,1.4.16,2.53.45,4.45.02-.17.19-.92.39-.84.12-.42,0-1.82.6-2.01.02-1.01.73-1.25,1-1.98.63-.19,1.1-.58,1.86-.62.87.37,2.16.51,2.79,1.15,1.38,3.11,2.67,6.89,1.8,10.28-.28.2-.72-.07-.63.11Z"/>
        <path class="cls-14" d="M130.97,10.16c-.58,1.09-2.07,1.22-3.13,1.71-.25,2.06-.2,4.71-.02,7.14,0,.15.73.31.71.5.88-.46,1.46-.24,2.19.05-.12,1.36-1.66,1.71-2.79,1.87-.23-.34-.56-.36-.82-.3-2.02-1.8-.74-6.17-1.14-8.66-.31-.17-.8.24-1.13.29-.62-.27-.9-.87-1.18-1.5.43-.41,1.1-.69,1.77-.71.54-.21.35-.86.43-1.72.11-.94.44-1.5.5-2.47.53,0,.95.11,1.48.29.57.77-.05,2.17,0,2.93,1.12-.56,2.45-.77,3.12.57Z"/>
        <path class="cls-14" d="M150.74,7.09c.21.3-.11.64-.13.97-.02.09.18.1.16.24-.23,2.81-2.98,5.29-5.18,6.71.55.2.95.35,1.76.41,1.52.15,2.51,1.26,3.67,1.91.67.38,1.07.87,1.81,1.31-.17.16-.21.36.08.39-.05.7-.74.28-.76.98-1.01-.02-1.73-.94-2.45-1.53-.86-.17-1.47-1.03-2.55-1.15-.02.13-.28.23-.41.25-.56-.33-1.3-.29-1.59-.63-1.92.29-3.29-.15-4.51.94.62,1.08.62,2.81.72,3.9-.41.1-.89.35-1.01.49-1.59-.48-1.26-2.18-1.54-3.39-.03-.17-.21-.32-.25-.47-.46-1.65.06-3.31-.05-4.97-.11-1.44-.15-2.86-.03-4.33-.35.21-.59.08-1.14.12-.5-.53-.49-1.02-.69-1.82.5-.28,1.2-.03,1.19-.52.65-.35,1.52-.26,1.9-1.02.67-.19,1.33-.08,1.74-.59.42.16.61-.19.96-.03.17-.03.17-.22.16-.42,2.43-.13,4.81-.94,6.35.87.77.15,1.44.46,1.46,1.4.09.22.19-.25.33,0ZM141.48,8.01c-.3.12-.29-.08-.42-.08-.55.67-.57.06-1.12.69.81.83.42.91.79,2.23-.17.18-.39-.01-.63.02-.15,1.06.16,2.6.09,3.94.14.19.67-.43.66.27,3.4-2,6.56-2.66,8.15-7.45-.58-1.25-2.81-1.08-4.03-.79-1.36,0-2.26.7-3.49,1.17Z"/>
        <path class="cls-14" d="M164.98,18.19c-2.06,1.44-4.25,2.37-7.42,2.57-1.59-.39-3.08-1.27-3.22-3.15-.05-.09-.13-.13-.25-.19.2-1.56-.9-1.03-1.86-1.53-.02-.77.32-1.17.55-1.64.57.14.67-.19,1.17.21.2,0,.17-.31.38-.29.13-1.6,1.48-2.69,2.19-3.96.41-.27,1.09-.29,1.2-.93.11.06.18.13.18.3.18-.53,1.06-.47,1.21-.76,1.04.23,1.81-.29,2.98.27.31.8.85.5,1,1.33.26,1.52-.94,2.54-1.72,3.46-.41.1-.64-.09-.73.39-.87.11-1.25,1.35-2,1.19-.08.18-.21.29-.25.51-.29-.28-.35-.01-.66-.27-.42.8-2.07.25-2.09,1.31.02-.13.17.52.17.54.51.95,1.96,1.21,3.4,1,.65-.08,1.36-.54,2.1-.83.48-.17,1.04-.23,1.41-.34.11-.05.32-.45.42-.47.13-.05.33.19.44.14.65-.15.42-.73.83-.88.39.62.45,1.15.56,2ZM156.09,14.41c1.44-.06,1.71-.86,2.88-1.04.27-.53.96-.92,1.36-.85.27-.71,1.42-.87,1.37-1.88-2.54-.78-3.98.97-5.29,2.56-.01.24-.41,1.11-.32,1.21Z"/>
        <path class="cls-14" d="M167.84,15.66c-.22-.1-.31-.34-.64-.33-.35-2.38-2.22-4.25-2.44-6.78.09-.03.15-.07.17-.16.48-.04.52.42,1.1.3,1.88,1.59,1.95,4.87,3.76,7.56.61-.94.62-1.9,1.03-3.03.09,0,.26-.25.34-.25.19-1.23.96-2.3,1.64-3.35.06-.33-.3-.6-.25-.93.19-.36.79-.07.79-.53.85.52,1.52.48,1.15,1.96-.14.57-.56.96-.79,1.45-.43.93-.72,2.32-1.25,3.21-.27.47-.15.95-.29,1.34-.21.53-.54.91-.64,1.44-.13.81-.15,1.58-.35,2.35-.33.03-.25.42-.58.43-.14-.26-.81-.13-.94-.63.11-.02.1-.4.12-.33-1.06-.45-1.16-2.4-2.22-3.38.06-.07.14-.31.27-.34Z"/>
        <path class="cls-14" d="M177.21,3.64c.38.21.56.38,1.06.23.42.03.15.59.61.68.27,1.09-.2,2.41-1.75,2.26-.47-.56-.93-1.33-.79-2.28.46-.14.73-.46.87-.9ZM176.95,10.22c.37.71-.11.88-.14,1.41-.06.88.03,1.86-.01,2.65-.09.86-.36,1.98-.38,2.92,0,.31.41.49.33.76-.28.99-.25,1.08.2,1.53.18.19.1.32.51.18-.23.44.1.63.39.51.54-.3.94-.73,1.1-1.37-.59-2.41.54-5.86-.15-8.55-.66-.24-1.27-.73-1.84-.04Z"/>
        <path class="cls-14" d="M192.94,17.41c-2.06,1.44-4.25,2.37-7.41,2.57-1.59-.39-3.08-1.27-3.22-3.15-.05-.09-.13-.13-.25-.19.2-1.56-.9-1.03-1.86-1.52-.02-.77.32-1.17.55-1.64.57.14.67-.19,1.17.21.2,0,.17-.31.38-.29.13-1.6,1.48-2.69,2.19-3.96.41-.27,1.09-.29,1.2-.93.11.06.18.13.18.3.18-.53,1.06-.47,1.21-.76,1.04.23,1.81-.29,2.98.27.31.8.85.5,1,1.33.26,1.53-.94,2.54-1.72,3.46-.41.1-.64-.09-.73.39-.87.11-1.25,1.35-2,1.19-.08.18-.21.29-.25.51-.29-.28-.35-.01-.66-.27-.42.8-2.07.26-2.09,1.31.02-.13.17.52.17.54.51.95,1.96,1.22,3.4,1,.65-.08,1.36-.54,2.1-.82.48-.17,1.04-.23,1.41-.35.11-.05.32-.45.42-.47.13-.05.33.19.44.14.65-.15.42-.73.83-.88.39.62.45,1.15.56,2ZM184.05,13.63c1.44-.06,1.71-.86,2.88-1.04.27-.53.96-.92,1.36-.85.26-.71,1.42-.87,1.37-1.88-2.54-.78-3.98.96-5.29,2.56-.02.24-.41,1.11-.32,1.21Z"/>
        <path class="cls-14" d="M204.76,18.2c-1.54-.85-2.58-3.76-3.42-5.49-1.12,1.61-1.45,5.38-2.99,6.72-.39-.01-.27-.34-.71-.16-1.37-1.21-1.84-3.06-2.83-4.04-.16-1.2-.79-1.82-.97-2.73-.05-.35.05-.55-.02-.79-.12-.37-.43-.54-.64-.97-.14-.26-.17-.67-.38-1.04-.21-.34-.51-.99-.57-1.74.46-.01,1.62-.15,2.13.18.79,2.56,1.45,4.12,2.53,6.65.03.15.78.35.86,1.64.5-.89.67-2.62,1.5-3.48.33-2.15.74-1.73,1.54-3.87.63,0,.62.2,1.17.49.3.56.18,1.05.64,1.19-.48.67,1.02,1.94,1.16,3.03.15,0,.55.82.59.92,1.54-2.3,1.19-5.37,1.69-7.67.67-.24,1.31-.17,2.02.21.38,2.66-1.04,5.09-1.44,7.88-.88.77-.81,2.43-1.86,3.05Z"/>
      </g>
      <g>
        <polygon class="cls-15" points="266.82 135.9 238.87 139.8 214.23 141.17 185.5 144.58 173.37 143.45 177.77 71.35 269.75 63.68 272.19 78.01 268.84 92.93 269.16 110.64 266.82 135.9"/>
        <path class="cls-8" d="M177.93,50.42c1.63,9.22-.56,12.89-.16,20.93.34,6.69-.34,13.4-1.01,20.08-1.68,16.65-1.71,35.37-3.39,52.02"/>
        <path class="cls-8" d="M203.77,47.32c-.62,6.63.16,11.41-.07,17.33-.96,24.49-1.66,55.16-4.68,79.5"/>
        <path class="cls-8" d="M230.21,45.42c.25,9.88,1.03,19.93.51,30.17-1.01,19.82-2.64,46.07-3.65,65.88"/>
        <path class="cls-8" d="M257.97,42.73c1.12,16.97,2.66,41.23,1.4,57.6-1,12.96-2.04,25.92-3.13,38.87"/>
        <path class="cls-8" d="M154.41,75.57c39.54-7.02,75.38-10.69,115.34-11.89"/>
        <path class="cls-8" d="M154.37,104.32c11.28-2.28,19.03-2.45,29.88-3.52,7.6-.75,15.27-.93,22.76-2.54,6.49-1.39,14.03-2.04,20.57-3.13,5.33-.89,10.73-.86,16.1-.84,11.21.06,15.89-1.24,27.09-1.19"/>
        <path class="cls-8" d="M153.71,132.91c32.52-5.83,81.58-9.15,114.43-11.26"/>
        <path class="cls-4" d="M189.78,45.87c-.23,4.64-.03,9.28.59,13.85.14,1.06.31,2.13.16,3.2"/>
        <path class="cls-3" d="M210.65,47.73c.06-1.47,1.4-3.17,2.64-3.83.79-.42,2.32-.37,2.99.21.67.59,1.19,1.7,1.39,2.61.48,2.26-.11,4.68-1.04,6.82-1.28,2.93-3.87,5.45-5.75,8,.44-1.46,1.71-2.51,3.07-2.95,1.36-.45,2.81-.37,4.2-.18,1.77.23,3.52.63,5.22,1.2"/>
        <path class="cls-6" d="M239.83,41.8c.06-.74.67-1.33,1.34-1.55s1.37-.14,2.05-.05c1.07.13,2.24.31,2.96,1.16.92,1.08.73,2.89-.06,4.12-.79,1.23-2.03,2.02-3.23,2.76,1.36-.62,2.83-.92,4.29-.88.69.02,1.42.14,1.93.64.56.55.71,1.43.69,2.25-.06,2.37-1.33,4.6-3.07,6.08-1.74,1.48-3.89,2.27-6.06,2.68"/>
        <path class="cls-9" d="M157.96,81.83c.23.53.73.89,1.25.9s1.04-.32,1.31-.85c.28-.55.33-1.32.81-1.63.21-.13.45-.14.68-.13,1.41.07,2.74.84,4.15.73.98-.08,1.93-.58,2.92-.58.85,0,1.85.33,2.47-.37"/>
        <path class="cls-9" d="M157.65,90.45c.29-.19.1-.71.23-1.07.13-.36.54-.44.88-.44.86,0,1.73.14,2.55.42.22.08.45.16.68.15.19-.01.37-.09.55-.15.31-.11.64-.17.96-.22,1.52-.27,3.05-.54,4.59-.59,1.38-.04,2.81.08,4.1-.51"/>
        <path class="cls-9" d="M157.3,97.42c1.16.41,2.56-.21,3.21-1.43.19-.36.34-.78.66-1,.23-.16.51-.17.78-.18,1.95-.03,3.9.24,5.77.8.29-.31.1-.89.3-1.29.15-.29.46-.39.75-.45,1.1-.22,2.23-.21,3.31.04"/>
        <path class="cls-9" d="M155.34,114.87c.68.63,1.69.43,2.46-.1.77-.53,1.41-1.32,2.15-1.91s1.69-.96,2.47-.52c.78.45,1.35,1.67,2.22,1.45.88-.23,1.07-1.7,1.65-2.57.84-1.25,2.37-1.1,3.63-.83.31.07.62.13.91.28"/>
        <path class="cls-9" d="M157.6,120.24c.04.18.25.2.38.12s.23-.25.36-.36c.6-.52,1.66.19,2.03-.59.04-.09.07-.19.12-.27.12-.17.31-.18.49-.19,1.57-.04,3.14-.28,4.68-.71"/>
        <path class="cls-9" d="M208.01,74.81c-.02.54.78.67,1.19.34s.63-.88,1.05-1.19c.66-.5,1.56-.27,2.35-.09,2.36.54,4.81.52,7.22.34,1.04-.07,2.09-.18,3.09-.51.41-.14.87-.31,1.26-.11"/>
        <path class="cls-9" d="M206.79,81.84c.93.58,2.09-.11,3.08-.6,1.39-.68,2.95-.95,4.46-.77.6.07,1.2.21,1.8.17.5-.03.99-.17,1.48-.29,1.49-.35,3.05-.39,4.56-.13"/>
        <path class="cls-9" d="M236.24,101.95c.16.48.45.91.85,1.21.48-1.08,1.57-1.83,2.71-1.86,1.02-.02,2.01.49,3.03.45.62-.02,1.22-.25,1.83-.34,2.38-.36,4.64,1.25,7.04,1.32-.28-.48-.65-.9-1.09-1.23,1.27-.79,2.79-1.13,4.26-.95"/>
        <path class="cls-9" d="M235.99,111.27c-.13.41.12.87.45,1.06.34.18.73.16,1.1.14,1.28-.08,2.56-.16,3.85-.24.43-.03.87-.05,1.29-.18.43-.13.83-.35,1.24-.52,1.23-.5,2.56-.49,3.83-.27.32.06.65.12.95,0,.4-.17.65-.62.95-.97,1.14-1.34,2.97-1.23,4.55-1.03"/>
        <path class="cls-1" d="M206.43,105.06c-.26.73-.42,1.77.25,2.11.17.09.37.1.57.1,1.53,0,2.95-.86,4.12-1.89.4-.35.81-.74,1.31-.86.36-.09.73-.04,1.09.04.95.21,1.85.6,2.79.84.94.24,1.97.31,2.86-.12.58-.28,1.11-.77,1.75-.74"/>
        <path class="cls-1" d="M179.89,118.92c0,.82.36,1.63.96,2.17,1.3-1.38,3.31-1.72,5.16-1.63s3.67.55,5.52.48c.39-.02.86-.11,1-.5.08-.24.03-.55.22-.7.11-.09.27-.08.41-.07.9.09,1.81.18,2.71.27"/>
        <path class="cls-2" d="M185.42,93.2c.03.34.09.71.35.91.18.13.41.15.63.17,2.04.13,4.09.27,6.13.4.09,0,.19,0,.26-.05.08-.07.09-.19.1-.3.09-2.39.19-4.77.28-7.16.02-.38.02-.81-.23-1.1-.33-.39-.92-.32-1.41-.22-1.52.32-4.68.48-5.76,1.79-1.04,1.26-.5,4.08-.36,5.55Z"/>
        <path class="cls-1" d="M181.31,78.98c.33.51.68,1.04,1.18,1.38s1.18.46,1.68.12c.7-.47.76-1.57,1.39-2.14.56-.51,1.4-.45,2.13-.36,2.68.32,5.36.64,8.04.96"/>
        <path class="cls-1" d="M205.58,131.8c.33.51.68,1.04,1.18,1.38s1.18.46,1.68.12c.7-.47.76-1.57,1.39-2.14.56-.51,1.4-.45,2.13-.36,2.68.32,5.36.64,8.04.96"/>
        <path class="cls-1" d="M234.41,74.89c.45.34,1.04.47,1.58.34.51-.12.95-.43,1.42-.64,1.14-.5,2.43-.39,3.65-.26,1.77.18,3.55.36,5.32.54.56.06,1.12.11,1.67,0,.51-.1.99-.35,1.49-.51.97-.32,2.02-.33,2.99-.03"/>
        <path class="cls-1" d="M236.22,79.1c.12.85,1.2,1.36,1.9.9.14-.09.26-.21.41-.28.18-.08.39-.07.59-.06,3.78.19,7.62.71,11.3-.26-.12-.14-.31-.2-.49-.16"/>
        <path class="cls-1" d="M236.87,128.86c.12.85,1.2,1.36,1.9.9.14-.09.26-.21.41-.28.18-.08.39-.07.59-.06,3.78.19,7.62.71,11.3-.26-.12-.14-.31-.2-.49-.16"/>
      </g>
      <g>
        <g>
          <path class="cls-10" d="M20.08,150.9c-.56,3.91-.9,8.43,2.12,11.23,2.63,2.44,6.77,2.56,10.47,2.49,27.12-.45,54.22-2.07,81.16-4.85,6.24-.64,13.11-1.66,17.08-6.16,3.18-3.61,3.69-8.59,4.07-13.25,1.5-18.62-1.05-19.98.46-38.6.75-9.29.74-24.17-.55-37.36-.92-9.41.71-20.41-8.08-24.97-9.49-4.92-26.96-2.92-37.74-1.87-16.87,1.63-33.73,3.27-50.6,4.9-5.57.54-14.98-.57-16.97,4.39-1.69,4.23-.09,16.66.31,21.43,2.54,29.8,2.49,53.16-1.72,82.6Z"/>
          <path class="cls-8" d="M34.18,58.47c.15,1.02,1.85,1.18,2.61.44.76-.74.73-2.31,2.95-2.63l4.3,1.49c1.81.49,11.79-1.01,13.6-1.48.62-.16,1.13-.56,1.72-.81,1.39-.59,3.02-.27,4.54-.04,3.37.51,4.3.54,7.67.03.8-.12,1.75-.39,1.97-1.12,1.07.51,3.6.56,3.45-.06.68-.02,1.36-.03,2.04-.05.36-1.35,2.42-1.31,3.89-1.03,5.23.97,10.52.42,15.85.41,1.43,0,3.86-2.4,9.42-1.99,3.33.25,6.72,1.62,10.61,1.09"/>
          <path class="cls-8" d="M34.35,72.11c.15,1.02,1.85,1.18,2.61.44s.73-2.31,2.95-2.63l4.3,1.49c1.81.49,6.23-.51,6.73-2.2h0c.12-.41.28-.86.69-1.04.3-.13.66-.08.98.02,1.8.53,3.39,2.21,5.2,1.74.62-.16,1.13-.56,1.72-.81,1.39-.59,3.02-.27,4.54-.04,3.37.51,4.3.54,7.67.03.8-.12,5.56-.55,5.42-1.18.68-.02,1.36-.03,2.04-.05.36-1.35,2.42-1.31,3.89-1.03,5.23.97,10.52.42,15.85.41,1.43,0,3.86-2.4,9.42-1.99,3.33.25,6.72,1.62,10.61,1.09"/>
          <path class="cls-8" d="M34.49,86.17c.1,1.01,1.34,1.15,1.91.4.56-.75.57-2.32,2.2-2.67l3.13,1.43c1.32.47,4.57-.6,4.96-2.29h0c.09-.41.22-.86.52-1.05.22-.14.48-.08.71,0,1.31.51,2.45,2.16,3.79,1.67.46-.17.84-.58,1.27-.83,1.03-.61,2.21-.31,3.32-.11,2.46.46,3.15.48,5.62-.07.59-.13,1.29-.41,1.46-1.15.78.49,2.63.51,2.53-.11.5-.03,1-.05,1.49-.08.29-1.36,1.79-1.34,2.87-1.09,3.82.9,7.7.27,11.61.18,1.05-.02,2.86-2.45,6.93-2.12,2.44.2,4.9,1.52,7.76.94"/>
          <path class="cls-12" d="M70.45,103.37c-.29.69-.29,1.46-.29,2.2,0,.25,0,.51.13.72.12.2.32.33.53.44,1.09.58,2.45.75,3.56.23,1.12-.52,1.89-1.83,1.59-3.02-.2-.79-.82-1.43-1.56-1.78-1.48-.71-3.27-.47-3.97,1.2Z"/>
          <path class="cls-12" d="M74.99,119.13c.23-.2.46-.42.62-.68.29-.47.34-1.04.38-1.58.24-2.84-4.69-3.63-5.66-1.1-.39,1.01-.17,2.64.42,3.53,1.1,1.65,2.99.91,4.23-.17Z"/>
          <path class="cls-8" d="M83.44,103.83c1.12.46,2.43.9,3.44.11.91-.71,1.43-2.32,2.51-2.33,1.09,0,1.85,1.75,2.91,1.43.71-.21,1.01-1.24,1.61-1.75.89-.77,2.09-.22,3.12.17.85.32,1.73.5,2.63.55.19,0,.4,0,.56-.14.16-.15.21-.4.29-.62.37-1.03,1.46-1.44,2.37-1.27.91.17,1.72.76,2.56,1.21.84.44,1.82.74,2.68.31,1.24-.63,1.91-2.63,3.24-2.8,1.24-.16,2.52,1.41,3.58.61.2-.15.37-.37.59-.45.29-.09.58.09.85.26,2.18,1.37,3.79.38,6.2-.37"/>
          <path class="cls-8" d="M83.32,116.38c.44.46,1.07.23,1.58-.12s1.03-.79,1.58-.71c.63.1,1.08.87,1.56,1.48.48.61,1.17,1.09,1.72.56.4-.39.56-1.17.91-1.65.58-.79,1.44-.54,2.16-.25.68.27,1.36.55,2.03.82.2.08.4.16.61.08.43-.17.64-.96,1.04-1.27.35-.27.76-.1,1.14-.05.96.13.42-.73,2.09-1.36.44.81,2.08.15,2.64.75.51.54-.07,1.3.56,1.23.48-.05.93-.39,1.4-.57.97-.38,1.98-.07,2.97-.11.77-.04,1.54-.29,2.32-.36,1.44-.12,2.85.41,4.23.94"/>
          <path class="cls-8" d="M39.18,141.19c2.85,1.5,4.33,2.25,6.38,1.12.99-.55,2.49-1.91,3.53-1.6,1.73.52,1.97.99,3.77.78h0c.58-1.71,2.11-2.66,3.63-2.34,1.3.27,2.64.29,3.95.05.69-.12,1.39-.32,2.09-.28,1.61.1,3.01,1.42,4.62,1.43.9-.31,1.8-.62,2.7-.93,1.45-.5,2.96-1.01,4.44-.77,1.67.26,3.21,1.44,4.89,1.21,1.6-.22,2.95-1.7,4.55-1.98,1.23-.22,2.45.3,3.68.44s2.72-.28,3.22-1.64c1.75.77,3.53,1.43,5.34,1.99.52.16,1.09.31,1.6.07.56-.26.91-.92,1.3-1.46,1.01-1.39,2.59-2.17,4.12-2.05.54.04,1.07.19,1.6.16.73-.05,1.42-.43,2.13-.65,3.41-1.04,7.13,1.72,10.37.06"/>
          <path class="cls-8" d="M38.07,152.46c3.34-1.19,7.08-1.23,10.44-.1,1.22.41,2.42.97,3.7,1.1,2.1.2,4.12-.79,6.21-1.15,1.89-.33,3.87-.14,5.66.55.65.25,1.33.57,2,.43.79-.17,1.3-.89,1.84-1.49,2.25-2.5,6.19-3.29,9.23-1.85.51.24,1.02.54,1.59.52.5-.02.95-.28,1.42-.45.69-.25,1.84.18,2.82.67.68.34,1.47.16,2-.38.72-.73,1.85-1.35,2.6-1.48.24-.04.49-.11.73-.2,1.62-.63,3.41-.7,5.03-.08s1.89.95,3.61,1.11c.57.05,1.16.08,1.72-.04.55-.12,1.06-.38,1.58-.59"/>
          <path class="cls-8" d="M38.77,125.46c7.21-.93,14.43-1.7,21.67-2.3.8-7.18.39-14.49-1.2-21.53-3.89.55-7.77,1.09-11.66,1.64-2.23.31-6.81-.08-7.9,2.38-.87,1.96-.05,5.87-.15,7.99-.18,3.94-.44,7.88-.77,11.81Z"/>
        </g>
        <path class="cls-4" d="M65.38,104.41c-.26,1.04-.34,2.15-.05,3.18.51,1.81,2.08,3.17,3.83,3.87,1.75.7,3.66.82,5.54.89,8.93.32,17.86-.54,26.76-1.4,6.04-.58,12.27-1.22,17.6-4.12,2.16-1.18,4.13-2.71,5.8-4.51,1.06-1.14,2.04-2.53,1.99-4.09-.07-1.77-1.51-3.24-3.16-3.88s-3.46-.62-5.23-.59c-10.39.2-20.79.63-31.14,1.67-6.9.69-19.78.32-21.94,8.98Z"/>
        <path class="cls-11" d="M28.42,78.67c-.4,1.77-.52,3.66-.07,5.42.79,3.09,3.24,5.41,5.95,6.6,2.71,1.19,5.68,1.41,8.6,1.53,13.86.56,27.71-.9,41.51-2.35,9.37-.99,19.03-2.07,27.29-7,3.35-2,6.4-4.61,8.99-7.68,1.64-1.95,3.17-4.32,3.08-6.97-.1-3.01-2.35-5.52-4.91-6.62-2.55-1.1-5.37-1.07-8.11-1.01-16.12.33-32.25,1.05-48.3,2.8-10.7,1.17-30.67.52-34.02,15.28Z"/>
      </g>
      <path class="cls-6" d="M232.19,71.51c-1.18,2.88-1.18,6.09-1.01,9.19.16,2.87.49,5.87,2.09,8.26,2,2.99,5.74,4.49,9.34,4.49s7.07-1.33,10.24-3.03c2.31-1.24,4.58-4.34,4.91-11.36.28-6.06-3.88-9.93-5.15-10.98-1.12-.92-2.56-1.37-3.98-1.68-5.92-1.27-13.76-1.44-16.44,5.1Z"/>
      <path class="cls-11" d="M202.06,108.65c-.35,5.07,2.2,10.25,6.44,13.03s10.04,3.04,14.49.59,7.35-7.5,7.17-12.57c-.05-1.44-.33-2.86-.75-4.23-.34-1.13-.79-2.23-1.47-3.19-2.1-2.94-5.98-3.92-9.54-4.54-2.12-.37-9.49.9-10.15,1.23-1.17.58-2.2,1.3-3.09,2.26-1.84,2-2.92,4.72-3.11,7.42Z"/>
      <path class="cls-7" d="M126.86,79.42c1.11.98,7.75.48,31.11,2.4,29.81,2.45,45.09,2.71,55.73,1.61,1.35-.14,9.51-2.22,12.36-2.74-3.81,2.93-7.42,6.19-10.8,9.76,2.91-2.59,5.81-5.18,8.72-7.77.5-.44,2.28-1.32,2.08-1.98-.1-.32-1.48-.86-1.73-1.05-3.07-2.32-5.63-2.38-9.64-4.65"/>
      <path class="cls-5" d="M132.79,99.16c7.14.43,8.05.79,26.26,1.83,10.18.58,20.57,4.24,28.7,6.6,1.03.3,7.15,3.34,9.31,4.2-2.68-3.36-5.18-7.04-7.47-10.98,2.01,2.92,4.03,5.84,6.04,8.76.34.5,1.65,1.59,1.43,2.22-.11.31-1.22.67-1.43.83-2.58,1.94-4.56,1.69-7.86,3.46"/>
      <path class="cls-13" d="M112.95,188.01c-5.41.4-25.4.78-29.94.41-5.08-.42-23.18.2-27.33-.21-5.19-.52-40.41-.1-45.59-.7-8.64-1-7.86-9.76-8.49-16.43-.88-9.36-.53-22.48-.53-27.8,0-2.61-.33-5.47,1.04-7.82,2.06-3.53,5.53-3.92,9.14-3.46,10.02,1.28,48.62.18,58.72.18,2.12,0,3.72-.23,5.8-.68,2.67-.58,6.41-.72,8.86-1.93,3.71-1.84,5.6-7.32,8.86-9.95,4.05-3.26,8.49,8.48,11.24,10.59,1.59,1.22,4.32.61,6.43.62,3.69.02,7.25.88,8.85,4.67,1.01,2.4.6,5.51.6,8.05,0,3.23,0,17.53,0,22.98,0,4.53-.13,8.97-.04,13.48.09,4.29-3.17,8.02-7.6,8.02Z"/>
      <g>
        <path class="cls-14" d="M13.41,151.19c-.05-.36.18-.78-.08-1.6-.04-.72-.04-1.55.05-2.65-.13-.12-.21-.45-.17-.81.06-.31-.02-.7,0-.96.06-.54.14-.81.41-.82.37.29.45-.03.59.43.28-.33.59,1.1.2,1.24.38.12.21.21.21.21-.33.37.32.6-.03.95.05.05.13.1.2.12-.23.73.34,1.38-.11,1.98.19.16.05.54.25.7-.15,1.7.19,1.62.08,3.47.38.03-.02.7-.03.71.25.6-.02.54.04.83.02.18-.15.36.12.5,0,0,.23,1.18.22,1.44,0,.34-.13.45-.24.56-.04,0-.07.02-.09.02-.4-.04-.63-.05-1.03-.1-.24-.05-.49-.31-.55-.52-.04-.12.08-.47.07-.6.04-.04.03-.11.09-.15.08-.34.02-.42-.13-.83.25-2.2.05-2.85-.08-4.14Z"/>
        <path class="cls-14" d="M18.95,143.87c.51.31.72.57.61,1.71-.21.69-.04.97-.61,1.33.15.39-.44.34-.32.68-.41.28-.37.42-.7.27-.04-.09.09-.6.1-.89-.39-.62.17-.51-.11-1.22-.08-.14-.29.12-.38-.55-.23-1.02.25-.87.5-1.35.04.05.25.08.27.16.09-.06.48-.12.63-.14Z"/>
        <path class="cls-14" d="M23.61,156.72c-.12.4-.41.14-.34.6-1.92.16-1.36-1.69-1.41-3.26-.02-.77.21-1.56.13-2.31-.12-1.73-.26-3.67-.28-5.52-.02-.77-.23-2.26-.17-2.86.36-.15.76.68,1.29.59.71,4.2.85,8.51.77,12.75Z"/>
        <path class="cls-14" d="M27.6,156.61c-.11.4-.41.14-.34.6-1.92.16-1.36-1.69-1.41-3.26-.02-.77.21-1.56.13-2.31-.12-1.73-.26-3.67-.28-5.52-.02-.77-.23-2.26-.17-2.86.36-.15.76.68,1.29.59.71,4.2.85,8.51.77,12.75Z"/>
        <path class="cls-14" d="M35.14,143.34c.31.17.46.31.87.19.34.03.12.48.5.56.22.9-.16,1.99-1.44,1.86-.39-.46-.77-1.1-.65-1.87.38-.12.6-.38.72-.74ZM34.93,148.75c.3.59-.09.72-.11,1.16-.05.72.02,1.53-.01,2.18-.07.71-.3,1.63-.31,2.41,0,.25.34.41.27.62-.23.82-.21.89.16,1.26.15.16.08.27.42.15-.19.37.09.52.32.42.44-.25.78-.6.91-1.12-.49-1.99.44-4.82-.12-7.04-.55-.2-1.04-.6-1.51-.03Z"/>
        <path class="cls-14" d="M51.88,152.82c-.37.84.44,1.57-.13,2.42,0,.09.18.16.28.17-.16.2-.37.33-.43.66-1.11.17-2.04-.99-1.67-1.65-.46-1.7.32-3.54-.89-5.42-.33-.98-.69.51-.88.62.04.07.17.08.15.23-.75.99-.74,2.45-1.45,3.46.12,1.04-.05,1.26-.22,2.56-.79.29-1.16-.35-1.46-.84-.11-2.5-.06-4.18-.87-6.62-.5-.02-.88.1-.79.67-.25.08-.26.31-.52.18-.03.2-.15.35.01.49-.33.41-.42,1.04-.79,1.39.15.75-.45,1.22-.61,1.89-.26,1.03-.12,2.69-.8,3.5-.14.04-.33-.24-.29.08-.42-.2-.81-.48-1.14-.78-.23-2.55-.69-5.28-.92-8.3,1.59-1.11,1.56,1.79,1.89,3.26.23,1.09.89-1.68.91-1.72.41-.84,1.07-1,1.3-1.82.47-.55,1.29-.11,1.7-.37.5.37,1.02.4,1.29.94.11.2.05.5.18.72,0,.02.18,0,.22.08.11.2.09.52.16.72.1.18.16.45.16,1.06.42-1.72,1.15-2.84,1.71-3.78.32.03.86-.2,1.26-.12.27.06.3.39.53.24.32.59,1,1.05.81,1.83.07.02.3-.06.32-.13.43,1.09.41,1.7.42,2.78.02.13.13.02.14-.08.46.28-.16.69.26.77.09.52-.27.53-.28.46.06.14.22.21.45.46Z"/>
        <path class="cls-14" d="M61.99,151.01c-.43.21-.69,1.82-.82,2.15-.22-.03-.21.11-.45.17-.99.82-1.39,1.24-2.95,1.52-.45-.06-1.29-1.17-1.74-1.01.11.7.27,2.55.52,3.79.15.7.48,1.82-.38,2.01-.38.1-.46.18-.74.04-.02-.04-.02-.07-.04-.11.09-.06.16-.13.1-.24-.06-.12-.19-.19-.26-.3-.26-.98-.37-2.94-.51-4.06-.18-1.36-.54-2.51-.73-4.19-.09-.79-.46-1.66-.54-2.74.35-.23,1.07-.23,1.29.27.22-.58.58-1.93,1.57-1.9-.09-.11,0-.29.08-.4.42.12.98-.4,1.56-.33.27.03.37.28.6.34.35.13,1.33.41,1.29.41.11-.06.54.18.75.29.82,1.54,1.42,1.72,1.4,4.28ZM60.53,149.86c-.12-1.13-.11-.86-.53-1.7-.18-.01-.38-.22-.53-.09-.07-.09-.23-.43-.3-.53-.29-.06-.46.21-.52-.06-.02-.09.1-.24-.19-.36-.16.15-.32.12-.53-.11-.21.11-.25-.03-.59.02-1.38.78-1.62,1.31-1.74,2.71-.05.74-.12.78.17,1.54.08.18.34.73.08.86.75.5,1.19.6,1.97.94.96-.28,1.33-.69,1.92-1.13.76,0,.64-1.06.81-1.34-.11-.14-.12-.46,0-.76Z"/>
        <path class="cls-14" d="M65.47,155.92c-.78-.16-1.25-.72-1.06-1.3-.12-.27-.36-.68-.19-.9-.29-1.22-.73-3.42-1.24-4.56.06-.34,0-.4-.17-.79.27.08.48-.99,1.47-.81.2.05.51,1.64.53,1.68.39-.08.71-1.15.82-1.52.76-.04,1.07-1,1.69-.71.85-.47,1.11-.32,1.86.11.35.28.28.82.37,1.03-.2,0-.29.1-.46.28-1.16-.27-2.71.45-3.33,3.12-.12.42.08.75.22.93-.02.07-.1.44-.1.4,0,.67.58,1.46.25,2.62-.21.13-.46.27-.67.41Z"/>
        <path class="cls-14" d="M76.82,147.5c.22.05.15.05.36,0,.3.39.67.7.95,1.13.87,2.03-.13,3.86-1.06,5.15-.12.02-.13-.05-.15-.14-.25.67-.91.98-1.31,1.53-.42-.04-.57.14-.62.45-.62.18-1.45.4-1.92.18-.07.06-.07.18-.21.15.1-.25-.24-.03-.22-.21-.88.04-1.43-.3-1.94-1.01-1.42-.41-1.69-2.38-1.47-4.3.36.03.04-.47.4-.64.29-1.2,1.16-2.41,2.35-2.98.23-.26.49-.54.9-.6.2-.08.43-.25.81-.18,1.02-.16,1.86.22,2.49.96.4-.01.63.14.64.54ZM71.9,148.88c-.63,1.42-1.71,2.51-.68,4.76.47.73,1.26.54,2.3.44.03-.2.44-.23.47-.43.76.1,1.1-.75,1.74-.99.13-.62.55-.93.95-1.31.16-.85.31-1.21.13-2.24-.35-.19-.67-.79-1.21-.76.03-.23.03-.14,0-.36-.87-.14-1.35.07-2.1-.35-.6.3-.96.98-1.6,1.23Z"/>
        <path class="cls-14" d="M81.42,151.73c-.18-.08-.26-.28-.53-.27-.29-1.96-1.83-3.5-2.01-5.58.07-.02.12-.06.14-.13.4-.03.42.35.91.25,1.55,1.31,1.61,4.01,3.09,6.22.5-.77.51-1.56.85-2.49.07,0,.21-.2.28-.21.15-1.01.79-1.9,1.35-2.76.05-.27-.25-.5-.2-.77.15-.29.65-.05.65-.43.7.43,1.25.4.95,1.61-.11.47-.46.79-.65,1.19-.36.77-.6,1.91-1.03,2.64-.22.38-.12.78-.24,1.11-.17.44-.45.75-.52,1.19-.11.67-.13,1.3-.29,1.94-.27.03-.21.35-.48.35-.11-.21-.67-.11-.77-.52.09-.02.08-.33.1-.27-.88-.37-.96-1.97-1.83-2.78.05-.06.12-.25.23-.28Z"/>
        <path class="cls-14" d="M98.06,153.28c-1.7,1.18-3.49,1.95-6.1,2.11-1.31-.32-2.53-1.05-2.65-2.59-.04-.07-.11-.1-.2-.16.16-1.28-.74-.84-1.53-1.25-.02-.63.26-.96.45-1.35.47.11.55-.16.96.17.16,0,.14-.25.32-.24.11-1.32,1.22-2.21,1.8-3.26.34-.23.89-.24.99-.77.09.05.15.1.15.25.15-.44.87-.38.99-.62.85.19,1.49-.24,2.46.22.25.66.7.41.82,1.09.21,1.25-.77,2.09-1.42,2.85-.34.08-.52-.08-.6.32-.72.09-1.03,1.11-1.65.98-.07.15-.17.24-.2.42-.24-.23-.29,0-.55-.22-.34.66-1.71.21-1.72,1.08.01-.11.14.43.14.45.42.78,1.61,1,2.8.82.54-.07,1.12-.45,1.73-.68.39-.14.86-.19,1.16-.28.09-.04.26-.37.35-.39.11-.04.27.15.36.11.54-.12.34-.6.68-.72.32.51.37.94.46,1.64ZM90.75,150.17c1.19-.05,1.4-.71,2.37-.86.22-.44.79-.76,1.12-.7.22-.58,1.17-.72,1.13-1.54-2.09-.64-3.27.79-4.35,2.1-.01.2-.34.91-.26,1Z"/>
        <path class="cls-14" d="M17.68,168.14c-.48.9-1.7,1-2.57,1.4-.21,1.7-.16,3.88-.02,5.87,0,.13.6.25.59.42.73-.38,1.2-.2,1.8.04-.09,1.12-1.37,1.41-2.3,1.54-.19-.28-.46-.29-.67-.25-1.66-1.49-.61-5.08-.94-7.12-.26-.14-.66.2-.93.24-.51-.22-.74-.72-.97-1.23.35-.33.9-.57,1.46-.58.45-.17.29-.71.36-1.42.09-.78.36-1.24.41-2.03.43,0,.78.09,1.21.24.47.64-.04,1.78,0,2.41.92-.46,2.02-.63,2.57.47Z"/>
        <path class="cls-14" d="M19.24,164.57c.02.2-.04.31-.04.49,0,.27.27.53.29.66.12.36-.19.4-.02,1.1.44,1.72.36,3.25.52,4.4.17-.47.32-.98,1.21-1.94.17-.18.55-.3.59-.63.32,0,.98-.32,1.63-.17.21.26.89.17,1.15.42.11.1.14.43.29.6.13.14.68.95.75,1.19.04.12-.1.22-.06.34.06.12.22.19.28.32.37.85.29,2.85.53,3.68.2.71.73,2.11-.75,2.11-1.02-1-.69-3.4-1.04-5.23-.34-.69-.51-1.99-2.08-1.74-.59.23-1.19,1.33-1.55,1.99-.14.24-.03.81-.3.84-.09.45-.14.92-.16,1.25-.06.94-.01,1.48.07,2.48-.21.24-.46.46-.74.65-1-.37-.78-1.98-.75-2.86-.07.15-.16.04-.16-.05-.15-1.56-.16-3.18-.43-4.49.19-.22-.05-.39-.04-.36.36-.5-.14-.61-.13-.9.24-1.83-.43-3.02-.12-4.97.91-.49.78.28,1.09.83Z"/>
        <path class="cls-14" d="M37.66,174.97c-1.7,1.18-3.49,1.95-6.1,2.12-1.31-.32-2.53-1.05-2.65-2.59-.04-.07-.11-.11-.2-.16.16-1.28-.74-.84-1.53-1.26-.02-.63.26-.96.45-1.34.47.11.55-.16.96.17.16,0,.14-.26.32-.24.11-1.32,1.22-2.21,1.8-3.26.33-.23.89-.24.99-.77.09.05.15.1.15.25.15-.44.87-.38.99-.62.85.19,1.49-.24,2.46.22.25.66.7.41.82,1.09.21,1.25-.77,2.09-1.42,2.85-.34.08-.52-.08-.6.32-.72.09-1.03,1.11-1.65.98-.07.15-.17.24-.2.42-.24-.23-.29,0-.55-.22-.34.66-1.71.21-1.72,1.08.01-.11.14.43.14.45.42.78,1.61,1,2.8.82.54-.07,1.12-.45,1.73-.68.39-.14.86-.19,1.16-.29.09-.04.26-.37.35-.39.11-.04.27.15.36.12.54-.12.34-.6.68-.72.32.51.37.94.46,1.64ZM30.35,171.86c1.19-.05,1.4-.71,2.37-.86.22-.44.79-.76,1.12-.7.22-.58,1.17-.72,1.13-1.54-2.09-.64-3.27.79-4.35,2.1-.01.2-.34.91-.26,1Z"/>
        <path class="cls-14" d="M44.19,169.51c0-.09-.15-.34-.16-.43-1.48-1.26-3.97-.88-5.01.57,1.14,1.54,2.28.89,3.98,1.33-.05.2.35.28.35.42,1.05.04,2.2.7,2.82,1.65.27,2.55-1.56,3.5-3.92,3.57-.83-.03-2.68.06-3.5-.77-.29.06-.38-.12-.55-.2.06-.43-.23-.62-.22-.79.35-.48.22-1.18.83-1.17.14.03.15.1.08.21.34-.19.47-.07.79.05-.07.24-.22.67-.38.59.51.89,1.87.42,2.9.66.05-.05.1-.15.12-.22.79.05,1.36-.36,1.89-.81,0-.2.11-.51-.14-.46-.09-.11.12-.26.12-.24.02,0-.41-.62-.61-.69-.04-.02-.16.13-.27.08-.2-.1-.2-.16-.57-.29-.49-.18-1.11-.38-1.6-.51-.51-.13-1.06.16-1.53.1-.04,0-.13-.2-.21-.21-.45-.13-.55-.45-.83-.84-.16-.03-.14.13-.34.08-.43-.46-.97-2.01.06-2.34-.06-.21.07-.25.06-.44.48-.14.39-.14.5-.68.3-.13.18,0,.28-.19.2.1.72.07.75-.33.26.25.92-.67,1.17.08.25-.06,0-.25.13-.36.29.1.42.17.67-.02.05.34.09.11.27.07.11.14-.02.09,0,.29.25.06.12-.24.26-.3.42.11.69.18.9.57.11-.02.07-.18.06-.29.78.25.93.53,1.65,1.02.13.7-.31,1.05-.85,1.25Z"/>
        <path class="cls-14" d="M56.66,174.44c-1.7,1.18-3.5,1.95-6.1,2.12-1.31-.32-2.53-1.05-2.65-2.59-.04-.07-.11-.11-.2-.16.16-1.28-.74-.84-1.53-1.26-.02-.63.26-.96.45-1.34.47.11.55-.16.96.17.16,0,.14-.26.32-.24.11-1.32,1.22-2.21,1.8-3.26.34-.23.89-.24.99-.77.09.05.15.1.15.25.15-.44.87-.38.99-.62.85.19,1.49-.24,2.46.22.25.66.7.41.82,1.09.22,1.25-.77,2.09-1.42,2.85-.34.08-.52-.08-.6.32-.72.09-1.03,1.11-1.65.98-.07.15-.17.24-.21.42-.24-.23-.29,0-.55-.22-.34.66-1.7.21-1.72,1.07.02-.11.14.43.14.45.42.78,1.61,1,2.8.82.54-.07,1.12-.45,1.73-.68.39-.14.86-.19,1.16-.28.09-.04.26-.37.35-.39.11-.04.28.16.36.12.54-.12.34-.6.68-.72.32.51.37.94.46,1.64ZM49.35,171.33c1.19-.05,1.4-.71,2.37-.86.22-.44.79-.76,1.12-.7.22-.58,1.17-.72,1.13-1.54-2.09-.64-3.27.79-4.35,2.1-.01.2-.33.91-.26,1Z"/>
        <path class="cls-14" d="M64.62,166.6c.18.07.44-.23.6.15-.03-.32.25-.08.26-.33.27,0,.49.02.62.14.58-.41,2.07.07,2.17.91.94.06.86.44,1.5.8,0,1.75-.28,3.41.07,5.19.09-.13.14-.24.22-.37.21-.04.07.43.23.44.36.06.29-.49.28-.8.16.09.24.14.23.39.09-.15.14.01.21-.28.25-.24.15.09.17.27.22.01.25.55.37.96-.77.8-.38,1.76-1.67,2.03-.46-.53-.62-.78-1.13-1.23-.32-.55-.11-1.35-.45-2.04-.08.42-.4,1.22-.57.92-.88,1.57-2.23,2.83-4.23,2.03-.66-.95-1.37-1.8-1.78-3.03.12-.92.04-1.64.07-2.59.16.03.2-.06.3-.1-.06-.16.08-.52-.09-.56.21-.24.27-.06.63-.13-.02-.12-.27-.1-.3-.37-.1-.25.29-.15.43-.17-.51-.76.41-.32.34-1.22.22.14.34-.03.3-.17.1-.25.45.06.46-.43.19.28.72-.06.76-.42ZM66.8,172.48c.14-.71.7-1.46,1.15-1.96.09-.78.13-1.21.18-2.02-.47.03-.77-.52-1.21-.6-.12-.01-.27-.14-.47-.11-.77.04-.74.11-1.31.65.02-.02-.09-.12-.16-.08-.37.23-.84.8-.79,1.35-.73.4-.72,1.84-.63,2.43-.11,0-.14.22-.25.22.18.52-.06,1.14.29,1.49.25-.2.74.75,1.05.75.78-.6,1.25-.58,2.16-2.11Z"/>
        <path class="cls-14" d="M74.07,175.69c-.78-.16-1.25-.72-1.06-1.3-.12-.27-.36-.67-.19-.89-.29-1.22-.73-3.42-1.24-4.56.06-.34,0-.4-.17-.79.27.08.48-.99,1.47-.82.2.05.51,1.64.53,1.68.39-.08.71-1.15.82-1.52.75-.04,1.07-1,1.69-.71.85-.47,1.11-.32,1.86.11.35.28.28.82.37,1.03-.2,0-.29.1-.46.28-1.16-.27-2.71.45-3.33,3.12-.12.42.07.76.22.93-.02.07-.1.44-.1.4,0,.67.58,1.46.25,2.62-.21.13-.46.27-.67.42Z"/>
        <path class="cls-14" d="M87.66,173.58c-1.7,1.18-3.49,1.95-6.1,2.12-1.31-.32-2.53-1.05-2.65-2.59-.04-.07-.11-.11-.2-.16.16-1.28-.74-.84-1.53-1.26-.02-.63.26-.96.45-1.34.47.11.55-.16.96.17.16,0,.14-.26.32-.24.11-1.32,1.22-2.21,1.8-3.26.34-.23.89-.24.99-.77.09.05.15.1.15.25.15-.44.87-.38.99-.62.85.19,1.49-.24,2.46.22.25.66.7.41.82,1.09.21,1.25-.77,2.09-1.42,2.85-.34.08-.52-.08-.6.32-.72.09-1.03,1.11-1.65.98-.07.15-.17.24-.2.42-.24-.23-.29,0-.55-.22-.34.66-1.71.21-1.72,1.08.02-.11.14.43.14.45.42.78,1.61,1,2.8.82.54-.07,1.12-.45,1.73-.68.39-.14.86-.19,1.16-.29.09-.04.26-.37.35-.39.11-.04.27.15.36.12.54-.12.34-.6.68-.72.32.51.37.94.46,1.64ZM80.36,170.47c1.19-.05,1.4-.71,2.37-.86.22-.44.79-.76,1.12-.7.22-.58,1.17-.72,1.13-1.54-2.09-.64-3.27.79-4.35,2.1-.01.2-.33.91-.26,1Z"/>
        <path class="cls-14" d="M90.62,165.88c.18.07.44-.23.6.15-.03-.32.25-.08.26-.33.27,0,.49.02.62.15.58-.41,2.07.07,2.17.91.94.06.86.44,1.5.8,0,1.75-.28,3.41.07,5.19.09-.13.14-.24.22-.37.21-.04.07.43.23.44.36.06.29-.49.28-.8.16.08.24.14.23.39.09-.15.14.01.21-.28.25-.24.15.09.17.27.22.01.25.55.37.96-.77.8-.38,1.76-1.67,2.03-.47-.53-.62-.78-1.13-1.23-.32-.55-.11-1.35-.45-2.04-.08.42-.4,1.22-.57.92-.88,1.57-2.23,2.84-4.23,2.03-.66-.95-1.37-1.8-1.78-3.03.12-.92.04-1.64.07-2.6.16.03.2-.06.3-.1-.06-.16.08-.52-.09-.56.21-.24.27-.06.63-.13-.02-.13-.27-.1-.3-.37-.1-.25.28-.15.43-.17-.51-.76.41-.32.34-1.22.22.14.34-.03.3-.17.1-.25.45.06.46-.43.19.28.72-.06.76-.42ZM92.8,171.76c.14-.71.7-1.46,1.15-1.96.09-.78.13-1.21.18-2.02-.47.03-.77-.52-1.21-.6-.13-.01-.28-.14-.47-.11-.77.04-.74.11-1.32.65.02-.02-.09-.12-.16-.08-.37.23-.84.8-.79,1.35-.73.4-.72,1.84-.63,2.43-.11,0-.14.22-.25.22.18.52-.06,1.14.29,1.49.25-.2.74.75,1.05.75.78-.6,1.24-.58,2.16-2.11Z"/>
        <path class="cls-14" d="M104.2,167.84c0-.09-.15-.34-.16-.43-1.48-1.25-3.97-.88-5.01.57,1.14,1.54,2.28.89,3.98,1.33-.05.2.35.28.36.42,1.04.04,2.2.69,2.82,1.65.27,2.55-1.56,3.5-3.92,3.57-.83-.03-2.68.06-3.5-.77-.29.06-.38-.12-.55-.2.06-.43-.23-.62-.22-.79.35-.48.22-1.18.83-1.18.14.03.15.1.08.21.34-.19.47-.07.79.05-.07.24-.22.67-.38.59.51.89,1.87.42,2.9.66.05-.06.1-.15.12-.22.79.05,1.36-.36,1.89-.81,0-.2.11-.51-.14-.46-.09-.11.12-.26.12-.24.02,0-.41-.62-.61-.69-.04-.02-.16.13-.27.08-.2-.1-.2-.16-.57-.29-.49-.18-1.11-.38-1.6-.51-.51-.13-1.06.16-1.53.1-.04,0-.13-.19-.2-.21-.45-.13-.55-.45-.83-.84-.16-.03-.14.13-.34.08-.43-.46-.97-2.01.06-2.34-.06-.21.06-.25.06-.43.48-.14.39-.14.5-.68.3-.13.18,0,.28-.19.2.1.72.07.75-.33.26.25.92-.67,1.17.08.25-.06,0-.25.13-.36.29.1.42.17.67-.02.04.34.09.11.27.06.11.14-.02.09,0,.29.25.07.12-.24.26-.29.42.11.69.18.9.57.11-.02.07-.18.06-.29.78.25.93.53,1.65,1.02.13.7-.31,1.05-.85,1.25Z"/>
      </g>
    </g>
  </g>
</svg>