<?xml version="1.0" encoding="UTF-8"?>
<svg id="Layer_2" data-name="Layer 2" xmlns="http://www.w3.org/2000/svg" xmlns:xlink="http://www.w3.org/1999/xlink" viewBox="0 0 278.23 177.71">
  <defs>
    <style>
      .cls-1, .cls-2, .cls-3, .cls-4, .cls-5, .cls-6, .Graphic_Style_4, .cls-7, .cls-8, .cls-9, .cls-10, .cls-11 {
        stroke-width: 2px;
      }

      .cls-1, .cls-2, .cls-12, .cls-13, .cls-14, .cls-5, .cls-15, .cls-8, .cls-9, .cls-10 {
        stroke-linecap: round;
        stroke-linejoin: round;
      }

      .cls-1, .cls-3, .cls-4, .Graphic_Style_4, .cls-7, .cls-8, .cls-9, .cls-10, .cls-11 {
        stroke: #949494;
      }

      .cls-1, .cls-3, .cls-4, .Graphic_Style_4, .cls-7, .cls-8, .cls-10, .cls-11 {
        fill: #fff;
      }

      .cls-16 {
        fill: url(#linear-gradient-2);
      }

      .cls-17 {
        mask: url(#mask-1);
      }

      .cls-18 {
        filter: url(#luminosity-invert-3);
      }

      .cls-2 {
        fill: #ffddb0;
        stroke: #e07500;
      }

      .cls-3 {
        filter: url(#drop-shadow-3);
      }

      .cls-3, .cls-4, .cls-6, .Graphic_Style_4, .cls-7, .cls-19, .cls-11 {
        stroke-miterlimit: 10;
      }

      .cls-4 {
        filter: url(#drop-shadow-2-1);
      }

      .cls-20 {
        fill: #823eed;
      }

      .cls-21 {
        mask: url(#mask);
      }

      .cls-12 {
        fill: #c1a584;
        stroke: #92672b;
      }

      .cls-12, .cls-13, .cls-15 {
        stroke-width: 3px;
      }

      .cls-13 {
        fill: #f8e7b8;
        stroke: #b38c3e;
      }

      .cls-22 {
        mask: url(#mask-2);
      }

      .cls-23 {
        fill: url(#linear-gradient-3);
      }

      .cls-14 {
        fill: #ffd00b;
        stroke: #c68900;
      }

      .cls-5 {
        fill: #cef;
        stroke: #0094e8;
      }

      .cls-15 {
        fill: #f3b572;
        stroke: #a66d29;
      }

      .cls-6 {
        fill: #e8e8e8;
        stroke: #949494;
      }

      .Graphic_Style_4 {
        filter: url(#drop-shadow-2);
      }

      .cls-24 {
        fill: #6b6b6b;
      }

      .cls-7 {
        filter: url(#drop-shadow-5);
      }

      .cls-8 {
        filter: url(#drop-shadow-4);
      }

      .cls-19 {
        fill: #d8d9d8;
        stroke: #aaa;
      }

      .cls-25 {
        filter: url(#luminosity-invert-2);
      }

      .cls-9 {
        fill: none;
      }

      .cls-26 {
        filter: url(#luminosity-invert);
      }

      .cls-27 {
        fill: url(#linear-gradient);
      }

      .cls-10 {
        filter: url(#drop-shadow-1);
      }

      .cls-11 {
        filter: url(#drop-shadow-6);
      }
    </style>
    <filter id="drop-shadow-2" filterUnits="userSpaceOnUse">
      <feOffset dx="0" dy="3"/>
      <feGaussianBlur result="blur" stdDeviation="0"/>
      <feFlood flood-color="#000" flood-opacity=".14"/>
      <feComposite in2="blur" operator="in"/>
      <feComposite in="SourceGraphic"/>
    </filter>
    <filter id="drop-shadow-1" x="174.81" y="18.77" width="103.42" height="59.55" filterUnits="userSpaceOnUse">
      <feOffset dx="0" dy="3"/>
      <feGaussianBlur result="blur-2" stdDeviation="0"/>
      <feFlood flood-color="#000" flood-opacity=".14"/>
      <feComposite in2="blur-2" operator="in"/>
      <feComposite in="SourceGraphic"/>
    </filter>
    <filter id="drop-shadow-2-1" x="214.86" y="81.21" width="20.07" height="21.72" filterUnits="userSpaceOnUse">
      <feOffset dx="0" dy="3"/>
      <feGaussianBlur result="blur-3" stdDeviation="0"/>
      <feFlood flood-color="#000" flood-opacity=".14"/>
      <feComposite in2="blur-3" operator="in"/>
      <feComposite in="SourceGraphic"/>
    </filter>
    <filter id="drop-shadow-3" x="207.98" y="98.54" width="12.75" height="12.89" filterUnits="userSpaceOnUse">
      <feOffset dx="0" dy="3"/>
      <feGaussianBlur result="blur-4" stdDeviation="0"/>
      <feFlood flood-color="#000" flood-opacity=".14"/>
      <feComposite in2="blur-4" operator="in"/>
      <feComposite in="SourceGraphic"/>
    </filter>
    <filter id="drop-shadow-4" x="0" y="20.5" width="119.5" height="60.85" filterUnits="userSpaceOnUse">
      <feOffset dx="0" dy="3"/>
      <feGaussianBlur result="blur-5" stdDeviation="0"/>
      <feFlood flood-color="#000" flood-opacity=".14"/>
      <feComposite in2="blur-5" operator="in"/>
      <feComposite in="SourceGraphic"/>
    </filter>
    <filter id="drop-shadow-5" x="43.3" y="82.18" width="20.07" height="21.72" filterUnits="userSpaceOnUse">
      <feOffset dx="0" dy="3"/>
      <feGaussianBlur result="blur-6" stdDeviation="0"/>
      <feFlood flood-color="#000" flood-opacity=".14"/>
      <feComposite in2="blur-6" operator="in"/>
      <feComposite in="SourceGraphic"/>
    </filter>
    <filter id="drop-shadow-6" x="57.5" y="99.52" width="12.75" height="12.89" filterUnits="userSpaceOnUse">
      <feOffset dx="0" dy="3"/>
      <feGaussianBlur result="blur-7" stdDeviation="0"/>
      <feFlood flood-color="#000" flood-opacity=".14"/>
      <feComposite in2="blur-7" operator="in"/>
      <feComposite in="SourceGraphic"/>
    </filter>
    <filter id="luminosity-invert" x="67.59" y="106.58" width="48.67" height="71.35" color-interpolation-filters="sRGB" filterUnits="userSpaceOnUse">
      <feColorMatrix result="cm" values="-1 0 0 0 1 0 -1 0 0 1 0 0 -1 0 1 0 0 0 1 0"/>
    </filter>
    <linearGradient id="linear-gradient" x1="-582.09" y1="7055.39" x2="-582.82" y2="7055.39" gradientTransform="translate(667171.73 -54928.59) rotate(-90) scale(94.55 -94.55)" gradientUnits="userSpaceOnUse">
      <stop offset="0" stop-color="#000"/>
      <stop offset=".82" stop-color="#000"/>
      <stop offset=".96" stop-color="#fff" stop-opacity="0"/>
    </linearGradient>
    <mask id="mask" x="67.59" y="106.58" width="48.67" height="71.35" maskUnits="userSpaceOnUse">
      <g class="cls-26">
        <rect class="cls-27" x="67.59" y="106.58" width="48.67" height="71.35"/>
      </g>
    </mask>
    <filter id="luminosity-invert-2" x="177.4" y="106.58" width="48.67" height="71.35" color-interpolation-filters="sRGB" filterUnits="userSpaceOnUse">
      <feColorMatrix result="cm" values="-1 0 0 0 1 0 -1 0 0 1 0 0 -1 0 1 0 0 0 1 0"/>
    </filter>
    <linearGradient id="linear-gradient-2" y1="7054.23" y2="7054.23" xlink:href="#linear-gradient"/>
    <mask id="mask-1" x="177.4" y="106.58" width="48.67" height="71.35" maskUnits="userSpaceOnUse">
      <g class="cls-25">
        <rect class="cls-16" x="177.4" y="106.58" width="48.67" height="71.35"/>
      </g>
    </mask>
    <filter id="luminosity-invert-3" x="124.17" y="105.58" width="48.67" height="71.35" color-interpolation-filters="sRGB" filterUnits="userSpaceOnUse">
      <feColorMatrix result="cm" values="-1 0 0 0 1 0 -1 0 0 1 0 0 -1 0 1 0 0 0 1 0"/>
    </filter>
    <linearGradient id="linear-gradient-3" x1="-582.08" y1="7054.79" x2="-582.81" y2="7054.79" xlink:href="#linear-gradient"/>
    <mask id="mask-2" x="124.17" y="105.58" width="48.67" height="71.35" maskUnits="userSpaceOnUse">
      <g class="cls-18">
        <rect class="cls-23" x="124.17" y="105.58" width="48.67" height="71.35"/>
      </g>
    </mask>
  </defs>
  <g id="Layer_1-2" data-name="Layer 1">
    <g id="test">
      <g>
        <g>
          <path class="cls-1" d="M83.15,102.34c.27,6.87-.38,8.7,1.09,15.41,1.85,8.48,8.31,8.5,9.4,8.48,53.24-.74,85.33-2.37,138.58-3.11,3.15-.04,6.69-.61,9.63-7.4,2.23-5.15.46-22.8.45-28.45-.04-14.24-.07-16.62-1.02-29.7-1.09-15.04-.46-30.39-1.55-45.43-.22-3.02-.55-6.31-2.6-8.44-1.99-2.07-12.8-3.07-21.37-2.57-19.97,1.16-115.92,2.98-125.4,2.72-6.3-.17-10.69.57-11.09,7.8-.39,7.12,1.12,17.91,1.4,25.06.39,10.08.78,20.15,1.18,30.23.43,11.01.89,24.4,1.32,35.41Z"/>
          <path class="cls-6" d="M83.4,113.43c.14,1.42.39,3.01.84,5.05,1.85,8.48,8.31,8.5,9.4,8.48,53.24-.74,85.33-2.37,138.58-3.11,3.15-.04,6.69-.61,9.63-7.4l.95-5.66"/>
          <line class="cls-19" x1="242.8" y1="110.81" x2="83.4" y2="113.43"/>
        </g>
        <g>
          <path class="cls-24" d="M123.89,31.57c-.12-.11-.16-.15-.23-.15l-.25-.04-.12-.18c-.83-1.68-1.28-3.59-1.23-5.41-.03-.09-.07-.16-.1-.25-.05-.11-.1-.25-.15-.29l-.14-.18.04-.23c.26-1.1.13-2.25-.03-3.39-.06-.45-.12-.95-.14-1.43-.03-.32.05-.62.11-.87.04-.18.1-.39.09-.55,0-.23-.08-.47-.14-.7-.08-.22-.15-.47-.16-.72-.03-.18-.04-.36.12-.55.04-.05.09-.09.13-.12,0-.16-.06-.36-.11-.57-.13-.45-.31-1.06.01-1.61l.15-.3.32.06c.48.07,1.17.25,1.61.49l.14.04.07.16c.64,1.43.6,3.05.58,4.89,0,1.23-.03,2.48.13,3.84.02.04.07.18.12.29.05.16.1.31.13.5.14.77.14,1.5.14,2.22,0,.84.04,1.66.24,2.4,1.51-.51,3.96-1.21,5.94-1.27.7-.02,1.34.04,1.82.17l.3.1v.32s.11.16.16.22c.12.16.24.31.29.49.08.23.04.45-.07.64,0,.16,0,.36-.14.53-.13.14-.31.24-.51.24-.09,0-.09.12-.09.12l-.5-.03c-.09,0-.16-.02-.23-.04l-.13.03s-.09,0-.11,0c-.2,0-.34-.06-.44-.1t-.02.02s-.15.12-.33.21c-.16-.08-.35-.26-.35-.26h-.02c-.13.07-.34.15-.59.16-.09,0-.16,0-.23-.02-.11.12-.29.24-.54.25-.09,0-.18-.02-.3-.04-1.54.83-2.4,1.02-4.55,1.29h-.12s-.11-.04-.11-.04c-.23-.08-.37-.24-.47-.37Z"/>
          <path class="cls-24" d="M136.77,29.88c-.68-.55-1.11-1.26-1.21-2.16-.02,0-.28-.1-.28-.1l.04-.3c.01-.32-.02-.57-.09-.63-.05-.07-.3-.08-.53-.1-.32-.04-.66-.09-1.03-.31l-.23-.13v-.25c-.03-.66.22-1.14.44-1.47.04-.07.11-.16.13-.25l.12-.35.37.08c.12.04.18.04.25.04.04,0,.09,0,.14,0,.07-.03.11-.03.18-.03.14,0,.27.04.43.1t.04-.05c.17-1.03.78-1.82,1.41-2.66.29-.33.54-.7.78-1.12l.04-.07.11-.07c.16-.07.34-.13.47-.2.38-.13.49-.2.53-.36,0,0,.01-.27.19-.46.25-.08.41.12.41.12.2-.12.43-.17.58-.23.09-.03.2-.05.25-.08,0,0,.16-.1.11-.16.16-.07.34-.01.34-.01.21.06.41.05.66.05.14,0,.25,0,.41-.01.18-.03.34-.04.52-.04.36-.01.89,0,1.49.25l.16.06.05.18c.1.27.22.33.38.44.23.13.53.3.62.93.3,1.42-.64,2.46-1.39,3.28-.13.14-.26.28-.38.33l-.11.12-.14.03c-.13.05-.27.05-.36.06v.02s-.08.32-.08.32l-.32.03c-.29.05-.49.29-.75.57-.29.19-.62.54-1.03.6-.04.05-.07.09-.06.12,0,0-.04.23-.21.37-.23.05-.55-.1-.55-.1l-.02-.02s-.11,0-.18-.02c-.33.22-.76.28-1.1.33-.5.11-.63.18-.67.27,0,.05.03.09.03.13.05.11.08.22.1.31t0,.05c.33.47,1.12.76,2.23.72.23,0,.48-.02.73-.07.32-.06.74-.25,1.14-.47.27-.08.56-.18.85-.28.25-.1.58-.18.86-.24.18-.05.34-.08.45-.11.02-.05.02-.07.04-.11.13-.16.26-.35.46-.4.07-.02.11-.03.18-.03.18,0,.32.06.41.12.02-.02.04-.09.08-.21.09-.12.21-.44.62-.57l.31-.1.17.29c.45.62.52,1.25.64,2.05l.03.29-.22.12c-1.16.79-2.23,1.31-3.37,1.75-1.3.48-2.66.73-4.25.83h-.07s-.07,0-.07,0c-.96-.22-1.72-.58-2.31-1.06ZM138.29,23.96c.29-.1.56-.25.85-.42.33-.22.65-.39,1.17-.45.32-.53.88-.87,1.35-.93.13-.21.4-.38.62-.54.27-.21.44-.36.5-.52-.28-.08-.55-.09-.82-.08-1.48.05-2.53,1.25-3.53,2.44-.02.11-.08.27-.14.5Z"/>
          <path class="cls-24" d="M156.44,30.06c-.33-.38-.5-.64-.97-.97l-.05-.04-.05-.07c-.24-.42-.28-.81-.32-1.26-.06.16-.2.26-.31.19-.45.7-.91,1.3-1.42,1.71-.71.61-1.54.92-2.35.94-.55.02-1.14-.07-1.69-.28l-.14-.06-.07-.11c-.17-.22-.33-.47-.5-.64-.65-.91-1.34-1.84-1.74-3.08l-.05-.04.02-.09c.09-.75.09-1.34.07-2.03.01-.29,0-.68,0-1.07v-.41s.17-.07.11-.28c-.13-.38.21-.37.21-.37,0-.11.06-.16.31-.19-.08-.22,0-.39.08-.46.07-.12.15-.19.27-.21,0-.07,0-.14.02-.21.06-.25.24-.35.37-.44.16-.1.22-.12.19-.42,0,0-.04-.34.03-.43.17-.28.45-.06.45-.06.08-.3.28-.33.42-.26,0,0,.02-.18.21-.42.2-.21.55.12.55.12.07-.05.15-.17.15-.21,0,0,.15-.26.08-.48.29-.17.46.12.46.12t.04-.02c.09-.03.18-.05.32-.06.05,0,.09,0,.14.02,0,0-.03-.14.06-.21.11-.07.36.03.36.03.05,0,.09,0,.14,0,.27,0,.5.03.66.09.18-.05.41-.08.63-.09.45-.02,1.05.1,1.47.34.44.26.75.59.9.9.62.09.9.35,1.16.6.14.15.26.29.49.37l.23.11v.27c0,.66-.02,1.25-.04,1.82-.07,1.18-.12,2.3.03,3.46.13-.05.21.01.23.11,0-.02,0-.27-.01-.29,0,0-.03-.14.11-.21.23,0,.46.05.46.05.05.04.09.06.16.11.09-.07.18-.12.31-.12.14,0,.27.06.37.12.14.11.15.29.15.47.05.07.12.18.17.31.05.16.1.32.13.52.03.14.08.29.11.43l.08.25-.18.17c-.26.28-.39.63-.51,1-.25.58-.52,1.29-1.72,1.54l-.23.05-.17-.18c-.16-.15-.28-.29-.4-.42ZM150.49,27.68c.07.09.17.2.26.26.16-.1.31-.19.44-.29.56-.36,1.05-.63,1.78-1.88.22-.92.91-1.87,1.4-2.37.09-.68.12-1.19.19-1.85-.25-.1-.46-.26-.65-.39-.16-.13-.35-.26-.44-.28-.11-.02-.21-.06-.3-.1-.07-.02-.14-.04-.18-.04-.64.02-.64.04-1.05.45-.09.07-.18.17-.29.26l-.26.3s-.03-.18-.21-.17c-.02.02-.59.54-.53,1.04v.27s-.24.1-.24.1c-.22.14-.41.54-.51,1.04-.07.57-.05,1.12,0,1.43v.36s-.21.26-.21.26c.05.18,0,.27,0,.48,0,.25.01.43.07.57.3.06.53.28.75.54Z"/>
          <path class="cls-24" d="M161.6,29.23c-.15-.34-.23-.7-.15-1.06-.02-.02-.02-.04-.05-.09-.15-.29-.34-.74-.2-1.13-.08-.27-.13-.56-.21-.88-.35-1.49-.8-3.52-1.29-4.64l-.05-.13.02-.14q.06-.23-.09-.52c-.02-.07-.05-.13-.1-.2,0,0-.1-.32-.06-.48.11-.21.45-.2.45-.2.02-.02.04-.07.06-.09.22-.33.63-.88,1.4-.91.14,0,.27.01.43.03.3.06.44.35.52.62.05.2.13.45.21.77,0,.05.03.09.03.14.02,0,.02-.02.02-.02.15-.35.25-.71.33-.94l.1-.37h.32c.25-.02.49-.23.76-.45.29-.24.55-.52.98-.53.09,0,.18.02.27.04.4-.24.72-.34,1.06-.35.48-.02.89.22,1.45.54l.02.02.05.04c.42.35.51.89.56,1.23,0,.09,0,.2.03.25,0,0,.1.36,0,.5-.06.09-.4.13-.4.13-.04,0-.07,0-.22.21l-.15.21-.28-.06c-.18-.04-.37-.08-.55-.07-1.34.05-2.45,1.42-2.96,3.67-.08.37.09.66.21.79l.12.16-.02.18c-.02.09-.06.28-.08.34,0,.04-.02.11-.04.16v.02c0,.2.08.45.16.74.21.68.46,1.53.16,2.61l-.06.14-.13.1c-.13.12-.29.19-.42.29-.09.09-.22.17-.36.26l-.16.1-.18-.04c-.64-.11-1.2-.48-1.51-.97Z"/>
          <path class="cls-24" d="M169.68,28.83l-.05-.07v-.43c-.22-3.22-.38-6.06-.7-9.89,0,0-.03-.32,0-.46.2-.05.45-.02.45-.02.06-.12.18-.19.36-.24l.16-.05.16.06c.14.06.28.08.39.1.32.08.69.16,1,.65l.1.13-.02.16c-.09.73-.02,1.39.12,2.22.08-.39.2-.8.49-1.02.07-.57.4-.97.66-1.23.15-.19.31-.37.39-.6l.06-.21.22-.08c.2-.05.38-.13.58-.18.4-.17.85-.37,1.46-.41h.09s.12.04.12.04c.28.13.6.18.96.29.76.18,1.56.4,2.08.91l.05.04.05.07c.91,1.92,1.51,3.49,1.85,5.01.48,1.98.51,3.71.09,5.29l-.04.16-.13.1c-.15.12-.31.17-.52.18-.09,0-.16,0-.23,0h-.02c-.07.03-.16.05-.25.05-.34.01-.58-.23-.76-.43-.07-.07-.21-.22-.26-.24l-.41-.03v-.34s0-.25,0-.25c0-1.86-.03-4.18-.72-5.86-.42-1.01-1.35-2.11-1.91-2.09-.18,0-.38.15-.55.43-.17.28-.32.71-.48,1.2-.12.35-.25.74-.37,1.04-.34.67-.63,1.45-.88,2.3-.06.21-.2.26-.31.28-.23.69-.23,1.35-.25,2.05,0,.73-.02,1.48-.33,2.26l-.04.12-.13.05c-.24.17-.49.24-.76.25-.66.02-1.29-.41-1.77-1.33Z"/>
          <path class="cls-24" d="M184.11,16.09l-.18-.02-.12-.13c-.76-.81-1.06-1.69-.91-2.58l.04-.28.27-.1c.29-.1.49-.31.59-.61,0,0,.04-.25.22-.32.18-.05.44.08.44.08.07.02.12.06.18.08.19.13.26.15.35.15.07,0,.14,0,.23-.03l.09-.03h.07c.55.03.65.45.7.61,0,.02.03.04.03.04l.23.06.08.27c.21.76.07,1.52-.34,2.08-.26.33-.73.71-1.57.74-.14,0-.25,0-.39,0ZM184.17,29.09s-.07-.09-.1-.16c-.16-.06-.26-.2-.3-.26-.02-.02-.03-.04-.05-.07-.26-.26-.47-.48-.5-.8-.03-.29.05-.62.17-1.05-.02-.02-.03-.07-.05-.09-.12-.13-.29-.35-.29-.65,0-.59.12-1.23.21-1.8.08-.44.13-.78.17-1.14.03-.41.02-.82,0-1.32-.02-.43-.03-.89,0-1.32.01-.25.1-.46.18-.64.11-.21.15-.28,0-.55l-.15-.25.2-.23c.28-.33.62-.52,1-.53.36-.01.71.13,1.03.28.14.06.25.1.39.15l.23.08.05.23c.39,1.44.27,3.1.14,4.66-.11,1.44-.22,2.8.06,3.88l.03.11-.02.11c-.2.69-.64,1.23-1.38,1.59l-.02.02c-.11.05-.22.08-.34.08-.3,0-.53-.12-.67-.34Z"/>
          <path class="cls-24" d="M189.87,28.14l-.05-.07-.02-.43c-.2-3.22-.37-6.06-.68-9.89,0,0-.03-.32,0-.46.2-.05.46-.02.46-.02.06-.12.17-.19.36-.24l.16-.05.16.06c.14.06.28.08.39.1.32.08.69.16,1,.65l.1.13-.02.16c-.09.73-.02,1.39.12,2.22.08-.39.2-.8.49-1.02.07-.57.4-.97.66-1.23.15-.19.3-.37.39-.6l.06-.21.22-.08c.2-.05.38-.13.59-.18.4-.17.85-.37,1.46-.41h.09s.12.04.12.04c.28.13.6.18.96.28.76.18,1.56.4,2.08.91l.05.04.05.07c.91,1.92,1.51,3.49,1.86,5.01.48,1.98.51,3.71.09,5.29l-.04.16-.13.1c-.16.12-.31.17-.52.18-.09,0-.16,0-.23,0h-.02c-.07.03-.16.05-.25.05-.34.01-.58-.23-.76-.43-.07-.07-.21-.22-.26-.24l-.41-.03v-.34s0-.25,0-.25c0-1.86-.03-4.18-.72-5.86-.42-1.01-1.35-2.12-1.91-2.1-.18,0-.38.15-.55.43-.17.28-.32.71-.48,1.2-.12.35-.25.73-.38,1.04-.34.67-.63,1.45-.88,2.3-.06.21-.2.26-.31.28-.23.69-.23,1.35-.25,2.05,0,.73-.02,1.48-.33,2.26l-.04.12-.13.05c-.25.17-.49.24-.76.25-.66.02-1.29-.41-1.77-1.33Z"/>
          <path class="cls-24" d="M209.71,33.14s-.11,0-.18,0c-1,.01-1.68.01-1.93-.43v-.02s-.02,0-.04,0c-.44-.08-.75-.11-.96-.22-.05-.02-.16-.06-.23-.08-.32-.08-.71-.2-.84-.56-.09-.04-.18-.06-.25-.11,0-.02-.02-.02-.05-.04-.07.03-.13.05-.2.05-.14,0-.39-.03-.6-.34-.07-.13-.12-.27-.17-.38-.03-.09-.08-.2-.1-.25-.62-.73-.84-1.38-.75-2,.09-.57.53-1.09,1.24-1.52,0,0,.22-.12.31-.12.05.11.32.19.32.19.07.04.16.04.21.04l.36.03.06.36c.09.7.52,1.35,1.24,1.78.72.45,1.64.69,2.52.66.77-.03,1.49-.26,2.05-.64.57-1.2.23-2.62-.12-4.02-.03-.13-.08-.27-.1-.38-.07.02-.13.05-.22.05-.07,0-.21-.02-.34-.1-.78.44-1.99.89-3.26.93-1.29.04-2.38-.35-3.09-1.17-.4-.44-.7-1.2-.87-2.08-.17-.93-.13-1.86.07-2.59.22-.74.72-1.59,1.35-2.36.7-.82,1.52-1.46,2.33-1.81.58-.25,2.18-.76,2.65-.91l.11-.03.11.02c.25.06.46.17.62.25.18.08.35.17.53.19h.27s.1.24.1.24c.15.27.35.42.54.57.21.17.49.39.5.78,0,.41-.34.74-.89,1.17l-.24.17-.26-.13c-.21-.13-.32-.12-.46-.12-.3,0-.57-.03-.97-.33-1.43.1-2.1.98-2.89,2.03-.17.23-.37.49-.56.75-.02.18-.03.37-.05.55-.12,1.16-.17,1.67.89,2.13.18.04.39.03.57.03,1.07-.04,1.89-.54,2.54-.95.16-.1.29-.17.42-.24.04-.89-.1-1.47-.26-2.2l-.05-.27.22-.19c.07-.05.15-.16.24-.26.2-.23.46-.54.89-.62.09,0,.21,0,.29-.01.46-.02.82.11,1.08.37.52.53.48,1.48.45,2.48,0,.14-.01.27,0,.41-.03.48.16,1.22.26,1.67l.02.05c.03.09.07.16.15.25.07.11.19.24.24.45.1.36.09.75.06,1.11,0,.07,0,.14,0,.21-.02.18.04.43.07.63,0,.09.03.18.03.25.03.18-.03.36-.14.48.03.18.06.39.11.57.09.54.2,1.06.18,1.36.08,1.02-.18,1.89-.82,2.6-.48.52-1.13.95-1.96,1.23-.67.25-1.44.39-2.21.42-.04,0-.09,0-.16,0Z"/>
          <path class="cls-24" d="M129.35,56.28c-.93.03-1.88.07-2.75-.11-.94-.17-1.66-.58-2.16-1.22-.55-.12-.93-.58-1.24-1-.21-.27-.45-.58-.68-.71l-.14-.04-.05-.16c-.54-1.28-.83-3-.73-4.73.02-.21.01-.36.03-.57.01-.89.03-1.87.53-2.47-.05-.2-.01-.41,0-.57.04-.16.06-.3.03-.43l-.08-.36.34-.15c.34-.1.49-.29.52-.65l.04-.27.25-.08c.49-.18.7-.8.76-1.14,0,0,.08-.34.14-.53.15-.17.36,0,.36,0,.11-.21.28-.42.67-.43.02-.11.04-.3.12-.46l.13-.25h.27c.09-.01.11-.06.18-.06l.15-.19.5.12c.07.02.09.02.16.02.23,0,.38-.17.46-.36l.06-.21.2-.05c1.19-.36,2-.54,3.14-.65l.17.18s.39,0,.51-.25c.21.18.38.46.38.46.07.16.33.31.56.44.35.22.76.41.87.86.08.25,0,.52-.2.8l-.09.12-.13.05c-.34.1-.83.19-1.36.21-.32.01-.93,0-1.35-.16-.34.06-.61.16-.92.28-.25.1-.56.22-.97.33-.02.02-.02.05-.04.07-.02.04-.07.09-.11.14l-.07.09-.09.05c-.85.48-1.65,1.49-2.22,2.21-.57.72-.93,2.05-.97,3.51-.04,1.5.24,2.9.81,3.72v.02c.99,1.65,2.36,1.74,3.66,1.83.11,0,.21.02.27.01.04-.12.13-.23.29-.31l.2-.1.21.11s.02.02.05.02c.04,0,.13-.03.2-.05.13-.05.27-.1.43-.11.07,0,.16.02.23.04.51-.36.91-.56,1.61-.72,0-.14.01-.27.06-.37.08-.21.24-.35.42-.42-.06-.29-.09-.61-.12-.93-.07-.66-.13-1.22-.45-1.74l-.17-.29.24-.24s.11-.19.15-.35c-.04,0-.07,0-.11,0-.66.02-1.67.42-2.76,1.14l-.22.12-.25-.13c-.16-.11-.51-.14-.85-.18-.21-.02-.43-.03-.66-.09l-.25-.06-.08-.25c-.1-.41-.05-.68,0-.89.04-.21.08-.37-.05-.7l-.08-.27.2-.19c.95-.9,2.44-.99,3.58-1.06,0-.02,0-.04,0-.07l.03-.39h.36c.18-.04.5-.12.79-.2.4-.1.86-.19,1.2-.2.11,0,.23,0,.34.01.49-.15.61-.18.7-.18.07,0,.14.02.21.04.09-.03.29-.08.74-.21l.29-.08.19.27q.05.07.12.06s.07,0,.11-.03c.05,0,.11,0,.16,0,.23,0,.41.03.55.19.07.09.14.2.17.31,0,0,.01-.25.16-.1.14.15.2.63.2.63.02.52-.17.94-.53,1.2-.31.21-.67.32-1.01.4-.27.08-.63.16-.7.3-.04.07-.08.25.14.77l.03.07v.09c0,.11.04.27.04.45.03.32.07.7.08,1.04.23.04.39.21.45.46l.02.07-.02.07c-.02.14-.03.32-.05.5-.05.64-.15,1.53-.04,2.07l.05.16-.09.14c-.53.97-1.12,1.22-1.68,1.44-.36.12-.7.25-1.07.58l-.18.17-.23-.08h-.02c-.32.01-.99.38-1.3.66l-.13.1-.18-.02c-.5-.03-1.05-.01-1.64,0Z"/>
          <path class="cls-24" d="M143.68,55.81c.11-.07.02-.16.02-.16-.52,0-.89-.08-1.28-.3-.39-.21-.75-.52-1.1-.89-.46-.17-.83-.45-1.16-.78-.31-.33-.53-.82-.7-1.29-.33-1.12-.29-2.44-.18-3.31l.03-.43c.09-.12.22-.1.22-.1.02-.2.08-.3.3-.44.45-1.56,1.63-2.97,3.06-3.61.24-.26.64-.66,1.27-.77.02,0,.05,0,.07,0,.2-.1.47-.22.83-.23.09,0,.18,0,.25.01.16-.03.32-.03.45-.04.61-.02,1.19.07,1.69.26.44.19.86.49,1.21.84.32.04.57.09.76.25.09.09.19.22.24.36l.25-.05.19.22c.14.2.33.35.49.48.26.26.5.53.73.86l.02.02.02.02c.52,1.12.6,2.32.21,3.58-.29.87-.8,1.85-1.58,2.85l-.11.12-.16.03s-.07,0-.11,0c-.24.33-.55.61-.81.87-.24.19-.46.36-.64.57l-.15.21h-.27s-.07-.03-.11-.03c-.09,0-.14,0-.18.21l-.06.28-.25.05c-.59.16-1.24.32-1.85.34-.2,0-.39,0-.55-.05-.09.07-.24.19-.59.11,0,0-.11.05-.48-.05ZM143.79,53.01c.27,0,.59-.04.93-.1.04,0,.11,0,.18-.03.11-.09.24-.14.33-.22.24-.19.12-.32.12-.32l.46.03s.09,0,.11,0c.32-.01.56-.2.87-.49.22-.19.46-.42.75-.59.23-.6.71-1.05,1.13-1.36t.04-.02c.02-.12.04-.23.06-.34.14-.62.24-1.03.1-1.8-.12-.09-.23-.2-.35-.31-.31-.28-.52-.46-.74-.45l-.57.02s.15-.16.1-.44c-.02-.02-.39,0-.54,0-.52,0-1.02,0-1.65-.31-.22.14-.42.33-.62.54-.31.24-.64.54-1.09.76-.12.3-.28.53-.43.76-.68,1.25-1.31,2.32-.36,4.22.24.33.56.46,1.15.44Z"/>
          <path class="cls-24" d="M162.34,54.87c-.33-.38-.5-.64-.97-.97l-.05-.04-.05-.07c-.24-.42-.28-.81-.32-1.26-.06.16-.2.26-.31.19-.45.7-.91,1.31-1.42,1.71-.71.62-1.54.92-2.35.95-.55.02-1.14-.07-1.69-.28l-.14-.06-.07-.11c-.17-.22-.33-.47-.5-.64-.65-.91-1.34-1.84-1.74-3.08l-.05-.04.02-.09c.09-.75.09-1.35.07-2.03.01-.3,0-.68,0-1.07v-.41s.17-.07.11-.28c-.13-.38.21-.37.21-.37,0-.11.06-.16.31-.19-.08-.22,0-.39.08-.46.06-.12.15-.19.27-.21,0-.07,0-.14.02-.21.06-.25.24-.35.37-.45.16-.1.22-.12.19-.42,0,0-.03-.34.03-.43.17-.28.45-.06.45-.06.08-.3.28-.33.42-.26,0,0,.02-.18.21-.42.2-.21.55.12.55.12.07-.05.15-.16.15-.21,0,0,.15-.26.08-.48.29-.17.46.12.46.12t.04-.02c.09-.03.18-.05.32-.06.05,0,.09,0,.14.02,0,0-.03-.14.06-.21.11-.07.36.03.36.03.05,0,.09,0,.14,0,.27,0,.5.03.66.09.18-.05.41-.08.63-.09.45-.02,1.05.1,1.47.34.44.26.75.59.89.9.62.09.9.35,1.16.6.14.15.26.29.49.37l.23.11v.27c0,.66-.02,1.25-.04,1.82-.07,1.18-.12,2.3.03,3.45.13-.05.21.02.23.11,0-.02,0-.27-.01-.29,0,0-.03-.14.11-.21.23,0,.46.05.46.05.05.04.09.07.16.11.09-.07.18-.12.31-.13.14,0,.27.06.37.12.14.11.15.29.15.47.05.07.12.18.17.31.05.16.1.32.13.52.03.14.08.29.11.43l.08.25-.18.17c-.26.28-.39.63-.51,1-.25.58-.52,1.29-1.72,1.54l-.22.05-.17-.18c-.16-.15-.28-.29-.4-.42ZM156.39,52.49c.07.09.17.2.26.26.15-.1.31-.19.44-.29.56-.36,1.05-.63,1.78-1.88.22-.92.91-1.87,1.4-2.37.09-.68.12-1.19.19-1.85-.25-.11-.46-.26-.65-.39-.16-.13-.35-.26-.44-.28-.12-.02-.21-.06-.3-.1-.07-.02-.14-.04-.18-.04-.64.02-.63.04-1.05.45-.09.07-.18.16-.29.26l-.26.3s-.03-.18-.21-.17c-.02.02-.59.54-.53,1.04v.27s-.24.1-.24.1c-.22.14-.41.54-.51,1.04-.07.57-.05,1.12,0,1.43v.36s-.21.26-.21.26c.05.18,0,.27,0,.48,0,.25.01.43.06.57.3.06.53.28.75.54Z"/>
          <path class="cls-24" d="M167.22,54.59c-.64-.62-.6-1.66-.55-2.75,0-.39.04-.73.03-1.12-.02-.5.04-.93.09-1.39.05-.48.1-.96.06-1.41-.19-2.15-.36-4.47-.39-6.69-.01-.38-.08-1-.12-1.52-.07-.79-.14-1.56-.11-1.97v-.27s.28-.12.28-.12c.07-.03.18-.05.27-.06.36-.01.64.23.9.45.16.13.37.28.53.28h.02s.23-.03.43,0c.05.09.08.36.08.36.83,4.45,1.16,9.39,1.08,15.54,0,0,0,.52-.32.58.05.13.14.2.14.2.03.09-.02.21-.17.26-.09.05-.4.13-.72.14-.66.02-1.19-.14-1.54-.49Z"/>
        </g>
        <path class="cls-9" d="M148.55,74.8c1.33.76,2.89,1.51,4.24.48,1.22-.93,2.08-3.18,3.41-3.09,1.34.09,2.06,2.68,3.41,2.32.9-.24,1.41-1.67,2.22-2.35,1.2-1.01,2.61-.11,3.83.53,1.01.53,2.08.88,3.17,1.03.24.03.5.05.71-.15.21-.2.31-.55.43-.85.6-1.44,12.08-2.51,13.76-2.63,1.56-.11,2.93,2.25,4.35,1.2.27-.2.5-.5.79-.58.37-.11.71.19,1.02.45,2.51,2.17,4.63.9,7.71.05"/>
        <path class="cls-9" d="M146.63,94.16c.49.7,1.29.42,1.96-.02s1.38-1.04,2.04-.87c.76.2,1.22,1.35,1.73,2.27.51.92,2.9-.65,3.4-1.31.82-1.07,1.85-.64,2.71-.16.8.46,1.6.91,2.41,1.37.23.13,1.66-1.14,2.19-1.54.47-.35.95-.07,1.41.04,1.17.28.62-1,2.77-1.74.43,1.2,2.55.41,3.17,1.31.56.81,4.79,1.22,6.02,1.25.96.02,1.95-.27,2.91-.3,1.8-.04,3.46.86,5.1,1.74"/>
        <path class="cls-2" d="M124.41,77.81c4.72-.77,9.51-1.1,14.28-.98.23,0,.51-.02.61-.23.11-.23-.15-.45-.31-.65-1.6-1.99-2.35-3.75-3.6-5.62-.9-1.34-3.13-4.68-4.57-5.6-2.25,1.82-2.72,3.62-3.31,5.12-1.03,2.65-2.07,5.3-3.1,7.95Z"/>
        <path class="cls-5" d="M125.84,93.36c-.15.15-.31.31-.37.51-.13.42.17.84.44,1.18,2.24,2.79,3.98,5.95,5.7,9.1,2.14-2.5,4.23-5.04,6.28-7.61.14-.18.29-.37.31-.6.04-.36-.24-.67-.49-.92-2.04-2.12-3.59-4.48-5.05-7.01-.56-.97-.68-.67-1.43.06-.6.59-1.2,1.18-1.8,1.77-1.2,1.18-2.4,2.35-3.6,3.53Z"/>
      </g>
      <g>
        <path class="cls-10" d="M254.85,24.8c-3.25-1.28-5.12-1.01-8.77-1.06-4.88-.08-10.28,0-13.88,2.52-4.96-5.01-13.87-7.5-21.86-6.11s-14.64,6.58-16.3,12.74c-2.39-.53-5.02-.41-7.31.34-5,1.65-7.76,6.23-6.92,10.35.84,4.13,4.81,7.64,9.69,9.49-4.92.24-10.49,1.25-12.77,4.6-1.77,2.59-.82,5.98,1.79,8.12,2.61,2.14,8.66,4.16,12.47,4.02,2.26-.08,10.14-.82,11.25-2.91,1.52,3.75,5.33,4.35,10.33,5.21,6.09,1.05,10.16,1.72,16.39,2.05,8.95.47,18.63.13,24.36-5.16.77-.72,1.59-1.57,2.79-1.67,1.02-.08,1.94.4,2.86.74,4.42,1.62,13.03-2.64,15.61-5.84,2.58-3.2,3.13-9.29,2.33-12.99-1.22-5.61-2.33-12.9-9.75-13.33-5.81-.34-6.67-8.9-12.29-11.11Z"/>
        <path class="cls-4" d="M232.05,86.17c1.08,1.31,1.65,2.99,1.82,4.68.2,1.92-.12,3.98-1.29,5.51-1.1,1.44-2.87,2.29-4.67,2.5s-3.63-.14-5.34-.78c-3-1.11-5.85-3.34-6.54-6.47-.15-.67-.19-1.36-.18-2.05.01-.79.11-1.59.43-2.32.53-1.21,1.64-2.07,2.72-2.83,1.31-.92,2.69-1.81,4.26-2.12,2.01-.4,2.87.5,4.43,1.35,1.54.84,3.13,1.05,4.34,2.51Z"/>
        <path class="cls-3" d="M219.71,104.66c-.02.34-.09.69-.25.99-.15.27-.37.49-.61.69-1.42,1.16-3.48,1.34-5.23.8-1.6-.5-3.03-1.55-3.97-2.94-.59-.87-.97-2.06-.39-2.93.29-.43.77-.7,1.24-.91,3.56-1.63,9.56-1.04,9.2,4.31Z"/>
        <path class="cls-2" d="M206.27,57.9c6.65-1.09,13.41-1.55,20.15-1.38.32,0,.72-.02.86-.32.15-.33-.21-.63-.44-.91-2.26-2.81-3.32-5.29-5.08-7.92-1.27-1.9-4.42-6.61-6.44-7.9-3.17,2.57-3.84,5.11-4.66,7.22-1.46,3.74-2.92,7.47-4.38,11.21Z"/>
        <path class="cls-20" d="M244.05,52.82c-.17-.02-.08-.32-.38-.25-.03-.48-.23-.8-.48-1.05-.3-2.02-.02-3.22,1.67-4.45.25-.25,1.15-1.1,1.6-1.17.42-.35.8-.75,1.38-.97,1.17-1.25,1.47-3.75-.45-4.4-.08-.07-.1-.2-.1-.35-.38.05-1.38-.2-1.58.28-1.8-.38-4.1.7-4.47,2.35-.08,0-.08-.1-.08-.17-.05.25-.15.67-.3,1.07-.35-.1-.25.2-.55.17-.38-.3-1.37-.62-1.2-1.25-.03-.17-.25.15-.38-.08.12-1.45,1.22-3.5,2.97-3.87.53-.1,1.05.12,1.58-.17.1,0,.08-.15.1-.25.8.25,2.57-.62,2.5,0,2.72.05,5.22,2.42,5.12,4.92-.07-.02-.2-.15-.3-.15-.05.8.42,1.62.1,2.32-.73,1.55-2.25,2.5-3.52,3.27-1.3-.17-2.6,1.32-1.77,2.72,0,.08-.1.05-.17.08.15.3.45.45.37.97-.12.08-.35.08-.37.25-.05-.23-.28-.23-.28.1-.33-.15-.75.15-1.02.07ZM245.73,56.79c-.2,0-.2.2-.2.42-.75.12-2.25-.07-2.47-.95-.22-.87.55-1.72,1.42-1.95,1.2.1,1.5,1.32,1.65,1.87-.3-.03,0,.8-.4.6Z"/>
      </g>
      <path class="cls-14" d="M105.29,30.14c2.11,0,4.19.05,6.22.14.6.03.86-.75.37-1.1-1.04-.74-2.1-1.59-2.46-1.91-.95-.82-1.92-1.61-2.9-2.4-.18-.15-.26-.38-.21-.61.62-2.58,1.21-5.2,1.79-7.91.13-.61-.64-1-1.05-.52-1.48,1.73-3.04,3.37-4.67,4.93-.22.21-.56.22-.8.03-1.75-1.41-3.72-2.89-5.14-3.63-.47-.24-.99.2-.85.71.41,1.5,1.46,3.85,2.47,6.03.12.26.05.56-.18.74-2.15,1.7-4.39,3.26-6.72,4.65-.53.32-.29,1.14.34,1.12,2.82-.1,4.88-.14,7.82-.19.27,0,.52.18.6.45.51,1.77,1.71,4.47,2.01,6.21.11.64.99.7,1.18.08.53-1.75,1.13-4.65,1.6-6.36.07-.26.31-.45.59-.45Z"/>
      <g>
        <path class="cls-8" d="M26.93,26.65c3.77-1.31,5.93-1.03,10.16-1.09,5.65-.08,11.91,0,16.08,2.58,5.74-5.13,16.07-7.67,25.33-6.25,9.26,1.42,16.96,6.74,18.89,13.04,2.77-.55,5.82-.42,8.47.35,5.8,1.68,8.99,6.38,8.02,10.6-.98,4.22.64,7.36-5.01,9.26,5.7.24,5.95,1.74,8.59,5.17,2.05,2.66.95,6.13-2.07,8.31s-10.03,4.25-14.45,4.11c-2.61-.08-11.75-.84-13.03-2.98-1.76,3.84-6.18,4.45-11.96,5.33-7.05,1.07-11.78,1.76-18.99,2.09-10.36.48-21.59.13-28.22-5.29-.9-.73-1.84-1.6-3.24-1.71-1.18-.09-2.24.41-3.31.76-5.13,1.66-15.1-2.7-18.08-5.98-2.98-3.28-3.63-9.51-2.7-13.3,1.41-5.75,3.16-16.22,13.31-16.85,6.73-.41,5.71-5.91,12.23-8.17Z"/>
        <path class="cls-7" d="M46.18,87.14c-1.08,1.31-1.65,2.99-1.82,4.68-.2,1.92.12,3.98,1.29,5.51,1.1,1.44,2.87,2.29,4.67,2.5,1.8.22,3.63-.14,5.34-.78,3-1.11,5.85-3.34,6.54-6.47.15-.67.19-1.36.18-2.05-.01-.79-.11-1.59-.43-2.32-.53-1.21-1.64-2.07-2.72-2.83-1.31-.92-2.69-1.81-4.26-2.12-2.01-.4-2.87.5-4.43,1.35s-3.13,1.05-4.34,2.51Z"/>
        <path class="cls-11" d="M58.52,105.63c.02.34.09.69.25.99.15.27.37.49.61.69,1.42,1.16,3.48,1.34,5.23.8,1.6-.5,3.03-1.55,3.97-2.94.59-.87.97-2.06.39-2.93-.29-.43-.77-.7-1.24-.91-3.56-1.63-9.56-1.04-9.2,4.31Z"/>
        <path class="cls-5" d="M15.99,49.04c-.2.2-.41.41-.5.68-.18.56.23,1.13.6,1.59,3.02,3.76,5.36,8.02,7.67,12.26,2.88-3.37,5.7-6.79,8.46-10.26.19-.24.39-.5.42-.81.05-.48-.32-.9-.66-1.25-2.75-2.85-4.83-6.04-6.81-9.45-.76-1.31-.92-.9-1.93.09-.81.79-1.62,1.59-2.42,2.38-1.62,1.59-3.23,3.17-4.85,4.76Z"/>
        <g>
          <path class="cls-20" d="M47.39,49.19c-2.19-.04-2.95,1.64-4.05,2.83-.18,1.57-.6,2.5,1.02,3.28,1.93.33,3.21-.82,4.03-1.17.11-1.06-.02-1.73-.16-2.52.31-.24.53-.69.91-.73,1.53-.18,1.26,1.26,1.17,2.77-.04.53.13,1.31.22,1.79.07.31.29.46.38.71.09.35.02.8,0,1.15-.02.31.04.69.07.93.02.16-.2.18-.2.18.07.62.31,1.73.27,2.13.13,2.7-2.66,3.54-4.69,3.52-.51-.02-1.97.02-1.62-.42-.24-.07-.95-.16-1.22-.29-.29-.15-1.02-.22-.75-.6-.46-.04-.6-.35-.86-.24-.33.13-.35-.53-.55-.78-.75-.95-1.02-1.95.46-2.75,0,.09.42.18.55.18.24,2.5,4.12,3.76,6.38,2.21.97-1.68.16-3.79-.11-5.49-.09.04-.55.89-.69.22-1.35.86-4.49,1.68-6-.13-.62-.75-.97-2.77-.53-4.16.44-1.31,1.88-3.06,3.48-3.65.53-.22,2.08-.64,2.54-.77.44.11.69.42,1.17.46.49,1.04,1.71.84.2,1.88-.66-.4-.77.09-1.42-.53Z"/>
          <path class="cls-20" d="M62.2,49.79c.27.07.18.07.44,0,.35.49.8.89,1.13,1.42,1,2.52-.29,4.74-1.48,6.29-.15.02-.15-.07-.18-.18-.33.82-1.15,1.17-1.66,1.84-.51-.07-.71.16-.77.53-.77.2-1.79.44-2.37.16-.09.07-.09.22-.27.18.13-.31-.29-.04-.27-.27-1.08.02-1.75-.42-2.35-1.31-1.73-.55-1.99-2.99-1.66-5.34.44.04.07-.58.51-.78.4-1.46,1.5-2.92,2.99-3.59.29-.31.62-.64,1.13-.71.24-.09.53-.29,1-.2,1.26-.16,2.28.33,3.03,1.26.49,0,.78.2.78.69ZM56.11,51.31c-.82,1.73-2.19,3.03-1,5.82.55.91,1.53.71,2.81.62.04-.24.55-.27.6-.51.93.16,1.37-.88,2.17-1.15.18-.75.71-1.13,1.22-1.57.22-1.04.42-1.48.24-2.75-.42-.24-.8-1-1.46-.97.04-.29.04-.18,0-.44-1.06-.2-1.66.04-2.57-.51-.75.35-1.22,1.17-2.01,1.46Z"/>
          <path class="cls-20" d="M71.18,48.55c-.62,1.08-2.13,1.17-3.21,1.64-.31,2.08-.33,4.76-.22,7.22,0,.16.73.33.71.53.91-.44,1.48-.2,2.21.11-.15,1.37-1.73,1.68-2.88,1.82-.22-.35-.55-.38-.82-.33-1.99-1.88-.58-6.27-.91-8.79-.31-.18-.82.22-1.15.27-.62-.29-.89-.91-1.15-1.55.44-.4,1.13-.66,1.82-.66.55-.2.38-.86.49-1.73.13-.95.49-1.5.58-2.48.53.02.95.13,1.48.33.55.8-.11,2.19-.09,2.97,1.15-.53,2.5-.71,3.14.66Z"/>
          <path class="cls-20" d="M80.17,49.99c.62,2.75-.62,6.2-.09,8.66-.18.64-.6,1.06-1.15,1.35-.29.11-.62-.09-.38-.53-.42.13-.33,0-.51-.2-.44-.46-.46-.55-.15-1.55.09-.27-.31-.47-.31-.78.04-.95.36-2.08.46-2.94.07-.8,0-1.79.09-2.68.04-.53.53-.69.18-1.42.6-.69,1.2-.18,1.86.09ZM77.84,44.14c-.18.95.27,1.75.73,2.32,1.57.2,2.08-1.13,1.84-2.24-.46-.11-.18-.66-.6-.71-.51.13-.69-.04-1.06-.27-.15.44-.44.75-.91.89Z"/>
          <path class="cls-20" d="M88.4,48.55c-.62,1.08-2.13,1.17-3.21,1.64-.31,2.08-.33,4.76-.22,7.22,0,.16.73.33.71.53.91-.44,1.48-.2,2.21.11-.15,1.37-1.73,1.68-2.88,1.82-.22-.35-.55-.38-.82-.33-1.99-1.88-.58-6.27-.91-8.79-.31-.18-.82.22-1.15.27-.62-.29-.89-.91-1.15-1.55.44-.4,1.13-.66,1.82-.66.55-.2.38-.86.49-1.73.13-.95.49-1.5.58-2.48.53.02.95.13,1.48.33.55.8-.11,2.19-.09,2.97,1.15-.53,2.5-.71,3.14.66Z"/>
          <path class="cls-20" d="M92.08,53.88c-.22.29-.2.42-.24.86-.31.22-.73.27-.73.4-.18-.29-.22-.27-.58-.31-.18-.31-.31-.62-.58-.8.22-1.57-.07-3.39,0-4.45v-.04c-.04-.29-.09-.66-.04-.89,0-.04-.6-.66-.04-1-.02-.09-.33-.16-.42-.16.09-.27.16-.71-.07-1.02.13-.02.18.04.27.04v-.2c-.29-.24-.49-.58-.16-.86,0-.18-.11-.42-.29-.38.07-.16.18-.09.2-.24-.33-.6-.46-.69-.04-1.13-.09-.04-.18-.29-.13-.35.07-.09.07-.31.16-.4.13.04.27.09.42.16.04-.02.09-.07.13-.09.09.09.18.18.27.27.31.16,1.04.02,1.24.11,1.24,3.05.31,5.49.4,8.06.02.78-.18,1.71.24,2.41ZM92.56,57.93c-.4-.75-.93-1.37-1.88-1.13.09.29-.47.22-.49.13-.09.31-.13.38.09.55-.24.02-.27.27-.42.4.15,1.04.4,2.41,1.88,2.17.58-.55.84-1.2.82-2.13Z"/>
        </g>
      </g>
      <g>
        <g class="cls-21">
          <path class="cls-12" d="M85.91,131.86c-5.31-1.52-8.95-6.8-8.5-11.93.45-5.13,4.74-9.7,10.08-11.12,5.34-1.42,11.41.23,15.33,3.88,3.03,2.83,4.83,6.91,4.22,10.85-.61,3.95-3.86,7.57-8.07,8.36,4.06,1.44,6.36,5.36,8.02,9.08,4.3,9.67,6.57,20.11,6.65,30.57,0,.62-.01,1.27-.37,1.8-.49.71-1.46.96-2.34,1.15-11.66,2.41-23.92,2.28-35.52-.38-1.27-.29-2.65-.68-3.36-1.7-.5-.7-.58-1.58-.64-2.41-.92-14.23,2.98-27.69,12.23-39.07"/>
        </g>
        <g class="cls-17">
          <path class="cls-15" d="M195.72,131.86c-5.31-1.52-8.95-6.8-8.5-11.93.45-5.13,4.74-9.7,10.08-11.12,5.34-1.42,11.41.23,15.33,3.88,3.03,2.83,4.83,6.91,4.22,10.85-.61,3.95-3.86,7.57-8.07,8.36,4.06,1.44,6.36,5.36,8.02,9.08,4.3,9.67,6.57,20.11,6.65,30.57,0,.62-.01,1.27-.37,1.8-.49.71-1.46.96-2.34,1.15-11.66,2.41-23.92,2.28-35.52-.38-1.27-.29-2.65-.68-3.36-1.7-.5-.7-.58-1.58-.64-2.41-.92-14.23,2.98-27.69,12.23-39.07"/>
        </g>
        <g class="cls-22">
          <path class="cls-13" d="M142.49,130.86c-5.31-1.52-8.95-6.8-8.5-11.93.45-5.13,4.74-9.7,10.08-11.12,5.34-1.42,11.41.23,15.33,3.88,3.03,2.83,4.83,6.91,4.22,10.85-.61,3.95-3.86,7.57-8.07,8.36,4.06,1.44,6.36,5.36,8.02,9.08,4.3,9.67,6.57,20.11,6.65,30.57,0,.62-.01,1.27-.37,1.8-.49.71-1.46.96-2.34,1.15-11.66,2.41-23.92,2.28-35.52-.38-1.27-.29-2.65-.68-3.36-1.7-.5-.7-.58-1.58-.64-2.41-.92-14.23,2.98-27.69,12.23-39.07"/>
        </g>
      </g>
    </g>
  </g>
</svg>