<?xml version="1.0" encoding="UTF-8"?>
<svg id="Layer_2" data-name="Layer 2" xmlns="http://www.w3.org/2000/svg" xmlns:xlink="http://www.w3.org/1999/xlink" viewBox="0 0 254.17 201.36">
  <defs>
    <style>
      .cls-1 {
        fill: #ffd8a9;
        stroke: #e87707;
      }

      .cls-1, .cls-2, .cls-3, .cls-4, .cls-5 {
        stroke-linecap: round;
        stroke-linejoin: round;
      }

      .cls-6 {
        fill: #c6401c;
      }

      .cls-7 {
        filter: url(#drop-shadow-1);
        stroke-miterlimit: 10;
        stroke-width: 2px;
      }

      .cls-7, .cls-4 {
        fill: #fff;
        stroke: #949494;
      }

      .cls-8 {
        fill: #823eed;
      }

      .cls-9 {
        mask: url(#mask);
      }

      .cls-2 {
        fill: #f8e7b8;
        stroke: #b38c3e;
        stroke-width: 3px;
      }

      .cls-3 {
        fill: #ccdeff;
        stroke: #2265fc;
      }

      .cls-10 {
        fill: #e0e0e0;
      }

      .cls-11 {
        fill: #e2481e;
      }

      .cls-5 {
        fill: none;
        stroke: #b3b3b3;
      }

      .cls-12 {
        filter: url(#luminosity-invert);
      }

      .cls-13 {
        fill: url(#linear-gradient);
      }
    </style>
    <filter id="drop-shadow-1" x="0" y="0" width="254.17" height="70.48" filterUnits="userSpaceOnUse">
      <feOffset dx="0" dy="2"/>
      <feGaussianBlur result="blur" stdDeviation="0"/>
      <feFlood flood-color="#000" flood-opacity=".22"/>
      <feComposite in2="blur" operator="in"/>
      <feComposite in="SourceGraphic"/>
    </filter>
    <filter id="luminosity-invert" x="8.3" y="80.92" width="83.14" height="121.87" color-interpolation-filters="sRGB" filterUnits="userSpaceOnUse">
      <feColorMatrix result="cm" values="-1 0 0 0 1 0 -1 0 0 1 0 0 -1 0 1 0 0 0 1 0"/>
    </filter>
    <linearGradient id="linear-gradient" x1="-220.11" y1="6806.73" x2="-221.35" y2="6806.73" gradientTransform="translate(643618.86 -20728.27) rotate(-90) scale(94.55 -94.55)" gradientUnits="userSpaceOnUse">
      <stop offset="0" stop-color="#000"/>
      <stop offset=".82" stop-color="#000"/>
      <stop offset=".96" stop-color="#fff" stop-opacity="0"/>
    </linearGradient>
    <mask id="mask" x="8.3" y="80.92" width="83.14" height="121.87" maskUnits="userSpaceOnUse">
      <g class="cls-12">
        <rect class="cls-13" x="8.3" y="80.92" width="83.14" height="121.87"/>
      </g>
    </mask>
  </defs>
  <g id="Layer_1-2" data-name="Layer 1">
    <g>
      <path class="cls-4" d="M95.53,132.29c-2.12-1.02-5.85-1.07-8.1-.09-2.25.98-4.04,2.76-5.78,4.5-4.98,4.98-12.35,12.36-17.33,17.35-.98.99-2.02,2.07-2.24,3.44-.43,2.73,2.4,4.73,4.85,6.02,15.03,7.89,54.75,25.52,59.08,24.29,2.46-.7,4.49-2.41,6.37-4.13,6.04-5.53,12.69-11.72,17.42-18.41,1.75-2.47,3.47-5.25,3.31-8.27-.15-3.03-3-4.29-6.17-5.64"/>
      <path class="cls-7" d="M6.38,2.62c3.76-.37,7.52-.73,11.28-1.1,3.17-.31,40.49-.31,55.44-.5s170.16.79,173.76,1.35c6,.92,5.47,9,5.9,15.15.61,8.63.37,24.73.37,29.63,0,2.41.23,5.05-.73,7.21-1.43,3.25-3.81,3.14-6.35,3.19-3.99.08-9.93.04-13.12.1-13.44.24-157.36-.55-159.43-.55-1.47,0-6.59.21-8.03.63-1.86.54-3.45.66-5.16,1.78-2.58,1.7-4.97,4.93-7.24,7.35-2.82,3.01-8.06-5.99-9.97-7.94-1.1-1.13-34.01-.56-35.47-.57-2.57-.02-5.04-.81-6.15-4.31-.71-2.21-.42-5.08-.42-7.42,0-2.98,0-19.16,0-24.19,0-4.17.09-8.27.03-12.43-.06-3.96,2.2-7.39,5.29-7.39Z"/>
      <g>
        <path class="cls-8" d="M21.44,13.17c.79-.5,1.55.38,1.96.9-.02.43-.54.34-.72.59-1.62-.36-3.08-.47-4.9-.49-.34.18.25.95-.09,1.17.16,1.98,0,3.19.29,5.22.05.22-.29.22-.25.38.2,1.62.04,2.92.32,4.43-.18.18-.13.2-.27.4-1.69.4-1.85-1.51-1.94-3.03-.05-.86-.13-1.8-.07-2.61.04-.56.23-.94,0-1.4.23-1.44.07-2.77.27-4.29-1.26-.43-2.59.18-4.21.2-.16-.05-.43-.38-.67-.36-.27-.9.25-.85.27-1.28.95.18.83-.36,1.44-.05,1.33-1.15,2.36.72,3.24-.61.45.13.99-.09,1.13.36.4.02.36-.11.59.14.41-.11.81-.34,1.08.13.27-.4,1.21.13,1.53-.13.2.29.5.4.68,0,.05.11.38-.05.31.32Z"/>
        <path class="cls-8" d="M24.48,13.09c.02.2-.05.31-.05.49,0,.27.25.54.27.67.11.36-.2.4-.05,1.1.4,1.73.27,3.26.4,4.41.18-.47.34-.97,1.26-1.91.18-.18.56-.29.61-.61.32,0,.99-.29,1.64-.13.2.27.88.2,1.13.45.11.11.13.43.27.61.13.14.65.97.72,1.21.04.13-.11.22-.07.34.05.13.22.2.27.32.34.86.22,2.86.43,3.69.18.72.67,2.12-.81,2.09-.99-1.03-.59-3.42-.9-5.26-.32-.7-.45-2-2.03-1.8-.59.22-1.22,1.3-1.6,1.94-.14.23-.05.81-.32.83-.11.45-.16.92-.2,1.24-.09.94-.05,1.48,0,2.49-.22.23-.47.45-.76.63-.99-.4-.72-2-.67-2.88-.07.14-.16.04-.16-.05-.11-1.57-.07-3.19-.31-4.5.2-.22-.04-.4-.04-.36.38-.49-.13-.61-.11-.9.29-1.82-.34-3.03.02-4.97.92-.47.77.31,1.06.86Z"/>
        <path class="cls-8" d="M35.13,17.79c.5,2.23-.5,5.04-.07,7.04-.14.52-.49.86-.94,1.1-.23.09-.5-.07-.31-.43-.34.11-.27,0-.41-.16-.36-.38-.38-.45-.13-1.26.07-.22-.25-.38-.25-.63.04-.77.29-1.69.38-2.4.05-.65,0-1.46.07-2.18.04-.43.43-.56.14-1.15.49-.56.97-.14,1.51.07ZM33.24,13.04c-.14.77.22,1.42.59,1.89,1.28.16,1.69-.92,1.49-1.82-.38-.09-.14-.54-.49-.58-.41.11-.56-.04-.86-.22-.13.36-.36.61-.74.72Z"/>
        <path class="cls-8" d="M43.27,18.73c0-.09-.14-.34-.14-.43-1.44-1.3-3.94-.99-5.02.43,1.1,1.57,2.25.95,3.94,1.44-.05.2.34.29.34.43,1.04.07,2.18.76,2.77,1.73.2,2.56-1.66,3.46-4.02,3.46-.83-.05-2.68-.02-3.47-.86-.29.05-.38-.13-.54-.22.07-.43-.22-.63-.2-.79.36-.47.25-1.17.86-1.15.14.04.14.11.07.22.34-.18.47-.05.79.07-.07.23-.23.67-.4.58.49.9,1.85.47,2.88.74.05-.05.11-.14.13-.22.79.07,1.37-.32,1.91-.76,0-.2.13-.5-.13-.47-.09-.11.13-.25.13-.23.02,0-.4-.63-.59-.7-.04-.02-.16.13-.27.07-.2-.11-.2-.16-.56-.31-.49-.2-1.1-.41-1.58-.56-.5-.14-1.06.13-1.53.05-.04,0-.13-.2-.2-.22-.45-.14-.54-.47-.81-.86-.16-.04-.14.13-.34.07-.41-.47-.92-2.04.13-2.34-.05-.22.07-.25.07-.43.49-.13.4-.13.52-.67.31-.13.18,0,.29-.18.2.11.72.09.76-.31.25.25.94-.65,1.17.11.25-.05,0-.25.14-.36.29.11.41.18.67,0,.04.34.09.11.27.07.11.14-.02.09,0,.29.25.07.13-.23.27-.29.41.13.68.2.88.59.11-.02.07-.18.07-.29.77.27.92.56,1.62,1.06.11.7-.34,1.04-.88,1.22Z"/>
        <path class="cls-8" d="M54.12,17.9c-.41.81-1.03,1.55-1.44,2.14-.25,1.35-.14,2.56.5,3.8.36.29,1.62.58,2.2.7,1.33-.4,1.96-.72,2.56-1.91.41.23.49-.13.5-.22.85.13,1.53.54,1.21,1.42-1.39,1.17-2.83,2-5.02,2.14-.34-.22-1.04-.13-1.44-.29-1.53-.94-2.27-2.84-2.2-4.83.05-.99.61-1.51.61-2.27.68-.27.81-1.3,1.22-1.71-.09.09.68-.31.76-.32.09-.05.32.14.47-.23.49.11.25-.25.4-.34.49-.09,1.35-.23,1.73-.29,1.39.68,2.11,1.85,2.29,3.33-.18.23-.4.41-.76.5-.85-.52-.76-2.34-1.69-2.36-.47.16-1.37.61-1.89.72Z"/>
        <path class="cls-8" d="M67.54,17.63c.22.05.14.05.36,0,.29.4.65.72.92,1.15.81,2.05-.23,3.85-1.21,5.11-.13.02-.13-.05-.14-.14-.27.67-.94.95-1.35,1.49-.41-.05-.58.13-.63.43-.63.16-1.46.36-1.93.13-.07.05-.07.18-.22.14.11-.25-.23-.04-.22-.22-.88.02-1.42-.34-1.91-1.06-1.4-.45-1.62-2.43-1.35-4.34.36.04.05-.47.41-.63.32-1.19,1.22-2.38,2.43-2.92.23-.25.5-.52.92-.58.2-.07.43-.23.81-.16,1.03-.13,1.85.27,2.47,1.03.4,0,.63.16.63.56ZM62.58,18.87c-.67,1.41-1.78,2.47-.81,4.74.45.74,1.24.58,2.29.5.04-.2.45-.22.49-.41.76.13,1.12-.72,1.76-.94.14-.61.58-.92.99-1.28.18-.85.34-1.21.2-2.23-.34-.2-.65-.81-1.19-.79.04-.23.04-.14,0-.36-.86-.16-1.35.04-2.09-.41-.61.29-.99.95-1.64,1.19Z"/>
        <path class="cls-8" d="M83.47,22.26c-.4.83.4,1.58-.2,2.41,0,.09.18.16.27.18-.16.2-.38.32-.45.65-1.12.14-2.02-1.04-1.62-1.69-.41-1.71.41-3.53-.74-5.44-.31-.99-.7.49-.9.59.04.07.16.09.14.23-.77.97-.81,2.43-1.55,3.42.09,1.04-.09,1.26-.29,2.56-.79.27-1.15-.38-1.44-.88-.04-2.5.05-4.18-.68-6.64-.5-.04-.88.07-.81.65-.25.07-.27.31-.52.16-.04.2-.16.34,0,.49-.34.4-.45,1.03-.83,1.37.13.76-.49,1.21-.67,1.87-.29,1.03-.2,2.68-.9,3.47-.14.04-.32-.25-.29.07-.41-.22-.79-.5-1.12-.81-.16-2.56-.54-5.29-.68-8.32,1.62-1.06,1.51,1.84,1.8,3.31.2,1.1.94-1.66.95-1.69.43-.83,1.1-.97,1.35-1.78.49-.54,1.3-.07,1.71-.32.49.38,1.01.43,1.26.97.11.2.04.5.16.72,0,.02.18,0,.22.09.11.2.07.52.14.72.09.18.14.45.13,1.06.47-1.71,1.22-2.81,1.82-3.73.32.04.86-.18,1.26-.09.27.07.29.4.52.25.31.59.97,1.08.76,1.85.07.02.31-.05.32-.13.4,1.1.36,1.71.34,2.79.02.13.13.02.14-.07.45.29-.18.68.23.77.07.52-.29.52-.29.45.05.14.22.22.43.47Z"/>
        <path class="cls-8" d="M93.62,20.73c-.43.2-.74,1.8-.88,2.12-.22-.04-.22.11-.45.16-1.01.79-1.42,1.21-2.99,1.44-.45-.07-1.26-1.21-1.71-1.06.09.7.2,2.56.41,3.8.13.7.43,1.84-.43,2-.38.09-.47.16-.74.02-.02-.04-.02-.07-.04-.11.09-.05.16-.13.11-.23-.05-.13-.18-.2-.25-.31-.23-.99-.29-2.95-.4-4.07-.14-1.37-.47-2.52-.61-4.21-.07-.79-.41-1.67-.47-2.75.36-.22,1.08-.2,1.28.31.23-.58.63-1.91,1.62-1.85-.09-.11,0-.29.09-.4.41.13.99-.38,1.57-.29.27.04.36.29.59.36.34.14,1.31.45,1.28.45.11-.05.54.2.74.31.77,1.57,1.37,1.76,1.28,4.32ZM92.2,19.54c-.09-1.13-.09-.86-.49-1.71-.18-.02-.38-.23-.52-.11-.07-.09-.22-.43-.29-.54-.29-.07-.47.2-.52-.07-.02-.09.11-.23-.18-.36-.16.14-.32.11-.52-.13-.22.11-.25-.04-.59,0-1.4.74-1.66,1.26-1.82,2.66-.07.74-.14.77.13,1.55.07.18.32.74.05.86.74.52,1.17.63,1.94.99.97-.25,1.35-.65,1.94-1.08.76.02.67-1.04.85-1.31-.11-.14-.11-.47.02-.76Z"/>
        <path class="cls-8" d="M97.77,16.39c.18.07.45-.22.59.16-.02-.32.25-.07.27-.32.27,0,.49.04.61.16.59-.4,2.07.13,2.14.97.94.09.85.47,1.48.85-.05,1.75-.38,3.4-.07,5.19.09-.13.14-.23.23-.36.22-.04.05.43.22.45.36.07.31-.49.31-.79.16.09.23.14.22.4.09-.14.14.02.22-.27.25-.23.14.09.16.27.22.02.23.56.34.97-.79.77-.43,1.75-1.73,1.98-.45-.54-.59-.79-1.1-1.26-.31-.56-.07-1.35-.4-2.05-.09.41-.43,1.21-.59.9-.92,1.55-2.3,2.77-4.29,1.91-.63-.97-1.31-1.84-1.69-3.08.14-.92.09-1.64.14-2.59.16.04.2-.05.31-.09-.05-.16.09-.52-.07-.56.22-.23.27-.05.63-.11-.02-.13-.27-.11-.29-.38-.09-.25.29-.14.43-.16-.49-.77.41-.31.38-1.21.22.14.34-.02.31-.16.11-.25.45.07.47-.41.18.29.72-.04.77-.4ZM99.79,22.33c.16-.7.74-1.44,1.21-1.93.11-.77.16-1.21.23-2.02-.47.02-.76-.54-1.19-.63-.13-.02-.27-.14-.47-.13-.77.02-.74.09-1.33.61.02-.02-.09-.13-.16-.09-.38.22-.86.77-.83,1.33-.74.38-.77,1.82-.7,2.41-.11,0-.14.22-.25.22.16.52-.09,1.13.25,1.5.25-.2.72.77,1.03.77.79-.58,1.26-.54,2.21-2.05Z"/>
        <path class="cls-8" d="M106.97,25.73c-.77-.18-1.22-.76-1.03-1.33-.11-.27-.34-.68-.16-.9-.25-1.22-.63-3.44-1.12-4.59.07-.34.02-.4-.14-.79.27.09.5-.97,1.49-.77.2.05.47,1.66.49,1.69.4-.07.74-1.13.86-1.49.76-.02,1.1-.97,1.71-.67.86-.45,1.12-.29,1.85.16.34.29.25.83.34,1.04-.2,0-.29.09-.47.27-1.15-.31-2.72.38-3.42,3.02-.12.41.05.76.2.94-.02.07-.11.43-.11.4-.02.67.54,1.48.18,2.63-.22.13-.47.25-.68.4Z"/>
        <path class="cls-8" d="M113.15,17.79c.5,2.23-.5,5.04-.07,7.04-.14.52-.49.86-.94,1.1-.23.09-.5-.07-.31-.43-.34.11-.27,0-.42-.16-.36-.38-.38-.45-.12-1.26.07-.22-.25-.38-.25-.63.04-.77.29-1.69.38-2.4.05-.65,0-1.46.07-2.18.04-.43.43-.56.14-1.15.49-.56.97-.14,1.51.07ZM111.26,13.04c-.14.77.22,1.42.59,1.89,1.28.16,1.69-.92,1.49-1.82-.38-.09-.14-.54-.49-.58-.41.11-.56-.04-.87-.22-.12.36-.36.61-.74.72Z"/>
        <path class="cls-8" d="M121.28,18.73c0-.09-.14-.34-.14-.43-1.44-1.3-3.94-.99-5.02.43,1.1,1.57,2.25.95,3.94,1.44-.05.2.34.29.34.43,1.04.07,2.18.76,2.77,1.73.2,2.56-1.66,3.46-4.02,3.46-.83-.05-2.68-.02-3.47-.86-.29.05-.38-.13-.54-.22.07-.43-.22-.63-.2-.79.36-.47.25-1.17.86-1.15.14.04.14.11.07.22.34-.18.47-.05.79.07-.07.23-.23.67-.4.58.49.9,1.85.47,2.88.74.05-.05.11-.14.13-.22.79.07,1.37-.32,1.91-.76,0-.2.13-.5-.13-.47-.09-.11.13-.25.13-.23.02,0-.4-.63-.59-.7-.04-.02-.16.13-.27.07-.2-.11-.2-.16-.56-.31-.49-.2-1.1-.41-1.58-.56-.5-.14-1.06.13-1.53.05-.04,0-.13-.2-.2-.22-.45-.14-.54-.47-.81-.86-.16-.04-.14.13-.34.07-.41-.47-.92-2.04.13-2.34-.05-.22.07-.25.07-.43.49-.13.4-.13.52-.67.31-.13.18,0,.29-.18.2.11.72.09.76-.31.25.25.94-.65,1.17.11.25-.05,0-.25.14-.36.29.11.41.18.67,0,.04.34.09.11.27.07.11.14-.02.09,0,.29.25.07.13-.23.27-.29.41.13.68.2.88.59.11-.02.07-.18.07-.29.77.27.92.56,1.62,1.06.11.7-.34,1.04-.88,1.22Z"/>
        <path class="cls-8" d="M131.54,17.63c.22.05.14.05.36,0,.29.4.65.72.92,1.15.81,2.05-.23,3.85-1.21,5.11-.13.02-.13-.05-.14-.14-.27.67-.94.95-1.35,1.49-.41-.05-.58.13-.63.43-.63.16-1.46.36-1.93.13-.07.05-.07.18-.22.14.11-.25-.23-.04-.22-.22-.88.02-1.42-.34-1.91-1.06-1.4-.45-1.62-2.43-1.35-4.34.36.04.05-.47.41-.63.32-1.19,1.22-2.38,2.43-2.92.23-.25.5-.52.92-.58.2-.07.43-.23.81-.16,1.03-.13,1.85.27,2.47,1.03.4,0,.63.16.63.56ZM126.59,18.87c-.67,1.41-1.78,2.47-.81,4.74.45.74,1.24.58,2.29.5.04-.2.45-.22.49-.41.76.13,1.12-.72,1.76-.94.14-.61.58-.92.99-1.28.18-.85.34-1.21.2-2.23-.34-.2-.65-.81-1.19-.79.04-.23.04-.14,0-.36-.86-.16-1.35.04-2.09-.41-.61.29-.99.95-1.64,1.19Z"/>
        <path class="cls-8" d="M141.91,25.52c-.25.11-.47-.49-.81-.52.04-1.66.13-3.75-.43-5.28-.38-1.03-1.6-2.97-2.56-1.57-.27.43-.5,1.37-.76,1.89-.31.63-.56,1.3-.77,1.96,0,.02-.18.04-.2.07-.5,1.33-.14,2.59-.61,3.75-.7.43-1.22-.29-1.48-.83-.07-2.86-.13-5.26-.27-8.64.29.11.23-.18.4-.22.43.2.68.13.94.52-.16,1.15.07,2.09.27,3.67.02-.14.18-.76.34-.68.11-.34.04-1.49.54-1.64.04-.83.63-1.01.86-1.6.52-.14.92-.45,1.55-.47.7.32,1.76.47,2.27,1.01,1.06,2.59,2.03,5.73,1.24,8.5-.23.16-.59-.07-.52.07Z"/>
        <path class="cls-8" d="M151.16,17.79c.5,2.23-.5,5.04-.07,7.04-.14.52-.49.86-.94,1.1-.23.09-.5-.07-.31-.43-.34.11-.27,0-.41-.16-.36-.38-.38-.45-.13-1.26.07-.22-.25-.38-.25-.63.04-.77.29-1.69.38-2.4.05-.65,0-1.46.07-2.18.04-.43.43-.56.14-1.15.49-.56.97-.14,1.51.07ZM149.27,13.04c-.14.77.22,1.42.59,1.89,1.28.16,1.69-.92,1.5-1.82-.38-.09-.14-.54-.49-.58-.41.11-.56-.04-.86-.22-.13.36-.36.61-.74.72Z"/>
        <path class="cls-8" d="M159.3,18.73c0-.09-.14-.34-.14-.43-1.44-1.3-3.94-.99-5.02.43,1.1,1.57,2.25.95,3.94,1.44-.05.2.34.29.34.43,1.04.07,2.18.76,2.77,1.73.2,2.56-1.66,3.46-4.02,3.46-.83-.05-2.68-.02-3.47-.86-.29.05-.38-.13-.54-.22.07-.43-.22-.63-.2-.79.36-.47.25-1.17.86-1.15.14.04.14.11.07.22.34-.18.47-.05.79.07-.07.23-.23.67-.4.58.49.9,1.85.47,2.88.74.05-.05.11-.14.13-.22.79.07,1.37-.32,1.91-.76,0-.2.13-.5-.13-.47-.09-.11.13-.25.13-.23.02,0-.4-.63-.59-.7-.04-.02-.16.13-.27.07-.2-.11-.2-.16-.56-.31-.49-.2-1.1-.41-1.58-.56-.5-.14-1.06.13-1.53.05-.04,0-.12-.2-.2-.22-.45-.14-.54-.47-.81-.86-.16-.04-.14.13-.34.07-.41-.47-.92-2.04.13-2.34-.05-.22.07-.25.07-.43.49-.13.4-.13.52-.67.31-.13.18,0,.29-.18.2.11.72.09.76-.31.25.25.94-.65,1.17.11.25-.05,0-.25.14-.36.29.11.41.18.67,0,.04.34.09.11.27.07.11.14-.02.09,0,.29.25.07.13-.23.27-.29.41.13.68.2.88.59.11-.02.07-.18.07-.29.77.27.92.56,1.62,1.06.11.7-.34,1.04-.88,1.22Z"/>
        <path class="cls-8" d="M176.63,24c-1.73,1.13-3.55,1.85-6.16,1.94-1.3-.36-2.5-1.12-2.57-2.66-.04-.07-.11-.11-.2-.16.2-1.28-.72-.86-1.49-1.3,0-.63.29-.95.49-1.33.47.13.56-.14.96.2.16,0,.14-.25.32-.23.14-1.31,1.28-2.18,1.89-3.21.34-.22.9-.22,1.01-.74.09.05.14.11.14.25.16-.43.88-.36,1.01-.59.85.22,1.49-.2,2.45.29.23.67.68.43.79,1.12.18,1.26-.83,2.07-1.5,2.81-.34.07-.52-.09-.61.31-.72.07-1.06,1.08-1.67.94-.07.14-.18.23-.22.41-.23-.23-.29-.02-.54-.23-.36.65-1.71.16-1.75,1.03.02-.11.13.43.13.45.4.79,1.58,1.04,2.77.9.54-.05,1.13-.42,1.75-.63.4-.13.86-.16,1.17-.25.09-.04.27-.36.36-.38.11-.04.27.16.36.13.54-.11.36-.59.7-.7.31.52.34.95.41,1.66ZM169.41,20.69c1.19-.02,1.42-.67,2.4-.79.23-.43.81-.74,1.13-.67.23-.58,1.19-.68,1.17-1.51-2.07-.7-3.29.7-4.41,1.98-.02.2-.36.9-.29.99Z"/>
        <path class="cls-8" d="M184.93,25.52c-.25.11-.47-.49-.81-.52.04-1.66.13-3.75-.43-5.28-.38-1.03-1.6-2.97-2.56-1.57-.27.43-.5,1.37-.76,1.89-.31.63-.56,1.3-.77,1.96,0,.02-.18.04-.2.07-.5,1.33-.14,2.59-.61,3.75-.7.43-1.22-.29-1.48-.83-.07-2.86-.13-5.26-.27-8.64.29.11.23-.18.4-.22.43.2.68.13.94.52-.16,1.15.07,2.09.27,3.67.02-.14.18-.76.34-.68.11-.34.04-1.49.54-1.64.04-.83.63-1.01.86-1.6.52-.14.92-.45,1.55-.47.7.32,1.76.47,2.27,1.01,1.06,2.59,2.03,5.73,1.24,8.5-.23.16-.59-.07-.52.07Z"/>
        <path class="cls-8" d="M192.54,17.14c-1.78-.04-2.4,1.33-3.3,2.3-.14,1.28-.49,2.04.83,2.67,1.57.27,2.61-.67,3.28-.95.09-.86-.02-1.4-.13-2.05.25-.2.43-.56.74-.59,1.24-.14,1.03,1.03.95,2.25-.04.43.11,1.06.18,1.46.05.25.23.38.31.58.07.29.02.65,0,.94-.02.25.04.56.05.76.02.13-.16.14-.16.14.05.5.25,1.41.22,1.73.11,2.2-2.16,2.88-3.82,2.86-.41-.02-1.6.02-1.31-.34-.2-.05-.77-.13-.99-.23-.23-.13-.83-.18-.61-.49-.38-.04-.49-.29-.7-.2-.27.11-.29-.43-.45-.63-.61-.77-.83-1.58.38-2.23,0,.07.34.14.45.14.2,2.04,3.35,3.06,5.19,1.8.79-1.37.13-3.08-.09-4.46-.07.04-.45.72-.56.18-1.1.7-3.66,1.37-4.88-.11-.5-.61-.79-2.25-.43-3.38.36-1.06,1.53-2.48,2.83-2.97.43-.18,1.69-.52,2.07-.63.36.09.56.34.95.38.4.85,1.39.68.16,1.53-.54-.32-.63.07-1.15-.43Z"/>
        <path class="cls-8" d="M199.82,16.39c.18.07.45-.22.59.16-.02-.32.25-.07.27-.32.27,0,.49.04.61.16.59-.4,2.07.13,2.14.97.94.09.85.47,1.48.85-.05,1.75-.38,3.4-.07,5.19.09-.13.14-.23.23-.36.22-.04.05.43.22.45.36.07.31-.49.31-.79.16.09.23.14.22.4.09-.14.14.02.22-.27.25-.23.14.09.16.27.22.02.23.56.34.97-.79.77-.43,1.75-1.73,1.98-.45-.54-.59-.79-1.1-1.26-.31-.56-.07-1.35-.4-2.05-.09.41-.43,1.21-.59.9-.92,1.55-2.3,2.77-4.29,1.91-.63-.97-1.31-1.84-1.69-3.08.14-.92.09-1.64.14-2.59.16.04.2-.05.31-.09-.05-.16.09-.52-.07-.56.22-.23.27-.05.63-.11-.02-.13-.27-.11-.29-.38-.09-.25.29-.14.43-.16-.49-.77.41-.31.38-1.21.22.14.34-.02.31-.16.11-.25.45.07.47-.41.18.29.72-.04.77-.4ZM201.83,22.33c.16-.7.74-1.44,1.21-1.93.11-.77.16-1.21.23-2.02-.47.02-.76-.54-1.19-.63-.13-.02-.27-.14-.47-.13-.77.02-.74.09-1.33.61.02-.02-.09-.13-.16-.09-.38.22-.86.77-.83,1.33-.74.38-.77,1.82-.7,2.41-.11,0-.14.22-.25.22.16.52-.09,1.13.25,1.5.25-.2.72.77,1.03.77.79-.58,1.26-.54,2.21-2.05Z"/>
        <path class="cls-8" d="M212.56,17.14c-1.78-.04-2.39,1.33-3.29,2.3-.14,1.28-.49,2.04.83,2.67,1.57.27,2.61-.67,3.28-.95.09-.86-.02-1.4-.13-2.05.25-.2.43-.56.74-.59,1.24-.14,1.03,1.03.95,2.25-.04.43.11,1.06.18,1.46.05.25.23.38.31.58.07.29.02.65,0,.94-.02.25.04.56.05.76.02.13-.16.14-.16.14.05.5.25,1.41.22,1.73.11,2.2-2.16,2.88-3.82,2.86-.41-.02-1.6.02-1.31-.34-.2-.05-.77-.13-.99-.23-.23-.13-.83-.18-.61-.49-.38-.04-.49-.29-.7-.2-.27.11-.29-.43-.45-.63-.61-.77-.83-1.58.38-2.23,0,.07.34.14.45.14.2,2.04,3.35,3.06,5.19,1.8.79-1.37.13-3.08-.09-4.46-.07.04-.45.72-.56.18-1.1.7-3.66,1.37-4.88-.11-.5-.61-.79-2.25-.43-3.38.36-1.06,1.53-2.48,2.83-2.97.43-.18,1.69-.52,2.07-.63.36.09.56.34.95.38.4.85,1.39.68.16,1.53-.54-.32-.63.07-1.15-.43Z"/>
        <path class="cls-8" d="M219.2,17.79c.5,2.23-.5,5.04-.07,7.04-.14.52-.49.86-.94,1.1-.23.09-.5-.07-.31-.43-.34.11-.27,0-.41-.16-.36-.38-.38-.45-.13-1.26.07-.22-.25-.38-.25-.63.04-.77.29-1.69.38-2.4.05-.65,0-1.46.07-2.18.04-.43.43-.56.14-1.15.49-.56.97-.14,1.51.07ZM217.31,13.04c-.14.77.22,1.42.59,1.89,1.28.16,1.69-.92,1.49-1.82-.38-.09-.14-.54-.49-.58-.41.11-.56-.04-.86-.22-.13.36-.36.61-.74.72Z"/>
        <path class="cls-8" d="M228.96,25.52c-.25.11-.47-.49-.81-.52.04-1.66.12-3.75-.43-5.28-.38-1.03-1.6-2.97-2.56-1.57-.27.43-.5,1.37-.76,1.89-.31.63-.56,1.3-.77,1.96,0,.02-.18.04-.2.07-.5,1.33-.14,2.59-.61,3.75-.7.43-1.22-.29-1.48-.83-.07-2.86-.13-5.26-.27-8.64.29.11.23-.18.4-.22.43.2.68.13.94.52-.16,1.15.07,2.09.27,3.67.02-.14.18-.76.34-.68.11-.34.04-1.49.54-1.64.04-.83.63-1.01.86-1.6.52-.14.92-.45,1.55-.47.7.32,1.77.47,2.27,1.01,1.06,2.59,2.03,5.73,1.24,8.5-.23.16-.59-.07-.52.07Z"/>
        <path class="cls-8" d="M236.57,17.14c-1.78-.04-2.39,1.33-3.29,2.3-.14,1.28-.49,2.04.83,2.67,1.57.27,2.61-.67,3.28-.95.09-.86-.02-1.4-.13-2.05.25-.2.43-.56.74-.59,1.24-.14,1.03,1.03.95,2.25-.04.43.11,1.06.18,1.46.05.25.23.38.31.58.07.29.02.65,0,.94-.02.25.04.56.05.76.02.13-.16.14-.16.14.05.5.25,1.41.22,1.73.11,2.2-2.16,2.88-3.82,2.86-.41-.02-1.6.02-1.31-.34-.2-.05-.77-.13-.99-.23-.23-.13-.83-.18-.61-.49-.38-.04-.49-.29-.7-.2-.27.11-.29-.43-.45-.63-.61-.77-.83-1.58.38-2.23,0,.07.34.14.45.14.2,2.04,3.35,3.06,5.19,1.8.79-1.37.13-3.08-.09-4.46-.07.04-.45.72-.56.18-1.1.7-3.66,1.37-4.88-.11-.5-.61-.79-2.25-.43-3.38.36-1.06,1.53-2.48,2.83-2.97.43-.18,1.69-.52,2.07-.63.36.09.56.34.95.38.4.85,1.39.68.16,1.53-.54-.32-.63.07-1.15-.43Z"/>
        <path class="cls-8" d="M14.67,36.39c.18.07.45-.22.59.16-.02-.32.25-.07.27-.32.27,0,.49.04.61.16.59-.4,2.07.13,2.14.97.94.09.85.47,1.48.85-.05,1.75-.38,3.4-.07,5.19.09-.13.14-.23.23-.36.22-.04.05.43.22.45.36.07.31-.49.31-.79.16.09.23.14.22.4.09-.14.14.02.22-.27.25-.23.14.09.16.27.22.02.23.56.34.97-.79.77-.43,1.75-1.73,1.98-.45-.54-.59-.79-1.1-1.26-.31-.56-.07-1.35-.4-2.05-.09.41-.43,1.21-.59.9-.92,1.55-2.3,2.77-4.29,1.91-.63-.97-1.31-1.84-1.69-3.08.14-.92.09-1.64.14-2.59.16.04.2-.05.31-.09-.05-.16.09-.52-.07-.56.22-.23.27-.05.63-.11-.02-.13-.27-.11-.29-.38-.09-.25.29-.14.43-.16-.49-.77.41-.31.38-1.21.22.14.34-.02.31-.16.11-.25.45.07.47-.41.18.29.72-.04.77-.4ZM16.69,42.33c.16-.7.74-1.44,1.21-1.93.11-.77.16-1.21.23-2.02-.47.02-.76-.54-1.19-.63-.13-.02-.27-.14-.47-.13-.77.02-.74.09-1.33.61.02-.02-.09-.13-.16-.09-.38.22-.86.77-.83,1.33-.74.38-.77,1.82-.7,2.41-.11,0-.14.22-.25.22.16.52-.09,1.13.25,1.5.25-.2.72.77,1.03.77.79-.58,1.26-.54,2.21-2.05Z"/>
        <path class="cls-8" d="M29.81,45.52c-.25.11-.47-.49-.81-.52.04-1.66.13-3.75-.43-5.28-.38-1.03-1.6-2.97-2.56-1.57-.27.43-.5,1.37-.76,1.89-.31.63-.56,1.3-.77,1.96,0,.02-.18.04-.2.07-.5,1.33-.14,2.59-.61,3.75-.7.43-1.22-.29-1.48-.83-.07-2.86-.13-5.26-.27-8.64.29.11.23-.18.4-.22.43.2.68.13.94.52-.16,1.15.07,2.09.27,3.67.02-.14.18-.76.34-.68.11-.34.04-1.49.54-1.64.04-.83.63-1.01.86-1.6.52-.14.92-.45,1.55-.47.7.32,1.76.47,2.27,1.01,1.06,2.59,2.04,5.73,1.24,8.5-.23.16-.59-.07-.52.07Z"/>
        <path class="cls-8" d="M39.33,38.51c.27.67.36,1.84.27,2.63.22.79.52,1.85.45,2.7.27.36.34,1.15.05,1.48-.61.09-.88.47-1.35.2-.02-.32-.32-.47-.13-.79-.11,0-.14,0-.16-.07.09-.29.05-.38-.02-.56-.23.63-1.17.99-1.6,1.57-.07-.05-.16-.09-.27-.09-3.98,1.4-5.29-1.49-4.79-3.33.05-.14-.11-.11-.11-.22-.11-1.53,1.33-3.33,2.39-3.75-.05-.47,0-.36.11-.65.25.02.41.2.63.13,0-.13-.04-.2-.04-.32.22-.5,1.44.52,1.62-.45.41.07.9-.04,1.3.22-.07-1.04.13-.99-.14-1.6.47-1.37.02-2.07.34-3.31.16-.18.74-.05.81-.32.61.29.52.76.56,1.66.02.52.05,1.19-.14,1.33.38.95.23,2.52.22,3.57ZM33.16,42.56c.43,1.13.2,1.51,1.3,1.84.32-.09,1.04.13,1.35-.05.13-.07.76-.72.92-.29.07-.54.9-.76,1.22-1.01-.09-.54.07-1.35-.2-2,.43-.18.07-1.82-.09-2.29-.23.02-.85-.04-1.01-.09-1.82.63-3.03,1.66-3.49,3.24.31.04.04.59,0,.65Z"/>
        <path class="cls-8" d="M54.47,37.63c.22.05.14.05.36,0,.29.4.65.72.92,1.15.81,2.05-.23,3.85-1.21,5.11-.13.02-.13-.05-.14-.14-.27.67-.94.95-1.35,1.49-.41-.05-.58.13-.63.43-.63.16-1.46.36-1.93.13-.07.05-.07.18-.22.14.11-.25-.23-.04-.22-.22-.88.02-1.42-.34-1.91-1.06-1.4-.45-1.62-2.43-1.35-4.34.36.04.05-.47.41-.63.32-1.19,1.22-2.38,2.43-2.92.23-.25.5-.52.92-.58.2-.07.43-.23.81-.16,1.03-.13,1.85.27,2.47,1.03.4,0,.63.16.63.56ZM49.52,38.87c-.67,1.41-1.78,2.47-.81,4.74.45.74,1.24.58,2.29.5.04-.2.45-.22.49-.41.76.13,1.12-.72,1.76-.94.14-.61.58-.92.99-1.28.18-.85.34-1.21.2-2.23-.34-.2-.65-.81-1.19-.79.04-.23.04-.14,0-.36-.86-.16-1.35.04-2.09-.41-.61.29-.99.95-1.64,1.19Z"/>
        <path class="cls-8" d="M64.84,45.52c-.25.11-.47-.49-.81-.52.04-1.66.13-3.75-.43-5.28-.38-1.03-1.6-2.97-2.56-1.57-.27.43-.5,1.37-.76,1.89-.31.63-.56,1.3-.77,1.96,0,.02-.18.04-.2.07-.5,1.33-.14,2.59-.61,3.75-.7.43-1.22-.29-1.48-.83-.07-2.86-.13-5.26-.27-8.64.29.11.23-.18.4-.22.43.2.68.13.94.52-.16,1.15.07,2.09.27,3.67.02-.14.18-.76.34-.68.11-.34.04-1.49.54-1.64.04-.83.63-1.01.86-1.6.52-.14.92-.45,1.55-.47.7.32,1.76.47,2.27,1.01,1.06,2.59,2.03,5.73,1.24,8.5-.23.16-.59-.07-.52.07Z"/>
        <path class="cls-8" d="M70.38,39.9c.45.09,1.06.09,1.13.16.05.14.16.34.36.29-.04.32.22.45.22.63,0,.9-1.51.63-2.04.58-.47.16-2.02.23-3.42.23-.18-.5.16-1.03.11-1.39.54-.47,2.14-.29,2.9-.5.16.04.63.27.74,0Z"/>
        <path class="cls-8" d="M77.78,36.62c-.5.88-1.73.95-2.61,1.33-.25,1.69-.27,3.87-.18,5.87,0,.13.59.27.58.43.74-.36,1.21-.16,1.8.09-.13,1.12-1.4,1.37-2.34,1.48-.18-.29-.45-.31-.67-.27-1.62-1.53-.47-5.1-.74-7.15-.25-.14-.67.18-.94.22-.5-.23-.72-.74-.94-1.26.36-.32.92-.54,1.48-.54.45-.16.31-.7.4-1.41.11-.77.4-1.22.47-2.02.43.02.77.11,1.21.27.45.65-.09,1.78-.07,2.41.94-.43,2.03-.58,2.56.54Z"/>
        <path class="cls-8" d="M85.49,37.63c.22.05.14.05.36,0,.29.4.65.72.92,1.15.81,2.05-.23,3.85-1.21,5.11-.13.02-.13-.05-.14-.14-.27.67-.94.95-1.35,1.49-.41-.05-.58.13-.63.43-.63.16-1.46.36-1.93.13-.07.05-.07.18-.22.14.11-.25-.23-.04-.22-.22-.88.02-1.42-.34-1.91-1.06-1.4-.45-1.62-2.43-1.35-4.34.36.04.05-.47.41-.63.32-1.19,1.22-2.38,2.43-2.92.23-.25.5-.52.92-.58.2-.07.43-.23.81-.16,1.03-.13,1.85.27,2.47,1.03.4,0,.63.16.63.56ZM80.53,38.87c-.67,1.41-1.78,2.47-.81,4.74.45.74,1.24.58,2.29.5.04-.2.45-.22.49-.41.76.13,1.12-.72,1.76-.94.14-.61.58-.92.99-1.28.18-.85.34-1.21.2-2.23-.34-.2-.65-.81-1.19-.79.04-.23.04-.14,0-.36-.86-.16-1.35.04-2.09-.41-.61.29-.99.95-1.64,1.19Z"/>
        <path class="cls-8" d="M96.57,40.73c-.43.2-.74,1.8-.88,2.12-.22-.04-.22.11-.45.16-1.01.79-1.42,1.21-2.99,1.44-.45-.07-1.26-1.21-1.71-1.06.09.7.2,2.56.41,3.8.13.7.43,1.84-.43,2-.38.09-.47.16-.74.02-.02-.04-.02-.07-.04-.11.09-.05.16-.13.11-.23-.05-.13-.18-.2-.25-.31-.23-.99-.29-2.95-.4-4.07-.14-1.37-.47-2.52-.61-4.21-.07-.79-.41-1.67-.47-2.75.36-.22,1.08-.2,1.28.31.23-.58.63-1.91,1.62-1.85-.09-.11,0-.29.09-.4.41.13.99-.38,1.57-.29.27.04.36.29.59.36.34.14,1.31.45,1.28.45.11-.05.54.2.74.31.77,1.57,1.37,1.76,1.28,4.32ZM95.15,39.54c-.09-1.13-.09-.86-.49-1.71-.18-.02-.38-.23-.52-.11-.07-.09-.22-.43-.29-.54-.29-.07-.47.2-.52-.07-.02-.09.11-.23-.18-.36-.16.14-.32.11-.52-.13-.22.11-.25-.04-.59,0-1.4.74-1.66,1.26-1.82,2.66-.07.74-.14.77.13,1.55.07.18.32.74.05.86.74.52,1.17.63,1.94.99.97-.25,1.35-.65,1.95-1.08.76.02.67-1.04.85-1.31-.11-.14-.11-.47.02-.76Z"/>
        <path class="cls-8" d="M100.1,37.79c.5,2.23-.5,5.04-.07,7.04-.14.52-.49.86-.94,1.1-.23.09-.5-.07-.31-.43-.34.11-.27,0-.41-.16-.36-.38-.38-.45-.13-1.26.07-.22-.25-.38-.25-.63.04-.77.29-1.69.38-2.4.05-.65,0-1.46.07-2.18.04-.43.43-.56.14-1.15.49-.56.97-.14,1.51.07ZM98.21,33.04c-.14.77.22,1.42.59,1.89,1.28.16,1.69-.92,1.5-1.82-.38-.09-.14-.54-.49-.58-.41.11-.56-.04-.86-.22-.13.36-.36.61-.74.72Z"/>
        <path class="cls-8" d="M105.09,37.9c-.41.81-1.03,1.55-1.44,2.14-.25,1.35-.14,2.56.5,3.8.36.29,1.62.58,2.2.7,1.33-.4,1.96-.72,2.56-1.91.41.23.49-.13.5-.22.85.13,1.53.54,1.21,1.42-1.39,1.17-2.83,2-5.02,2.14-.34-.22-1.04-.13-1.44-.29-1.53-.94-2.27-2.84-2.2-4.83.05-.99.61-1.51.61-2.27.68-.27.81-1.3,1.22-1.71-.09.09.68-.31.76-.32.09-.05.32.14.47-.23.49.11.25-.25.4-.34.49-.09,1.35-.23,1.73-.29,1.39.68,2.11,1.85,2.29,3.33-.18.23-.4.41-.76.5-.85-.52-.76-2.34-1.69-2.36-.47.16-1.37.61-1.89.72Z"/>
        <path class="cls-8" d="M113.78,40.96c-.18.23-.16.34-.2.7-.25.18-.59.22-.59.32-.14-.23-.18-.22-.47-.25-.14-.25-.25-.5-.47-.65.18-1.28-.05-2.75,0-3.62v-.04c-.04-.23-.07-.54-.04-.72,0-.04-.49-.54-.04-.81-.02-.07-.27-.13-.34-.13.07-.22.13-.58-.05-.83.11-.02.14.04.22.04v-.16c-.23-.2-.4-.47-.13-.7,0-.14-.09-.34-.23-.31.05-.13.14-.07.16-.2-.27-.49-.38-.56-.04-.92-.07-.04-.14-.23-.11-.29.05-.07.05-.25.13-.32.11.04.22.07.34.13.04-.02.07-.05.11-.07.07.07.14.14.22.22.25.13.85.02,1.01.09,1.01,2.49.25,4.47.32,6.55.02.63-.14,1.39.2,1.96ZM114.18,44.26c-.32-.61-.76-1.12-1.53-.92.07.23-.38.18-.4.11-.07.25-.11.31.07.45-.2.02-.22.22-.34.32.13.85.32,1.96,1.53,1.76.47-.45.68-.97.67-1.73Z"/>
        <path class="cls-8" d="M128.94,39.02c.23.04.54-.14.76-.13.54.56.92.18,1.66,1.33.7,1.84-.31,3.64-1.82,4.34-.14.11-.22.29-.32.41-1.46.67-3.37,1.49-4.75,1.01-.16.05-.22,0-.49.05-.16-.29-.43-.13-.67-.2-1.15-.36-2.02-1.3-2-2.68.11,0,.16-.04.2-.13.49.02.52.07.79.27.04.34.4.5.72.76-.2-2.57-.58-5.26-.5-8.12,0-.47.05-.85-.2-1.4-.56.04-.27.56-.61.79-.32-.18-.32-.34-.74-.34-.02-.83.45-1.53,1.01-1.91.13-.09-.23-.4-.09-.45.13-.05.49-.22.92.13,0,0,.61-.05.92-.11.96-.18,1.6-.29,2.67,0,.2.25.77.34,1.01.34.81.36,1.4.96,2.09,1.48.16.65.16,1.06.4,1.6-.11.29,0,.4,0,.74,0,.76-.85,1.28-1.08,1.94,0,.13.18.07.14.27ZM126.65,38.8c.99-.85,2.45-1.33,1.62-3.33-.45-.11-.85-.81-1.26-1.04-.97-.56-1.87-.18-2.7-.38h-.07c-.29.04-.52-.02-.85.11.59,1.51.29,3.31.49,5.15.63.13,1.35-.59,1.76-.23.47-.2.52-.52,1.01-.27ZM124.33,40.82c-.13,1.57.34,2.34.41,3.89.45.11.29.22.7,0,.94.18,2.25-.85,3.15-.94.38-.49,1.03-.67,1.28-1.28.11-.34.05-.38.2-.68-.22-.7-.68-1.21-1.3-1.51-1.89-.02-2.68-.11-4.45.52Z"/>
        <path class="cls-8" d="M139.27,36.51c.61-.31,1.04.02,1.49.31.52,1.6-.05,2.79.07,4.09.07.65.07,1.33.16,1.91.13.86.58,1.71.67,2.7-.36.4-.81.14-1.42.16.16-.34-.43-.31-.52-.61.04-.81-.02-1.8-.27-2.34-.22.58-.99,1.01-1.15,1.58-.95.54-1.62,1.82-3.31,1.28-.31-.09-.58-.4-.74-.52-1.21-2.59-1.24-4.99-1.13-8.03.27-.2.2-.74.38-1.04.63-.13,1.19.32,1.5.76-.18.49.05.49,0,.9-.02.18-.2.34-.22.52-.05.32.16.34.14.74,0,.2-.18.16-.22.38-.05.22.04.87.07,1.21.04.58.18,1.53.22,1.57.02.61.29,1.19.61,2.03,2.27-1.31,3.87-3.38,3.67-7.58Z"/>
        <path class="cls-8" d="M147.82,36.62c-.5.88-1.73.95-2.61,1.33-.25,1.69-.27,3.87-.18,5.87,0,.13.59.27.58.43.74-.36,1.21-.16,1.8.09-.13,1.12-1.4,1.37-2.34,1.48-.18-.29-.45-.31-.67-.27-1.62-1.53-.47-5.1-.74-7.15-.25-.14-.67.18-.94.22-.5-.23-.72-.74-.94-1.26.36-.32.92-.54,1.48-.54.45-.16.31-.7.4-1.41.11-.77.4-1.22.47-2.02.43.02.77.11,1.21.27.45.65-.09,1.78-.07,2.41.94-.43,2.04-.58,2.56.54Z"/>
        <path class="cls-8" d="M157.83,36.62c-.5.88-1.73.95-2.61,1.33-.25,1.69-.27,3.87-.18,5.87,0,.13.59.27.58.43.74-.36,1.21-.16,1.8.09-.13,1.12-1.4,1.37-2.34,1.48-.18-.29-.45-.31-.67-.27-1.62-1.53-.47-5.1-.74-7.15-.25-.14-.67.18-.94.22-.5-.23-.72-.74-.94-1.26.36-.32.92-.54,1.48-.54.45-.16.31-.7.4-1.41.11-.77.4-1.22.47-2.02.43.02.77.11,1.21.27.45.65-.09,1.78-.07,2.41.94-.43,2.03-.58,2.56.54Z"/>
        <path class="cls-8" d="M159.95,45.73c-.77-.18-1.22-.76-1.03-1.33-.11-.27-.34-.68-.16-.9-.25-1.22-.63-3.44-1.12-4.59.07-.34.02-.4-.14-.79.27.09.5-.97,1.5-.77.2.05.47,1.66.49,1.69.4-.07.74-1.13.87-1.49.76-.02,1.1-.97,1.71-.67.86-.45,1.12-.29,1.85.16.34.29.25.83.34,1.04-.2,0-.29.09-.47.27-1.15-.31-2.72.38-3.42,3.02-.13.41.05.76.2.94-.02.07-.11.43-.11.4-.02.67.54,1.48.18,2.63-.22.13-.47.25-.68.4Z"/>
        <path class="cls-8" d="M169.22,36.3c.27.05.27-.13.4-.02.23.02.2.29.52.22.31.76.4,1.75.67,2.56.36.41.5.94.45,1.58.4.95.09,2.02.83,2.75-.09,1.19.18,2.27-.22,3.37-.56,1.46-2.18,2.56-3.89,2.54-.34,0-.81-.31-1.4-.13-.25-.25-.77-.25-.9-.63-.38.23-.27,0-.74-.49-.4-.38-.88-.47-.76-1.1-.07.05-.07.16-.22.14,0-.32.07-.76-.07-1.04.58-.27.72-.04,1.19-.2.22.16.09.34.32.41-.05.11-.16.27-.23.27-.05.34.5.65.79.9,1.93.47,3.13.14,4.38-1.03q.05-.29,0-.56c.83-1.51-.18-3.4-.36-4.46-.43.22-.58.68-.74,1.17-.94.2-1.01,1.13-2.21.9-.9-.18-1.4-.74-1.66-1.08-.14-.22-.11-.68-.29-.97-.07-.11-.25-.11-.31-.2-.25-.5-.23-1.15-.38-1.73-.13-.52-.52-1.04-.54-1.58-.05-.86.13-1.67.07-2.34.49.05.72.2,1.12.2.34.81.65,1.85.74,2.68-.18,0-.13.11-.18.22.07.54.2,1.19.36,1.8.16.54.22,1.39,1.21,1.49-.07-.07.32-.4.67-.49,1.3-1.12.76-1.8,1.26-3.04-.14-1.13-.22-1.44-.16-2.41.14.02.31.13.29.29Z"/>
        <path class="cls-8" d="M182.83,36.62c-.5.88-1.73.95-2.61,1.33-.25,1.69-.27,3.87-.18,5.87,0,.13.59.27.58.43.74-.36,1.21-.16,1.8.09-.13,1.12-1.4,1.37-2.34,1.48-.18-.29-.45-.31-.67-.27-1.62-1.53-.47-5.1-.74-7.15-.25-.14-.67.18-.94.22-.5-.23-.72-.74-.94-1.26.36-.32.92-.54,1.48-.54.45-.16.31-.7.4-1.41.11-.77.4-1.22.47-2.02.43.02.77.11,1.21.27.45.65-.09,1.78-.07,2.41.94-.43,2.03-.58,2.56.54Z"/>
        <path class="cls-8" d="M190.53,37.63c.22.05.14.05.36,0,.29.4.65.72.92,1.15.81,2.05-.23,3.85-1.21,5.11-.13.02-.13-.05-.14-.14-.27.67-.94.95-1.35,1.49-.41-.05-.58.13-.63.43-.63.16-1.46.36-1.93.13-.07.05-.07.18-.22.14.11-.25-.23-.04-.22-.22-.88.02-1.42-.34-1.91-1.06-1.4-.45-1.62-2.43-1.35-4.34.36.04.05-.47.41-.63.32-1.19,1.22-2.38,2.43-2.92.23-.25.5-.52.92-.58.2-.07.43-.23.81-.16,1.03-.13,1.85.27,2.47,1.03.4,0,.63.16.63.56ZM185.58,38.87c-.67,1.41-1.78,2.47-.81,4.74.45.74,1.24.58,2.29.5.04-.2.45-.22.49-.41.76.13,1.12-.72,1.76-.94.14-.61.58-.92.99-1.28.18-.85.34-1.21.2-2.23-.34-.2-.65-.81-1.19-.79.04-.23.04-.14,0-.36-.86-.16-1.35.04-2.09-.41-.61.29-.99.95-1.64,1.19Z"/>
        <path class="cls-8" d="M193.86,45.79c.04-.32-.16-.72-.27-1.21.22-.47.16-1.51.86-1.28.4-.41.77-.18,1.35,0,.41.85-.2,1.6-.22,2.14-.54.22-1.17.92-1.73.34Z"/>
        <path class="cls-8" d="M198.87,45.79c.04-.32-.16-.72-.27-1.21.22-.47.16-1.51.86-1.28.4-.41.77-.18,1.35,0,.41.85-.2,1.6-.22,2.14-.54.22-1.17.92-1.73.34Z"/>
        <path class="cls-8" d="M203.87,45.79c.04-.32-.16-.72-.27-1.21.22-.47.16-1.51.86-1.28.4-.41.77-.18,1.35,0,.41.85-.2,1.6-.22,2.14-.54.22-1.17.92-1.73.34Z"/>
      </g>
      <g>
        <path class="cls-6" d="M116.64,70.94c.09.29-.25.47-.34.73-.04.06.11.13.07.23-.88,2.14-3.66,3.41-5.73,3.97.38.3.66.51,1.28.76,1.15.5,1.65,1.62,2.4,2.41.43.46.63.95,1.09,1.48-.17.08-.25.23-.04.33-.21.54-.65.04-.84.58-.79-.26-1.12-1.17-1.54-1.81-.63-.35-.9-1.18-1.71-1.54-.05.1-.28.11-.38.1-.35-.4-.95-.55-1.09-.89-1.58-.25-2.54-.94-3.77-.39.22,1-.21,2.36-.41,3.24-.35-.03-.79.06-.92.13-1.13-.77-.45-2.02-.36-3.04.02-.14-.08-.31-.08-.44.05-1.41.87-2.58,1.2-3.91.28-1.16.6-2.28,1.05-3.41-.32.08-.48-.08-.92-.19-.26-.54-.13-.92-.08-1.6.46-.09.95.27,1.06-.11.59-.11,1.26.18,1.74-.32.58.02,1.07.27,1.51-.03.29.23.52,0,.76.22.14.02.19-.13.23-.29,1.94.5,4.01.46,4.76,2.27.57.31,1.01.72.8,1.47.02.19.21-.15.26.07ZM109.15,69.34c-.27.02-.21-.13-.31-.16-.6.39-.46-.1-1.05.26.43.85.1.82.06,1.95-.18.1-.31-.11-.5-.14-.38.79-.52,2.08-.91,3.11.06.19.63-.17.45.37,3.17-.72,5.81-.45,8.25-3.81-.14-1.13-1.93-1.55-2.96-1.62-1.06-.34-1.94-.02-3.03.05Z"/>
        <path class="cls-6" d="M125.02,83.19c-1.98.61-3.92.8-6.46.17-1.15-.71-2.1-1.77-1.74-3.27-.01-.08-.07-.13-.15-.21.54-1.17-.45-1.03-1.08-1.66.17-.61.54-.84.84-1.15.42.25.58.02.86.45.16.04.21-.2.38-.14.5-1.22,1.83-1.74,2.7-2.56.39-.11.93.04,1.17-.43.07.08.11.14.07.28.28-.37.95-.1,1.13-.29.75.44,1.49.22,2.27.95.04.7.54.6.45,1.29-.18,1.26-1.37,1.76-2.21,2.29-.35-.03-.48-.23-.67.12-.71-.13-1.32.74-1.87.44-.11.12-.24.17-.32.34-.16-.29-.27-.1-.45-.38-.53.52-1.69-.32-1.96.5.05-.1,0,.45,0,.47.16.87,1.23,1.44,2.42,1.63.54.1,1.21-.08,1.85-.12.42-.01.88.08,1.19.08.1,0,.36-.27.45-.26.11,0,.21.23.31.22.55.05.51-.47.87-.48.15.59.07,1.01-.06,1.71ZM119,78.01c1.15.31,1.55-.25,2.52-.1.34-.35.98-.48,1.27-.33.38-.49,1.33-.33,1.54-1.13-1.8-1.25-3.36-.24-4.79.68-.07.19-.6.77-.55.87Z"/>
        <path class="cls-6" d="M130.1,78.3c-.62.66-1.41,1.2-1.98,1.66-.62,1.23-.85,2.42-.57,3.79.27.38,1.4,1,1.92,1.28,1.39-.01,2.08-.15,2.98-1.13.33.34.5.01.54-.07.78.35,1.32.94.77,1.7-1.66.74-3.27,1.14-5.42.67-.27-.3-.97-.41-1.3-.68-1.21-1.32-1.39-3.36-.78-5.24.33-.94,1.01-1.28,1.22-2.01.73-.07,1.14-1.02,1.65-1.3-.11.06.74-.1.82-.1.1-.03.27.23.52-.1.44.24.31-.17.47-.22.49.05,1.36.15,1.74.2,1.14,1.04,1.51,2.36,1.28,3.83-.24.18-.5.29-.87.28-.67-.74-.08-2.46-.97-2.73-.5.03-1.49.21-2.02.17Z"/>
        <path class="cls-6" d="M143.06,81.75c.19.11.12.09.35.1.17.46.42.87.56,1.36.21,2.2-1.29,3.64-2.57,4.58-.13-.02-.11-.09-.1-.18-.44.57-1.16.66-1.71,1.06-.38-.17-.59-.04-.72.24-.65-.02-1.5-.06-1.89-.41-.08.03-.12.15-.25.08.17-.21-.21-.1-.15-.27-.85-.23-1.27-.72-1.54-1.55-1.22-.82-.88-2.78-.1-4.54.34.13.18-.44.57-.49.64-1.05,1.83-1.94,3.14-2.13.29-.18.63-.36,1.04-.3.21-.01.48-.1.82.07,1.02.16,1.71.77,2.09,1.67.38.11.56.33.45.71ZM137.96,81.58c-1.03,1.17-2.4,1.88-2.09,4.33.23.83,1.04.9,2.06,1.12.09-.18.49-.08.58-.26.69.33,1.27-.38,1.96-.41.31-.55.81-.72,1.3-.95.41-.76.66-1.06.81-2.09-.27-.28-.4-.96-.92-1.09.1-.22.07-.13.1-.35-.79-.39-1.31-.34-1.89-.98-.67.11-1.21.64-1.9.69Z"/>
        <path class="cls-6" d="M145.07,90.76c-.7-.39-.97-1.07-.62-1.56-.03-.29-.14-.75.09-.91.1-1.25.35-3.48.2-4.72.16-.31.13-.38.08-.8.23.16.75-.8,1.65-.33.18.11,0,1.72,0,1.76.4.04,1.02-.89,1.24-1.2.73.19,1.33-.63,1.83-.17.96-.19,1.15.03,1.74.67.25.37.01.87.04,1.1-.19-.05-.3,0-.52.13-1.02-.61-2.72-.39-4.12,1.96-.24.36-.16.74-.07.95-.04.06-.22.39-.21.35-.2.64.11,1.57-.55,2.58-.24.06-.52.11-.77.19Z"/>
        <path class="cls-6" d="M158.07,86.99c.07.72-.16,1.86-.47,2.6-.01.82-.01,1.93-.31,2.72.16.42,0,1.2-.36,1.43-.61-.08-.98.21-1.35-.18.07-.32-.18-.54.1-.8-.1-.03-.14-.04-.13-.11.17-.25.16-.35.14-.54-.4.54-1.4.63-1.97,1.06-.05-.07-.13-.13-.24-.16-4.21.25-4.67-2.9-3.68-4.53.09-.12-.07-.13-.04-.24.32-1.5,2.2-2.83,3.34-2.94.08-.47.1-.35.28-.59.24.09.34.3.57.29.04-.12.02-.2.06-.32.35-.42,1.24.9,1.68.02.38.18.88.21,1.19.57.22-1.02.39-.92.3-1.58.83-1.19.59-1.98,1.25-3.09.21-.13.72.15.87-.09.51.45.29.87.08,1.75-.13.51-.28,1.16-.51,1.24.1,1.02-.47,2.49-.78,3.49ZM151.02,89.18c.1,1.21-.23,1.51.74,2.12.34,0,.97.41,1.31.32.14-.03.93-.48.96-.02.22-.5,1.08-.48,1.46-.63.06-.54.44-1.28.36-1.98.47-.05.57-1.73.55-2.22-.23-.05-.8-.27-.94-.37-1.92.1-3.37.76-4.25,2.15.28.12-.13.58-.18.62Z"/>
        <path class="cls-6" d="M162.82,87.61c-.13,2.28-1.88,4.7-2.02,6.75-.28.46-.71.7-1.2.8-.25.02-.46-.21-.17-.5-.36,0-.26-.07-.35-.27-.24-.46-.24-.54.23-1.25.13-.19-.14-.43-.07-.68.25-.73.74-1.55,1.03-2.2.23-.61.4-1.4.67-2.07.15-.4.57-.42.46-1.07.62-.4.97.13,1.43.49ZM162.32,82.52c-.35.7-.19,1.43.05,1.98,1.18.51,1.88-.41,1.94-1.33-.34-.19.01-.56-.31-.69-.43-.01-.53-.19-.77-.45-.22.31-.52.49-.91.49Z"/>
        <path class="cls-6" d="M170.06,97.73c-.27.03-.32-.6-.63-.73.49-1.58,1.16-3.56,1.04-5.19-.08-1.09-.72-3.3-2.02-2.21-.38.34-.86,1.18-1.25,1.61-.47.52-.9,1.09-1.29,1.67,0,.02-.18-.02-.21.01-.85,1.14-.86,2.45-1.62,3.43-.79.22-1.1-.62-1.19-1.2.72-2.77,1.33-5.09,2.13-8.38.25.18.28-.11.44-.1.36.31.62.31.75.76-.47,1.06-.51,2.03-.76,3.6.06-.13.38-.68.52-.56.2-.3.45-1.43.97-1.43.26-.79.88-.79,1.27-1.3.54,0,1.01-.18,1.62-.02.59.51,1.57.94,1.9,1.6.3,2.79.37,6.06-1.16,8.51-.27.09-.55-.23-.52-.08Z"/>
        <path class="cls-6" d="M179.69,91.79c-1.7-.53-2.67.62-3.8,1.3-.49,1.19-1.03,1.82.06,2.79,1.43.69,2.69.08,3.41-.01.33-.81.37-1.35.45-2.01.3-.12.57-.42.87-.37,1.23.21.7,1.27.29,2.43-.15.4-.19,1.05-.23,1.45-.02.26.12.43.13.64,0,.3-.16.63-.26.9-.09.24-.12.55-.16.74-.02.13-.2.09-.2.09-.09.5-.15,1.42-.27,1.72-.5,2.14-2.87,2.17-4.46,1.69-.39-.13-1.55-.43-1.17-.69-.17-.11-.71-.34-.89-.5-.19-.19-.75-.4-.45-.64-.35-.14-.39-.41-.62-.38-.29.03-.16-.49-.26-.73-.37-.91-.36-1.75.98-2.04-.02.07.29.23.39.26-.37,2.01,2.37,3.87,4.48,3.16,1.14-1.1.97-2.92,1.15-4.32-.08.01-.63.57-.59.02-1.25.37-3.89.3-4.66-1.45-.32-.73-.14-2.38.52-3.37.64-.92,2.16-1.96,3.54-2.07.46-.05,1.77-.03,2.16-.03.32.19.44.48.81.63.15.92,1.14,1.04-.27,1.52-.43-.46-.62-.11-.99-.73Z"/>
        <path class="cls-6" d="M182.45,101.58c.12-.3.04-.74.07-1.23.34-.39.57-1.41,1.18-.99.5-.29.79.04,1.3.37.16.93-.63,1.49-.8,2-.58.06-1.38.56-1.76-.15Z"/>
        <path class="cls-6" d="M187.26,102.97c.12-.3.04-.74.07-1.23.34-.39.57-1.41,1.18-.99.5-.29.79.04,1.3.37.16.93-.63,1.49-.8,2-.58.06-1.38.56-1.76-.15Z"/>
        <path class="cls-6" d="M192.07,104.35c.12-.3.04-.74.07-1.23.34-.39.57-1.41,1.18-.99.5-.29.79.04,1.3.37.16.93-.63,1.48-.8,2-.58.06-1.38.56-1.76-.15Z"/>
      </g>
      <path class="cls-4" d="M107.29,86.48c14.59,5.42,28.6,9.14,48.44,15.32,3.94,1.23,9.48,2.84,11.91,6.18,2.63,3.63.88,8.41-.09,12.79-1.83,8.27-7.82,32.22-13.11,32.07s-15.03-4.09-19.99-5.93c-11.95-4.42-23.89-8.84-35.84-13.26-3.46-1.28-6.68-2.92-6.94-7.02-.14-2.31,3.9-24.86,5.7-35.38,1.31-7.63,7.96-5.49,9.92-4.76Z"/>
      <path class="cls-10" d="M136.7,152.62c2.34.98,4.29,1.49,4.4,3.69.11,2.19-1.15,4.21-2.44,6-3.48,4.85-8.74,8.99-10.55,9.49-3.18.89-32.4-11.04-43.46-16.76-1.8-.93-3.88-2.39-3.57-4.36.16-1,.92-1.78,1.65-2.5,3.66-3.61,2.13-2.97,5.79-6.58,1.28-1.26,2.6-2.55,4.25-3.26,1.66-.71,4.26-.7,5.63.47l38.29,13.82Z"/>
      <g>
        <path class="cls-3" d="M108.83,110.25c-2.51-.46-5.24.8-6.53,3-1.21,2.08-1.94,4.71-1.75,7.11.19,2.38,1.35,4.9,3.06,6.58,1.18,1.16,2.86,1.7,4.51,1.81s3.3-.17,4.93-.45c1.27-.22,2.58-.45,3.65-1.16,2.45-1.62,2.81-5.05,2.51-7.97-.19-1.82-.53-3.63-1.03-5.39-.25-.87-.56-1.77-1.21-2.41-.63-.62-1.51-.91-2.37-1.12-3.11-.73-6.45-.51-9.44.62"/>
        <path class="cls-1" d="M113.76,119.88c-.37.68-.66,1.4-.81,2.16-.21,1.05-.12,2.14.06,3.19.32,1.77.94,3.51,2.03,4.95,1.08,1.44,2.65,2.55,4.42,2.87,1.04.19,2.1.11,3.15-.02,1.59-.2,3.16-.5,4.7-.93,1.61-.44,3.25-1.04,4.37-2.28,1.07-1.18,1.52-2.81,1.56-4.4s-.31-3.16-.67-4.71c-.31-1.29-.63-2.6-1.29-3.76-3.89-6.84-14.54-2.63-17.52,2.91Z"/>
      </g>
      <path class="cls-5" d="M108.29,95.53c1.5.12,11.27,1.99,11.78,2.92.43.79-.28,1.84.82,2.32.3.13.66.17,1,.21,1.98.22,3.96.44,5.93.67,1.29.14,2.73.35,3.53,1.06.38.34.55.75.94,1.08.66.55,1.77.77,2.8.9,1.38.17,2.76.25,4.13.24"/>
      <path class="cls-5" d="M105.85,101.64c.02.28.05.57.23.8.37.49,1.2.49,1.84.28s1.24-.57,1.92-.65c1-.11,1.93.44,2.54,1.13s.99,1.52,1.53,2.25c.12.15.24.31.43.4.22.11.5.1.76.07,1.69-.18,3.41-1.05,4.99-.57,1.77.54,2.57,2.56,4.4,2.93"/>
      <path class="cls-4" d="M133.56,101.27c7,2.46,13.42,3.95,22.87,6.59,1.88.52,4.01.66,5.28,2.51,1.38,2.02.78,4.95.52,7.6-.48,5.01-9.27,28.51-11.72,28.7-2.46.19-7.14-1.65-9.52-2.49-5.73-2.01-13.66-4.01-19.39-6.02-1.66-.58-3.22-1.39-3.52-3.81-.17-1.36,7.79-21.46,9.76-28.4,1.25-4.43,4.79-5.01,5.73-4.68Z"/>
      <g class="cls-9">
        <path class="cls-2" d="M39.59,124.11c-9.07-2.59-15.28-11.62-14.52-20.38.77-8.77,8.09-16.57,17.21-19,9.13-2.43,19.5.39,26.19,6.63,5.18,4.83,8.25,11.8,7.21,18.54-1.04,6.74-6.59,12.92-13.79,14.28,6.93,2.46,10.86,9.15,13.69,15.51,7.35,16.52,11.23,34.35,11.35,52.21,0,1.06-.02,2.18-.63,3.07-.83,1.21-2.49,1.64-4,1.96-19.92,4.12-40.86,3.9-60.68-.64-2.17-.5-4.52-1.17-5.75-2.9-.85-1.2-1-2.69-1.09-4.12-1.57-24.3,5.09-47.29,20.89-66.74"/>
      </g>
      <path class="cls-11" d="M152.97,123.2c.27.09.46.25.58.49s.13.49.03.75l-.95,2.78c-.87,2.55-2.47,4.49-4.8,5.83-2.33,1.34-4.81,1.75-7.44,1.24l-.67,1.97,3.24,1.11c.27.09.46.25.58.49s.13.48.03.75l-.32.93c-.09.27-.25.46-.49.58s-.49.13-.75.03l-9.26-3.16c-.27-.09-.46-.25-.58-.49s-.13-.49-.03-.75l.32-.93c.09-.27.25-.46.49-.58s.48-.13.75-.03l3.24,1.11.67-1.97c-2.39-1.2-4.08-3.11-5.07-5.71-.99-2.6-1.03-5.21-.14-7.84l.79-2.32c.09-.27.25-.46.49-.58s.48-.13.75-.03l.93.32c.27.09.46.25.58.49s.13.49.03.75l-.83,2.43c-.67,1.97-.63,3.92.13,5.86.76,1.94,2.06,3.31,3.9,4.11,2.12.98,4.25,1.01,6.38.08,2.13-.93,3.56-2.48,4.3-4.64l.95-2.78c.09-.27.25-.46.49-.58s.48-.13.75-.03l.93.32ZM144.92,127.97c-1.3.64-2.63.72-4.01.25s-2.39-1.35-3.02-2.65c-.64-1.3-.72-2.63-.25-4.01l2.83-8.28c.47-1.38,1.35-2.39,2.65-3.02,1.29-.64,2.63-.72,4.01-.25s2.39,1.36,3.02,2.65c.64,1.3.72,2.63.25,4.01l-2.83,8.28c-.47,1.38-1.36,2.39-2.65,3.02Z"/>
    </g>
  </g>
</svg>