<?xml version="1.0" encoding="UTF-8"?>
<svg id="Layer_2" data-name="Layer 2" xmlns="http://www.w3.org/2000/svg" viewBox="0 0 244.33 193.47">
  <defs>
    <style>
      .cls-1 {
        stroke: #823eed;
        stroke-width: 2px;
      }

      .cls-1, .cls-2, .cls-3, .cls-4 {
        stroke-linecap: round;
        stroke-linejoin: round;
      }

      .cls-1, .cls-5, .cls-3, .cls-4 {
        fill: none;
      }

      .cls-2 {
        fill: #fff;
      }

      .cls-2, .cls-3 {
        stroke: #6b6b6b;
      }

      .cls-6 {
        fill: #823eed;
      }

      .cls-7 {
        fill: #56a800;
      }

      .cls-4 {
        stroke: #949494;
      }

      .cls-8 {
        fill: #191919;
      }

      .cls-9 {
        fill: #ffe59c;
        stroke: #bd8800;
        stroke-miterlimit: 10;
      }
    </style>
  </defs>
  <g id="Layer_1-2" data-name="Layer 1">
    <g>
      <g>
        <rect class="cls-5" x="40.97" y="2.09" width="181.91" height="55.93"/>
        <path class="cls-6" d="M49.02,19.44l-.07-.04-.04-.07c-.9-1.03-.9-2.01-.88-3.15v-.66c0-.24.04-.59.11-.9.04-.24.09-.61.07-.74-.04-.2-.39-.37-1.25-.37-.52,0-1.05.07-1.33.11l-.24.02s.02-.11-.22-.13c-.17-.04-.28.17-.28.17l-.37-.17h-.04c-.11,0-.26.07-.42.13-.28.11-.57.24-.9.24-.11,0-.24,0-.37-.04l-.13-.07-.09-.15c-.09-.22-.22-.37-.31-.55-.26-.48-.5-.94-.48-1.68l.02-.31s.07-.04.09-.13c.04-.13,0-.31,0-.31.02-.09.15-.15.26-.17-.02-.09-.02-.2,0-.33l.04-.11.07-.04c.39-.46.57-1.2.79-1.99.11-.39.22-.81.37-1.2l.15-.44h.13c.11-.85.35-1.53.7-2.28l.13-.26.26.04c.11,0,.2.02.24.04.07.02.09.02.11.02h.04l.26.04.35.33s.02.04.04.07c.11.09.22.18.31.26.07.04.15.11.22.24,0,0-.11.13.09.2h.15c.09,0,.11.02.11.02l-.02.24c-.09.59-.44,1.49-.44,1.62-.02.15.22.33.22.33l-.17.33c-.33.33-.5.92-.7,1.53-.15.44-.31.9-.53,1.33.02,0,.04.02.09.02.24.04.53.04.81.07.48,0,.94.02,1.27.17.13-.04.24-.07.37-.07.15,0,.26.02.37.02.07.02.13.02.2.02.53-1.84.44-3.89.37-5.91-.02-.55-.07-1.16-.07-1.73l.02-.57.57.22c.31.17.5.24.79.33.11.02.26.07.37.11l.18.07.07.15c.09.15.11.33.15.5.02.15.04.35.15.46.09.13.2.17.2.17v.22c-.02.61,0,1.16.04,1.79.09,1.14.15,2.3-.15,3.52.04.94.09,1.31,1.4,1.6l.44.09-.11.42c-.07.31-.11.44-.2.7-.04.09-.07.22-.11.35l-.09.26-.28.02c-.15,0-.31.07-.48.15-.15.11-.33.24-.59.26-.15,1.09-.22,1.97-.09,3.06v.22l-.11.13c.11.46,0,1.07-.2,1.47-.26.5-.59.57-.74.57h-.15c-.07.07-.18.13-.33.13-.07,0-.15-.02-.22-.04Z"/>
        <path class="cls-6" d="M61.11,18.93c-.59-.61-.53-1.62-.44-2.67.02-.37.07-.7.07-1.07,0-.48.07-.9.13-1.33.07-.46.13-.92.11-1.36-.11-2.08-.2-4.31-.15-6.45,0-.37-.04-.96-.07-1.47-.04-.77-.09-1.51-.04-1.9l.02-.26.26-.11c.07-.02.17-.04.26-.04.35,0,.61.24.85.46.15.13.35.28.5.28h.02s.22-.02.42.02c.04.09.07.35.07.35.66,4.31.81,9.08.53,14.99,0,0-.02.5-.33.55.04.13.13.2.13.2.02.09-.02.2-.18.24-.09.04-.39.11-.7.11-.63,0-1.14-.18-1.47-.53Z"/>
        <path class="cls-6" d="M67.89,18.21c-.63-.55-1.03-1.25-1.09-2.12-.02,0-.26-.11-.26-.11l.04-.28c.02-.31,0-.55-.07-.61-.04-.07-.28-.09-.5-.11-.31-.04-.63-.11-.98-.33l-.22-.13v-.24c0-.63.26-1.09.48-1.4.04-.07.11-.15.13-.24l.13-.33.35.09c.11.04.17.04.24.04h.13c.07-.02.11-.02.17-.02.13,0,.26.04.42.11t.04-.04c.2-.98.81-1.73,1.44-2.52.29-.31.55-.66.79-1.05l.04-.07.11-.07c.15-.07.33-.11.46-.17.37-.11.48-.17.53-.33,0,0,.02-.26.2-.44.24-.07.39.13.39.13.2-.11.42-.15.57-.2.09-.02.2-.04.24-.07,0,0,.15-.09.11-.15.15-.07.33,0,.33,0,.2.07.39.07.63.07h.39c.17-.02.33-.02.5-.02.35,0,.85.02,1.42.29l.15.07.04.17c.09.26.2.33.35.44.22.13.5.31.57.92.24,1.38-.7,2.34-1.44,3.11-.13.13-.26.26-.37.31l-.11.11-.13.02c-.13.04-.26.04-.35.04v.02l-.09.31-.31.02c-.29.04-.48.26-.74.53-.28.17-.61.5-1.01.55-.04.04-.07.09-.07.11,0,0-.04.22-.22.35-.22.04-.53-.11-.53-.11l-.02-.02s-.11,0-.17-.02c-.33.2-.74.24-1.07.28-.48.09-.61.15-.66.24,0,.04.02.09.02.13.04.11.07.22.09.31v.04c.31.46,1.05.77,2.12.77.22,0,.46,0,.7-.04.31-.04.72-.22,1.12-.42.26-.07.55-.15.83-.24.24-.09.57-.15.83-.2.17-.04.33-.07.44-.09.02-.04.02-.07.04-.11.13-.15.26-.33.46-.37.07-.02.11-.02.18-.02.17,0,.31.07.39.13.02-.02.04-.09.09-.2.09-.11.22-.42.61-.53l.31-.09.15.28c.42.61.46,1.23.55,1.99l.02.28-.22.11c-1.14.72-2.19,1.18-3.3,1.58-1.27.42-2.58.61-4.11.66h-.13c-.92-.24-1.64-.61-2.19-1.09ZM69.56,12.57c.28-.09.55-.22.83-.37.33-.2.63-.35,1.14-.39.33-.5.88-.81,1.33-.85.13-.2.39-.35.61-.5.26-.2.44-.33.5-.48-.26-.09-.53-.11-.79-.11-1.42,0-2.47,1.12-3.48,2.23-.02.11-.09.26-.15.48Z"/>
        <path class="cls-6" d="M83.32,19.28c-1.09-.04-2.87-.11-3.85-.96-.31,0-.5-.13-.61-.22-.04-.02-.07-.04-.09-.04l-.24-.13.04-.28c.04-.2-.02-.31-.11-.46-.07-.09-.15-.2-.13-.37v-.13l.09-.11c.11-.15.17-.35.26-.53.04-.15.13-.39.29-.57.2-.26.46-.39.81-.39h.07l.07.02c.11.02.2.09.26.13h.07c.22,0,.39.09.57.15.04.02.11.04.17.07,0,0,.28.13.31.2.04.07-.07.33-.07.33-.07.17-.15.39-.26.57.31.22.81.24,1.47.26.39,0,.74,0,1.14.07l.09-.24.33.04h.2c.63,0,1.14-.33,1.6-.66l-.04-.04c-.15-.15-.17-.37-.07-.59-.11-.15-.17-.24-.24-.31-.04.02-.13.04-.2.04-.09,0-.15-.02-.24-.09-.11-.02-.17-.04-.24-.07-.09-.04-.15-.09-.42-.17-.61-.26-1.31-.53-1.84-.68-.09-.02-.17-.02-.28-.02-.18,0-.33.02-.53.04-.22.04-.44.09-.68.09-.09,0-.18-.02-.26-.02-.2-.04-.31-.17-.39-.26-.52-.17-.72-.53-.94-.88h-.11c-.09,0-.15,0-.22-.02l-.13-.04-.07-.09c-.42-.37-.9-1.49-.63-2.3.11-.37.35-.68.66-.83.02-.07.04-.11.07-.13t.02-.04s.09-.24-.02-.33c.17-.04.33-.09.33-.09.07-.02.2-.04.26-.07,0-.04.02-.09.02-.13.02-.09.04-.15.07-.24l.04-.17.17-.09c.07-.02.11-.04.15-.07,0,0,.22-.09.22-.28.2,0,.37.13.37.13,0,0,.04.02.11.02.09,0,.13-.02.13-.04l.02-.02s.07-.31.24-.42c.17-.11.39.07.39.07.04-.02.11-.04.13-.04.2-.09.42-.17.66-.17.09,0,.28.04.28.04.07-.13.2-.13.2-.13l.22.04s.04.02.07.04c.11.02.22.07.24.07s.04-.02.09-.04c0,0,.09-.11.31-.13.15-.04.24.17.24.17l.13-.11s.04.11.11.11c.07.02.09-.07.09-.07l.13.04c.24.04.44.11.66.2,0,0,0-.07.09-.07.04.09.44.2.44.2.7.26,1.03.52,1.47.81.15.11.33.28.57.46l.15.11.02.17c.09.46,0,1.36-1.36,1.79,0,0-.22.11-.39.07-.04-.26-.15-.44-.15-.44,0-.04-.02-.09-.04-.13-.04-.04-.07-.09-.09-.13-.61-.5-1.44-.79-2.32-.79-1.07,0-2.08.42-2.71,1.01.68.85,1.38.88,2.38.94.55.04,1.16.11,1.86.31,0,0,.28.07.33.13-.11.11,0,.24,0,.24h.02s.13.09.2.15c1.31.13,2.67.98,3.41,2.1l.07.11v.04c.11,1.22-.22,2.21-.94,2.98-.46.46-1.09.83-1.86,1.05-.7.18-1.51.29-2.41.29h-.02c-.13,0-.28-.02-.44-.02Z"/>
        <path class="cls-6" d="M95.49,19.28c-1.09-.04-2.87-.11-3.85-.96-.31,0-.5-.13-.61-.22-.04-.02-.07-.04-.09-.04l-.24-.13.04-.28c.04-.2-.02-.31-.11-.46-.07-.09-.15-.2-.13-.37v-.13l.09-.11c.11-.15.17-.35.26-.53.04-.15.13-.39.29-.57.2-.26.46-.39.81-.39h.07l.07.02c.11.02.2.09.26.13h.07c.22,0,.39.09.57.15.04.02.11.04.17.07,0,0,.28.13.31.2.04.07-.07.33-.07.33-.07.17-.15.39-.26.57.31.22.81.24,1.47.26.39,0,.74,0,1.14.07l.09-.24.33.04h.2c.63,0,1.14-.33,1.6-.66l-.04-.04c-.15-.15-.17-.37-.07-.59-.11-.15-.17-.24-.24-.31-.04.02-.13.04-.2.04-.09,0-.15-.02-.24-.09-.11-.02-.17-.04-.24-.07-.09-.04-.15-.09-.42-.17-.61-.26-1.31-.53-1.84-.68-.09-.02-.17-.02-.28-.02-.18,0-.33.02-.53.04-.22.04-.44.09-.68.09-.09,0-.18-.02-.26-.02-.2-.04-.31-.17-.39-.26-.52-.17-.72-.53-.94-.88h-.11c-.09,0-.15,0-.22-.02l-.13-.04-.07-.09c-.42-.37-.9-1.49-.63-2.3.11-.37.35-.68.66-.83.02-.07.04-.11.07-.13t.02-.04s.09-.24-.02-.33c.17-.04.33-.09.33-.09.07-.02.2-.04.26-.07,0-.04.02-.09.02-.13.02-.09.04-.15.07-.24l.04-.17.17-.09c.07-.02.11-.04.15-.07,0,0,.22-.09.22-.28.2,0,.37.13.37.13,0,0,.04.02.11.02.09,0,.13-.02.13-.04l.02-.02s.07-.31.24-.42c.17-.11.39.07.39.07.04-.02.11-.04.13-.04.2-.09.42-.17.66-.17.09,0,.28.04.28.04.07-.13.2-.13.2-.13l.22.04s.04.02.07.04c.11.02.22.07.24.07s.04-.02.09-.04c0,0,.09-.11.31-.13.15-.04.24.17.24.17l.13-.11s.04.11.11.11c.07.02.09-.07.09-.07l.13.04c.24.04.44.11.66.2,0,0,0-.07.09-.07.04.09.44.2.44.2.7.26,1.03.52,1.47.81.15.11.33.28.57.46l.15.11.02.17c.09.46,0,1.36-1.36,1.79,0,0-.22.11-.39.07-.04-.26-.15-.44-.15-.44,0-.04-.02-.09-.04-.13-.04-.04-.07-.09-.09-.13-.61-.5-1.44-.79-2.32-.79-1.07,0-2.08.42-2.71,1.01.68.85,1.38.88,2.38.94.55.04,1.16.11,1.86.31,0,0,.28.07.33.13-.11.11,0,.24,0,.24h.02s.13.09.2.15c1.31.13,2.67.98,3.41,2.1l.07.11v.04c.11,1.22-.22,2.21-.94,2.98-.46.46-1.09.83-1.86,1.05-.7.18-1.51.29-2.41.29h-.02c-.13,0-.28-.02-.44-.02Z"/>
        <path class="cls-6" d="M106.55,19.33c.11-.07.02-.15.02-.15-.5-.02-.85-.11-1.22-.33-.37-.22-.7-.53-1.03-.9-.44-.18-.79-.46-1.09-.79-.28-.33-.48-.81-.63-1.27-.28-1.09-.2-2.36-.07-3.19l.04-.42c.09-.11.22-.09.22-.09.02-.2.09-.29.31-.42.48-1.49,1.66-2.8,3.06-3.37.24-.24.63-.61,1.25-.7h.07c.2-.09.46-.2.81-.2.09,0,.17,0,.24.02.15-.02.31-.02.44-.02.59,0,1.14.11,1.62.31.42.2.81.5,1.14.85.31.04.55.11.72.26.09.09.17.22.22.35l.24-.04.17.22c.13.2.31.35.46.48.24.26.46.53.68.85l.02.02.02.02c.46,1.09.5,2.25.09,3.46-.31.83-.83,1.75-1.62,2.69l-.11.11-.15.02h-.11c-.24.31-.55.57-.81.81-.24.17-.46.33-.63.53l-.15.2-.26-.02s-.07-.02-.11-.02c-.09,0-.13,0-.17.2l-.07.26-.24.04c-.57.13-1.2.26-1.79.26-.2,0-.37-.02-.52-.07-.09.07-.24.17-.57.09,0,0-.11.04-.46-.07ZM106.74,16.64c.26,0,.57-.02.9-.07.04,0,.11,0,.17-.02.11-.09.24-.13.33-.2.24-.17.13-.31.13-.31l.44.04h.11c.31,0,.55-.17.85-.44.22-.17.46-.39.74-.55.24-.57.72-.99,1.14-1.27t.04-.02c.02-.11.04-.22.07-.33.15-.59.26-.99.15-1.73-.11-.09-.22-.2-.33-.31-.29-.28-.48-.46-.7-.46h-.55s.15-.15.11-.42c-.02-.02-.37-.02-.52-.02-.5-.02-.99-.04-1.58-.35-.22.13-.42.31-.61.5-.31.22-.63.5-1.07.7-.13.28-.28.5-.44.72-.7,1.18-1.33,2.19-.48,4.05.22.33.53.46,1.09.46Z"/>
        <path class="cls-6" d="M116.64,18.3l-.04-.07v-.42c-.09-3.11-.15-5.84-.33-9.54,0,0-.02-.31.02-.44.2-.04.44,0,.44,0,.07-.11.17-.17.35-.22l.15-.04.15.07c.13.07.26.09.37.11.31.09.66.17.94.66l.09.13-.02.15c-.11.7-.07,1.33.04,2.14.09-.37.22-.77.5-.96.09-.55.42-.92.68-1.16.15-.17.31-.35.39-.57l.07-.2.22-.07c.2-.04.37-.11.57-.15.39-.15.83-.33,1.42-.35h.09l.11.04c.26.13.57.2.92.31.72.2,1.49.44,1.97.94l.04.04.04.07c.81,1.88,1.33,3.41,1.62,4.88.39,1.93.37,3.59-.09,5.1l-.04.15-.13.09c-.15.11-.31.15-.5.15h-.24c-.07.02-.15.04-.24.04-.33,0-.55-.24-.72-.44-.07-.07-.2-.22-.24-.24l-.39-.04.02-.33v-.24c.07-1.79.11-4.03-.5-5.67-.37-.99-1.23-2.08-1.77-2.08-.17,0-.37.13-.55.39s-.33.68-.5,1.14c-.13.33-.26.7-.39.99-.35.63-.66,1.38-.92,2.19-.07.2-.2.24-.31.26-.24.66-.26,1.29-.31,1.97-.02.7-.07,1.42-.39,2.17l-.04.11-.13.04c-.24.15-.48.22-.74.22-.63,0-1.22-.44-1.66-1.33Z"/>
        <path class="cls-6" d="M134.41,19.28c-1.09-.04-2.87-.11-3.85-.96-.31,0-.5-.13-.61-.22-.04-.02-.07-.04-.09-.04l-.24-.13.04-.28c.04-.2-.02-.31-.11-.46-.07-.09-.15-.2-.13-.37v-.13l.09-.11c.11-.15.17-.35.26-.53.04-.15.13-.39.28-.57.2-.26.46-.39.81-.39h.07l.06.02c.11.02.2.09.26.13h.07c.22,0,.39.09.57.15.04.02.11.04.17.07,0,0,.29.13.31.2.04.07-.07.33-.07.33-.07.17-.15.39-.26.57.31.22.81.24,1.47.26.39,0,.74,0,1.14.07l.09-.24.33.04h.2c.63,0,1.14-.33,1.6-.66l-.04-.04c-.15-.15-.17-.37-.07-.59-.11-.15-.18-.24-.24-.31-.04.02-.13.04-.2.04-.09,0-.15-.02-.24-.09-.11-.02-.17-.04-.24-.07-.09-.04-.15-.09-.42-.17-.61-.26-1.31-.53-1.84-.68-.09-.02-.17-.02-.28-.02-.17,0-.33.02-.52.04-.22.04-.44.09-.68.09-.09,0-.17-.02-.26-.02-.2-.04-.31-.17-.39-.26-.53-.17-.72-.53-.94-.88h-.11c-.09,0-.15,0-.22-.02l-.13-.04-.07-.09c-.42-.37-.9-1.49-.63-2.3.11-.37.35-.68.66-.83.02-.07.04-.11.07-.13t.02-.04s.09-.24-.02-.33c.17-.04.33-.09.33-.09.07-.02.2-.04.26-.07,0-.04.02-.09.02-.13.02-.09.04-.15.07-.24l.04-.17.18-.09c.07-.02.11-.04.15-.07,0,0,.22-.09.22-.28.2,0,.37.13.37.13,0,0,.04.02.11.02.09,0,.13-.02.13-.04l.02-.02s.07-.31.24-.42.39.07.39.07c.04-.02.11-.04.13-.04.2-.09.42-.17.66-.17.09,0,.28.04.28.04.07-.13.2-.13.2-.13l.22.04s.04.02.07.04c.11.02.22.07.24.07s.04-.02.09-.04c0,0,.09-.11.31-.13.15-.04.24.17.24.17l.13-.11s.04.11.11.11c.07.02.09-.07.09-.07l.13.04c.24.04.44.11.66.2,0,0,0-.07.09-.07.04.09.44.2.44.2.7.26,1.03.52,1.47.81.15.11.33.28.57.46l.15.11.02.17c.09.46,0,1.36-1.36,1.79,0,0-.22.11-.39.07-.04-.26-.15-.44-.15-.44,0-.04-.02-.09-.04-.13-.04-.04-.07-.09-.09-.13-.61-.5-1.44-.79-2.32-.79-1.07,0-2.08.42-2.71,1.01.68.85,1.38.88,2.38.94.55.04,1.16.11,1.86.31,0,0,.29.07.33.13-.11.11,0,.24,0,.24h.02s.13.09.2.15c1.31.13,2.67.98,3.41,2.1l.07.11v.04c.11,1.22-.22,2.21-.94,2.98-.46.46-1.09.83-1.86,1.05-.7.18-1.51.29-2.41.29h-.02c-.13,0-.28-.02-.44-.02Z"/>
        <path class="cls-6" d="M148.71,18.93c-.59-.61-.53-1.62-.44-2.67.02-.37.07-.7.07-1.07,0-.48.07-.9.13-1.33.07-.46.13-.92.11-1.36-.11-2.08-.2-4.31-.15-6.45,0-.37-.04-.96-.07-1.47-.04-.77-.09-1.51-.04-1.9l.02-.26.26-.11c.06-.02.17-.04.26-.04.35,0,.61.24.85.46.15.13.35.28.5.28h.02s.22-.02.42.02c.04.09.07.35.07.35.66,4.31.81,9.08.52,14.99,0,0-.02.5-.33.55.04.13.13.2.13.2.02.09-.02.2-.17.24-.09.04-.39.11-.7.11-.63,0-1.14-.18-1.47-.53Z"/>
        <path class="cls-6" d="M162.25,19.04c-.31-.37-.46-.63-.9-.96l-.04-.04-.04-.07c-.22-.42-.24-.79-.26-1.23-.07.15-.2.24-.31.17-.46.66-.92,1.23-1.42,1.6-.7.57-1.51.83-2.3.83-.53,0-1.09-.11-1.62-.33l-.13-.07-.07-.11c-.15-.22-.31-.46-.46-.63-.59-.9-1.23-1.82-1.58-3.02l-.04-.04.02-.09c.11-.72.13-1.29.13-1.95.02-.28.02-.66.04-1.03l.02-.39s.15-.07.11-.26c-.11-.37.22-.35.22-.35,0-.11.07-.15.31-.17-.06-.22.02-.37.09-.44.07-.11.15-.18.26-.2,0-.07,0-.13.02-.2.07-.24.24-.33.37-.42.15-.09.22-.11.2-.39,0,0-.02-.33.04-.42.17-.26.44-.04.44-.04.09-.29.28-.31.42-.24,0,0,.02-.17.22-.39.2-.2.52.13.52.13.07-.04.15-.15.15-.2,0,0,.15-.24.09-.46.28-.15.44.13.44.13t.04-.02c.09-.02.17-.04.31-.04.04,0,.09,0,.13.02,0,0-.02-.13.07-.2.11-.07.35.04.35.04h.13c.26,0,.48.04.63.11.17-.04.39-.07.61-.07.44,0,1.01.13,1.4.37.42.26.7.59.83.9.59.11.85.37,1.09.61.13.15.24.28.46.37l.22.11v.26c-.02.63-.07,1.2-.11,1.75-.11,1.14-.2,2.21-.09,3.33.13-.04.2.02.22.11v-.28s-.02-.13.11-.2c.22,0,.44.07.44.07.04.04.09.07.15.11.09-.07.17-.11.31-.11s.26.07.35.13c.13.11.13.28.13.46.04.07.11.17.15.31.04.15.09.31.11.5.02.13.07.28.09.42l.07.24-.18.15c-.26.26-.39.59-.53.94-.26.55-.55,1.22-1.71,1.42l-.22.04-.15-.17c-.15-.15-.26-.29-.37-.42ZM156.61,16.55c.07.09.15.2.24.26.15-.09.31-.17.44-.26.55-.33,1.03-.57,1.77-1.75.24-.88.94-1.77,1.42-2.23.11-.66.15-1.14.24-1.77-.24-.11-.44-.26-.61-.39-.15-.13-.33-.26-.42-.28-.11-.02-.2-.07-.29-.11-.07-.02-.13-.04-.17-.04-.61,0-.61.02-1.03.39-.09.07-.18.15-.29.24l-.26.28s-.02-.17-.2-.17c-.02.02-.59.5-.55.98v.26l-.24.09c-.22.13-.42.5-.53.98-.09.55-.09,1.07-.04,1.38v.35l-.22.24c.04.17,0,.26-.02.46,0,.24,0,.42.04.55.28.07.5.29.7.55Z"/>
        <path class="cls-6" d="M168.47,19.11h-.11l-.17.04-.17-.15c-.66-.63-1.01-1.55-1.14-2.82-.09-1.05,0-2.19.09-3.3.07-.88.15-1.73.11-2.43-.07.02-.13.04-.17.07-.15.07-.33.15-.5.18l-.13.02-.11-.07c-.77-.37-1.09-1.18-1.29-1.77l-.11-.28.24-.2c.44-.46,1.16-.74,1.88-.77.02-.02.02-.04.04-.09.04-.11.04-.31.07-.55,0-.22.02-.44.04-.7.07-.46.13-.85.26-1.2.11-.39.22-.74.26-1.23l.04-.42.42.02c.55.04,1.03.17,1.51.35l.13.04.07.13c.48.66.28,1.58.13,2.32-.02.07-.02.13-.04.18.35-.09.63-.15.94-.15.85,0,1.55.46,1.9,1.29l.09.22-.11.2c-.48.92-1.44,1.22-2.3,1.49-.24.07-.5.15-.72.22-.22,1.73-.29,4.05-.2,6.61.04.02.07.04.09.04.11.07.22.11.33.17.26-.11.53-.15.77-.15.55,0,.98.22,1.4.39l.28.13-.04.33c-.22,1.79-2.23,2.06-3.08,2.17l-.28.04-.13-.24c-.09-.11-.17-.13-.26-.13Z"/>
        <path class="cls-6" d="M174.95,18.21c-.63-.55-1.03-1.25-1.09-2.12-.02,0-.26-.11-.26-.11l.04-.28c.02-.31,0-.55-.07-.61-.04-.07-.28-.09-.5-.11-.31-.04-.63-.11-.98-.33l-.22-.13v-.24c0-.63.26-1.09.48-1.4.04-.07.11-.15.13-.24l.13-.33.35.09c.11.04.17.04.24.04h.13c.07-.02.11-.02.17-.02.13,0,.26.04.42.11t.04-.04c.2-.98.81-1.73,1.44-2.52.28-.31.55-.66.79-1.05l.04-.07.11-.07c.15-.07.33-.11.46-.17.37-.11.48-.17.52-.33,0,0,.02-.26.2-.44.24-.07.39.13.39.13.2-.11.42-.15.57-.2.09-.02.2-.04.24-.07,0,0,.15-.09.11-.15.15-.07.33,0,.33,0,.2.07.39.07.63.07h.39c.18-.02.33-.02.5-.02.35,0,.85.02,1.42.29l.15.07.04.17c.09.26.2.33.35.44.22.13.5.31.57.92.24,1.38-.7,2.34-1.44,3.11-.13.13-.26.26-.37.31l-.11.11-.13.02c-.13.04-.26.04-.35.04v.02l-.09.31-.31.02c-.28.04-.48.26-.74.53-.28.17-.61.5-1.01.55-.04.04-.07.09-.07.11,0,0-.04.22-.22.35-.22.04-.52-.11-.52-.11l-.02-.02s-.11,0-.17-.02c-.33.2-.74.24-1.07.28-.48.09-.61.15-.66.24,0,.04.02.09.02.13.04.11.07.22.09.31v.04c.31.46,1.05.77,2.12.77.22,0,.46,0,.7-.04.31-.04.72-.22,1.12-.42.26-.07.55-.15.83-.24.24-.09.57-.15.83-.2.17-.04.33-.07.44-.09.02-.04.02-.07.04-.11.13-.15.26-.33.46-.37.07-.02.11-.02.17-.02.18,0,.31.07.39.13.02-.02.04-.09.09-.2.09-.11.22-.42.61-.53l.31-.09.15.28c.42.61.46,1.23.55,1.99l.02.28-.22.11c-1.14.72-2.19,1.18-3.3,1.58-1.27.42-2.58.61-4.11.66h-.13c-.92-.24-1.64-.61-2.19-1.09ZM176.61,12.57c.28-.09.55-.22.83-.37.33-.2.63-.35,1.14-.39.33-.5.88-.81,1.33-.85.13-.2.39-.35.61-.5.26-.2.44-.33.5-.48-.26-.09-.53-.11-.79-.11-1.42,0-2.47,1.12-3.48,2.23-.02.11-.09.26-.15.48Z"/>
        <path class="cls-6" d="M186.7,18.41c-.13-.33-.2-.68-.11-1.03-.02-.02-.02-.04-.04-.09-.13-.28-.31-.72-.15-1.09-.07-.26-.11-.55-.18-.85-.28-1.44-.66-3.41-1.09-4.51l-.04-.13.02-.13q.07-.22-.07-.5c-.02-.07-.04-.13-.09-.2,0,0-.09-.31-.04-.46.11-.2.44-.17.44-.17.02-.02.04-.07.07-.09.22-.31.63-.83,1.38-.83.13,0,.26.02.42.04.29.07.42.35.48.61.04.2.11.44.17.74,0,.04.02.09.02.13.02,0,.02-.02.02-.02.15-.33.26-.68.35-.9l.11-.35h.31c.24,0,.48-.2.74-.39.28-.22.55-.48.96-.48.09,0,.17.02.26.04.39-.22.7-.31,1.03-.31.46,0,.85.24,1.38.57l.02.02.04.04c.39.35.46.88.5,1.2,0,.09,0,.2.02.24,0,0,.09.35-.02.48-.07.09-.39.11-.39.11-.04,0-.07,0-.22.2l-.15.2-.26-.07c-.17-.04-.35-.09-.52-.09-1.29,0-2.41,1.29-2.98,3.43-.09.35.07.63.17.77l.11.15-.02.18c-.02.09-.07.26-.09.33,0,.04-.02.11-.04.15v.02c0,.2.07.44.13.72.18.66.39,1.49.07,2.52l-.07.13-.13.09c-.13.11-.28.17-.42.26-.09.09-.22.15-.35.24l-.15.09-.17-.04c-.61-.13-1.14-.5-1.42-.98Z"/>
        <path class="cls-6" d="M193.53,19l-.13-.13.02-.2c.02-.15-.07-.39-.15-.66-.04-.17-.11-.39-.15-.59l-.02-.15.04-.11c.07-.11.09-.31.13-.48.07-.26.13-.53.24-.74.22-.44.57-.55.79-.55.04,0,.07,0,.11.02.2-.17.44-.24.68-.24.28,0,.55.09.83.2.09.02.2.07.28.09l.17.07.07.15c.42.81.15,1.55-.04,2.1-.07.22-.13.42-.13.57l-.07.26-.22.11c-.13.04-.28.15-.46.24-.33.2-.72.44-1.14.44-.33,0-.61-.13-.85-.39Z"/>
        <path class="cls-6" d="M199.62,19l-.13-.13.02-.2c.02-.15-.07-.39-.15-.66-.04-.17-.11-.39-.15-.59l-.02-.15.04-.11c.07-.11.09-.31.13-.48.07-.26.13-.53.24-.74.22-.44.57-.55.79-.55.04,0,.07,0,.11.02.2-.17.44-.24.68-.24.29,0,.55.09.83.2.09.02.2.07.28.09l.17.07.07.15c.42.81.15,1.55-.04,2.1-.07.22-.13.42-.13.57l-.07.26-.22.11c-.13.04-.28.15-.46.24-.33.2-.72.44-1.14.44-.33,0-.61-.13-.85-.39Z"/>
        <path class="cls-6" d="M205.7,19l-.13-.13.02-.2c.02-.15-.07-.39-.15-.66-.04-.17-.11-.39-.15-.59l-.02-.15.04-.11c.07-.11.09-.31.13-.48.07-.26.13-.53.24-.74.22-.44.57-.55.79-.55.04,0,.07,0,.11.02.2-.17.44-.24.68-.24.28,0,.55.09.83.2.09.02.2.07.28.09l.17.07.07.15c.42.81.15,1.55-.04,2.1-.07.22-.13.42-.13.57l-.07.26-.22.11c-.13.04-.28.15-.46.24-.33.2-.72.44-1.14.44-.33,0-.61-.13-.85-.39Z"/>
      </g>
      <path class="cls-2" d="M239.53,120.98c.04-.54.03-1.17-.37-1.47-.32-.24-9.99,0-14.85.15-11.79.36-23.57.5-35.35.44-.28,10.65-.36,23-1.37,33.63,5.85,1.36,11.89.67,17.91.83,11.08.29,22.37,1.11,33.43-.05,1.22-5.01.85-10.26.54-15.3-.39-6.48-.38-11.74.05-18.23Z"/>
      <path class="cls-2" d="M64.85,110.33c-.05.54-.06,1.17.33,1.48.31.24,9.99.25,14.85.22,11.79-.06,23.58.1,35.35.46.56-10.64.95-22.99,2.22-33.59-5.82-1.51-11.86-.97-17.88-1.28-11.07-.57-22.34-1.68-33.42-.8-1.35,4.98-1.11,10.23-.93,15.29.23,6.48.08,11.74-.52,18.22Z"/>
      <path class="cls-2" d="M53.25,110.86c.05.54.06,1.17-.33,1.48-.31.24-9.99.25-14.85.22-11.79-.06-23.58.1-35.35.46-.56-10.64-.95-23.99-2.22-34.59,5.82-1.51,11.86-.97,17.88-1.28,11.07-.57,22.34-.68,33.42.2,1.35,4.98,1.11,10.23.93,15.29-.23,6.48-.08,11.74.52,18.22Z"/>
      <rect class="cls-9" x="17.93" y="31.41" width="31.8" height="31.8" rx="6" ry="6"/>
      <rect class="cls-9" x="78.21" y="31.41" width="31.8" height="31.8" rx="6" ry="6"/>
      <rect class="cls-9" x="140.54" y="31.41" width="31.8" height="31.8" rx="6" ry="6"/>
      <rect class="cls-9" x="202.54" y="31.41" width="31.8" height="31.8" rx="6" ry="6"/>
      <g>
        <polygon class="cls-5" points="7.21 35.97 41.15 37.78 41.1 67.97 7.17 65.16 7.21 35.97"/>
        <path class="cls-8" d="M30.73,43.91c.29-.15,0-.31.05-.53.24.07.24-.13.49-.08-.02-.15-.24-.16-.15-.42.15.04.22-.06.33-.09-.06-.2-.13-.4-.08-.68.84-.39,1.08-.54,1.49-1.53.13-.02.13.07.24.09,0-.18,0-.35,0-.53.68-.26,1.23.08,2.06.59-.22.48.21.57.06.97,1.04,1.48,1.16,3.46,2.34,4.66.29-.17.26-.13.64-.17.13.24.42.31.75.36-.05.37.02.59.33.42.19.79-.8.85-.92,1.45-.14.68.38,1.41.8,1.9.01.95.85,1.66.88,2.67.04.77.91,1.22.22,2.14-.15.04-.26-.02-.24-.18-.24.09.11.24-.09.35-.18.04-.57-.14-.49.17-1-1.2-1.3-2.59-1.92-4.13-.5-.44-.67-1.92-1.39-2.41-1.26.3-2.78,1.06-4.26,1.24-.09.13-.35.11-.33.35-1.03-.03-1.72.36-1.96.75-.02.02-.26.04-.25.26,0,.02.13.2.15.15,0-.02-.38.48-.33.35-.45.99-.42,2.97-1.59,3.24-.11-.44-.81-.86-1.04-1.46.33-.2-.02-.55.42-.61.07-.33-.33-.35-.08-.59.09.02.13,0,.24,0-.13-.64-.1-.79.34-1.27-.24.11.16-.64.49-.68-.46-.69.14-1.1-.05-1.98.11-.11.35-.06.31-.35.2,0,.4,0,.59,0-.22-.35.09-.46.25-.68-.02-.22-.04-.4-.17-.51.09-.11.24.05.18-.35.18.05.11.18.26.22,0-.15.29-.31.07-.73.2.22.05-.13.31-.08-.26-.46-.06-.71.27-.94.13-.11-.1-.79.31-.68-.06-.44-.1-.73.18-.95.18.02.18.07.28.27ZM30.83,47.08c0,.26-.27.81-.14.97-.11.02-.16.11-.31.08-.02.26.09.4.3.42.91-.28,3.16-1.23,4.23-.96.13-.24.8-.5,1.04-.3-.06-1.15-1.5-2.76-1.55-3.73-.37-.05-.26-.77-.63-.97-.02.11-.31.44-.38.39-.13.22-.31.7-.58.5-.82,1.05-1.25,2.32-1.99,3.59Z"/>
      </g>
      <g>
        <polygon class="cls-5" points="68.84 35.97 102.78 37.78 102.73 67.97 68.8 66.16 68.84 35.97"/>
        <path class="cls-8" d="M98.58,47.19c.29.05.66-.17.93-.15.65.69,1.12.23,2.01,1.64.84,2.25-.41,4.44-2.27,5.28-.18.13-.27.35-.4.5-1.79.8-4.13,1.79-5.82,1.18-.2.06-.26,0-.59.06-.2-.35-.53-.16-.81-.25-1.4-.45-2.45-1.61-2.42-3.3.13,0,.2-.04.24-.15.59.03.64.09.96.34.04.42.48.62.87.93-.22-3.15-.65-6.43-.53-9.93,0-.57.07-1.03-.23-1.72-.68.04-.33.68-.76.96-.39-.22-.39-.42-.9-.43-.01-1.01.57-1.87,1.25-2.32.15-.11-.28-.49-.11-.55.15-.06.6-.26,1.12.16,0,0,.75-.06,1.12-.12,1.17-.21,1.96-.33,3.26.03.24.31.94.43,1.23.43.99.45,1.71,1.18,2.54,1.83.19.79.19,1.3.47,1.96-.13.35,0,.48,0,.9,0,.92-1.05,1.55-1.34,2.37,0,.15.22.09.17.33ZM95.79,46.91c1.22-1.02,3.01-1.6,2.01-4.05-.55-.14-1.03-1-1.53-1.29-1.18-.69-2.29-.24-3.3-.49-.02,0-.07,0-.09,0-.35.04-.64-.03-1.04.12.71,1.85.32,4.05.54,6.3.77.16,1.66-.71,2.16-.27.57-.24.64-.63,1.23-.32ZM92.93,49.35c-.17,1.91.39,2.86.47,4.76.55.14.35.27.86,0,1.14.23,2.76-1.01,3.86-1.11.47-.59,1.26-.8,1.58-1.55.13-.42.07-.46.25-.83-.26-.86-.82-1.48-1.57-1.86-2.31-.04-3.28-.16-5.44.59Z"/>
      </g>
      <g>
        <polygon class="cls-5" points="129.82 35.97 163.76 37.78 163.71 67.97 129.78 66.16 129.82 35.97"/>
        <path class="cls-8" d="M149.61,45.86c.18-1.01-.22-2.27,1.04-3.03,0-.18,0-.33,0-.51.86-.48,1.4-1.71,2.44-1.76.09-.86.71-.72,1.09-1.27.18-.04.44-.04.44.09.31.09.18-.29.33-.33.75-.32,1.58.61,2.18.02,1.03.05,1.69.59,2.34,1.25.29.02.42-.08.6-.17,1.21.19,1.1,2.61-.02,2.46-.64-.07-1.3-2.34-2.3-1.65-.35-.05-.75-.2-.75-.36-1.34-.21-1.36-.01-2.18.49-.13.07-.18.2-.18.42-.88.26-1.71,1.33-2.4,2.36-.85,1.29-1.57,3.16-1.4,4.76.18,1.83,1.01,5.4,3.37,5.07,1.12-.17,2.84-.33,3.86-.87.29-.15.49-.5.75-.65.2-.11.4.09.64-.15.38-.35.75-.85,1.33-1.07.15-.04.35.03.57-.06.57-.24.89-.72,1.57-.56.24,0,0,.53.3.49.26.57-1.06.98-1.73,1.79-.64.77-1.44,1.53-2.7,1.94-.11.02-.26-.05-.33,0-.33.17-.31.26-.84.41-1.15.32-2.25.77-3.35.54-1.98-.41-3.6-1.44-4.48-3.32-.49-1.65-1.48-4.33-.59-6.06.07-.13.29-.31.4-.28Z"/>
      </g>
      <g>
        <polygon class="cls-5" points="191.82 35.97 225.76 37.78 225.71 67.97 191.78 66.16 191.82 35.97"/>
        <path class="cls-8" d="M222.83,42.67c.59.12.85,1.17.93,1.86.07.13.26.13.39.18-.03.42.46.58.23.93.09.11.15-.04.26.18-.23.7.45,1.3-.02,2.2.32,1.68-1.36,2.63-2.01,3.83-.79.21-1.79.95-2.46,1.63-.39-.4-.6.48-.9.17-.16.46-.62.59-1.15.63-.69.35-1.7,1.02-2.45,1.28.01,1.06-1.21.47-1.23,0-.22.35-.48-.25-.97-.18.07-.2-.06-.57-.17-.29-.08-.77-.6-1.94.66-2.24.03-.83-.08-3.37-.29-4.82-.08-.57-.34-1.17-.38-1.83-.12-1.5.12-3.39-.38-4.14-.71.24-1.08.52-1.63.36-.37-.4-.49-1.39-.31-2.12.99-.37,2.01-1.02,3.35-.61.35.09.27-.3.57-.26.04.07.24.16.24.29.15-.02.24-.22.35-.31.37.09.46.14.88.21.22.05.49-.28,1.08-.17,0,0,.2.26.48.27.4,0,.82-.1,1.06.1.33.27-.02.07.42.09.48.05,1.12.74,1.38,1.11.9.49,1.64.83,2.08,1.67ZM218.93,51.57c.27-.17.47-.52.75-.72,1.86-1.33,3.43-2.35,2.88-5.02-.54-1-.98-1.64-1.58-2.54-1.33-1-3.05-1.5-4.56-1.86-.02.11-.09.15-.18.17-.48-.07-.92-.23-1.58.1.11,2.09.58,6.39.67,6.74.53,2.14.22,2.77.41,4.01.57.18.48-.06,1.17-.06.31-.66,1.46-.43,2.03-.82Z"/>
      </g>
      <path class="cls-2" d="M68.03,106.8c-.05.54-.06,1.17.33,1.48.31.24,9.99.25,14.85.22,11.79-.06,23.58.1,35.35.46.56-10.64.95-22.99,2.22-33.59-5.82-1.51-11.86-.97-17.88-1.28-11.07-.57-22.34-1.68-33.42-.8-1.35,4.98-1.11,10.23-.93,15.29.23,6.48.08,11.74-.52,18.22Z"/>
      <path class="cls-2" d="M57.79,106.8c.05.54.06,1.17-.33,1.48-.31.24-9.99.25-14.85.22-11.79-.06-23.58.1-35.35.46-.56-10.64-.95-23.99-2.22-34.59,5.82-1.51,11.86-.97,17.88-1.28,11.07-.57,22.34-.68,33.42.2,1.35,4.98,1.11,10.23.93,15.29-.23,6.48-.08,11.74.52,18.22Z"/>
      <path class="cls-2" d="M68.15,118.28c-.04-.54-.05-1.17.34-1.47.32-.24,9.99-.17,14.85-.11,11.79.15,23.58.08,35.35-.2.48,10.64-1.23,23.98-.04,34.59-5.83,1.46-38.24,1.67-49.31.72-1.31-4.99-1.03-10.24-.81-15.29.28-6.48.17-11.74-.38-18.23Z"/>
      <path class="cls-2" d="M130.03,106.8c-.05.54-.06,1.17.33,1.48.31.24,9.99.25,14.85.22,11.79-.06,23.58.1,35.35.46.56-10.64.95-22.99,2.22-33.59-5.82-1.51-11.86-.97-17.88-1.28-11.07-.57-22.34-1.68-33.42-.8-1.35,4.98-1.11,10.23-.93,15.29.23,6.48.08,11.74-.52,18.22Z"/>
      <path class="cls-2" d="M243.57,75.51c.04-.54.03-1.17-.37-1.47-.32-.24-9.99,0-14.85.15-11.79.36-23.57.5-35.35.44-.28,10.65-.36,23-1.37,33.63,5.85,1.36,11.89.67,17.91.83,11.08.29,22.37,1.11,33.43-.05,1.22-5.01.85-10.26.54-15.3-.39-6.48-.38-11.74.05-18.23Z"/>
      <path class="cls-2" d="M130.03,148.8c-.05.54-.06,1.17.33,1.48.31.24,9.99.25,14.85.22,11.79-.06,23.58.1,35.35.46.56-10.64.95-22.99,2.22-33.59-5.82-1.51-11.86-.97-17.88-1.28-11.07-.57-22.34-1.68-33.42-.8-1.35,4.98-1.11,10.23-.93,15.29.23,6.48.08,11.74-.52,18.22Z"/>
      <path class="cls-2" d="M128.03,190.8c-.05.54-.06,1.17.33,1.48.31.24,9.99.25,14.85.22,11.79-.06,23.58.1,35.35.46.56-10.64.95-22.99,2.22-33.59-5.82-1.51-11.86-.97-17.88-1.28-11.07-.57-22.34-1.68-33.42-.8-1.35,4.98-1.11,10.23-.93,15.29.23,6.48.08,11.74-.52,18.22Z"/>
      <path class="cls-1" d="M109.12,101.58c2.23,2.58,25.8,19,27.62,21"/>
      <path class="cls-1" d="M109.61,102.51c3.2,3.24,25.04,57.64,28.66,62.92"/>
      <circle class="cls-7" cx="110.1" cy="101.96" r="4.5"/>
      <circle class="cls-7" cx="138.68" cy="165.67" r="4.5"/>
      <circle class="cls-7" cx="138.59" cy="123.56" r="4.5"/>
      <path class="cls-4" d="M158.67,95.54c.41-.14.86-.13,1.28-.26.33-.11.62-.29.93-.44.47-.22.98-.33,1.49-.45,1.02-.23,2.03-.46,3.05-.69"/>
      <path class="cls-4" d="M164.27,81.15c1.1,3.8,1.53,7.79,1.28,11.74"/>
      <path class="cls-4" d="M165.28,93.48c2.04.51,5.33,1.99,7.37,2.49.24-.34.09-1.01.09-1.42.01-.91.02-1.84-.23-2.71-.15-.54-.73-3-1.98-5.13-1.64-2.8-2.87-3.41-3.6-3.92-.77-.54-1.76-1-2.56-1.48-.23-.14-.71-.03-.92.15-.86.71-1.72,1.42-2.59,2.14-.24.2-.48.4-.68.64-.36.43-.55.97-.74,1.49-.54,1.5-1.09,3.02-1.36,4.59-.27,1.58-.24,3.23.33,4.73-.14.28.47,1.06.68,1.29s.5.35.79.47c.77.31,1.56.58,2.36.8.87.24,1.78.43,2.69.32,1.24-.15,2.85-.35,4.67-.81.68-.17,2.44-.78,3.05-1.14"/>
      <path class="cls-4" d="M165.36,88.14c-.11-.07-.89.06-1.01.13-.34.19-.68.38-.94.67-.33.36-.49.83-.63,1.29-.17.54-.31,1.09-.44,1.64-.03.12-.05.24-.06.36-.02.23.03.47.07.7.05.33.06.66.08.99"/>
      <path class="cls-4" d="M166.11,88.14c1.02.15,1.96.81,2.45,1.72.22.41.35.87.46,1.32.1.41.18.83.15,1.26-.04.44-.21.86-.23,1.3-.01.28.03.58-.08.84"/>
      <path class="cls-4" d="M162.27,94.75c.2.24,2.07,1.03,2.68,1.19.3.08,2.02,0,2.31-.1.72-.26,1.39-.63,2.01-1.09"/>
      <path class="cls-3" d="M166.85,126.7c-1.68.42-3.48.89-4.59,2.08-.52.56-.85,1.25-1.1,1.94-.91,2.54-.85,5.26-.78,7.93.01.39.02.79.15,1.17.21.59.68,1.08,1.15,1.54.48.47.96.95,1.54,1.32,1.41.88,3.24,1.01,4.97,1.09.56.03,1.13.06,1.68-.05.58-.11,1.1-.37,1.62-.63,1.17-.57,2.37-1.18,3.15-2.13,1.16-1.4,1.19-3.27,1.17-5-.01-1.27-.02-2.55-.04-3.82,0-.76-.02-1.56-.44-2.24-.56-.92-1.73-1.4-2.82-1.82-.52-.2-1.04-.4-1.56-.6-.38-.15-.76-.29-1.17-.37-.67-.13-1.38-.07-2.06-.01"/>
      <path class="cls-3" d="M136.64,131.77c-.16.7.08,1.47.6,1.96s1.32.66,2,.45c.14-.04.27-.1.37-.2.1-.1.16-.22.24-.34.33-.47.97-.65,1.53-.54s1.04.48,1.41.93c.52-.12.71-.79,1.16-1.08.5-.32,1.16-.07,1.66.26s.98.74,1.57.77c.36.02.71-.12,1.06-.2.8-.2,1.64-.15,2.46-.11.18.01.36.02.53.03.93.05,1.85.1,2.78.16"/>
      <path class="cls-3" d="M134.75,140.68c.36.27.88.2,1.27-.01s.71-.54,1.07-.81c1.27-.91,3.17-.8,4.34.24.18.16.38.35.62.31.14-.03.24-.13.34-.23.59-.62,1.1-1.38,1.91-1.67.45-.16.93-.16,1.41-.15.43,0,.86.01,1.26.16.47.17.86.53,1.35.64.42.1.86,0,1.29-.07,1.43-.22,2.92-.09,4.29.37-.07-.37.11-.77.43-.96s.76-.16,1.05.07"/>
      <path class="cls-3" d="M135.26,144.28c.92.19,1.85.33,2.79.42.18.02.37.03.53-.05.16-.08.27-.23.38-.36.74-.81,1.98-.86,3.08-.85.39,0,.8,0,1.16.16.27.11.5.3.76.43.58.29,1.27.26,1.92.22,1.4-.08,2.8-.16,4.19-.23"/>
      <path class="cls-3" d="M158.9,122.74c-.27.51.2,1.09.63,1.47,2.71,2.4,5.42,4.8,8.13,7.2"/>
      <path class="cls-3" d="M146.55,118.52c.15,1.21,1.39,2.16,2.59,2.01.28-.04.56-.13.76-.33.18-.19.27-.45.47-.62.18-.16.43-.21.67-.26.83-.16,1.84-.26,2.35.41.22.28.35.7.7.77.18.03.36-.04.52-.13.45-.25.84-.59,1.29-.84s.99-.41,1.47-.24c.65.23,1.09,1.01,1.78.96.57-.04.99-.67,1.56-.67.82,0,1.19,1.21,2,1.3.28.03.55-.08.81-.16,1.06-.33,2.2-.25,3.31-.17"/>
      <path class="cls-3" d="M147.51,122.81c.22.79.96,1.4,1.78,1.48.1,0,.2.01.29-.03.32-.13.3-.6.52-.86.25-.3.71-.25,1.09-.23.58.03,1.16-.06,1.73-.03s1.19.23,1.53.69"/>
      <path class="cls-3" d="M17.1,102.26c-.63.07-1.28.07-1.87-.16s-1.11-.72-1.22-1.34c-.05-.29-.02-.59-.12-.86-.32-.93-1.72-.88-2.37-1.62-.37-.42-.43-1.02-.47-1.57-.08-.98-.16-1.97-.23-2.95-.08-.99-.15-2.02.19-2.95s1.22-1.75,2.21-1.69c.83.05,1.6.69,2.41.48.83-.21,1.17-1.18,1.78-1.78.5-.49,1.19-.74,1.85-.97.72-.25,1.44-.5,2.15-.75.53-.19,1.09-.37,1.65-.32s1.13.44,1.22.99c.04.26,0,.59.22.74.1.07.23.08.36.08,1.8,0,3.46-1.04,5.26-1.13.21-.01.43,0,.62.08.3.14.48.45.64.74.21.38.42.78.43,1.21.02.58-.31,1.19-.06,1.71.26.52.99.66,1.24,1.19.1.21.1.45.1.69,0,.44,0,.88-.12,1.3-.24.86-.98,1.53-1.83,1.81s-.72,3.76-.53,4.88c.04.24.06.48,0,.72-.17.74-.97,1.14-1.69,1.39-1.53.52-3.15.77-4.77.75-.44,0-.9-.03-1.29-.24-.29-.15-.53-.38-.79-.56-1.54-1.07-3.31-.06-4.94.11Z"/>
      <path class="cls-4" d="M17.06,91.68c.48.02.91.32,1.27.64.33.28.64.59.85.97s.33.82.25,1.24c-.12.6-.6,1.05-.96,1.54-.3.4-.53.84-.7,1.31.18,0,.37-.01.55-.02"/>
      <path class="cls-4" d="M21.06,100.14c.02.08.13-.02.13-.11,0-.83.11-1.66.36-2.45.03-.09.06-.18.12-.25.08-.08.2-.11.31-.16.64-.25,1.04-.97,1.71-1.13.52-.12,1.04.14,1.5.39.08.04,2.78,1.61,2.85,1.66"/>
      <path class="cls-4" d="M23.78,89.08c-.47.76-.75,1.65-.79,2.54-.02.33.02.71.27.93.3.26.75.18,1.14.22.52.06.98.36,1.49.45.33.06.69.03,1,.16.19.08.34.21.53.29.35.15.77.1,1.07-.13"/>
      <path class="cls-3" d="M199.51,100.69c.31,1.39.8,2.78.64,4.2,3.85-.37,7.71-.53,11.58-.48.53,0,1.18-.06,1.37-.56.06-.15.05-.31.05-.47-.05-5.08-.1-10.16-.14-15.25-1.01-.36-2.09-.43-3.16-.47-1.7-.07-3.4-.1-5.1-.09-1.43,0-3.49-.3-4.85.21-.97.36-.95,1.41-.94,2.29.02,1.63.03,3.27.04,4.9.01,1.91.09,3.84.51,5.71Z"/>
      <path class="cls-3" d="M219.06,89.04c.1.55.41,1.12.95,1.31.58.2,1.19-.09,1.77-.29s1.34-.24,1.68.26c.07.11.14.25.26.28.17.04.3-.14.42-.27.46-.49,1.28-.32,1.87,0s1.15.79,1.82.81c.67.01,1.26-.44,1.7-.95s.78-1.1,1.29-1.54,1.25-.7,1.85-.4c.47.24.77.78,1.28.91.22.06.46.02.69,0,1.14-.16,2.28-.32,3.43-.48"/>
      <path class="cls-3" d="M218.72,96.36c.03.57.43,1.11.97,1.3s1.19.03,1.58-.4c.27-.3.44-.73.81-.86.21-.08.44-.04.66-.01.6.09,1.25.21,1.63.67.13.15.22.34.36.47.33.3.85.27,1.25.08s.73-.49,1.1-.74c1.29-.84,2.95-.79,4.49-.71.27.01.54.03.8.12.14.05.26.12.4.17.14.04.28.05.43.05,1.16.05,2.41.07,3.35-.59.08.21.17.42.25.63"/>
      <path class="cls-2" d="M243.34,117.52c.04-.54.03-1.17-.37-1.47-.32-.24-9.99,0-14.85.15-11.79.36-23.57.5-35.35.44-.28,10.65-.36,23-1.37,33.63,5.85,1.36,11.89.67,17.91.83,11.08.29,22.37,1.11,33.43-.05,1.22-5.01.85-10.26.54-15.3-.39-6.48-.38-11.74.05-18.23Z"/>
      <path class="cls-3" d="M36.53,84.54c.31.36.69.75,1.16.75.4,0,.74-.26,1.09-.44.95-.5,2.18-.44,3.07.17.11.07.22.16.35.19.16.04.33,0,.5-.03,1.51-.34,3.07-.49,4.62-.46-.03.13-.05.25-.08.38.73-.09,1.46-.12,2.2-.08"/>
      <path class="cls-3" d="M37.22,91.3c.32.66,1.25.81,1.93.52s1.15-.9,1.59-1.48c.18.49.64.83,1.13.98s1.02.14,1.54.1c.36-.03.72-.07,1.07,0,.37.07.7.25,1.05.37.5.18,1.06.25,1.58.1.23-.07.45-.18.68-.26.81-.28,1.7-.2,2.56-.12"/>
      <path class="cls-3" d="M37.61,97.94c.68-.55,5.32-1.39,5.39-1.13.04.16,0,.33.04.49.08.33.46.48.79.55,2.5.58,5.13.33,7.67.73"/>
      <path class="cls-3" d="M85.03,88.5c.49-.45,1-.9,1.59-1.21.67-.35,1.41-.53,2.15-.7,1.16-.27,2.34-.54,3.53-.46,2.08.14,3.92,1.32,5.66,2.46.7.46,1.4.92,2.1,1.38,1.31.86,2.66,1.73,4.19,2.04.39.08.81.13,1.08.42.36.38.26,1.03-.09,1.42s-.88.56-1.39.66c-.66.12-1.35.14-2.02.06-.46-.06-.92-.17-1.38-.23-.68-.09-1.36-.09-2.05-.09-4.92,0-9.83-.13-14.75-.26-.8-.02-1.61-.04-2.4-.16-.69-.1-1.37-.27-2.03-.5-.21-.08-.45-.19-.49-.42-.03-.16.07-.32.18-.44.87-1.06,2.12-1.14,3.32-1.55s1.93-1.62,2.79-2.42Z"/>
      <path class="cls-3" d="M84.1,97.01c-.07.49.33.92.72,1.24,2.5,2.05,5.96,3.07,9.07,2.17.55-.16,1.09-.37,1.65-.42.27-.02.54,0,.8-.09.22-.07.41-.21.59-.35.76-.58,1.53-1.15,2.29-1.73"/>
      <path class="cls-3" d="M80.4,90.21c-1.49-.12-3-.04-4.46.23-.76.14-1.54.35-2.16.81s-1.08,1.22-.97,1.99c.15,1.11,1.33,1.77,2.41,2.08,2.11.6,4.34.55,6.54.51,6.43-.11,12.86-.05,19.29.19,1.26.05,2.53.1,3.79-.04.97-.11,1.92-.34,2.89-.45.63-.08,1.27-.11,1.86-.34s1.13-.7,1.23-1.33c-1.41-.65-2.77-1.4-4.07-2.23"/>
      <path class="cls-3" d="M80.52,96.86c-.12.35.08.71.27,1.03.74,1.23,1.5,2.5,2.66,3.35.79.58,1.71.94,2.65,1.23.25.07.5.15.71.3.15.11.27.25.42.34.26.16.59.17.9.17,2.06,0,4.12,0,6.18.01.77,0,1.55,0,2.3-.19.78-.2,1.5-.61,2.2-1.01.43-.25.87-.5,1.3-.75.15-.09.3-.17.43-.3.15-.15.25-.34.35-.54.41-.81.83-1.61,1.24-2.42"/>
      <path class="cls-3" d="M73.73,79.85c.56.65,1.51.93,2.34.7.49-.14.92-.44,1.39-.65s1.03-.33,1.48-.09c.66.34.83,1.27,1.48,1.63.48.26,1.08.14,1.57-.1s.92-.6,1.42-.82c.94-.41,2.1-.27,2.91.36.19.14.36.31.58.41s.5.09.66-.08c.1-.1.14-.25.27-.32.09-.05.21-.04.32-.02,1.54.24,3.08.48,4.62.72.39-.33.52-.94.99-1.13.17-.07.35-.07.53-.06.97.06,1.94.5,2.89.28.53-.12,1-.44,1.52-.62,1.29-.45,2.71.03,3.97.57"/>
      <path class="cls-3" d="M91.68,132.68c.04.2.13.41.31.5.1.05.22.06.34.06.2,0,.39,0,.59,0,.16,0,.32,0,.46-.09.12-.07.21-.2.27-.33.19-.42.12-.92-.11-1.32-.33-.57-.88-1.09-1.41-.56-.42.42-.56,1.16-.45,1.72Z"/>
      <path class="cls-3" d="M88.19,130.36c-1.49-.69-2.98-1.39-4.46-2.08-.35-.16-.7-.33-1-.56-.3-.24-.54-.53-.78-.83-.3-.38-.61-.76-.91-1.13"/>
      <path class="cls-3" d="M96.82,135.48c1.01,1.49,3.14,1.81,4.32,3.17"/>
      <path class="cls-3" d="M97.95,132.63c1.43.51,2.97.54,4.47.76,3.94.56,7.59,2.4,11.46,3.34.02,0,.04.02.06.03"/>
      <path class="cls-3" d="M103.78,137.32c.41-.07.83.08,1.21.24.74.31,1.46.67,2.14,1.08"/>
      <path class="cls-3" d="M97.91,130.83c3.72-1.33,7.19-3.36,10.17-5.96"/>
      <path class="cls-3" d="M95.42,128.92c-.07-.55.38-1.01.79-1.37,1.6-1.39,3.33-2.62,5.15-3.69"/>
      <path class="cls-3" d="M102.79,131.27c3.31,0,6.63.01,9.94.02"/>
      <path class="cls-3" d="M91.48,128.04c-.23-.93-.96-1.64-1.61-2.36-1.41-1.56-2.53-3.37-3.28-5.33"/>
      <path class="cls-3" d="M93.2,124.76c.28-1.42.65-2.81,1.13-4.17"/>
      <path class="cls-3" d="M85.08,133.29h-10.35"/>
      <path class="cls-3" d="M80.15,130.46c-.14.23-.45.3-.7.24s-.48-.22-.7-.36c-1.69-1.08-3.84-1.39-5.31-2.75"/>
      <path class="cls-3" d="M85.32,124.72c-1.58.02-3.04-.8-4.42-1.59-.19-.11-.38-.22-.52-.38-.09-.11-.16-.25-.28-.34-.27-.21-.69-.1-.96-.31"/>
      <path class="cls-3" d="M72.04,138.35c-.07.42.41.76.84.74s.8-.27,1.19-.46c1.37-.67,3.09-.59,4.39.22.05.03.12.07.18.06.09-.02.12-.12.16-.2.16-.3.58-.31.92-.27,1.44.15,2.86.42,4.26.82-.18-.31.02-.73.34-.9s.69-.16,1.05-.15c1.11.04,2.22.09,3.32.13.45.02.94.02,1.3-.24"/>
      <path class="cls-3" d="M73.67,143.17c-.03,1.15,1.01,2,1.94,2.66.28-.28.05-.83.33-1.11.13-.13.33-.15.51-.16,2.25-.13,4.54.39,6.51,1.5.35-.38.58-.87.65-1.38.02-.11.03-.22.11-.3.1-.1.27-.08.42-.05,1.91.4,3.83.8,5.74,1.2.17.04.34.07.51.05.21-.03.39-.14.58-.24.99-.52,2.11-.68,3.21-.84,1.59-.23,3.2-.45,4.8-.28,2.04.23,3.96,1.1,6,1.33.09-.27.03-.59-.17-.79"/>
      <path class="cls-3" d="M150.12,165.32c-.22.2.04.55.29.71.42.28.84.56,1.26.84.36.24.8.5,1.21.35.22-.08.38-.26.54-.43.9-.93,2.07-1.62,3.35-1.82s2.66.14,3.6,1.02c.07.07.15.14.25.16.18.04.34-.12.48-.25.51-.48,1.23-.68,1.93-.65s1.37.27,2,.56c.42.2.82.42,1.27.54,1.52.41,3.14-.48,4.69-.2.8.15,1.6.6,2.38.36"/>
      <path class="cls-3" d="M136.08,174.41c-.05.67.48,1.29,1.11,1.49s1.35.04,1.93-.28c.58-.33,1.07-.81,1.69-1.07,1.5-.65,3.3.25,4.22,1.6.15.22.29.46.53.57.33.15.72,0,1.04-.17.91-.47,1.76-1.05,2.52-1.74.23-.21.46-.43.76-.51.31-.09.64,0,.95.09.84.27,1.65.66,2.38,1.16.29.2.59.43.94.48.68.1,1.26-.46,1.84-.83.66-.42,1.43-.62,2.18-.81.62-.16,1.34-.3,1.86.08.35.26.51.71.86.98.44.33,1.05.27,1.6.23,1.34-.1,2.69,0,4,.27.57.12,1.29.23,1.64-.24"/>
      <path class="cls-3" d="M141.07,180.78c0,.12,0,.25.04.36.08.2.27.33.46.41.22.1.47.15.71.15.13,0,.26-.01.37-.07.15-.09.24-.25.31-.41.13-.28.27-.55.4-.83.06-.12.12-.24.1-.38-.03-.25-.3-.4-.53-.48-.47-.17-.96-.28-1.45-.33-.16-.02-.34-.02-.44.1-.27.32.23.62.49.65-.29-.47-.45.66-.46.81Z"/>
      <path class="cls-3" d="M147.79,179.64c-.22.15-.26.47-.17.72s.3.43.51.59c.58.43,1.27.72,1.99.84.28.05.6.05.82-.13.27-.23.25-.64.39-.96.19-.43.67-.67,1.14-.7s.93.1,1.38.24c1.56.47,3.12.96,4.67,1.48.14.05.28.09.43.08.28-.03.49-.28.61-.54s.21-.54.4-.75c.37-.39.99-.38,1.53-.32,1.79.17,3.57.39,5.34.7.47.08.95.17,1.43.18,1.03.01,2.03-.35,3-.71"/>
      <path class="cls-3" d="M216.58,137.17c-.05.79,0,1.62.38,2.32.3.57.79,1.02,1.31,1.41,2.57,1.93,5.92,2.57,9.13,2.46.29-.01.6-.03.86-.17.17-.09.31-.23.44-.36.7-.7,1.41-1.4,1.96-2.23,1.07-1.63,1.44-3.67,1.11-5.59-.06-.36-.15-.72-.3-1.05-.31-.66-.87-1.15-1.44-1.6-1.16-.92-2.41-1.68-3.7-2.4-.94-.52-1.98-1.29-3.1-1.35-2.31-.14-4.48,2.61-5.45,4.42-.69,1.28-1.11,2.71-1.2,4.16Z"/>
      <path class="cls-3" d="M228.83,131.46c2.35-.07,2.38.08,4.73.01.54-.02,1.09-.03,1.62.1.79.19,1.46.69,2.11,1.18.7.52,1.47,1.23,1.33,2.09-.12.7-.79,1.14-1.42,1.47-5.57,2.95-11.9,4.08-18.15,4.91-2.18.29-4.37.55-6.57.68-.42.03-.88.03-1.21-.22-.33-.25-.49-.73-.89-.83-.12-.03-.26-.02-.34-.11-.15-.14-.02-.39.12-.55,1.04-1.18,4.97-4,6.45-4.52"/>
      <path class="cls-3" d="M199.28,144.63c.32.49.96.65,1.54.73,1.13.16,2.27.19,3.41.08.1,0,.2-.02.28-.08.09-.06.14-.18.19-.28.38-.95.51-2,.4-3.02-.04-.38-.12-.76-.35-1.07-.72-.96-3.23-.95-4.27-.5-1.23.53-1.96,3.04-1.19,4.13Z"/>
      <path class="cls-3" d="M158.79,82.8c-1.02.78-2.06,1.59-2.72,2.69-.48.8-.73,1.71-.93,2.62-.44,1.98-.66,4.01-.88,6.02-.08.7-.15,1.41-.03,2.1.16.87.63,1.66,1.12,2.39.63.93,1.33,1.83,2.08,2.67.65.73,1.36,1.44,2.24,1.85,1.09.52,2.35.54,3.56.56,1.3.02,2.62.03,3.89-.27.74-.18,1.46-.47,2.16-.77,1.36-.59,2.72-1.27,3.77-2.31,2.23-2.19,2.77-5.59,2.6-8.71-.1-1.81-.4-3.63-1.17-5.27s-2.04-3.09-3.7-3.82c-.68-.3-1.42-.48-2.07-.84-.36-.2-.69-.46-1.07-.61-.47-.18-.98-.19-1.48-.24-.72-.08-4.8-.03-5.36.4-.67.51-1.34,1.03-2.01,1.54Z"/>
      <path class="cls-3" d="M197.42,121.94c.31.83,1.03,1.49,1.88,1.74.48.14,1.04.14,1.44-.16.44-.32.61-.91,1.04-1.25.48-.38,1.16-.35,1.76-.23.98.2,1.92.58,2.89.83s2.02.37,2.96.03c.71-.26,1.3-.75,1.99-1.06s1.58-.37,2.12.16c.18.18.31.42.53.55.15.09.32.13.49.15,1.48.22,2.96-.37,4.45-.36"/>
      <path class="cls-3" d="M198.53,79.34c-.07.89.64,1.71,1.49,1.98.85.26,1.79.06,2.59-.33s1.5-.96,2.24-1.46c.22-.15.47-.31.74-.32.25,0,.48.12.69.23.66.36,1.34.73,1.91,1.22.31.27.6.58.97.75.98.44,2.05-.26,3.05-.65.89-.34,1.85-.44,2.81-.54.76-.08,1.56-.15,2.27.14.25.1.48.24.73.34.32.12.66.15,1.01.16,1.06.03,2.12-.17,3.09-.58.69-.29,1.41-.7,2.15-.54"/>
      <path class="cls-3" d="M135.02,77.99c.08.39.35.72.68.94s.72.34,1.1.41c.31.06.66.08.9-.13.09-.08.16-.19.26-.24.09-.04.19-.04.29-.04.75,0,1.49,0,2.24,0,.1,0,.21,0,.3.05.1.06.16.17.24.26.21.23.56.28.87.3.43.03.87.06,1.27-.1.2-.08.38-.19.58-.25.28-.08.58-.05.87-.02.74.08,1.48.18,2.21.29.17.03.34.05.48.14.14.09.24.23.37.31.37.24.86,0,1.23-.24s.8-.53,1.22-.37"/>
      <path class="cls-3" d="M10.02,78.57c.03.9.47,1.77,1.16,2.34.29.24.65.43,1.02.37.31-.05.55-.27.81-.44,1.35-.94,3.11-.91,4.75-.86.58.02,1.29.12,1.52.65.97-.54,1.37-1.91,2.44-2.19.36-.09.74-.05,1.11.03.92.2,1.79.6,2.7.87s1.89.42,2.79.12c.11-.04.22-.08.29-.17.09-.11.1-.27.18-.39.13-.18.37-.2.59-.21,1.38-.06,2.77-.11,4.15-.17"/>
    </g>
  </g>
</svg>