<svg width="64" height="64" viewBox="0 0 64 64" fill="none" xmlns="http://www.w3.org/2000/svg">
<path d="M60 46C60 55.9411 51.9411 64 42 64C32.0589 64 24 55.9411 24 46C24 36.0589 32.0589 28 42 28C51.9411 28 60 36.0589 60 46Z" fill="white"/>
<path d="M60 18C60 27.9411 51.9411 36 42 36C32.0589 36 24 27.9411 24 18C24 8.05887 32.0589 0 42 0C51.9411 0 60 8.05887 60 18Z" fill="white"/>
<path d="M4 18C4 8.05888 12.0589 0 22 0H42V64H4V18Z" fill="white"/>
<path fill-rule="evenodd" clip-rule="evenodd" d="M42 32H30V4H42C49.732 4 56 10.268 56 18C56 25.732 49.732 32 42 32Z" fill="#00719C"/>
<path fill-rule="evenodd" clip-rule="evenodd" d="M42 60H30V32H42C49.732 32 56 38.268 56 46C56 53.732 49.732 60 42 60Z" fill="#00719C"/>
<path fill-rule="evenodd" clip-rule="evenodd" d="M32 32L24 32L24 4L32 4C39.732 4 46 10.268 46 18C46 25.732 39.732 32 32 32Z" fill="white"/>
<path fill-rule="evenodd" clip-rule="evenodd" d="M32 60L24 60L24 32L32 32C39.732 32 46 38.268 46 46C46 53.732 39.732 60 32 60Z" fill="white"/>
<path d="M36 18C36 25.732 29.732 32 22 32C14.268 32 8 25.732 8 18C8 10.268 14.268 4 22 4C29.732 4 36 10.268 36 18Z" fill="#00719C"/>
<path fill-rule="evenodd" clip-rule="evenodd" d="M22 30C28.6274 30 34 24.6274 34 18C34 11.3726 28.6274 6 22 6C15.3726 6 10 11.3726 10 18C10 24.6274 15.3726 30 22 30ZM22 32C29.732 32 36 25.732 36 18C36 10.268 29.732 4 22 4C14.268 4 8 10.268 8 18C8 25.732 14.268 32 22 32Z" fill="#00719C"/>
<path d="M36 46C36 53.732 29.732 60 22 60C14.268 60 8 53.732 8 46C8 38.268 14.268 32 22 32C29.732 32 36 38.268 36 46Z" fill="#00719C"/>
<path fill-rule="evenodd" clip-rule="evenodd" d="M22 58C28.6274 58 34 52.6274 34 46C34 39.3726 28.6274 34 22 34C15.3726 34 10 39.3726 10 46C10 52.6274 15.3726 58 22 58ZM22 60C29.732 60 36 53.732 36 46C36 38.268 29.732 32 22 32C14.268 32 8 38.268 8 46C8 53.732 14.268 60 22 60Z" fill="#00719C"/>
<path d="M8 18C8 10.268 14.268 4 22 4V4V60H8V18Z" fill="#00719C"/>
<path fill-rule="evenodd" clip-rule="evenodd" d="M20 4.14178C20.6532 4.04834 21.321 4 22 4V60H8V18C8 10.9471 13.2154 5.11224 20 4.14178ZM20 6.16592C14.3246 7.11807 10 12.054 10 18V58H20V6.16592Z" fill="#00719C"/>
</svg>
