<svg width="22" height="26" viewBox="0 0 22 26" fill="none" xmlns="http://www.w3.org/2000/svg">
<path d="M15.9211 3.03947V22.1447C15.9211 24.2841 17.3956 25.4737 18.9605 25.4737C20.4079 25.4737 22 24.4605 22 22.1447V3.18421C22 1.22574 20.5526 0 18.9605 0C17.3684 0 15.9211 1.35238 15.9211 3.03947Z" fill="#F8AB00"/>
<path d="M7.96051 12.7369V22.1448C7.96051 24.2841 9.43502 25.4737 11 25.4737C12.4474 25.4737 14.0395 24.4605 14.0395 22.1448V12.8816C14.0395 10.9231 12.5921 9.69739 11 9.69739C9.40788 9.69739 7.96051 11.0498 7.96051 12.7369Z" fill="#E37300"/>
<path d="M6.07895 22.4342C6.07895 24.1122 4.71752 25.4737 3.03947 25.4737C1.36143 25.4737 0 24.1122 0 22.4342C0 20.7561 1.36143 19.3947 3.03947 19.3947C4.71752 19.3947 6.07895 20.7561 6.07895 22.4342Z" fill="#E37300"/>
</svg>
