<svg width="93" height="68" viewBox="0 0 93 68" fill="none" xmlns="http://www.w3.org/2000/svg">
<rect x="13.2566" y="19.1898" width="29.5379" height="39.7172" rx="3.5" transform="rotate(-15.354 13.2566 19.1898)" fill="#82562C" stroke="#FFDCBA"/>
<ellipse cx="32.7566" cy="34.429" rx="11.4517" ry="16.5414" transform="rotate(-15.354 32.7566 34.429)" fill="#FFDCBA"/>
<circle cx="26.6091" cy="28.8598" r="3.18103" transform="rotate(-15.354 26.6091 28.8598)" fill="black"/>
<circle cx="38.9041" cy="39.9983" r="3.18103" transform="rotate(-15.354 38.9041 39.9983)" fill="black"/>
<path d="M35.6431 25.7194L29.8701 43.1387" stroke="black" stroke-width="3" stroke-linecap="round"/>
<g filter="url(#filter0_d_191_22)">
<rect x="32.3296" y="10.2462" width="29.5379" height="39.7172" rx="3.5" transform="rotate(9.17072 32.3296 10.2462)" fill="#82562C" stroke="#FFDCBA"/>
<ellipse cx="43.7447" cy="32.2048" rx="11.4517" ry="16.5414" transform="rotate(9.17072 43.7447 32.2048)" fill="#FFDCBA"/>
<circle cx="40.4636" cy="24.5862" r="3.18103" transform="rotate(9.17072 40.4636 24.5862)" fill="black"/>
<circle cx="47.0259" cy="39.8234" r="3.18103" transform="rotate(9.17072 47.0259 39.8234)" fill="black"/>
<path d="M49.9861 25.479L37.5034 38.9305" stroke="black" stroke-width="3" stroke-linecap="round"/>
</g>
<g filter="url(#filter1_d_191_22)">
<rect x="55.4001" y="9.90885" width="29.5379" height="39.7172" rx="3.5" transform="rotate(30.1379 55.4001 9.90885)" fill="#82562C" stroke="#FFDCBA"/>
<ellipse cx="58.2019" cy="34.4982" rx="11.4517" ry="16.5414" transform="rotate(30.1379 58.2019 34.4982)" fill="#FFDCBA"/>
<circle cx="57.8642" cy="26.21" r="3.18103" transform="rotate(30.1379 57.8642 26.21)" fill="black"/>
<circle cx="58.5397" cy="42.7864" r="3.18103" transform="rotate(30.1379 58.5397 42.7864)" fill="black"/>
<path d="M66.4367 30.4512L49.9672 38.5452" stroke="black" stroke-width="3" stroke-linecap="round"/>
</g>
<defs>
<filter id="filter0_d_191_22" x="25.0121" y="10.2587" width="36.4654" height="43.8922" filterUnits="userSpaceOnUse" color-interpolation-filters="sRGB">
<feFlood flood-opacity="0" result="BackgroundImageFix"/>
<feColorMatrix in="SourceAlpha" type="matrix" values="0 0 0 0 0 0 0 0 0 0 0 0 0 0 0 0 0 0 127 0" result="hardAlpha"/>
<feOffset dx="-1"/>
<feComposite in2="hardAlpha" operator="out"/>
<feColorMatrix type="matrix" values="0 0 0 0 0 0 0 0 0 0 0 0 0 0 0 0 0 0 0.2 0"/>
<feBlend mode="normal" in2="BackgroundImageFix" result="effect1_dropShadow_191_22"/>
<feBlend mode="normal" in="SourceGraphic" in2="effect1_dropShadow_191_22" result="shape"/>
</filter>
<filter id="filter1_d_191_22" x="35.2423" y="10.6924" width="44.9193" height="47.6117" filterUnits="userSpaceOnUse" color-interpolation-filters="sRGB">
<feFlood flood-opacity="0" result="BackgroundImageFix"/>
<feColorMatrix in="SourceAlpha" type="matrix" values="0 0 0 0 0 0 0 0 0 0 0 0 0 0 0 0 0 0 127 0" result="hardAlpha"/>
<feOffset dx="-1"/>
<feComposite in2="hardAlpha" operator="out"/>
<feColorMatrix type="matrix" values="0 0 0 0 0 0 0 0 0 0 0 0 0 0 0 0 0 0 0.2 0"/>
<feBlend mode="normal" in2="BackgroundImageFix" result="effect1_dropShadow_191_22"/>
<feBlend mode="normal" in="SourceGraphic" in2="effect1_dropShadow_191_22" result="shape"/>
</filter>
</defs>
</svg>
