<svg width="26" height="31" viewBox="0 0 26 31" fill="none" xmlns="http://www.w3.org/2000/svg">
<path d="M24.3369 4.10187C21.4481 -0.0227013 15.6968 -1.23118 11.5622 1.36967L4.27374 5.9934C2.28597 7.22815 0.907787 9.25103 0.510233 11.5366C0.165687 13.4544 0.457226 15.4248 1.38485 17.1324C0.748765 18.0781 0.324708 19.129 0.139183 20.2324C-0.284874 22.5705 0.271701 24.9875 1.64989 26.9053C4.56528 31.0298 10.2901 32.2383 14.4246 29.6375L21.7131 25.04C23.7009 23.8053 25.079 21.7824 25.4766 19.4968C25.8211 17.579 25.5296 15.6087 24.602 13.901C25.2381 12.9553 25.6621 11.9044 25.8476 10.801C26.2982 8.43662 25.7416 6.01967 24.3369 4.10187Z" fill="#FF3E00"/>
<path d="M10.8466 27.2993C8.4878 27.9036 6.02297 26.9841 4.64479 25.0137C3.79667 23.8578 3.47863 22.4129 3.71716 20.9942C3.77017 20.7578 3.82318 20.5476 3.87618 20.3112L4.0087 19.8909L4.37975 20.1536C5.25437 20.7841 6.2085 21.257 7.24214 21.5722L7.50717 21.651L7.48067 21.9137C7.45417 22.2815 7.56018 22.6756 7.77221 22.9909C8.19626 23.5951 8.93837 23.8841 9.65396 23.7002C9.81298 23.6476 9.972 23.5951 10.1045 23.5163L17.3665 18.9188C17.7375 18.6824 17.9761 18.3409 18.0556 17.9205C18.1351 17.5002 18.0291 17.0536 17.7906 16.712C17.3665 16.1078 16.6244 15.8451 15.9088 16.029C15.7498 16.0815 15.5908 16.1341 15.4582 16.2129L12.6754 17.9731C12.2248 18.262 11.7212 18.4722 11.1912 18.6036C8.83235 19.2078 6.36752 18.2883 4.98933 16.318C4.16772 15.162 3.82318 13.7171 4.08821 12.2985C4.32674 10.9324 5.17486 9.69764 6.36752 8.96204L13.656 4.36459C14.1066 4.0756 14.6101 3.86543 15.1402 3.70781C17.499 3.10357 19.9638 4.02306 21.342 5.9934C22.1901 7.14933 22.5082 8.59425 22.2697 10.0129C22.2167 10.2493 22.1636 10.4595 22.0841 10.6959L21.9516 11.1163L21.5806 10.8536C20.7059 10.2231 19.7518 9.75018 18.7182 9.43493L18.4531 9.35611L18.4796 9.0934C18.5062 8.7256 18.4001 8.33154 18.1881 8.01628C17.7641 7.41204 17.022 7.14933 16.3064 7.33323C16.1473 7.38577 15.9883 7.43832 15.8558 7.51713L8.59382 12.1146C8.22277 12.351 7.98424 12.6926 7.90473 13.1129C7.82521 13.5332 7.93123 13.9798 8.16976 14.3214C8.59382 14.9256 9.33592 15.1883 10.0515 15.0044C10.2105 14.9519 10.3696 14.8993 10.5021 14.8205L13.2849 13.0603C13.7355 12.7714 14.2391 12.5612 14.7691 12.4036C17.128 11.7993 19.5928 12.7188 20.971 14.6892C21.8191 15.8451 22.1371 17.29 21.8986 18.7087C21.6601 20.0748 20.812 21.3095 19.6193 22.0451L12.3308 26.6426C11.8803 26.9315 11.3767 27.1417 10.8466 27.2993Z" fill="white"/>
</svg>
