<svg width="14" height="22" viewBox="0 0 14 22" fill="none" xmlns="http://www.w3.org/2000/svg">
<rect width="14" height="22" rx="2" fill="#4467F2"/>
<path d="M3 9.37189V9.29182C3 8.17083 3.78125 7.20998 4.85938 7.03382C5.5625 6.90571 6.29688 7.29538 6.8125 7.82384L7 8L7.17188 7.82384C7.6875 7.29538 8.42188 6.90571 9.125 7.03382C10.2031 7.20998 11 8.17083 11 9.29182V9.37189C11 10.0445 10.7188 10.685 10.25 11.1334L7.42188 13.8398C7.3125 13.9519 7.15625 14 7 14C6.82812 14 6.67188 13.9519 6.5625 13.8398L3.73438 11.1334C3.26562 10.685 3 10.0445 3 9.37189Z" fill="#FF7897"/>
</svg>
