<svg width="20" height="20" viewBox="0 0 20 20" fill="none" xmlns="http://www.w3.org/2000/svg">
<path d="M1.03746 16.3972L5.58455 7.62696C9.35828 8.75787 11.8352 13.7067 12.5846 15.6272L3.5444 19.1792C1.82492 19.8548 0.187115 18.0373 1.03746 16.3972Z" fill="#FBD734"/>
<ellipse cx="9.10532" cy="11.6077" rx="1.5338" ry="5.34998" transform="rotate(-39.9373 9.10532 11.6077)" fill="#F4B82F"/>
<path d="M7.5 10C7.63242 9.61303 7.88416 9.33332 8.02327 9.05047C8.39043 8.3039 8.64973 7.49352 8.64973 6.65419C8.64973 5.86093 8.53183 5.11137 8.14016 4.41317C7.94941 4.07314 7.74041 3.8067 7.48813 3.51091C7.36112 3.36201 7.277 3.18837 7.13745 3.04883" stroke="#276FF6" stroke-linecap="round"/>
<path d="M9.58472 11.6535C9.67171 11.5038 9.6661 11.3039 9.6661 11.1378C9.6661 10.9241 9.69897 10.7017 9.72244 10.4891C9.77141 10.0454 9.83242 9.59439 9.92668 9.15802C9.9653 8.97923 10.0012 8.79004 10.0621 8.6173C10.1318 8.41946 10.241 8.25399 10.3719 8.09224C10.502 7.9316 10.6399 7.76089 10.8086 7.63916C10.9822 7.51378 11.1907 7.4187 11.3955 7.35745C11.5757 7.30355 11.8273 7.2779 12.0066 7.34806C12.1974 7.42274 12.3346 7.52576 12.4753 7.67046C12.6421 7.84189 12.7809 8.04247 12.8854 8.25735C12.9282 8.34556 12.9426 8.43916 12.955 8.53592C12.9776 8.71151 12.9974 8.89315 12.9887 9.07038C12.9794 9.25761 12.9072 9.42564 12.7226 9.49842C12.5752 9.55653 12.4273 9.60369 12.2789 9.52815C12.1639 9.46959 12.066 9.38486 11.9808 9.2887C11.8951 9.19206 11.7919 9.09528 11.728 8.98196C11.5847 8.7276 11.4494 8.41443 11.4408 8.11806C11.4212 7.43648 11.3586 6.66937 11.7617 6.07413C11.972 5.7636 12.2071 5.47172 12.5285 5.27127C12.9103 5.03319 13.2758 4.81827 13.718 4.7149C14.407 4.55383 15.065 4.96072 15.5741 5.38943C16.0998 5.83214 16.4517 6.40965 16.607 7.07888C16.6592 7.30389 16.6809 7.5706 16.6094 7.7941C16.566 7.92975 16.4105 8.05811 16.269 8.0758C16.0336 8.10523 15.8356 7.95429 15.6445 7.83635C15.3144 7.63258 15.0731 7.26539 14.8957 6.92942C14.675 6.51178 14.4736 6.08827 14.3455 5.63279C14.2689 5.36043 14.2297 5.08557 14.1883 4.80567C14.1478 4.53291 14.1734 4.24249 14.1734 3.96681C14.1734 3.66555 14.1734 3.36428 14.1734 3.06301C14.1734 2.91798 14.1734 2.77296 14.1734 2.62793" stroke="#FF66B3" stroke-linecap="round"/>
<path d="M11.0001 13.6626C11.5158 13.2451 12.0765 12.9024 12.6909 12.643C13.0801 12.4787 13.4629 12.3441 13.8812 12.2782C14.3657 12.2019 14.8511 12.1479 15.3375 12.0871C15.9258 12.0136 16.5392 12.0593 17.1261 12.1211C17.2634 12.1356 18.3755 12.4394 18.5002 12.4961" stroke="#F2335D" stroke-linecap="round"/>
<path d="M13.9999 14.0868C15.0028 13.9102 15.8877 14.0042 16.381 14.8498" stroke="#276FF6" stroke-linecap="round"/>
<path d="M10.6294 4.5C10.8175 3.93267 11.431 2.78354 11.0241 1.85643C10.9523 1.69295 10.7442 1.15631 10.5 1" stroke="#47BF7B" stroke-linecap="round"/>
<path d="M15.007 10.0873C15.1911 9.99249 15.4233 9.96571 15.6226 9.91894C15.9259 9.84777 16.2314 9.87664 16.5384 9.87646C16.7422 9.87634 17.3023 9.96404 17.5 10.0273" stroke="#FFA931" stroke-linecap="round"/>
</svg>
