<?xml version="1.0" encoding="UTF-8"?>
<svg xmlns="http://www.w3.org/2000/svg" xmlns:xlink="http://www.w3.org/1999/xlink" viewBox="0 0 955.79 616.16">
  <defs>
    <style>
      .cls-1 {
        stroke: #666;
      }

      .cls-1, .cls-2, .cls-3, .cls-4, .cls-5, .cls-6, .cls-7, .cls-8, .cls-9, .cls-10, .cls-11, .cls-12 {
        fill: none;
      }

      .cls-1, .cls-2, .cls-4, .cls-13, .cls-5, .cls-6, .cls-14, .cls-7, .cls-8, .cls-9, .cls-15, .cls-10, .cls-11, .cls-12 {
        stroke-miterlimit: 10;
      }

      .cls-16 {
        fill: #aad1a6;
      }

      .cls-17 {
        fill: #ffe6a7;
      }

      .cls-18 {
        fill: url(#linear-gradient-2);
      }

      .cls-19 {
        fill: #82c5d4;
      }

      .cls-20 {
        fill: #fcfcfc;
      }

      .cls-21 {
        fill: #ddd2b6;
      }

      .cls-22, .cls-23 {
        fill: #d4e6f0;
      }

      .cls-2, .cls-4, .cls-5, .cls-6, .cls-7, .cls-10, .cls-11 {
        stroke-linecap: round;
      }

      .cls-2, .cls-4, .cls-6 {
        stroke: #87c3d7;
      }

      .cls-24 {
        fill: #fff;
      }

      .cls-25 {
        fill: rgba(235, 219, 169, .5);
      }

      .cls-26 {
        fill: #d0efb9;
      }

      .cls-23 {
        opacity: .67;
      }

      .cls-27 {
        fill: #e0e7eb;
        opacity: .39;
      }

      .cls-28 {
        fill: url(#linear-gradient-4);
      }

      .cls-29 {
        fill: #57b4c9;
      }

      .cls-4, .cls-10 {
        opacity: .65;
      }

      .cls-13 {
        fill: #873bd1;
        stroke: #fff;
      }

      .cls-5 {
        stroke-dasharray: 4.92 3.93;
      }

      .cls-5, .cls-15 {
        stroke: #000;
      }

      .cls-30 {
        fill: url(#linear-gradient-3);
      }

      .cls-31 {
        fill: url(#linear-gradient-5);
      }

      .cls-32 {
        fill: #e2c9c0;
      }

      .cls-6 {
        opacity: .72;
      }

      .cls-14 {
        stroke: #6d6d6d;
      }

      .cls-14, .cls-33 {
        fill: #beb2b2;
      }

      .cls-7 {
        stroke: #67a0b6;
      }

      .cls-34 {
        fill: #8ccad3;
      }

      .cls-35 {
        fill: #bbbfbb;
      }

      .cls-36 {
        fill: #b8d3b6;
      }

      .cls-8 {
        stroke: #444;
      }

      .cls-37 {
        fill: #d7b8ac;
      }

      .cls-9 {
        stroke: #4d4d4d;
      }

      .cls-38, .cls-15 {
        fill: #a8d2a6;
      }

      .cls-10, .cls-11 {
        stroke: #9fd3e0;
      }

      .cls-39 {
        fill: #d0a99e;
      }

      .cls-40 {
        fill: #cfe6f5;
        opacity: .35;
      }

      .cls-41 {
        fill: rgba(235, 219, 169, .25);
      }

      .cls-42 {
        fill: url(#linear-gradient);
      }

      .cls-43 {
        fill: #a49091;
      }

      .cls-44 {
        fill: #f7f7f7;
      }

      .cls-12 {
        stroke: #333;
      }

      .cls-45 {
        fill: #e8e8e8;
      }
    </style>
    <linearGradient id="linear-gradient" x1="477.09" y1="398.34" x2="477.09" y2="15.33" gradientUnits="userSpaceOnUse">
      <stop offset="0" stop-color="#e9efcf"/>
      <stop offset=".09" stop-color="#b1d8d0"/>
      <stop offset=".18" stop-color="#82c5d2"/>
      <stop offset=".26" stop-color="#5cb5d3"/>
      <stop offset=".35" stop-color="#3ea9d4"/>
      <stop offset=".43" stop-color="#29a0d5"/>
      <stop offset=".51" stop-color="#1c9bd5"/>
      <stop offset=".59" stop-color="#189ad6"/>
      <stop offset=".71" stop-color="#1896d5"/>
      <stop offset=".82" stop-color="#1b8bd3"/>
      <stop offset=".93" stop-color="#2079d1"/>
      <stop offset="1" stop-color="#2569cf"/>
    </linearGradient>
    <linearGradient id="linear-gradient-2" x1="467.52" y1="226.41" x2="494.6" y2="274.99" gradientUnits="userSpaceOnUse">
      <stop offset="0" stop-color="#bee4ed" stop-opacity=".5"/>
      <stop offset="1" stop-color="#fff" stop-opacity="0"/>
    </linearGradient>
    <linearGradient id="linear-gradient-3" x1="559.1" y1="174.39" x2="583.25" y2="217.72" gradientUnits="userSpaceOnUse">
      <stop offset="0" stop-color="#e3fffd" stop-opacity=".6"/>
      <stop offset="1" stop-color="#f5fcfb" stop-opacity="0"/>
    </linearGradient>
    <linearGradient id="linear-gradient-4" x1="457.07" y1="208.57" x2="516" y2="314.29" gradientUnits="userSpaceOnUse">
      <stop offset="0" stop-color="#fff" stop-opacity=".2"/>
      <stop offset="1" stop-color="#fff" stop-opacity="0"/>
    </linearGradient>
    <linearGradient id="linear-gradient-5" x1="375.75" y1="226.76" x2="439.38" y2="340.92" gradientUnits="userSpaceOnUse">
      <stop offset="0" stop-color="#cee5ed" stop-opacity=".5"/>
      <stop offset="1" stop-color="#fff" stop-opacity="0"/>
    </linearGradient>
  </defs>
  <g id="water">
    <path class="cls-34" d="M14.53,398.34c.68,8.77,2.11,12.65,4.91,15.96,8.19,9.67,15.74,5.92,25.33,11.24,1.12.62,3.41,3.92,4.18,8.19,1.55,8.58-12.52,18.5-8.39,24.45,4.75,18.76,34.89,18.75,39.5,20.43,32.62,11.9,7.43,39.05,17.39,53.1,7.3,10.3,13.43,8.39,20.52,10.58,10.78,3.33,24.32,1.49,32.33,9.99,17.54,18.6,79.26,20.02,102.46,20.02,29.81,0,40.27,17.33,86.15,17.33,21.29,0,23.14-12,64.57-12,70.53,0,20.34,20.25,138.56,20.25,99.14,0,48.19-54.88,95.45-54.88,60.78,0,19.44-16.12,63.4-16.12s17.29-25.12,67.09-25.12c39.04,0,35.62-9.79,86.69-9.79,16.12,0,36.13,2.42,43.8-20.33,4.55-13.5,4.61-12.67,12.39-21.53,5.28-6.01,12.42-5.37,18.31-9.64,9.65-7,10.89-20.78,10.45-42.12"/>
  </g>
  <g id="beach">
    <path class="cls-21" d="M288.85,382.39c-3.01,1.62-61.96,13.98-64.83,15.83s-19.33,1.82-17.09,4.4c1.47,1.69-2.17,3.38,2.38,3.81,2.23.21,5.24,2.22,6.54,4.04,1.31,1.82,13.4,3.88,17.65,4.4,7.21,1.17,33.81-5.56,37.69-5.19,1.76.17,19.83,3.33,15.38,4.75-3.71,1.18-29.09,4.66-33.44,4.68-18.81.07-25.25,2.4-24.56,4.32,1.12,3.15,5.83,4.51,6.69,7.74.27,1-.08,2.17.48,3.04.29.45.78.73,1.26.98,6.49,3.29,14.19,2.98,21.39,1.91,7.2-1.07,14.41-2.83,21.66-2.18,1.21.11,2.48.32,3.39,1.11.89.78,1.3,2,2.18,2.79.99.89,2.41,1.07,3.74,1.2,35.98,3.54,72.25-4.56,108.33-2.18,14.56.96,29.17-4.33,43.3-.66,3.27.85,6.53,2.03,9.92,1.99,2.99-.04,5.88-1.03,8.7-2.01,4.73-1.64,9.46-3.28,14.19-4.92,1.61-.56,3.28-1.16,4.49-2.36,1.27-1.28,1.85-3.07,2.7-4.66,4.94-9.23,17.61-10.3,28.05-9.51-1.35,3.69.9,7.92,4.18,10.09,3.28,2.17,7.33,2.74,11.23,3.17,4.57.51,9.29.89,13.66-.52,2.72-.88,5.17-2.41,7.78-3.6,8.71-3.96,18.66-3.83,28.23-3.61,5.57.12,11.28.27,16.43,2.41,2.06.85,3.98,2.01,6.04,2.85,11.75,4.8,24.81-1.26,37.44-2.51,14.43-1.43,29.69,3.45,43.13-2,3.79-1.54,7.27-3.85,11.21-4.94,9-2.5,19.72,1.51,27.36-3.85,6.39-4.48,14.58-6.49,22.37-6.84,7.8-.36,15.91-.52,22.85-4.08,1.88-.97,3.89-3.01,2.9-4.88l-30.48-.98"/>
  </g>
  <g id="sky_tests_darker" data-name="sky tests darker">
    <path class="cls-42" d="M126.38,15.33h701.41c61.73,0,111.85,50.12,111.85,111.85v271.16H14.53V127.18c0-61.73,50.12-111.85,111.85-111.85Z"/>
  </g>
  <g id="far_mountains" data-name="far mountains">
    <path class="cls-35" d="M367.27,332.35c11.5-11.85,24.48-22.27,38.55-30.94.99-.61,2-1.22,3.13-1.49,1.18-.29,2.42-.19,3.63-.07,6.05.61,12.05,1.8,17.88,3.54,3.62,1.08,7.25,2.39,11.02,2.5,7.17.21,14.85-3.79,21.15-.36,3.9,2.12,5.92,6.49,7.75,10.54,3.62,8.03,7.71,16.21,14.58,21.72,10.67,8.57,25.69,8.92,39.27,7.24,2.74-.34,5.54-.77,7.93-2.12,9-5.09,1.22-12.58,3.54-20.53,3.45-11.87,8.78-23.38,15.82-34.17,3.65-5.59,8.06-11.24,14.94-14.28,3.18-1.41,6.8-2.21,9.66-4.02,3.03-1.92-2.8-7.36-.51-9.85,2.29-2.5,9.66-1.58,13.51-1.61,3.02-.02,3.78,4.55,6.75,4.93,3.91.5,11.08,11.3,14.88,12.21,2.25.54,4.13,1.79,5.88,3.04,6.36,4.56,14.65-6.18,22.11-2.87,5.26,2.33,11.19,3.66,16.08,6.46,3.93,2.25,7,5.35,9.57,8.63,4.64,5.94,7.8,12.63,9.23,19.56.57,2.77,2.57,5.51,3.36,8.23,2.54,8.73.05,18.37-4.99,25.93-5.04,7.56-12.41,13.28-20.14,18.07-17.55,10.87-37.69,17.54-58.26,19.3"/>
    <path class="cls-36" d="M910.78,398.34c-13.77,1-31.94-4.72-42.17-13.24-1.83-1.52-3.58-3.19-5.8-4.17-1.83-.81-3.88-1.09-5.81-1.69-15.07-4.68-16.64-25.2-30.27-32.73-7.33-4.04-11.72-.82-16.65-7.23-1.98-2.58-7.72-9.76-10.45-11.68-13.8-9.67-39.71-6.35-44.3-9.21-10.8-6.73-14.49,4.37-67.67-40.43-9.67-8.14-15.85-23.78-14.53-35.17s-11.54-21.85-23.85-15.67c-2.31,1.16-11.28-.37-13.89,0-2.77.39-9.16,6.74-11.89,6.15-5.81-1.24-12.7,20.83-15.39,22.26-1.47.78-2.53,2.08-3.47,3.38-2.21,3.03-4.07,6.27-5.56,9.65-3.17,7.2-5.19,6.31-8.22,13.56-3.03,7.25-12.26,8.66-20.1,11.56-7.83,2.89-15.2,7.66-17.89,15-2.78,7.58-18.56,16.91-19.81,24.83-1.13,7.13-4.73,13.81-5.5,20.97-.67,6.24.83,12.48,1.69,18.7,1.26,9.18,1.1,18.48.94,27.73"/>
  </g>
  <g id="beach_fixer" data-name="beach fixer">
    <path class="cls-21" d="M270.33,391.67c-1.99-.1-4.09-.18-5.83.77-1.75.95-2.89,3.31-1.82,4.99.83,1.31,2.56,1.66,4.1,1.89,5.48.82,10.97,1.64,16.45,2.46,2.27.34,4.62.67,6.82.02,2.9-.87,5.03-3.3,6.98-5.61.77-.92,1.6-2.03,1.32-3.2-.36-1.49-2.21-1.97-3.73-2.14-7.99-.88-16.06-.72-24.1-.57"/>
    <path class="cls-21" d="M712.39,392.47c-1.99-.1-4.09-.18-5.83.77-1.75.95-2.89,3.31-1.82,4.99.83,1.31,2.56,1.66,4.1,1.89,5.48.82,10.97,1.64,16.45,2.46,2.27.34,4.62.67,6.82.02,2.9-.87,5.03-3.3,6.98-5.61.77-.92,1.6-2.03,1.32-3.2-.36-1.49-2.21-1.97-3.73-2.14-7.99-.88-16.06-.72-24.1-.57"/>
  </g>
  <g id="background_cliffs_detail" data-name="background cliffs detail">
    <path class="cls-39" d="M306.21,295.28c4.24,2.85,8.86,7.65,11.23,11.79,2.37,4.14,3.43,9.26,2.99,13.92-.39,4.06-2.22,7.88-4.12,11.56-.74,1.44-1.51,3.1-.84,4.57.81,1.77,3.21,2.29,5.28,2.46,5.19.44,10.51.19,15.48-1.28s9.57-4.22,12.61-8.13c4.03-5.18,5-12.14,3-18.24-2-6.1-6.79-11.28-12.76-14.49-5.97-3.21-13.03-4.5-19.93-4.14"/>
    <path class="cls-33" d="M202.94,375.1c5.31,8.49,8.09,18.32,7.97,28.12,2.2-.73,6.53-2.02,8.6-1.02,1.44.7,2.35,2.11,3.8,2.81,2.73,1.32,6.49-.3,8.98,1.38.98.66,1.56,1.72,2.5,2.41,1.38,1.01,3.29,1.08,5.05,1.01,5.55-.24,13.26-.67,18.27-2.87,2.25-.99,6.08-3.3,8.22-6.08s3.44-3.24,6.92-4.62c3.48-1.38,6.11-1.17,9.89-.97,5.1.27,8.54-.38,10.84,3.92,3.14,5.85,6.76,4.31,7.59,5.33.54.67,9.82,1.85,10.66,2.17,8.72,3.28,7-.7,15.72,2.58,3.01,1.13,5.34.78,8.58,1s4.23.69,6.33-1.6c3.56-3.89,1.64-10.04-1.93-13.92s-8.51-6.58-11.87-10.62c-4.28-5.15-5.55-11.92-9.26-17.43-4.39-6.53-11.94-10.84-19.89-13.13s-16.37-2.74-24.7-3.05c-10.77-.4-21.91-.5-31.87,3.28-12.05,4.58-21.66,14.58-34.55,16.38"/>
    <path class="cls-9" d="M204.76,374.53c5.31,8.49,8.09,18.32,7.97,28.12,2.2-.73,4.71-1.45,6.78-.44,1.44.7,2.35,2.11,3.8,2.81,2.73,1.32,6.49-.3,8.98,1.38.98.66,1.56,1.72,2.5,2.41,1.38,1.01,3.29,1.08,5.05,1.01,5.55-.24,13.26-.67,18.27-2.87,2.25-.99,6.11-3.28,8.22-6.08s3.44-3.24,6.92-4.62c3.48-1.38,6.11-1.17,9.89-.97,5.1.27,8.54-.38,10.84,3.92,3.14,5.85,6.76,4.31,7.59,5.33.54.67,9.82,1.85,10.66,2.17,8.72,3.28,7-.7,15.72,2.58,3.01,1.13,5.34.78,8.58,1s4.23.69,6.33-1.6c3.56-3.89,1.64-10.04-1.93-13.92s-8.51-6.58-11.87-10.62c-4.28-5.15-5.55-11.92-9.26-17.43-4.39-6.53-11.94-10.84-19.89-13.13s-16.37-2.74-24.7-3.05c-10.77-.4-21.91-.5-31.87,3.28-12.05,4.58-21.66,14.58-34.55,16.38"/>
  </g>
  <g id="background_cliffs" data-name="background cliffs">
    <path class="cls-26" d="M490.92,365.37c-8.26-8.56-28.44-31.32-39.97-35.6-16.88-6.27-42.43.19-57.96-8.56-7.49-4.22-14.2-13.25-19.9-19.4-5.71-6.15-13.03-11.36-20.16-12.95-6.67-1.48-7.96-3.69-14.79-4.23-6.83-.54-19.51.18-26.04,2.1-3.82,1.12-6.76,4.14-6.85,6.86-.05,1.65,3.24,3.24,4.68,4.22,1.45.98,3.29,1.66,5,2.17,5.07,1.5,5.67,1.42,10.5,3.58,4.75,2.13,11.07,6.05,12.26,10.83.56,2.26,1.09,4.79-.26,6.75-1.33,1.94-3.88,3.91-6.17,4.83-13.78,5.56-25.02,7.39-39.28,2.97-3.43-1.06-6.76-2.41-10.23-3.33-4.1-1.09-14.33-3.06-18.37-2.51-5.76.77-29.56,10.42-39.47,18.84-9.54,8.1-24.04,23.3-26.86,32.12-.37,1.17,7.71.62,9.01.41,4.77-.78,7.42-.84,10.82-.06,3.95.9.41,4.99,4.33,3.96s8.84-2.44,12.91-2.5c6.82.24,5.37,10.3,10.97,12.3s9.23,2.92,14.01-.23c7.59-5-2.84-16.21,5.78-21.5,1.67-1.02,7.96-3.78,17.07-3.83,5.79-.03,11.66,1.64,14.33,5.93,1.89,3.03.2,5.19,1.3,7.07,1.4,2.42,4.2,2.7,7.1,2.11,2.62-.53,2.77-4.31,6.79-4.46.84-.03,2.73.56,3.25,1.88,2.18,5.45.12,11.7,1.42,17.44,1.67,7.35,10.58,12.32,18.51,14.03s16.21.6,24.26-.51"/>
    <path class="cls-9" d="M475.45,351.46c-8.26-8.56-16.95-17.41-28.47-21.69-16.88-6.27-37.43-1.81-52.96-10.56-7.49-4.22-12.77-10.98-18.48-17.13s-12.56-12.1-21.18-13.6c-6.74-1.18-13.37-3.3-20.2-3.85-6.83-.54-13.84-.08-20.27,2.13-3.14,1.08-6.59,3.22-5.75,6.59.17.66.52,1.28.98,1.8,1.62,1.84,4,2.56,6.31,3.24,5.07,1.5,10.2,3.01,14.69,5.64,4.49,2.63,8.33,6.56,9.51,11.35.56,2.26.47,4.78-.88,6.74-1.33,1.94-3.66,3.08-5.94,4-13.78,5.56-29.81,6.2-44.06,1.78-3.82-1.18-10.09-3.1-14-4.02-3.64-.85-6.95-.18-10.49.96-12.91,4.16-25.92,8.69-35.96,17.22-10.49,8.92-28.37,24.86-28.37,33.45,6.41-1.17,12.44-2.14,16.39-1.24,3.95.9,1.28,5.96,5.19,4.94,3.91-1.03,7.82-2.3,11.89-2.35,6.82.24,6.73,9.57,12.33,11.57,5.47,1.95,10.58,2.06,15.36-1.08,7.59-5-2.39-15.71,6.23-21,1.67-1.02,5.52-3.7,14.64-3.75,5.79-.03,11.54,1.83,14.22,6.12,1.89,3.03.2,5.19,1.3,7.07,1.4,2.42,4.31,2.5,7.21,1.91,2.61-.53,2.73-3.92,6.37-4.07.8-.03,1.52.45,1.75,1.16,1.78,5.55-.62,11.79.69,17.54,1.67,7.35,9.27,12.55,17.2,14.26s16.21.6,24.26-.51"/>
    <path class="cls-16" d="M589.13,334.53c9.26-4.12,17.29-5.05,27.33-6.46,10.28-1.45,15.78-3.36,26-1.57,11.72,2.04,31.99,7.11,36.32,18.44,2.05,5.38,8.9,10.59,12.8,12.13,5.02,1.98,6.99,4.21,9.12,6.24,2.23,2.13,4.58,4.13,8.43,8.83,3.76,4.57,16.53,11.43,21.59,14.31,5.03,2.87,6.99,3.69,12.44,5.64,5.55,1.98,13.04,4.98,19.11,4.96.99,0,4.58.14,4.54,1.13-.03.68-.33,1.36-.89,1.84-1.1.94-7.29.6-8.73.8-6.56.9-12.4-.6-19-1.14-5.28-.44-8.61-1.39-13.87-.74-4.94.61-9.26,4.96-14.05,6.31-18.73,5.27-40.72-.35-59.76-4.34"/>
    <path class="cls-9" d="M590.85,333.77c9.26-4.12,19.33-6.07,29.37-7.49,10.28-1.45,20.78-2.36,31.01-.57,11.72,2.04,23.19,7.97,29.27,18.47,2.1,3.63,5.45,6.4,9.35,7.94,10.27,4.06,17.43,14.18,26.04,21.15,4.52,3.66,9.06,7.34,14.12,10.22,5.03,2.87,10.49,4.91,15.95,6.86,5.39,1.93,13.25,5.56,18.94,5.53,1.83,0,2.82,2.31,1.45,3.52-.01,0-.02.02-.03.03-1.1.94-2.61,1.21-4.05,1.41-6.56.9-15.5-.68-22.1-1.22-5.28-.44-10.59-1.33-15.84-.68-4.94.61-9.6,2.56-14.38,3.9-18.73,5.27-38.66,1.3-57.7-2.7"/>
    <path class="cls-1" d="M313.68,297.85c3.18,3.65,4.53,5.52,6.9,9.66,2.37,4.14,3.36,7.76,2.91,12.42-.39,4.06-1.86,6.21-3.76,9.9"/>
  </g>
  <g id="background_High_Level" data-name="background High Level">
    <path class="cls-43" d="M660.98,412.49c-2.25-1.85-3.93-4.39-4.76-7.18-1.12-3.76-.73-7.91-2.33-11.49-.71-1.6-1.78-3-2.73-4.47-1.21-1.88-2.22-3.89-3.3-5.85-1.22-2.21-2.54-4.4-4.3-6.21s-4-3.24-6.49-3.66c-1.2-.2-2.56-.22-3.38-1.11-.92-.99-.97-2.88-2.29-3.19-.77-.18-1.54.35-2.32.27-1.36-.14-1.84-1.88-1.83-3.25s-.1-2.87-1.27-3.58c-.46-2.61-2.69-4.6-5.13-5.61-2.44-1.01-5.13-1.24-7.74-1.65s-5.3-1.05-7.36-2.72c-3.08-2.5-6.97-10.63-7.48-14.57-5.1-.41-11.11,1.67-14.36,5.61s-4.44,9.51-3.07,14.44c1.54,5.53,6.04,10.22,6.13,15.96.08,5.32-3.72,10.5-2.28,15.63,1.55,5.52,8.31,7.93,10.86,13.06.79,1.59,1.13,3.37,1.81,5.02,1.95,4.72,4.34,2.79,8.18,2.02,4.57-.92,9.28-.75,13.91-.58,4.88.18,9.77.36,14.65.55.79.03,1.6.05,2.33-.25s1.34-1.03,1.25-1.81c3.03,1.33,6.4,1.84,9.69,1.47,1.63-.18,3.29-.58,4.89-.2,1.57.37,2.86,1.44,4.23,2.3s3.04,1.53,4.57,1.01"/>
    <path class="cls-8" d="M660.98,412.49c-2.25-1.85-3.93-4.39-4.76-7.18-1.12-3.76-.73-7.91-2.33-11.49-.71-1.6-1.78-3-2.73-4.47-1.21-1.88-2.22-3.89-3.3-5.85-1.22-2.21-2.54-4.4-4.3-6.21s-4-3.24-6.49-3.66c-1.2-.2-2.56-.22-3.38-1.11-.92-.99-.97-2.88-2.29-3.19-.77-.18-1.54.35-2.32.27-1.36-.14-1.84-1.88-1.83-3.25s-.1-2.87-1.27-3.58c-.46-2.61-2.69-4.6-5.13-5.61-2.44-1.01-5.13-1.24-7.74-1.65s-5.3-1.05-7.36-2.72c-3.08-2.5-6.97-10.63-7.48-14.57-5.1-.41-11.11,1.67-14.36,5.61s-4.44,9.51-3.07,14.44c1.54,5.53,6.04,10.22,6.13,15.96.08,5.32-3.72,10.5-2.28,15.63,1.55,5.52,8.31,7.93,10.86,13.06.79,1.59,1.13,3.37,1.81,5.02.68,1.64,1.84,3.25,3.55,3.75"/>
    <path class="cls-39" d="M595.88,199.87c-4.5,2.83-10.23,8.54-12.58,14.28-2.35,5.74-3.64,10.71-3.62,16.91,0,2.31.49,6.34-1.38,7.7-1.28.94-3.03.91-4.56.53-3.41-.85-6.32-3.24-8.25-6.19-1.92-2.95-2.93-6.41-3.39-9.9-.63-4.69-.24-9.71,2.31-13.7,2.41-3.76,6.45-6.15,10.54-7.92,5.02-2.17,10.34-3.61,15.77-4.27"/>
    <path class="cls-9" d="M596.87,201.55c-4.5,2.83-10.23,8.54-12.58,14.28-2.35,5.74-2.62,9.02-2.6,15.22"/>
    <path class="cls-33" d="M608.69,413.54c-.11-6.23-2.99-12.06-4.62-18.07-.91-3.35-2.33-7.27-2.94-10.69-.68-3.81-2.66-9.39-2.38-13.25,1.15-15.6,1.35-26.67,1.47-42.31.05-7.5-8.15-8.91-9.18-8.92s-2.4-1.49-3.42-1.31c-2.96.53-4.96,4.19-7.95,3.86-1.59-.18-2.84-1.53-3.37-3.04-.53-1.5-.48-3.14-.4-4.74.24-4.5.66-8.99,1.08-13.47-8.16-3.56-15.1-10.58-19.75-18.17-8.64-14.11-8.91-32.38-18.63-45.77-1.82-2.5-4.03-4.85-6.9-6.01-2.66-1.07-5.62-1.03-8.49-.96-4.6.1-9.37.24-13.52,2.24-7.11,3.42-10.68,11.33-13.7,18.62-6.79,16.44-13.59,32.88-19.54,49.65-5.86,1.43-9.28,9.24-8.09,15.16s5.59,10.68,10.38,14.35c6.31,4.83,13.56,8.33,21.04,11.01,5.53,1.98,11.5,3.71,15.43,8.06,3.7,4.08,4.95,9.78,5.68,15.24.73,5.46,1.12,11.11,3.56,16.05,1.93,3.92,5.01,7.09,7.76,10.43,2.33,2.83,4.32,5.9,6.79,8.62,3.43,3.77,7.43,5.75,12.29,7.07,3.54.96,8.56,3.08,12.18,1.95,1.14-.36,1.88-1.3,2.95-1.71,1.26-.49,2.28.04,3.47.49,2.5.94,5.11,1.35,7.77.99,1.79-.24,3.63-.81,5.37-.33,1.29.35,2.36,1.23,3.56,1.8,2.59,1.22,5.59.92,8.44,1.09s6.05,1.1,7.3,3.67"/>
    <path class="cls-9" d="M610.76,413.21c-.11-6.23-2.86-11.41-4.5-17.43-.91-3.35-2.29-6.58-2.9-10-.68-3.81-2.56-9.54-2.27-13.4,1.15-15.6-1.57-26.28-1.08-41.92.28-8.86-5.97-10.61-7-10.67-3-.17-4.56-1.92-5.57-1.73-2.96.53-4.96,4.19-7.95,3.86-1.59-.18-2.84-1.53-3.37-3.04-.53-1.5-.48-3.14-.4-4.74.24-4.5.66-8.99,1.08-13.47-8.16-3.56-15.1-10.58-19.75-18.17-8.64-14.11-8.91-32.38-18.63-45.77-1.82-2.5-4.03-4.85-6.9-6.01-2.66-1.07-5.62-1.03-8.49-.96-4.6.1-9.37.24-13.52,2.24-7.11,3.42-10.68,11.33-13.7,18.62-6.79,16.44-13.59,32.88-19.54,49.65-5.86,1.43-9.28,9.24-8.09,15.16s5.59,10.68,10.38,14.35c6.31,4.83,13.56,8.33,21.04,11.01,5.53,1.98,11.5,3.71,15.43,8.06,3.7,4.08,4.95,9.78,5.68,15.24.73,5.46,1.12,11.11,3.56,16.05,2.2,4.46,5.88,7.96,8.93,11.89,3.04,3.93,5.56,8.77,4.77,13.67-.1.62.5,1.36,1.11,1.51"/>
  </g>
  <g id="high_level_cliffs" data-name="high level cliffs">
    <circle class="cls-41" cx="184" cy="166.58" r="54.67"/>
    <path class="cls-38" d="M499.1,273.39c.62-1.55,2.25-2.48,2.71-4.08,1.48-5.2,4.72-10.1,3.83-15.43-.25-1.46,1.09-2.74,2.47-3.25s2.92-.56,4.28-1.16c3.23-1.43,4.34-5.35,6.33-8.27,1.68-2.46,4.92-6.67,8.35-6.73,1.98-.04,2.82.67,1.07,1.25-1.69.78-3.66,2.12-4.24,3.9s-.6,4.04.8,5.28c2.57,2.28,3.52,5.88,3.84,9.3s.15,6.92,1.08,10.23c.93,3.31,3.3,6.52,6.68,7.14,1.34.25,2.86.11,3.91.97.77.63,1.09,1.63,1.37,2.58,3.1,10.28,6.37,21.22,5.17,31.89-.36,3.16-.7,6.44.25,9.47.95,3.04,1.33,7.89,4.52,7.95,2.69.05,7.38-3.94,8.64-6.32,1.27-2.38,1.54-5.16,1.54-7.85s-.11-6.74.23-9.42c2.75,5.55,8.16,5.08,11.12,3.5,1.01-.54,2.76-.19,3.51-1.02,2.19-2.43,2.46-6.94,3.22-10.21,2.93-12.63,2.7-25.76,2.46-38.73-.12-6.52-.25-13.07-1.19-19.52-.39-2.68-.93-5.38-2.17-7.8s-3.23-4.25-5.8-5.11c4.38-9.02,11.24-17.41,20.66-20.82,1.14-.41,1.49-.5,2.44-1.25,1.62-1.29,1.86-3.85-.43-4.54-1.47-.45-5.42-.37-6.86-.42-5.62-.21-16.37.8-21.25,2.01-19.12,4.75-33.64,6.23-52.42,12.79-24.24,8.47-52.27,24.03-68.1,44.25-11.56,14.77-23.26,32.1-33.7,49.41-7.5,12.45-21.03,25.81-31.28,36.26-2.43,2.48-24.72,20.57-48.92,28.78-12.1,4.1-23.74,6.68-35.15,12.43-4.63,2.34-10.18,5.9-11.4,10.94-.91,3.75.06,8.5-1.56,11.99-1.32,2.83-4.26,4.48-7.07,5.82-7.61,3.65-12.6,6.49-20.81,8.44-1.58.38-3.17.71-4.71,1.24-2.01.68-2.87.74-2.56,2.9,8.11-1.15,16.3-2.3,24.47-1.72,6.02.42,12.2,1.76,17.98.02,1.89-.57,3.8-1.47,5.74-1.12,1.01.18,1.93.69,2.9,1.02,2.94,1.02,6.14-.2,9.25-.05,36.87,1.85,44.78-5.98,61.48-2.95,13.04,2.36,28.68.47,40.65-5.21,7.64-3.62,14.74-5.89,23.18-6.58,10.35-.84,32.44,1.06,37,0,6.98-1.63,35.47,1.83,40.67-.25,7.67-3.08-3.47-34.79,1.67-41.27,7.74-9.76-32.24-25.35-26.12-36.19s10.56-22.86,11.11-35.3"/>
    <circle class="cls-25" cx="184" cy="166.58" r="46"/>
    <circle class="cls-17" cx="184" cy="166.58" r="38.33"/>
    <path class="cls-9" d="M499.1,273.39c.62-1.55,2.25-2.48,2.71-4.08,1.48-5.2,4.72-10.1,3.83-15.43-.25-1.46,1.09-2.74,2.47-3.25s2.92-.56,4.28-1.16c3.23-1.43,4.34-5.35,6.33-8.27,1.68-2.46,4.92-6.67,8.35-6.73,1.98-.04,2.82.67,1.07,1.25-1.69.78-3.66,2.12-4.24,3.9s-.6,4.04.8,5.28c2.57,2.28,3.52,5.88,3.84,9.3s.15,6.92,1.08,10.23c.93,3.31,3.3,6.52,6.68,7.14,1.34.25,2.86.11,3.91.97.77.63,1.09,1.63,1.37,2.58,3.1,10.28,6.37,21.22,5.17,31.89-.36,3.16-.7,6.44.25,9.47.95,3.04,1.33,7.89,4.52,7.95,2.69.05,7.38-3.94,8.64-6.32,1.27-2.38,1.54-5.16,1.54-7.85s-.11-6.74.23-9.42c2.75,5.55,7.82,5.71,10.78,4.13,1.01-.54,3.11-.82,3.86-1.65,2.19-2.43,4.46-6.94,5.22-10.21,2.93-12.63,2.7-25.76,2.46-38.73-.12-6.52-.25-12.07-1.19-18.52-.39-2.68-1.46-5.33-2.7-7.74s-4.7-5.3-7.28-6.16c4.38-9.02,13.15-16.82,22.58-20.24,1.14-.41,1.49-.5,2.44-1.25,1.62-1.29,1.21-4.88-1.08-5.58-1.47-.45-6.72-.28-8.17-.34-5.62-.21-16.26,1.48-21.21,2.38-19.95,3.62-30.64,6.23-49.42,12.79-24.24,8.47-52.27,24.03-68.1,44.25-11.56,14.77-23.26,32.1-33.7,49.41-7.5,12.45-21.03,25.81-31.28,36.26-2.43,2.48-24.72,21.57-48.92,29.78-12.1,4.1-24.74,6.68-36.15,12.43-4.63,2.34-9.57,5.47-10.79,10.51-.91,3.75.45,7.93-1.18,11.42-1.32,2.83-4.26,4.48-7.07,5.82-7.61,3.65-15.6,6.49-23.81,8.44-2.77.66-5.62,1.25-8.03,2.76.18,1.33,1.85,1.34,3.19,1.25,3.65-.23,7.11-1.72,10.73-2.2,3.71-.48,7.47.12,11.18.58,5,.61,10.07.96,15.06.34,2.58-.32,5.14-.91,7.75-.99,5.89-.18,11.84,2.2,17.57.84,10.39-2.46,21.67-1.49,32.33-1.96,4.88-.21,14.29-2.49,19.14-1.94,7.77.89,15.51,2.08,23.07.08"/>
    <path class="cls-19" d="M484.11,356.61c5.12.72,11.36.16,16.51-.19-1.38,1.95-4.79,4.19-7.1,4.75s-4.72.72-7.03,1.33c-.28,2.49-2.62,4.47-1.68,6.8.24.6.67,1.09,1.1,1.57,3.43,3.9,6.94,8.33,7.05,13.52.04,1.87-.38,3.72-.92,5.51-.36,1.19-.79,2.41-.7,3.66.29,4.06,6.47,5.76,7.93,9.56-2.51.87-6.11,1.44-8.76,1.38-.37,0-.77-.04-1.05-.29-.3-.27-.36-.71-.49-1.09-.5-1.43-2.09-2.12-3.08-3.27-1.42-1.64-1.46-4.02-2.21-6.06-.52-1.43-1.42-2.78-1.46-4.3-.05-2.02,1.41-3.72,2.07-5.63,1.22-3.51-4.8-8.09-6.78-11.23-1.97-3.15-.71-3.79-1.49-7.42-.09-.41-.17-.86-.47-1.16-.47-.46-1.22-.35-1.87-.26-3.06.44-5.69-.87-8.42-2.33-1.08-.58-6.66,1.7-7.83,1.33-2.84-.91-1.36-3.51-4.13-4.59-.6-.23-1.24-.74-1.13-1.37.07-.39.4-.67.73-.9,1.43-1,3.24-1.07,4.97-1.3"/>
  </g>
  <g id="intricate_cliffs" data-name="intricate cliffs">
    <path class="cls-33" d="M380.18,422.79c.39-.87,1.47-1.2,2.42-1.17.95.03,3.64-2.67,4.58-2.72,1.83-.1,3.4-5.4,4.21-7.04.81-1.64.98-3.52,1.04-5.35s.03-3.69.47-5.46c.38-1.55,1.19-3.07,2.53-3.94,1.34-.87,3.29-.89,4.43.23.81.8,1.08,1.98,1.5,3.04s1.16,2.17,2.29,2.31c.82.1,1.61-.35,2.29-.82,3.95-2.74,6.84-6.99,7.93-11.67,2.01-8.66,1.81-18.01,6.43-25.61,2.79-4.6,7.22-8.11,12.2-10.15,1.9-.78,4.28-1.28,5.84.05,1.13.95,1.49,2.6,2.68,3.48,1.75,1.29,4.2.26,6.13-.76s4.47-1.93,6.1-.49c1.35,1.19,1.69,3.73,3.48,3.88,1.2.1,2.14-1.07,3.32-1.32,1.06-.22,2.12.33,2.96,1s1.59,1.49,2.57,1.95c2.81,1.32,6.33-.76,9.17.48.93.41,1.95,1.17,2.11,2.18s-.05,2.05.15,3.05c.31,1.5,1.48,2.63,2.49,3.78,1,1.15,1.89,2.39,2.77,3.63,1.1,1.56,2.23,3.15,2.78,4.98,1.49,4.91-4.43,7.98-1.5,12.99.24.41.53.82.5,1.29-.05.84-.11,1-.16,1.85-.02.34.12.66.28.96,1.39,2.61,3.97,4.32,6.18,6.29.35.31-.27,1.02-.1,1.46.39.96-.19,2.04-.15,3.08.06,1.71,1.67,2.88,2.54,4.35.95,1.62.95,3.75,0,5.37-2.45,4.18-9.36,3.58-12.05,7.61-.6.9-1.14,2.12-2.22,2.2"/>
    <path class="cls-37" d="M481.08,356.42c-.6-.59-1.48-.81-2.32-.81s-1.67.2-2.5.33c-1.58.24-3.23.21-4.72-.37-.48-.19-.94-.43-1.44-.54-1.03-.24-2.09.08-3.12.25-1.25.2-2.54.19-3.79-.05-1.02-.19-2.06-.52-3.07-.26-.48.12-2.02-.23-2.46-.01-1.78.87-2.93.61-5.37,1.4.65-.92,3.3-.97,4.36-1.19,1.74-.36,3.47-.72,5.21-1.08.89-.19,1.81-.38,2.55-.92,1.65-1.21,1.75-3.7,1.08-5.63s-1.94-3.63-2.55-5.59c-1.31-4.19.67-8.84,3.81-11.91,3.14-3.06,7.34-4.66,11.01-7.06,6.15-4.03,10.94-10.09,13.44-17.01,2.5-6.92,2.82-14.14.66-21.17.8-2.44.46-5.12,1.21-7.58.6-1.94,2.18-3.43,4.15-3.96.68-.18,1.34-.33,2.29-.33,1.37,0,2.32,2.08,3.69,2.24,1.02.12,1.66-.77,2.65-.48s.82,1.5,1.23,2.88c3.56.47,6.65.07,9.97.1,2.19.02,4.72.22,5.96,2.02.92,1.34.88,3.3,2.15,4.31.88.7,2.13.71,3.12,1.23,1.85.97,2.36,3.33,2.67,5.39.58,3.89,1.17,7.78,1.75,11.67.18,1.19.57,2.63,1.74,2.92.64.16,1.34-.1,1.96.11,1.03.35,1.23,1.69,1.26,2.77.15,4.97,1.16,14.47,1.02,28.62-.02,1.56-.86,7.95-.88,9.47-.05,5.73.07,9.87.2,13.05.14,3.32-2.41,6.14-5.72,6.31-4.7.25-10.78,0-12.85-2.55-3.54-4.38-16.29-6.86-16.29-6.86"/>
    <path class="cls-32" d="M533.16,367.22c.43-6.6-2.97-12.75-4.75-19.82-1.52-6.05-.68-12.41-.15-18.63.24-2.78.4-5.65-.49-8.29-.73-2.14-2.12-4.03-2.64-6.23-.44-1.86-.21-3.82-.55-5.7-.44-2.47-1.82-4.66-3.17-6.78-1.11-1.74-2.27-3.53-4.01-4.63-3.23-2.04-8.07-.81-9.92,2.53-1.47,2.65-1.25,6.25-3.52,8.26-1.63,1.44-4.18,1.67-5.5,3.39-1.72,2.26-.34,5.67-1.5,8.27-1,2.24-3.58,3.26-5.96,3.84s-4.97,1-6.74,2.69c-1.17,1.13-1.84,2.69-2.95,3.87-1.73,1.83-4.3,2.53-6.5,3.76-2.2,1.23-4.23,3.62-3.5,6.03-1.19.89-.08,2.82,1.05,3.78s2.65,1.68,3.12,3.09c.3.89.1,1.87.15,2.81.18,3.61,3.96,6.09,7.56,6.5,3.59.41,7.19-.6,10.8-.78,3.61-.18,7.71.78,9.56,3.89"/>
    <path class="cls-9" d="M539.49,335.44c-.27-9.12-.54-18.23-.81-27.35-.03-1.08-.24-2.42-1.26-2.77-.62-.21-2.32.05-2.96-.11-1.17-.29-1.56-1.73-1.74-2.92-.58-3.89-1.17-7.78-1.75-11.67-.31-2.06-.82-4.43-2.67-5.39-1-.52-2.24-.53-3.12-1.23-1.27-1.01-1.23-2.97-2.15-4.31-1.24-1.8-3.77-2-5.96-2.02-3.32-.03-6.41.36-9.97-.1-.41-1.38-.25-2.58-1.23-2.88s-1.63.6-2.65.48c-1.36-.16-2.31-2.24-3.69-2.24-1.29,0-2.05.28-3.05.54-2.09.55-3.28,2.8-3.67,4.92s-.26,4.35-.93,6.41c2.16,7.03,1.83,14.25-.66,21.17-2.5,6.92-7.29,12.98-13.44,17.01-3.67,2.4-7.87,4-11.01,7.06-3.14,3.06-5.12,7.72-3.81,11.91.61,1.96,1.87,3.65,2.55,5.59s.57,4.42-1.08,5.63c-.73.54-1.66.74-2.55.92-3.32.69-6.64,1.38-9.96,2.07"/>
    <path class="cls-33" d="M550.75,406.04c-2.72-2.21-3.63-5.95-3.85-9.44s.05-7.08-1-10.42c-1.21-3.86-4.08-7.04-5.24-10.92-1.16-3.87-.77-8.62-3.86-11.22-2.95-2.48-11.91-1.77-14.35-4.75-1.7-2.08-1.48-5.2-2.97-7.44-1.72-2.57-5.35-3.26-8.33-2.43-2.98.83-5.46,2.84-7.85,4.8-1.77,1.46-3.54,2.91-5.31,4.37-1.68,1.38-3.46,2.8-5.6,3.17-2.62.45-5.93-.54-7.52,1.58-.78,1.03-.76,2.47-.44,3.72.79,3.06,3.1,5.45,5.08,7.91s3.78,5.48,3.26,8.6c-.49,2.91-2.95,5.36-2.82,8.3.08,1.94,1.31,3.66,2.75,4.95s3.13,2.29,4.6,3.57c2.6,2.27,4.36,5.33,6.07,8.33,2.32,4.06,4.63,8.12,6.95,12.18"/>
    <path class="cls-9" d="M550.75,406.04c-2.72-2.21-3.63-5.95-3.85-9.44s.05-7.08-1-10.42c-1.21-3.86-4.08-7.04-5.24-10.92-1.16-3.87-.77-8.62-3.86-11.22-2.95-2.48-11.91-1.77-14.35-4.75-1.7-2.08-1.48-5.2-2.97-7.44-1.72-2.57-5.35-3.26-8.33-2.43-2.98.83-5.46,2.84-7.85,4.8-1.77,1.46-3.54,2.91-5.31,4.37-1.68,1.38-3.46,2.8-5.6,3.17-2.62.45-5.93-.54-7.52,1.58-.78,1.03-.76,2.47-.44,3.72.79,3.06,3.1,5.45,5.08,7.91s3.78,5.48,3.26,8.6c-.49,2.91-2.95,5.36-2.82,8.3.08,1.94,1.31,3.66,2.75,4.95s3.13,2.29,4.6,3.57c2.6,2.27,4.36,5.33,6.07,8.33,2.32,4.06,4.63,8.12,6.95,12.18"/>
    <path class="cls-9" d="M380.18,422.79c.39-.87,3.73-2.27,4.68-2.25s1.71-2.18,2.66-2.24c1.83-.1,3.07-4.81,3.88-6.46.81-1.64.98-3.52,1.04-5.35s.03-3.69.47-5.46c.38-1.55,1.19-3.07,2.53-3.94,1.34-.87,3.29-.89,4.43.23.81.8,1.08,1.98,1.5,3.04s1.16,2.17,2.29,2.31c.82.1,1.61-.35,2.29-.82,3.95-2.74,6.84-6.99,7.93-11.67,2.01-8.66,1.81-18.01,6.43-25.61,2.79-4.6,7.22-8.11,12.2-10.15,1.9-.78,4.28-1.28,5.84.05,1.13.95,1.49,2.6,2.68,3.48,1.75,1.29,4.2.26,6.13-.76s4.47-1.93,6.1-.49c1.35,1.19,1.69,3.73,3.48,3.88,1.2.1,2.14-1.07,3.32-1.32,1.06-.22,2.12.33,2.96,1s1.59,1.49,2.57,1.95c2.81,1.32,6.33-.76,9.17.48.93.41,1.95,1.17,2.11,2.18s-.05,2.05.15,3.05c.31,1.5,1.48,2.63,2.49,3.78,1,1.15,1.89,2.39,2.77,3.63,1.1,1.56,2.23,3.15,2.78,4.98s.45,3.97-.74,5.46c.24,1.34-.68,2.32-1.04,3.63-.34,1.21-.13,2.56.55,3.61.2.31.45.61.56.97.24.79-.25,1.6-.25,2.43,0,.89.57,1.66,1.16,2.33,1.19,1.34,2.56,2.51,4.05,3.5.57.38,1.17.74,1.56,1.31,1.24,1.79-.32,4.38.55,6.37.31.71.89,1.25,1.34,1.87,1.41,1.96,1.39,4.84-.05,6.78-.55.75-1.28,1.35-2.02,1.92-1.2.93-2.47,1.79-3.81,2.49-1.01.53-2.06.97-3.03,1.54-1.48.88-2.77,2.07-3.76,3.48"/>
    <path class="cls-3" d="M518.24,257.64c-1.16,5.13.72,10.41,1.16,15.65.12,1.43.05,3.07-1.02,4.03-1.12,1.01-2.83.83-4.33,1.05-4.35.64-7.3,5.17-7.55,9.56-.14,2.48.38,4.94.57,7.41.19,2.47,0,5.11-1.4,7.17"/>
    <path class="cls-19" d="M465.47,355.88c3.19-.64.61-20.74,5.48-23.1,3.01-1.45,6.95-1.84,8.58-4.76.9-1.61,1.27-4.07,3.1-4.24.62-.06,1.28.21,1.86-.02.65-.26.92-1.03,1.46-1.46.7-.57,1.7-.49,2.59-.63,1.92-.32,3.51-1.82,4.31-3.6s.92-3.79.77-5.74c-.05-.62-.12-1.25.06-1.84.78-2.49,4.73-1.77,6.67-3.51,1.25-1.12,1.38-2.99,1.43-4.66.15-4.9.3-9.79.45-14.69.06-1.97.13-3.99.78-5.85s1.99-3.59,3.87-4.21c1.48-.49,3.1-.23,4.65-.38,1.55-.15,3.28-.95,3.59-2.48.16-.77-.08-1.56-.32-2.31-1.22-3.84-2.49-8.17-.62-11.74.38-.73,1.01-3.4.54-4.07-1.65.13-3.1.08-4.25-.44-.62-.28.66-1.31,1.33-1.38,2.62-.25,4.81-.19,7.44.08-.67,1.08.44.08-.83,1.34-.36.35.04,1.73-.03,2.23-.19,1.46-.26,3.23-.07,4.57.26,1.85.52,3.7.79,5.55.29,2.06.58,4.17.17,6.2s-1.68,4.03-3.63,4.73c-1.08.39-2.28.36-3.36.76-1.54.57-2.66,1.94-3.3,3.45s-.84,3.16-1.05,4.78c-.51,4.04-1.01,8.08-1.52,12.12-.36,2.85.04,3.89-1.5,6.3-.73,1.14-2.2,1.9-3.53,2.17-.86.18-2.02,1.86-2.8,2.26-1.44.75-1.1,2.83-1.06,4.45.08,3.04-1.86,6.04-4.66,7.22-2.77,1.17-6.32.77-8.37,2.97-.71.76-1.12,1.73-1.63,2.64-1.3,2.33-2.63,2.33-4.95,3.65-1.88,1.07-4.71,1.18-5.66,3.12-.87,1.77-2.14,4.73-1.22,6.48.37.7-.64,5.63.64,8.06.9,1.72.35,3.2.92,5.12.62,2.13,5.65,1.2,5.83,1.79"/>
    <path class="cls-12" d="M532.88,362.49c.43-6.6-2.69-8.02-4.46-15.09-1.52-6.05-.68-12.41-.15-18.63.24-2.78.4-5.65-.49-8.29-.73-2.14-2.12-4.03-2.64-6.23-.44-1.86-.21-3.82-.55-5.7-.44-2.47-1.82-4.66-3.17-6.78-1.11-1.74-2.27-3.53-4.01-4.63-3.23-2.04-8.07-.81-9.92,2.53-1.47,2.65-1.25,6.25-3.52,8.26-1.63,1.44-4.18,1.67-5.5,3.39-1.72,2.26-.34,5.67-1.5,8.27-1,2.24-3.58,3.26-5.96,3.84s-4.97,1-6.74,2.69c-1.17,1.13-1.84,2.69-2.95,3.87-1.73,1.83-4.3,2.53-6.5,3.76-2.2,1.23-3.06,3.86-3.5,6.03-.06,2.46-.08,2.82,1.05,3.78s2.65,1.68,3.12,3.09c.3.89.1,1.87.15,2.81.18,3.61,1.78,6.27,5.37,6.67,3.59.41,8.01.83,11.62.66,3.61-.18,4.38-.12,7.99-.39"/>
    <path class="cls-9" d="M524.64,245.05c.03-.26-.25-.47-.5-.46s-.48.18-.66.37c-.77.83-.9,2.09-.71,3.21.08.45.12,1.04-.3,1.22-.18.07-.39.03-.58.03-.92,0-1.56.94-1.76,1.84s-.13,1.86-.49,2.71c-.23.54-.62,1-.9,1.51-.65,1.18-.7,2.66-.14,3.89.19.42.45.81.55,1.26.1.48.01.98.03,1.47.07,1.5.64,2.48.78,4.39"/>
  </g>
  <g id="front_plains_2" data-name="front plains 2">
    <path class="cls-15" d="M364.47,475.27c40.9-5.2,76.68-.6,117.38,5.76,14.76,2.31,30.03,5.36,44.48,1.79,5.88-1.45,11.4-3.96,17.26-5.48,9.84-2.56,20.25-2.27,30.48-2.2,29.27.18,66.89,1.86,93.79-2.67,7.5-1.26,3.9-10.43,11.92-11.83,5.91-1.03,14.4-2.81,19.42-5.83,4.84-2.91,11.9-1.57,16.7-4.54,4.23-2.61,10.92-8.57,15.88-9.71,17.41-4.01,28.54-4.13,46.5-3.92,8.34.1,31.3,4.07,37.75-.75,2.37-1.77,10.57-3.14,13-4.83,6.32-4.4,21.62,6.93,26.75,1.38-7.17-3.44-4.48-13.8-10-15.3-21.82-5.91-72.16-6.36-94.7-9.23-32.24-4.1-60.21-24.26-92.61-27.12-11.37-1-22.81.18-34.16,1.37-8.82.92-17.95,1.94-25.58,6.09-4.42,2.41-8.16,5.79-12.76,7.91-5.62,2.6-12.1,3.13-18.39,3.43-11.44.54-12.97,7.61-24.42,7.9-10.28.26-30.49-6.32-40.63-4.8-24.62,3.69-56.13-3.54-122.34,23.02"/>
    <path class="cls-15" d="M656.36,464.63c3.28-.1,18.5,1.17,21.41,2.68,2.4,1.24,5.12,1.86,7.82,1.77,1.56-.05,2.1-.2,3.6.21,16.35-2.28,23.85-.54,32.06,4.99,2.59,1.74,1.24,6.36,4.27,8.84-15.52.26-32.48,2.53-47.74,5.54-13.59,2.68-23.1-1.29-32.26-1.54s-21.19,2.33-28.25,2.11c-10.19-.31-15.6,7.99-25.79,8.09-10.19.1-20.64,1.73-29.44,6.87-3.36,1.96-6.64,4.75-7.35,8.58-.98,5.35,3.47,10.19,8.19,12.88,1.45.82,3.07,1.67,3.68,3.22.41,1.04.28,2.21.46,3.31.36,2.35,1.07,4.15.91,6.52-.21,3.23-6.67.57-9.75,1.58-6.94,2.28-14.34,3.13-21.61,2.51-4.9-.42-4.09-.77-8.89-1.84-5.09-1.14-9.82.92-14.17-1.96-3.4-2.26-8.17-4.54-11.03-7.45-11.62-11.86-20.02-25.95-36.38-28.77-22.34-3.86-45.51-2.99-68.12-4.58-1.16-.08-2.47-.25-3.14-1.19-.67-.94-.41-2.24-.65-3.37-.66-3.11-4.6-4.02-7.77-4.26-12.69-.95-26.43.63-39.16.75-5.01.05-10.08.17-14.98-.87-4.08-.87-7.94-2.52-11.94-3.68-21.46-6.22-50.35,4.12-72.65,2.8-14.85-.88-29.3-4.06-44.18-3.9-7.81-.75-14.35-5.12-21.11-9.1-2.54-1.5-5.15-3.05-6.96-5.37-1.81-2.33-2.67-5.65-1.32-8.27,1.44-2.81,4.8-3.97,7.85-4.79,15.83-4.27,32.2-6.51,48.59-6.67,7-.07,14.02.25,20.99-.4,6.16-.57,12.23-1.9,18.37-2.62,13.61-1.59,24.96-9.87,38.59-8.49,18.94,1.93,45.06-11.1,64-9.17"/>
    <path class="cls-14" d="M836.58,430.87c2.55.21,4.94,1.24,7.41,1.91,2.77.75,5.63,1.06,8.48,1.36,1.02.11,2.19.16,2.89-.6.94-1.02.28-2.65-.42-3.86-.98-1.69-3-1.53-3.98-3.23-.96-1.66-.9-5.17-1.86-6.83-.02.76-.68,1.39-1.41,1.63s-1.51.18-2.27.13c-2.01-.12-4.02-.1-6.02.04-.52.04-1.09.1-1.46.47-.26.25-.38.61-.6.91-.5.67-1.39.88-2.21,1.04-1.52.3-3.04.61-4.57.91-4.93.98-9.89,1.96-14.92,2-2.04.01-4.46.05-5.62,1.73-.21.3-.37.65-.67.85-.32.22-.73.23-1.12.23-4.83.05-9.66.09-14.5.14-1.23.01-2.5.03-3.66.46-1.01.37-1.87,1.04-2.72,1.69-2.11,1.63-4.23,3.25-6.34,4.88,6.18.4,12.37.8,18.55,1.2,3.13.2,6.26.4,9.39.4,1.13,0,2.28-.04,3.37-.36,1.2-.36,2.27-1.05,3.38-1.64,2.92-1.56,6.14-2.43,9.34-3.3,1.22-.33,2.43-.66,3.65-.98,2.59-.7,5.23-1.4,7.9-1.19Z"/>
  </g>
  <g id="Front_Plains1" data-name="Front Plains1">
    <path class="cls-15" d="M391.15,428.77c-32.95-10-68.15-13.42-102.96-12.33-22.83.71-52.12.82-73.17,8.69-11.62,4.35-16.23,12.8-27.82,17.21-25.68,9.77-42.06,7.83-67.48,18.12-.88,2.95-2.06,6.13.96,8.36,2.19,1.61,5.66,2.06,8.89,2.43,7.77.87,15.53,1.75,23.3,2.62"/>
  </g>
  <g id="front_cliffs" data-name="front cliffs">
    <path class="cls-14" d="M722.32,475.48c.69,1.97-13.37-.76-19.68.11-1.22.17-2.53.42-3.39,1.31-.46.48-.78,1.14-1.38,1.42-.38.18-.81.18-1.23.17-2.45-.02-4.89-.04-7.34-.07-.35,0-.72,0-1.02.17-.55.32-.66,1.05-.98,1.61-.55.96-1.71,1.33-2.72,1.77s-2.09,1.23-2.05,2.34c.03.98-2.31,3-2.61,3.93-.11.35-.13.62-.14.99,3.65-.54,7.3-1.08,10.95-1.62.32-.05.66-.09.97,0,.29.09.53.29.8.42.65.31,1.41.18,2.12.04.81-.15,1.61-.31,2.42-.46.39-.08.8-.15,1.13-.37.44-.28.71-.76,1.11-1.09.97-.83,2.4-.68,3.67-.67,2.86.03,5.66-.87,8.52-1,4.61-.2,9.34,1.59,13.74.21.59-.18,1.28-.68,1.05-1.25-.1-.25-.35-.39-.55-.56-1.04-.84-1.16-2.35-1.47-3.65-.31-1.31-1.11-2.68-1.91-3.75Z"/>
    <path class="cls-14" d="M150.63,467.43c-1.08,2.02-1.74,4.25-1.92,6.5-.04.52-.05,1.06.17,1.54.65,1.39,2.96,1.63,3.42,3.08.17.53.03,1.12.2,1.65.4,1.3,2.19,1.58,3.63,1.62,2.52.07,5.66-.21,6.59-2.41,2.22.42,4.54.83,6.73.29,2.19-.54,4.2-2.35,4.09-4.47,5.17.05,9.33,3.97,14.28,5.39.61.17,1.22.31,1.81.53.93.35,1.75.92,2.63,1.37,3.18,1.67,7.15,2.11,10.54.87-.7-.51-1.64-.56-2.53-.57s-1.82,0-2.58-.42-1.2-1.46-.65-2.11c.31-.36.82-.49,1.2-.78,1-.75.79-2.32-.09-3.19-.88-.87-2.18-1.22-3.41-1.53-1.28-.32-2.56-.64-3.84-.97-.52-.13-1.12-.33-1.3-.81-.13-.36.03-.76.03-1.15.02-1.21-1.4-1.92-2.6-2.35-2.35-.84-4.69-1.68-7.04-2.52-3.52-1.26-7.36-2.53-10.97-1.5-.52.15-1.12.46-1.12.98,0,.55.69.84,1.26.99.9.24,1.84.51,2.55,1.09s1.14,1.56.77,2.37c-.34.74-1.25,1.13-2.11,1.15s-1.69-.24-2.52-.47c-1.18-.33-2.38-.58-3.61-.72-2.99-.32-6.04.1-9.01-.37-1.24-.2-2.52-.58-3.38-1.45s-1.12-2.33-.31-3.24c.6-.66,1.73-1.5,1.05-2.09-3.82.4-7.64.8-11.46,1.21-.86.09-1.82.16-2.5-.34-.68-.5-.63-1.78.22-1.91-5.33.35-10.67.69-16.02.64-.67,0-1.36-.02-1.96-.31s-1.07-.91-.92-1.52c.09-.38.4-.69.71-.96.05-.32-.06-.64-.37-.78s-.71-.07-.94.16c-.22.21-.28.52-.34.82-.39,1.85-1.06,3.66-1.09,5.55,0,.54.04,1.09.25,1.59.24.57.66,1.04,1.12,1.47.61.57,1.3,1.1,2.13,1.33.39.11.79.15,1.19.19,4.41.45,8.84.9,13.27.75.19,0,.4,0,.51.14.17.22-.07.51-.11.78-.05.31.18.61.47.76s.64.18.97.2c3.55.23,7.22-.12,10.58.97"/>
    <path class="cls-14" d="M566.1,528.42c.91,1.03.21,2.8-1,3.45-1.21.65-2.68.53-4.05.38-3.79-.4-7.58-.79-11.36-1.19-.55.53-.05,1.48.55,1.96s1.37.99,1.36,1.76c-4.49.98-9.16,1.15-13.71.52-.86-.12-1.75-.28-2.45-.8-.7-.51-1.15-1.48-.8-2.28.19-.44.61-.87.46-1.33-.12-.37-.55-.53-.92-.63-3.09-.88-6.82-1.63-9.18.55-.43.4-.79.88-1.23,1.28-1.97,1.81-5.28,1.49-7.37-.18-1.43-1.14-2.43-2.8-4.04-3.67-1.93-1.04-4.29-.72-6.44-1.18-.71-.15-1.42-.41-1.96-.89-1.1-.98-1.32-2.7-2.43-3.66-2.25-1.94-8.57-6.18-8.57-1.35,1.88,2.88,4.37,5.26,6.65,7.83,1.53,1.72,3.33,3.18,5.12,4.62,1.59,1.29,3.19,2.58,4.78,3.86,2.13,1.72,4.39,3.5,7.09,3.98,1.98.35,4.01-.05,6.03-.09s4.22.37,5.51,1.91c.24.29.45.62.75.84.42.31.96.4,1.47.48,2.87.42,5.73.84,8.6,1.26,4.3.63,8.79,1.25,12.92-.12.65-.21,1.36-.57,1.49-1.24.07-.34-.03-.7.09-1.02.12-.32.43-.52.73-.67,1.78-.89,3.87-.75,5.85-.56,1.98.19,4.05.4,5.88-.37,1.83-.77,3.27-2.88,2.56-4.73-.47-1.24-.25-2.71-.71-3.96-.24-.66-.61-1.28-.77-1.96-.22-.91-.36-2.04-.87-2.82Z"/>
  </g>
  <g id="sand">
    <path class="cls-21" d="M492.47,521.63c-.32-5.86-3.47-13.07-8.03-16.77s-10.15-5.9-15.8-7.49c-8.93-2.53-18.25-3.68-27.52-3.43-9.11.25-24.71,2.31-32.92-1.64-2.7-1.3.85-3.68-1.84-5.01-6.9-3.41-14.96-3.19-22.65-2.9-15.82-3.28-29.68,6.74-62.38-3.97-9.8-3.21-20.45-2.69-30.69-1.43-10.24,1.26-20.27.55-30.58.69-11.67.15-20.39-.4-30.04-.18-14.83.33-30.2,4.26-29.62,4.94s4,.94,4.89.96c21.68.53,43.18,7.22,64.74,4.88,14.12-1.54,28.03-6.93,42.12-5.13,4.16.53,8.22,1.69,12.25,2.84,4.14,1.18,8.28,2.36,12.42,3.54,13.39,3.82,28.02-.71,41.91-1.63,4.45-.29,9.1-.34,13.13,1.56,1.7.8,2.49,2.7,1.4,4.24-.38.54-1.07.89-1.24,1.53-.3,1.12,1.12,1.88,2.25,2.15,8.04,1.86,17.32,1.99,25.58,2.02,10.06.04,20.11.07,30.17.11,4.9.02,10.25.76,15.02,1.87,2.69.63,5.38,1.26,8,2.15,7.95,2.71,12.99,9.22,19.43,16.1Z"/>
    <path class="cls-21" d="M555.4,518.94c-1.45-.8-1.58-2.24-2.27-4.36-.35-1.09-.37-2.26-.38-3.41-.02-1.39-.03-2.79.31-4.14.51-2.03,1.77-3.78,3.04-5.44.58-.76,1.18-1.53,1.93-2.12.86-.67,1.89-1.09,2.9-1.5,6.12-2.47,12.33-4.97,18.88-5.78,3.38-.42,6.8-.38,10.21-.34,3.41.04,6.57-1.52,9.64-3.01,1.05-.51,2.11-1.05,3.02-1.79,1.21-.98,2.13-2.27,3.33-3.27,1.59-1.32,3.61-2.05,5.64-2.39s4.12-.34,6.18-.32c4.45.03,8.9.05,13.34.08,2.13.01,4.44,0,6.53.37,5.12.92,10.24,1.85,15.36,2.77,1.44.26,2.89.52,4.31.88,2.75.68,5.41,1.71,8.15,2.44,4.44,1.18,13.83-.69,14.24,1.02-4.28,1.01-9.09,2.2-13.49,2.14-7.15-.09-14.05-3.02-21.19-2.98-1.83.01-3.64.22-5.46.42-2.41.27-4.82.55-7.23.82-6.78.77-13.56,1.53-20.37,1.82-7.58.32-9.79,5.48-17.26,6.82-2.04.37-8.46,1-10.51,1.28-1.47.2-2.92.53-4.36.85-6.43,1.44-12.93,2.91-18.81,5.9-2.03,1.03-3.56,2.36-4.57,4.4-.84,1.69-1.12,2.02-1.46,3.83-.28,1.52-.88,4.01.33,4.98Z"/>
    <path class="cls-21" d="M674.46,465.9c-4.38-.44-4.17-3.39-.43-5.89s5.94-5.24,10.42-5.79c6.91-.85,3.94-4.31,16.19-4.31,3.33,0,10.56-3.36,15.81-3.36s4.24-7.6,9.75-7.63c.95,0,2.05-.07,2.59-.85.25-.36.32-.83.56-1.2.31-.48.85-.74,1.38-.96,3.39-1.36,7.15-1.41,10.8-1.43,13.23-.1,26.51-.19,39.63,1.5.43.05.51.98.16,1.24-25.04.88-25.54,1.12-37.71,1.92-10.45.68-14.1,7.46-14.9,10-.68,2.19-5.77,5.83-15.77,5.83s-10.39.83-19.65,3.15c-.66.17-1.38.37-1.77.92-.34.48-.36,1.12-.63,1.65-.46.9-1.52,1.29-2.51,1.53-3.42.86-7.14,1.03-10.08,2.97-.72.47-1.26.95-.62,1.53"/>
  </g>
  <g id="waterway">
    <path class="cls-29" d="M451.97,501.55c5.48-2.3,12.85-4.54,18.76-5.17,2.13-.23,4.39-.38,6.15-1.61.78-.55,1.47-1.57,1.02-2.41-.28-.52-.88-.76-1.29-1.17-1.06-1.08-.48-3.03.75-3.92s2.82-1.03,4.32-1.21c5.26-.64,10.4-2.21,15.12-4.61.87-.44,1.87-1.21,1.64-2.16-.09-.38-.37-.68-.49-1.05-.33-1,.56-1.98,1.42-2.59,2.13-1.53,4.6-2.58,7.17-3.07,3.13-.59,6.78-.54,8.85-2.96,1.24-1.45,1.57-3.62.81-5.36-.31-.71-.78-1.34-1.06-2.07-.78-2.03-.31-5.78.66-7.72,1.55-3.14,4.48-2.92,7.11-5.22,2.71-2.36,7.1-.64,10.64-1.3,1.55-.29,2.93-2.45,3.39-3.96.45-1.48-.81-2.99-.65-4.53.13-1.21,1.11-2.15,2.12-2.82,1.66-1.09,3.57-1.76,5.46-2.37,1.72-.55,3.75-1.37,4.07-3.15.22-1.22-.55-2.46-1.59-3.13s-2.32-.87-3.56-.96c-.82-.06-1.66-.08-2.42-.37-.77-.29-1.47-.91-1.59-1.72-.19-1.28,1.07-2.41.97-3.69-.08-.94-.87-1.67-1.72-2.11s-1.78-.67-2.58-1.18c-1.25-.81-2.02-2.3-1.97-3.78.02-.49.13-.99.43-1.38.38-.49,1-.71,1.59-.91,1.66-.57,3.32-1.14,4.98-1.71.6-.21,1.23-.43,1.66-.91s.62-1.86.15-2.3c0,0,3.12.19,4.85-.38-.09,1.31-1.57,3.7-2.72,4.33-1.15.63-2.45.94-3.64,1.51-.57.27-1.16.66-1.34,1.27-.19.65.18,1.36.71,1.77s1.2.61,1.85.78c2.3.63,4.61,1.27,6.91,1.9,1,.28,2.02.56,2.88,1.15s1.53,1.54,1.5,2.58c-.02.81-.41,1.8.21,2.33.28.24.68.27,1.05.32,1.52.19,3.03.9,3.92,2.14s1.04,3.07.12,4.3c-.51.67-1.26,1.11-2,1.51-2.69,1.47-5.46,2.78-8.31,3.91-1.06.42-2.16.84-3.06,1.54s-1.6,1.78-1.55,2.92c.04.95.58,1.8.94,2.69s.68,2.1.05,2.82c-.25,1.83-1.13,3.68-.61,5.45.76,2.61,3.93,3.48,6.57,4.09.84.19,1.72.43,2.36,1.02,1.18,1.12,1.04,3.02.66,4.6-.38,1.58-.88,3.31-.15,4.77.89,1.79,3.17,2.29,5.14,2.62,2.93.49,5.84,1.08,8.72,1.76,1.33.31,2.78.74,3.49,1.9.43.69.51,1.55.9,2.26.86,1.58,2.88,2.03,4.66,2.32,6.24,1.01,12.48,2.01,18.73,3.02,1.11.18,2.24.37,3.22.91s1.79,1.53,1.82,2.65c.01.61-.2,1.22-.07,1.81.2.88,1.07,1.41,1.88,1.79,2.92,1.38,12.28,2.2,9.36,3.58-3.16,1.5-13.38,5.9-13.38,5.9-1.86.52-4.1-1.67-5.27-3.21s-1.87-3.4-3.06-4.92c-1.71-2.18-4.3-3.5-6.96-4.28s-5.42-1.08-8.14-1.62c-3.31-.66-6.55-1.66-9.64-3-.37-.16-.75-.33-.99-.66-.57-.77-.03-1.84-.06-2.8-.04-1.08-.87-2-1.84-2.48s-2.08-.58-3.15-.68c-3.43-.31-6.86-.63-10.3-.94-1.65-.15-3.53-.43-4.45-1.81-1.05-1.59-.26-3.69-.18-5.59.16-3.45-2.21-6.62-5.16-8.41-2.95-1.79-6.7-3.69-10.02-2.73-1.18.34-2.36.68-3.54,1.02-1.96.56-4.19,1.37-4.88,3.28-.53,1.48.06,3.1.64,4.56.5,1.24.99,2.48,1.49,3.72.44,1.09.87,2.33.37,3.39-.44.95-1.49,1.43-2.46,1.84-1.28.54-2.56,1.08-3.84,1.63-.55.23-1.18.55-1.3,1.14-.12.55.26,1.06.51,1.56.8,1.6.32,3.62-.78,5.04-1.1,1.42-2.7,2.34-4.32,3.11-3.58,1.7-7.43,2.82-11.37,3.31-4.87.6-9.96.27-14.49,2.17-.76.32-1.56.76-1.87,1.54-.37.95.15,2,.18,3.02.04,1.39-.88,2.68-2.04,3.44s-2.55,1.12-3.9,1.43c-5.59,1.3-11.08,2.95-16.78,3.57"/>
  </g>
  <g id="cloud1Rain">
    <line class="cls-2" x1="327.45" y1="237.86" x2="336.21" y2="252.06"/>
    <line class="cls-2" x1="408.52" y1="231.67" x2="417.28" y2="245.87"/>
    <line class="cls-2" x1="334.67" y1="243.25" x2="343.43" y2="257.45"/>
    <line class="cls-2" x1="341.45" y1="229.05" x2="350.21" y2="243.25"/>
    <line class="cls-2" x1="360.16" y1="229.05" x2="365.59" y2="237.86"/>
    <line class="cls-2" x1="354.52" y1="240.12" x2="363.28" y2="254.32"/>
    <line class="cls-2" x1="345.98" y1="248.98" x2="354.74" y2="263.18"/>
    <line class="cls-2" x1="359.31" y1="255.16" x2="368.07" y2="269.36"/>
    <line class="cls-2" x1="365.96" y1="228.63" x2="374.52" y2="242.5"/>
    <line class="cls-2" x1="345.98" y1="216.69" x2="354.74" y2="230.89"/>
    <line class="cls-2" x1="362.55" y1="216.69" x2="371.3" y2="230.89"/>
    <line class="cls-7" x1="379.16" y1="219.66" x2="387.92" y2="233.86"/>
    <line class="cls-2" x1="343.04" y1="223.16" x2="347.81" y2="230.89"/>
    <line class="cls-2" x1="316.96" y1="213.89" x2="325.72" y2="228.09"/>
    <line class="cls-2" x1="311.5" y1="212.56" x2="320.26" y2="226.76"/>
    <line class="cls-2" x1="411.21" y1="225.34" x2="414.59" y2="230.83"/>
    <line class="cls-2" x1="329.02" y1="217.33" x2="337.77" y2="231.53"/>
    <line class="cls-2" x1="330.96" y1="231.67" x2="339.72" y2="245.87"/>
    <line class="cls-2" x1="384.8" y1="240.96" x2="393.56" y2="255.16"/>
    <line class="cls-2" x1="379.16" y1="252.03" x2="387.92" y2="266.23"/>
    <line class="cls-2" x1="421.6" y1="264.75" x2="425.72" y2="271.45"/>
    <line class="cls-2" x1="353.24" y1="272.31" x2="355.76" y2="276.4"/>
    <line class="cls-11" x1="356.38" y1="273.58" x2="358.9" y2="277.66"/>
    <line class="cls-11" x1="357.15" y1="259.38" x2="365.91" y2="273.58"/>
    <line class="cls-11" x1="345.98" y1="270.56" x2="354.74" y2="284.76"/>
    <line class="cls-11" x1="378.72" y1="258.11" x2="387.48" y2="272.31"/>
    <line class="cls-11" x1="373.09" y1="269.18" x2="381.85" y2="283.38"/>
    <line class="cls-2" x1="431.39" y1="212.82" x2="440.14" y2="227.02"/>
    <line class="cls-2" x1="420.9" y1="221.95" x2="429.65" y2="236.15"/>
    <line class="cls-2" x1="435.76" y1="227.02" x2="444.52" y2="241.22"/>
    <line class="cls-2" x1="431.39" y1="238.77" x2="440.14" y2="252.97"/>
    <line class="cls-2" x1="442.98" y1="219.92" x2="451.74" y2="234.12"/>
    <line class="cls-2" x1="449.77" y1="205.72" x2="458.52" y2="219.92"/>
    <line class="cls-2" x1="468.47" y1="205.72" x2="473.9" y2="214.53"/>
    <line class="cls-2" x1="462.83" y1="216.79" x2="471.59" y2="230.99"/>
    <line class="cls-2" x1="454.29" y1="225.66" x2="463.05" y2="239.86"/>
    <line class="cls-2" x1="467.63" y1="231.84" x2="476.38" y2="246.04"/>
    <line class="cls-2" x1="454.29" y1="193.37" x2="463.05" y2="207.57"/>
    <line class="cls-2" x1="470.86" y1="193.37" x2="479.61" y2="207.57"/>
    <line class="cls-2" x1="451.35" y1="199.84" x2="456.12" y2="207.57"/>
    <line class="cls-2" x1="425.27" y1="190.56" x2="434.03" y2="204.76"/>
    <line class="cls-2" x1="419.82" y1="189.24" x2="428.57" y2="203.44"/>
    <line class="cls-2" x1="422.5" y1="202.02" x2="425.88" y2="207.5"/>
    <line class="cls-2" x1="437.33" y1="194.01" x2="446.08" y2="208.21"/>
    <line class="cls-2" x1="439.27" y1="208.35" x2="448.03" y2="222.55"/>
    <line class="cls-4" x1="493.11" y1="217.64" x2="501.87" y2="231.84"/>
    <line class="cls-2" x1="479.64" y1="196.56" x2="488.39" y2="210.76"/>
    <line class="cls-6" x1="498.34" y1="196.56" x2="503.77" y2="205.37"/>
    <line class="cls-6" x1="492.71" y1="207.63" x2="501.46" y2="221.83"/>
    <line class="cls-6" x1="514.23" y1="190.38" x2="522.78" y2="204.25"/>
    <line class="cls-2" x1="484.16" y1="184.2" x2="492.92" y2="198.4"/>
    <line class="cls-6" x1="500.73" y1="184.2" x2="509.49" y2="198.4"/>
    <line class="cls-2" x1="481.22" y1="190.67" x2="485.99" y2="198.4"/>
    <line class="cls-2" x1="487.48" y1="228.71" x2="496.23" y2="242.91"/>
    <line class="cls-2" x1="448.22" y1="242.81" x2="452.34" y2="249.5"/>
    <line class="cls-11" x1="465.46" y1="236.06" x2="474.22" y2="250.26"/>
    <line class="cls-11" x1="454.29" y1="247.24" x2="463.05" y2="261.44"/>
    <line class="cls-11" x1="487.03" y1="234.79" x2="495.79" y2="248.99"/>
    <line class="cls-11" x1="481.4" y1="245.86" x2="490.16" y2="260.06"/>
    <line class="cls-4" x1="527.39" y1="189.5" x2="536.14" y2="203.7"/>
    <line class="cls-4" x1="531.76" y1="203.7" x2="540.52" y2="217.9"/>
    <line class="cls-4" x1="538.98" y1="196.6" x2="547.74" y2="210.8"/>
    <line class="cls-4" x1="545.77" y1="182.4" x2="554.52" y2="196.6"/>
    <line class="cls-2" x1="396.14" y1="226.35" x2="404.9" y2="240.55"/>
    <line class="cls-4" x1="564.47" y1="182.4" x2="569.9" y2="191.21"/>
    <line class="cls-4" x1="557.46" y1="190.21" x2="566.22" y2="204.41"/>
    <line class="cls-4" x1="550.29" y1="170.05" x2="559.05" y2="184.25"/>
    <line class="cls-4" x1="566.86" y1="170.05" x2="575.61" y2="184.25"/>
    <line class="cls-4" x1="547.35" y1="176.52" x2="552.12" y2="184.25"/>
    <line class="cls-4" x1="521.27" y1="167.24" x2="530.03" y2="181.44"/>
    <line class="cls-4" x1="515.82" y1="165.92" x2="524.57" y2="180.12"/>
    <line class="cls-4" x1="518.5" y1="178.7" x2="521.88" y2="184.18"/>
    <line class="cls-4" x1="533.33" y1="170.69" x2="542.08" y2="184.89"/>
    <line class="cls-4" x1="535.27" y1="185.03" x2="544.03" y2="199.23"/>
    <line class="cls-4" x1="544.22" y1="219.49" x2="548.34" y2="226.18"/>
    <line class="cls-10" x1="561.46" y1="212.74" x2="570.22" y2="226.94"/>
    <line class="cls-10" x1="550.29" y1="223.92" x2="559.05" y2="238.12"/>
  </g>
  <g id="cloud5">
    <g id="cloud6">
      <path class="cls-23" d="M730,188.98c-1.89,2.17-.4,5.56,2.49,5.64,26.38.69,70.88-.76,71.84-1.38.79-.51,2.1-2.81,2.61-3.6,2.29-3.56,4.58-7.12,6.88-10.68.74-1.15,1.52-2.43,1.36-3.79s-1.79-2.56-2.92-1.79c2.12-3.86,3.83-7.96,5.07-12.19.66-2.24,1.12-4.86-.26-6.73-.94-1.26-2.52-1.87-4.07-2.14-6.75-1.17-13.35,3.02-17.87,8.16-4.53,5.14-7.76,11.34-12.47,16.3,1.01-1.95,3.56-5.49,2.72-8.36-.46-1.56-2.04-2.42-3.66-2.26-2.37.24-4,1.97-5.52,3.63,1.29-1.35.41-4.4-1.24-5.29s-3.76-.44-5.3.64-2.62,2.66-3.66,4.22c-1.04,1.56-2.11,3.15-3.63,4.24-.09-1.08-.95-1.99-1.95-2.41-1-.42-2.12-.44-3.21-.37-5.98.39-11.6,3.22-16.25,7-3.14,2.55-7.38,7.05-10.95,11.16Z"/>
      <path class="cls-22" d="M344.93,199.6c24.51,1.23,77.77-.45,78.81-1.12.79-.51,2.1-2.81,2.61-3.6,2.29-3.56,4.58-7.12,6.88-10.68.74-1.15,1.52-2.43,1.36-3.79s-1.79-2.56-2.92-1.79c2.12-3.86,3.83-7.96,5.07-12.19.66-2.24,1.12-4.86-.26-6.73-.94-1.26-2.52-1.87-4.07-2.14-6.75-1.17-13.35,3.02-17.87,8.16-4.53,5.14-7.76,11.34-12.47,16.3,1.04-2,3.69-5.66,2.65-8.56-.63-1.76-2.95-2.4-4.73-1.82s-3.12,2.01-4.38,3.39c1.29-1.35.41-4.4-1.24-5.29s-3.76-.44-5.3.64-2.62,2.66-3.66,4.22c-1.04,1.56-2.11,3.15-3.63,4.24-.09-1.08-.95-1.99-1.95-2.41-1-.42-2.12-.44-3.21-.37-5.98.39-11.6,3.22-16.25,7-4.65,3.77-11.72,11.84-15.44,16.54Z"/>
      <path class="cls-27" d="M222.66,253.47c-1.34,1.53-.32,3.93,1.72,4.02,17.96.78,47.54,1.45,49.18-1,.36-.54,1.44-1.93,1.79-2.47,1.57-2.44,3.14-4.88,4.72-7.33.51-.79,1.04-1.67.93-2.6s-1.23-1.76-2-1.23c1.46-2.65,2.63-5.46,3.48-8.36.45-1.54.77-3.33-.18-4.62-.64-.87-1.73-1.28-2.8-1.47-4.63-.8-9.16,2.07-12.26,5.6-3.11,3.52-5.32,7.78-8.56,11.18.7-1.35,2.47-3.81,1.85-5.78-.34-1.06-1.48-1.63-2.59-1.49-1.57.2-2.67,1.37-3.69,2.48.89-.93.28-3.02-.85-3.63-1.13-.61-2.58-.3-3.63.44-1.05.74-1.79,1.83-2.51,2.9s-1.45,2.16-2.49,2.91c-.06-.74-.65-1.36-1.34-1.65s-1.46-.3-2.2-.25c-4.1.27-7.95,2.21-11.15,4.8-2.13,1.73-5,4.77-7.42,7.55Z"/>
      <path class="cls-40" d="M646.27,217.24c-.6,1.39-1.27,2.86-2.56,3.66-1.18.73-2.65.75-4.05.75l-16.03-.02c-1.24,0-1.89-1.5-1.01-2.38,2.94-2.95,6.88-4.91,11.02-5.4.65-.08,1.38-.1,1.87.33.24.21.34.58.3.9-.07.49.34.93.83.98,1.39.14,2.85-.26,3.94-1.16.81-.67,1.4-1.56,2.19-2.25s1.9-1.18,2.88-.8c.95.37,1.45,1.46,1.44,2.48s-.42,1.98-.82,2.91Z"/>
    </g>
  </g>
  <g id="clouds4">
    <polyline class="cls-18" points="348.62 183.24 424.13 305.22 571.43 242.68 532.92 183.24"/>
    <path class="cls-45" d="M349.52,184.59c-.74-.02-1.16-.86-.73-1.46,11.72-16.35,28.85-40.01,41.5-55.37,6.88-8.35,14.58-17.02,25.04-19.8,6.69-1.78,14.37-.69,19.54,3.9,4.31,3.83,6.33,10.27,4.73,15.68-.24.81.6,1.52,1.33,1.09,1.65-.98,1.23-2.53,3.13-2.82.85-.13,3.75-.72,3.33,1.85l-.38,2.03c4.91-8.27,14.21-13.76,23.83-14.05,3.69-.11,7.65.61,10.3,3.18s3.32,7.36.62,9.88c6.56-12.47,18.8-22.68,32.11-27.32,13.3-4.64,28.36-4.04,41.25,1.64,4.57,2.01,8.95,4.71,12.12,8.56,3.71,4.5,5.54,10.34,5.93,16.16.39,5.82-.59,11.65-2,17.3-3.97,15.89-25.47,28.95-37.13,40.49-.15.15-.34.24-.55.26-10.91,1.14-20.76.96-31.72.65-30.07-.84-52.41-1.46-82.48-2.39-20.44-.63-48.9,1.05-69.78.54Z"/>
  </g>
  <g id="clouds3">
    <polyline class="cls-30" points="514.34 172.46 551.26 235.29 616.29 198.63 598.41 171.78"/>
    <path class="cls-20" d="M592.82,174.71c.54,0,1.41,0,2.36,0,3.42.02,6.54-1.99,7.89-5.13.95-2.23,1.45-4.72.79-7.14-1.28-4.62-5.8-7.96-10.57-8.46-4.77-.5-9.6,1.56-13.06,4.88,1.16-2.11-.26-4.94-2.44-5.98-2.18-1.03-4.87-1.47-7.15-.69s-4.44,1.81-6.19,4.06c1.31-3.82,2.11-8.91.17-12.45-1.12-2.04-3.16-3.44-5.31-4.34-6.28-2.62-13.69-1.4-19.64,1.92-5.94,3.32-10.61,8.52-14.63,14.01-2.83,3.87-6.61,9.46-10.09,14.29-1.68,2.34-.04,5.6,2.84,5.65,25.12.47,50.74-.43,75.03-.63Z"/>
  </g>
  <g id="clould2">
    <polyline class="cls-28" points="400.52 196.24 486.85 336.72 556.84 298.44 491.41 196.6"/>
    <path class="cls-44" d="M400.52,197.09c2.48-10.99,8-21.12,14.84-30.07,3.73-4.88,7.9-9.49,12.89-13.09,4.98-3.59,10.83-6.14,16.96-6.6,3.19-.24,6.75.25,8.87,2.65,1.51,1.7,2.01,4.06,2.24,6.32.9,8.73-1.51,17.75-6.63,24.87,1.06-1.53,2.69-4.38,4.44-5.03,1.75-.65,2.49-.37,3.67,1.07s1,3.82.23,6.15c2.03-5.4,6.58-9.64,11.84-12,5.27-2.35,11.2-2.94,16.94-2.43,3.33.29,6.78,1.01,9.37,3.12,3.97,3.24,4.97,9.09,3.77,14.07-.73,3.05-2.14,5.85-3.8,8.53-1.93,3.12-5.37,4.98-9.03,4.98-28.89,0-57.77-.65-86.59-2.56Z"/>
  </g>
  <g id="clouds1">
    <polyline class="cls-31" points="308.86 216.69 395.19 357.17 489.32 320.56 423.66 219.23"/>
    <path class="cls-24" d="M313.93,220.94c-3.99-.01-6.39-4.39-4.29-7.78,7.18-11.58,15.35-22.88,24.04-33.16,5.48-6.48,11.35-12.78,18.48-17.39s15.7-7.43,24.12-6.37c2.49.31,5.06,1.03,6.81,2.83,2.52,2.59,2.64,6.65,2.12,10.22-1.4,9.59-4.49,15.12-9.25,23.56,0,.48-.16.38,1.19-.92s1.6-1.51,2.94-2.69c1.41-1.24,4.95-.96,6.67-.22,1.8.77,3.21,3.1,2.95,5.03-.19,1.43-.61,2.68-.85,4.06-.06.36.4.55.6.25,1-1.51,2.45-3.37,3.43-4.68,2-2.67,3.44-3.52,5.38-5.56,5.83-6.14,11.46-8.5,20.37-10.41,6.98-1.5,14.29-.79,20.74,2.26,1.99.94,4.08,2.19,5.03,4.22,1.52,3.26.19,8.14-1.79,11.15-4.39,6.68-9.41,13.82-14.3,20.52-2.31,3.17-5.99,5.06-9.92,5.06-17.88,0-70.5.14-104.46.03Z"/>
  </g>
  <g id="drag_boxwes" data-name="drag boxwes">
    <g>
      <path class="cls-24" d="M288.44,151.37c-8.03,0-14.56-6.53-14.56-14.56s6.53-14.56,14.56-14.56h64.88c8.03,0,14.56,6.53,14.56,14.56s-6.53,14.56-14.56,14.56h-64.88Z"/>
      <path class="cls-5" d="M288.44,151.37c-8.03,0-14.56-6.53-14.56-14.56s6.53-14.56,14.56-14.56h64.88c8.03,0,14.56,6.53,14.56,14.56s-6.53,14.56-14.56,14.56h-64.88Z"/>
    </g>
    <g>
      <path class="cls-24" d="M89.4,339.29c-8.03,0-14.56-6.53-14.56-14.56s6.53-14.56,14.56-14.56h64.88c8.03,0,14.56,6.53,14.56,14.56s-6.53,14.56-14.56,14.56h-64.88Z"/>
      <path class="cls-5" d="M89.4,339.29c-8.03,0-14.56-6.53-14.56-14.56s6.53-14.56,14.56-14.56h64.88c8.03,0,14.56,6.53,14.56,14.56s-6.53,14.56-14.56,14.56h-64.88Z"/>
    </g>
    <g>
      <path class="cls-24" d="M354.36,268.1c-8.03,0-14.56-6.53-14.56-14.56s6.53-14.56,14.56-14.56h64.88c8.03,0,14.56,6.53,14.56,14.56s-6.53,14.56-14.56,14.56h-64.88Z"/>
      <path class="cls-5" d="M354.36,268.1c-8.03,0-14.56-6.53-14.56-14.56s6.53-14.56,14.56-14.56h64.88c8.03,0,14.56,6.53,14.56,14.56s-6.53,14.56-14.56,14.56h-64.88Z"/>
    </g>
    <g>
      <path class="cls-24" d="M393.82,463.98c-8.03,0-14.56-6.53-14.56-14.56s6.53-14.56,14.56-14.56h64.88c8.03,0,14.56,6.53,14.56,14.56s-6.53,14.56-14.56,14.56h-64.88Z"/>
      <path class="cls-5" d="M393.82,463.98c-8.03,0-14.56-6.53-14.56-14.56s6.53-14.56,14.56-14.56h64.88c8.03,0,14.56,6.53,14.56,14.56s-6.53,14.56-14.56,14.56h-64.88Z"/>
    </g>
    <path class="cls-13" d="M191.69,398.88l-4.61-4.61-1.54-1.54c-.85-.85-2.22-.85-3.07,0l-1.54,1.54-4.61,4.61c-.85.85-.85,2.22,0,3.07h0c.85.85,2.22.85,3.07,0l2.44-2.44v14.55c0,1.2.97,2.17,2.17,2.17s2.17-.97,2.17-2.17v-14.55l2.44,2.44c.85.85,2.22.85,3.07,0s.85-2.22,0-3.07Z"/>
    <g>
      <path class="cls-13" d="M187.07,362.3l-1.54-1.54c-.85-.85-2.22-.85-3.07,0l-1.54,1.54-4.61,4.61c-.85.85-.85,2.22,0,3.07.85.85,2.22.85,3.07,0l2.44-2.44v14.55c0,1.2.97,2.17,2.17,2.17s2.17-.97,2.17-2.17v-14.55l2.44,2.44c.85.85,2.22.85,3.07,0s.85-2.22,0-3.07l-4.61-4.61Z"/>
      <path class="cls-13" d="M187.07,330.34l-1.54-1.54c-.85-.85-2.22-.85-3.07,0l-1.54,1.54-4.61,4.61c-.85.85-.85,2.22,0,3.07.85.85,2.22.85,3.07,0l2.44-2.44v14.55c0,1.2.97,2.17,2.17,2.17s2.17-.97,2.17-2.17v-14.55l2.44,2.44c.85.85,2.22.85,3.07,0s.85-2.22,0-3.07l-4.61-4.61Z"/>
      <path class="cls-13" d="M187.07,298.38l-1.54-1.54c-.85-.85-2.22-.85-3.07,0l-1.54,1.54-4.61,4.61c-.85.85-.85,2.22,0,3.07h0c.85.85,2.22.85,3.07,0l2.44-2.44v14.55c0,1.2.97,2.17,2.17,2.17s2.17-.97,2.17-2.17v-14.55l2.44,2.44c.85.85,2.22.85,3.07,0,.85-.85.85-2.22,0-3.07l-4.61-4.61Z"/>
      <path class="cls-13" d="M187.07,266.42l-1.54-1.54c-.85-.85-2.22-.85-3.07,0l-1.54,1.54-4.61,4.61c-.85.85-.85,2.22,0,3.07s2.22.85,3.07,0l2.44-2.44v14.55c0,1.2.97,2.17,2.17,2.17s2.17-.97,2.17-2.17v-14.55l2.44,2.44c.85.85,2.22.85,3.07,0,.85-.85.85-2.22,0-3.07l-4.61-4.61Z"/>
      <path class="cls-13" d="M179.39,242.15l2.44-2.44v14.55c0,1.2.97,2.17,2.17,2.17s2.17-.97,2.17-2.17v-14.55l2.44,2.44c.85.85,2.22.85,3.07,0,.85-.85.85-2.22,0-3.07l-4.61-4.61-1.54-1.54c-.85-.85-2.22-.85-3.07,0l-1.54,1.54-4.61,4.61c-.85.85-.85,2.22,0,3.07.85.85,2.22.85,3.07,0Z"/>
    </g>
    <path class="cls-13" d="M447.4,232.75l1.54,1.54c.85.85,2.22.85,3.07,0l1.54-1.54,4.61-4.61c.85-.85.85-2.22,0-3.07-.85-.85-2.22-.85-3.07,0l-2.44,2.44v-14.55c0-1.2-.97-2.17-2.17-2.17s-2.17.97-2.17,2.17v14.55l-2.44-2.44c-.85-.85-2.22-.85-3.07,0s-.85,2.22,0,3.07l4.61,4.61Z"/>
    <path class="cls-13" d="M447.4,264.18l1.54,1.54c.85.85,2.22.85,3.07,0l1.54-1.54,4.61-4.61c.85-.85.85-2.22,0-3.07-.85-.85-2.22-.85-3.07,0l-2.44,2.44v-14.55c0-1.2-.97-2.17-2.17-2.17s-2.17.97-2.17,2.17v14.55l-2.44-2.44c-.85-.85-2.22-.85-3.07,0-.85.85-.85,2.22,0,3.07l4.61,4.61Z"/>
    <path class="cls-13" d="M458.16,287.93c-.85-.85-2.22-.85-3.07,0l-2.44,2.44v-14.55c0-1.2-.97-2.17-2.17-2.17s-2.17.97-2.17,2.17v14.55l-2.44-2.44c-.85-.85-2.22-.85-3.07,0s-.85,2.22,0,3.07l4.61,4.61,1.54,1.54c.85.85,2.22.85,3.07,0l1.54-1.54,4.61-4.61c.85-.85.85-2.22,0-3.07Z"/>
    <g>
      <path class="cls-13" d="M523.24,421.05c-.85-.85-2.22-.85-3.07,0l-10.29,10.29v-3.45c0-1.2-.97-2.17-2.17-2.17s-2.17.97-2.17,2.17v8.7c0,1.2.97,2.17,2.17,2.17h8.7c1.2,0,2.17-.97,2.17-2.17h0c0-1.2-.97-2.17-2.17-2.17h-3.45l10.29-10.29c.85-.85.85-2.22,0-3.07Z"/>
      <path class="cls-13" d="M497.94,443.28l-10.29,10.29v-3.45c0-1.2-.97-2.17-2.17-2.17s-2.17.97-2.17,2.17v8.7c0,1.2.97,2.17,2.17,2.17h8.7c1.2,0,2.17-.97,2.17-2.17s-.97-2.17-2.17-2.17h-3.45l10.29-10.29c.85-.85.85-2.22,0-3.07-.85-.85-2.22-.85-3.07,0Z"/>
      <path class="cls-13" d="M475.72,465.5l-10.29,10.29v-3.45c0-1.2-.97-2.17-2.17-2.17s-2.17.97-2.17,2.17v8.7c0,1.2.97,2.17,2.17,2.17h8.7c1.2,0,2.17-.97,2.17-2.17s-.97-2.17-2.17-2.17h-3.45l10.29-10.29c.85-.85.85-2.22,0-3.07-.85-.85-2.22-.85-3.07,0Z"/>
    </g>
    <path class="cls-13" d="M273.17,163.51l-4.61-4.61c-.85-.85-2.22-.85-3.07,0h0c-.85.85-.85,2.22,0,3.07l2.44,2.44h-14.55c-1.2,0-2.17.97-2.17,2.17s.97,2.17,2.17,2.17h14.55l-2.44,2.44c-.85.85-.85,2.22,0,3.07.85.85,2.22.85,3.07,0l4.61-4.61,1.54-1.54c.85-.85.85-2.22,0-3.07l-1.54-1.54Z"/>
    <path class="cls-13" d="M303.07,163.51l-4.61-4.61c-.85-.85-2.22-.85-3.07,0-.85.85-.85,2.22,0,3.07l2.44,2.44h-14.55c-1.2,0-2.17.97-2.17,2.17s.97,2.17,2.17,2.17h14.55l-2.44,2.44c-.85.85-.85,2.22,0,3.07s2.22.85,3.07,0l4.61-4.61,1.54-1.54c.85-.85.85-2.22,0-3.07l-1.54-1.54Z"/>
    <path class="cls-13" d="M332.97,163.51l-4.61-4.61c-.85-.85-2.22-.85-3.07,0s-.85,2.22,0,3.07l2.44,2.44h-14.55c-1.2,0-2.17.97-2.17,2.17s.97,2.17,2.17,2.17h14.55l-2.44,2.44c-.85.85-.85,2.22,0,3.07.85.85,2.22.85,3.07,0l4.61-4.61,1.54-1.54c.85-.85.85-2.22,0-3.07l-1.54-1.54Z"/>
    <path class="cls-13" d="M362.87,163.51l-4.61-4.61c-.85-.85-2.22-.85-3.07,0-.85.85-.85,2.22,0,3.07l2.44,2.44h-14.55c-1.2,0-2.17.97-2.17,2.17s.97,2.17,2.17,2.17h14.55l-2.44,2.44c-.85.85-.85,2.22,0,3.07.85.85,2.22.85,3.07,0l4.61-4.61,1.54-1.54c.85-.85.85-2.22,0-3.07l-1.54-1.54Z"/>
    <path class="cls-13" d="M392.77,163.51l-4.61-4.61c-.85-.85-2.22-.85-3.07,0-.85.85-.85,2.22,0,3.07l2.44,2.44h-14.55c-1.2,0-2.17.97-2.17,2.17s.97,2.17,2.17,2.17h14.55l-2.44,2.44c-.85.85-.85,2.22,0,3.07s2.22.85,3.07,0l4.61-4.61,1.54-1.54c.85-.85.85-2.22,0-3.07l-1.54-1.54Z"/>
  </g>
</svg>