<?xml version="1.0" encoding="utf-8"?>
<!-- Generator: Adobe Illustrator 25.2.1, SVG Export Plug-In . SVG Version: 6.00 Build 0)  -->
<svg version="1.1" id="Layer_1" xmlns="http://www.w3.org/2000/svg" xmlns:xlink="http://www.w3.org/1999/xlink" x="0px" y="0px"
	 viewBox="0 0 500 400" style="enable-background:new 0 0 500 400;" xml:space="preserve">
<style type="text/css">
	.st0{fill:#C4C4C4;}
	.st1{fill:none;}
	.st2{fill:#565656;}
	.st3{fill:#FFFFFF;}
	.st4{fill:#6B2626;}
	.st5{fill:#FFED66;}
	.st6{fill:#5E2121;}
	.st7{fill:#842A13;}
	.st8{fill:#F5F5F5;}
	.st9{fill:#824100;}
	.st10{fill:#FAFAFA;}
</style>
<g>
	<g>
		<polygon class="st7" points="175.9,163.6 175.4,200.1 171.5,316.1 195.6,322 195.6,340.1 230,340.1 191.7,212.8 		"/>
		<polygon class="st7" points="303.1,162.6 298.6,180.7 261.3,340.1 289.3,340.1 289.3,322.2 310.9,316.3 303.6,215.9 		"/>
		<path class="st7" d="M388.7,110h-88.4c0-29.3-25-52.7-54.8-50.1c-25.4,2.2-43.8,24.8-45.5,50.1h-88.7L85,135.7h27l-3.1,46.2
			l-16.5,19v139.2h24.4V322l22.6-5.5l9.2-152.3l-15,0.1l2-27.6h64.1h13.7l35.1,128c0.2,0.8,1.4,0.8,1.6,0l34.4-128h15.8h0h64.1
			l2,27.7L342,164l13.6,152.6l20.6,5.6v17.9h29.8V200.9l-14.8-13.6l-3.4-51.6h27L388.7,110z"/>
		<polygon class="st7" points="431.9,221.9 431.9,340.1 456.1,340.1 456.1,246.1 		"/>
		<polygon class="st7" points="43.9,340.1 68.1,340.1 68.1,221.9 43.9,246.1 		"/>
	</g>
	<circle class="st5" cx="250" cy="105.7" r="24.4"/>
</g>
</svg>
