<svg width="371" height="300" viewBox="0 0 371 300" fill="none" xmlns="http://www.w3.org/2000/svg">
<rect width="371" height="300" fill="#F2A8FF"/>
<rect x="28" y="28" width="316" height="244" fill="white"/>
<rect x="56" y="56" width="261" height="188" fill="#F2A8FF"/>
<rect x="84" y="84" width="205" height="132" fill="white"/>
<rect x="112" y="112" width="148" height="76" fill="#F2A8FF"/>
<rect width="92" height="20" transform="matrix(1 0 0 -1 140 160)" fill="white"/>
<path d="M302.773 272C298.117 272 293.969 270.841 290.327 269.175C286.685 267.476 283.803 264.977 281.681 261.677C279.591 258.344 278.546 254.195 278.546 249.229C278.546 245.048 279.29 241.536 280.779 238.693C282.267 235.851 284.294 233.564 286.859 231.832C289.424 230.101 292.338 228.794 295.6 227.912C298.893 227.03 302.345 226.409 305.956 226.05C310.199 225.592 313.619 225.168 316.216 224.776C318.813 224.351 320.698 223.73 321.869 222.913C323.041 222.097 323.627 220.888 323.627 219.287V218.993C323.627 215.889 322.677 213.488 320.777 211.789C318.908 210.09 316.248 209.241 312.796 209.241C309.154 209.241 306.256 210.074 304.103 211.74C301.949 213.374 300.524 215.432 299.828 217.915L281.111 216.347C282.061 211.773 283.93 207.82 286.717 204.487C289.503 201.122 293.098 198.541 297.5 196.744C301.934 194.915 307.064 194 312.891 194C316.945 194 320.824 194.49 324.53 195.47C328.266 196.45 331.576 197.969 334.458 200.028C337.371 202.086 339.667 204.732 341.346 207.967C343.024 211.168 344.277 215.007 344.277 219.483C344.277 223.959 344.277 272 344.277 272H324.672V259.815H324.102C322.93 262.167 321.363 264.241 319.399 266.038C317.436 267.803 315.076 269.191 312.321 270.204C309.566 271.184 306.383 272 302.773 272ZM308.568 257.266C311.545 257.266 314.174 256.662 316.454 255.453C318.734 254.212 320.523 252.545 321.822 250.455C323.12 248.364 323.769 245.995 323.769 243.349V235.361C323.136 235.786 322.265 236.178 321.157 236.537C320.08 236.864 318.861 237.174 317.499 237.468C316.137 237.729 314.775 237.974 313.414 238.203C312.052 238.399 310.817 238.579 309.708 238.742C307.333 239.102 305.259 239.673 303.485 240.457C301.712 241.241 300.334 242.303 299.353 243.643C298.371 244.95 297.88 246.583 297.88 248.543C297.88 251.386 298.878 253.558 300.873 255.061C302.899 256.531 305.465 257.266 308.568 257.266Z" fill="#262626"/>
<path d="M268.668 196.727V213H223.108V196.727H268.668ZM234.819 178H255.056V248.176C255.056 250.104 255.341 251.607 255.911 252.685C256.481 253.73 257.273 254.465 258.286 254.89C259.331 255.315 260.535 255.527 261.896 255.527C262.847 255.527 263.797 255.445 264.747 255.282C265.697 255.086 266.425 254.939 266.932 254.841L270.115 270.376C269.101 270.702 267.676 271.078 265.839 271.503C264.002 271.96 261.603 272.402 258.974 272.5C254.097 272.696 249.989 271.862 246.315 270.327C242.673 268.791 239.839 266.406 237.812 263.172C235.785 259.938 234.788 255.854 234.819 250.92V178Z" fill="#262626"/>
<path d="M183.365 272C175.86 272 169.312 270.155 163.896 267.018C158.513 263.849 154.364 259.374 151.45 253.591C148.537 247.776 147.08 240.898 147.08 232.96C147.08 225.217 148.537 218.421 151.45 212.573C154.364 206.725 158.465 202.168 163.754 198.901C169.074 195.634 175.313 194 182.47 194C187.284 194 191.765 194.8 195.914 196.401C200.094 197.969 203.736 200.338 206.84 203.507C209.975 206.676 212.414 210.662 214.155 215.464C215.897 220.234 216.768 225.821 216.768 232.224V237.958H155.156V225.021H197.719C197.719 222.015 197.086 219.352 195.819 217.033C194.552 214.713 192.794 212.9 190.546 211.593C188.329 210.254 185.748 209.584 182.803 209.584C179.731 209.584 177.007 210.319 174.632 211.789C172.289 213.227 170.452 215.17 169.122 217.621C167.792 220.038 167.111 222.734 167.079 225.707V241.253C167.079 243.753 167.744 244.95 169.074 247.661C170.436 250.373 172.352 252.464 174.822 253.934C177.292 255.404 180.222 256.139 183.61 256.139C185.859 256.139 187.917 255.813 189.786 255.159C191.654 254.506 193.254 253.526 194.584 252.219C195.914 250.912 196.927 249.311 197.624 247.416L216.34 248.69C215.39 253.33 213.443 257.381 210.498 260.844C207.584 264.274 203.815 266.953 199.192 268.881C194.6 270.776 189.383 272 183.365 272Z" fill="#262626"/>
<path d="M28 171.637H53.367L80.1591 239.069H81.2992L108.091 171.637H133.458V272H113.507V206.676H112.699L87.3993 272H74.313L48.7591 206.431H47.9516V272H28V171.637Z" fill="#262626"/>
</svg>
