<?xml version="1.0" encoding="UTF-8"?>
<svg id="Layer_1" xmlns="http://www.w3.org/2000/svg" version="1.1" viewBox="0 0 500 400">
  <!-- Generator: Adobe Illustrator 29.1.0, SVG Export Plug-In . SVG Version: 2.1.0 Build 142)  -->
  <defs>
    <style>
      .st0 {
        fill: #fff;
      }

      .st1 {
        fill: #43445a;
      }

      .st2 {
        fill: #f2a8ff;
      }
    </style>
  </defs>
  <rect class="st2" width="500" height="400"/>
  <rect class="st0" x="38" y="38" width="424" height="324"/>
  <rect class="st2" x="76" y="75" width="348" height="250"/>
  <rect class="st0" x="114" y="112" width="271" height="176"/>
  <rect class="st2" x="152" y="150" width="196" height="100"/>
  <rect class="st0" x="190" y="186" width="119" height="28"/>
  <path class="st1" d="M458.2,307.8c-1.3,0-2.3.8-2.9,1.5l-.2.2c-1.5,2.1-3.2,4.2-4.9,6.1-1.7,1.9-3.7,4-5.9,6.2h-.1c-3.7,4.4-7.9,8.6-12.4,12.8-4.2,4-8.5,7.1-12.6,9.2h0c-3.3,2-4.8,2.2-5.2,2.2s-.9,0-.9-1.8.4-3.2,1.1-5.3c.8-2.3,1.8-4.9,2.9-7.6,2.2-4.9,4.6-10.1,7.4-15.3,3-5.3,5.6-9.9,7.8-13.7,2.4-4.3,3.1-5.8,3.4-6.5.6-1.3.8-2.6.6-3.7-.2-.9-.8-2.2-2.5-3-1.9-.9-4.2-1.4-6.9-1.4s-4.4.3-6.6,1c-2.2.7-3.8,1.7-4.8,3-.8,1-1.7,2.2-2.7,3.7v.2c-.9,1.3-1.7,2.7-2.7,4.3-2.6,3-6.1,7.2-10.3,12.4-4.3,5.1-9.1,10.4-14.2,15.7-4.9,5.3-9.7,9.8-14.3,13.5-7.7,5.8-11.7,7-13.7,7s-2.4,0-2.4-3.3.2-3.2.6-5.2c.6-2.2,1.5-4.8,2.9-7.7,2.7-6.6,6.9-14,12.3-22,5.5-8.2,11.6-15.9,18.2-23,6-6.2,12.3-11.7,18.5-16.2,6-4.3,11.3-6.5,15.8-6.5s8.3,2.9,10.6,8.7c1.4,4.3,4.3,5,5.8,5,3.7,0,5.9-2.4,5.9-6.5s-.5-2.8-1.4-4.3c-.8-1.7-2.1-3.2-4.1-4.8-3.8-3.1-7.7-5.4-11.6-6.6-11.5-4.2-24-2.3-37.2,5.5-8.3,4.8-16.2,11.3-23.7,19.1-7.4,7.8-13.9,16.1-19.4,24.8-.7,1.1-1.3,2.4-2.1,3.8-.1.1-.3.3-.4.4-.2.2-.3.3-.4.5l-.2.2c-1.2,1.6-2.2,2.7-3.4,4-.3.4-.7.7-1.1,1.2-1.8,2-3.7,4.1-5.7,6.2-3.9,4.3-8.1,8.6-12.4,12.7-4.2,4-8.4,7.1-12.6,9.2-5.5,2.7-9.4,2.9-12,.4s-1.8-3.4-1.8-6.6.6-6.3,1.7-10.4c1.4-4.3,3.4-9.5,6.1-15.5,3.6-7.4,6.6-13.5,8.9-18.4,2.6-4.9,5.1-9.6,7.4-13.9,2.4-4.2,5.1-9.1,8.1-14.5h28.9c2.3,0,4.2-.4,5.7-1.1h.2c1.8-1.3,2.7-2.7,2.7-4.2s-.7-3.5-5.3-3.5h-27c1.8-3.3,4-6.8,6.4-10.6,3.1-5.1,6.4-10.1,9.8-14.8,3.3-4.7,6.4-8.5,9.1-11.4l3.2-3.4h-4.7c-1.5,0-3.8.2-7.1.6-3.5.4-7.5,2.1-12.1,5.1-4.4,2.7-9.2,7.5-14.5,14.2-1.4,1.8-3.3,4.5-5.5,7.9-1.9,3-4.4,7.2-7.5,12.5h-9.6c-2.4,0-4.4.5-5.8,1.5-1.6,1-2.5,2.2-2.5,3.5s.5,3.8,5.3,3.8h7.9c-7,13.3-12.9,25.5-17.5,36.2-1.5,3.3-2.8,6.5-3.9,9.5-1.4,1.8-2.8,3.7-4.2,5.4-1.8,2-3.7,4.1-5.6,6.2l-7.1,7.2c-1.9,1.9-4,3.9-6.1,5.9-2.1,1.7-5.4,4.1-9.7,7-4.3,2.9-8.9,5.6-13.7,7.9-4.7,2.1-9.1,3.1-13.2,3.1s-4.2-.6-5.8-1.9c-1.3-1.4-2-3.8-2-7.1v-2.5l.6-2.8c.4-2.1.9-4.4,1.5-6.8.5-2.1,1.1-4.3,1.7-6.5,12-2.8,22.8-7,32.2-12.5,9.9-5.9,19-14,27.1-24.3,2.3-2.9,4-5.8,5.1-8.6,1.1-2.8,1.6-5.4,1.6-7.6,0-5.6-2.3-10.2-6.7-13.5-4.1-3.3-9.2-4.9-15-4.9s-12.9,2.3-20.1,6.9c-6.9,4.2-13.7,10-20.4,17-6.4,7-12,14.9-16.6,23.3-2.2,3.9-4.6,9.2-7,15.9-2.2,6.7-3.4,13.3-3.4,19.4s2.4,14.9,7.2,19.6c4.7,4.5,11.1,6.8,19,6.8s18.5-2.4,26.4-7.1c7.9-4.6,14.1-9.4,18.6-14.1,3.2-3.4,6.4-7,9.6-10.6-.3,1.4-.5,2.8-.7,4.1-.2,1.7-.3,3.4-.3,5,0,6.7,1.7,11.7,5.2,14.6,3.3,2.9,7.5,4.4,12.4,4.4,9.6,0,18-3.1,24.9-9.1,6.2-5.4,11.9-11.1,17.1-17-.5,2.7-.8,5.4-.8,8,0,5,1.5,9.4,4.3,12.9,3,3.7,8.1,5.5,15.3,5.5s13.3-2.2,19.4-6.6c5.9-4.3,11.4-9.6,16.5-15.9,2-2.4,3.8-4.8,5.6-7.2-1.4,4.8-2.1,9.2-2.1,13.1s1.3,9.6,3.9,12.5c2.6,2.6,5.8,3.9,9.5,3.9,7.6,0,16-4.2,24.9-12.5,2.4-2.2,4.8-4.6,7-7,2-2.2,4.2-4.8,6.2-7.1l1-1.2c.6-.6,1.1-1.2,1.7-1.8,1.7-1.8,3.3-3.5,5-5.6,2.1-2.7,4.3-5.4,6.5-7.9,1.1-1.2,1.7-2.6,1.7-4.1,0-3.5-2-4.7-3.8-4.7ZM240,291.7c6.9-8.9,15.4-16,24.9-21.2,2.9-1.4,5.3-2.2,7.1-2.2s2.7.9,2.7,2.1-.6,3-1.8,4.9c-4.1,6.6-9.3,12.8-15.7,18.6-6.2,5.6-12.8,10.6-19.7,14.7-4.6,2.8-8.8,5.2-12.7,7.1,4.1-8.5,9.2-16.6,15-24.1Z"/>
  <path class="st1" d="M218.7,197.7c-4-2.1-7.9-3.2-11.8-3.2h-1.1l-.6,1c-.4.6-1.7,2.7-6.1,8.7-3.3,4.8-7.7,11-13.1,18.4-5.3,7.2-11.1,15.2-17.6,24-6.5,8.7-13.1,17.6-19.6,26.4-6.6,9-13,17.6-19,25.8-4,5.3-7.7,10.1-11.1,14.5.6-3.2,1.1-6.8,1.8-10.6,1.4-7.5,2.8-15.2,4.1-23.1,1.4-7.6,2.9-15.3,4.7-23,1.9-7.8,3.7-15.3,5.3-22.3,1.6-7.1,2.4-13.3,2.4-18.3s0-1.6-.3-2.3v-1.7c-.5-3.8-2.8-7.6-7.1-11.2-4.1-3.8-8.2-5.8-12.2-5.8s-2.5.2-3.2.5l-.8.4-.2.9c-2.3,9.6-6.5,20.3-12.4,32.1-6,11.6-13,23.8-20.7,36.2-7.6,12.5-15.1,24.8-22.5,36.9-2.1,3.5-4.8,7.5-7.9,11.9-3,4.3-5.7,9-8.1,13.7-2.3,4.7-3.4,9.4-3.4,13.7s.9,10.5,2.6,13.6c1.8,3.2,3.9,4.7,6.9,6.4l1.8,1,.9-1.8c1.1-2.3,1.8-4,2.6-6.1.6-1.6,1.3-3.5,2.4-6,2.7-6,5.9-12.5,9.6-19.5,3.5-6.8,7.2-13.8,11.1-20.7,4.1-7.1,8-13.5,11.7-18.9,1.8-2.7,4.2-6.7,7.3-11.7,3.1-5.1,6.4-10.7,9.7-16.8,3.5-6.2,6.9-12.5,10-18.5.1-.2.2-.4.3-.7-.6,3.1-1.3,6.3-2,9.6-2.2,10.6-4.3,21.4-6.4,32.2-2.1,10.7-3.9,20.4-5.3,28.8-.4,2.5-.8,5.6-1.2,9.1-.4,3.4-.6,6.8-.6,10.2,0,5.7.9,10.9,2.8,15.4,2.1,5,6.1,7.7,11.8,7.7h2v-2c0-2.4.3-5.1.8-8,.7-3.2,2.1-6.8,3.9-10.7,3.6-6.9,9-15.1,15.9-24.3,7.2-9.5,15.1-20.2,23.4-31.6,1.1-1.5,3.2-4.3,6.4-8.8,3.3-4.3,7.1-9.3,11.2-15,4-5.6,8.1-11.1,12-16.4,3.2-4.3,6-8.1,8.3-11.3-.8,2.6-2,5.5-3.5,8.6-3.5,7.3-7.9,15.7-13.1,24.8-5,8.9-10.3,18.3-15.5,27.8-5.1,9.4-9.5,18.5-13,27.1-3.6,8.8-5.4,16.5-5.4,23s.9,9.6,2.8,13.7h0c2.1,4.2,5.5,7.4,9.9,9.7l2.6,1.4.3-2.9c.2-1.8.4-4.2.6-7.4.4-3,1.2-6.5,2.5-10.4,2.3-6.8,4.7-13.3,7-19.2,2.5-6.2,5-12.3,7.3-18.1,5.4-13.2,11.5-26.3,18.1-39.1,6.6-12.8,13-25.7,19-38,3.8-7.2,6-11.9,6.6-14.2.9-3.1.9-4.3.9-4.9,0-4.6-2.3-8.3-6.6-10.6Z"/>
</svg>