<svg width="525" height="235" viewBox="0 0 525 235" fill="none" xmlns="http://www.w3.org/2000/svg">
<path d="M15.0759 0C13.7392 0 13.3324 1.89135 13.3324 4.60236L12.1075 84.6665C11.9728 96.4334 11.4301 100.349 7.91426 101.44C6.02645 101.974 6.76446 102.104 5.00609 102.104C3.65796 102.104 2.83407 102.385 2.83407 103.194C2.83407 104.405 4.06172 104.547 5.81453 104.547C12.8431 104.547 16.0351 104.13 17.2421 104.13C19.8179 104.13 22.0532 104.547 30.8423 104.547C32.7267 104.547 33.9562 104.272 33.9562 103.194C33.9562 102.385 33.1406 102.104 31.6516 102.104C29.4923 102.104 30.0916 101.977 27.7901 101.156C25.0871 100.214 23.3346 96.7021 23.0646 86.1489L21.5744 29.3499H21.9846C24.4133 31.9163 39.4302 48.8192 54.1555 63.4244C68.2144 77.3469 85.5232 95.0776 94.0308 103.194C95.5198 104.683 97.154 106.168 98.6337 106.168C99.8478 106.168 100.401 104.951 100.401 101.977L101.887 16.6348C102.016 9.06389 103.11 6.21112 106.888 5.13171C108.504 4.73825 107.163 5.01343 108.408 4.73362C109.974 4.35776 110.839 4.32008 110.839 3.50906C110.839 2.43861 109.486 2.29655 107.716 2.29655C101.102 2.29655 98.504 2.71287 97.0243 2.71287C94.1791 2.71287 90.8582 2.29655 83.8272 2.29655C81.7945 2.29655 80.3117 2.43861 80.3117 3.50906C80.3117 4.32008 80.8523 4.73362 82.4711 4.73362C84.3648 4.73362 84.442 4.73547 86.4778 5.54186C89.7122 6.89397 90.9262 9.44994 91.0621 17.7025L92.4306 78.4393H91.7325C89.431 76.2867 71.1955 56.7988 62.0052 47.5953C42.2621 27.9931 21.7035 5.95416 20.0817 4.1845C17.7805 1.757 16.5689 0 15.0759 0ZM382.567 0.410142C381.764 0.410142 381.362 1.2224 380.96 2.96766C380.682 4.05849 378.087 16.3522 378.087 18.5364C378.087 20.0077 378.365 20.6899 379.323 20.6899C380.126 20.6899 380.528 20.1467 380.806 19.0734C381.084 17.9792 381.764 16.3485 383.092 14.3321C385.131 11.3611 388.374 10.6813 396.221 10.4114L416.363 9.8746V65.321C416.363 77.7611 416.363 90.0468 415.683 95.7141C415.281 99.6487 414.633 102.299 411.76 103.166C409.875 103.732 406.137 103.732 405.859 103.738C181.788 109.198 -0.400933 233.176 0.00066265 233.766C0.383414 234.335 1.16158 234.492 1.75162 234.097C3.25606 233.102 155.964 134.254 402.451 115.813C477.488 110.205 523.208 108.488 523.671 108.516C524.289 108.534 524.876 108.105 525 107.496C525.092 106.968 507.144 102.898 442.425 103.194C441.252 103.095 440.109 102.963 439.182 102.833C435.135 102.305 434.332 99.3244 433.93 95.535C433.251 89.7287 433.251 77.7611 433.251 65.321V9.8746L450.272 10.2773C462.32 10.5516 465.965 14.3318 466.243 17.8535L466.367 19.3437C466.521 21.3644 466.799 22.046 467.88 22.046C468.684 22.046 468.931 21.2279 469.085 19.8743C469.085 16.3467 469.487 7.02708 469.487 4.18511C469.487 2.15139 469.363 1.34377 468.406 1.34377C467.88 1.34377 466.799 1.62667 464.76 2.03156C462.721 2.30118 459.756 2.71317 455.431 2.71317H401.895C397.416 2.71317 392.288 2.44201 388.364 2.03156C384.997 1.76163 383.638 0.408907 382.557 0.408907L382.567 0.410142ZM176.768 2.29809C174.747 2.29809 173.786 2.56802 173.786 3.5106C173.786 4.45659 174.611 4.73516 176.091 4.73516C177.979 4.73516 179.007 4.86889 180.104 5.13326C184.568 6.08171 184.373 8.2541 184.642 12.8423C184.911 17.1682 184.914 20.9515 184.914 41.5198V80.3412C184.914 106.849 185.05 120.376 174.766 130.794C172.072 133.484 170.033 134.978 168.285 135.927C165.983 137.15 165.31 137.684 165.31 138.357C165.31 139.033 165.847 139.444 166.391 139.444C167.058 139.444 168.149 139.172 169.1 138.629C171.936 137.289 174.102 136.198 175.85 135.105C188.828 127.131 195.998 117.807 198.84 109.555C201.543 101.979 202.09 93.3218 202.09 85.6069C202.09 78.8556 201.682 72.3607 201.682 66.5452V41.5198C201.682 20.9515 201.682 17.1682 201.945 12.8423C202.219 8.11358 202.667 5.8192 206.322 5.13326C207.938 4.86889 206.937 4.88001 208.975 4.73516C210.591 4.59896 211.401 4.45659 211.401 3.5106C211.401 2.56802 210.458 2.29809 208.565 2.29809C203.294 2.29809 196.68 2.71441 193.434 2.71441C189.924 2.71441 183.938 2.29809 176.768 2.29809ZM280.864 2.29809C278.714 2.29809 277.627 2.56678 277.627 3.3778C277.627 4.45535 278.436 4.73516 279.798 4.73516C281.417 4.73516 281.905 4.86796 283.394 5.25988C286.372 5.95787 287.089 8.2541 287.364 12.8423C287.623 17.1682 287.623 20.9515 287.623 41.5198V65.3222C287.623 78.4387 287.626 89.1215 286.953 94.8011C286.539 98.7265 286.366 101.034 283.666 101.568C282.437 101.843 282.1 102.105 280.064 102.105C278.439 102.105 277.902 102.519 277.902 103.195C277.902 104.134 278.85 104.548 280.605 104.548C286.011 104.548 292.625 104.131 295.739 104.131C299.393 104.131 305.368 104.548 314.295 104.548C315.778 104.548 316.86 104.134 316.86 103.195C316.86 102.519 316.18 102.105 314.697 102.105C312.658 102.105 312.226 101.843 310.341 101.568C306.294 101.034 305.337 98.5875 304.935 94.9494C304.379 89.1246 304.379 78.4387 304.379 65.3222V41.5198C304.379 20.9515 304.379 17.1682 304.657 12.8423C304.935 8.11358 305.399 5.8192 309.013 5.13326C310.65 4.86889 310.465 4.73516 311.824 4.73516C313.152 4.73516 313.987 4.45535 313.987 3.3778C313.987 2.56678 312.905 2.29809 311.144 2.29809C306.016 2.29809 299.928 2.71441 296.563 2.71441C292.625 2.71441 286.008 2.29809 280.864 2.29809Z" fill="#CC0000"/>
</svg>
