<svg width="27" height="23" viewBox="0 0 27 23" fill="none" xmlns="http://www.w3.org/2000/svg">
<path d="M17.3244 0.854073C18.0254 0.344785 18.9746 0.344785 19.6756 0.854073L25.4084 5.01922C26.1094 5.52851 26.4027 6.43125 26.135 7.25529L23.9452 13.9946C23.6775 14.8187 22.9095 15.3766 22.0431 15.3766H14.9569C14.0905 15.3766 13.3226 14.8187 13.0548 13.9946L10.8651 7.25529C10.5973 6.43125 10.8906 5.52851 11.5916 5.01922L17.3244 0.854073Z" fill="#5ED16E"/>
<path d="M6 11C6 9.89543 6.89543 9 8 9H18C19.1046 9 20 9.89543 20 11V21C20 22.1046 19.1046 23 18 23H8C6.89543 23 6 22.1046 6 21V11Z" fill="#7B41DE"/>
<path d="M6.76796 2C7.53776 0.666667 9.46226 0.666666 10.2321 2L15.8612 11.75C16.631 13.0833 15.6688 14.75 14.1292 14.75H2.87084C1.33124 14.75 0.368991 13.0833 1.13879 11.75L6.76796 2Z" fill="#E166CB"/>
</svg>
