<svg width="22" height="17" viewBox="0 0 22 17" fill="none" xmlns="http://www.w3.org/2000/svg">
<rect width="22" height="17" rx="2" fill="#B8FFB4"/>
<g clip-path="url(#clip0_76_185)">
<path d="M10.8469 12.8593C10.6633 13.1347 9.84714 14.3886 9.74703 14.6954L22.8386 14.2537L22.8386 9.45108C22.39 9.42498 22.6041 9.33646 22.1765 9.45108C21.7136 9.57517 21.1794 9.70471 20.803 9.98326C20.6002 10.1333 20.3991 10.2835 20.1931 10.4311C20.0653 10.5226 19.9108 10.6856 19.7379 10.7113C19.4089 10.7603 19.1 10.683 18.7929 10.5959C18.3817 10.4794 17.9095 10.262 17.5607 10.0456C16.74 9.53635 15.5888 9.30218 14.5654 9.45833C14.0905 9.53079 13.6791 9.65875 13.3161 9.94297C12.923 10.2507 12.6538 10.6108 12.3319 10.9698C11.9365 11.4109 11.1667 12.3795 10.8469 12.8593Z" fill="#5DE095"/>
<path d="M5.57431 15.3869C5.39941 15.704 4.61581 16.5146 4.52361 16.8698C4.52361 16.8698 20.2315 18.005 21.8003 16.9483C23.5721 15.41 22.5234 13.8234 22.5234 13.8234C22.278 13.4404 21.8462 13.0678 21.4564 12.8324C20.7325 12.3952 19.9984 11.8855 19.1845 11.6352C18.7695 11.5076 18.3657 11.4585 17.9355 11.42C17.494 11.3805 17.0617 11.5227 16.6436 11.6475C16.191 11.7827 15.6684 11.9227 15.3041 12.2395C15.1077 12.4101 14.9131 12.5809 14.7135 12.7486C14.5898 12.8526 14.4412 13.0393 14.2718 13.0658C13.9492 13.1161 13.6441 13.0199 13.3403 12.9122C12.9337 12.7681 12.465 12.5053 12.1177 12.2462C11.3005 11.6365 10.164 11.3404 9.16104 11.5015C8.6956 11.5762 8.2938 11.7169 7.94265 12.0406C7.56249 12.3909 7.30509 12.8049 6.99588 13.2165C6.61609 13.7221 5.87894 14.8346 5.57431 15.3869Z" fill="#47BF7B"/>
</g>
<circle cx="17.5" cy="4.5" r="2.5" fill="#FFC653"/>
<rect width="22" height="17" rx="2" fill="url(#paint0_linear_76_185)"/>
<defs>
<linearGradient id="paint0_linear_76_185" x1="0" y1="8.5" x2="22" y2="8.5" gradientUnits="userSpaceOnUse">
<stop offset="0.409197" stop-color="#E3E3E3"/>
<stop offset="0.60207" stop-color="#E3E3E3" stop-opacity="0"/>
</linearGradient>
<clipPath id="clip0_76_185">
<path d="M4 8H22V15C22 16.1046 21.1046 17 20 17H4V8Z" fill="white"/>
</clipPath>
</defs>
</svg>
