<svg width="52" height="33" viewBox="0 0 52 33" fill="none" xmlns="http://www.w3.org/2000/svg">
<g clip-path="url(#clip0_75_140)">
<mask id="mask0_75_140" style="mask-type:luminance" maskUnits="userSpaceOnUse" x="0" y="0" width="52" height="33">
<path d="M0 0H52V32.4H0V0Z" fill="white"/>
</mask>
<g mask="url(#mask0_75_140)">
<path fill-rule="evenodd" clip-rule="evenodd" d="M26 0C19.0667 0 14.7333 3.6 13 10.8C15.6 7.2 18.6333 5.85 22.1 6.75C24.0779 7.263 25.4916 8.754 27.0564 10.403C29.6053 13.09 32.5559 16.2 39 16.2C45.9333 16.2 50.2667 12.6 52 5.4C49.4 9 46.3667 10.35 42.9 9.45C40.9221 8.937 39.5084 7.446 37.9436 5.797C35.3947 3.11 32.4441 0 26 0ZM13 16.2C6.06667 16.2 1.73333 19.8 0 27C2.6 23.4 5.63333 22.05 9.1 22.95C11.0779 23.464 12.4916 24.954 14.0564 26.603C16.6053 29.29 19.5559 32.4 26 32.4C32.9333 32.4 37.2667 28.8 39 21.6C36.4 25.2 33.3667 26.55 29.9 25.65C27.9221 25.137 26.5084 23.646 24.9436 21.997C22.3947 19.31 19.4441 16.2 13 16.2Z" fill="#38BDF8"/>
</g>
</g>
<defs>
<clipPath id="clip0_75_140">
<rect width="52" height="33" fill="white"/>
</clipPath>
</defs>
</svg>
