<?xml version="1.0" encoding="utf-8"?>
<svg version="1.1" xmlns:xlink="http://www.w3.org/1999/xlink" width="390px" height="844px" xmlns="http://www.w3.org/2000/svg">
  <defs>
    <path d="M 0 0  L 390 0  L 390 844  L 0 844  Z " fill-rule="evenodd" fill="black" id="path22" />
    <clipPath id="clip23">
      <use xlink:href="#path22" />
    </clipPath>
    <g clip-path="url(#clip0_74_25)">
      <rect width="390" height="844" fill="#DCD6C6" />
      <path d="M116.934 708.021C80.7154 740.545 -21.8041 679.651 -31.8635 667.555L-294 214.653L58.4789 18.151C134.928 135.56 267.524 381.439 317.359 465.427C379.653 570.412 300.029 674.496 223.245 657.472C162.516 644.008 153.152 675.498 116.934 708.021Z" fill="#EBE3CB" />
      <path d="M152.692 629.104C97.7339 627.943 53.0293 515.412 53.0797 499.998L154.179 0L602.045 97.0226C583.197 232.361 519.89 497.265 502.202 590.81C480.092 707.743 335.654 728.46 281.455 664.593C238.588 614.08 207.65 630.265 152.692 629.104Z" fill="#F1ECDC" />
      <path d="M77.5 570.5C5.11439 525.672 -1.3534 473.801 -4 458.293V-65L399.5 -58.5C406.852 81.4116 410.941 360.638 412 458.293C413.059 555.947 335.5 503 272 554.5C223.688 593.682 116.489 594.646 77.5 570.5Z" fill="#FFFCF3" />
    </g>
    <defs>
      <clipPath id="clip0_74_25">
        <rect width="390" height="844" fill="white" />
      </clipPath>
    </defs>
    <filter x="-50.00%" y="-50.00%" width="200.00%" height="200.00%" filterUnits="objectBoundingBox" id="filter24">
      <feColorMatrix type="matrix" values="1 0 0 0 0  0 1 0 0 0  0 0 1 0 0  0 0 0 1 0  " in="SourceGraphic" />
    </filter>
  </defs>
  <g>
    <g clip-path="url(#clip23)" filter="url(#filter24)">
      <g clip-path="url(#clip0_74_25)">
        <rect width="390" height="844" fill="#DCD6C6" />
        <path d="M116.934 708.021C80.7154 740.545 -21.8041 679.651 -31.8635 667.555L-294 214.653L58.4789 18.151C134.928 135.56 267.524 381.439 317.359 465.427C379.653 570.412 300.029 674.496 223.245 657.472C162.516 644.008 153.152 675.498 116.934 708.021Z" fill="#EBE3CB" />
        <path d="M152.692 629.104C97.7339 627.943 53.0293 515.412 53.0797 499.998L154.179 0L602.045 97.0226C583.197 232.361 519.89 497.265 502.202 590.81C480.092 707.743 335.654 728.46 281.455 664.593C238.588 614.08 207.65 630.265 152.692 629.104Z" fill="#F1ECDC" />
        <path d="M77.5 570.5C5.11439 525.672 -1.3534 473.801 -4 458.293V-65L399.5 -58.5C406.852 81.4116 410.941 360.638 412 458.293C413.059 555.947 335.5 503 272 554.5C223.688 593.682 116.489 594.646 77.5 570.5Z" fill="#FFFCF3" />
      </g>
    </g>
  </g>
</svg>