<svg width="390" height="844" viewBox="0 0 390 844" fill="none" xmlns="http://www.w3.org/2000/svg">
<g clip-path="url(#clip0_74_57)">
<rect width="390" height="844" rx="15" fill="#FFFCF3"/>
<path d="M400 530C216 668.325 93.5 651.277 -18 668.325V858H400V530Z" fill="#FFEDF2"/>
<path d="M133.28 696.947C94.6142 676.116 84.8701 606.84 118.167 586.483C195.007 508.448 395.057 615.158 437.503 661.007C479.949 706.856 456.514 769.463 384.071 775.457C311.627 781.451 318.208 722.9 260.436 701.444C202.663 679.988 184.524 724.553 133.28 696.947Z" fill="#D6FAFC" fill-opacity="0.52"/>
<path d="M-11.1868 745.638C-28.2942 805.583 -6.82892 874.114 24.6285 861.029C82.2901 828.496 74.4585 713.157 53.9694 690.727C33.4803 668.298 10.1974 670.706 -11.1868 745.638Z" fill="#DEF4DB"/>
<path d="M68.331 752.64C31.6528 788.186 17.6511 851.77 44.532 859.518C97.3741 867.287 140.204 776.102 135.62 747.76C131.036 719.419 114.179 708.207 68.331 752.64Z" fill="#E4F2AB" fill-opacity="0.65"/>
<path d="M130.451 797C89.6481 795.791 50.1916 824.255 63.9569 844.69C94.5794 880.544 165.945 853.225 176.499 834.113C187.053 815.001 181.454 798.512 130.451 797Z" fill="#DAFFF4" fill-opacity="0.42"/>
</g>
<defs>
<clipPath id="clip0_74_57">
<rect width="390" height="844" rx="15" fill="white"/>
</clipPath>
</defs>
</svg>
