<svg id="Layer_1" data-name="Layer 1" xmlns="http://www.w3.org/2000/svg" width="48.656" height="36.967" viewBox="0 0 48.656 36.967"><defs><style>.cls-1{fill:#0078bb;stroke:#0078bb;stroke-linecap:round;stroke-linejoin:round;stroke-width:3px;fill-rule:evenodd;}</style></defs><path class="cls-1" d="M1319.181,1820.063c3.3,0,5.814,3.188,5.814,7.06s-2.519,6.833-5.814,6.833-5.813-2.961-5.813-6.833S1315.887,1820.063,1319.181,1820.063Z" transform="translate(-1284.233 -1818.563)"/><path class="cls-1" d="M1331.389,1854.029h-13.951a24.506,24.506,0,0,0-4.187-12.517,1.045,1.045,0,0,1,.274-1.487l.044-.028a2.156,2.156,0,0,1,2.326-.044,6.337,6.337,0,0,0,6.611-.025,2.33,2.33,0,0,1,2.547.081c3.66,2.387,6.337,7.06,6.337,14.02Z" transform="translate(-1284.233 -1818.563)"/><path class="cls-1" d="M1297.942,1820.063c-3.1,0-5.814,3.188-5.814,7.06s2.713,6.833,5.814,6.833c3.294,0,6.007-2.961,6.007-6.833S1301.236,1820.063,1297.942,1820.063Z" transform="translate(-1284.233 -1818.563)"/><path class="cls-1" d="M1297.844,1854.029h12.3c0-7.134-2.969-11.867-6.662-14.2a2.137,2.137,0,0,0-2.3.1,6.046,6.046,0,0,1-6.485,0,2.137,2.137,0,0,0-2.3-.1c-3.693,2.329-6.663,7.062-6.663,14.2h12.111Z" transform="translate(-1284.233 -1818.563)"/></svg>