<?xml version="1.0" encoding="utf-8"?>
<svg version="1.1" xmlns:xlink="http://www.w3.org/1999/xlink" width="284px" height="136px" xmlns="http://www.w3.org/2000/svg">
  <defs>
    <path d="M 0 0  L 498 0  L 498 302  L 0 302  Z " fill-rule="evenodd" fill="black" id="path25" />
    <clipPath id="clip26">
      <use xlink:href="#path25" />
    </clipPath>
    <g clip-path="url(#clip0_77_130)">
      <path d="M432.364 247.822L328.98 249.594C328.272 241.313 328.162 232.991 328.653 224.694C331.878 173.532 358.84 124.363 400.331 94.248C395.259 113.438 398.384 132.387 404.308 151.288C403.513 151.602 402.717 151.816 402.022 152.128C396.385 154.311 391.239 157.595 386.885 161.788C385.706 163.009 384.433 164.631 385.061 166.22C385.683 167.51 387.291 167.982 388.796 168.256C392.308 168.896 395.817 169.436 399.329 170.076C402.139 170.628 404.947 171.076 407.755 171.532C409.055 171.71 410.363 171.988 411.666 172.166C411.873 172.566 411.982 173.06 412.189 173.457C418.996 191.343 426.506 209.417 430.122 227.857C431.02 232.475 431.668 237.138 432.062 241.826C432.2 243.825 432.33 245.823 432.364 247.822Z" fill="#F2F2F2" />
      <path d="M182.086 186.808C164.486 197.508 153.386 214.008 144.286 232.508C136.359 234.317 129.048 238.18 123.086 243.708C121.786 244.908 120.486 246.508 121.186 248.108C121.786 249.408 123.386 249.908 124.886 250.208C128.386 250.908 131.886 251.508 135.386 252.208C135.086 253.008 134.686 253.808 134.386 254.608H18.0859C23.3508 247.495 29.2048 240.839 35.5859 234.708C36.9859 233.308 38.3859 232.008 39.7859 230.708C58.9286 213.55 81.5604 200.741 106.125 193.163C130.689 185.585 156.604 183.417 182.086 186.808V186.808Z" fill="#F2F2F2" />
      <path d="M179.3 248.294V258.194C179.3 258.698 179.5 259.181 179.856 259.537C180.213 259.894 180.696 260.094 181.2 260.094H249.6C250.104 260.094 250.587 259.894 250.943 259.537C251.3 259.181 251.5 258.698 251.5 258.194V248.294H179.3Z" fill="#3F3D56" />
      <path d="M181.5 262.394C181.778 262.736 182.129 263.011 182.527 263.202C182.924 263.392 183.359 263.492 183.8 263.494H346.1C346.895 263.492 347.656 263.175 348.218 262.613C348.781 262.051 349.097 261.289 349.1 260.494C349.116 260.289 349.081 260.083 349 259.894L346.5 247.894C346.395 247.397 346.165 246.934 345.833 246.55C345.501 246.165 345.076 245.871 344.6 245.694C344.246 245.571 343.875 245.503 343.5 245.494H186.3C185.926 245.512 185.556 245.579 185.2 245.694C184.743 245.903 184.337 246.207 184.01 246.587C183.682 246.966 183.44 247.412 183.3 247.894L180.8 259.894C180.737 260.337 180.766 260.787 180.887 261.218C181.007 261.648 181.216 262.049 181.5 262.394V262.394Z" fill="#2F2E41" />
      <path d="M201.8 250.794H197.8C197.733 250.798 197.667 250.788 197.604 250.764C197.542 250.74 197.485 250.704 197.438 250.656C197.39 250.609 197.354 250.552 197.33 250.49C197.306 250.427 197.296 250.361 197.3 250.294V248.294C197.296 248.227 197.306 248.16 197.33 248.098C197.354 248.035 197.39 247.978 197.438 247.931C197.485 247.884 197.542 247.847 197.604 247.824C197.667 247.8 197.733 247.79 197.8 247.794H201.8C201.867 247.79 201.934 247.8 201.996 247.824C202.059 247.847 202.116 247.884 202.163 247.931C202.21 247.978 202.247 248.035 202.271 248.098C202.294 248.16 202.304 248.227 202.3 248.294V250.294C202.292 250.424 202.236 250.546 202.144 250.638C202.052 250.73 201.93 250.785 201.8 250.794V250.794Z" fill="#3F3D56" />
      <path d="M191.8 250.794H187.8C187.733 250.798 187.667 250.788 187.604 250.764C187.542 250.74 187.485 250.704 187.438 250.656C187.39 250.609 187.354 250.552 187.33 250.49C187.306 250.427 187.296 250.361 187.3 250.294V248.294C187.296 248.227 187.306 248.16 187.33 248.098C187.354 248.035 187.39 247.978 187.438 247.931C187.485 247.884 187.542 247.847 187.604 247.824C187.667 247.8 187.733 247.79 187.8 247.794H191.8C191.867 247.79 191.934 247.8 191.996 247.824C192.059 247.847 192.116 247.884 192.163 247.931C192.21 247.978 192.247 248.035 192.271 248.098C192.294 248.16 192.304 248.227 192.3 248.294V250.294C192.292 250.424 192.236 250.546 192.144 250.638C192.052 250.73 191.93 250.785 191.8 250.794V250.794Z" fill="#3F3D56" />
      <path d="M181.8 250.794H177.8C177.733 250.798 177.667 250.788 177.604 250.764C177.542 250.74 177.485 250.704 177.438 250.656C177.39 250.609 177.354 250.552 177.33 250.49C177.306 250.427 177.296 250.361 177.3 250.294V248.294C177.296 248.227 177.306 248.16 177.33 248.098C177.354 248.035 177.39 247.978 177.438 247.931C177.485 247.884 177.542 247.847 177.604 247.824C177.667 247.8 177.733 247.79 177.8 247.794H181.8C181.867 247.79 181.934 247.8 181.996 247.824C182.059 247.847 182.116 247.884 182.163 247.931C182.21 247.978 182.247 248.035 182.271 248.098C182.294 248.16 182.304 248.227 182.3 248.294V250.294C182.292 250.424 182.236 250.546 182.144 250.638C182.052 250.73 181.93 250.785 181.8 250.794V250.794Z" fill="#3F3D56" />
      <path d="M171.8 250.794H167.8C167.733 250.798 167.667 250.788 167.604 250.764C167.542 250.74 167.485 250.704 167.438 250.656C167.39 250.609 167.354 250.552 167.33 250.49C167.306 250.427 167.296 250.361 167.3 250.294V248.294C167.296 248.227 167.306 248.16 167.33 248.098C167.354 248.035 167.39 247.978 167.438 247.931C167.485 247.884 167.542 247.847 167.604 247.824C167.667 247.8 167.733 247.79 167.8 247.794H171.8C171.867 247.79 171.934 247.8 171.996 247.824C172.059 247.847 172.116 247.884 172.163 247.931C172.21 247.978 172.247 248.035 172.271 248.098C172.294 248.16 172.304 248.227 172.3 248.294V250.294C172.292 250.424 172.236 250.546 172.144 250.638C172.052 250.73 171.93 250.785 171.8 250.794V250.794Z" fill="#3F3D56" />
      <path d="M161.8 250.794H157.8C157.733 250.798 157.667 250.788 157.604 250.764C157.542 250.74 157.485 250.704 157.438 250.656C157.39 250.609 157.354 250.552 157.33 250.49C157.306 250.427 157.296 250.361 157.3 250.294V248.294C157.296 248.227 157.306 248.16 157.33 248.098C157.354 248.035 157.39 247.978 157.438 247.931C157.485 247.884 157.542 247.847 157.604 247.824C157.667 247.8 157.733 247.79 157.8 247.794H161.8C161.867 247.79 161.934 247.8 161.996 247.824C162.059 247.847 162.116 247.884 162.163 247.931C162.21 247.978 162.247 248.035 162.271 248.098C162.294 248.16 162.304 248.227 162.3 248.294V250.294C162.292 250.424 162.236 250.546 162.144 250.638C162.052 250.73 161.93 250.785 161.8 250.794V250.794Z" fill="#3F3D56" />
      <path d="M151.8 250.794H147.8C147.733 250.798 147.667 250.788 147.604 250.764C147.542 250.74 147.485 250.704 147.438 250.656C147.39 250.609 147.354 250.552 147.33 250.49C147.306 250.427 147.296 250.361 147.3 250.294V248.294C147.296 248.227 147.306 248.16 147.33 248.098C147.354 248.035 147.39 247.978 147.438 247.931C147.485 247.884 147.542 247.847 147.604 247.824C147.667 247.8 147.733 247.79 147.8 247.794H151.8C151.867 247.79 151.934 247.8 151.996 247.824C152.059 247.847 152.116 247.884 152.163 247.931C152.21 247.978 152.247 248.035 152.271 248.098C152.294 248.16 152.304 248.227 152.3 248.294V250.294C152.292 250.424 152.236 250.546 152.144 250.638C152.052 250.73 151.93 250.785 151.8 250.794V250.794Z" fill="#3F3D56" />
      <path d="M141.8 250.794H137.8C137.733 250.798 137.667 250.788 137.604 250.764C137.542 250.74 137.485 250.704 137.438 250.656C137.39 250.609 137.354 250.552 137.33 250.49C137.306 250.427 137.296 250.361 137.3 250.294V248.294C137.296 248.227 137.306 248.16 137.33 248.098C137.354 248.035 137.39 247.978 137.438 247.931C137.485 247.884 137.542 247.847 137.604 247.824C137.667 247.8 137.733 247.79 137.8 247.794H141.8C141.867 247.79 141.934 247.8 141.996 247.824C142.059 247.847 142.116 247.884 142.163 247.931C142.21 247.978 142.247 248.035 142.271 248.098C142.294 248.16 142.304 248.227 142.3 248.294V250.294C142.292 250.424 142.236 250.546 142.144 250.638C142.052 250.73 141.93 250.785 141.8 250.794V250.794Z" fill="#3F3D56" />
      <path d="M131.8 250.794H127.8C127.733 250.798 127.667 250.788 127.604 250.764C127.542 250.74 127.485 250.704 127.438 250.656C127.39 250.609 127.354 250.552 127.33 250.49C127.306 250.427 127.296 250.361 127.3 250.294V248.294C127.296 248.227 127.306 248.16 127.33 248.098C127.354 248.035 127.39 247.978 127.438 247.931C127.485 247.884 127.542 247.847 127.604 247.824C127.667 247.8 127.733 247.79 127.8 247.794H131.8C131.867 247.79 131.934 247.8 131.996 247.824C132.059 247.847 132.116 247.884 132.163 247.931C132.21 247.978 132.247 248.035 132.271 248.098C132.294 248.16 132.304 248.227 132.3 248.294V250.294C132.292 250.424 132.236 250.546 132.144 250.638C132.052 250.73 131.93 250.785 131.8 250.794V250.794Z" fill="#3F3D56" />
      <path d="M121.8 250.794H117.8C117.733 250.798 117.667 250.788 117.604 250.764C117.542 250.74 117.485 250.704 117.438 250.656C117.39 250.609 117.354 250.552 117.33 250.49C117.306 250.427 117.296 250.361 117.3 250.294V248.294C117.296 248.227 117.306 248.16 117.33 248.098C117.354 248.035 117.39 247.978 117.438 247.931C117.485 247.884 117.542 247.847 117.604 247.824C117.667 247.8 117.733 247.79 117.8 247.794H121.8C121.867 247.79 121.934 247.8 121.996 247.824C122.059 247.847 122.116 247.884 122.163 247.931C122.21 247.978 122.247 248.035 122.271 248.098C122.294 248.16 122.304 248.227 122.3 248.294V250.294C122.292 250.424 122.236 250.546 122.144 250.638C122.052 250.73 121.93 250.785 121.8 250.794V250.794Z" fill="#3F3D56" />
      <path d="M199.1 250.794H195.1C195.033 250.798 194.966 250.788 194.904 250.764C194.841 250.74 194.785 250.704 194.737 250.656C194.69 250.609 194.653 250.552 194.63 250.49C194.606 250.427 194.596 250.361 194.6 250.294V248.294C194.596 248.227 194.606 248.16 194.63 248.098C194.653 248.035 194.69 247.978 194.737 247.931C194.785 247.884 194.841 247.847 194.904 247.824C194.966 247.8 195.033 247.79 195.1 247.794H199.1C199.167 247.79 199.234 247.8 199.296 247.824C199.359 247.847 199.415 247.884 199.463 247.931C199.51 247.978 199.547 248.035 199.57 248.098C199.594 248.16 199.604 248.227 199.6 248.294V250.294C199.592 250.424 199.536 250.546 199.444 250.638C199.352 250.73 199.23 250.785 199.1 250.794V250.794Z" fill="#3F3D56" />
      <path d="M189.1 250.794H185.1C185.033 250.798 184.966 250.788 184.904 250.764C184.841 250.74 184.785 250.704 184.737 250.656C184.69 250.609 184.653 250.552 184.63 250.49C184.606 250.427 184.596 250.361 184.6 250.294V248.294C184.596 248.227 184.606 248.16 184.63 248.098C184.653 248.035 184.69 247.978 184.737 247.931C184.785 247.884 184.841 247.847 184.904 247.824C184.966 247.8 185.033 247.79 185.1 247.794H189.1C189.167 247.79 189.234 247.8 189.296 247.824C189.359 247.847 189.415 247.884 189.463 247.931C189.51 247.978 189.547 248.035 189.57 248.098C189.594 248.16 189.604 248.227 189.6 248.294V250.294C189.592 250.424 189.536 250.546 189.444 250.638C189.352 250.73 189.23 250.785 189.1 250.794V250.794Z" fill="#3F3D56" />
      <path d="M179.1 250.794H175.1C175.033 250.798 174.966 250.788 174.904 250.764C174.841 250.74 174.785 250.704 174.737 250.656C174.69 250.609 174.653 250.552 174.63 250.49C174.606 250.427 174.596 250.361 174.6 250.294V248.294C174.596 248.227 174.606 248.16 174.63 248.098C174.653 248.035 174.69 247.978 174.737 247.931C174.785 247.884 174.841 247.847 174.904 247.824C174.966 247.8 175.033 247.79 175.1 247.794H179.1C179.167 247.79 179.234 247.8 179.296 247.824C179.359 247.847 179.415 247.884 179.463 247.931C179.51 247.978 179.547 248.035 179.57 248.098C179.594 248.16 179.604 248.227 179.6 248.294V250.294C179.592 250.424 179.536 250.546 179.444 250.638C179.352 250.73 179.23 250.785 179.1 250.794V250.794Z" fill="#3F3D56" />
      <path d="M169.1 250.794H165.1C165.033 250.798 164.966 250.788 164.904 250.764C164.841 250.74 164.785 250.704 164.737 250.656C164.69 250.609 164.653 250.552 164.63 250.49C164.606 250.427 164.596 250.361 164.6 250.294V248.294C164.596 248.227 164.606 248.16 164.63 248.098C164.653 248.035 164.69 247.978 164.737 247.931C164.785 247.884 164.841 247.847 164.904 247.824C164.966 247.8 165.033 247.79 165.1 247.794H169.1C169.167 247.79 169.234 247.8 169.296 247.824C169.359 247.847 169.415 247.884 169.463 247.931C169.51 247.978 169.547 248.035 169.57 248.098C169.594 248.16 169.604 248.227 169.6 248.294V250.294C169.592 250.424 169.536 250.546 169.444 250.638C169.352 250.73 169.23 250.785 169.1 250.794V250.794Z" fill="#3F3D56" />
      <path d="M159.1 250.794H155.1C155.033 250.798 154.966 250.788 154.904 250.764C154.841 250.74 154.785 250.704 154.737 250.656C154.69 250.609 154.653 250.552 154.63 250.49C154.606 250.427 154.596 250.361 154.6 250.294V248.294C154.596 248.227 154.606 248.16 154.63 248.098C154.653 248.035 154.69 247.978 154.737 247.931C154.785 247.884 154.841 247.847 154.904 247.824C154.966 247.8 155.033 247.79 155.1 247.794H159.1C159.167 247.79 159.234 247.8 159.296 247.824C159.359 247.847 159.415 247.884 159.463 247.931C159.51 247.978 159.547 248.035 159.57 248.098C159.594 248.16 159.604 248.227 159.6 248.294V250.294C159.592 250.424 159.536 250.546 159.444 250.638C159.352 250.73 159.23 250.785 159.1 250.794V250.794Z" fill="#3F3D56" />
      <path d="M149.1 250.794H145.1C145.033 250.798 144.966 250.788 144.904 250.764C144.841 250.74 144.785 250.704 144.737 250.656C144.69 250.609 144.653 250.552 144.63 250.49C144.606 250.427 144.596 250.361 144.6 250.294V248.294C144.596 248.227 144.606 248.16 144.63 248.098C144.653 248.035 144.69 247.978 144.737 247.931C144.785 247.884 144.841 247.847 144.904 247.824C144.966 247.8 145.033 247.79 145.1 247.794H149.1C149.167 247.79 149.234 247.8 149.296 247.824C149.359 247.847 149.415 247.884 149.463 247.931C149.51 247.978 149.547 248.035 149.57 248.098C149.594 248.16 149.604 248.227 149.6 248.294V250.294C149.592 250.424 149.536 250.546 149.444 250.638C149.352 250.73 149.23 250.785 149.1 250.794V250.794Z" fill="#3F3D56" />
      <path d="M192 250.794H188C187.933 250.798 187.866 250.788 187.804 250.764C187.741 250.74 187.685 250.704 187.637 250.656C187.59 250.609 187.553 250.552 187.53 250.49C187.506 250.427 187.496 250.361 187.5 250.294V248.294C187.496 248.227 187.506 248.16 187.53 248.098C187.553 248.035 187.59 247.978 187.637 247.931C187.685 247.884 187.741 247.847 187.804 247.824C187.866 247.8 187.933 247.79 188 247.794H192C192.067 247.79 192.133 247.8 192.196 247.824C192.259 247.847 192.315 247.884 192.363 247.931C192.41 247.978 192.447 248.035 192.47 248.098C192.494 248.16 192.504 248.227 192.5 248.294V250.294C192.491 250.424 192.436 250.546 192.344 250.638C192.252 250.73 192.13 250.785 192 250.794V250.794Z" fill="#3F3D56" />
      <path d="M201.9 255.794H197.9C197.833 255.798 197.766 255.788 197.704 255.764C197.641 255.74 197.584 255.704 197.537 255.656C197.49 255.609 197.453 255.552 197.43 255.49C197.406 255.427 197.396 255.361 197.4 255.294V253.294C197.396 253.227 197.406 253.16 197.43 253.098C197.453 253.035 197.49 252.978 197.537 252.931C197.584 252.884 197.641 252.847 197.704 252.824C197.766 252.8 197.833 252.79 197.9 252.794H201.9C201.967 252.79 202.033 252.8 202.096 252.824C202.158 252.847 202.215 252.884 202.262 252.931C202.31 252.978 202.346 253.035 202.37 253.098C202.394 253.16 202.404 253.227 202.4 253.294V255.294C202.391 255.424 202.336 255.546 202.244 255.638C202.152 255.73 202.03 255.785 201.9 255.794V255.794Z" fill="#3F3D56" />
      <path d="M191.9 255.794H187.9C187.833 255.798 187.766 255.788 187.704 255.764C187.641 255.74 187.584 255.704 187.537 255.656C187.49 255.609 187.453 255.552 187.43 255.49C187.406 255.427 187.396 255.361 187.4 255.294V253.294C187.396 253.227 187.406 253.16 187.43 253.098C187.453 253.035 187.49 252.978 187.537 252.931C187.584 252.884 187.641 252.847 187.704 252.824C187.766 252.8 187.833 252.79 187.9 252.794H191.9C191.967 252.79 192.033 252.8 192.096 252.824C192.158 252.847 192.215 252.884 192.262 252.931C192.31 252.978 192.346 253.035 192.37 253.098C192.394 253.16 192.404 253.227 192.4 253.294V255.294C192.391 255.424 192.336 255.546 192.244 255.638C192.152 255.73 192.03 255.785 191.9 255.794V255.794Z" fill="#3F3D56" />
      <path d="M181.9 255.794H177.9C177.833 255.798 177.766 255.788 177.704 255.764C177.641 255.74 177.584 255.704 177.537 255.656C177.49 255.609 177.453 255.552 177.43 255.49C177.406 255.427 177.396 255.361 177.4 255.294V253.294C177.396 253.227 177.406 253.16 177.43 253.098C177.453 253.035 177.49 252.978 177.537 252.931C177.584 252.884 177.641 252.847 177.704 252.824C177.766 252.8 177.833 252.79 177.9 252.794H181.9C181.967 252.79 182.033 252.8 182.096 252.824C182.158 252.847 182.215 252.884 182.262 252.931C182.31 252.978 182.346 253.035 182.37 253.098C182.394 253.16 182.404 253.227 182.4 253.294V255.294C182.391 255.424 182.336 255.546 182.244 255.638C182.152 255.73 182.03 255.785 181.9 255.794V255.794Z" fill="#3F3D56" />
      <path d="M171.9 255.794H167.9C167.833 255.798 167.766 255.788 167.704 255.764C167.641 255.74 167.584 255.704 167.537 255.656C167.49 255.609 167.453 255.552 167.43 255.49C167.406 255.427 167.396 255.361 167.4 255.294V253.294C167.396 253.227 167.406 253.16 167.43 253.098C167.453 253.035 167.49 252.978 167.537 252.931C167.584 252.884 167.641 252.847 167.704 252.824C167.766 252.8 167.833 252.79 167.9 252.794H171.9C171.967 252.79 172.033 252.8 172.096 252.824C172.158 252.847 172.215 252.884 172.262 252.931C172.31 252.978 172.346 253.035 172.37 253.098C172.394 253.16 172.404 253.227 172.4 253.294V255.294C172.391 255.424 172.336 255.546 172.244 255.638C172.152 255.73 172.03 255.785 171.9 255.794V255.794Z" fill="#3F3D56" />
      <path d="M161.9 255.794H157.9C157.833 255.798 157.766 255.788 157.704 255.764C157.641 255.74 157.584 255.704 157.537 255.656C157.49 255.609 157.453 255.552 157.43 255.49C157.406 255.427 157.396 255.361 157.4 255.294V253.294C157.396 253.227 157.406 253.16 157.43 253.098C157.453 253.035 157.49 252.978 157.537 252.931C157.584 252.884 157.641 252.847 157.704 252.824C157.766 252.8 157.833 252.79 157.9 252.794H161.9C161.967 252.79 162.033 252.8 162.096 252.824C162.158 252.847 162.215 252.884 162.262 252.931C162.31 252.978 162.346 253.035 162.37 253.098C162.394 253.16 162.404 253.227 162.4 253.294V255.294C162.391 255.424 162.336 255.546 162.244 255.638C162.152 255.73 162.03 255.785 161.9 255.794V255.794Z" fill="#3F3D56" />
      <path d="M151.9 255.794H147.9C147.833 255.798 147.766 255.788 147.704 255.764C147.641 255.74 147.584 255.704 147.537 255.656C147.49 255.609 147.453 255.552 147.43 255.49C147.406 255.427 147.396 255.361 147.4 255.294V253.294C147.396 253.227 147.406 253.16 147.43 253.098C147.453 253.035 147.49 252.978 147.537 252.931C147.584 252.884 147.641 252.847 147.704 252.824C147.766 252.8 147.833 252.79 147.9 252.794H151.9C151.967 252.79 152.033 252.8 152.096 252.824C152.158 252.847 152.215 252.884 152.262 252.931C152.31 252.978 152.346 253.035 152.37 253.098C152.394 253.16 152.404 253.227 152.4 253.294V255.294C152.391 255.424 152.336 255.546 152.244 255.638C152.152 255.73 152.03 255.785 151.9 255.794V255.794Z" fill="#3F3D56" />
      <path d="M141.9 255.794H137.9C137.833 255.798 137.766 255.788 137.704 255.764C137.641 255.74 137.584 255.704 137.537 255.656C137.49 255.609 137.453 255.552 137.43 255.49C137.406 255.427 137.396 255.361 137.4 255.294V253.294C137.396 253.227 137.406 253.16 137.43 253.098C137.453 253.035 137.49 252.978 137.537 252.931C137.584 252.884 137.641 252.847 137.704 252.824C137.766 252.8 137.833 252.79 137.9 252.794H141.9C141.967 252.79 142.033 252.8 142.096 252.824C142.158 252.847 142.215 252.884 142.262 252.931C142.31 252.978 142.346 253.035 142.37 253.098C142.394 253.16 142.404 253.227 142.4 253.294V255.294C142.391 255.424 142.336 255.546 142.244 255.638C142.152 255.73 142.03 255.785 141.9 255.794V255.794Z" fill="#3F3D56" />
      <path d="M131.9 255.794H127.9C127.833 255.798 127.766 255.788 127.704 255.764C127.641 255.74 127.584 255.704 127.537 255.656C127.49 255.609 127.453 255.552 127.43 255.49C127.406 255.427 127.396 255.361 127.4 255.294V253.294C127.396 253.227 127.406 253.16 127.43 253.098C127.453 253.035 127.49 252.978 127.537 252.931C127.584 252.884 127.641 252.847 127.704 252.824C127.766 252.8 127.833 252.79 127.9 252.794H131.9C131.967 252.79 132.033 252.8 132.096 252.824C132.158 252.847 132.215 252.884 132.262 252.931C132.31 252.978 132.346 253.035 132.37 253.098C132.394 253.16 132.404 253.227 132.4 253.294V255.294C132.391 255.424 132.336 255.546 132.244 255.638C132.152 255.73 132.03 255.785 131.9 255.794V255.794Z" fill="#3F3D56" />
      <path d="M121.9 255.794H117.9C117.833 255.798 117.766 255.788 117.704 255.764C117.641 255.74 117.584 255.704 117.537 255.656C117.49 255.609 117.453 255.552 117.43 255.49C117.406 255.427 117.396 255.361 117.4 255.294V253.294C117.396 253.227 117.406 253.16 117.43 253.098C117.453 253.035 117.49 252.978 117.537 252.931C117.584 252.884 117.641 252.847 117.704 252.824C117.766 252.8 117.833 252.79 117.9 252.794H121.9C121.967 252.79 122.033 252.8 122.096 252.824C122.158 252.847 122.215 252.884 122.262 252.931C122.31 252.978 122.346 253.035 122.37 253.098C122.394 253.16 122.404 253.227 122.4 253.294V255.294C122.391 255.424 122.336 255.546 122.244 255.638C122.152 255.73 122.03 255.785 121.9 255.794V255.794Z" fill="#3F3D56" />
      <path d="M199.2 255.794H195.2C195.133 255.798 195.067 255.788 195.004 255.764C194.942 255.74 194.885 255.704 194.837 255.656C194.79 255.609 194.753 255.552 194.73 255.49C194.706 255.427 194.696 255.361 194.7 255.294V253.294C194.696 253.227 194.706 253.16 194.73 253.098C194.753 253.035 194.79 252.978 194.837 252.931C194.885 252.884 194.942 252.847 195.004 252.824C195.067 252.8 195.133 252.79 195.2 252.794H199.2C199.267 252.79 199.334 252.8 199.396 252.824C199.459 252.847 199.515 252.884 199.563 252.931C199.61 252.978 199.647 253.035 199.67 253.098C199.694 253.16 199.704 253.227 199.7 253.294V255.294C199.692 255.424 199.636 255.546 199.544 255.638C199.452 255.73 199.33 255.785 199.2 255.794V255.794Z" fill="#3F3D56" />
      <path d="M189.2 255.794H185.2C185.133 255.798 185.067 255.788 185.004 255.764C184.942 255.74 184.885 255.704 184.837 255.656C184.79 255.609 184.753 255.552 184.73 255.49C184.706 255.427 184.696 255.361 184.7 255.294V253.294C184.696 253.227 184.706 253.16 184.73 253.098C184.753 253.035 184.79 252.978 184.837 252.931C184.885 252.884 184.942 252.847 185.004 252.824C185.067 252.8 185.133 252.79 185.2 252.794H189.2C189.267 252.79 189.334 252.8 189.396 252.824C189.459 252.847 189.515 252.884 189.563 252.931C189.61 252.978 189.647 253.035 189.67 253.098C189.694 253.16 189.704 253.227 189.7 253.294V255.294C189.692 255.424 189.636 255.546 189.544 255.638C189.452 255.73 189.33 255.785 189.2 255.794V255.794Z" fill="#3F3D56" />
      <path d="M179.2 255.794H175.2C175.133 255.798 175.067 255.788 175.004 255.764C174.942 255.74 174.885 255.704 174.837 255.656C174.79 255.609 174.753 255.552 174.73 255.49C174.706 255.427 174.696 255.361 174.7 255.294V253.294C174.696 253.227 174.706 253.16 174.73 253.098C174.753 253.035 174.79 252.978 174.837 252.931C174.885 252.884 174.942 252.847 175.004 252.824C175.067 252.8 175.133 252.79 175.2 252.794H179.2C179.267 252.79 179.334 252.8 179.396 252.824C179.459 252.847 179.515 252.884 179.563 252.931C179.61 252.978 179.647 253.035 179.67 253.098C179.694 253.16 179.704 253.227 179.7 253.294V255.294C179.692 255.424 179.636 255.546 179.544 255.638C179.452 255.73 179.33 255.785 179.2 255.794V255.794Z" fill="#3F3D56" />
      <path d="M169.2 255.794H165.2C165.133 255.798 165.067 255.788 165.004 255.764C164.942 255.74 164.885 255.704 164.837 255.656C164.79 255.609 164.753 255.552 164.73 255.49C164.706 255.427 164.696 255.361 164.7 255.294V253.294C164.696 253.227 164.706 253.16 164.73 253.098C164.753 253.035 164.79 252.978 164.837 252.931C164.885 252.884 164.942 252.847 165.004 252.824C165.067 252.8 165.133 252.79 165.2 252.794H169.2C169.267 252.79 169.334 252.8 169.396 252.824C169.459 252.847 169.515 252.884 169.563 252.931C169.61 252.978 169.647 253.035 169.67 253.098C169.694 253.16 169.704 253.227 169.7 253.294V255.294C169.692 255.424 169.636 255.546 169.544 255.638C169.452 255.73 169.33 255.785 169.2 255.794V255.794Z" fill="#3F3D56" />
      <path d="M159.2 255.794H155.2C155.133 255.798 155.067 255.788 155.004 255.764C154.942 255.74 154.885 255.704 154.837 255.656C154.79 255.609 154.753 255.552 154.73 255.49C154.706 255.427 154.696 255.361 154.7 255.294V253.294C154.696 253.227 154.706 253.16 154.73 253.098C154.753 253.035 154.79 252.978 154.837 252.931C154.885 252.884 154.942 252.847 155.004 252.824C155.067 252.8 155.133 252.79 155.2 252.794H159.2C159.267 252.79 159.334 252.8 159.396 252.824C159.459 252.847 159.515 252.884 159.563 252.931C159.61 252.978 159.647 253.035 159.67 253.098C159.694 253.16 159.704 253.227 159.7 253.294V255.294C159.692 255.424 159.636 255.546 159.544 255.638C159.452 255.73 159.33 255.785 159.2 255.794V255.794Z" fill="#3F3D56" />
      <path d="M149.2 255.794H145.2C145.133 255.798 145.067 255.788 145.004 255.764C144.942 255.74 144.885 255.704 144.837 255.656C144.79 255.609 144.753 255.552 144.73 255.49C144.706 255.427 144.696 255.361 144.7 255.294V253.294C144.696 253.227 144.706 253.16 144.73 253.098C144.753 253.035 144.79 252.978 144.837 252.931C144.885 252.884 144.942 252.847 145.004 252.824C145.067 252.8 145.133 252.79 145.2 252.794H149.2C149.267 252.79 149.334 252.8 149.396 252.824C149.459 252.847 149.515 252.884 149.563 252.931C149.61 252.978 149.647 253.035 149.67 253.098C149.694 253.16 149.704 253.227 149.7 253.294V255.294C149.692 255.424 149.636 255.546 149.544 255.638C149.452 255.73 149.33 255.785 149.2 255.794V255.794Z" fill="#3F3D56" />
      <path d="M192.1 255.794H188.1C188.033 255.798 187.966 255.788 187.904 255.764C187.841 255.74 187.785 255.704 187.737 255.656C187.69 255.609 187.653 255.552 187.63 255.49C187.606 255.427 187.596 255.361 187.6 255.294V253.294C187.596 253.227 187.606 253.16 187.63 253.098C187.653 253.035 187.69 252.978 187.737 252.931C187.785 252.884 187.841 252.847 187.904 252.824C187.966 252.8 188.033 252.79 188.1 252.794H192.1C192.167 252.79 192.234 252.8 192.296 252.824C192.359 252.847 192.415 252.884 192.463 252.931C192.51 252.978 192.547 253.035 192.57 253.098C192.594 253.16 192.604 253.227 192.6 253.294V255.294C192.592 255.424 192.536 255.546 192.444 255.638C192.352 255.73 192.23 255.785 192.1 255.794V255.794Z" fill="#3F3D56" />
      <path d="M153.9 261.794H114.9C114.833 261.798 114.766 261.788 114.704 261.764C114.641 261.74 114.584 261.704 114.537 261.656C114.49 261.609 114.453 261.552 114.43 261.49C114.406 261.427 114.396 261.361 114.4 261.294V259.294C114.396 259.227 114.406 259.16 114.43 259.098C114.453 259.035 114.49 258.978 114.537 258.931C114.584 258.884 114.641 258.847 114.704 258.824C114.766 258.8 114.833 258.79 114.9 258.794H153.9C153.967 258.79 154.033 258.8 154.096 258.824C154.158 258.847 154.215 258.884 154.262 258.931C154.31 258.978 154.346 259.035 154.37 259.098C154.394 259.16 154.404 259.227 154.4 259.294V261.294C154.391 261.424 154.336 261.546 154.244 261.638C154.152 261.73 154.03 261.785 153.9 261.794V261.794Z" fill="#3F3D56" />
      <path d="M483.052 316.765C482.456 317.075 481.862 317.386 481.268 317.696C465.605 325.865 453.084 330.58 435.868 335.775C434.09 319.503 432.199 290.831 430.596 273.156C430.117 268.564 429.75 264.67 429.304 261.977C429.182 260.511 428.855 259.068 428.331 257.693L428.504 261.993L428.896 273.188L430.896 337.264C409.505 343.335 387.481 346.9 365.268 347.888C364.068 347.909 362.968 347.928 361.868 348.047L360.668 348.067L356.968 348.131C333.551 348.543 310.17 346.122 287.335 340.921C287.559 324.815 287.573 296.411 287.617 275.607C287.647 271.507 287.681 267.707 287.725 264.407C287.802 257.207 287.914 252.102 288.085 250.399C287.898 250.709 287.768 251.05 287.702 251.406C286.843 255.74 286.283 260.127 286.027 264.537C285.783 267.837 285.448 271.648 285.219 275.752C283.689 297.381 282.292 326.81 280.506 339.342C268.554 336.252 256.8 332.446 245.306 327.942C239.264 325.542 233.318 322.942 227.47 320.142C228.447 312.924 229.508 304.805 230.47 296.487C231.258 289.973 232.144 283.257 232.93 276.642C234.256 266.418 283.367 155.661 295.298 151.556L295.598 151.451L295.798 151.551L316.188 144.901L319.172 143.95L321.161 143.316L328.168 137.795L331.917 134.83L335.469 131.969L342.475 126.448L386.215 128.4L395.065 148.751L414.282 155.423L414.582 155.223L414.882 155.118L415.182 155.218C427.248 158.862 437.713 166.507 444.852 176.894C445.776 178.279 447.008 180.158 448.346 182.335C449.478 184.216 450.715 186.395 452.056 188.773C453.914 192.141 456.081 196.005 458.256 200.168C458.772 201.06 459.289 202.051 459.704 202.944L462.496 208.297C464.669 212.56 466.944 216.922 469.221 221.384C471.188 225.251 473.221 233.317 475.3 243.484C477.046 251.955 478.716 261.928 480.4 272.401C482.631 285.865 480.808 302.101 482.822 314.566C482.849 315.304 482.926 316.038 483.052 316.765V316.765Z" fill="#32AD78" />
      <path d="M267.786 323.308C267.561 323.426 267.327 323.526 267.086 323.608C265.686 324.308 264.286 325.008 262.886 325.608C258.686 327.608 254.386 329.508 250.086 331.308C238.705 336.096 227.011 340.105 215.086 343.308C213.086 330.808 211.186 301.408 209.286 279.808C208.986 275.708 208.586 271.908 208.286 268.608C207.954 264.203 207.32 259.825 206.386 255.508C206.296 255.158 206.162 254.822 205.986 254.508C206.186 256.208 206.386 261.408 206.586 268.508C206.686 271.808 206.786 275.608 206.886 279.708C207.386 300.508 207.886 328.908 208.386 345.008C206.986 345.308 205.586 345.708 204.186 346.008L201.486 346.608C200.386 346.808 199.286 347.108 198.286 347.308C197.186 347.508 195.986 347.808 194.886 348.008C176.403 351.606 157.616 353.414 138.786 353.408H133.986C132.886 353.408 131.786 353.408 130.586 353.308C108.359 352.699 86.2776 349.511 64.786 343.808L65.686 279.708L65.786 268.508L65.886 264.208C65.3859 265.592 65.0829 267.039 64.986 268.508C64.586 271.208 64.286 275.108 63.886 279.708C62.486 297.508 61.086 326.108 59.686 342.408C42.386 337.508 29.786 333.008 13.986 325.108L12.186 324.208C12.286 323.408 12.386 322.708 12.486 321.908C14.286 309.508 12.186 293.308 14.186 279.708C15.686 269.308 17.286 259.208 18.786 250.708C20.686 240.508 22.586 232.408 24.486 228.508C26.686 224.008 28.886 219.508 30.986 215.308L33.686 209.908C34.186 208.908 34.686 208.008 35.086 207.108C37.186 202.908 39.286 199.008 41.086 195.608C42.386 193.208 43.586 191.008 44.686 189.108C45.7248 187.218 46.8596 185.382 48.086 183.608C54.986 173.108 54.921 161.167 66.921 157.367L71.168 156.691C76.2044 155.891 81.0001 153.982 85.2083 151.102C89.4164 148.222 92.9318 144.442 95.5 140.037C95.9 139.344 96.305 138.66 96.7 137.996C99.814 132.749 103.473 127.065 108.1 126.779L140.088 124.308C145.831 123.953 152.108 133.325 156.688 136.808L160.288 139.608L176.288 149.408L196.788 155.708L196.988 155.608L197.288 155.708C208.22 159.214 217.794 166.028 224.688 175.208C225.388 176.108 225.988 177.008 226.588 177.908C228.942 181.529 231.111 185.267 233.088 189.108C234.188 191.108 235.288 193.308 236.588 195.608C237.288 197.008 243.588 216.608 249.788 236.708C255.488 255.508 261.088 274.708 261.788 279.608C261.888 280.508 262.088 281.408 262.188 282.308C262.988 288.008 263.888 293.708 264.588 299.308C265.788 307.608 266.888 315.608 267.988 322.708C267.786 323.108 267.786 323.208 267.786 323.308Z" fill="#C399D6" />
      <path opacity="0.2" d="M139.3 245.794L130.8 212.994L123.3 241.294L139.3 245.794Z" fill="black" />
      <path d="M356.438 128.928C384.494 128.928 407.238 106.184 407.238 78.1281C407.238 50.0721 384.494 27.3281 356.438 27.3281C328.382 27.3281 305.638 50.0721 305.638 78.1281C305.638 106.184 328.382 128.928 356.438 128.928Z" fill="#FFB6B6" />
      <path opacity="0.2" d="M271.2 245.794L279.7 212.994L287.2 241.294L271.2 245.794Z" fill="black" />
      <path d="M226.55 207.839L197.009 223.247L220.818 293.647C222.534 298.692 225.519 303.21 229.486 306.768C233.452 310.326 238.268 312.803 243.469 313.962C249.89 315.376 256.595 314.706 262.611 312.05C268.626 309.395 273.638 304.891 276.921 299.194L335.054 195.483C339.168 188.328 340.327 179.849 338.285 171.852C336.243 163.855 331.161 156.971 324.12 152.664C320.577 150.5 316.643 149.057 312.542 148.416C308.44 147.775 304.253 147.949 300.219 148.928C296.186 149.908 292.385 151.674 289.034 154.124C285.684 156.574 282.849 159.662 280.694 163.209C280.111 164.219 279.528 165.229 279.045 166.238L243.784 244.753L226.55 207.839Z" fill="#606060" />
      <path d="M497.3 224.394C494.3 266.294 497.4 284.694 480.6 319.194C465.347 326.68 449.449 332.771 433.1 337.394C431.4 337.894 429.7 338.294 428 338.794C406.508 344.497 384.427 347.685 362.2 348.294C361 348.294 359.9 348.294 358.8 348.394H353.9C330.479 348.406 307.143 345.585 284.4 339.994C282.1 339.394 279.9 338.794 277.6 338.194C265.703 334.901 254.015 330.893 242.6 326.194C236.6 323.694 230.7 320.994 224.9 318.094C223.6 317.394 222.3 316.794 221 316.094C214.4 304.394 210.6 290.294 210.5 273.194C215 243.894 487.1 199.094 497.3 224.394Z" fill="#2F2E41" />
      <path opacity="0.2" d="M497.3 231.594C497.5 228.994 497.6 226.294 497.8 223.494C487.7 198.194 215.6 242.994 211 272.394C211 275.094 211.1 277.694 211.3 280.294C222.4 251.294 480.9 208.694 497.3 231.594Z" fill="black" />
      <path d="M125.98 139.961C156.853 139.961 181.88 113.328 181.88 80.4753C181.88 47.622 156.853 20.9893 125.98 20.9893C95.1074 20.9893 70.0801 47.622 70.0801 80.4753C70.0801 113.328 95.1074 139.961 125.98 139.961Z" fill="#A0616A" />
      <path d="M70.68 39.3986C75.18 32.9076 81.78 28.2256 86.78 22.0536C89.48 18.6476 91.78 14.9236 94.88 11.8376C100.58 6.19756 108.58 3.96256 116.38 3.64356C133.68 3.21756 150.08 11.5186 160.68 25.9906C164.78 23.4366 168.78 20.8826 172.88 18.4356C174.48 22.9046 176.08 27.4806 177.68 31.9496C178.389 31.2684 179.232 30.7437 180.157 30.4093C181.081 30.075 182.065 29.9385 183.046 30.0088C184.026 30.079 184.981 30.3543 185.848 30.817C186.715 31.2797 187.476 31.9193 188.08 32.6946C189.102 33.9498 189.724 35.4822 189.867 37.0944C190.009 38.7066 189.666 40.3245 188.88 41.7396C189.88 38.5476 194.28 37.9086 196.68 40.0396C199.08 42.1706 199.78 45.8926 199.38 49.1906C198.97 52.7468 197.502 56.0983 195.167 58.8113C192.832 61.5244 189.736 63.4742 186.28 64.4086C180.98 65.6856 174.78 64.3016 170.58 67.9196C167.18 70.7936 166.18 76.1136 162.68 78.8806C158.38 82.2806 152.38 80.6896 147.08 81.5406C137.78 82.9246 130.38 93.0336 131.48 102.931C130.68 99.8446 129.78 96.5456 127.88 93.9916C125.98 91.4376 122.78 89.7346 119.78 90.6916C114.98 92.2916 114.18 99.3116 115.28 104.526C118.38 118.36 130.18 140.813 130.18 140.813C114.88 147.198 96.58 141.133 84.78 129.001C72.98 116.764 66.78 99.5236 64.08 82.1786C62.08 67.5936 62.38 51.3176 70.68 39.3986Z" fill="#2F2E41" />
      <path d="M420.608 105.034C430.789 80.4561 424.408 58.1621 411.208 46.3871C405.913 35.0761 398.962 26.2931 391.229 24.4251C387.388 22.0911 383.741 19.3531 379.716 17.9251C375.88 16.6017 371.676 16.8534 368.026 18.6251L365.918 18.1611C364.041 13.6921 362.04 13.6261 359.791 16.6611C350.922 12.7131 342.991 11.0481 335.991 11.1681C312.991 11.5621 299.828 31.1901 296.631 54.7481L315.915 59.5192L322.433 48.8051L319.533 60.4571L330.179 63.0752C346.636 83.7962 328.168 132.52 304.234 159.933C310.005 158.233 315.78 156.733 321.561 155.533L342.031 124.378L329.512 152.596C336.294 151.48 344.912 152.333 354.341 154.072C357.47 149.917 358.974 144.291 357.29 139.419C360.041 144.56 361.99 150.09 363.072 155.819C383.051 160.278 410.19 162.319 424.72 163.965C436.349 159.873 435.6 116.379 420.608 105.034Z" fill="#2F2E41" />
      <path d="M426.086 21.928C434.186 39.292 418.615 47.06 404.212 47.006C391.212 47.029 379.956 38.12 379.134 25.132C378.911 22.0466 379.302 18.9476 380.283 16.0138C381.264 13.08 382.816 10.3694 384.849 8.03816C386.882 5.70694 389.357 3.80123 392.13 2.43091C394.904 1.06059 397.921 0.252755 401.008 0.0539704V0.0539704C413.894 -0.86603 420.583 10.121 426.086 21.928Z" fill="#2F2E41" />
      <path d="M273.186 318.608L267.786 323.108L267.186 323.608C265.786 324.308 264.386 325.008 262.986 325.608C258.786 327.608 254.486 329.508 250.186 331.308C238.805 336.096 227.111 340.105 215.186 343.308C212.886 343.908 210.686 344.508 208.386 345.108C206.986 345.408 205.586 345.808 204.186 346.108L201.486 346.708C200.386 346.908 199.286 347.208 198.286 347.408C197.186 347.608 195.986 347.908 194.886 348.108C191.86 345.213 189.45 341.736 187.801 337.887C186.151 334.038 185.296 329.896 185.286 325.708V324.908L188.486 242.608L189.886 206.108C190.11 197.854 193.549 190.014 199.471 184.26C205.393 178.506 213.329 175.294 221.586 175.308C222.554 175.291 223.522 175.325 224.486 175.408C225.186 176.308 225.786 177.208 226.386 178.108C228.74 181.729 230.909 185.468 232.886 189.308C233.986 191.308 235.086 193.508 236.386 195.808C237.01 197.056 242.08 212.754 247.564 230.38C248.897 234.664 249.292 239.186 248.721 243.637L246.886 257.908L241.986 295.708L261.986 282.608L276.086 273.308L277.786 276.108L282.086 283.408L273.186 318.608Z" fill="#C399D6" />
      <path d="M287.3 273.294C287.3 274.994 287.3 276.694 287.2 278.294C287.019 282.862 286.484 287.409 285.6 291.894C284.228 299.41 281.769 306.686 278.3 313.494L276.8 316.194C275.5 316.894 274.2 317.494 272.9 318.194C272.675 318.312 272.441 318.412 272.2 318.494C266.6 321.294 261 323.894 255.2 326.294C243.819 331.082 232.125 335.091 220.2 338.294C217.9 338.894 215.7 339.494 213.4 340.094C209 341.194 204.5 342.194 199.9 343.094C181.417 346.692 162.63 348.501 143.8 348.494H139C137.9 348.494 136.8 348.494 135.6 348.394C113.373 347.785 91.2916 344.597 69.8 338.894C68.1 338.394 66.4 337.994 64.7 337.494C48.3449 332.888 32.4454 326.796 17.2 319.294C0.400013 284.794 3.6 266.294 0.5 224.494C6.7 208.894 112.3 219.894 193.6 237.494C215.7 242.294 235.9 247.494 251.9 252.894C268.4 258.394 280.4 264.094 285.1 269.294C286.209 270.383 286.974 271.774 287.3 273.294V273.294Z" fill="#2F2E41" />
      <path opacity="0.2" d="M0.5 231.594C0.3 228.994 0.2 226.294 0 223.494C10.1 198.194 282.2 242.994 286.8 272.394C286.8 275.094 286.7 277.694 286.5 280.294C275.3 251.294 16.9 208.694 0.5 231.594Z" fill="black" />
    </g>
    <defs>
      <clipPath id="clip0_77_130">
        <rect width="498" height="302" fill="white" />
      </clipPath>
    </defs>
    <filter x="-50.00%" y="-50.00%" width="200.00%" height="200.00%" filterUnits="objectBoundingBox" id="filter27">
      <feColorMatrix type="matrix" values="1.150798469387755 -0.06995663265306128 -0.009413265306122454 0 0.1428571428571429  -0.03542602040816328 1.116267857142857 -0.009413265306122454 0 0.1428571428571429  -0.03542602040816328 -0.06995663265306128 1.176811224489796 0 0.1428571428571429  0 0 0 1 0  " in="SourceGraphic" />
    </filter>
  </defs>
  <g transform="matrix(1 0 0 1 -41 -272 )">
    <g transform="matrix(0.4503311258278146 0 0 0.4503311258278146 70.86754966887416 272 )" clip-path="url(#clip26)" filter="url(#filter27)">
      <g clip-path="url(#clip0_77_130)">
        <path d="M432.364 247.822L328.98 249.594C328.272 241.313 328.162 232.991 328.653 224.694C331.878 173.532 358.84 124.363 400.331 94.248C395.259 113.438 398.384 132.387 404.308 151.288C403.513 151.602 402.717 151.816 402.022 152.128C396.385 154.311 391.239 157.595 386.885 161.788C385.706 163.009 384.433 164.631 385.061 166.22C385.683 167.51 387.291 167.982 388.796 168.256C392.308 168.896 395.817 169.436 399.329 170.076C402.139 170.628 404.947 171.076 407.755 171.532C409.055 171.71 410.363 171.988 411.666 172.166C411.873 172.566 411.982 173.06 412.189 173.457C418.996 191.343 426.506 209.417 430.122 227.857C431.02 232.475 431.668 237.138 432.062 241.826C432.2 243.825 432.33 245.823 432.364 247.822Z" fill="#F2F2F2" />
        <path d="M182.086 186.808C164.486 197.508 153.386 214.008 144.286 232.508C136.359 234.317 129.048 238.18 123.086 243.708C121.786 244.908 120.486 246.508 121.186 248.108C121.786 249.408 123.386 249.908 124.886 250.208C128.386 250.908 131.886 251.508 135.386 252.208C135.086 253.008 134.686 253.808 134.386 254.608H18.0859C23.3508 247.495 29.2048 240.839 35.5859 234.708C36.9859 233.308 38.3859 232.008 39.7859 230.708C58.9286 213.55 81.5604 200.741 106.125 193.163C130.689 185.585 156.604 183.417 182.086 186.808V186.808Z" fill="#F2F2F2" />
        <path d="M179.3 248.294V258.194C179.3 258.698 179.5 259.181 179.856 259.537C180.213 259.894 180.696 260.094 181.2 260.094H249.6C250.104 260.094 250.587 259.894 250.943 259.537C251.3 259.181 251.5 258.698 251.5 258.194V248.294H179.3Z" fill="#3F3D56" />
        <path d="M181.5 262.394C181.778 262.736 182.129 263.011 182.527 263.202C182.924 263.392 183.359 263.492 183.8 263.494H346.1C346.895 263.492 347.656 263.175 348.218 262.613C348.781 262.051 349.097 261.289 349.1 260.494C349.116 260.289 349.081 260.083 349 259.894L346.5 247.894C346.395 247.397 346.165 246.934 345.833 246.55C345.501 246.165 345.076 245.871 344.6 245.694C344.246 245.571 343.875 245.503 343.5 245.494H186.3C185.926 245.512 185.556 245.579 185.2 245.694C184.743 245.903 184.337 246.207 184.01 246.587C183.682 246.966 183.44 247.412 183.3 247.894L180.8 259.894C180.737 260.337 180.766 260.787 180.887 261.218C181.007 261.648 181.216 262.049 181.5 262.394V262.394Z" fill="#2F2E41" />
        <path d="M201.8 250.794H197.8C197.733 250.798 197.667 250.788 197.604 250.764C197.542 250.74 197.485 250.704 197.438 250.656C197.39 250.609 197.354 250.552 197.33 250.49C197.306 250.427 197.296 250.361 197.3 250.294V248.294C197.296 248.227 197.306 248.16 197.33 248.098C197.354 248.035 197.39 247.978 197.438 247.931C197.485 247.884 197.542 247.847 197.604 247.824C197.667 247.8 197.733 247.79 197.8 247.794H201.8C201.867 247.79 201.934 247.8 201.996 247.824C202.059 247.847 202.116 247.884 202.163 247.931C202.21 247.978 202.247 248.035 202.271 248.098C202.294 248.16 202.304 248.227 202.3 248.294V250.294C202.292 250.424 202.236 250.546 202.144 250.638C202.052 250.73 201.93 250.785 201.8 250.794V250.794Z" fill="#3F3D56" />
        <path d="M191.8 250.794H187.8C187.733 250.798 187.667 250.788 187.604 250.764C187.542 250.74 187.485 250.704 187.438 250.656C187.39 250.609 187.354 250.552 187.33 250.49C187.306 250.427 187.296 250.361 187.3 250.294V248.294C187.296 248.227 187.306 248.16 187.33 248.098C187.354 248.035 187.39 247.978 187.438 247.931C187.485 247.884 187.542 247.847 187.604 247.824C187.667 247.8 187.733 247.79 187.8 247.794H191.8C191.867 247.79 191.934 247.8 191.996 247.824C192.059 247.847 192.116 247.884 192.163 247.931C192.21 247.978 192.247 248.035 192.271 248.098C192.294 248.16 192.304 248.227 192.3 248.294V250.294C192.292 250.424 192.236 250.546 192.144 250.638C192.052 250.73 191.93 250.785 191.8 250.794V250.794Z" fill="#3F3D56" />
        <path d="M181.8 250.794H177.8C177.733 250.798 177.667 250.788 177.604 250.764C177.542 250.74 177.485 250.704 177.438 250.656C177.39 250.609 177.354 250.552 177.33 250.49C177.306 250.427 177.296 250.361 177.3 250.294V248.294C177.296 248.227 177.306 248.16 177.33 248.098C177.354 248.035 177.39 247.978 177.438 247.931C177.485 247.884 177.542 247.847 177.604 247.824C177.667 247.8 177.733 247.79 177.8 247.794H181.8C181.867 247.79 181.934 247.8 181.996 247.824C182.059 247.847 182.116 247.884 182.163 247.931C182.21 247.978 182.247 248.035 182.271 248.098C182.294 248.16 182.304 248.227 182.3 248.294V250.294C182.292 250.424 182.236 250.546 182.144 250.638C182.052 250.73 181.93 250.785 181.8 250.794V250.794Z" fill="#3F3D56" />
        <path d="M171.8 250.794H167.8C167.733 250.798 167.667 250.788 167.604 250.764C167.542 250.74 167.485 250.704 167.438 250.656C167.39 250.609 167.354 250.552 167.33 250.49C167.306 250.427 167.296 250.361 167.3 250.294V248.294C167.296 248.227 167.306 248.16 167.33 248.098C167.354 248.035 167.39 247.978 167.438 247.931C167.485 247.884 167.542 247.847 167.604 247.824C167.667 247.8 167.733 247.79 167.8 247.794H171.8C171.867 247.79 171.934 247.8 171.996 247.824C172.059 247.847 172.116 247.884 172.163 247.931C172.21 247.978 172.247 248.035 172.271 248.098C172.294 248.16 172.304 248.227 172.3 248.294V250.294C172.292 250.424 172.236 250.546 172.144 250.638C172.052 250.73 171.93 250.785 171.8 250.794V250.794Z" fill="#3F3D56" />
        <path d="M161.8 250.794H157.8C157.733 250.798 157.667 250.788 157.604 250.764C157.542 250.74 157.485 250.704 157.438 250.656C157.39 250.609 157.354 250.552 157.33 250.49C157.306 250.427 157.296 250.361 157.3 250.294V248.294C157.296 248.227 157.306 248.16 157.33 248.098C157.354 248.035 157.39 247.978 157.438 247.931C157.485 247.884 157.542 247.847 157.604 247.824C157.667 247.8 157.733 247.79 157.8 247.794H161.8C161.867 247.79 161.934 247.8 161.996 247.824C162.059 247.847 162.116 247.884 162.163 247.931C162.21 247.978 162.247 248.035 162.271 248.098C162.294 248.16 162.304 248.227 162.3 248.294V250.294C162.292 250.424 162.236 250.546 162.144 250.638C162.052 250.73 161.93 250.785 161.8 250.794V250.794Z" fill="#3F3D56" />
        <path d="M151.8 250.794H147.8C147.733 250.798 147.667 250.788 147.604 250.764C147.542 250.74 147.485 250.704 147.438 250.656C147.39 250.609 147.354 250.552 147.33 250.49C147.306 250.427 147.296 250.361 147.3 250.294V248.294C147.296 248.227 147.306 248.16 147.33 248.098C147.354 248.035 147.39 247.978 147.438 247.931C147.485 247.884 147.542 247.847 147.604 247.824C147.667 247.8 147.733 247.79 147.8 247.794H151.8C151.867 247.79 151.934 247.8 151.996 247.824C152.059 247.847 152.116 247.884 152.163 247.931C152.21 247.978 152.247 248.035 152.271 248.098C152.294 248.16 152.304 248.227 152.3 248.294V250.294C152.292 250.424 152.236 250.546 152.144 250.638C152.052 250.73 151.93 250.785 151.8 250.794V250.794Z" fill="#3F3D56" />
        <path d="M141.8 250.794H137.8C137.733 250.798 137.667 250.788 137.604 250.764C137.542 250.74 137.485 250.704 137.438 250.656C137.39 250.609 137.354 250.552 137.33 250.49C137.306 250.427 137.296 250.361 137.3 250.294V248.294C137.296 248.227 137.306 248.16 137.33 248.098C137.354 248.035 137.39 247.978 137.438 247.931C137.485 247.884 137.542 247.847 137.604 247.824C137.667 247.8 137.733 247.79 137.8 247.794H141.8C141.867 247.79 141.934 247.8 141.996 247.824C142.059 247.847 142.116 247.884 142.163 247.931C142.21 247.978 142.247 248.035 142.271 248.098C142.294 248.16 142.304 248.227 142.3 248.294V250.294C142.292 250.424 142.236 250.546 142.144 250.638C142.052 250.73 141.93 250.785 141.8 250.794V250.794Z" fill="#3F3D56" />
        <path d="M131.8 250.794H127.8C127.733 250.798 127.667 250.788 127.604 250.764C127.542 250.74 127.485 250.704 127.438 250.656C127.39 250.609 127.354 250.552 127.33 250.49C127.306 250.427 127.296 250.361 127.3 250.294V248.294C127.296 248.227 127.306 248.16 127.33 248.098C127.354 248.035 127.39 247.978 127.438 247.931C127.485 247.884 127.542 247.847 127.604 247.824C127.667 247.8 127.733 247.79 127.8 247.794H131.8C131.867 247.79 131.934 247.8 131.996 247.824C132.059 247.847 132.116 247.884 132.163 247.931C132.21 247.978 132.247 248.035 132.271 248.098C132.294 248.16 132.304 248.227 132.3 248.294V250.294C132.292 250.424 132.236 250.546 132.144 250.638C132.052 250.73 131.93 250.785 131.8 250.794V250.794Z" fill="#3F3D56" />
        <path d="M121.8 250.794H117.8C117.733 250.798 117.667 250.788 117.604 250.764C117.542 250.74 117.485 250.704 117.438 250.656C117.39 250.609 117.354 250.552 117.33 250.49C117.306 250.427 117.296 250.361 117.3 250.294V248.294C117.296 248.227 117.306 248.16 117.33 248.098C117.354 248.035 117.39 247.978 117.438 247.931C117.485 247.884 117.542 247.847 117.604 247.824C117.667 247.8 117.733 247.79 117.8 247.794H121.8C121.867 247.79 121.934 247.8 121.996 247.824C122.059 247.847 122.116 247.884 122.163 247.931C122.21 247.978 122.247 248.035 122.271 248.098C122.294 248.16 122.304 248.227 122.3 248.294V250.294C122.292 250.424 122.236 250.546 122.144 250.638C122.052 250.73 121.93 250.785 121.8 250.794V250.794Z" fill="#3F3D56" />
        <path d="M199.1 250.794H195.1C195.033 250.798 194.966 250.788 194.904 250.764C194.841 250.74 194.785 250.704 194.737 250.656C194.69 250.609 194.653 250.552 194.63 250.49C194.606 250.427 194.596 250.361 194.6 250.294V248.294C194.596 248.227 194.606 248.16 194.63 248.098C194.653 248.035 194.69 247.978 194.737 247.931C194.785 247.884 194.841 247.847 194.904 247.824C194.966 247.8 195.033 247.79 195.1 247.794H199.1C199.167 247.79 199.234 247.8 199.296 247.824C199.359 247.847 199.415 247.884 199.463 247.931C199.51 247.978 199.547 248.035 199.57 248.098C199.594 248.16 199.604 248.227 199.6 248.294V250.294C199.592 250.424 199.536 250.546 199.444 250.638C199.352 250.73 199.23 250.785 199.1 250.794V250.794Z" fill="#3F3D56" />
        <path d="M189.1 250.794H185.1C185.033 250.798 184.966 250.788 184.904 250.764C184.841 250.74 184.785 250.704 184.737 250.656C184.69 250.609 184.653 250.552 184.63 250.49C184.606 250.427 184.596 250.361 184.6 250.294V248.294C184.596 248.227 184.606 248.16 184.63 248.098C184.653 248.035 184.69 247.978 184.737 247.931C184.785 247.884 184.841 247.847 184.904 247.824C184.966 247.8 185.033 247.79 185.1 247.794H189.1C189.167 247.79 189.234 247.8 189.296 247.824C189.359 247.847 189.415 247.884 189.463 247.931C189.51 247.978 189.547 248.035 189.57 248.098C189.594 248.16 189.604 248.227 189.6 248.294V250.294C189.592 250.424 189.536 250.546 189.444 250.638C189.352 250.73 189.23 250.785 189.1 250.794V250.794Z" fill="#3F3D56" />
        <path d="M179.1 250.794H175.1C175.033 250.798 174.966 250.788 174.904 250.764C174.841 250.74 174.785 250.704 174.737 250.656C174.69 250.609 174.653 250.552 174.63 250.49C174.606 250.427 174.596 250.361 174.6 250.294V248.294C174.596 248.227 174.606 248.16 174.63 248.098C174.653 248.035 174.69 247.978 174.737 247.931C174.785 247.884 174.841 247.847 174.904 247.824C174.966 247.8 175.033 247.79 175.1 247.794H179.1C179.167 247.79 179.234 247.8 179.296 247.824C179.359 247.847 179.415 247.884 179.463 247.931C179.51 247.978 179.547 248.035 179.57 248.098C179.594 248.16 179.604 248.227 179.6 248.294V250.294C179.592 250.424 179.536 250.546 179.444 250.638C179.352 250.73 179.23 250.785 179.1 250.794V250.794Z" fill="#3F3D56" />
        <path d="M169.1 250.794H165.1C165.033 250.798 164.966 250.788 164.904 250.764C164.841 250.74 164.785 250.704 164.737 250.656C164.69 250.609 164.653 250.552 164.63 250.49C164.606 250.427 164.596 250.361 164.6 250.294V248.294C164.596 248.227 164.606 248.16 164.63 248.098C164.653 248.035 164.69 247.978 164.737 247.931C164.785 247.884 164.841 247.847 164.904 247.824C164.966 247.8 165.033 247.79 165.1 247.794H169.1C169.167 247.79 169.234 247.8 169.296 247.824C169.359 247.847 169.415 247.884 169.463 247.931C169.51 247.978 169.547 248.035 169.57 248.098C169.594 248.16 169.604 248.227 169.6 248.294V250.294C169.592 250.424 169.536 250.546 169.444 250.638C169.352 250.73 169.23 250.785 169.1 250.794V250.794Z" fill="#3F3D56" />
        <path d="M159.1 250.794H155.1C155.033 250.798 154.966 250.788 154.904 250.764C154.841 250.74 154.785 250.704 154.737 250.656C154.69 250.609 154.653 250.552 154.63 250.49C154.606 250.427 154.596 250.361 154.6 250.294V248.294C154.596 248.227 154.606 248.16 154.63 248.098C154.653 248.035 154.69 247.978 154.737 247.931C154.785 247.884 154.841 247.847 154.904 247.824C154.966 247.8 155.033 247.79 155.1 247.794H159.1C159.167 247.79 159.234 247.8 159.296 247.824C159.359 247.847 159.415 247.884 159.463 247.931C159.51 247.978 159.547 248.035 159.57 248.098C159.594 248.16 159.604 248.227 159.6 248.294V250.294C159.592 250.424 159.536 250.546 159.444 250.638C159.352 250.73 159.23 250.785 159.1 250.794V250.794Z" fill="#3F3D56" />
        <path d="M149.1 250.794H145.1C145.033 250.798 144.966 250.788 144.904 250.764C144.841 250.74 144.785 250.704 144.737 250.656C144.69 250.609 144.653 250.552 144.63 250.49C144.606 250.427 144.596 250.361 144.6 250.294V248.294C144.596 248.227 144.606 248.16 144.63 248.098C144.653 248.035 144.69 247.978 144.737 247.931C144.785 247.884 144.841 247.847 144.904 247.824C144.966 247.8 145.033 247.79 145.1 247.794H149.1C149.167 247.79 149.234 247.8 149.296 247.824C149.359 247.847 149.415 247.884 149.463 247.931C149.51 247.978 149.547 248.035 149.57 248.098C149.594 248.16 149.604 248.227 149.6 248.294V250.294C149.592 250.424 149.536 250.546 149.444 250.638C149.352 250.73 149.23 250.785 149.1 250.794V250.794Z" fill="#3F3D56" />
        <path d="M192 250.794H188C187.933 250.798 187.866 250.788 187.804 250.764C187.741 250.74 187.685 250.704 187.637 250.656C187.59 250.609 187.553 250.552 187.53 250.49C187.506 250.427 187.496 250.361 187.5 250.294V248.294C187.496 248.227 187.506 248.16 187.53 248.098C187.553 248.035 187.59 247.978 187.637 247.931C187.685 247.884 187.741 247.847 187.804 247.824C187.866 247.8 187.933 247.79 188 247.794H192C192.067 247.79 192.133 247.8 192.196 247.824C192.259 247.847 192.315 247.884 192.363 247.931C192.41 247.978 192.447 248.035 192.47 248.098C192.494 248.16 192.504 248.227 192.5 248.294V250.294C192.491 250.424 192.436 250.546 192.344 250.638C192.252 250.73 192.13 250.785 192 250.794V250.794Z" fill="#3F3D56" />
        <path d="M201.9 255.794H197.9C197.833 255.798 197.766 255.788 197.704 255.764C197.641 255.74 197.584 255.704 197.537 255.656C197.49 255.609 197.453 255.552 197.43 255.49C197.406 255.427 197.396 255.361 197.4 255.294V253.294C197.396 253.227 197.406 253.16 197.43 253.098C197.453 253.035 197.49 252.978 197.537 252.931C197.584 252.884 197.641 252.847 197.704 252.824C197.766 252.8 197.833 252.79 197.9 252.794H201.9C201.967 252.79 202.033 252.8 202.096 252.824C202.158 252.847 202.215 252.884 202.262 252.931C202.31 252.978 202.346 253.035 202.37 253.098C202.394 253.16 202.404 253.227 202.4 253.294V255.294C202.391 255.424 202.336 255.546 202.244 255.638C202.152 255.73 202.03 255.785 201.9 255.794V255.794Z" fill="#3F3D56" />
        <path d="M191.9 255.794H187.9C187.833 255.798 187.766 255.788 187.704 255.764C187.641 255.74 187.584 255.704 187.537 255.656C187.49 255.609 187.453 255.552 187.43 255.49C187.406 255.427 187.396 255.361 187.4 255.294V253.294C187.396 253.227 187.406 253.16 187.43 253.098C187.453 253.035 187.49 252.978 187.537 252.931C187.584 252.884 187.641 252.847 187.704 252.824C187.766 252.8 187.833 252.79 187.9 252.794H191.9C191.967 252.79 192.033 252.8 192.096 252.824C192.158 252.847 192.215 252.884 192.262 252.931C192.31 252.978 192.346 253.035 192.37 253.098C192.394 253.16 192.404 253.227 192.4 253.294V255.294C192.391 255.424 192.336 255.546 192.244 255.638C192.152 255.73 192.03 255.785 191.9 255.794V255.794Z" fill="#3F3D56" />
        <path d="M181.9 255.794H177.9C177.833 255.798 177.766 255.788 177.704 255.764C177.641 255.74 177.584 255.704 177.537 255.656C177.49 255.609 177.453 255.552 177.43 255.49C177.406 255.427 177.396 255.361 177.4 255.294V253.294C177.396 253.227 177.406 253.16 177.43 253.098C177.453 253.035 177.49 252.978 177.537 252.931C177.584 252.884 177.641 252.847 177.704 252.824C177.766 252.8 177.833 252.79 177.9 252.794H181.9C181.967 252.79 182.033 252.8 182.096 252.824C182.158 252.847 182.215 252.884 182.262 252.931C182.31 252.978 182.346 253.035 182.37 253.098C182.394 253.16 182.404 253.227 182.4 253.294V255.294C182.391 255.424 182.336 255.546 182.244 255.638C182.152 255.73 182.03 255.785 181.9 255.794V255.794Z" fill="#3F3D56" />
        <path d="M171.9 255.794H167.9C167.833 255.798 167.766 255.788 167.704 255.764C167.641 255.74 167.584 255.704 167.537 255.656C167.49 255.609 167.453 255.552 167.43 255.49C167.406 255.427 167.396 255.361 167.4 255.294V253.294C167.396 253.227 167.406 253.16 167.43 253.098C167.453 253.035 167.49 252.978 167.537 252.931C167.584 252.884 167.641 252.847 167.704 252.824C167.766 252.8 167.833 252.79 167.9 252.794H171.9C171.967 252.79 172.033 252.8 172.096 252.824C172.158 252.847 172.215 252.884 172.262 252.931C172.31 252.978 172.346 253.035 172.37 253.098C172.394 253.16 172.404 253.227 172.4 253.294V255.294C172.391 255.424 172.336 255.546 172.244 255.638C172.152 255.73 172.03 255.785 171.9 255.794V255.794Z" fill="#3F3D56" />
        <path d="M161.9 255.794H157.9C157.833 255.798 157.766 255.788 157.704 255.764C157.641 255.74 157.584 255.704 157.537 255.656C157.49 255.609 157.453 255.552 157.43 255.49C157.406 255.427 157.396 255.361 157.4 255.294V253.294C157.396 253.227 157.406 253.16 157.43 253.098C157.453 253.035 157.49 252.978 157.537 252.931C157.584 252.884 157.641 252.847 157.704 252.824C157.766 252.8 157.833 252.79 157.9 252.794H161.9C161.967 252.79 162.033 252.8 162.096 252.824C162.158 252.847 162.215 252.884 162.262 252.931C162.31 252.978 162.346 253.035 162.37 253.098C162.394 253.16 162.404 253.227 162.4 253.294V255.294C162.391 255.424 162.336 255.546 162.244 255.638C162.152 255.73 162.03 255.785 161.9 255.794V255.794Z" fill="#3F3D56" />
        <path d="M151.9 255.794H147.9C147.833 255.798 147.766 255.788 147.704 255.764C147.641 255.74 147.584 255.704 147.537 255.656C147.49 255.609 147.453 255.552 147.43 255.49C147.406 255.427 147.396 255.361 147.4 255.294V253.294C147.396 253.227 147.406 253.16 147.43 253.098C147.453 253.035 147.49 252.978 147.537 252.931C147.584 252.884 147.641 252.847 147.704 252.824C147.766 252.8 147.833 252.79 147.9 252.794H151.9C151.967 252.79 152.033 252.8 152.096 252.824C152.158 252.847 152.215 252.884 152.262 252.931C152.31 252.978 152.346 253.035 152.37 253.098C152.394 253.16 152.404 253.227 152.4 253.294V255.294C152.391 255.424 152.336 255.546 152.244 255.638C152.152 255.73 152.03 255.785 151.9 255.794V255.794Z" fill="#3F3D56" />
        <path d="M141.9 255.794H137.9C137.833 255.798 137.766 255.788 137.704 255.764C137.641 255.74 137.584 255.704 137.537 255.656C137.49 255.609 137.453 255.552 137.43 255.49C137.406 255.427 137.396 255.361 137.4 255.294V253.294C137.396 253.227 137.406 253.16 137.43 253.098C137.453 253.035 137.49 252.978 137.537 252.931C137.584 252.884 137.641 252.847 137.704 252.824C137.766 252.8 137.833 252.79 137.9 252.794H141.9C141.967 252.79 142.033 252.8 142.096 252.824C142.158 252.847 142.215 252.884 142.262 252.931C142.31 252.978 142.346 253.035 142.37 253.098C142.394 253.16 142.404 253.227 142.4 253.294V255.294C142.391 255.424 142.336 255.546 142.244 255.638C142.152 255.73 142.03 255.785 141.9 255.794V255.794Z" fill="#3F3D56" />
        <path d="M131.9 255.794H127.9C127.833 255.798 127.766 255.788 127.704 255.764C127.641 255.74 127.584 255.704 127.537 255.656C127.49 255.609 127.453 255.552 127.43 255.49C127.406 255.427 127.396 255.361 127.4 255.294V253.294C127.396 253.227 127.406 253.16 127.43 253.098C127.453 253.035 127.49 252.978 127.537 252.931C127.584 252.884 127.641 252.847 127.704 252.824C127.766 252.8 127.833 252.79 127.9 252.794H131.9C131.967 252.79 132.033 252.8 132.096 252.824C132.158 252.847 132.215 252.884 132.262 252.931C132.31 252.978 132.346 253.035 132.37 253.098C132.394 253.16 132.404 253.227 132.4 253.294V255.294C132.391 255.424 132.336 255.546 132.244 255.638C132.152 255.73 132.03 255.785 131.9 255.794V255.794Z" fill="#3F3D56" />
        <path d="M121.9 255.794H117.9C117.833 255.798 117.766 255.788 117.704 255.764C117.641 255.74 117.584 255.704 117.537 255.656C117.49 255.609 117.453 255.552 117.43 255.49C117.406 255.427 117.396 255.361 117.4 255.294V253.294C117.396 253.227 117.406 253.16 117.43 253.098C117.453 253.035 117.49 252.978 117.537 252.931C117.584 252.884 117.641 252.847 117.704 252.824C117.766 252.8 117.833 252.79 117.9 252.794H121.9C121.967 252.79 122.033 252.8 122.096 252.824C122.158 252.847 122.215 252.884 122.262 252.931C122.31 252.978 122.346 253.035 122.37 253.098C122.394 253.16 122.404 253.227 122.4 253.294V255.294C122.391 255.424 122.336 255.546 122.244 255.638C122.152 255.73 122.03 255.785 121.9 255.794V255.794Z" fill="#3F3D56" />
        <path d="M199.2 255.794H195.2C195.133 255.798 195.067 255.788 195.004 255.764C194.942 255.74 194.885 255.704 194.837 255.656C194.79 255.609 194.753 255.552 194.73 255.49C194.706 255.427 194.696 255.361 194.7 255.294V253.294C194.696 253.227 194.706 253.16 194.73 253.098C194.753 253.035 194.79 252.978 194.837 252.931C194.885 252.884 194.942 252.847 195.004 252.824C195.067 252.8 195.133 252.79 195.2 252.794H199.2C199.267 252.79 199.334 252.8 199.396 252.824C199.459 252.847 199.515 252.884 199.563 252.931C199.61 252.978 199.647 253.035 199.67 253.098C199.694 253.16 199.704 253.227 199.7 253.294V255.294C199.692 255.424 199.636 255.546 199.544 255.638C199.452 255.73 199.33 255.785 199.2 255.794V255.794Z" fill="#3F3D56" />
        <path d="M189.2 255.794H185.2C185.133 255.798 185.067 255.788 185.004 255.764C184.942 255.74 184.885 255.704 184.837 255.656C184.79 255.609 184.753 255.552 184.73 255.49C184.706 255.427 184.696 255.361 184.7 255.294V253.294C184.696 253.227 184.706 253.16 184.73 253.098C184.753 253.035 184.79 252.978 184.837 252.931C184.885 252.884 184.942 252.847 185.004 252.824C185.067 252.8 185.133 252.79 185.2 252.794H189.2C189.267 252.79 189.334 252.8 189.396 252.824C189.459 252.847 189.515 252.884 189.563 252.931C189.61 252.978 189.647 253.035 189.67 253.098C189.694 253.16 189.704 253.227 189.7 253.294V255.294C189.692 255.424 189.636 255.546 189.544 255.638C189.452 255.73 189.33 255.785 189.2 255.794V255.794Z" fill="#3F3D56" />
        <path d="M179.2 255.794H175.2C175.133 255.798 175.067 255.788 175.004 255.764C174.942 255.74 174.885 255.704 174.837 255.656C174.79 255.609 174.753 255.552 174.73 255.49C174.706 255.427 174.696 255.361 174.7 255.294V253.294C174.696 253.227 174.706 253.16 174.73 253.098C174.753 253.035 174.79 252.978 174.837 252.931C174.885 252.884 174.942 252.847 175.004 252.824C175.067 252.8 175.133 252.79 175.2 252.794H179.2C179.267 252.79 179.334 252.8 179.396 252.824C179.459 252.847 179.515 252.884 179.563 252.931C179.61 252.978 179.647 253.035 179.67 253.098C179.694 253.16 179.704 253.227 179.7 253.294V255.294C179.692 255.424 179.636 255.546 179.544 255.638C179.452 255.73 179.33 255.785 179.2 255.794V255.794Z" fill="#3F3D56" />
        <path d="M169.2 255.794H165.2C165.133 255.798 165.067 255.788 165.004 255.764C164.942 255.74 164.885 255.704 164.837 255.656C164.79 255.609 164.753 255.552 164.73 255.49C164.706 255.427 164.696 255.361 164.7 255.294V253.294C164.696 253.227 164.706 253.16 164.73 253.098C164.753 253.035 164.79 252.978 164.837 252.931C164.885 252.884 164.942 252.847 165.004 252.824C165.067 252.8 165.133 252.79 165.2 252.794H169.2C169.267 252.79 169.334 252.8 169.396 252.824C169.459 252.847 169.515 252.884 169.563 252.931C169.61 252.978 169.647 253.035 169.67 253.098C169.694 253.16 169.704 253.227 169.7 253.294V255.294C169.692 255.424 169.636 255.546 169.544 255.638C169.452 255.73 169.33 255.785 169.2 255.794V255.794Z" fill="#3F3D56" />
        <path d="M159.2 255.794H155.2C155.133 255.798 155.067 255.788 155.004 255.764C154.942 255.74 154.885 255.704 154.837 255.656C154.79 255.609 154.753 255.552 154.73 255.49C154.706 255.427 154.696 255.361 154.7 255.294V253.294C154.696 253.227 154.706 253.16 154.73 253.098C154.753 253.035 154.79 252.978 154.837 252.931C154.885 252.884 154.942 252.847 155.004 252.824C155.067 252.8 155.133 252.79 155.2 252.794H159.2C159.267 252.79 159.334 252.8 159.396 252.824C159.459 252.847 159.515 252.884 159.563 252.931C159.61 252.978 159.647 253.035 159.67 253.098C159.694 253.16 159.704 253.227 159.7 253.294V255.294C159.692 255.424 159.636 255.546 159.544 255.638C159.452 255.73 159.33 255.785 159.2 255.794V255.794Z" fill="#3F3D56" />
        <path d="M149.2 255.794H145.2C145.133 255.798 145.067 255.788 145.004 255.764C144.942 255.74 144.885 255.704 144.837 255.656C144.79 255.609 144.753 255.552 144.73 255.49C144.706 255.427 144.696 255.361 144.7 255.294V253.294C144.696 253.227 144.706 253.16 144.73 253.098C144.753 253.035 144.79 252.978 144.837 252.931C144.885 252.884 144.942 252.847 145.004 252.824C145.067 252.8 145.133 252.79 145.2 252.794H149.2C149.267 252.79 149.334 252.8 149.396 252.824C149.459 252.847 149.515 252.884 149.563 252.931C149.61 252.978 149.647 253.035 149.67 253.098C149.694 253.16 149.704 253.227 149.7 253.294V255.294C149.692 255.424 149.636 255.546 149.544 255.638C149.452 255.73 149.33 255.785 149.2 255.794V255.794Z" fill="#3F3D56" />
        <path d="M192.1 255.794H188.1C188.033 255.798 187.966 255.788 187.904 255.764C187.841 255.74 187.785 255.704 187.737 255.656C187.69 255.609 187.653 255.552 187.63 255.49C187.606 255.427 187.596 255.361 187.6 255.294V253.294C187.596 253.227 187.606 253.16 187.63 253.098C187.653 253.035 187.69 252.978 187.737 252.931C187.785 252.884 187.841 252.847 187.904 252.824C187.966 252.8 188.033 252.79 188.1 252.794H192.1C192.167 252.79 192.234 252.8 192.296 252.824C192.359 252.847 192.415 252.884 192.463 252.931C192.51 252.978 192.547 253.035 192.57 253.098C192.594 253.16 192.604 253.227 192.6 253.294V255.294C192.592 255.424 192.536 255.546 192.444 255.638C192.352 255.73 192.23 255.785 192.1 255.794V255.794Z" fill="#3F3D56" />
        <path d="M153.9 261.794H114.9C114.833 261.798 114.766 261.788 114.704 261.764C114.641 261.74 114.584 261.704 114.537 261.656C114.49 261.609 114.453 261.552 114.43 261.49C114.406 261.427 114.396 261.361 114.4 261.294V259.294C114.396 259.227 114.406 259.16 114.43 259.098C114.453 259.035 114.49 258.978 114.537 258.931C114.584 258.884 114.641 258.847 114.704 258.824C114.766 258.8 114.833 258.79 114.9 258.794H153.9C153.967 258.79 154.033 258.8 154.096 258.824C154.158 258.847 154.215 258.884 154.262 258.931C154.31 258.978 154.346 259.035 154.37 259.098C154.394 259.16 154.404 259.227 154.4 259.294V261.294C154.391 261.424 154.336 261.546 154.244 261.638C154.152 261.73 154.03 261.785 153.9 261.794V261.794Z" fill="#3F3D56" />
        <path d="M483.052 316.765C482.456 317.075 481.862 317.386 481.268 317.696C465.605 325.865 453.084 330.58 435.868 335.775C434.09 319.503 432.199 290.831 430.596 273.156C430.117 268.564 429.75 264.67 429.304 261.977C429.182 260.511 428.855 259.068 428.331 257.693L428.504 261.993L428.896 273.188L430.896 337.264C409.505 343.335 387.481 346.9 365.268 347.888C364.068 347.909 362.968 347.928 361.868 348.047L360.668 348.067L356.968 348.131C333.551 348.543 310.17 346.122 287.335 340.921C287.559 324.815 287.573 296.411 287.617 275.607C287.647 271.507 287.681 267.707 287.725 264.407C287.802 257.207 287.914 252.102 288.085 250.399C287.898 250.709 287.768 251.05 287.702 251.406C286.843 255.74 286.283 260.127 286.027 264.537C285.783 267.837 285.448 271.648 285.219 275.752C283.689 297.381 282.292 326.81 280.506 339.342C268.554 336.252 256.8 332.446 245.306 327.942C239.264 325.542 233.318 322.942 227.47 320.142C228.447 312.924 229.508 304.805 230.47 296.487C231.258 289.973 232.144 283.257 232.93 276.642C234.256 266.418 283.367 155.661 295.298 151.556L295.598 151.451L295.798 151.551L316.188 144.901L319.172 143.95L321.161 143.316L328.168 137.795L331.917 134.83L335.469 131.969L342.475 126.448L386.215 128.4L395.065 148.751L414.282 155.423L414.582 155.223L414.882 155.118L415.182 155.218C427.248 158.862 437.713 166.507 444.852 176.894C445.776 178.279 447.008 180.158 448.346 182.335C449.478 184.216 450.715 186.395 452.056 188.773C453.914 192.141 456.081 196.005 458.256 200.168C458.772 201.06 459.289 202.051 459.704 202.944L462.496 208.297C464.669 212.56 466.944 216.922 469.221 221.384C471.188 225.251 473.221 233.317 475.3 243.484C477.046 251.955 478.716 261.928 480.4 272.401C482.631 285.865 480.808 302.101 482.822 314.566C482.849 315.304 482.926 316.038 483.052 316.765V316.765Z" fill="#32AD78" />
        <path d="M267.786 323.308C267.561 323.426 267.327 323.526 267.086 323.608C265.686 324.308 264.286 325.008 262.886 325.608C258.686 327.608 254.386 329.508 250.086 331.308C238.705 336.096 227.011 340.105 215.086 343.308C213.086 330.808 211.186 301.408 209.286 279.808C208.986 275.708 208.586 271.908 208.286 268.608C207.954 264.203 207.32 259.825 206.386 255.508C206.296 255.158 206.162 254.822 205.986 254.508C206.186 256.208 206.386 261.408 206.586 268.508C206.686 271.808 206.786 275.608 206.886 279.708C207.386 300.508 207.886 328.908 208.386 345.008C206.986 345.308 205.586 345.708 204.186 346.008L201.486 346.608C200.386 346.808 199.286 347.108 198.286 347.308C197.186 347.508 195.986 347.808 194.886 348.008C176.403 351.606 157.616 353.414 138.786 353.408H133.986C132.886 353.408 131.786 353.408 130.586 353.308C108.359 352.699 86.2776 349.511 64.786 343.808L65.686 279.708L65.786 268.508L65.886 264.208C65.3859 265.592 65.0829 267.039 64.986 268.508C64.586 271.208 64.286 275.108 63.886 279.708C62.486 297.508 61.086 326.108 59.686 342.408C42.386 337.508 29.786 333.008 13.986 325.108L12.186 324.208C12.286 323.408 12.386 322.708 12.486 321.908C14.286 309.508 12.186 293.308 14.186 279.708C15.686 269.308 17.286 259.208 18.786 250.708C20.686 240.508 22.586 232.408 24.486 228.508C26.686 224.008 28.886 219.508 30.986 215.308L33.686 209.908C34.186 208.908 34.686 208.008 35.086 207.108C37.186 202.908 39.286 199.008 41.086 195.608C42.386 193.208 43.586 191.008 44.686 189.108C45.7248 187.218 46.8596 185.382 48.086 183.608C54.986 173.108 54.921 161.167 66.921 157.367L71.168 156.691C76.2044 155.891 81.0001 153.982 85.2083 151.102C89.4164 148.222 92.9318 144.442 95.5 140.037C95.9 139.344 96.305 138.66 96.7 137.996C99.814 132.749 103.473 127.065 108.1 126.779L140.088 124.308C145.831 123.953 152.108 133.325 156.688 136.808L160.288 139.608L176.288 149.408L196.788 155.708L196.988 155.608L197.288 155.708C208.22 159.214 217.794 166.028 224.688 175.208C225.388 176.108 225.988 177.008 226.588 177.908C228.942 181.529 231.111 185.267 233.088 189.108C234.188 191.108 235.288 193.308 236.588 195.608C237.288 197.008 243.588 216.608 249.788 236.708C255.488 255.508 261.088 274.708 261.788 279.608C261.888 280.508 262.088 281.408 262.188 282.308C262.988 288.008 263.888 293.708 264.588 299.308C265.788 307.608 266.888 315.608 267.988 322.708C267.786 323.108 267.786 323.208 267.786 323.308Z" fill="#C399D6" />
        <path opacity="0.2" d="M139.3 245.794L130.8 212.994L123.3 241.294L139.3 245.794Z" fill="black" />
        <path d="M356.438 128.928C384.494 128.928 407.238 106.184 407.238 78.1281C407.238 50.0721 384.494 27.3281 356.438 27.3281C328.382 27.3281 305.638 50.0721 305.638 78.1281C305.638 106.184 328.382 128.928 356.438 128.928Z" fill="#FFB6B6" />
        <path opacity="0.2" d="M271.2 245.794L279.7 212.994L287.2 241.294L271.2 245.794Z" fill="black" />
        <path d="M226.55 207.839L197.009 223.247L220.818 293.647C222.534 298.692 225.519 303.21 229.486 306.768C233.452 310.326 238.268 312.803 243.469 313.962C249.89 315.376 256.595 314.706 262.611 312.05C268.626 309.395 273.638 304.891 276.921 299.194L335.054 195.483C339.168 188.328 340.327 179.849 338.285 171.852C336.243 163.855 331.161 156.971 324.12 152.664C320.577 150.5 316.643 149.057 312.542 148.416C308.44 147.775 304.253 147.949 300.219 148.928C296.186 149.908 292.385 151.674 289.034 154.124C285.684 156.574 282.849 159.662 280.694 163.209C280.111 164.219 279.528 165.229 279.045 166.238L243.784 244.753L226.55 207.839Z" fill="#606060" />
        <path d="M497.3 224.394C494.3 266.294 497.4 284.694 480.6 319.194C465.347 326.68 449.449 332.771 433.1 337.394C431.4 337.894 429.7 338.294 428 338.794C406.508 344.497 384.427 347.685 362.2 348.294C361 348.294 359.9 348.294 358.8 348.394H353.9C330.479 348.406 307.143 345.585 284.4 339.994C282.1 339.394 279.9 338.794 277.6 338.194C265.703 334.901 254.015 330.893 242.6 326.194C236.6 323.694 230.7 320.994 224.9 318.094C223.6 317.394 222.3 316.794 221 316.094C214.4 304.394 210.6 290.294 210.5 273.194C215 243.894 487.1 199.094 497.3 224.394Z" fill="#2F2E41" />
        <path opacity="0.2" d="M497.3 231.594C497.5 228.994 497.6 226.294 497.8 223.494C487.7 198.194 215.6 242.994 211 272.394C211 275.094 211.1 277.694 211.3 280.294C222.4 251.294 480.9 208.694 497.3 231.594Z" fill="black" />
        <path d="M125.98 139.961C156.853 139.961 181.88 113.328 181.88 80.4753C181.88 47.622 156.853 20.9893 125.98 20.9893C95.1074 20.9893 70.0801 47.622 70.0801 80.4753C70.0801 113.328 95.1074 139.961 125.98 139.961Z" fill="#A0616A" />
        <path d="M70.68 39.3986C75.18 32.9076 81.78 28.2256 86.78 22.0536C89.48 18.6476 91.78 14.9236 94.88 11.8376C100.58 6.19756 108.58 3.96256 116.38 3.64356C133.68 3.21756 150.08 11.5186 160.68 25.9906C164.78 23.4366 168.78 20.8826 172.88 18.4356C174.48 22.9046 176.08 27.4806 177.68 31.9496C178.389 31.2684 179.232 30.7437 180.157 30.4093C181.081 30.075 182.065 29.9385 183.046 30.0088C184.026 30.079 184.981 30.3543 185.848 30.817C186.715 31.2797 187.476 31.9193 188.08 32.6946C189.102 33.9498 189.724 35.4822 189.867 37.0944C190.009 38.7066 189.666 40.3245 188.88 41.7396C189.88 38.5476 194.28 37.9086 196.68 40.0396C199.08 42.1706 199.78 45.8926 199.38 49.1906C198.97 52.7468 197.502 56.0983 195.167 58.8113C192.832 61.5244 189.736 63.4742 186.28 64.4086C180.98 65.6856 174.78 64.3016 170.58 67.9196C167.18 70.7936 166.18 76.1136 162.68 78.8806C158.38 82.2806 152.38 80.6896 147.08 81.5406C137.78 82.9246 130.38 93.0336 131.48 102.931C130.68 99.8446 129.78 96.5456 127.88 93.9916C125.98 91.4376 122.78 89.7346 119.78 90.6916C114.98 92.2916 114.18 99.3116 115.28 104.526C118.38 118.36 130.18 140.813 130.18 140.813C114.88 147.198 96.58 141.133 84.78 129.001C72.98 116.764 66.78 99.5236 64.08 82.1786C62.08 67.5936 62.38 51.3176 70.68 39.3986Z" fill="#2F2E41" />
        <path d="M420.608 105.034C430.789 80.4561 424.408 58.1621 411.208 46.3871C405.913 35.0761 398.962 26.2931 391.229 24.4251C387.388 22.0911 383.741 19.3531 379.716 17.9251C375.88 16.6017 371.676 16.8534 368.026 18.6251L365.918 18.1611C364.041 13.6921 362.04 13.6261 359.791 16.6611C350.922 12.7131 342.991 11.0481 335.991 11.1681C312.991 11.5621 299.828 31.1901 296.631 54.7481L315.915 59.5192L322.433 48.8051L319.533 60.4571L330.179 63.0752C346.636 83.7962 328.168 132.52 304.234 159.933C310.005 158.233 315.78 156.733 321.561 155.533L342.031 124.378L329.512 152.596C336.294 151.48 344.912 152.333 354.341 154.072C357.47 149.917 358.974 144.291 357.29 139.419C360.041 144.56 361.99 150.09 363.072 155.819C383.051 160.278 410.19 162.319 424.72 163.965C436.349 159.873 435.6 116.379 420.608 105.034Z" fill="#2F2E41" />
        <path d="M426.086 21.928C434.186 39.292 418.615 47.06 404.212 47.006C391.212 47.029 379.956 38.12 379.134 25.132C378.911 22.0466 379.302 18.9476 380.283 16.0138C381.264 13.08 382.816 10.3694 384.849 8.03816C386.882 5.70694 389.357 3.80123 392.13 2.43091C394.904 1.06059 397.921 0.252755 401.008 0.0539704V0.0539704C413.894 -0.86603 420.583 10.121 426.086 21.928Z" fill="#2F2E41" />
        <path d="M273.186 318.608L267.786 323.108L267.186 323.608C265.786 324.308 264.386 325.008 262.986 325.608C258.786 327.608 254.486 329.508 250.186 331.308C238.805 336.096 227.111 340.105 215.186 343.308C212.886 343.908 210.686 344.508 208.386 345.108C206.986 345.408 205.586 345.808 204.186 346.108L201.486 346.708C200.386 346.908 199.286 347.208 198.286 347.408C197.186 347.608 195.986 347.908 194.886 348.108C191.86 345.213 189.45 341.736 187.801 337.887C186.151 334.038 185.296 329.896 185.286 325.708V324.908L188.486 242.608L189.886 206.108C190.11 197.854 193.549 190.014 199.471 184.26C205.393 178.506 213.329 175.294 221.586 175.308C222.554 175.291 223.522 175.325 224.486 175.408C225.186 176.308 225.786 177.208 226.386 178.108C228.74 181.729 230.909 185.468 232.886 189.308C233.986 191.308 235.086 193.508 236.386 195.808C237.01 197.056 242.08 212.754 247.564 230.38C248.897 234.664 249.292 239.186 248.721 243.637L246.886 257.908L241.986 295.708L261.986 282.608L276.086 273.308L277.786 276.108L282.086 283.408L273.186 318.608Z" fill="#C399D6" />
        <path d="M287.3 273.294C287.3 274.994 287.3 276.694 287.2 278.294C287.019 282.862 286.484 287.409 285.6 291.894C284.228 299.41 281.769 306.686 278.3 313.494L276.8 316.194C275.5 316.894 274.2 317.494 272.9 318.194C272.675 318.312 272.441 318.412 272.2 318.494C266.6 321.294 261 323.894 255.2 326.294C243.819 331.082 232.125 335.091 220.2 338.294C217.9 338.894 215.7 339.494 213.4 340.094C209 341.194 204.5 342.194 199.9 343.094C181.417 346.692 162.63 348.501 143.8 348.494H139C137.9 348.494 136.8 348.494 135.6 348.394C113.373 347.785 91.2916 344.597 69.8 338.894C68.1 338.394 66.4 337.994 64.7 337.494C48.3449 332.888 32.4454 326.796 17.2 319.294C0.400013 284.794 3.6 266.294 0.5 224.494C6.7 208.894 112.3 219.894 193.6 237.494C215.7 242.294 235.9 247.494 251.9 252.894C268.4 258.394 280.4 264.094 285.1 269.294C286.209 270.383 286.974 271.774 287.3 273.294V273.294Z" fill="#2F2E41" />
        <path opacity="0.2" d="M0.5 231.594C0.3 228.994 0.2 226.294 0 223.494C10.1 198.194 282.2 242.994 286.8 272.394C286.8 275.094 286.7 277.694 286.5 280.294C275.3 251.294 16.9 208.694 0.5 231.594Z" fill="black" />
      </g>
    </g>
  </g>
</svg>