<?xml version="1.0" encoding="utf-8"?>
<svg version="1.1" xmlns:xlink="http://www.w3.org/1999/xlink" width="47px" height="47px" xmlns="http://www.w3.org/2000/svg">
  <g transform="matrix(1 0 0 1 -98 -564 )">
    <path d="M 100 572  A 6 6 0 0 1 106 566 L 137 566  A 6 6 0 0 1 143 572 L 143 603  A 6 6 0 0 1 137 609 L 106 609  A 6 6 0 0 1 100 603 L 100 572  Z " fill-rule="nonzero" fill="#ffffff" stroke="none" />
    <path d="M 99 572  A 7 7 0 0 1 106 565 L 137 565  A 7 7 0 0 1 144 572 L 144 603  A 7 7 0 0 1 137 610 L 106 610  A 7 7 0 0 1 99 603 L 99 572  Z " stroke-width="2" stroke-dasharray="2,2" stroke="#383838" fill="none" />
  </g>
</svg>