<?xml version="1.0" encoding="utf-8"?>
<svg version="1.1" xmlns:xlink="http://www.w3.org/1999/xlink" width="390px" height="844px" xmlns="http://www.w3.org/2000/svg">
  <defs>
    <path d="M 0 0  L 390 0  L 390 844  L 0 844  Z " fill-rule="evenodd" fill="black" id="path19" />
    <clipPath id="clip20">
      <use xlink:href="#path19" />
    </clipPath>
    <g clip-path="url(#clip0_74_11)">
      <rect width="390" height="844" fill="#FFFCF3" />
      <path d="M400 530C216 668.325 93.5 651.277 -18 668.325V858H400V530Z" fill="#FFEDF2" />
      <path d="M-68.8919 313.709C31.9565 144.691 309.084 127.339 423.929 137.296L434.105 -44.7048L-42.8661 -151.772L-68.8919 313.709Z" fill="#E2FFF8" />
      <path d="M-59.4569 363.818C41.3916 194.799 318.519 177.447 433.364 187.405L443.54 5.4036L-33.4311 -101.663L-59.4569 363.818Z" fill="#E2FFF8" fill-opacity="0.54" />
      <path d="M-49.7967 415.118C51.0518 246.1 328.179 228.748 443.024 238.705L453.2 56.7044L-23.7709 -50.3627L-49.7967 415.118Z" fill="#E2FFF8" fill-opacity="0.26" />
      <path d="M-70.9999 260.481C29.8486 91.462 306.976 74.1104 421.821 84.0676L431.997 -97.9333L-44.974 -205L-70.9999 260.481Z" fill="#D8FFF6" />
      <path d="M153.678 330.888C41.2785 313.431 -15.2339 365.699 -15.6431 424.741C-16.3837 531.601 79.3373 520.401 114.866 530.712C238.087 566.471 180.348 630.304 236.726 762.78C293.105 895.255 440.822 884.361 486.329 807.111C531.835 729.861 432.957 517.892 341.73 494.68C221.621 464.118 294.178 352.708 153.678 330.888Z" fill="#87F59F" fill-opacity="0.11" />
      <path d="M133.28 696.947C94.6142 676.116 84.8701 606.84 118.167 586.483C195.007 508.448 395.057 615.158 437.503 661.007C479.949 706.856 456.514 769.463 384.071 775.457C311.627 781.451 318.208 722.9 260.436 701.444C202.663 679.988 184.524 724.553 133.28 696.947Z" fill="#D6FAFC" fill-opacity="0.52" />
      <path d="M-11.1868 745.638C-28.2942 805.583 -6.82892 874.114 24.6285 861.029C82.2901 828.496 74.4585 713.157 53.9694 690.727C33.4803 668.298 10.1974 670.706 -11.1868 745.638Z" fill="#DEF4DB" />
      <path d="M68.331 752.64C31.6528 788.186 17.6511 851.77 44.532 859.518C97.3741 867.287 140.204 776.102 135.62 747.76C131.036 719.419 114.179 708.207 68.331 752.64Z" fill="#E4F2AB" fill-opacity="0.65" />
      <path d="M130.451 797C89.6481 795.791 50.1916 824.255 63.9569 844.69C94.5794 880.544 165.945 853.225 176.499 834.113C187.053 815.001 181.454 798.512 130.451 797Z" fill="#DAFFF4" fill-opacity="0.42" />
    </g>
    <defs>
      <clipPath id="clip0_74_11">
        <rect width="390" height="844" fill="white" />
      </clipPath>
    </defs>
    <filter x="-50.00%" y="-50.00%" width="200.00%" height="200.00%" filterUnits="objectBoundingBox" id="filter21">
      <feColorMatrix type="matrix" values="1 0 0 0 0  0 1 0 0 0  0 0 1 0 0  0 0 0 1 0  " in="SourceGraphic" />
    </filter>
  </defs>
  <g>
    <g clip-path="url(#clip20)" filter="url(#filter21)">
      <g clip-path="url(#clip0_74_11)">
        <rect width="390" height="844" fill="#FFFCF3" />
        <path d="M400 530C216 668.325 93.5 651.277 -18 668.325V858H400V530Z" fill="#FFEDF2" />
        <path d="M-68.8919 313.709C31.9565 144.691 309.084 127.339 423.929 137.296L434.105 -44.7048L-42.8661 -151.772L-68.8919 313.709Z" fill="#E2FFF8" />
        <path d="M-59.4569 363.818C41.3916 194.799 318.519 177.447 433.364 187.405L443.54 5.4036L-33.4311 -101.663L-59.4569 363.818Z" fill="#E2FFF8" fill-opacity="0.54" />
        <path d="M-49.7967 415.118C51.0518 246.1 328.179 228.748 443.024 238.705L453.2 56.7044L-23.7709 -50.3627L-49.7967 415.118Z" fill="#E2FFF8" fill-opacity="0.26" />
        <path d="M-70.9999 260.481C29.8486 91.462 306.976 74.1104 421.821 84.0676L431.997 -97.9333L-44.974 -205L-70.9999 260.481Z" fill="#D8FFF6" />
        <path d="M153.678 330.888C41.2785 313.431 -15.2339 365.699 -15.6431 424.741C-16.3837 531.601 79.3373 520.401 114.866 530.712C238.087 566.471 180.348 630.304 236.726 762.78C293.105 895.255 440.822 884.361 486.329 807.111C531.835 729.861 432.957 517.892 341.73 494.68C221.621 464.118 294.178 352.708 153.678 330.888Z" fill="#87F59F" fill-opacity="0.11" />
        <path d="M133.28 696.947C94.6142 676.116 84.8701 606.84 118.167 586.483C195.007 508.448 395.057 615.158 437.503 661.007C479.949 706.856 456.514 769.463 384.071 775.457C311.627 781.451 318.208 722.9 260.436 701.444C202.663 679.988 184.524 724.553 133.28 696.947Z" fill="#D6FAFC" fill-opacity="0.52" />
        <path d="M-11.1868 745.638C-28.2942 805.583 -6.82892 874.114 24.6285 861.029C82.2901 828.496 74.4585 713.157 53.9694 690.727C33.4803 668.298 10.1974 670.706 -11.1868 745.638Z" fill="#DEF4DB" />
        <path d="M68.331 752.64C31.6528 788.186 17.6511 851.77 44.532 859.518C97.3741 867.287 140.204 776.102 135.62 747.76C131.036 719.419 114.179 708.207 68.331 752.64Z" fill="#E4F2AB" fill-opacity="0.65" />
        <path d="M130.451 797C89.6481 795.791 50.1916 824.255 63.9569 844.69C94.5794 880.544 165.945 853.225 176.499 834.113C187.053 815.001 181.454 798.512 130.451 797Z" fill="#DAFFF4" fill-opacity="0.42" />
      </g>
    </g>
  </g>
</svg>