<svg width="390" height="844" viewBox="0 0 390 844" fill="none" xmlns="http://www.w3.org/2000/svg">
<g clip-path="url(#clip0_74_33)">
<rect width="390" height="844" rx="15" fill="#FFFCF3"/>
<path d="M400 530C216 668.325 93.5 651.277 -18 668.325V858H400V530Z" fill="#FFEDF2"/>
<path d="M133.28 696.947C94.6142 676.116 84.8701 606.84 118.167 586.483C195.007 508.448 395.057 615.158 437.503 661.007C479.949 706.856 456.514 769.463 384.071 775.457C311.627 781.451 318.208 722.9 260.436 701.444C202.663 679.988 184.524 724.553 133.28 696.947Z" fill="#D6FAFC" fill-opacity="0.52"/>
<path d="M-11.1868 745.638C-28.2942 805.583 -6.82892 874.114 24.6285 861.029C82.2901 828.496 74.4585 713.157 53.9694 690.727C33.4803 668.298 10.1974 670.706 -11.1868 745.638Z" fill="#DEF4DB"/>
<path d="M300.335 292.405C263.966 317.98 246.024 360.581 269.935 364.029C317.546 365.908 364.045 303.426 362.16 285.098C360.275 266.769 345.796 260.436 300.335 292.405Z" fill="#FFF4CD"/>
<path d="M199.961 299.713C188.218 334.053 194.537 367.34 210.443 355.81C240.099 330.132 243.083 269.99 234.535 261.055C225.987 252.12 214.64 256.788 199.961 299.713Z" fill="#FFEDDF"/>
<path d="M179.509 549.893C189.751 513.894 179.342 477.162 162.159 488.01C130.518 512.764 132.78 577.636 143.446 588.206C154.112 598.776 166.706 594.893 179.509 549.893Z" fill="#FFEDDF"/>
<path d="M115.165 305.1C113.97 337.771 131.778 368.05 144.996 356.138C168.256 330.067 151.509 274.229 139.388 266.641C127.267 259.052 116.658 264.26 115.165 305.1Z" fill="#FFEDDF"/>
<path d="M345.947 517.37C320.408 480.409 275.535 461.642 270.516 485.582C265.889 533.338 330.599 581.123 350.43 579.557C370.262 577.991 377.87 563.57 345.947 517.37Z" fill="#FFEDDF"/>
<path d="M43.6018 363.405C63.2451 376.69 88.9112 377.321 86.7924 364.585C79.9168 340.211 38.9336 329.108 29.4801 333.679C20.0265 338.249 19.0477 346.8 43.6018 363.405Z" fill="#FFF4CD"/>
<path d="M246.295 534.738C250.832 511.462 241.368 487.596 230.477 494.531C210.738 510.397 216.561 552.456 224.466 559.367C232.372 566.278 240.624 563.832 246.295 534.738Z" fill="#FFF4CD"/>
<path d="M53.9745 511.79C70.19 494.487 74.8607 469.242 61.9497 469.326C36.7961 472.272 19.3704 510.992 22.393 521.048C25.4156 531.104 33.7051 533.419 53.9745 511.79Z" fill="#FFF4CD"/>
<path d="M105.463 536.916C121.665 507.466 120.125 473.692 103.03 480.049C70.5776 495.908 59.332 552.677 66.4207 563.765C73.5094 574.853 85.2108 573.728 105.463 536.916Z" fill="#FFEDDF"/>
<path d="M68.331 752.64C31.6528 788.186 17.6511 851.77 44.532 859.518C97.3741 867.287 140.204 776.102 135.62 747.76C131.036 719.419 114.179 708.207 68.331 752.64Z" fill="#E4F2AB" fill-opacity="0.65"/>
<path d="M130.451 797C89.6481 795.791 50.1916 824.255 63.9569 844.69C94.5794 880.544 165.945 853.225 176.499 834.113C187.053 815.001 181.454 798.512 130.451 797Z" fill="#DAFFF4" fill-opacity="0.42"/>
</g>
<defs>
<clipPath id="clip0_74_33">
<rect width="390" height="844" rx="15" fill="white"/>
</clipPath>
</defs>
</svg>
