<svg id="Layer_1" data-name="Layer 1" xmlns="http://www.w3.org/2000/svg" width="35.745" height="34.357" viewBox="0 0 35.745 34.357"><defs><style>.cls-1{fill:none;stroke:#0078bb;stroke-miterlimit:10;stroke-width:3px;fill-rule:evenodd;}</style></defs><path class="cls-1" d="M1104,1822.562l3.363,6.815a2.188,2.188,0,0,0,1.648,1.2l7.521,1.093a2.189,2.189,0,0,1,1.214,3.734l-5.443,5.305a2.189,2.189,0,0,0-.629,1.938l1.285,7.49a2.19,2.19,0,0,1-3.177,2.308l-6.727-3.536a2.184,2.184,0,0,0-2.037,0l-6.727,3.536a2.19,2.19,0,0,1-3.177-2.308l1.285-7.49a2.19,2.19,0,0,0-.63-1.938l-5.442-5.305a2.189,2.189,0,0,1,1.214-3.734l7.52-1.093a2.188,2.188,0,0,0,1.649-1.2l3.363-6.815A2.19,2.19,0,0,1,1104,1822.562Z" transform="translate(-1084.165 -1819.842)"/></svg>