<svg width="32" height="32" viewBox="0 0 32 32" fill="none" xmlns="http://www.w3.org/2000/svg">
<path d="M20.8 7.46696H18.575L19.9543 6.08766C20.3715 5.67052 20.3715 4.99642 19.9543 4.57946C19.5372 4.16232 18.8631 4.16232 18.4461 4.57946L14.492 8.53356L18.4461 12.4877C18.6541 12.6957 18.9272 12.8002 19.2002 12.8002C19.4733 12.8002 19.7463 12.6957 19.9543 12.4877C20.3715 12.0705 20.3715 11.3964 19.9543 10.9795L18.575 9.60017H20.8C22.2709 9.60017 23.4666 11.0359 23.4666 12.8002C23.4666 14.5645 22.0309 16.0002 20.2666 16.0002C19.6768 16.0002 19.2 16.478 19.2 17.0668C19.2 17.6555 19.6768 18.1334 20.2666 18.1334C23.2073 18.1334 25.6001 15.7409 25.6001 12.7999C25.6001 9.85918 23.4466 7.46641 20.8001 7.46641L20.8 7.46696Z" fill="#333333"/>
<path d="M12.0457 13.1135C11.6286 13.5306 11.6286 14.2047 12.0457 14.6217L13.425 16.001H11.2C9.72909 16.001 8.53339 14.5653 8.53339 12.801C8.53339 11.0367 9.96909 9.60098 11.7334 9.60098C12.3232 9.60098 12.8 9.12313 12.8 8.53438C12.8 7.94562 12.3232 7.46777 11.7334 7.46777C8.79268 7.46777 6.3999 9.86028 6.3999 12.8013C6.3999 15.742 8.55346 18.1347 11.1999 18.1347H13.4249L12.0456 19.514C11.6285 19.9312 11.6285 20.6053 12.0456 21.0222C12.2537 21.2303 12.5267 21.3347 12.7997 21.3347C13.0728 21.3347 13.3458 21.2303 13.5538 21.0222L17.5079 17.0681L13.5538 13.114C13.1367 12.6969 12.4626 12.6969 12.0456 13.114L12.0457 13.1135Z" fill="#333333"/>
</svg>
