<svg width="19" height="19" viewBox="0 0 19 19" fill="none" xmlns="http://www.w3.org/2000/svg">
<path d="M18.224 6.52733L6.21922 18.5321L2.11111 18.9886C1.5025 19.0494 0.985185 18.8669 0.559159 18.4408C0.133133 18.0148 -0.0494494 17.4975 0.0114114 16.8889L0.467868 12.7808L12.4727 0.775976C12.99 0.258659 13.6138 0 14.3441 0C15.0745 0 15.7135 0.258659 16.2613 0.775976L18.224 2.73874C18.7413 3.25606 19 3.89509 19 4.65586C19 5.38619 18.7413 6.01001 18.224 6.52733ZM13.7051 7.94234L11.0577 5.29489L2.56757 13.785L2.24805 16.752L5.21501 16.4324L13.7051 7.94234ZM16.6721 4.29069L14.7093 2.32793C14.4659 2.11491 14.2376 2.11491 14.0246 2.32793L12.6096 3.74294L15.2571 6.39039L16.6721 4.97538C16.8851 4.76236 16.8851 4.53413 16.6721 4.29069Z" fill="#0078BB"/>
</svg>
