<svg width="13" height="14" viewBox="0 0 13 14" fill="none" xmlns="http://www.w3.org/2000/svg">
<path d="M7.14714 0.264135C7.06205 0.212021 6.95833 0.199672 6.86346 0.230687L1.01379 2.13603C0.887338 2.1774 0.796171 2.28822 0.780892 2.42042C0.765409 2.55249 0.828012 2.68162 0.941397 2.75107L2.64601 3.79511C0.774709 7.27598 1.54712 11.3182 4.47544 13.1117C6.91158 14.6038 10.2447 14.036 12.5804 11.7305C12.7104 11.602 12.7162 11.3937 12.5933 11.2585C12.4705 11.1228 12.2626 11.109 12.1222 11.2259C10.4713 12.6046 8.25339 12.8518 6.60327 11.8411C4.03467 10.2679 5.19042 7.32022 5.99852 5.84869L7.7516 6.92242C7.86499 6.99186 8.00856 6.98901 8.11908 6.91514C8.22969 6.84134 8.28724 6.70979 8.26658 6.57845L7.3057 0.501794C7.29016 0.403299 7.23202 0.31651 7.14683 0.264333L7.14714 0.264135Z" fill="#0078BB"/>
</svg>
