<?xml version="1.0" encoding="UTF-8"?>
<svg id="Layer_1" data-name="Layer 1" xmlns="http://www.w3.org/2000/svg" xmlns:xlink="http://www.w3.org/1999/xlink" viewBox="0 0 571 338">
  <defs>
    <style>
      .cls-1, .cls-2, .cls-3, .Graphic_Style_5, .cls-4, .cls-5, .cls-6, .cls-7, .cls-8 {
        stroke-miterlimit: 10;
      }

      .cls-1, .cls-2, .cls-9, .Graphic_Style_5, .cls-4, .cls-6 {
        fill: #fff;
      }

      .cls-1, .cls-3, .cls-5, .cls-6, .cls-7, .cls-8 {
        stroke-width: 2px;
      }

      .cls-1, .cls-5, .cls-8 {
        stroke: #05838e;
      }

      .cls-2 {
        filter: url(#drop-shadow-4-1);
      }

      .cls-2, .Graphic_Style_5, .cls-4 {
        stroke: #949494;
      }

      .cls-3 {
        fill: #00a5a9;
      }

      .cls-3, .cls-7 {
        stroke: #00a5a9;
      }

      .Graphic_Style_5 {
        filter: url(#drop-shadow-4);
      }

      .cls-10 {
        fill: #1f1f1f;
      }

      .cls-4 {
        filter: url(#drop-shadow-1);
      }

      .cls-11, .cls-12 {
        fill: none;
      }

      .cls-5 {
        fill: #e2fcfe;
        filter: url(#drop-shadow-3);
      }

      .cls-12 {
        stroke: #fff;
        stroke-linecap: round;
        stroke-linejoin: round;
        stroke-width: 3px;
      }

      .cls-6 {
        stroke: #0074e0;
      }

      .cls-7 {
        fill: #f0feff;
        filter: url(#drop-shadow-2);
      }

      .cls-8 {
        fill: #05838e;
      }
    </style>
    <filter id="drop-shadow-4" filterUnits="userSpaceOnUse">
      <feOffset dx="0" dy="1.5"/>
      <feGaussianBlur result="blur" stdDeviation=".5"/>
      <feFlood flood-color="#000" flood-opacity=".15"/>
      <feComposite in2="blur" operator="in"/>
      <feComposite in="SourceGraphic"/>
    </filter>
    <filter id="drop-shadow-1" x="12.5" y="15.5" width="545" height="78" filterUnits="userSpaceOnUse">
      <feOffset dx="0" dy="1.5"/>
      <feGaussianBlur result="blur-2" stdDeviation=".5"/>
      <feFlood flood-color="#000" flood-opacity=".15"/>
      <feComposite in2="blur-2" operator="in"/>
      <feComposite in="SourceGraphic"/>
    </filter>
    <filter id="drop-shadow-2" x="8" y="157" width="555" height="88" filterUnits="userSpaceOnUse">
      <feOffset dx="0" dy="2"/>
      <feGaussianBlur result="blur-3" stdDeviation="2"/>
      <feFlood flood-color="#000" flood-opacity=".2"/>
      <feComposite in2="blur-3" operator="in"/>
      <feComposite in="SourceGraphic"/>
    </filter>
    <filter id="drop-shadow-3" x="14.87" y="247.64" width="541.69" height="75" filterUnits="userSpaceOnUse">
      <feOffset dx="0" dy="1.5"/>
      <feGaussianBlur result="blur-4" stdDeviation=".5"/>
      <feFlood flood-color="#000" flood-opacity=".15"/>
      <feComposite in2="blur-4" operator="in"/>
      <feComposite in="SourceGraphic"/>
    </filter>
    <filter id="drop-shadow-4-1" x="13.5" y="102.5" width="545" height="52" filterUnits="userSpaceOnUse">
      <feOffset dx="0" dy="1.5"/>
      <feGaussianBlur result="blur-5" stdDeviation=".5"/>
      <feFlood flood-color="#000" flood-opacity=".15"/>
      <feComposite in2="blur-5" operator="in"/>
      <feComposite in="SourceGraphic"/>
    </filter>
  </defs>
  <rect class="cls-4" x="15.44" y="16.14" width="539.69" height="73" rx="6" ry="6"/>
  <g>
    <rect class="cls-11" x="86.94" y="32.5" width="473.06" height="52.14"/>
    <path class="cls-10" d="M88.57,33.5h1.49v10.53h5.17v1.28h-6.66v-11.81Z"/>
    <path class="cls-10" d="M96.31,40.95c0-2.94,1.91-4.61,4.05-4.61s4.05,1.67,4.05,4.61-1.91,4.57-4.05,4.57-4.05-1.67-4.05-4.57ZM102.88,40.95c0-2.02-1.01-3.38-2.52-3.38s-2.52,1.37-2.52,3.38,1.03,3.35,2.52,3.35,2.52-1.35,2.52-3.35Z"/>
    <path class="cls-10" d="M106.71,36.56h1.22l.13,1.58h.05c.59-1.1,1.49-1.8,2.48-1.8.38,0,.65.05.94.18l-.29,1.3c-.29-.09-.49-.14-.85-.14-.74,0-1.62.54-2.21,2.02v5.62h-1.48v-8.75Z"/>
    <path class="cls-10" d="M112.13,40.95c0-2.86,1.93-4.61,3.92-4.61,2.23,0,3.49,1.6,3.49,4.11,0,.31-.02.63-.05.85h-5.91c.11,1.85,1.24,3.04,2.92,3.04.83,0,1.53-.27,2.18-.68l.52.97c-.76.49-1.69.9-2.88.9-2.34,0-4.19-1.71-4.19-4.57ZM118.25,40.23c0-1.76-.79-2.72-2.16-2.72-1.22,0-2.34.99-2.52,2.72h4.68Z"/>
    <path class="cls-10" d="M121.7,36.56h1.22l.13,1.26h.05c.76-.83,1.67-1.48,2.72-1.48,1.33,0,2.05.63,2.41,1.67.92-.99,1.82-1.67,2.88-1.67,1.8,0,2.66,1.19,2.66,3.42v5.55h-1.48v-5.35c0-1.64-.52-2.34-1.62-2.34-.68,0-1.39.45-2.2,1.35v6.34h-1.48v-5.35c0-1.64-.52-2.34-1.64-2.34-.65,0-1.39.45-2.2,1.35v6.34h-1.48v-8.75Z"/>
    <path class="cls-10" d="M140.37,33.5h1.49v11.81h-1.49v-11.81Z"/>
    <path class="cls-10" d="M144.96,36.56h1.22l.13,1.01h.05c.79-.67,1.76-1.22,2.79-1.22,2.25,0,3.46,1.75,3.46,4.47,0,2.97-1.78,4.72-3.78,4.72-.81,0-1.62-.38-2.43-1.01l.04,1.53v2.95h-1.48v-12.44ZM151.08,40.81c0-1.93-.65-3.22-2.3-3.22-.74,0-1.48.41-2.34,1.19v4.59c.79.67,1.57.92,2.14.92,1.44,0,2.5-1.31,2.5-3.48Z"/>
    <path class="cls-10" d="M153.98,44.32l.74-.99c.76.61,1.53,1.04,2.57,1.04,1.15,0,1.73-.61,1.73-1.37,0-.9-1.04-1.3-2-1.66-1.24-.45-2.56-1.04-2.56-2.52s1.12-2.48,3.02-2.48c1.08,0,2.03.45,2.72.99l-.72.94c-.59-.45-1.22-.77-2-.77-1.1,0-1.6.59-1.6,1.26,0,.83.9,1.13,1.89,1.51,1.26.47,2.67.99,2.67,2.65,0,1.42-1.13,2.61-3.21,2.61-1.24,0-2.43-.52-3.26-1.21Z"/>
    <path class="cls-10" d="M162.36,42.11v-5.55h1.49v5.35c0,1.64.49,2.34,1.64,2.34.9,0,1.53-.45,2.36-1.48v-6.21h1.48v8.75h-1.22l-.13-1.37h-.05c-.81.95-1.67,1.58-2.88,1.58-1.85,0-2.68-1.19-2.68-3.42Z"/>
    <path class="cls-10" d="M172.28,36.56h1.22l.13,1.26h.05c.76-.83,1.67-1.48,2.72-1.48,1.33,0,2.05.63,2.41,1.67.92-.99,1.82-1.67,2.88-1.67,1.8,0,2.67,1.19,2.67,3.42v5.55h-1.48v-5.35c0-1.64-.52-2.34-1.62-2.34-.68,0-1.39.45-2.2,1.35v6.34h-1.48v-5.35c0-1.64-.52-2.34-1.64-2.34-.65,0-1.39.45-2.2,1.35v6.34h-1.48v-8.75Z"/>
    <path class="cls-10" d="M190.57,33.79c0-.58.41-.97.99-.97s.99.4.99.97-.41.97-.99.97-.99-.38-.99-.97ZM190.8,36.56h1.48v8.75h-1.48v-8.75Z"/>
    <path class="cls-10" d="M194.26,44.32l.74-.99c.76.61,1.53,1.04,2.57,1.04,1.15,0,1.73-.61,1.73-1.37,0-.9-1.04-1.3-2-1.66-1.24-.45-2.56-1.04-2.56-2.52s1.12-2.48,3.02-2.48c1.08,0,2.03.45,2.72.99l-.72.94c-.59-.45-1.22-.77-2-.77-1.1,0-1.6.59-1.6,1.26,0,.83.9,1.13,1.89,1.51,1.26.47,2.66.99,2.66,2.65,0,1.42-1.13,2.61-3.21,2.61-1.24,0-2.43-.52-3.26-1.21Z"/>
    <path class="cls-10" d="M205.4,44.32l.74-.99c.76.61,1.53,1.04,2.57,1.04,1.15,0,1.73-.61,1.73-1.37,0-.9-1.04-1.3-2-1.66-1.24-.45-2.56-1.04-2.56-2.52s1.12-2.48,3.02-2.48c1.08,0,2.03.45,2.72.99l-.72.94c-.59-.45-1.22-.77-2-.77-1.1,0-1.6.59-1.6,1.26,0,.83.9,1.13,1.89,1.51,1.26.47,2.67.99,2.67,2.65,0,1.42-1.13,2.61-3.21,2.61-1.24,0-2.43-.52-3.26-1.21Z"/>
    <path class="cls-10" d="M213.68,33.79c0-.58.41-.97.99-.97s.99.4.99.97-.41.97-.99.97-.99-.38-.99-.97ZM213.92,36.56h1.48v8.75h-1.48v-8.75Z"/>
    <path class="cls-10" d="M218.34,36.56h1.22l.13,1.26h.05c.76-.83,1.67-1.48,2.72-1.48,1.33,0,2.05.63,2.41,1.67.92-.99,1.82-1.67,2.88-1.67,1.8,0,2.67,1.19,2.67,3.42v5.55h-1.48v-5.35c0-1.64-.52-2.34-1.62-2.34-.68,0-1.39.45-2.2,1.35v6.34h-1.48v-5.35c0-1.64-.52-2.34-1.64-2.34-.65,0-1.39.45-2.2,1.35v6.34h-1.48v-8.75Z"/>
    <path class="cls-10" d="M233.26,36.56h1.22l.13,1.01h.05c.79-.67,1.76-1.22,2.79-1.22,2.25,0,3.46,1.75,3.46,4.47,0,2.97-1.78,4.72-3.78,4.72-.81,0-1.62-.38-2.43-1.01l.04,1.53v2.95h-1.48v-12.44ZM239.39,40.81c0-1.93-.65-3.22-2.3-3.22-.74,0-1.48.41-2.34,1.19v4.59c.79.67,1.57.92,2.14.92,1.44,0,2.5-1.31,2.5-3.48Z"/>
    <path class="cls-10" d="M243.25,43.55v-11.06h1.48v11.16c0,.47.2.65.41.65.09,0,.16,0,.32-.04l.2,1.12c-.2.09-.45.14-.85.14-1.12,0-1.57-.7-1.57-1.98Z"/>
    <path class="cls-10" d="M246.96,48.89l.29-1.17c.18.05.45.13.67.13.99,0,1.62-.79,1.98-1.87l.2-.65-3.51-8.77h1.53l1.78,4.84c.27.76.58,1.66.85,2.47h.07c.25-.79.5-1.69.74-2.47l1.57-4.84h1.44l-3.29,9.47c-.61,1.73-1.51,3.04-3.28,3.04-.4,0-.74-.07-1.03-.18Z"/>
    <path class="cls-10" d="M259.22,40.95c0-2.84,1.8-4.61,3.8-4.61,1.01,0,1.67.38,2.45,1.01l-.07-1.49v-3.37h1.49v12.82h-1.22l-.13-1.03h-.05c-.68.67-1.62,1.24-2.65,1.24-2.2,0-3.62-1.66-3.62-4.57ZM265.4,43.08v-4.57c-.74-.67-1.4-.92-2.12-.92-1.4,0-2.52,1.35-2.52,3.35s.88,3.35,2.41,3.35c.81,0,1.51-.4,2.23-1.21Z"/>
    <path class="cls-10" d="M269.71,42.11v-5.55h1.49v5.35c0,1.64.49,2.34,1.64,2.34.9,0,1.53-.45,2.36-1.48v-6.21h1.48v8.75h-1.22l-.13-1.37h-.05c-.81.95-1.67,1.58-2.88,1.58-1.85,0-2.68-1.19-2.68-3.42Z"/>
    <path class="cls-10" d="M279.63,36.56h1.22l.13,1.26h.05c.76-.83,1.67-1.48,2.72-1.48,1.33,0,2.05.63,2.41,1.67.92-.99,1.82-1.67,2.88-1.67,1.8,0,2.67,1.19,2.67,3.42v5.55h-1.48v-5.35c0-1.64-.52-2.34-1.62-2.34-.68,0-1.39.45-2.2,1.35v6.34h-1.48v-5.35c0-1.64-.52-2.34-1.64-2.34-.65,0-1.39.45-2.2,1.35v6.34h-1.48v-8.75Z"/>
    <path class="cls-10" d="M294.55,36.56h1.22l.13,1.26h.05c.76-.83,1.67-1.48,2.72-1.48,1.33,0,2.05.63,2.41,1.67.92-.99,1.82-1.67,2.88-1.67,1.8,0,2.67,1.19,2.67,3.42v5.55h-1.48v-5.35c0-1.64-.52-2.34-1.62-2.34-.68,0-1.39.45-2.2,1.35v6.34h-1.48v-5.35c0-1.64-.52-2.34-1.64-2.34-.65,0-1.39.45-2.2,1.35v6.34h-1.48v-8.75Z"/>
    <path class="cls-10" d="M308.59,48.89l.29-1.17c.18.05.45.13.67.13.99,0,1.62-.79,1.98-1.87l.2-.65-3.51-8.77h1.53l1.78,4.84c.27.76.58,1.66.85,2.47h.07c.25-.79.5-1.69.74-2.47l1.57-4.84h1.44l-3.29,9.47c-.61,1.73-1.51,3.04-3.28,3.04-.4,0-.74-.07-1.03-.18Z"/>
    <path class="cls-10" d="M321.73,42.61v-4.84h-1.3v-1.12l1.37-.09.18-2.45h1.24v2.45h2.36v1.21h-2.36v4.86c0,1.08.34,1.69,1.35,1.69.31,0,.7-.13.99-.23l.29,1.12c-.49.16-1.08.32-1.62.32-1.87,0-2.5-1.19-2.5-2.92Z"/>
    <path class="cls-10" d="M326.67,40.95c0-2.86,1.93-4.61,3.93-4.61,2.23,0,3.49,1.6,3.49,4.11,0,.31-.02.63-.05.85h-5.91c.11,1.85,1.24,3.04,2.92,3.04.83,0,1.53-.27,2.18-.68l.52.97c-.76.49-1.69.9-2.88.9-2.34,0-4.2-1.71-4.2-4.57ZM332.79,40.23c0-1.76-.79-2.72-2.16-2.72-1.22,0-2.34.99-2.52,2.72h4.68Z"/>
    <path class="cls-10" d="M337.75,40.74l-2.65-4.18h1.6l1.17,1.93c.27.47.56.97.86,1.46h.07c.25-.49.52-.99.79-1.46l1.06-1.93h1.55l-2.65,4.34,2.85,4.41h-1.6l-1.28-2.03c-.31-.52-.63-1.06-.95-1.57h-.07c-.31.5-.59,1.03-.88,1.57l-1.19,2.03h-1.55l2.86-4.57Z"/>
    <path class="cls-10" d="M343.96,42.61v-4.84h-1.3v-1.12l1.37-.09.18-2.45h1.24v2.45h2.36v1.21h-2.36v4.86c0,1.08.34,1.69,1.35,1.69.31,0,.7-.13.99-.23l.29,1.12c-.49.16-1.08.32-1.62.32-1.87,0-2.5-1.19-2.5-2.92Z"/>
    <path class="cls-10" d="M352.75,40.95c0-2.94,1.91-4.61,4.05-4.61s4.05,1.67,4.05,4.61-1.91,4.57-4.05,4.57-4.05-1.67-4.05-4.57ZM359.32,40.95c0-2.02-1.01-3.38-2.52-3.38s-2.52,1.37-2.52,3.38,1.03,3.35,2.52,3.35,2.52-1.35,2.52-3.35Z"/>
    <path class="cls-10" d="M363.4,37.77h-1.19v-1.12l1.19-.09v-1.39c0-1.78.81-2.9,2.56-2.9.54,0,1.06.13,1.46.29l-.32,1.13c-.32-.14-.67-.22-.99-.22-.83,0-1.22.58-1.22,1.69v1.39h1.85v1.21h-1.85v7.54h-1.48v-7.54Z"/>
    <path class="cls-10" d="M372.26,42.61v-4.84h-1.3v-1.12l1.37-.09.18-2.45h1.24v2.45h2.36v1.21h-2.36v4.86c0,1.08.34,1.69,1.35,1.69.31,0,.7-.13.99-.23l.29,1.12c-.49.16-1.08.32-1.62.32-1.87,0-2.5-1.19-2.5-2.92Z"/>
    <path class="cls-10" d="M378.09,32.49h1.48v3.49l-.05,1.8c.83-.79,1.71-1.44,2.92-1.44,1.84,0,2.66,1.19,2.66,3.42v5.55h-1.48v-5.35c0-1.64-.5-2.34-1.66-2.34-.9,0-1.51.47-2.39,1.35v6.34h-1.48v-12.82Z"/>
    <path class="cls-10" d="M387.24,40.95c0-2.86,1.93-4.61,3.93-4.61,2.23,0,3.49,1.6,3.49,4.11,0,.31-.02.63-.05.85h-5.91c.11,1.85,1.24,3.04,2.92,3.04.83,0,1.53-.27,2.18-.68l.52.97c-.76.49-1.69.9-2.88.9-2.34,0-4.2-1.71-4.2-4.57ZM393.36,40.23c0-1.76-.79-2.72-2.16-2.72-1.22,0-2.34.99-2.52,2.72h4.68Z"/>
    <path class="cls-10" d="M400.41,36.56h1.22l.13,1.01h.05c.79-.67,1.76-1.22,2.79-1.22,2.25,0,3.46,1.75,3.46,4.47,0,2.97-1.78,4.72-3.78,4.72-.81,0-1.62-.38-2.43-1.01l.04,1.53v2.95h-1.48v-12.44ZM406.53,40.81c0-1.93-.65-3.22-2.3-3.22-.74,0-1.48.41-2.34,1.19v4.59c.79.67,1.57.92,2.14.92,1.44,0,2.5-1.31,2.5-3.48Z"/>
    <path class="cls-10" d="M410.4,36.56h1.22l.13,1.58h.05c.59-1.1,1.49-1.8,2.48-1.8.38,0,.65.05.94.18l-.29,1.3c-.29-.09-.49-.14-.85-.14-.74,0-1.62.54-2.21,2.02v5.62h-1.48v-8.75Z"/>
    <path class="cls-10" d="M416.41,33.79c0-.58.41-.97.99-.97s.99.4.99.97-.41.97-.99.97-.99-.38-.99-.97ZM416.65,36.56h1.48v8.75h-1.48v-8.75Z"/>
    <path class="cls-10" d="M421.07,36.56h1.22l.13,1.26h.05c.83-.83,1.73-1.48,2.94-1.48,1.84,0,2.66,1.19,2.66,3.42v5.55h-1.48v-5.35c0-1.64-.5-2.34-1.66-2.34-.9,0-1.51.47-2.4,1.35v6.34h-1.48v-8.75Z"/>
    <path class="cls-10" d="M431.17,42.61v-4.84h-1.3v-1.12l1.37-.09.18-2.45h1.24v2.45h2.36v1.21h-2.36v4.86c0,1.08.34,1.69,1.35,1.69.31,0,.7-.13.99-.23l.29,1.12c-.49.16-1.08.32-1.62.32-1.87,0-2.5-1.19-2.5-2.92Z"/>
    <path class="cls-10" d="M436.77,33.79c0-.58.41-.97.99-.97s.99.4.99.97-.41.97-.99.97-.99-.38-.99-.97ZM437,36.56h1.48v8.75h-1.48v-8.75Z"/>
    <path class="cls-10" d="M441.43,36.56h1.22l.13,1.26h.05c.83-.83,1.73-1.48,2.93-1.48,1.84,0,2.67,1.19,2.67,3.42v5.55h-1.48v-5.35c0-1.64-.5-2.34-1.66-2.34-.9,0-1.51.47-2.39,1.35v6.34h-1.48v-8.75Z"/>
    <path class="cls-10" d="M450.61,46.99c0-.74.49-1.44,1.28-1.98v-.07c-.43-.27-.77-.74-.77-1.42,0-.74.5-1.31.95-1.62v-.07c-.58-.47-1.13-1.31-1.13-2.36,0-1.91,1.51-3.11,3.29-3.11.49,0,.92.09,1.24.22h3.04v1.13h-1.8c.41.4.72,1.06.72,1.8,0,1.87-1.42,3.04-3.21,3.04-.43,0-.92-.11-1.31-.31-.31.27-.56.56-.56,1.04,0,.56.36.95,1.55.95h1.69c2.03,0,3.06.63,3.06,2.09,0,1.62-1.71,3.02-4.43,3.02-2.14,0-3.62-.85-3.62-2.36ZM457.22,46.54c0-.81-.63-1.08-1.76-1.08h-1.51c-.34,0-.76-.04-1.13-.14-.63.45-.9.97-.9,1.48,0,.94.95,1.53,2.54,1.53,1.67,0,2.77-.86,2.77-1.78ZM456.09,39.46c0-1.28-.83-2.03-1.85-2.03s-1.85.76-1.85,2.03.85,2.09,1.85,2.09,1.85-.81,1.85-2.09Z"/>
    <path class="cls-10" d="M463.41,43.04c0-1.91,1.64-2.86,5.37-3.28,0-1.12-.36-2.2-1.8-2.2-1.01,0-1.93.47-2.61.94l-.58-1.03c.81-.52,2.03-1.13,3.44-1.13,2.14,0,3.04,1.42,3.04,3.6v5.37h-1.22l-.13-1.04h-.05c-.83.68-1.8,1.26-2.9,1.26-1.46,0-2.56-.92-2.56-2.48ZM468.78,43.17v-2.43c-2.92.36-3.92,1.08-3.92,2.2,0,.99.68,1.4,1.55,1.4s1.53-.41,2.38-1.17Z"/>
    <path class="cls-10" d="M473.02,36.56h1.22l.13,1.26h.05c.83-.83,1.73-1.48,2.94-1.48,1.84,0,2.67,1.19,2.67,3.42v5.55h-1.48v-5.35c0-1.64-.5-2.34-1.66-2.34-.9,0-1.51.47-2.39,1.35v6.34h-1.48v-8.75Z"/>
    <path class="cls-10" d="M482.24,40.95c0-2.84,1.8-4.61,3.8-4.61,1.01,0,1.67.38,2.45,1.01l-.07-1.49v-3.37h1.49v12.82h-1.22l-.13-1.03h-.05c-.68.67-1.62,1.24-2.65,1.24-2.2,0-3.62-1.66-3.62-4.57ZM488.41,43.08v-4.57c-.74-.67-1.4-.92-2.12-.92-1.4,0-2.52,1.35-2.52,3.35s.88,3.35,2.41,3.35c.81,0,1.51-.4,2.23-1.21Z"/>
    <path class="cls-10" d="M495.92,43.04c0-1.91,1.64-2.86,5.37-3.28,0-1.12-.36-2.2-1.8-2.2-1.01,0-1.93.47-2.61.94l-.58-1.03c.81-.52,2.03-1.13,3.44-1.13,2.14,0,3.04,1.42,3.04,3.6v5.37h-1.22l-.13-1.04h-.05c-.83.68-1.8,1.26-2.9,1.26-1.46,0-2.56-.92-2.56-2.48ZM501.28,43.17v-2.43c-2.92.36-3.93,1.08-3.93,2.2,0,.99.68,1.4,1.55,1.4s1.53-.41,2.38-1.17Z"/>
    <path class="cls-10" d="M505.53,36.56h1.22l.13,1.01h.05c.79-.67,1.76-1.22,2.79-1.22,2.25,0,3.46,1.75,3.46,4.47,0,2.97-1.78,4.72-3.78,4.72-.81,0-1.62-.38-2.43-1.01l.04,1.53v2.95h-1.48v-12.44ZM511.65,40.81c0-1.93-.65-3.22-2.3-3.22-.74,0-1.48.41-2.34,1.19v4.59c.79.67,1.57.92,2.14.92,1.44,0,2.5-1.31,2.5-3.48Z"/>
    <path class="cls-10" d="M515.52,36.56h1.22l.13,1.01h.05c.79-.67,1.76-1.22,2.79-1.22,2.25,0,3.46,1.75,3.46,4.47,0,2.97-1.78,4.72-3.78,4.72-.81,0-1.62-.38-2.43-1.01l.04,1.53v2.95h-1.48v-12.44ZM521.64,40.81c0-1.93-.65-3.22-2.3-3.22-.74,0-1.48.41-2.34,1.19v4.59c.79.67,1.57.92,2.14.92,1.44,0,2.5-1.31,2.5-3.48Z"/>
    <path class="cls-10" d="M525.51,43.55v-11.06h1.48v11.16c0,.47.2.65.41.65.09,0,.16,0,.32-.04l.2,1.12c-.2.09-.45.14-.85.14-1.12,0-1.57-.7-1.57-1.98Z"/>
    <path class="cls-10" d="M88.67,67.61v-4.84h-1.3v-1.12l1.37-.09.18-2.45h1.24v2.45h2.36v1.21h-2.36v4.86c0,1.08.34,1.69,1.35,1.69.31,0,.7-.13.99-.23l.29,1.12c-.49.16-1.08.32-1.62.32-1.87,0-2.5-1.19-2.5-2.92Z"/>
    <path class="cls-10" d="M93.62,73.89l.29-1.17c.18.05.45.13.67.13.99,0,1.62-.79,1.98-1.87l.2-.65-3.51-8.77h1.53l1.78,4.84c.27.76.58,1.66.85,2.47h.07c.25-.79.5-1.69.74-2.47l1.57-4.84h1.44l-3.29,9.47c-.61,1.73-1.51,3.04-3.28,3.04-.4,0-.74-.07-1.03-.18Z"/>
    <path class="cls-10" d="M102.91,61.56h1.22l.13,1.01h.05c.79-.67,1.76-1.22,2.79-1.22,2.25,0,3.46,1.75,3.46,4.47,0,2.97-1.78,4.72-3.78,4.72-.81,0-1.62-.38-2.43-1.01l.04,1.53v2.95h-1.48v-12.44ZM109.03,65.81c0-1.93-.65-3.22-2.3-3.22-.74,0-1.48.41-2.34,1.19v4.59c.79.67,1.57.92,2.14.92,1.44,0,2.5-1.31,2.5-3.48Z"/>
    <path class="cls-10" d="M112.25,65.95c0-2.86,1.93-4.61,3.92-4.61,2.23,0,3.49,1.6,3.49,4.11,0,.31-.02.63-.05.85h-5.91c.11,1.85,1.24,3.04,2.92,3.04.83,0,1.53-.27,2.18-.68l.52.97c-.76.49-1.69.9-2.88.9-2.34,0-4.2-1.71-4.2-4.57ZM118.37,65.23c0-1.76-.79-2.72-2.16-2.72-1.22,0-2.34.99-2.52,2.72h4.68Z"/>
    <path class="cls-10" d="M120.86,69.32l.74-.99c.76.61,1.53,1.04,2.57,1.04,1.15,0,1.73-.61,1.73-1.37,0-.9-1.04-1.3-2-1.66-1.24-.45-2.56-1.04-2.56-2.52s1.12-2.48,3.02-2.48c1.08,0,2.03.45,2.72.99l-.72.94c-.59-.45-1.22-.77-2-.77-1.1,0-1.6.59-1.6,1.26,0,.83.9,1.13,1.89,1.51,1.26.47,2.66.99,2.66,2.65,0,1.42-1.13,2.61-3.21,2.61-1.24,0-2.43-.52-3.26-1.21Z"/>
    <path class="cls-10" d="M128.72,65.95c0-2.86,1.93-4.61,3.92-4.61,2.23,0,3.49,1.6,3.49,4.11,0,.31-.02.63-.05.85h-5.91c.11,1.85,1.24,3.04,2.92,3.04.83,0,1.53-.27,2.18-.68l.52.97c-.76.49-1.69.9-2.88.9-2.34,0-4.19-1.71-4.19-4.57ZM134.84,65.23c0-1.76-.79-2.72-2.16-2.72-1.22,0-2.34.99-2.52,2.72h4.68Z"/>
    <path class="cls-10" d="M138.37,67.61v-4.84h-1.3v-1.12l1.37-.09.18-2.45h1.24v2.45h2.36v1.21h-2.36v4.86c0,1.08.34,1.69,1.35,1.69.31,0,.7-.13.99-.23l.29,1.12c-.49.16-1.08.32-1.62.32-1.87,0-2.5-1.19-2.5-2.92Z"/>
    <path class="cls-10" d="M144.09,67.61v-4.84h-1.3v-1.12l1.37-.09.18-2.45h1.24v2.45h2.36v1.21h-2.36v4.86c0,1.08.34,1.69,1.35,1.69.31,0,.7-.13.99-.23l.29,1.12c-.49.16-1.08.32-1.62.32-1.87,0-2.5-1.19-2.5-2.92Z"/>
    <path class="cls-10" d="M149.69,58.79c0-.58.41-.97.99-.97s.99.4.99.97-.41.97-.99.97-.99-.38-.99-.97ZM149.93,61.56h1.48v8.75h-1.48v-8.75Z"/>
    <path class="cls-10" d="M154.35,61.56h1.22l.13,1.26h.05c.83-.83,1.73-1.48,2.94-1.48,1.84,0,2.66,1.19,2.66,3.42v5.55h-1.48v-5.35c0-1.64-.5-2.34-1.66-2.34-.9,0-1.51.47-2.39,1.35v6.34h-1.48v-8.75Z"/>
    <path class="cls-10" d="M163.53,71.99c0-.74.49-1.44,1.28-1.98v-.07c-.43-.27-.77-.74-.77-1.42,0-.74.5-1.31.95-1.62v-.07c-.58-.47-1.13-1.31-1.13-2.36,0-1.91,1.51-3.11,3.29-3.11.49,0,.92.09,1.24.22h3.04v1.13h-1.8c.41.4.72,1.06.72,1.8,0,1.87-1.42,3.04-3.21,3.04-.43,0-.92-.11-1.31-.31-.31.27-.56.56-.56,1.04,0,.56.36.95,1.55.95h1.69c2.03,0,3.06.63,3.06,2.09,0,1.62-1.71,3.02-4.43,3.02-2.14,0-3.62-.85-3.62-2.36ZM170.14,71.54c0-.81-.63-1.08-1.76-1.08h-1.51c-.34,0-.76-.04-1.13-.14-.63.45-.9.97-.9,1.48,0,.94.95,1.53,2.54,1.53,1.67,0,2.77-.86,2.77-1.78ZM169.01,64.46c0-1.28-.83-2.03-1.85-2.03s-1.85.76-1.85,2.03.85,2.09,1.85,2.09,1.85-.81,1.85-2.09Z"/>
    <path class="cls-10" d="M176.64,58.79c0-.58.41-.97.99-.97s.99.4.99.97-.41.97-.99.97-.99-.38-.99-.97ZM176.87,61.56h1.48v8.75h-1.48v-8.75Z"/>
    <path class="cls-10" d="M181.3,61.56h1.22l.13,1.26h.05c.83-.83,1.73-1.48,2.94-1.48,1.84,0,2.67,1.19,2.67,3.42v5.55h-1.48v-5.35c0-1.64-.5-2.34-1.66-2.34-.9,0-1.51.47-2.39,1.35v6.34h-1.48v-8.75Z"/>
    <path class="cls-10" d="M190.52,65.95c0-2.84,1.8-4.61,3.8-4.61,1.01,0,1.67.38,2.45,1.01l-.07-1.49v-3.37h1.49v12.82h-1.22l-.13-1.03h-.05c-.68.67-1.62,1.24-2.65,1.24-2.2,0-3.62-1.66-3.62-4.57ZM196.69,68.08v-4.57c-.74-.67-1.4-.92-2.12-.92-1.4,0-2.52,1.35-2.52,3.35s.88,3.35,2.41,3.35c.81,0,1.51-.4,2.23-1.21Z"/>
    <path class="cls-10" d="M201.01,67.11v-5.55h1.49v5.35c0,1.64.49,2.34,1.64,2.34.9,0,1.53-.45,2.36-1.48v-6.21h1.48v8.75h-1.22l-.13-1.37h-.05c-.81.95-1.67,1.58-2.88,1.58-1.85,0-2.68-1.19-2.68-3.42Z"/>
    <path class="cls-10" d="M209.96,69.32l.74-.99c.76.61,1.53,1.04,2.58,1.04,1.15,0,1.73-.61,1.73-1.37,0-.9-1.04-1.3-2-1.66-1.24-.45-2.56-1.04-2.56-2.52s1.12-2.48,3.02-2.48c1.08,0,2.03.45,2.72.99l-.72.94c-.59-.45-1.22-.77-2-.77-1.1,0-1.6.59-1.6,1.26,0,.83.9,1.13,1.89,1.51,1.26.47,2.67.99,2.67,2.65,0,1.42-1.13,2.61-3.21,2.61-1.24,0-2.43-.52-3.26-1.21Z"/>
    <path class="cls-10" d="M218.36,67.61v-4.84h-1.3v-1.12l1.37-.09.18-2.45h1.24v2.45h2.36v1.21h-2.36v4.86c0,1.08.34,1.69,1.35,1.69.31,0,.7-.13.99-.23l.29,1.12c-.49.16-1.08.32-1.62.32-1.87,0-2.5-1.19-2.5-2.92Z"/>
    <path class="cls-10" d="M224.01,69.41c0-.68.49-1.15,1.08-1.15s1.06.47,1.06,1.15c0,.65-.49,1.12-1.06,1.12s-1.08-.47-1.08-1.12Z"/>
    <path class="cls-10" d="M232.55,58.5h1.49v10.53h5.17v1.28h-6.66v-11.81Z"/>
    <path class="cls-10" d="M240.29,65.95c0-2.94,1.91-4.61,4.05-4.61s4.05,1.67,4.05,4.61-1.91,4.57-4.05,4.57-4.05-1.67-4.05-4.57ZM246.86,65.95c0-2.02-1.01-3.38-2.52-3.38s-2.52,1.37-2.52,3.38,1.03,3.35,2.52,3.35,2.52-1.35,2.52-3.35Z"/>
    <path class="cls-10" d="M250.69,61.56h1.22l.13,1.58h.05c.59-1.1,1.49-1.8,2.48-1.8.38,0,.65.05.94.18l-.29,1.3c-.29-.09-.49-.14-.85-.14-.74,0-1.62.54-2.21,2.02v5.62h-1.48v-8.75Z"/>
    <path class="cls-10" d="M256.11,65.95c0-2.86,1.93-4.61,3.93-4.61,2.23,0,3.49,1.6,3.49,4.11,0,.31-.02.63-.05.85h-5.91c.11,1.85,1.24,3.04,2.92,3.04.83,0,1.53-.27,2.18-.68l.52.97c-.76.49-1.69.9-2.88.9-2.34,0-4.2-1.71-4.2-4.57ZM262.23,65.23c0-1.76-.79-2.72-2.16-2.72-1.22,0-2.34.99-2.52,2.72h4.68Z"/>
    <path class="cls-10" d="M265.68,61.56h1.22l.13,1.26h.05c.76-.83,1.67-1.48,2.72-1.48,1.33,0,2.05.63,2.41,1.67.92-.99,1.82-1.67,2.88-1.67,1.8,0,2.66,1.19,2.66,3.42v5.55h-1.48v-5.35c0-1.64-.52-2.34-1.62-2.34-.68,0-1.39.45-2.2,1.35v6.34h-1.48v-5.35c0-1.64-.52-2.34-1.64-2.34-.65,0-1.39.45-2.2,1.35v6.34h-1.48v-8.75Z"/>
    <path class="cls-10" d="M284.35,58.5h1.49v11.81h-1.49v-11.81Z"/>
    <path class="cls-10" d="M288.94,61.56h1.22l.13,1.01h.05c.79-.67,1.76-1.22,2.79-1.22,2.25,0,3.46,1.75,3.46,4.47,0,2.97-1.78,4.72-3.78,4.72-.81,0-1.62-.38-2.43-1.01l.04,1.53v2.95h-1.48v-12.44ZM295.06,65.81c0-1.93-.65-3.22-2.3-3.22-.74,0-1.48.41-2.34,1.19v4.59c.79.67,1.57.92,2.14.92,1.44,0,2.5-1.31,2.5-3.48Z"/>
    <path class="cls-10" d="M297.96,69.32l.74-.99c.76.61,1.53,1.04,2.57,1.04,1.15,0,1.73-.61,1.73-1.37,0-.9-1.04-1.3-2-1.66-1.24-.45-2.56-1.04-2.56-2.52s1.12-2.48,3.02-2.48c1.08,0,2.03.45,2.72.99l-.72.94c-.59-.45-1.22-.77-2-.77-1.1,0-1.6.59-1.6,1.26,0,.83.9,1.13,1.89,1.51,1.26.47,2.67.99,2.67,2.65,0,1.42-1.13,2.61-3.21,2.61-1.24,0-2.43-.52-3.26-1.21Z"/>
    <path class="cls-10" d="M306.34,67.11v-5.55h1.49v5.35c0,1.64.49,2.34,1.64,2.34.9,0,1.53-.45,2.36-1.48v-6.21h1.48v8.75h-1.22l-.13-1.37h-.05c-.81.95-1.67,1.58-2.88,1.58-1.85,0-2.68-1.19-2.68-3.42Z"/>
    <path class="cls-10" d="M316.26,61.56h1.22l.13,1.26h.05c.76-.83,1.67-1.48,2.72-1.48,1.33,0,2.05.63,2.41,1.67.92-.99,1.82-1.67,2.88-1.67,1.8,0,2.67,1.19,2.67,3.42v5.55h-1.48v-5.35c0-1.64-.52-2.34-1.62-2.34-.68,0-1.39.45-2.2,1.35v6.34h-1.48v-5.35c0-1.64-.52-2.34-1.64-2.34-.65,0-1.39.45-2.2,1.35v6.34h-1.48v-8.75Z"/>
    <path class="cls-10" d="M334.78,57.49h1.48v3.49l-.05,1.8c.83-.79,1.71-1.44,2.92-1.44,1.84,0,2.67,1.19,2.67,3.42v5.55h-1.48v-5.35c0-1.64-.5-2.34-1.66-2.34-.9,0-1.51.47-2.39,1.35v6.34h-1.48v-12.82Z"/>
    <path class="cls-10" d="M344.04,68.04c0-1.91,1.64-2.86,5.37-3.28,0-1.12-.36-2.2-1.8-2.2-1.01,0-1.93.47-2.61.94l-.58-1.03c.81-.52,2.03-1.13,3.44-1.13,2.14,0,3.04,1.42,3.04,3.6v5.37h-1.22l-.13-1.04h-.05c-.83.68-1.8,1.26-2.9,1.26-1.46,0-2.56-.92-2.56-2.48ZM349.4,68.17v-2.43c-2.92.36-3.92,1.08-3.92,2.2,0,.99.68,1.4,1.55,1.4s1.53-.41,2.38-1.17Z"/>
    <path class="cls-10" d="M352.68,69.32l.74-.99c.76.61,1.53,1.04,2.57,1.04,1.15,0,1.73-.61,1.73-1.37,0-.9-1.04-1.3-2-1.66-1.24-.45-2.56-1.04-2.56-2.52s1.12-2.48,3.02-2.48c1.08,0,2.03.45,2.72.99l-.72.94c-.59-.45-1.22-.77-2-.77-1.1,0-1.6.59-1.6,1.26,0,.83.9,1.13,1.89,1.51,1.26.47,2.66.99,2.66,2.65,0,1.42-1.13,2.61-3.21,2.61-1.24,0-2.43-.52-3.26-1.21Z"/>
    <path class="cls-10" d="M366.16,69.41h-.05l-.13.9h-1.19v-12.82h1.48v3.49l-.04,1.58c.79-.7,1.76-1.22,2.74-1.22,2.27,0,3.47,1.75,3.47,4.45,0,2.99-1.78,4.74-3.78,4.74-.81,0-1.73-.41-2.5-1.12ZM370.91,65.81c0-1.93-.65-3.22-2.3-3.22-.74,0-1.51.41-2.34,1.19v4.59c.77.67,1.57.92,2.14.92,1.44,0,2.5-1.31,2.5-3.48Z"/>
    <path class="cls-10" d="M374.1,65.95c0-2.86,1.93-4.61,3.92-4.61,2.23,0,3.49,1.6,3.49,4.11,0,.31-.02.63-.05.85h-5.91c.11,1.85,1.24,3.04,2.92,3.04.83,0,1.53-.27,2.18-.68l.52.97c-.76.49-1.69.9-2.88.9-2.34,0-4.19-1.71-4.19-4.57ZM380.22,65.23c0-1.76-.79-2.72-2.16-2.72-1.22,0-2.34.99-2.52,2.72h4.68Z"/>
    <path class="cls-10" d="M383.02,65.95c0-2.86,1.93-4.61,3.92-4.61,2.23,0,3.49,1.6,3.49,4.11,0,.31-.02.63-.05.85h-5.91c.11,1.85,1.24,3.04,2.92,3.04.83,0,1.53-.27,2.18-.68l.52.97c-.76.49-1.69.9-2.88.9-2.34,0-4.19-1.71-4.19-4.57ZM389.14,65.23c0-1.76-.79-2.72-2.16-2.72-1.22,0-2.34.99-2.52,2.72h4.68Z"/>
    <path class="cls-10" d="M392.6,61.56h1.22l.13,1.26h.05c.83-.83,1.73-1.48,2.94-1.48,1.84,0,2.66,1.19,2.66,3.42v5.55h-1.48v-5.35c0-1.64-.5-2.34-1.66-2.34-.9,0-1.51.47-2.39,1.35v6.34h-1.48v-8.75Z"/>
    <path class="cls-10" d="M406.3,67.61v-4.84h-1.3v-1.12l1.37-.09.18-2.45h1.24v2.45h2.36v1.21h-2.36v4.86c0,1.08.34,1.69,1.35,1.69.31,0,.7-.13.99-.23l.29,1.12c-.49.16-1.08.32-1.62.32-1.87,0-2.5-1.19-2.5-2.92Z"/>
    <path class="cls-10" d="M412.13,57.49h1.48v3.49l-.05,1.8c.83-.79,1.71-1.44,2.92-1.44,1.84,0,2.67,1.19,2.67,3.42v5.55h-1.48v-5.35c0-1.64-.5-2.34-1.66-2.34-.9,0-1.51.47-2.4,1.35v6.34h-1.48v-12.82Z"/>
    <path class="cls-10" d="M421.27,65.95c0-2.86,1.93-4.61,3.92-4.61,2.23,0,3.49,1.6,3.49,4.11,0,.31-.02.63-.05.85h-5.91c.11,1.85,1.24,3.04,2.92,3.04.83,0,1.53-.27,2.18-.68l.52.97c-.76.49-1.69.9-2.88.9-2.34,0-4.2-1.71-4.2-4.57ZM427.39,65.23c0-1.76-.79-2.72-2.16-2.72-1.22,0-2.34.99-2.52,2.72h4.68Z"/>
    <path class="cls-10" d="M434.21,58.79c0-.58.41-.97.99-.97s.99.4.99.97-.41.97-.99.97-.99-.38-.99-.97ZM434.45,61.56h1.48v8.75h-1.48v-8.75Z"/>
    <path class="cls-10" d="M438.88,61.56h1.22l.13,1.26h.05c.83-.83,1.73-1.48,2.94-1.48,1.84,0,2.66,1.19,2.66,3.42v5.55h-1.48v-5.35c0-1.64-.5-2.34-1.66-2.34-.9,0-1.51.47-2.39,1.35v6.34h-1.48v-8.75Z"/>
    <path class="cls-10" d="M448.06,71.99c0-.74.49-1.44,1.28-1.98v-.07c-.43-.27-.77-.74-.77-1.42,0-.74.5-1.31.95-1.62v-.07c-.58-.47-1.13-1.31-1.13-2.36,0-1.91,1.51-3.11,3.29-3.11.49,0,.92.09,1.24.22h3.04v1.13h-1.8c.41.4.72,1.06.72,1.8,0,1.87-1.42,3.04-3.21,3.04-.43,0-.92-.11-1.31-.31-.31.27-.56.56-.56,1.04,0,.56.36.95,1.55.95h1.69c2.03,0,3.06.63,3.06,2.09,0,1.62-1.71,3.02-4.43,3.02-2.14,0-3.62-.85-3.62-2.36ZM454.66,71.54c0-.81-.63-1.08-1.76-1.08h-1.51c-.34,0-.76-.04-1.13-.14-.63.45-.9.97-.9,1.48,0,.94.95,1.53,2.54,1.53,1.67,0,2.77-.86,2.77-1.78ZM453.53,64.46c0-1.28-.83-2.03-1.85-2.03s-1.85.76-1.85,2.03.85,2.09,1.85,2.09,1.85-.81,1.85-2.09Z"/>
    <path class="cls-10" d="M457.67,67.11v-5.55h1.49v5.35c0,1.64.49,2.34,1.64,2.34.9,0,1.53-.45,2.36-1.48v-6.21h1.48v8.75h-1.22l-.13-1.37h-.05c-.81.95-1.67,1.58-2.88,1.58-1.85,0-2.68-1.19-2.68-3.42Z"/>
    <path class="cls-10" d="M466.61,69.32l.74-.99c.76.61,1.53,1.04,2.57,1.04,1.15,0,1.73-.61,1.73-1.37,0-.9-1.04-1.3-2-1.66-1.24-.45-2.56-1.04-2.56-2.52s1.12-2.48,3.02-2.48c1.08,0,2.03.45,2.72.99l-.72.94c-.59-.45-1.22-.77-2-.77-1.1,0-1.6.59-1.6,1.26,0,.83.9,1.13,1.89,1.51,1.26.47,2.66.99,2.66,2.65,0,1.42-1.13,2.61-3.21,2.61-1.24,0-2.43-.52-3.26-1.21Z"/>
    <path class="cls-10" d="M475.02,67.61v-4.84h-1.3v-1.12l1.37-.09.18-2.45h1.24v2.45h2.36v1.21h-2.36v4.86c0,1.08.34,1.69,1.35,1.69.31,0,.7-.13.99-.23l.29,1.12c-.49.16-1.08.32-1.62.32-1.87,0-2.5-1.19-2.5-2.92Z"/>
    <path class="cls-10" d="M480.85,61.56h1.22l.13,1.58h.05c.59-1.1,1.49-1.8,2.48-1.8.38,0,.65.05.94.18l-.29,1.3c-.29-.09-.49-.14-.85-.14-.74,0-1.62.54-2.21,2.02v5.62h-1.48v-8.75Z"/>
    <path class="cls-10" d="M486.67,73.89l.29-1.17c.18.05.45.13.67.13.99,0,1.62-.79,1.98-1.87l.2-.65-3.51-8.77h1.53l1.78,4.84c.27.76.58,1.66.85,2.47h.07c.25-.79.5-1.69.74-2.47l1.57-4.84h1.44l-3.29,9.47c-.61,1.73-1.51,3.04-3.28,3.04-.4,0-.74-.07-1.03-.18Z"/>
    <path class="cls-10" d="M495.97,59.54l-.05-1.66h1.58l-.05,1.66-.29,3.01h-.9l-.29-3.01Z"/>
    <path class="cls-10" d="M499.1,69.32l.74-.99c.76.61,1.53,1.04,2.57,1.04,1.15,0,1.73-.61,1.73-1.37,0-.9-1.04-1.3-2-1.66-1.24-.45-2.56-1.04-2.56-2.52s1.12-2.48,3.03-2.48c1.08,0,2.03.45,2.72.99l-.72.94c-.59-.45-1.22-.77-2-.77-1.1,0-1.6.59-1.6,1.26,0,.83.9,1.13,1.89,1.51,1.26.47,2.66.99,2.66,2.65,0,1.42-1.13,2.61-3.21,2.61-1.24,0-2.43-.52-3.26-1.21Z"/>
  </g>
  <circle class="cls-6" cx="51.94" cy="52.64" r="10"/>
  <rect class="cls-7" x="15.87" y="162.64" width="539.69" height="73" rx="6" ry="6"/>
  <g>
    <rect class="cls-11" x="86.94" y="178.5" width="473.06" height="52.14"/>
    <path d="M88.57,179.5h1.49v10.53h5.17v1.28h-6.66v-11.81Z"/>
    <path d="M96.31,186.95c0-2.94,1.91-4.61,4.05-4.61s4.05,1.67,4.05,4.61-1.91,4.57-4.05,4.57-4.05-1.67-4.05-4.57ZM102.88,186.95c0-2.02-1.01-3.38-2.52-3.38s-2.52,1.37-2.52,3.38,1.03,3.35,2.52,3.35,2.52-1.35,2.52-3.35Z"/>
    <path d="M106.71,182.56h1.22l.13,1.58h.05c.59-1.1,1.49-1.8,2.48-1.8.38,0,.65.05.94.18l-.29,1.3c-.29-.09-.49-.14-.85-.14-.74,0-1.62.54-2.21,2.02v5.62h-1.48v-8.75Z"/>
    <path d="M112.13,186.95c0-2.86,1.93-4.61,3.92-4.61,2.23,0,3.49,1.6,3.49,4.11,0,.31-.02.63-.05.85h-5.91c.11,1.85,1.24,3.04,2.92,3.04.83,0,1.53-.27,2.18-.68l.52.97c-.76.49-1.69.9-2.88.9-2.34,0-4.19-1.71-4.19-4.57ZM118.25,186.23c0-1.76-.79-2.72-2.16-2.72-1.22,0-2.34.99-2.52,2.72h4.68Z"/>
    <path d="M121.7,182.56h1.22l.13,1.26h.05c.76-.83,1.67-1.48,2.72-1.48,1.33,0,2.05.63,2.41,1.67.92-.99,1.82-1.67,2.88-1.67,1.8,0,2.66,1.19,2.66,3.42v5.55h-1.48v-5.35c0-1.64-.52-2.34-1.62-2.34-.68,0-1.39.45-2.2,1.35v6.34h-1.48v-5.35c0-1.64-.52-2.34-1.64-2.34-.65,0-1.39.45-2.2,1.35v6.34h-1.48v-8.75Z"/>
    <path d="M140.37,179.5h1.49v11.81h-1.49v-11.81Z"/>
    <path d="M144.96,182.56h1.22l.13,1.01h.05c.79-.67,1.76-1.22,2.79-1.22,2.25,0,3.46,1.75,3.46,4.47,0,2.97-1.78,4.72-3.78,4.72-.81,0-1.62-.38-2.43-1.01l.04,1.53v2.95h-1.48v-12.44ZM151.08,186.81c0-1.93-.65-3.22-2.3-3.22-.74,0-1.48.41-2.34,1.19v4.59c.79.67,1.57.92,2.14.92,1.44,0,2.5-1.31,2.5-3.48Z"/>
    <path d="M153.98,190.32l.74-.99c.76.61,1.53,1.04,2.57,1.04,1.15,0,1.73-.61,1.73-1.37,0-.9-1.04-1.3-2-1.66-1.24-.45-2.56-1.04-2.56-2.52s1.12-2.48,3.02-2.48c1.08,0,2.03.45,2.72.99l-.72.94c-.59-.45-1.22-.77-2-.77-1.1,0-1.6.59-1.6,1.26,0,.83.9,1.13,1.89,1.51,1.26.47,2.67.99,2.67,2.65,0,1.42-1.13,2.61-3.21,2.61-1.24,0-2.43-.52-3.26-1.21Z"/>
    <path d="M162.36,188.11v-5.55h1.49v5.35c0,1.64.49,2.34,1.64,2.34.9,0,1.53-.45,2.36-1.48v-6.21h1.48v8.75h-1.22l-.13-1.37h-.05c-.81.95-1.67,1.58-2.88,1.58-1.85,0-2.68-1.19-2.68-3.42Z"/>
    <path d="M172.28,182.56h1.22l.13,1.26h.05c.76-.83,1.67-1.48,2.72-1.48,1.33,0,2.05.63,2.41,1.67.92-.99,1.82-1.67,2.88-1.67,1.8,0,2.67,1.19,2.67,3.42v5.55h-1.48v-5.35c0-1.64-.52-2.34-1.62-2.34-.68,0-1.39.45-2.2,1.35v6.34h-1.48v-5.35c0-1.64-.52-2.34-1.64-2.34-.65,0-1.39.45-2.2,1.35v6.34h-1.48v-8.75Z"/>
    <path d="M190.57,179.79c0-.58.41-.97.99-.97s.99.4.99.97-.41.97-.99.97-.99-.38-.99-.97ZM190.8,182.56h1.48v8.75h-1.48v-8.75Z"/>
    <path d="M194.26,190.32l.74-.99c.76.61,1.53,1.04,2.57,1.04,1.15,0,1.73-.61,1.73-1.37,0-.9-1.04-1.3-2-1.66-1.24-.45-2.56-1.04-2.56-2.52s1.12-2.48,3.02-2.48c1.08,0,2.03.45,2.72.99l-.72.94c-.59-.45-1.22-.77-2-.77-1.1,0-1.6.59-1.6,1.26,0,.83.9,1.13,1.89,1.51,1.26.47,2.66.99,2.66,2.65,0,1.42-1.13,2.61-3.21,2.61-1.24,0-2.43-.52-3.26-1.21Z"/>
    <path d="M205.4,190.32l.74-.99c.76.61,1.53,1.04,2.57,1.04,1.15,0,1.73-.61,1.73-1.37,0-.9-1.04-1.3-2-1.66-1.24-.45-2.56-1.04-2.56-2.52s1.12-2.48,3.02-2.48c1.08,0,2.03.45,2.72.99l-.72.94c-.59-.45-1.22-.77-2-.77-1.1,0-1.6.59-1.6,1.26,0,.83.9,1.13,1.89,1.51,1.26.47,2.67.99,2.67,2.65,0,1.42-1.13,2.61-3.21,2.61-1.24,0-2.43-.52-3.26-1.21Z"/>
    <path d="M213.68,179.79c0-.58.41-.97.99-.97s.99.4.99.97-.41.97-.99.97-.99-.38-.99-.97ZM213.92,182.56h1.48v8.75h-1.48v-8.75Z"/>
    <path d="M218.34,182.56h1.22l.13,1.26h.05c.76-.83,1.67-1.48,2.72-1.48,1.33,0,2.05.63,2.41,1.67.92-.99,1.82-1.67,2.88-1.67,1.8,0,2.67,1.19,2.67,3.42v5.55h-1.48v-5.35c0-1.64-.52-2.34-1.62-2.34-.68,0-1.39.45-2.2,1.35v6.34h-1.48v-5.35c0-1.64-.52-2.34-1.64-2.34-.65,0-1.39.45-2.2,1.35v6.34h-1.48v-8.75Z"/>
    <path d="M233.26,182.56h1.22l.13,1.01h.05c.79-.67,1.76-1.22,2.79-1.22,2.25,0,3.46,1.75,3.46,4.47,0,2.97-1.78,4.72-3.78,4.72-.81,0-1.62-.38-2.43-1.01l.04,1.53v2.95h-1.48v-12.44ZM239.39,186.81c0-1.93-.65-3.22-2.3-3.22-.74,0-1.48.41-2.34,1.19v4.59c.79.67,1.57.92,2.14.92,1.44,0,2.5-1.31,2.5-3.48Z"/>
    <path d="M243.25,189.55v-11.06h1.48v11.16c0,.47.2.65.41.65.09,0,.16,0,.32-.04l.2,1.12c-.2.09-.45.14-.85.14-1.12,0-1.57-.7-1.57-1.98Z"/>
    <path d="M246.96,194.89l.29-1.17c.18.05.45.13.67.13.99,0,1.62-.79,1.98-1.87l.2-.65-3.51-8.77h1.53l1.78,4.84c.27.76.58,1.66.85,2.47h.07c.25-.79.5-1.69.74-2.47l1.57-4.84h1.44l-3.29,9.47c-.61,1.73-1.51,3.04-3.28,3.04-.4,0-.74-.07-1.03-.18Z"/>
    <path d="M259.22,186.95c0-2.84,1.8-4.61,3.8-4.61,1.01,0,1.67.38,2.45,1.01l-.07-1.49v-3.37h1.49v12.82h-1.22l-.13-1.03h-.05c-.68.67-1.62,1.24-2.65,1.24-2.2,0-3.62-1.66-3.62-4.57ZM265.4,189.08v-4.57c-.74-.67-1.4-.92-2.12-.92-1.4,0-2.52,1.35-2.52,3.35s.88,3.35,2.41,3.35c.81,0,1.51-.4,2.23-1.21Z"/>
    <path d="M269.71,188.11v-5.55h1.49v5.35c0,1.64.49,2.34,1.64,2.34.9,0,1.53-.45,2.36-1.48v-6.21h1.48v8.75h-1.22l-.13-1.37h-.05c-.81.95-1.67,1.58-2.88,1.58-1.85,0-2.68-1.19-2.68-3.42Z"/>
    <path d="M279.63,182.56h1.22l.13,1.26h.05c.76-.83,1.67-1.48,2.72-1.48,1.33,0,2.05.63,2.41,1.67.92-.99,1.82-1.67,2.88-1.67,1.8,0,2.67,1.19,2.67,3.42v5.55h-1.48v-5.35c0-1.64-.52-2.34-1.62-2.34-.68,0-1.39.45-2.2,1.35v6.34h-1.48v-5.35c0-1.64-.52-2.34-1.64-2.34-.65,0-1.39.45-2.2,1.35v6.34h-1.48v-8.75Z"/>
    <path d="M294.55,182.56h1.22l.13,1.26h.05c.76-.83,1.67-1.48,2.72-1.48,1.33,0,2.05.63,2.41,1.67.92-.99,1.82-1.67,2.88-1.67,1.8,0,2.67,1.19,2.67,3.42v5.55h-1.48v-5.35c0-1.64-.52-2.34-1.62-2.34-.68,0-1.39.45-2.2,1.35v6.34h-1.48v-5.35c0-1.64-.52-2.34-1.64-2.34-.65,0-1.39.45-2.2,1.35v6.34h-1.48v-8.75Z"/>
    <path d="M308.59,194.89l.29-1.17c.18.05.45.13.67.13.99,0,1.62-.79,1.98-1.87l.2-.65-3.51-8.77h1.53l1.78,4.84c.27.76.58,1.66.85,2.47h.07c.25-.79.5-1.69.74-2.47l1.57-4.84h1.44l-3.29,9.47c-.61,1.73-1.51,3.04-3.28,3.04-.4,0-.74-.07-1.03-.18Z"/>
    <path d="M321.73,188.61v-4.84h-1.3v-1.12l1.37-.09.18-2.45h1.24v2.45h2.36v1.21h-2.36v4.86c0,1.08.34,1.69,1.35,1.69.31,0,.7-.13.99-.23l.29,1.12c-.49.16-1.08.32-1.62.32-1.87,0-2.5-1.19-2.5-2.92Z"/>
    <path d="M326.67,186.95c0-2.86,1.93-4.61,3.93-4.61,2.23,0,3.49,1.6,3.49,4.11,0,.31-.02.63-.05.85h-5.91c.11,1.85,1.24,3.04,2.92,3.04.83,0,1.53-.27,2.18-.68l.52.97c-.76.49-1.69.9-2.88.9-2.34,0-4.2-1.71-4.2-4.57ZM332.79,186.23c0-1.76-.79-2.72-2.16-2.72-1.22,0-2.34.99-2.52,2.72h4.68Z"/>
    <path d="M337.75,186.74l-2.65-4.18h1.6l1.17,1.93c.27.47.56.97.86,1.46h.07c.25-.49.52-.99.79-1.46l1.06-1.93h1.55l-2.65,4.34,2.85,4.41h-1.6l-1.28-2.03c-.31-.52-.63-1.06-.95-1.57h-.07c-.31.5-.59,1.03-.88,1.57l-1.19,2.03h-1.55l2.86-4.57Z"/>
    <path d="M343.96,188.61v-4.84h-1.3v-1.12l1.37-.09.18-2.45h1.24v2.45h2.36v1.21h-2.36v4.86c0,1.08.34,1.69,1.35,1.69.31,0,.7-.13.99-.23l.29,1.12c-.49.16-1.08.32-1.62.32-1.87,0-2.5-1.19-2.5-2.92Z"/>
    <path d="M352.75,186.95c0-2.94,1.91-4.61,4.05-4.61s4.05,1.67,4.05,4.61-1.91,4.57-4.05,4.57-4.05-1.67-4.05-4.57ZM359.32,186.95c0-2.02-1.01-3.38-2.52-3.38s-2.52,1.37-2.52,3.38,1.03,3.35,2.52,3.35,2.52-1.35,2.52-3.35Z"/>
    <path d="M363.4,183.77h-1.19v-1.12l1.19-.09v-1.39c0-1.78.81-2.9,2.56-2.9.54,0,1.06.13,1.46.29l-.32,1.13c-.32-.14-.67-.22-.99-.22-.83,0-1.22.58-1.22,1.69v1.39h1.85v1.21h-1.85v7.54h-1.48v-7.54Z"/>
    <path d="M372.26,188.61v-4.84h-1.3v-1.12l1.37-.09.18-2.45h1.24v2.45h2.36v1.21h-2.36v4.86c0,1.08.34,1.69,1.35,1.69.31,0,.7-.13.99-.23l.29,1.12c-.49.16-1.08.32-1.62.32-1.87,0-2.5-1.19-2.5-2.92Z"/>
    <path d="M378.09,178.49h1.48v3.49l-.05,1.8c.83-.79,1.71-1.44,2.92-1.44,1.84,0,2.66,1.19,2.66,3.42v5.55h-1.48v-5.35c0-1.64-.5-2.34-1.66-2.34-.9,0-1.51.47-2.39,1.35v6.34h-1.48v-12.82Z"/>
    <path d="M387.24,186.95c0-2.86,1.93-4.61,3.93-4.61,2.23,0,3.49,1.6,3.49,4.11,0,.31-.02.63-.05.85h-5.91c.11,1.85,1.24,3.04,2.92,3.04.83,0,1.53-.27,2.18-.68l.52.97c-.76.49-1.69.9-2.88.9-2.34,0-4.2-1.71-4.2-4.57ZM393.36,186.23c0-1.76-.79-2.72-2.16-2.72-1.22,0-2.34.99-2.52,2.72h4.68Z"/>
    <path d="M400.41,182.56h1.22l.13,1.01h.05c.79-.67,1.76-1.22,2.79-1.22,2.25,0,3.46,1.75,3.46,4.47,0,2.97-1.78,4.72-3.78,4.72-.81,0-1.62-.38-2.43-1.01l.04,1.53v2.95h-1.48v-12.44ZM406.53,186.81c0-1.93-.65-3.22-2.3-3.22-.74,0-1.48.41-2.34,1.19v4.59c.79.67,1.57.92,2.14.92,1.44,0,2.5-1.31,2.5-3.48Z"/>
    <path d="M410.4,182.56h1.22l.13,1.58h.05c.59-1.1,1.49-1.8,2.48-1.8.38,0,.65.05.94.18l-.29,1.3c-.29-.09-.49-.14-.85-.14-.74,0-1.62.54-2.21,2.02v5.62h-1.48v-8.75Z"/>
    <path d="M416.41,179.79c0-.58.41-.97.99-.97s.99.4.99.97-.41.97-.99.97-.99-.38-.99-.97ZM416.65,182.56h1.48v8.75h-1.48v-8.75Z"/>
    <path d="M421.07,182.56h1.22l.13,1.26h.05c.83-.83,1.73-1.48,2.94-1.48,1.84,0,2.66,1.19,2.66,3.42v5.55h-1.48v-5.35c0-1.64-.5-2.34-1.66-2.34-.9,0-1.51.47-2.4,1.35v6.34h-1.48v-8.75Z"/>
    <path d="M431.17,188.61v-4.84h-1.3v-1.12l1.37-.09.18-2.45h1.24v2.45h2.36v1.21h-2.36v4.86c0,1.08.34,1.69,1.35,1.69.31,0,.7-.13.99-.23l.29,1.12c-.49.16-1.08.32-1.62.32-1.87,0-2.5-1.19-2.5-2.92Z"/>
    <path d="M436.77,179.79c0-.58.41-.97.99-.97s.99.4.99.97-.41.97-.99.97-.99-.38-.99-.97ZM437,182.56h1.48v8.75h-1.48v-8.75Z"/>
    <path d="M441.43,182.56h1.22l.13,1.26h.05c.83-.83,1.73-1.48,2.93-1.48,1.84,0,2.67,1.19,2.67,3.42v5.55h-1.48v-5.35c0-1.64-.5-2.34-1.66-2.34-.9,0-1.51.47-2.39,1.35v6.34h-1.48v-8.75Z"/>
    <path d="M450.61,192.99c0-.74.49-1.44,1.28-1.98v-.07c-.43-.27-.77-.74-.77-1.42,0-.74.5-1.31.95-1.62v-.07c-.58-.47-1.13-1.31-1.13-2.36,0-1.91,1.51-3.11,3.29-3.11.49,0,.92.09,1.24.22h3.04v1.13h-1.8c.41.4.72,1.06.72,1.8,0,1.87-1.42,3.04-3.21,3.04-.43,0-.92-.11-1.31-.31-.31.27-.56.56-.56,1.04,0,.56.36.95,1.55.95h1.69c2.03,0,3.06.63,3.06,2.09,0,1.62-1.71,3.02-4.43,3.02-2.14,0-3.62-.85-3.62-2.36ZM457.22,192.54c0-.81-.63-1.08-1.76-1.08h-1.51c-.34,0-.76-.04-1.13-.14-.63.45-.9.97-.9,1.48,0,.94.95,1.53,2.54,1.53,1.67,0,2.77-.86,2.77-1.78ZM456.09,185.46c0-1.28-.83-2.03-1.85-2.03s-1.85.76-1.85,2.03.85,2.09,1.85,2.09,1.85-.81,1.85-2.09Z"/>
    <path d="M463.41,189.04c0-1.91,1.64-2.86,5.37-3.28,0-1.12-.36-2.2-1.8-2.2-1.01,0-1.93.47-2.61.94l-.58-1.03c.81-.52,2.03-1.13,3.44-1.13,2.14,0,3.04,1.42,3.04,3.6v5.37h-1.22l-.13-1.04h-.05c-.83.68-1.8,1.26-2.9,1.26-1.46,0-2.56-.92-2.56-2.48ZM468.78,189.17v-2.43c-2.92.36-3.92,1.08-3.92,2.2,0,.99.68,1.4,1.55,1.4s1.53-.41,2.38-1.17Z"/>
    <path d="M473.02,182.56h1.22l.13,1.26h.05c.83-.83,1.73-1.48,2.94-1.48,1.84,0,2.67,1.19,2.67,3.42v5.55h-1.48v-5.35c0-1.64-.5-2.34-1.66-2.34-.9,0-1.51.47-2.39,1.35v6.34h-1.48v-8.75Z"/>
    <path d="M482.24,186.95c0-2.84,1.8-4.61,3.8-4.61,1.01,0,1.67.38,2.45,1.01l-.07-1.49v-3.37h1.49v12.82h-1.22l-.13-1.03h-.05c-.68.67-1.62,1.24-2.65,1.24-2.2,0-3.62-1.66-3.62-4.57ZM488.41,189.08v-4.57c-.74-.67-1.4-.92-2.12-.92-1.4,0-2.52,1.35-2.52,3.35s.88,3.35,2.41,3.35c.81,0,1.51-.4,2.23-1.21Z"/>
    <path d="M495.92,189.04c0-1.91,1.64-2.86,5.37-3.28,0-1.12-.36-2.2-1.8-2.2-1.01,0-1.93.47-2.61.94l-.58-1.03c.81-.52,2.03-1.13,3.44-1.13,2.14,0,3.04,1.42,3.04,3.6v5.37h-1.22l-.13-1.04h-.05c-.83.68-1.8,1.26-2.9,1.26-1.46,0-2.56-.92-2.56-2.48ZM501.28,189.17v-2.43c-2.92.36-3.93,1.08-3.93,2.2,0,.99.68,1.4,1.55,1.4s1.53-.41,2.38-1.17Z"/>
    <path d="M505.53,182.56h1.22l.13,1.01h.05c.79-.67,1.76-1.22,2.79-1.22,2.25,0,3.46,1.75,3.46,4.47,0,2.97-1.78,4.72-3.78,4.72-.81,0-1.62-.38-2.43-1.01l.04,1.53v2.95h-1.48v-12.44ZM511.65,186.81c0-1.93-.65-3.22-2.3-3.22-.74,0-1.48.41-2.34,1.19v4.59c.79.67,1.57.92,2.14.92,1.44,0,2.5-1.31,2.5-3.48Z"/>
    <path d="M515.52,182.56h1.22l.13,1.01h.05c.79-.67,1.76-1.22,2.79-1.22,2.25,0,3.46,1.75,3.46,4.47,0,2.97-1.78,4.72-3.78,4.72-.81,0-1.62-.38-2.43-1.01l.04,1.53v2.95h-1.48v-12.44ZM521.64,186.81c0-1.93-.65-3.22-2.3-3.22-.74,0-1.48.41-2.34,1.19v4.59c.79.67,1.57.92,2.14.92,1.44,0,2.5-1.31,2.5-3.48Z"/>
    <path d="M525.51,189.55v-11.06h1.48v11.16c0,.47.2.65.41.65.09,0,.16,0,.32-.04l.2,1.12c-.2.09-.45.14-.85.14-1.12,0-1.57-.7-1.57-1.98Z"/>
    <path d="M88.67,213.61v-4.84h-1.3v-1.12l1.37-.09.18-2.45h1.24v2.45h2.36v1.21h-2.36v4.86c0,1.08.34,1.69,1.35,1.69.31,0,.7-.13.99-.23l.29,1.12c-.49.16-1.08.32-1.62.32-1.87,0-2.5-1.19-2.5-2.92Z"/>
    <path d="M93.62,219.89l.29-1.17c.18.05.45.13.67.13.99,0,1.62-.79,1.98-1.87l.2-.65-3.51-8.77h1.53l1.78,4.84c.27.76.58,1.66.85,2.47h.07c.25-.79.5-1.69.74-2.47l1.57-4.84h1.44l-3.29,9.47c-.61,1.73-1.51,3.04-3.28,3.04-.4,0-.74-.07-1.03-.18Z"/>
    <path d="M102.91,207.56h1.22l.13,1.01h.05c.79-.67,1.76-1.22,2.79-1.22,2.25,0,3.46,1.75,3.46,4.47,0,2.97-1.78,4.72-3.78,4.72-.81,0-1.62-.38-2.43-1.01l.04,1.53v2.95h-1.48v-12.44ZM109.03,211.81c0-1.93-.65-3.22-2.3-3.22-.74,0-1.48.41-2.34,1.19v4.59c.79.67,1.57.92,2.14.92,1.44,0,2.5-1.31,2.5-3.48Z"/>
    <path d="M112.25,211.95c0-2.86,1.93-4.61,3.92-4.61,2.23,0,3.49,1.6,3.49,4.11,0,.31-.02.63-.05.85h-5.91c.11,1.85,1.24,3.04,2.92,3.04.83,0,1.53-.27,2.18-.68l.52.97c-.76.49-1.69.9-2.88.9-2.34,0-4.2-1.71-4.2-4.57ZM118.37,211.23c0-1.76-.79-2.72-2.16-2.72-1.22,0-2.34.99-2.52,2.72h4.68Z"/>
    <path d="M120.86,215.32l.74-.99c.76.61,1.53,1.04,2.57,1.04,1.15,0,1.73-.61,1.73-1.37,0-.9-1.04-1.3-2-1.66-1.24-.45-2.56-1.04-2.56-2.52s1.12-2.48,3.02-2.48c1.08,0,2.03.45,2.72.99l-.72.94c-.59-.45-1.22-.77-2-.77-1.1,0-1.6.59-1.6,1.26,0,.83.9,1.13,1.89,1.51,1.26.47,2.66.99,2.66,2.65,0,1.42-1.13,2.61-3.21,2.61-1.24,0-2.43-.52-3.26-1.21Z"/>
    <path d="M128.72,211.95c0-2.86,1.93-4.61,3.92-4.61,2.23,0,3.49,1.6,3.49,4.11,0,.31-.02.63-.05.85h-5.91c.11,1.85,1.24,3.04,2.92,3.04.83,0,1.53-.27,2.18-.68l.52.97c-.76.49-1.69.9-2.88.9-2.34,0-4.19-1.71-4.19-4.57ZM134.84,211.23c0-1.76-.79-2.72-2.16-2.72-1.22,0-2.34.99-2.52,2.72h4.68Z"/>
    <path d="M138.37,213.61v-4.84h-1.3v-1.12l1.37-.09.18-2.45h1.24v2.45h2.36v1.21h-2.36v4.86c0,1.08.34,1.69,1.35,1.69.31,0,.7-.13.99-.23l.29,1.12c-.49.16-1.08.32-1.62.32-1.87,0-2.5-1.19-2.5-2.92Z"/>
    <path d="M144.09,213.61v-4.84h-1.3v-1.12l1.37-.09.18-2.45h1.24v2.45h2.36v1.21h-2.36v4.86c0,1.08.34,1.69,1.35,1.69.31,0,.7-.13.99-.23l.29,1.12c-.49.16-1.08.32-1.62.32-1.87,0-2.5-1.19-2.5-2.92Z"/>
    <path d="M149.69,204.79c0-.58.41-.97.99-.97s.99.4.99.97-.41.97-.99.97-.99-.38-.99-.97ZM149.93,207.56h1.48v8.75h-1.48v-8.75Z"/>
    <path d="M154.35,207.56h1.22l.13,1.26h.05c.83-.83,1.73-1.48,2.94-1.48,1.84,0,2.66,1.19,2.66,3.42v5.55h-1.48v-5.35c0-1.64-.5-2.34-1.66-2.34-.9,0-1.51.47-2.39,1.35v6.34h-1.48v-8.75Z"/>
    <path d="M163.53,217.99c0-.74.49-1.44,1.28-1.98v-.07c-.43-.27-.77-.74-.77-1.42,0-.74.5-1.31.95-1.62v-.07c-.58-.47-1.13-1.31-1.13-2.36,0-1.91,1.51-3.11,3.29-3.11.49,0,.92.09,1.24.22h3.04v1.13h-1.8c.41.4.72,1.06.72,1.8,0,1.87-1.42,3.04-3.21,3.04-.43,0-.92-.11-1.31-.31-.31.27-.56.56-.56,1.04,0,.56.36.95,1.55.95h1.69c2.03,0,3.06.63,3.06,2.09,0,1.62-1.71,3.02-4.43,3.02-2.14,0-3.62-.85-3.62-2.36ZM170.14,217.54c0-.81-.63-1.08-1.76-1.08h-1.51c-.34,0-.76-.04-1.13-.14-.63.45-.9.97-.9,1.48,0,.94.95,1.53,2.54,1.53,1.67,0,2.77-.86,2.77-1.78ZM169.01,210.46c0-1.28-.83-2.03-1.85-2.03s-1.85.76-1.85,2.03.85,2.09,1.85,2.09,1.85-.81,1.85-2.09Z"/>
    <path d="M176.64,204.79c0-.58.41-.97.99-.97s.99.4.99.97-.41.97-.99.97-.99-.38-.99-.97ZM176.87,207.56h1.48v8.75h-1.48v-8.75Z"/>
    <path d="M181.3,207.56h1.22l.13,1.26h.05c.83-.83,1.73-1.48,2.94-1.48,1.84,0,2.67,1.19,2.67,3.42v5.55h-1.48v-5.35c0-1.64-.5-2.34-1.66-2.34-.9,0-1.51.47-2.39,1.35v6.34h-1.48v-8.75Z"/>
    <path d="M190.52,211.95c0-2.84,1.8-4.61,3.8-4.61,1.01,0,1.67.38,2.45,1.01l-.07-1.49v-3.37h1.49v12.82h-1.22l-.13-1.03h-.05c-.68.67-1.62,1.24-2.65,1.24-2.2,0-3.62-1.66-3.62-4.57ZM196.69,214.08v-4.57c-.74-.67-1.4-.92-2.12-.92-1.4,0-2.52,1.35-2.52,3.35s.88,3.35,2.41,3.35c.81,0,1.51-.4,2.23-1.21Z"/>
    <path d="M201.01,213.11v-5.55h1.49v5.35c0,1.64.49,2.34,1.64,2.34.9,0,1.53-.45,2.36-1.48v-6.21h1.48v8.75h-1.22l-.13-1.37h-.05c-.81.95-1.67,1.58-2.88,1.58-1.85,0-2.68-1.19-2.68-3.42Z"/>
    <path d="M209.96,215.32l.74-.99c.76.61,1.53,1.04,2.58,1.04,1.15,0,1.73-.61,1.73-1.37,0-.9-1.04-1.3-2-1.66-1.24-.45-2.56-1.04-2.56-2.52s1.12-2.48,3.02-2.48c1.08,0,2.03.45,2.72.99l-.72.94c-.59-.45-1.22-.77-2-.77-1.1,0-1.6.59-1.6,1.26,0,.83.9,1.13,1.89,1.51,1.26.47,2.67.99,2.67,2.65,0,1.42-1.13,2.61-3.21,2.61-1.24,0-2.43-.52-3.26-1.21Z"/>
    <path d="M218.36,213.61v-4.84h-1.3v-1.12l1.37-.09.18-2.45h1.24v2.45h2.36v1.21h-2.36v4.86c0,1.08.34,1.69,1.35,1.69.31,0,.7-.13.99-.23l.29,1.12c-.49.16-1.08.32-1.62.32-1.87,0-2.5-1.19-2.5-2.92Z"/>
    <path d="M224.01,215.41c0-.68.49-1.15,1.08-1.15s1.06.47,1.06,1.15c0,.65-.49,1.12-1.06,1.12s-1.08-.47-1.08-1.12Z"/>
    <path d="M232.55,204.5h1.49v10.53h5.17v1.28h-6.66v-11.81Z"/>
    <path d="M240.29,211.95c0-2.94,1.91-4.61,4.05-4.61s4.05,1.67,4.05,4.61-1.91,4.57-4.05,4.57-4.05-1.67-4.05-4.57ZM246.86,211.95c0-2.02-1.01-3.38-2.52-3.38s-2.52,1.37-2.52,3.38,1.03,3.35,2.52,3.35,2.52-1.35,2.52-3.35Z"/>
    <path d="M250.69,207.56h1.22l.13,1.58h.05c.59-1.1,1.49-1.8,2.48-1.8.38,0,.65.05.94.18l-.29,1.3c-.29-.09-.49-.14-.85-.14-.74,0-1.62.54-2.21,2.02v5.62h-1.48v-8.75Z"/>
    <path d="M256.11,211.95c0-2.86,1.93-4.61,3.93-4.61,2.23,0,3.49,1.6,3.49,4.11,0,.31-.02.63-.05.85h-5.91c.11,1.85,1.24,3.04,2.92,3.04.83,0,1.53-.27,2.18-.68l.52.97c-.76.49-1.69.9-2.88.9-2.34,0-4.2-1.71-4.2-4.57ZM262.23,211.23c0-1.76-.79-2.72-2.16-2.72-1.22,0-2.34.99-2.52,2.72h4.68Z"/>
    <path d="M265.68,207.56h1.22l.13,1.26h.05c.76-.83,1.67-1.48,2.72-1.48,1.33,0,2.05.63,2.41,1.67.92-.99,1.82-1.67,2.88-1.67,1.8,0,2.66,1.19,2.66,3.42v5.55h-1.48v-5.35c0-1.64-.52-2.34-1.62-2.34-.68,0-1.39.45-2.2,1.35v6.34h-1.48v-5.35c0-1.64-.52-2.34-1.64-2.34-.65,0-1.39.45-2.2,1.35v6.34h-1.48v-8.75Z"/>
    <path d="M284.35,204.5h1.49v11.81h-1.49v-11.81Z"/>
    <path d="M288.94,207.56h1.22l.13,1.01h.05c.79-.67,1.76-1.22,2.79-1.22,2.25,0,3.46,1.75,3.46,4.47,0,2.97-1.78,4.72-3.78,4.72-.81,0-1.62-.38-2.43-1.01l.04,1.53v2.95h-1.48v-12.44ZM295.06,211.81c0-1.93-.65-3.22-2.3-3.22-.74,0-1.48.41-2.34,1.19v4.59c.79.67,1.57.92,2.14.92,1.44,0,2.5-1.31,2.5-3.48Z"/>
    <path d="M297.96,215.32l.74-.99c.76.61,1.53,1.04,2.57,1.04,1.15,0,1.73-.61,1.73-1.37,0-.9-1.04-1.3-2-1.66-1.24-.45-2.56-1.04-2.56-2.52s1.12-2.48,3.02-2.48c1.08,0,2.03.45,2.72.99l-.72.94c-.59-.45-1.22-.77-2-.77-1.1,0-1.6.59-1.6,1.26,0,.83.9,1.13,1.89,1.51,1.26.47,2.67.99,2.67,2.65,0,1.42-1.13,2.61-3.21,2.61-1.24,0-2.43-.52-3.26-1.21Z"/>
    <path d="M306.34,213.11v-5.55h1.49v5.35c0,1.64.49,2.34,1.64,2.34.9,0,1.53-.45,2.36-1.48v-6.21h1.48v8.75h-1.22l-.13-1.37h-.05c-.81.95-1.67,1.58-2.88,1.58-1.85,0-2.68-1.19-2.68-3.42Z"/>
    <path d="M316.26,207.56h1.22l.13,1.26h.05c.76-.83,1.67-1.48,2.72-1.48,1.33,0,2.05.63,2.41,1.67.92-.99,1.82-1.67,2.88-1.67,1.8,0,2.67,1.19,2.67,3.42v5.55h-1.48v-5.35c0-1.64-.52-2.34-1.62-2.34-.68,0-1.39.45-2.2,1.35v6.34h-1.48v-5.35c0-1.64-.52-2.34-1.64-2.34-.65,0-1.39.45-2.2,1.35v6.34h-1.48v-8.75Z"/>
    <path d="M334.78,203.49h1.48v3.49l-.05,1.8c.83-.79,1.71-1.44,2.92-1.44,1.84,0,2.67,1.19,2.67,3.42v5.55h-1.48v-5.35c0-1.64-.5-2.34-1.66-2.34-.9,0-1.51.47-2.39,1.35v6.34h-1.48v-12.82Z"/>
    <path d="M344.04,214.04c0-1.91,1.64-2.86,5.37-3.28,0-1.12-.36-2.2-1.8-2.2-1.01,0-1.93.47-2.61.94l-.58-1.03c.81-.52,2.03-1.13,3.44-1.13,2.14,0,3.04,1.42,3.04,3.6v5.37h-1.22l-.13-1.04h-.05c-.83.68-1.8,1.26-2.9,1.26-1.46,0-2.56-.92-2.56-2.48ZM349.4,214.17v-2.43c-2.92.36-3.92,1.08-3.92,2.2,0,.99.68,1.4,1.55,1.4s1.53-.41,2.38-1.17Z"/>
    <path d="M352.68,215.32l.74-.99c.76.61,1.53,1.04,2.57,1.04,1.15,0,1.73-.61,1.73-1.37,0-.9-1.04-1.3-2-1.66-1.24-.45-2.56-1.04-2.56-2.52s1.12-2.48,3.02-2.48c1.08,0,2.03.45,2.72.99l-.72.94c-.59-.45-1.22-.77-2-.77-1.1,0-1.6.59-1.6,1.26,0,.83.9,1.13,1.89,1.51,1.26.47,2.66.99,2.66,2.65,0,1.42-1.13,2.61-3.21,2.61-1.24,0-2.43-.52-3.26-1.21Z"/>
    <path d="M366.16,215.41h-.05l-.13.9h-1.19v-12.82h1.48v3.49l-.04,1.58c.79-.7,1.76-1.22,2.74-1.22,2.27,0,3.47,1.75,3.47,4.45,0,2.99-1.78,4.74-3.78,4.74-.81,0-1.73-.41-2.5-1.12ZM370.91,211.81c0-1.93-.65-3.22-2.3-3.22-.74,0-1.51.41-2.34,1.19v4.59c.77.67,1.57.92,2.14.92,1.44,0,2.5-1.31,2.5-3.48Z"/>
    <path d="M374.1,211.95c0-2.86,1.93-4.61,3.92-4.61,2.23,0,3.49,1.6,3.49,4.11,0,.31-.02.63-.05.85h-5.91c.11,1.85,1.24,3.04,2.92,3.04.83,0,1.53-.27,2.18-.68l.52.97c-.76.49-1.69.9-2.88.9-2.34,0-4.19-1.71-4.19-4.57ZM380.22,211.23c0-1.76-.79-2.72-2.16-2.72-1.22,0-2.34.99-2.52,2.72h4.68Z"/>
    <path d="M383.02,211.95c0-2.86,1.93-4.61,3.92-4.61,2.23,0,3.49,1.6,3.49,4.11,0,.31-.02.63-.05.85h-5.91c.11,1.85,1.24,3.04,2.92,3.04.83,0,1.53-.27,2.18-.68l.52.97c-.76.49-1.69.9-2.88.9-2.34,0-4.19-1.71-4.19-4.57ZM389.14,211.23c0-1.76-.79-2.72-2.16-2.72-1.22,0-2.34.99-2.52,2.72h4.68Z"/>
    <path d="M392.6,207.56h1.22l.13,1.26h.05c.83-.83,1.73-1.48,2.94-1.48,1.84,0,2.66,1.19,2.66,3.42v5.55h-1.48v-5.35c0-1.64-.5-2.34-1.66-2.34-.9,0-1.51.47-2.39,1.35v6.34h-1.48v-8.75Z"/>
    <path d="M402.14,215.41c0-.68.49-1.15,1.08-1.15s1.06.47,1.06,1.15c0,.65-.49,1.12-1.06,1.12s-1.08-.47-1.08-1.12Z"/>
  </g>
  <rect class="cls-5" x="15.87" y="248.64" width="539.69" height="73" rx="6" ry="6"/>
  <g>
    <rect class="cls-11" x="86.94" y="264.5" width="473.06" height="52.14"/>
    <path d="M88.57,265.5h1.49v10.53h5.17v1.28h-6.66v-11.81Z"/>
    <path d="M96.31,272.95c0-2.94,1.91-4.61,4.05-4.61s4.05,1.67,4.05,4.61-1.91,4.57-4.05,4.57-4.05-1.67-4.05-4.57ZM102.88,272.95c0-2.02-1.01-3.38-2.52-3.38s-2.52,1.37-2.52,3.38,1.03,3.35,2.52,3.35,2.52-1.35,2.52-3.35Z"/>
    <path d="M106.71,268.56h1.22l.13,1.58h.05c.59-1.1,1.49-1.8,2.48-1.8.38,0,.65.05.94.18l-.29,1.3c-.29-.09-.49-.14-.85-.14-.74,0-1.62.54-2.21,2.02v5.62h-1.48v-8.75Z"/>
    <path d="M112.13,272.95c0-2.86,1.93-4.61,3.92-4.61,2.23,0,3.49,1.6,3.49,4.11,0,.31-.02.63-.05.85h-5.91c.11,1.85,1.24,3.04,2.92,3.04.83,0,1.53-.27,2.18-.68l.52.97c-.76.49-1.69.9-2.88.9-2.34,0-4.19-1.71-4.19-4.57ZM118.25,272.23c0-1.76-.79-2.72-2.16-2.72-1.22,0-2.34.99-2.52,2.72h4.68Z"/>
    <path d="M121.7,268.56h1.22l.13,1.26h.05c.76-.83,1.67-1.48,2.72-1.48,1.33,0,2.05.63,2.41,1.67.92-.99,1.82-1.67,2.88-1.67,1.8,0,2.66,1.19,2.66,3.42v5.55h-1.48v-5.35c0-1.64-.52-2.34-1.62-2.34-.68,0-1.39.45-2.2,1.35v6.34h-1.48v-5.35c0-1.64-.52-2.34-1.64-2.34-.65,0-1.39.45-2.2,1.35v6.34h-1.48v-8.75Z"/>
    <path d="M140.37,265.5h1.49v11.81h-1.49v-11.81Z"/>
    <path d="M144.96,268.56h1.22l.13,1.01h.05c.79-.67,1.76-1.22,2.79-1.22,2.25,0,3.46,1.75,3.46,4.47,0,2.97-1.78,4.72-3.78,4.72-.81,0-1.62-.38-2.43-1.01l.04,1.53v2.95h-1.48v-12.44ZM151.08,272.81c0-1.93-.65-3.22-2.3-3.22-.74,0-1.48.41-2.34,1.19v4.59c.79.67,1.57.92,2.14.92,1.44,0,2.5-1.31,2.5-3.48Z"/>
    <path d="M153.98,276.32l.74-.99c.76.61,1.53,1.04,2.57,1.04,1.15,0,1.73-.61,1.73-1.37,0-.9-1.04-1.3-2-1.66-1.24-.45-2.56-1.04-2.56-2.52s1.12-2.48,3.02-2.48c1.08,0,2.03.45,2.72.99l-.72.94c-.59-.45-1.22-.77-2-.77-1.1,0-1.6.59-1.6,1.26,0,.83.9,1.13,1.89,1.51,1.26.47,2.67.99,2.67,2.65,0,1.42-1.13,2.61-3.21,2.61-1.24,0-2.43-.52-3.26-1.21Z"/>
    <path d="M162.36,274.11v-5.55h1.49v5.35c0,1.64.49,2.34,1.64,2.34.9,0,1.53-.45,2.36-1.48v-6.21h1.48v8.75h-1.22l-.13-1.37h-.05c-.81.95-1.67,1.58-2.88,1.58-1.85,0-2.68-1.19-2.68-3.42Z"/>
    <path d="M172.28,268.56h1.22l.13,1.26h.05c.76-.83,1.67-1.48,2.72-1.48,1.33,0,2.05.63,2.41,1.67.92-.99,1.82-1.67,2.88-1.67,1.8,0,2.67,1.19,2.67,3.42v5.55h-1.48v-5.35c0-1.64-.52-2.34-1.62-2.34-.68,0-1.39.45-2.2,1.35v6.34h-1.48v-5.35c0-1.64-.52-2.34-1.64-2.34-.65,0-1.39.45-2.2,1.35v6.34h-1.48v-8.75Z"/>
    <path d="M190.57,265.79c0-.58.41-.97.99-.97s.99.4.99.97-.41.97-.99.97-.99-.38-.99-.97ZM190.8,268.56h1.48v8.75h-1.48v-8.75Z"/>
    <path d="M194.26,276.32l.74-.99c.76.61,1.53,1.04,2.57,1.04,1.15,0,1.73-.61,1.73-1.37,0-.9-1.04-1.3-2-1.66-1.24-.45-2.56-1.04-2.56-2.52s1.12-2.48,3.02-2.48c1.08,0,2.03.45,2.72.99l-.72.94c-.59-.45-1.22-.77-2-.77-1.1,0-1.6.59-1.6,1.26,0,.83.9,1.13,1.89,1.51,1.26.47,2.66.99,2.66,2.65,0,1.42-1.13,2.61-3.21,2.61-1.24,0-2.43-.52-3.26-1.21Z"/>
    <path d="M205.4,276.32l.74-.99c.76.61,1.53,1.04,2.57,1.04,1.15,0,1.73-.61,1.73-1.37,0-.9-1.04-1.3-2-1.66-1.24-.45-2.56-1.04-2.56-2.52s1.12-2.48,3.02-2.48c1.08,0,2.03.45,2.72.99l-.72.94c-.59-.45-1.22-.77-2-.77-1.1,0-1.6.59-1.6,1.26,0,.83.9,1.13,1.89,1.51,1.26.47,2.67.99,2.67,2.65,0,1.42-1.13,2.61-3.21,2.61-1.24,0-2.43-.52-3.26-1.21Z"/>
    <path d="M213.68,265.79c0-.58.41-.97.99-.97s.99.4.99.97-.41.97-.99.97-.99-.38-.99-.97ZM213.92,268.56h1.48v8.75h-1.48v-8.75Z"/>
    <path d="M218.34,268.56h1.22l.13,1.26h.05c.76-.83,1.67-1.48,2.72-1.48,1.33,0,2.05.63,2.41,1.67.92-.99,1.82-1.67,2.88-1.67,1.8,0,2.67,1.19,2.67,3.42v5.55h-1.48v-5.35c0-1.64-.52-2.34-1.62-2.34-.68,0-1.39.45-2.2,1.35v6.34h-1.48v-5.35c0-1.64-.52-2.34-1.64-2.34-.65,0-1.39.45-2.2,1.35v6.34h-1.48v-8.75Z"/>
    <path d="M233.26,268.56h1.22l.13,1.01h.05c.79-.67,1.76-1.22,2.79-1.22,2.25,0,3.46,1.75,3.46,4.47,0,2.97-1.78,4.72-3.78,4.72-.81,0-1.62-.38-2.43-1.01l.04,1.53v2.95h-1.48v-12.44ZM239.39,272.81c0-1.93-.65-3.22-2.3-3.22-.74,0-1.48.41-2.34,1.19v4.59c.79.67,1.57.92,2.14.92,1.44,0,2.5-1.31,2.5-3.48Z"/>
    <path d="M243.25,275.55v-11.06h1.48v11.16c0,.47.2.65.41.65.09,0,.16,0,.32-.04l.2,1.12c-.2.09-.45.14-.85.14-1.12,0-1.57-.7-1.57-1.98Z"/>
    <path d="M246.96,280.89l.29-1.17c.18.05.45.13.67.13.99,0,1.62-.79,1.98-1.87l.2-.65-3.51-8.77h1.53l1.78,4.84c.27.76.58,1.66.85,2.47h.07c.25-.79.5-1.69.74-2.47l1.57-4.84h1.44l-3.29,9.47c-.61,1.73-1.51,3.04-3.28,3.04-.4,0-.74-.07-1.03-.18Z"/>
    <path d="M259.22,272.95c0-2.84,1.8-4.61,3.8-4.61,1.01,0,1.67.38,2.45,1.01l-.07-1.49v-3.37h1.49v12.82h-1.22l-.13-1.03h-.05c-.68.67-1.62,1.24-2.65,1.24-2.2,0-3.62-1.66-3.62-4.57ZM265.4,275.08v-4.57c-.74-.67-1.4-.92-2.12-.92-1.4,0-2.52,1.35-2.52,3.35s.88,3.35,2.41,3.35c.81,0,1.51-.4,2.23-1.21Z"/>
    <path d="M269.71,274.11v-5.55h1.49v5.35c0,1.64.49,2.34,1.64,2.34.9,0,1.53-.45,2.36-1.48v-6.21h1.48v8.75h-1.22l-.13-1.37h-.05c-.81.95-1.67,1.58-2.88,1.58-1.85,0-2.68-1.19-2.68-3.42Z"/>
    <path d="M279.63,268.56h1.22l.13,1.26h.05c.76-.83,1.67-1.48,2.72-1.48,1.33,0,2.05.63,2.41,1.67.92-.99,1.82-1.67,2.88-1.67,1.8,0,2.67,1.19,2.67,3.42v5.55h-1.48v-5.35c0-1.64-.52-2.34-1.62-2.34-.68,0-1.39.45-2.2,1.35v6.34h-1.48v-5.35c0-1.64-.52-2.34-1.64-2.34-.65,0-1.39.45-2.2,1.35v6.34h-1.48v-8.75Z"/>
    <path d="M294.55,268.56h1.22l.13,1.26h.05c.76-.83,1.67-1.48,2.72-1.48,1.33,0,2.05.63,2.41,1.67.92-.99,1.82-1.67,2.88-1.67,1.8,0,2.67,1.19,2.67,3.42v5.55h-1.48v-5.35c0-1.64-.52-2.34-1.62-2.34-.68,0-1.39.45-2.2,1.35v6.34h-1.48v-5.35c0-1.64-.52-2.34-1.64-2.34-.65,0-1.39.45-2.2,1.35v6.34h-1.48v-8.75Z"/>
    <path d="M308.59,280.89l.29-1.17c.18.05.45.13.67.13.99,0,1.62-.79,1.98-1.87l.2-.65-3.51-8.77h1.53l1.78,4.84c.27.76.58,1.66.85,2.47h.07c.25-.79.5-1.69.74-2.47l1.57-4.84h1.44l-3.29,9.47c-.61,1.73-1.51,3.04-3.28,3.04-.4,0-.74-.07-1.03-.18Z"/>
    <path d="M321.73,274.61v-4.84h-1.3v-1.12l1.37-.09.18-2.45h1.24v2.45h2.36v1.21h-2.36v4.86c0,1.08.34,1.69,1.35,1.69.31,0,.7-.13.99-.23l.29,1.12c-.49.16-1.08.32-1.62.32-1.87,0-2.5-1.19-2.5-2.92Z"/>
    <path d="M326.67,272.95c0-2.86,1.93-4.61,3.93-4.61,2.23,0,3.49,1.6,3.49,4.11,0,.31-.02.63-.05.85h-5.91c.11,1.85,1.24,3.04,2.92,3.04.83,0,1.53-.27,2.18-.68l.52.97c-.76.49-1.69.9-2.88.9-2.34,0-4.2-1.71-4.2-4.57ZM332.79,272.23c0-1.76-.79-2.72-2.16-2.72-1.22,0-2.34.99-2.52,2.72h4.68Z"/>
    <path d="M337.75,272.74l-2.65-4.18h1.6l1.17,1.93c.27.47.56.97.86,1.46h.07c.25-.49.52-.99.79-1.46l1.06-1.93h1.55l-2.65,4.34,2.85,4.41h-1.6l-1.28-2.03c-.31-.52-.63-1.06-.95-1.57h-.07c-.31.5-.59,1.03-.88,1.57l-1.19,2.03h-1.55l2.86-4.57Z"/>
    <path d="M343.96,274.61v-4.84h-1.3v-1.12l1.37-.09.18-2.45h1.24v2.45h2.36v1.21h-2.36v4.86c0,1.08.34,1.69,1.35,1.69.31,0,.7-.13.99-.23l.29,1.12c-.49.16-1.08.32-1.62.32-1.87,0-2.5-1.19-2.5-2.92Z"/>
    <path d="M352.75,272.95c0-2.94,1.91-4.61,4.05-4.61s4.05,1.67,4.05,4.61-1.91,4.57-4.05,4.57-4.05-1.67-4.05-4.57ZM359.32,272.95c0-2.02-1.01-3.38-2.52-3.38s-2.52,1.37-2.52,3.38,1.03,3.35,2.52,3.35,2.52-1.35,2.52-3.35Z"/>
    <path d="M363.4,269.77h-1.19v-1.12l1.19-.09v-1.39c0-1.78.81-2.9,2.56-2.9.54,0,1.06.13,1.46.29l-.32,1.13c-.32-.14-.67-.22-.99-.22-.83,0-1.22.58-1.22,1.69v1.39h1.85v1.21h-1.85v7.54h-1.48v-7.54Z"/>
    <path d="M372.26,274.61v-4.84h-1.3v-1.12l1.37-.09.18-2.45h1.24v2.45h2.36v1.21h-2.36v4.86c0,1.08.34,1.69,1.35,1.69.31,0,.7-.13.99-.23l.29,1.12c-.49.16-1.08.32-1.62.32-1.87,0-2.5-1.19-2.5-2.92Z"/>
    <path d="M378.09,264.49h1.48v3.49l-.05,1.8c.83-.79,1.71-1.44,2.92-1.44,1.84,0,2.66,1.19,2.66,3.42v5.55h-1.48v-5.35c0-1.64-.5-2.34-1.66-2.34-.9,0-1.51.47-2.39,1.35v6.34h-1.48v-12.82Z"/>
    <path d="M387.24,272.95c0-2.86,1.93-4.61,3.93-4.61,2.23,0,3.49,1.6,3.49,4.11,0,.31-.02.63-.05.85h-5.91c.11,1.85,1.24,3.04,2.92,3.04.83,0,1.53-.27,2.18-.68l.52.97c-.76.49-1.69.9-2.88.9-2.34,0-4.2-1.71-4.2-4.57ZM393.36,272.23c0-1.76-.79-2.72-2.16-2.72-1.22,0-2.34.99-2.52,2.72h4.68Z"/>
    <path d="M400.41,268.56h1.22l.13,1.01h.05c.79-.67,1.76-1.22,2.79-1.22,2.25,0,3.46,1.75,3.46,4.47,0,2.97-1.78,4.72-3.78,4.72-.81,0-1.62-.38-2.43-1.01l.04,1.53v2.95h-1.48v-12.44ZM406.53,272.81c0-1.93-.65-3.22-2.3-3.22-.74,0-1.48.41-2.34,1.19v4.59c.79.67,1.57.92,2.14.92,1.44,0,2.5-1.31,2.5-3.48Z"/>
    <path d="M410.4,268.56h1.22l.13,1.58h.05c.59-1.1,1.49-1.8,2.48-1.8.38,0,.65.05.94.18l-.29,1.3c-.29-.09-.49-.14-.85-.14-.74,0-1.62.54-2.21,2.02v5.62h-1.48v-8.75Z"/>
    <path d="M416.41,265.79c0-.58.41-.97.99-.97s.99.4.99.97-.41.97-.99.97-.99-.38-.99-.97ZM416.65,268.56h1.48v8.75h-1.48v-8.75Z"/>
    <path d="M421.07,268.56h1.22l.13,1.26h.05c.83-.83,1.73-1.48,2.94-1.48,1.84,0,2.66,1.19,2.66,3.42v5.55h-1.48v-5.35c0-1.64-.5-2.34-1.66-2.34-.9,0-1.51.47-2.4,1.35v6.34h-1.48v-8.75Z"/>
    <path d="M431.17,274.61v-4.84h-1.3v-1.12l1.37-.09.18-2.45h1.24v2.45h2.36v1.21h-2.36v4.86c0,1.08.34,1.69,1.35,1.69.31,0,.7-.13.99-.23l.29,1.12c-.49.16-1.08.32-1.62.32-1.87,0-2.5-1.19-2.5-2.92Z"/>
    <path d="M436.77,265.79c0-.58.41-.97.99-.97s.99.4.99.97-.41.97-.99.97-.99-.38-.99-.97ZM437,268.56h1.48v8.75h-1.48v-8.75Z"/>
    <path d="M441.43,268.56h1.22l.13,1.26h.05c.83-.83,1.73-1.48,2.93-1.48,1.84,0,2.67,1.19,2.67,3.42v5.55h-1.48v-5.35c0-1.64-.5-2.34-1.66-2.34-.9,0-1.51.47-2.39,1.35v6.34h-1.48v-8.75Z"/>
    <path d="M450.61,278.99c0-.74.49-1.44,1.28-1.98v-.07c-.43-.27-.77-.74-.77-1.42,0-.74.5-1.31.95-1.62v-.07c-.58-.47-1.13-1.31-1.13-2.36,0-1.91,1.51-3.11,3.29-3.11.49,0,.92.09,1.24.22h3.04v1.13h-1.8c.41.4.72,1.06.72,1.8,0,1.87-1.42,3.04-3.21,3.04-.43,0-.92-.11-1.31-.31-.31.27-.56.56-.56,1.04,0,.56.36.95,1.55.95h1.69c2.03,0,3.06.63,3.06,2.09,0,1.62-1.71,3.02-4.43,3.02-2.14,0-3.62-.85-3.62-2.36ZM457.22,278.54c0-.81-.63-1.08-1.76-1.08h-1.51c-.34,0-.76-.04-1.13-.14-.63.45-.9.97-.9,1.48,0,.94.95,1.53,2.54,1.53,1.67,0,2.77-.86,2.77-1.78ZM456.09,271.46c0-1.28-.83-2.03-1.85-2.03s-1.85.76-1.85,2.03.85,2.09,1.85,2.09,1.85-.81,1.85-2.09Z"/>
    <path d="M463.41,275.04c0-1.91,1.64-2.86,5.37-3.28,0-1.12-.36-2.2-1.8-2.2-1.01,0-1.93.47-2.61.94l-.58-1.03c.81-.52,2.03-1.13,3.44-1.13,2.14,0,3.04,1.42,3.04,3.6v5.37h-1.22l-.13-1.04h-.05c-.83.68-1.8,1.26-2.9,1.26-1.46,0-2.56-.92-2.56-2.48ZM468.78,275.17v-2.43c-2.92.36-3.92,1.08-3.92,2.2,0,.99.68,1.4,1.55,1.4s1.53-.41,2.38-1.17Z"/>
    <path d="M473.02,268.56h1.22l.13,1.26h.05c.83-.83,1.73-1.48,2.94-1.48,1.84,0,2.67,1.19,2.67,3.42v5.55h-1.48v-5.35c0-1.64-.5-2.34-1.66-2.34-.9,0-1.51.47-2.39,1.35v6.34h-1.48v-8.75Z"/>
    <path d="M482.24,272.95c0-2.84,1.8-4.61,3.8-4.61,1.01,0,1.67.38,2.45,1.01l-.07-1.49v-3.37h1.49v12.82h-1.22l-.13-1.03h-.05c-.68.67-1.62,1.24-2.65,1.24-2.2,0-3.62-1.66-3.62-4.57ZM488.41,275.08v-4.57c-.74-.67-1.4-.92-2.12-.92-1.4,0-2.52,1.35-2.52,3.35s.88,3.35,2.41,3.35c.81,0,1.51-.4,2.23-1.21Z"/>
    <path d="M495.92,275.04c0-1.91,1.64-2.86,5.37-3.28,0-1.12-.36-2.2-1.8-2.2-1.01,0-1.93.47-2.61.94l-.58-1.03c.81-.52,2.03-1.13,3.44-1.13,2.14,0,3.04,1.42,3.04,3.6v5.37h-1.22l-.13-1.04h-.05c-.83.68-1.8,1.26-2.9,1.26-1.46,0-2.56-.92-2.56-2.48ZM501.28,275.17v-2.43c-2.92.36-3.93,1.08-3.93,2.2,0,.99.68,1.4,1.55,1.4s1.53-.41,2.38-1.17Z"/>
    <path d="M505.53,268.56h1.22l.13,1.01h.05c.79-.67,1.76-1.22,2.79-1.22,2.25,0,3.46,1.75,3.46,4.47,0,2.97-1.78,4.72-3.78,4.72-.81,0-1.62-.38-2.43-1.01l.04,1.53v2.95h-1.48v-12.44ZM511.65,272.81c0-1.93-.65-3.22-2.3-3.22-.74,0-1.48.41-2.34,1.19v4.59c.79.67,1.57.92,2.14.92,1.44,0,2.5-1.31,2.5-3.48Z"/>
    <path d="M515.52,268.56h1.22l.13,1.01h.05c.79-.67,1.76-1.22,2.79-1.22,2.25,0,3.46,1.75,3.46,4.47,0,2.97-1.78,4.72-3.78,4.72-.81,0-1.62-.38-2.43-1.01l.04,1.53v2.95h-1.48v-12.44ZM521.64,272.81c0-1.93-.65-3.22-2.3-3.22-.74,0-1.48.41-2.34,1.19v4.59c.79.67,1.57.92,2.14.92,1.44,0,2.5-1.31,2.5-3.48Z"/>
    <path d="M525.51,275.55v-11.06h1.48v11.16c0,.47.2.65.41.65.09,0,.16,0,.32-.04l.2,1.12c-.2.09-.45.14-.85.14-1.12,0-1.57-.7-1.57-1.98Z"/>
    <path d="M88.67,299.61v-4.84h-1.3v-1.12l1.37-.09.18-2.45h1.24v2.45h2.36v1.21h-2.36v4.86c0,1.08.34,1.69,1.35,1.69.31,0,.7-.13.99-.23l.29,1.12c-.49.16-1.08.32-1.62.32-1.87,0-2.5-1.19-2.5-2.92Z"/>
    <path d="M93.62,305.89l.29-1.17c.18.05.45.13.67.13.99,0,1.62-.79,1.98-1.87l.2-.65-3.51-8.77h1.53l1.78,4.84c.27.76.58,1.66.85,2.47h.07c.25-.79.5-1.69.74-2.47l1.57-4.84h1.44l-3.29,9.47c-.61,1.73-1.51,3.04-3.28,3.04-.4,0-.74-.07-1.03-.18Z"/>
    <path d="M102.91,293.56h1.22l.13,1.01h.05c.79-.67,1.76-1.22,2.79-1.22,2.25,0,3.46,1.75,3.46,4.47,0,2.97-1.78,4.72-3.78,4.72-.81,0-1.62-.38-2.43-1.01l.04,1.53v2.95h-1.48v-12.44ZM109.03,297.81c0-1.93-.65-3.22-2.3-3.22-.74,0-1.48.41-2.34,1.19v4.59c.79.67,1.57.92,2.14.92,1.44,0,2.5-1.31,2.5-3.48Z"/>
    <path d="M112.25,297.95c0-2.86,1.93-4.61,3.92-4.61,2.23,0,3.49,1.6,3.49,4.11,0,.31-.02.63-.05.85h-5.91c.11,1.85,1.24,3.04,2.92,3.04.83,0,1.53-.27,2.18-.68l.52.97c-.76.49-1.69.9-2.88.9-2.34,0-4.2-1.71-4.2-4.57ZM118.37,297.23c0-1.76-.79-2.72-2.16-2.72-1.22,0-2.34.99-2.52,2.72h4.68Z"/>
    <path d="M120.86,301.32l.74-.99c.76.61,1.53,1.04,2.57,1.04,1.15,0,1.73-.61,1.73-1.37,0-.9-1.04-1.3-2-1.66-1.24-.45-2.56-1.04-2.56-2.52s1.12-2.48,3.02-2.48c1.08,0,2.03.45,2.72.99l-.72.94c-.59-.45-1.22-.77-2-.77-1.1,0-1.6.59-1.6,1.26,0,.83.9,1.13,1.89,1.51,1.26.47,2.66.99,2.66,2.65,0,1.42-1.13,2.61-3.21,2.61-1.24,0-2.43-.52-3.26-1.21Z"/>
    <path d="M128.72,297.95c0-2.86,1.93-4.61,3.92-4.61,2.23,0,3.49,1.6,3.49,4.11,0,.31-.02.63-.05.85h-5.91c.11,1.85,1.24,3.04,2.92,3.04.83,0,1.53-.27,2.18-.68l.52.97c-.76.49-1.69.9-2.88.9-2.34,0-4.19-1.71-4.19-4.57ZM134.84,297.23c0-1.76-.79-2.72-2.16-2.72-1.22,0-2.34.99-2.52,2.72h4.68Z"/>
    <path d="M138.37,299.61v-4.84h-1.3v-1.12l1.37-.09.18-2.45h1.24v2.45h2.36v1.21h-2.36v4.86c0,1.08.34,1.69,1.35,1.69.31,0,.7-.13.99-.23l.29,1.12c-.49.16-1.08.32-1.62.32-1.87,0-2.5-1.19-2.5-2.92Z"/>
    <path d="M144.09,299.61v-4.84h-1.3v-1.12l1.37-.09.18-2.45h1.24v2.45h2.36v1.21h-2.36v4.86c0,1.08.34,1.69,1.35,1.69.31,0,.7-.13.99-.23l.29,1.12c-.49.16-1.08.32-1.62.32-1.87,0-2.5-1.19-2.5-2.92Z"/>
    <path d="M149.69,290.79c0-.58.41-.97.99-.97s.99.4.99.97-.41.97-.99.97-.99-.38-.99-.97ZM149.93,293.56h1.48v8.75h-1.48v-8.75Z"/>
    <path d="M154.35,293.56h1.22l.13,1.26h.05c.83-.83,1.73-1.48,2.94-1.48,1.84,0,2.66,1.19,2.66,3.42v5.55h-1.48v-5.35c0-1.64-.5-2.34-1.66-2.34-.9,0-1.51.47-2.39,1.35v6.34h-1.48v-8.75Z"/>
    <path d="M163.53,303.99c0-.74.49-1.44,1.28-1.98v-.07c-.43-.27-.77-.74-.77-1.42,0-.74.5-1.31.95-1.62v-.07c-.58-.47-1.13-1.31-1.13-2.36,0-1.91,1.51-3.11,3.29-3.11.49,0,.92.09,1.24.22h3.04v1.13h-1.8c.41.4.72,1.06.72,1.8,0,1.87-1.42,3.04-3.21,3.04-.43,0-.92-.11-1.31-.31-.31.27-.56.56-.56,1.04,0,.56.36.95,1.55.95h1.69c2.03,0,3.06.63,3.06,2.09,0,1.62-1.71,3.02-4.43,3.02-2.14,0-3.62-.85-3.62-2.36ZM170.14,303.54c0-.81-.63-1.08-1.76-1.08h-1.51c-.34,0-.76-.04-1.13-.14-.63.45-.9.97-.9,1.48,0,.94.95,1.53,2.54,1.53,1.67,0,2.77-.86,2.77-1.78ZM169.01,296.46c0-1.28-.83-2.03-1.85-2.03s-1.85.76-1.85,2.03.85,2.09,1.85,2.09,1.85-.81,1.85-2.09Z"/>
    <path d="M176.64,290.79c0-.58.41-.97.99-.97s.99.4.99.97-.41.97-.99.97-.99-.38-.99-.97ZM176.87,293.56h1.48v8.75h-1.48v-8.75Z"/>
    <path d="M181.3,293.56h1.22l.13,1.26h.05c.83-.83,1.73-1.48,2.94-1.48,1.84,0,2.67,1.19,2.67,3.42v5.55h-1.48v-5.35c0-1.64-.5-2.34-1.66-2.34-.9,0-1.51.47-2.39,1.35v6.34h-1.48v-8.75Z"/>
    <path d="M190.52,297.95c0-2.84,1.8-4.61,3.8-4.61,1.01,0,1.67.38,2.45,1.01l-.07-1.49v-3.37h1.49v12.82h-1.22l-.13-1.03h-.05c-.68.67-1.62,1.24-2.65,1.24-2.2,0-3.62-1.66-3.62-4.57ZM196.69,300.08v-4.57c-.74-.67-1.4-.92-2.12-.92-1.4,0-2.52,1.35-2.52,3.35s.88,3.35,2.41,3.35c.81,0,1.51-.4,2.23-1.21Z"/>
    <path d="M201.01,299.11v-5.55h1.49v5.35c0,1.64.49,2.34,1.64,2.34.9,0,1.53-.45,2.36-1.48v-6.21h1.48v8.75h-1.22l-.13-1.37h-.05c-.81.95-1.67,1.58-2.88,1.58-1.85,0-2.68-1.19-2.68-3.42Z"/>
    <path d="M209.96,301.32l.74-.99c.76.61,1.53,1.04,2.58,1.04,1.15,0,1.73-.61,1.73-1.37,0-.9-1.04-1.3-2-1.66-1.24-.45-2.56-1.04-2.56-2.52s1.12-2.48,3.02-2.48c1.08,0,2.03.45,2.72.99l-.72.94c-.59-.45-1.22-.77-2-.77-1.1,0-1.6.59-1.6,1.26,0,.83.9,1.13,1.89,1.51,1.26.47,2.67.99,2.67,2.65,0,1.42-1.13,2.61-3.21,2.61-1.24,0-2.43-.52-3.26-1.21Z"/>
    <path d="M218.36,299.61v-4.84h-1.3v-1.12l1.37-.09.18-2.45h1.24v2.45h2.36v1.21h-2.36v4.86c0,1.08.34,1.69,1.35,1.69.31,0,.7-.13.99-.23l.29,1.12c-.49.16-1.08.32-1.62.32-1.87,0-2.5-1.19-2.5-2.92Z"/>
    <path d="M224.01,301.41c0-.68.49-1.15,1.08-1.15s1.06.47,1.06,1.15c0,.65-.49,1.12-1.06,1.12s-1.08-.47-1.08-1.12Z"/>
    <path d="M232.55,290.5h1.49v10.53h5.17v1.28h-6.66v-11.81Z"/>
    <path d="M240.29,297.95c0-2.94,1.91-4.61,4.05-4.61s4.05,1.67,4.05,4.61-1.91,4.57-4.05,4.57-4.05-1.67-4.05-4.57ZM246.86,297.95c0-2.02-1.01-3.38-2.52-3.38s-2.52,1.37-2.52,3.38,1.03,3.35,2.52,3.35,2.52-1.35,2.52-3.35Z"/>
    <path d="M250.69,293.56h1.22l.13,1.58h.05c.59-1.1,1.49-1.8,2.48-1.8.38,0,.65.05.94.18l-.29,1.3c-.29-.09-.49-.14-.85-.14-.74,0-1.62.54-2.21,2.02v5.62h-1.48v-8.75Z"/>
    <path d="M256.11,297.95c0-2.86,1.93-4.61,3.93-4.61,2.23,0,3.49,1.6,3.49,4.11,0,.31-.02.63-.05.85h-5.91c.11,1.85,1.24,3.04,2.92,3.04.83,0,1.53-.27,2.18-.68l.52.97c-.76.49-1.69.9-2.88.9-2.34,0-4.2-1.71-4.2-4.57ZM262.23,297.23c0-1.76-.79-2.72-2.16-2.72-1.22,0-2.34.99-2.52,2.72h4.68Z"/>
    <path d="M265.68,293.56h1.22l.13,1.26h.05c.76-.83,1.67-1.48,2.72-1.48,1.33,0,2.05.63,2.41,1.67.92-.99,1.82-1.67,2.88-1.67,1.8,0,2.66,1.19,2.66,3.42v5.55h-1.48v-5.35c0-1.64-.52-2.34-1.62-2.34-.68,0-1.39.45-2.2,1.35v6.34h-1.48v-5.35c0-1.64-.52-2.34-1.64-2.34-.65,0-1.39.45-2.2,1.35v6.34h-1.48v-8.75Z"/>
    <path d="M284.35,290.5h1.49v11.81h-1.49v-11.81Z"/>
    <path d="M288.94,293.56h1.22l.13,1.01h.05c.79-.67,1.76-1.22,2.79-1.22,2.25,0,3.46,1.75,3.46,4.47,0,2.97-1.78,4.72-3.78,4.72-.81,0-1.62-.38-2.43-1.01l.04,1.53v2.95h-1.48v-12.44ZM295.06,297.81c0-1.93-.65-3.22-2.3-3.22-.74,0-1.48.41-2.34,1.19v4.59c.79.67,1.57.92,2.14.92,1.44,0,2.5-1.31,2.5-3.48Z"/>
    <path d="M297.96,301.32l.74-.99c.76.61,1.53,1.04,2.57,1.04,1.15,0,1.73-.61,1.73-1.37,0-.9-1.04-1.3-2-1.66-1.24-.45-2.56-1.04-2.56-2.52s1.12-2.48,3.02-2.48c1.08,0,2.03.45,2.72.99l-.72.94c-.59-.45-1.22-.77-2-.77-1.1,0-1.6.59-1.6,1.26,0,.83.9,1.13,1.89,1.51,1.26.47,2.67.99,2.67,2.65,0,1.42-1.13,2.61-3.21,2.61-1.24,0-2.43-.52-3.26-1.21Z"/>
    <path d="M306.34,299.11v-5.55h1.49v5.35c0,1.64.49,2.34,1.64,2.34.9,0,1.53-.45,2.36-1.48v-6.21h1.48v8.75h-1.22l-.13-1.37h-.05c-.81.95-1.67,1.58-2.88,1.58-1.85,0-2.68-1.19-2.68-3.42Z"/>
    <path d="M316.26,293.56h1.22l.13,1.26h.05c.76-.83,1.67-1.48,2.72-1.48,1.33,0,2.05.63,2.41,1.67.92-.99,1.82-1.67,2.88-1.67,1.8,0,2.67,1.19,2.67,3.42v5.55h-1.48v-5.35c0-1.64-.52-2.34-1.62-2.34-.68,0-1.39.45-2.2,1.35v6.34h-1.48v-5.35c0-1.64-.52-2.34-1.64-2.34-.65,0-1.39.45-2.2,1.35v6.34h-1.48v-8.75Z"/>
    <path d="M334.78,289.49h1.48v3.49l-.05,1.8c.83-.79,1.71-1.44,2.92-1.44,1.84,0,2.67,1.19,2.67,3.42v5.55h-1.48v-5.35c0-1.64-.5-2.34-1.66-2.34-.9,0-1.51.47-2.39,1.35v6.34h-1.48v-12.82Z"/>
    <path d="M344.04,300.04c0-1.91,1.64-2.86,5.37-3.28,0-1.12-.36-2.2-1.8-2.2-1.01,0-1.93.47-2.61.94l-.58-1.03c.81-.52,2.03-1.13,3.44-1.13,2.14,0,3.04,1.42,3.04,3.6v5.37h-1.22l-.13-1.04h-.05c-.83.68-1.8,1.26-2.9,1.26-1.46,0-2.56-.92-2.56-2.48ZM349.4,300.17v-2.43c-2.92.36-3.92,1.08-3.92,2.2,0,.99.68,1.4,1.55,1.4s1.53-.41,2.38-1.17Z"/>
    <path d="M352.68,301.32l.74-.99c.76.61,1.53,1.04,2.57,1.04,1.15,0,1.73-.61,1.73-1.37,0-.9-1.04-1.3-2-1.66-1.24-.45-2.56-1.04-2.56-2.52s1.12-2.48,3.02-2.48c1.08,0,2.03.45,2.72.99l-.72.94c-.59-.45-1.22-.77-2-.77-1.1,0-1.6.59-1.6,1.26,0,.83.9,1.13,1.89,1.51,1.26.47,2.66.99,2.66,2.65,0,1.42-1.13,2.61-3.21,2.61-1.24,0-2.43-.52-3.26-1.21Z"/>
    <path d="M366.16,301.41h-.05l-.13.9h-1.19v-12.82h1.48v3.49l-.04,1.58c.79-.7,1.76-1.22,2.74-1.22,2.27,0,3.47,1.75,3.47,4.45,0,2.99-1.78,4.74-3.78,4.74-.81,0-1.73-.41-2.5-1.12ZM370.91,297.81c0-1.93-.65-3.22-2.3-3.22-.74,0-1.51.41-2.34,1.19v4.59c.77.67,1.57.92,2.14.92,1.44,0,2.5-1.31,2.5-3.48Z"/>
    <path d="M374.1,297.95c0-2.86,1.93-4.61,3.92-4.61,2.23,0,3.49,1.6,3.49,4.11,0,.31-.02.63-.05.85h-5.91c.11,1.85,1.24,3.04,2.92,3.04.83,0,1.53-.27,2.18-.68l.52.97c-.76.49-1.69.9-2.88.9-2.34,0-4.19-1.71-4.19-4.57ZM380.22,297.23c0-1.76-.79-2.72-2.16-2.72-1.22,0-2.34.99-2.52,2.72h4.68Z"/>
    <path d="M383.02,297.95c0-2.86,1.93-4.61,3.92-4.61,2.23,0,3.49,1.6,3.49,4.11,0,.31-.02.63-.05.85h-5.91c.11,1.85,1.24,3.04,2.92,3.04.83,0,1.53-.27,2.18-.68l.52.97c-.76.49-1.69.9-2.88.9-2.34,0-4.19-1.71-4.19-4.57ZM389.14,297.23c0-1.76-.79-2.72-2.16-2.72-1.22,0-2.34.99-2.52,2.72h4.68Z"/>
    <path d="M392.6,293.56h1.22l.13,1.26h.05c.83-.83,1.73-1.48,2.94-1.48,1.84,0,2.66,1.19,2.66,3.42v5.55h-1.48v-5.35c0-1.64-.5-2.34-1.66-2.34-.9,0-1.51.47-2.39,1.35v6.34h-1.48v-8.75Z"/>
    <path d="M406.3,299.61v-4.84h-1.3v-1.12l1.37-.09.18-2.45h1.24v2.45h2.36v1.21h-2.36v4.86c0,1.08.34,1.69,1.35,1.69.31,0,.7-.13.99-.23l.29,1.12c-.49.16-1.08.32-1.62.32-1.87,0-2.5-1.19-2.5-2.92Z"/>
    <path d="M412.13,289.49h1.48v3.49l-.05,1.8c.83-.79,1.71-1.44,2.92-1.44,1.84,0,2.67,1.19,2.67,3.42v5.55h-1.48v-5.35c0-1.64-.5-2.34-1.66-2.34-.9,0-1.51.47-2.4,1.35v6.34h-1.48v-12.82Z"/>
    <path d="M421.27,297.95c0-2.86,1.93-4.61,3.92-4.61,2.23,0,3.49,1.6,3.49,4.11,0,.31-.02.63-.05.85h-5.91c.11,1.85,1.24,3.04,2.92,3.04.83,0,1.53-.27,2.18-.68l.52.97c-.76.49-1.69.9-2.88.9-2.34,0-4.2-1.71-4.2-4.57ZM427.39,297.23c0-1.76-.79-2.72-2.16-2.72-1.22,0-2.34.99-2.52,2.72h4.68Z"/>
    <path d="M434.21,290.79c0-.58.41-.97.99-.97s.99.4.99.97-.41.97-.99.97-.99-.38-.99-.97ZM434.45,293.56h1.48v8.75h-1.48v-8.75Z"/>
    <path d="M438.88,293.56h1.22l.13,1.26h.05c.83-.83,1.73-1.48,2.94-1.48,1.84,0,2.66,1.19,2.66,3.42v5.55h-1.48v-5.35c0-1.64-.5-2.34-1.66-2.34-.9,0-1.51.47-2.39,1.35v6.34h-1.48v-8.75Z"/>
    <path d="M448.06,303.99c0-.74.49-1.44,1.28-1.98v-.07c-.43-.27-.77-.74-.77-1.42,0-.74.5-1.31.95-1.62v-.07c-.58-.47-1.13-1.31-1.13-2.36,0-1.91,1.51-3.11,3.29-3.11.49,0,.92.09,1.24.22h3.04v1.13h-1.8c.41.4.72,1.06.72,1.8,0,1.87-1.42,3.04-3.21,3.04-.43,0-.92-.11-1.31-.31-.31.27-.56.56-.56,1.04,0,.56.36.95,1.55.95h1.69c2.03,0,3.06.63,3.06,2.09,0,1.62-1.71,3.02-4.43,3.02-2.14,0-3.62-.85-3.62-2.36ZM454.66,303.54c0-.81-.63-1.08-1.76-1.08h-1.51c-.34,0-.76-.04-1.13-.14-.63.45-.9.97-.9,1.48,0,.94.95,1.53,2.54,1.53,1.67,0,2.77-.86,2.77-1.78ZM453.53,296.46c0-1.28-.83-2.03-1.85-2.03s-1.85.76-1.85,2.03.85,2.09,1.85,2.09,1.85-.81,1.85-2.09Z"/>
    <path d="M457.67,299.11v-5.55h1.49v5.35c0,1.64.49,2.34,1.64,2.34.9,0,1.53-.45,2.36-1.48v-6.21h1.48v8.75h-1.22l-.13-1.37h-.05c-.81.95-1.67,1.58-2.88,1.58-1.85,0-2.68-1.19-2.68-3.42Z"/>
    <path d="M466.61,301.32l.74-.99c.76.61,1.53,1.04,2.57,1.04,1.15,0,1.73-.61,1.73-1.37,0-.9-1.04-1.3-2-1.66-1.24-.45-2.56-1.04-2.56-2.52s1.12-2.48,3.02-2.48c1.08,0,2.03.45,2.72.99l-.72.94c-.59-.45-1.22-.77-2-.77-1.1,0-1.6.59-1.6,1.26,0,.83.9,1.13,1.89,1.51,1.26.47,2.66.99,2.66,2.65,0,1.42-1.13,2.61-3.21,2.61-1.24,0-2.43-.52-3.26-1.21Z"/>
    <path d="M475.02,299.61v-4.84h-1.3v-1.12l1.37-.09.18-2.45h1.24v2.45h2.36v1.21h-2.36v4.86c0,1.08.34,1.69,1.35,1.69.31,0,.7-.13.99-.23l.29,1.12c-.49.16-1.08.32-1.62.32-1.87,0-2.5-1.19-2.5-2.92Z"/>
    <path d="M480.85,293.56h1.22l.13,1.58h.05c.59-1.1,1.49-1.8,2.48-1.8.38,0,.65.05.94.18l-.29,1.3c-.29-.09-.49-.14-.85-.14-.74,0-1.62.54-2.21,2.02v5.62h-1.48v-8.75Z"/>
    <path d="M486.67,305.89l.29-1.17c.18.05.45.13.67.13.99,0,1.62-.79,1.98-1.87l.2-.65-3.51-8.77h1.53l1.78,4.84c.27.76.58,1.66.85,2.47h.07c.25-.79.5-1.69.74-2.47l1.57-4.84h1.44l-3.29,9.47c-.61,1.73-1.51,3.04-3.28,3.04-.4,0-.74-.07-1.03-.18Z"/>
    <path d="M495.97,291.54l-.05-1.66h1.58l-.05,1.66-.29,3.01h-.9l-.29-3.01Z"/>
    <path d="M499.1,301.32l.74-.99c.76.61,1.53,1.04,2.57,1.04,1.15,0,1.73-.61,1.73-1.37,0-.9-1.04-1.3-2-1.66-1.24-.45-2.56-1.04-2.56-2.52s1.12-2.48,3.03-2.48c1.08,0,2.03.45,2.72.99l-.72.94c-.59-.45-1.22-.77-2-.77-1.1,0-1.6.59-1.6,1.26,0,.83.9,1.13,1.89,1.51,1.26.47,2.66.99,2.66,2.65,0,1.42-1.13,2.61-3.21,2.61-1.24,0-2.43-.52-3.26-1.21Z"/>
  </g>
  <rect class="cls-2" x="16.31" y="103.14" width="539.69" height="47" rx="6" ry="6"/>
  <g>
    <path class="cls-10" d="M88.57,119.5h1.49v10.53h5.17v1.28h-6.66v-11.81Z"/>
    <path class="cls-10" d="M96.31,126.95c0-2.94,1.91-4.61,4.05-4.61s4.05,1.67,4.05,4.61-1.91,4.57-4.05,4.57-4.05-1.67-4.05-4.57ZM102.88,126.95c0-2.02-1.01-3.38-2.52-3.38s-2.52,1.37-2.52,3.38,1.03,3.35,2.52,3.35,2.52-1.35,2.52-3.35Z"/>
    <path class="cls-10" d="M106.71,122.56h1.22l.13,1.58h.05c.59-1.1,1.49-1.8,2.48-1.8.38,0,.65.05.94.18l-.29,1.3c-.29-.09-.49-.14-.85-.14-.74,0-1.62.54-2.21,2.02v5.62h-1.48v-8.75Z"/>
    <path class="cls-10" d="M112.13,126.95c0-2.86,1.93-4.61,3.92-4.61,2.23,0,3.49,1.6,3.49,4.11,0,.31-.02.63-.05.85h-5.91c.11,1.85,1.24,3.04,2.92,3.04.83,0,1.53-.27,2.18-.68l.52.97c-.76.49-1.69.9-2.88.9-2.34,0-4.19-1.71-4.19-4.57ZM118.25,126.23c0-1.76-.79-2.72-2.16-2.72-1.22,0-2.34.99-2.52,2.72h4.68Z"/>
    <path class="cls-10" d="M121.7,122.56h1.22l.13,1.26h.05c.76-.83,1.67-1.48,2.72-1.48,1.33,0,2.05.63,2.41,1.67.92-.99,1.82-1.67,2.88-1.67,1.8,0,2.66,1.19,2.66,3.42v5.55h-1.48v-5.35c0-1.64-.52-2.34-1.62-2.34-.68,0-1.39.45-2.2,1.35v6.34h-1.48v-5.35c0-1.64-.52-2.34-1.64-2.34-.65,0-1.39.45-2.2,1.35v6.34h-1.48v-8.75Z"/>
    <path class="cls-10" d="M140.37,119.5h1.49v11.81h-1.49v-11.81Z"/>
    <path class="cls-10" d="M144.96,122.56h1.22l.13,1.01h.05c.79-.67,1.76-1.22,2.79-1.22,2.25,0,3.46,1.75,3.46,4.47,0,2.97-1.78,4.72-3.78,4.72-.81,0-1.62-.38-2.43-1.01l.04,1.53v2.95h-1.48v-12.44ZM151.08,126.81c0-1.93-.65-3.22-2.3-3.22-.74,0-1.48.41-2.34,1.19v4.59c.79.67,1.57.92,2.14.92,1.44,0,2.5-1.31,2.5-3.48Z"/>
    <path class="cls-10" d="M153.98,130.32l.74-.99c.76.61,1.53,1.04,2.57,1.04,1.15,0,1.73-.61,1.73-1.37,0-.9-1.04-1.3-2-1.66-1.24-.45-2.56-1.04-2.56-2.52s1.12-2.48,3.02-2.48c1.08,0,2.03.45,2.72.99l-.72.94c-.59-.45-1.22-.77-2-.77-1.1,0-1.6.59-1.6,1.26,0,.83.9,1.13,1.89,1.51,1.26.47,2.67.99,2.67,2.65,0,1.42-1.13,2.61-3.21,2.61-1.24,0-2.43-.52-3.26-1.21Z"/>
    <path class="cls-10" d="M162.36,128.11v-5.55h1.49v5.35c0,1.64.49,2.34,1.64,2.34.9,0,1.53-.45,2.36-1.48v-6.21h1.48v8.75h-1.22l-.13-1.37h-.05c-.81.95-1.67,1.58-2.88,1.58-1.85,0-2.68-1.19-2.68-3.42Z"/>
    <path class="cls-10" d="M172.28,122.56h1.22l.13,1.26h.05c.76-.83,1.67-1.48,2.72-1.48,1.33,0,2.05.63,2.41,1.67.92-.99,1.82-1.67,2.88-1.67,1.8,0,2.67,1.19,2.67,3.42v5.55h-1.48v-5.35c0-1.64-.52-2.34-1.62-2.34-.68,0-1.39.45-2.2,1.35v6.34h-1.48v-5.35c0-1.64-.52-2.34-1.64-2.34-.65,0-1.39.45-2.2,1.35v6.34h-1.48v-8.75Z"/>
    <path class="cls-10" d="M190.57,119.79c0-.58.41-.97.99-.97s.99.4.99.97-.41.97-.99.97-.99-.38-.99-.97ZM190.8,122.56h1.48v8.75h-1.48v-8.75Z"/>
    <path class="cls-10" d="M194.26,130.32l.74-.99c.76.61,1.53,1.04,2.57,1.04,1.15,0,1.73-.61,1.73-1.37,0-.9-1.04-1.3-2-1.66-1.24-.45-2.56-1.04-2.56-2.52s1.12-2.48,3.02-2.48c1.08,0,2.03.45,2.72.99l-.72.94c-.59-.45-1.22-.77-2-.77-1.1,0-1.6.59-1.6,1.26,0,.83.9,1.13,1.89,1.51,1.26.47,2.66.99,2.66,2.65,0,1.42-1.13,2.61-3.21,2.61-1.24,0-2.43-.52-3.26-1.21Z"/>
    <path class="cls-10" d="M205.4,130.32l.74-.99c.76.61,1.53,1.04,2.57,1.04,1.15,0,1.73-.61,1.73-1.37,0-.9-1.04-1.3-2-1.66-1.24-.45-2.56-1.04-2.56-2.52s1.12-2.48,3.02-2.48c1.08,0,2.03.45,2.72.99l-.72.94c-.59-.45-1.22-.77-2-.77-1.1,0-1.6.59-1.6,1.26,0,.83.9,1.13,1.89,1.51,1.26.47,2.67.99,2.67,2.65,0,1.42-1.13,2.61-3.21,2.61-1.24,0-2.43-.52-3.26-1.21Z"/>
    <path class="cls-10" d="M213.68,119.79c0-.58.41-.97.99-.97s.99.4.99.97-.41.97-.99.97-.99-.38-.99-.97ZM213.92,122.56h1.48v8.75h-1.48v-8.75Z"/>
    <path class="cls-10" d="M218.34,122.56h1.22l.13,1.26h.05c.76-.83,1.67-1.48,2.72-1.48,1.33,0,2.05.63,2.41,1.67.92-.99,1.82-1.67,2.88-1.67,1.8,0,2.67,1.19,2.67,3.42v5.55h-1.48v-5.35c0-1.64-.52-2.34-1.62-2.34-.68,0-1.39.45-2.2,1.35v6.34h-1.48v-5.35c0-1.64-.52-2.34-1.64-2.34-.65,0-1.39.45-2.2,1.35v6.34h-1.48v-8.75Z"/>
    <path class="cls-10" d="M233.26,122.56h1.22l.13,1.01h.05c.79-.67,1.76-1.22,2.79-1.22,2.25,0,3.46,1.75,3.46,4.47,0,2.97-1.78,4.72-3.78,4.72-.81,0-1.62-.38-2.43-1.01l.04,1.53v2.95h-1.48v-12.44ZM239.39,126.81c0-1.93-.65-3.22-2.3-3.22-.74,0-1.48.41-2.34,1.19v4.59c.79.67,1.57.92,2.14.92,1.44,0,2.5-1.31,2.5-3.48Z"/>
    <path class="cls-10" d="M243.25,129.55v-11.06h1.48v11.16c0,.47.2.65.41.65.09,0,.16,0,.32-.04l.2,1.12c-.2.09-.45.14-.85.14-1.12,0-1.57-.7-1.57-1.98Z"/>
    <path class="cls-10" d="M246.96,134.89l.29-1.17c.18.05.45.13.67.13.99,0,1.62-.79,1.98-1.87l.2-.65-3.51-8.77h1.53l1.78,4.84c.27.76.58,1.66.85,2.47h.07c.25-.79.5-1.69.74-2.47l1.57-4.84h1.44l-3.29,9.47c-.61,1.73-1.51,3.04-3.28,3.04-.4,0-.74-.07-1.03-.18Z"/>
    <path class="cls-10" d="M259.22,126.95c0-2.84,1.8-4.61,3.8-4.61,1.01,0,1.67.38,2.45,1.01l-.07-1.49v-3.37h1.49v12.82h-1.22l-.13-1.03h-.05c-.68.67-1.62,1.24-2.65,1.24-2.2,0-3.62-1.66-3.62-4.57ZM265.4,129.08v-4.57c-.74-.67-1.4-.92-2.12-.92-1.4,0-2.52,1.35-2.52,3.35s.88,3.35,2.41,3.35c.81,0,1.51-.4,2.23-1.21Z"/>
    <path class="cls-10" d="M269.71,128.11v-5.55h1.49v5.35c0,1.64.49,2.34,1.64,2.34.9,0,1.53-.45,2.36-1.48v-6.21h1.48v8.75h-1.22l-.13-1.37h-.05c-.81.95-1.67,1.58-2.88,1.58-1.85,0-2.68-1.19-2.68-3.42Z"/>
    <path class="cls-10" d="M279.63,122.56h1.22l.13,1.26h.05c.76-.83,1.67-1.48,2.72-1.48,1.33,0,2.05.63,2.41,1.67.92-.99,1.82-1.67,2.88-1.67,1.8,0,2.67,1.19,2.67,3.42v5.55h-1.48v-5.35c0-1.64-.52-2.34-1.62-2.34-.68,0-1.39.45-2.2,1.35v6.34h-1.48v-5.35c0-1.64-.52-2.34-1.64-2.34-.65,0-1.39.45-2.2,1.35v6.34h-1.48v-8.75Z"/>
    <path class="cls-10" d="M294.55,122.56h1.22l.13,1.26h.05c.76-.83,1.67-1.48,2.72-1.48,1.33,0,2.05.63,2.41,1.67.92-.99,1.82-1.67,2.88-1.67,1.8,0,2.67,1.19,2.67,3.42v5.55h-1.48v-5.35c0-1.64-.52-2.34-1.62-2.34-.68,0-1.39.45-2.2,1.35v6.34h-1.48v-5.35c0-1.64-.52-2.34-1.64-2.34-.65,0-1.39.45-2.2,1.35v6.34h-1.48v-8.75Z"/>
    <path class="cls-10" d="M308.59,134.89l.29-1.17c.18.05.45.13.67.13.99,0,1.62-.79,1.98-1.87l.2-.65-3.51-8.77h1.53l1.78,4.84c.27.76.58,1.66.85,2.47h.07c.25-.79.5-1.69.74-2.47l1.57-4.84h1.44l-3.29,9.47c-.61,1.73-1.51,3.04-3.28,3.04-.4,0-.74-.07-1.03-.18Z"/>
    <path class="cls-10" d="M321.73,128.61v-4.84h-1.3v-1.12l1.37-.09.18-2.45h1.24v2.45h2.36v1.21h-2.36v4.86c0,1.08.34,1.69,1.35,1.69.31,0,.7-.13.99-.23l.29,1.12c-.49.16-1.08.32-1.62.32-1.87,0-2.5-1.19-2.5-2.92Z"/>
    <path class="cls-10" d="M326.67,126.95c0-2.86,1.93-4.61,3.93-4.61,2.23,0,3.49,1.6,3.49,4.11,0,.31-.02.63-.05.85h-5.91c.11,1.85,1.24,3.04,2.92,3.04.83,0,1.53-.27,2.18-.68l.52.97c-.76.49-1.69.9-2.88.9-2.34,0-4.2-1.71-4.2-4.57ZM332.79,126.23c0-1.76-.79-2.72-2.16-2.72-1.22,0-2.34.99-2.52,2.72h4.68Z"/>
    <path class="cls-10" d="M337.75,126.74l-2.65-4.18h1.6l1.17,1.93c.27.47.56.97.86,1.46h.07c.25-.49.52-.99.79-1.46l1.06-1.93h1.55l-2.65,4.34,2.85,4.41h-1.6l-1.28-2.03c-.31-.52-.63-1.06-.95-1.57h-.07c-.31.5-.59,1.03-.88,1.57l-1.19,2.03h-1.55l2.86-4.57Z"/>
    <path class="cls-10" d="M343.96,128.61v-4.84h-1.3v-1.12l1.37-.09.18-2.45h1.24v2.45h2.36v1.21h-2.36v4.86c0,1.08.34,1.69,1.35,1.69.31,0,.7-.13.99-.23l.29,1.12c-.49.16-1.08.32-1.62.32-1.87,0-2.5-1.19-2.5-2.92Z"/>
    <path class="cls-10" d="M352.75,126.95c0-2.94,1.91-4.61,4.05-4.61s4.05,1.67,4.05,4.61-1.91,4.57-4.05,4.57-4.05-1.67-4.05-4.57ZM359.32,126.95c0-2.02-1.01-3.38-2.52-3.38s-2.52,1.37-2.52,3.38,1.03,3.35,2.52,3.35,2.52-1.35,2.52-3.35Z"/>
    <path class="cls-10" d="M363.4,123.77h-1.19v-1.12l1.19-.09v-1.39c0-1.78.81-2.9,2.56-2.9.54,0,1.06.13,1.46.29l-.32,1.13c-.32-.14-.67-.22-.99-.22-.83,0-1.22.58-1.22,1.69v1.39h1.85v1.21h-1.85v7.54h-1.48v-7.54Z"/>
    <path class="cls-10" d="M372.26,128.61v-4.84h-1.3v-1.12l1.37-.09.18-2.45h1.24v2.45h2.36v1.21h-2.36v4.86c0,1.08.34,1.69,1.35,1.69.31,0,.7-.13.99-.23l.29,1.12c-.49.16-1.08.32-1.62.32-1.87,0-2.5-1.19-2.5-2.92Z"/>
    <path class="cls-10" d="M378.09,118.49h1.48v3.49l-.05,1.8c.83-.79,1.71-1.44,2.92-1.44,1.84,0,2.66,1.19,2.66,3.42v5.55h-1.48v-5.35c0-1.64-.5-2.34-1.66-2.34-.9,0-1.51.47-2.39,1.35v6.34h-1.48v-12.82Z"/>
    <path class="cls-10" d="M387.24,126.95c0-2.86,1.93-4.61,3.93-4.61,2.23,0,3.49,1.6,3.49,4.11,0,.31-.02.63-.05.85h-5.91c.11,1.85,1.24,3.04,2.92,3.04.83,0,1.53-.27,2.18-.68l.52.97c-.76.49-1.69.9-2.88.9-2.34,0-4.2-1.71-4.2-4.57ZM393.36,126.23c0-1.76-.79-2.72-2.16-2.72-1.22,0-2.34.99-2.52,2.72h4.68Z"/>
    <path class="cls-10" d="M400.41,122.56h1.22l.13,1.01h.05c.79-.67,1.76-1.22,2.79-1.22,2.25,0,3.46,1.75,3.46,4.47,0,2.97-1.78,4.72-3.78,4.72-.81,0-1.62-.38-2.43-1.01l.04,1.53v2.95h-1.48v-12.44ZM406.53,126.81c0-1.93-.65-3.22-2.3-3.22-.74,0-1.48.41-2.34,1.19v4.59c.79.67,1.57.92,2.14.92,1.44,0,2.5-1.31,2.5-3.48Z"/>
    <path class="cls-10" d="M410.4,122.56h1.22l.13,1.58h.05c.59-1.1,1.49-1.8,2.48-1.8.38,0,.65.05.94.18l-.29,1.3c-.29-.09-.49-.14-.85-.14-.74,0-1.62.54-2.21,2.02v5.62h-1.48v-8.75Z"/>
    <path class="cls-10" d="M416.41,119.79c0-.58.41-.97.99-.97s.99.4.99.97-.41.97-.99.97-.99-.38-.99-.97ZM416.65,122.56h1.48v8.75h-1.48v-8.75Z"/>
    <path class="cls-10" d="M421.07,122.56h1.22l.13,1.26h.05c.83-.83,1.73-1.48,2.94-1.48,1.84,0,2.66,1.19,2.66,3.42v5.55h-1.48v-5.35c0-1.64-.5-2.34-1.66-2.34-.9,0-1.51.47-2.4,1.35v6.34h-1.48v-8.75Z"/>
    <path class="cls-10" d="M431.17,128.61v-4.84h-1.3v-1.12l1.37-.09.18-2.45h1.24v2.45h2.36v1.21h-2.36v4.86c0,1.08.34,1.69,1.35,1.69.31,0,.7-.13.99-.23l.29,1.12c-.49.16-1.08.32-1.62.32-1.87,0-2.5-1.19-2.5-2.92Z"/>
    <path class="cls-10" d="M436.77,119.79c0-.58.41-.97.99-.97s.99.4.99.97-.41.97-.99.97-.99-.38-.99-.97ZM437,122.56h1.48v8.75h-1.48v-8.75Z"/>
    <path class="cls-10" d="M441.43,122.56h1.22l.13,1.26h.05c.83-.83,1.73-1.48,2.93-1.48,1.84,0,2.67,1.19,2.67,3.42v5.55h-1.48v-5.35c0-1.64-.5-2.34-1.66-2.34-.9,0-1.51.47-2.39,1.35v6.34h-1.48v-8.75Z"/>
    <path class="cls-10" d="M450.61,132.99c0-.74.49-1.44,1.28-1.98v-.07c-.43-.27-.77-.74-.77-1.42,0-.74.5-1.31.95-1.62v-.07c-.58-.47-1.13-1.31-1.13-2.36,0-1.91,1.51-3.11,3.29-3.11.49,0,.92.09,1.24.22h3.04v1.13h-1.8c.41.4.72,1.06.72,1.8,0,1.87-1.42,3.04-3.21,3.04-.43,0-.92-.11-1.31-.31-.31.27-.56.56-.56,1.04,0,.56.36.95,1.55.95h1.69c2.03,0,3.06.63,3.06,2.09,0,1.62-1.71,3.02-4.43,3.02-2.14,0-3.62-.85-3.62-2.36ZM457.22,132.54c0-.81-.63-1.08-1.76-1.08h-1.51c-.34,0-.76-.04-1.13-.14-.63.45-.9.97-.9,1.48,0,.94.95,1.53,2.54,1.53,1.67,0,2.77-.86,2.77-1.78ZM456.09,125.46c0-1.28-.83-2.03-1.85-2.03s-1.85.76-1.85,2.03.85,2.09,1.85,2.09,1.85-.81,1.85-2.09Z"/>
    <path class="cls-10" d="M463.41,129.04c0-1.91,1.64-2.86,5.37-3.28,0-1.12-.36-2.2-1.8-2.2-1.01,0-1.93.47-2.61.94l-.58-1.03c.81-.52,2.03-1.13,3.44-1.13,2.14,0,3.04,1.42,3.04,3.6v5.37h-1.22l-.13-1.04h-.05c-.83.68-1.8,1.26-2.9,1.26-1.46,0-2.56-.92-2.56-2.48ZM468.78,129.17v-2.43c-2.92.36-3.92,1.08-3.92,2.2,0,.99.68,1.4,1.55,1.4s1.53-.41,2.38-1.17Z"/>
    <path class="cls-10" d="M473.02,122.56h1.22l.13,1.26h.05c.83-.83,1.73-1.48,2.94-1.48,1.84,0,2.67,1.19,2.67,3.42v5.55h-1.48v-5.35c0-1.64-.5-2.34-1.66-2.34-.9,0-1.51.47-2.39,1.35v6.34h-1.48v-8.75Z"/>
    <path class="cls-10" d="M482.24,126.95c0-2.84,1.8-4.61,3.8-4.61,1.01,0,1.67.38,2.45,1.01l-.07-1.49v-3.37h1.49v12.82h-1.22l-.13-1.03h-.05c-.68.67-1.62,1.24-2.65,1.24-2.2,0-3.62-1.66-3.62-4.57ZM488.41,129.08v-4.57c-.74-.67-1.4-.92-2.12-.92-1.4,0-2.52,1.35-2.52,3.35s.88,3.35,2.41,3.35c.81,0,1.51-.4,2.23-1.21Z"/>
  </g>
  <circle class="cls-6" cx="51.94" cy="126.64" r="10"/>
  <rect class="cls-1" x="41.94" y="42.64" width="20" height="20" rx="3" ry="3"/>
  <rect class="cls-1" x="41.94" y="116.64" width="20" height="20" rx="3" ry="3"/>
  <rect class="cls-3" x="41.94" y="189.64" width="20" height="20" rx="3" ry="3"/>
  <polyline class="cls-12" points="46.44 201.14 50.59 204.91 57.44 195.14"/>
  <rect class="cls-8" x="41.94" y="274.64" width="20" height="20" rx="3" ry="3"/>
  <polyline class="cls-12" points="46.44 286.14 50.59 289.91 57.44 280.14"/>
  <g>
    <polygon class="cls-9" points="361.71 209.21 362.24 194.01 364.2 192.58 366.61 193.26 367.13 206.5 369.95 205.22 372.55 206.65 374.59 207.03 377.67 207.71 378.27 209.21 381.36 208.31 383.32 210.13 383.32 218.4 380 224.79 373.83 227.73 366.46 226.6 361.11 221.18 356.67 211.1 356.67 207.26 358.93 206.58 360.89 208.61 361.71 209.21"/>
    <path d="M371.77,228.64c-.49,0-.99-.04-1.49-.11-4.75-.67-7.85-4.33-8.97-5.86l-.1-.15c-1.2-1.73-2.33-3.77-3.33-6.05-.26-.61-.54-1.32-.95-2.36l-.29-.72c-.94-2.47-1.29-4.1-1.14-5.28.05-.43.17-.83.37-1.18l.09-.15c.47-.73,1.25-1.18,2.13-1.25h.21s.26,0,.26,0c.58.07,1.37.32,2.09,1.19l.32.39.03-.46v-11.45c0-1.97,1.6-3.56,3.56-3.56s3.57,1.6,3.57,3.56v9.4l.26-.13c.5-.26,1.05-.39,1.61-.39,1.4,0,2.68.83,3.25,2.11l.09.19.18-.11c.57-.37,1.24-.56,1.92-.56,1.4,0,2.68.83,3.25,2.12l.09.19.18-.11c.58-.37,1.24-.56,1.92-.56,1.97,0,3.56,1.6,3.56,3.56v4.26c-.01,2.73-.45,6.31-3.73,9.71-1.22,1.12-2.52,1.97-3.94,2.59-1.65.8-3.32,1.2-5,1.2ZM358.23,207.26c-.33.03-.63.19-.79.44-.12.21-.17.4-.2.61-.11.86.23,2.32,1.04,4.45l.12.31c.49,1.25.81,2.05,1.08,2.68.96,2.19,2.03,4.13,3.17,5.76,1.07,1.48,3.79,4.7,7.88,5.28.4.06.82.09,1.24.09,1.41,0,2.83-.34,4.22-1.01,1.28-.56,2.46-1.32,3.45-2.23,2.84-2.94,3.23-5.95,3.24-8.5v-4.25c0-1-.81-1.81-1.81-1.81s-1.81.81-1.81,1.81c0,.5-.41.91-.91.91s-.91-.41-.91-.91v-1.63c0-1-.81-1.81-1.81-1.81s-1.81.81-1.81,1.81c0,.5-.41.91-.91.91s-.91-.41-.91-.91v-1.63c0-1-.81-1.81-1.81-1.81s-1.81.81-1.81,1.81c0,.5-.41.91-.91.91s-.91-.41-.91-.91v-12.45c0-1-.81-1.81-1.81-1.81s-1.81.81-1.81,1.81v16.21c0,.61-.15,1.29-.35,1.29-.07,0-.33-.07-.86-.96l-1.65-2.97c-.23-.4-.43-.71-.61-.93-.27-.33-.56-.51-.87-.55h-.13s-.05,0-.05,0Z"/>
  </g>
</svg>