<svg width="400" height="300" viewBox="0 0 400 300" fill="none" xmlns="http://www.w3.org/2000/svg">
<rect width="400" height="300" fill="#F2A8FF"/>
<rect x="37" y="28" width="326" height="244" fill="white"/>
<rect x="73" y="56" width="254" height="188" fill="#F2A8FF"/>
<rect x="112" y="84" width="176" height="132" fill="white"/>
<rect x="150" y="112" width="100" height="76" fill="#F2A8FF"/>
<rect width="27" height="20" transform="matrix(1 0 0 -1 186 160)" fill="white"/>
<path d="M271.186 240.743L271.181 240.755L271.176 240.766C269.042 245.949 267.958 250.868 267.958 255.514C267.958 259.158 268.993 262.307 271.1 264.9C273.326 267.639 277.143 268.862 282.203 268.862C287.228 268.862 291.994 267.208 296.484 263.957C300.903 260.757 305.006 256.803 308.797 252.103C310.836 249.593 312.754 247.081 314.55 244.569C314.334 245.371 314.152 246.174 314.005 246.978C312.948 250.614 312.408 253.912 312.408 256.861C312.408 260.724 313.254 263.786 315.14 265.843L315.155 265.859L315.17 265.875C317.01 267.714 319.287 268.637 321.938 268.637C327.697 268.637 333.843 265.446 340.352 259.392C342.168 257.727 343.908 255.987 345.573 254.171C347.373 252.221 349.098 250.271 350.749 248.32C352.549 246.369 354.275 244.418 355.927 242.466L355.938 242.452L355.95 242.438C357.58 240.363 359.21 238.362 360.84 236.435C361.58 235.682 362 234.774 362 233.739C362 232.986 361.88 232.246 361.495 231.669C361.063 231.02 360.393 230.718 359.653 230.718C359.258 230.718 358.909 230.864 358.634 231.029C358.353 231.198 358.082 231.426 357.824 231.685L357.768 231.74L357.722 231.803C356.545 233.422 355.295 234.966 353.971 236.437C352.637 237.919 351.153 239.478 349.517 241.113L349.491 241.139L349.468 241.167C346.652 244.427 343.537 247.617 340.121 250.735L340.113 250.743L340.105 250.75C336.868 253.84 333.656 256.17 330.471 257.763L330.446 257.775L330.422 257.789C329.402 258.372 328.534 258.795 327.812 259.07C327.08 259.349 326.555 259.453 326.204 259.453C325.69 259.453 325.456 259.3 325.313 259.114C325.131 258.878 324.959 258.407 324.959 257.535C324.959 256.489 325.223 255.107 325.805 253.361C326.393 251.598 327.131 249.68 328.019 247.607C329.654 243.892 331.512 240.026 333.595 236.008C335.835 231.975 337.776 228.543 339.416 225.709L339.422 225.699L339.427 225.69C340.251 224.192 340.872 223.043 341.289 222.248C341.496 221.852 341.657 221.536 341.768 221.304C341.823 221.189 341.871 221.084 341.908 220.994C341.925 220.95 341.946 220.897 341.964 220.84C342.354 220.027 342.564 219.183 342.391 218.376C342.199 217.482 341.59 216.854 340.794 216.456C339.419 215.769 337.757 215.453 335.857 215.453C334.259 215.453 332.665 215.693 331.08 216.168L331.065 216.173L331.051 216.177C329.604 216.66 328.432 217.342 327.668 218.297C327.055 219.064 326.37 219.977 325.614 221.035L325.585 221.076L325.56 221.12C324.98 222.135 324.327 223.224 323.601 224.388C321.652 226.638 319.045 229.768 315.781 233.773C312.505 237.644 308.93 241.592 305.055 245.617L305.048 245.624L305.041 245.631C301.331 249.638 297.704 253.041 294.162 255.846C291.725 257.692 289.611 259.055 287.817 259.952C286.006 260.857 284.598 261.249 283.55 261.249C282.635 261.249 282.113 260.983 281.793 260.599C281.443 260.179 281.183 259.441 281.183 258.208C281.183 257.097 281.321 255.749 281.61 254.154C282.04 252.444 282.76 250.496 283.783 248.305L283.792 248.284L283.801 248.262C285.863 243.256 288.967 237.706 293.131 231.609L293.131 231.609L293.137 231.599C297.296 225.361 301.899 219.57 306.946 214.225C311.549 209.475 316.217 205.401 320.951 201.999C325.66 198.614 329.72 197.024 333.163 197.024C335.122 197.024 336.766 197.592 338.146 198.709C339.538 199.836 340.72 201.57 341.65 203.994C341.981 204.978 342.444 205.814 343.092 206.412C343.767 207.035 344.59 207.35 345.51 207.35C346.677 207.35 347.723 207.007 348.455 206.164C349.162 205.347 349.428 204.227 349.428 202.983C349.428 201.994 349.045 201.003 348.412 200.034C347.863 198.809 346.844 197.668 345.464 196.592C342.698 194.29 339.829 192.653 336.854 191.71C333.908 190.627 330.88 190.085 327.775 190.085C321.864 190.085 315.703 192.03 309.308 195.836C303.081 199.481 297.173 204.257 291.58 210.152C285.999 216.034 281.169 222.222 277.091 228.717L277.081 228.732L277.072 228.748C275.4 231.637 273.437 235.641 271.186 240.743Z" fill="#43445A" stroke="#43445A" stroke-width="2"/>
<path d="M236.976 192.71C236.205 193.176 235.388 193.881 235.388 194.902C235.388 195.285 235.478 195.667 235.69 196.013C235.9 196.357 236.196 196.61 236.527 196.79C237.158 197.134 237.977 197.249 238.858 197.249H245.723C240.231 207.602 235.69 216.939 232.104 225.259C228.35 233.819 225.852 241.146 224.634 247.227C224.33 248.596 224.101 249.896 223.947 251.126C223.792 252.364 223.715 253.603 223.715 254.842C223.715 259.609 224.865 263.254 227.427 265.475C229.874 267.596 232.883 268.638 236.388 268.638C243.503 268.638 249.653 266.387 254.784 261.879C259.753 257.511 264.275 252.99 268.347 248.315L268.347 248.315L268.354 248.306C271.79 244.273 275.078 240.313 278.217 236.427C278.989 235.635 279.369 234.641 279.369 233.515C279.369 232.82 279.243 232.117 278.832 231.568C278.38 230.965 277.715 230.719 277.022 230.719C276.626 230.719 276.278 230.864 276.002 231.03C275.721 231.198 275.451 231.427 275.192 231.685L275.137 231.741L275.09 231.804C273.913 233.423 272.663 234.967 271.34 236.438C269.994 237.933 268.573 239.503 267.078 241.148C264.101 244.423 260.974 247.624 257.698 250.751C254.462 253.841 251.249 256.171 248.064 257.764C245.746 258.923 243.809 259.454 242.225 259.454C240.677 259.454 239.44 258.948 238.443 257.951C237.526 257.034 236.939 255.345 236.939 252.597C236.939 250.478 237.364 247.811 238.246 244.574C239.277 241.338 240.827 237.421 242.906 232.817C245.594 227.291 247.836 222.659 249.63 218.921C251.569 215.192 253.433 211.688 255.222 208.408C257.091 205.101 259.167 201.381 261.448 197.249H283.532C285.114 197.249 286.483 197.014 287.571 196.47L287.627 196.442L287.679 196.408C288.637 195.769 289.471 194.909 289.471 193.78C289.471 193.397 289.361 193.022 289.123 192.697C288.893 192.383 288.584 192.171 288.267 192.027C287.659 191.751 286.869 191.657 286.001 191.657H264.771C266.247 188.946 267.992 186.017 270.007 182.87L270.011 182.862L270.016 182.855C272.4 178.981 274.857 175.257 277.389 171.684C279.917 168.114 282.208 165.234 284.263 163.033L285.833 161.351H283.532C282.417 161.351 280.641 161.508 278.245 161.807C275.641 162.133 272.653 163.415 269.306 165.544C266.02 167.58 262.419 171.126 258.501 176.099L258.497 176.104C257.423 177.485 256.058 179.459 254.406 182.012L254.402 182.018L254.398 182.025C252.951 184.339 251.022 187.551 248.612 191.657H241.103C239.492 191.657 238.088 191.976 236.976 192.71Z" fill="#43445A" stroke="#43445A" stroke-width="2"/>
<path d="M193.791 231.31L193.791 231.31C198.97 228.203 203.931 224.501 208.674 220.203L193.791 231.31ZM193.791 231.31L193.78 231.316M193.791 231.31L193.78 231.316M193.78 231.316C189.734 233.815 186.084 235.83 182.825 237.365C186.062 230.406 190.077 223.866 194.869 217.743C200.171 210.968 206.496 205.599 213.849 201.626C216.175 200.464 218.029 199.942 219.449 199.942C220.523 199.942 221.141 200.18 221.485 200.481C221.803 200.759 222.041 201.229 222.041 202.085C222.041 203.175 221.615 204.484 220.626 206.038L220.626 206.038M193.78 231.316L220.626 206.038M220.626 206.038L220.619 206.05M220.626 206.038L220.619 206.05M220.619 206.05C217.53 211.05 213.553 215.768 208.675 220.202L220.619 206.05ZM168.905 266.324L168.913 266.332L168.921 266.34C172.438 269.697 177.121 271.331 182.857 271.331C190.06 271.331 196.6 269.567 202.451 266.026C208.335 262.556 212.98 259.061 216.355 255.532L216.358 255.53C219.213 252.524 221.993 249.443 224.698 246.288L224.706 246.279L224.713 246.27L232.765 236.429C233.501 235.677 233.919 234.771 233.919 233.739C233.919 232.986 233.799 232.246 233.414 231.669C232.981 231.02 232.312 230.718 231.572 230.718C231.176 230.718 230.828 230.864 230.552 231.029C230.271 231.198 230.001 231.426 229.742 231.685L229.687 231.74L229.641 231.804C228.459 233.428 227.204 235.053 225.874 236.679C224.538 238.164 223.127 239.722 221.644 241.355L216.273 246.726C214.794 248.205 213.24 249.684 211.612 251.165C210 252.482 207.565 254.254 204.294 256.484C201.049 258.697 197.581 260.69 193.888 262.463C190.249 264.062 186.875 264.841 183.755 264.841C181.885 264.841 180.33 264.318 179.036 263.3C177.982 262.218 177.346 260.376 177.346 257.535V257.531V257.526V257.522V257.517V257.513V257.509V257.504V257.5V257.496V257.491V257.487V257.482V257.478V257.474V257.469V257.465V257.461V257.456V257.452V257.448V257.443V257.439V257.435V257.43V257.426V257.422V257.417V257.413V257.409V257.404V257.4V257.396V257.391V257.387V257.383V257.378V257.374V257.37V257.365V257.361V257.357V257.352V257.348V257.344V257.339V257.335V257.331V257.326V257.322V257.318V257.314V257.309V257.305V257.301V257.296V257.292V257.288V257.284V257.279V257.275V257.271V257.266V257.262V257.258V257.254V257.249V257.245V257.241V257.237V257.232V257.228V257.224V257.219V257.215V257.211V257.207V257.202V257.198V257.194V257.19V257.185V257.181V257.177V257.173V257.168V257.164V257.16V257.156V257.152V257.147V257.143V257.139V257.135V257.13V257.126V257.122V257.118V257.114V257.109V257.105V257.101V257.097V257.092V257.088V257.084V257.08V257.076V257.071V257.067V257.063V257.059V257.055V257.05V257.046V257.042V257.038V257.034V257.03V257.025V257.021V257.017V257.013V257.009V257.004V257V256.996V256.992V256.988V256.984V256.979V256.975V256.971V256.967V256.963V256.959V256.955V256.95V256.946V256.942V256.938V256.934V256.93V256.925V256.921V256.917V256.913V256.909V256.905V256.901V256.897V256.892V256.888V256.884V256.88V256.876V256.872V256.868V256.864V256.859V256.855V256.851V256.847V256.843V256.839V256.835V256.831V256.827V256.823V256.818V256.814V256.81V256.806V256.802V256.798V256.794V256.79V256.786V256.782V256.778V256.773V256.769V256.765V256.761V256.757V256.753V256.749V256.745V256.741V256.737V256.733V256.729V256.725V256.721V256.717V256.713V256.708V256.704V256.7V256.696V256.692V256.688V256.684V256.68V256.676V256.672V256.668V256.664V256.66V256.656V256.652V256.648V256.644V256.64V256.636V256.632V256.628V256.624V256.62V256.616V256.612V256.608V256.604V256.6V256.596V256.592V256.588V256.584V256.58V256.576V256.572V256.568V256.564V256.56V256.556V256.552V256.548V256.544V256.54V256.536V256.532V256.528V256.524V256.52V256.516V256.512V256.508V256.504V256.5V256.496V256.492V256.488V256.484V256.48V256.477V256.473V256.469V256.465V256.461V256.457V256.453V256.449V256.445V256.441V256.437V256.433V256.429V256.425V256.421V256.417V256.414V256.41V256.406V256.402V256.398V256.394V256.39V256.386V256.382V256.378V256.374V256.371V256.367V256.363V256.359V256.355V256.351V256.347V256.343V256.339V256.335V256.332V256.328V256.324V256.32V256.316V256.312V256.308V256.304V256.301V256.297V256.293V256.289V256.285V256.281V256.277V256.273V256.27V256.266V256.262V256.258V256.254V256.25V256.246V256.243V256.239V256.235V256.231V256.227V256.223V256.22V256.216V256.212V256.208V256.204V256.2V256.197V256.193V256.189V256.185V256.181V256.177V256.174V256.17V256.166V256.162V256.158V256.155V256.151V256.147V256.143V256.139V256.136V256.132V256.128V256.124V256.12V256.117V256.113V256.109V256.105V256.101V256.098V256.094V256.09V256.086V256.083V256.079V256.075V256.071V256.067V256.064V256.06V256.056V256.052V256.049V256.045V256.041V256.037V256.034V256.03V256.026V256.022V256.019V256.015V256.011V256.007V256.004V256V255.996V255.992V255.989V255.985V255.981V255.978V255.974V255.97V255.966V255.963V255.959V255.955V255.952V255.948V255.944V255.94V255.937V255.933V255.929V255.926V255.922V255.918V255.914V255.911V255.907V255.903V255.9V255.896V255.892V255.889V255.885V255.881V255.878V255.874V255.87V255.867V255.863V255.859V255.855V255.852V255.848V255.844V255.841V255.837V255.834V255.83V255.826V255.823V255.819V255.815V255.812V255.808V255.804V255.801V255.797V255.793V255.79V255.786V255.782V255.779V255.775V255.772V255.768V255.764V255.761V255.757V255.753V255.75V255.746V255.743V255.739V255.735V255.732V255.728V255.724V255.721V255.717V255.714V255.71V255.706V255.703V255.699V255.696V255.692V255.688V255.685V255.681V255.678V255.674V255.671V255.667V255.663V255.66V255.656V255.653V255.649V255.645V255.642V255.638V255.635V255.631V255.628V255.624V255.621V255.617V255.614V255.613L177.776 253.466L177.778 253.457L177.779 253.448C178.074 251.826 178.444 250.126 178.888 248.349L178.89 248.34L178.892 248.331C179.293 246.593 179.755 244.854 180.277 243.115C189.411 241.001 197.551 237.867 204.687 233.705L204.693 233.701C212.147 229.29 218.897 223.216 224.95 215.499C226.641 213.346 227.896 211.239 228.689 209.179C229.465 207.161 229.878 205.314 229.878 203.657C229.878 199.604 228.236 196.317 224.998 193.884C221.959 191.489 218.295 190.31 214.061 190.31C209.47 190.31 204.497 192.049 199.165 195.4C193.99 198.596 188.911 202.846 183.925 208.134L183.92 208.14L183.915 208.145C179.074 213.44 174.913 219.264 171.434 225.615C169.748 228.53 168.006 232.478 166.202 237.438L166.198 237.451L166.194 237.463C164.519 242.488 163.673 247.31 163.673 251.923C163.673 257.954 165.38 262.799 168.905 266.324Z" fill="#43445A" stroke="#43445A" stroke-width="2"/>
<path d="M45.0294 269.882L45.9353 270.365L46.3944 269.447C47.1663 267.903 47.6502 266.685 48.1797 265.307C48.2376 265.157 48.2961 265.004 48.3556 264.849C48.8374 263.591 49.3857 262.159 50.2411 260.185C52.3259 255.569 54.7849 250.576 57.6194 245.206L57.6242 245.196C60.3123 239.969 63.1501 234.667 66.1375 229.29C69.2696 223.771 72.2481 218.932 75.0729 214.769L75.0798 214.759L75.0866 214.749C76.4389 212.645 78.3137 209.645 80.7094 205.752C83.1131 201.846 85.5901 197.568 88.1402 192.918C90.8387 188.12 93.3878 183.397 95.7873 178.748L95.7874 178.748L95.7932 178.736C96.538 177.246 97.2332 175.799 97.8786 174.392C97.1997 177.909 96.4047 181.755 95.4932 185.933L95.4931 185.933L95.4903 185.947C93.8436 194.03 92.197 202.263 90.5504 210.646C88.9025 218.885 87.5534 226.23 86.5034 232.68L86.5021 232.689C86.2001 234.651 85.8992 236.985 85.5989 239.687C85.2953 242.268 85.1435 244.85 85.1435 247.433C85.1435 251.73 85.8343 255.604 87.2384 259.036C87.9754 260.838 89.0672 262.249 90.5391 263.201C92.0073 264.151 93.7785 264.596 95.7967 264.596H96.7967V263.596C96.7967 261.732 97.0114 259.632 97.4488 257.293C98.0266 254.847 99.0409 252.085 100.507 249.004C103.317 243.683 107.396 237.449 112.76 230.299C118.3 222.962 124.288 214.878 130.724 206.047C131.627 204.843 133.273 202.598 135.659 199.318C138.209 196.018 141.055 192.196 144.199 187.855C147.34 183.518 150.406 179.33 153.397 175.292C156.392 171.25 158.864 167.879 160.812 165.18L161.47 164.27C160.888 166.926 159.736 170.103 157.975 173.82C155.296 179.478 151.941 185.814 147.91 192.832L147.906 192.838C144.013 199.726 140.046 206.838 136.003 214.174L136 214.181C132.094 221.391 128.785 228.309 126.076 234.931C123.354 241.584 121.96 247.405 121.96 252.372C121.96 256.091 122.659 259.526 124.069 262.66L124.082 262.688L124.096 262.715C125.697 265.757 128.173 268.14 131.476 269.87L132.772 270.549L132.934 269.094C133.086 267.73 133.236 265.851 133.385 263.465C133.676 261.163 134.328 258.472 135.357 255.386C137.148 250.163 138.938 245.24 140.727 240.618C142.671 235.831 144.541 231.194 146.336 226.707C150.515 216.558 155.142 206.558 160.217 196.706C165.307 186.827 170.172 177.097 174.813 167.516C177.636 162.166 179.34 158.549 179.824 156.776C180.268 155.148 180.533 153.899 180.533 153.146C180.533 151.484 180.136 149.984 179.311 148.682C178.489 147.384 177.277 146.339 175.733 145.526C172.773 143.968 169.846 143.166 166.961 143.166H166.395L166.103 143.652C165.682 144.354 164.142 146.556 161.435 150.317L161.427 150.327L161.42 150.338C158.885 154.066 155.526 158.769 151.339 164.451L151.337 164.454C147.297 169.99 142.809 176.124 137.872 182.856C132.932 189.442 127.918 196.177 122.83 203.062C117.742 209.945 112.879 216.529 108.241 222.813C104.657 227.553 101.387 231.845 98.4293 235.69C98.9691 232.66 99.5426 229.222 100.15 225.377C101.197 219.69 102.245 213.78 103.292 207.646C104.336 201.829 105.529 195.937 106.872 189.969C108.369 183.979 109.717 178.287 110.916 172.894C112.122 167.465 112.736 162.823 112.736 158.983C112.736 158.368 112.666 157.789 112.511 157.259V157.259V157.256V157.253V157.251V157.248V157.245V157.243V157.24V157.237V157.235V157.232V157.23V157.227V157.224V157.222V157.219V157.216V157.214V157.211V157.209V157.206V157.203V157.201V157.198V157.195V157.193V157.19V157.187V157.185V157.182V157.18V157.177V157.174V157.172V157.169V157.166V157.164V157.161V157.159V157.156V157.153V157.151V157.148V157.145V157.143V157.14V157.137V157.135V157.132V157.13V157.127V157.124V157.122V157.119V157.116V157.114V157.111V157.109V157.106V157.103V157.101V157.098V157.095V157.093V157.09V157.088V157.085V157.082V157.08V157.077V157.074V157.072V157.069V157.066V157.064V157.061V157.059V157.056V157.053V157.051V157.048V157.045V157.043V157.04V157.038V157.035V157.032V157.03V157.027V157.024V157.022V157.019V157.016V157.014V157.011V157.009V157.006V157.003V157.001V156.998V156.995V156.993V156.99V156.988V156.985V156.982V156.98V156.977V156.974V156.972V156.969V156.966V156.964V156.961V156.959V156.956V156.953V156.951V156.948V156.945V156.943V156.94V156.938V156.935V156.932V156.93V156.927V156.924V156.922V156.919V156.917V156.914V156.911V156.909V156.906V156.903V156.901V156.898V156.895V156.893V156.89V156.888V156.885V156.882V156.88V156.877V156.874V156.872V156.869V156.867V156.864V156.861V156.859V156.856V156.853V156.851V156.848V156.845V156.843V156.84V156.838V156.835V156.832V156.83V156.827V156.824V156.822V156.819V156.817V156.814V156.811V156.809V156.806V156.803V156.801V156.798V156.795V156.793V156.79V156.788V156.785V156.782V156.78V156.777V156.774V156.772V156.769V156.767V156.764V156.761V156.759V156.756V156.753V156.751V156.748V156.746V156.743V156.74V156.738V156.735V156.732V156.73V156.727V156.724V156.722V156.719V156.717V156.714V156.711V156.709V156.706V156.703V156.701V156.698V156.696V156.693V156.69V156.688V156.685V156.682V156.68V156.677V156.674V156.672V156.669V156.667V156.664V156.661V156.659V156.656V156.653V156.651V156.648V156.646V156.643V156.64V156.638V156.635V156.632V156.63V156.627V156.624V156.622V156.619V156.617V156.614V156.611V156.609V156.606V156.603V156.601V156.598V156.596V156.593V156.59V156.588V156.585V156.582V156.58V156.577V156.575V156.572V156.569V156.567V156.564V156.561V156.559V156.556V156.553V156.551V156.548V156.546V156.543V156.54V156.538V156.535V156.532V156.53V156.527V156.525V156.522V156.519V156.517V156.514V156.511V156.509V156.506V156.503V156.501V156.498V156.496V156.493V156.49V156.488V156.485V156.482V156.48V156.477V156.475V156.472V156.469V156.467V156.464V156.461V156.459V156.456V156.453V156.451V156.448V156.446V156.443V156.44V156.438V156.435V156.432V156.43V156.427V156.425V156.422V156.419V156.417V156.414V156.411V156.409V156.406V156.404V156.401V156.398V156.396V156.393V156.39V156.388V156.385V156.382V156.38V156.377V156.375V156.372V156.369V156.367V156.364V156.361V156.359V156.356V156.354V156.351V156.348V156.346V156.343V156.34V156.338V156.335V156.332V156.33V156.327V156.325V156.322V156.319V156.317V156.314V156.311V156.309V156.306V156.304V156.301V156.298V156.296V156.293V156.29V156.288V156.285V156.282V156.28V156.277V156.275V156.272V156.269V156.267V156.264V156.261V156.259V156.256V156.254V156.251V156.248V156.246V156.243V156.24V156.238V156.235V156.233V156.23V156.227V156.225V156.222V156.219V156.217V156.214V156.211V156.209V156.206V156.204V156.201V156.198V156.196V156.193V156.19V156.188V156.185V156.183V156.18V156.177V156.175V156.172V156.169V156.167V156.164V156.161V156.159V156.156V156.154V156.151V156.148V156.146V156.143V156.14V156.138V156.135V156.133V156.13V156.127V156.125V156.122V156.119V156.117V156.114V156.111V156.109V156.106V156.104V156.101V156.098V156.096V156.093V156.09V156.088V156.085V156.083V156.08V156.077V156.075V156.072V156.069V156.067V156.064V156.006L112.504 155.947C112.164 153.053 110.315 150.305 107.241 147.687C104.301 144.908 101.305 143.391 98.2661 143.391C97.7936 143.391 97.3747 143.41 97.0196 143.454C96.683 143.496 96.3248 143.57 96.023 143.721L95.6065 143.929L95.4978 144.382C93.7252 151.767 90.5412 159.998 85.9271 169.078C81.3018 178.03 76.003 187.284 70.03 196.841L70.0299 196.841L70.024 196.85C64.1877 206.428 58.4261 215.856 52.7394 225.134L52.7388 225.135C51.1055 227.808 49.0965 230.859 46.7098 234.29L46.7045 234.298C44.4341 237.628 42.3909 241.109 40.575 244.741L40.5711 244.748L40.5673 244.756C38.8701 248.305 38 251.745 38 255.066C38 259.461 38.5997 262.891 39.9277 265.215C41.2484 267.526 42.6808 268.63 45.0294 269.882Z" fill="#43445A" stroke="#43445A" stroke-width="2"/>
</svg>
