<svg width="525" height="169" viewBox="0 0 525 169" fill="none" xmlns="http://www.w3.org/2000/svg">
<path d="M374.076 11.2962V46.0154H353.297V88.0439H374.076V166.231H423.095V87.7117H437.297V46.0154H423.095V11.2962H374.076ZM455.534 11.2962V46.0154H443.045V88.0439H455.534V166.231H504.553V87.7117H525V46.0154H504.553V11.2962H455.534ZM135.837 166.231H185.187V121.379C185.187 114.18 185.85 108.311 187.232 103.604C189.995 93.9135 197.124 88.9853 209.282 88.8745C213.039 88.8745 216.797 89.4836 220.389 90.5911V44.0773C218.732 43.6897 217.074 43.4682 215.361 43.4682C202.042 43.4682 192.813 45.96 184.026 60.191V46.0154H135.892V166.231H135.837ZM298.532 46.0154V59.2497C292.121 49.1717 278.582 43.0806 267.142 43.0806C240.284 43.0806 221.218 67.0573 221.218 106.649C221.218 144.857 240.118 169 266.811 169C279.797 169 291.9 164.293 298.532 151.834V166.231H347.439V46.0154H298.532ZM0 166.231H52.6658V117.724L68.3605 117.558C76.1526 117.558 88.4763 116.727 94.6105 115.122C116.495 109.363 132.189 90.6465 132.189 60.2464C132.189 39.2045 125.171 22.3709 113.842 12.5144C103.563 3.54391 89.5263 0 61.8947 0H0V166.231ZM57.5289 43.4128H61.7289C72.2842 43.4128 78.8605 47.0121 78.8605 58.4744C78.8605 69.2723 73.0026 74.2559 61.5079 74.2559H52.3342V43.4128H57.5289ZM269.187 106.04C269.187 97.5682 276.039 90.7018 284.495 90.7018C292.95 90.7018 299.803 97.5682 299.803 106.04C299.803 114.512 292.95 121.379 284.495 121.379C276.039 121.379 269.187 114.512 269.187 106.04Z" fill="black"/>
</svg>
