<svg version="1.1" id="Layer_1" xmlns="http://www.w3.org/2000/svg" xmlns:xlink="http://www.w3.org/1999/xlink" x="0" y="0" width="601" height="281" xml:space="preserve">
  <style>
    .st0{fill:#00000c}.st1{fill:#0e0020}.st2{fill:#110023}.st5{opacity:.55}.st7{fill:#dcfbff}
  </style>
  <path d="M0 0h601v281H0V0z"/>
  <path class="st0" d="M439.1 104.2c2.4.3 5.2-.8 7.2 1.4-3.7 1.2-7.4 2.1-8.8 6.7-1.3 4.5 3.4 3.9 4.4 6.2l-3 8.6c-5.2 2.1-10.4-2-15.6.1.6-7.3-4.8-5.5-8.8-5.8-2.3-2.6-5.4-2.8-8.5-2.9-1.8 0-3.4-.5-3.8-2.6-.2-1.7 1-2.7 2.2-3.5 2.6-1.7 5.3-4.1 8.4-3.7 7.8 1.1 10.1-2 8.2-9.2 2.6-1 4.9 1.3 7.2-.2 1.9-1.3 4.5-2 4.9-4.8.4-2.6-1.7-3-3.6-3.6-2-.7-2.5-2.7-1.2-4 .9-1 3.3-1.9 4.4-.2 1.2 1.9 2.6 3.2 4.5 4.4 3.6 2.4 3.8 5.2.4 8.1-.9.8-1.8 1.5-2.8 2.2-2.3 1.4-4 3.7-2 5.9 1.8 2 3.1-1 4.6-1.9l1.7-1.2z"/>
  <path class="st1" d="M496.3 160c-.4 3.7-.1 7.7-5.3 7.9-2.3.1-5.1-.7-4.1-3.4 1.4-3.6 3.5-7.7 7.4-8.8 2.2-.7 1.6 2.7 2 4.3z"/>
  <path class="st2" d="M465.1 30.3c-1.9-.3-3.4-1.2-3.4-3.2.1-3.2 2.4-3.8 5-3.8 1.5.1 3.1.4 2.9 2.3-.1 2.8-2 4.1-4.5 4.7z"/>
  <path class="st0" d="M447.5 62.7c-.6 1.4-1.4 3.6-2.6 2.6-1.9-1.6-5.5-.9-6-3.8-.3-1.3 1.6-2.4 3.1-1.6 1.7 1 5-.4 5.5 2.8z"/>
  <path class="st2" d="M224.3 95.3c2.2.4 2.2 2.2 2.1 3.8 0 1.3-.4 2.4-2.1 1.9-1.6-.5-3.2-1.2-3-3.3.1-1.7 1.4-2.3 3-2.4z"/>
  <path d="M433.4 222.2c1.4.2 2 1.1 2 2.4 0 1-.1 2.1-1.3 2.2-1.8.1-2.4-1.3-2.5-2.8.1-.9.7-1.7 1.8-1.8z" fill="#00000d"/>
  <path d="M374.5 127.5c-1.1-2.3-5.8-1.7-4.4-6.2 1.3-4.6 5-5.6 8.8-6.7 5.5 2.8 4.5 7 2.6 11.4-1.6 3.8-4.2 3-7 1.5zm-240.4 8.6c-.1 1.4 0 3.1-.5 4.6-.4 1.3-.6 3.8-3.1 2.5-1.1-.6-3.6-1-1.7-3.5.7-1 .8-2.7.7-4-.2-2.4-2-5.5 2.8-5.1 4.4.3 1.6 3.4 1.8 5.5z" fill="#010013"/>
  <g class="st5">
    <defs>
      <path id="SVGID_1_" class="st5" d="M0 0h601v281H0z"/>
    </defs>
    <clipPath id="SVGID_00000115473259119263601800000002489001420989337230_">
      <use xlink:href="#SVGID_1_" overflow="visible"/>
    </clipPath>
    <g opacity=".7" clip-path="url(#SVGID_00000115473259119263601800000002489001420989337230_)">
      <image width="354" height="187" xlink:href="A3731DE7.png" transform="matrix(2 0 0 2 -58 -50)" overflow="visible"/>
    </g>
  </g>
  <circle class="st7" cx="52.3" cy="85.2" r=".5"/>
  <circle class="st7" cx="39.1" cy="72.5" r=".5"/>
  <circle class="st7" cx="14.3" cy="25.2" r=".5"/>
  <circle class="st7" cx="21.7" cy="96" r=".5"/>
  <circle class="st7" cx="5.6" cy="67.3" r=".5"/>
  <circle class="st7" cx="27.7" cy="109.5" r=".5"/>
  <circle class="st7" cx="35.8" cy="114.4" r=".5"/>
  <circle class="st7" cx="46.6" cy="104.7" r=".5"/>
  <circle class="st7" cx="73.1" cy="100.4" r=".5"/>
  <circle class="st7" cx="4.9" cy="153.8" r=".5"/>
  <circle class="st7" cx="24.9" cy="162" r=".5"/>
  <circle class="st7" cx="18.4" cy="160.5" r=".5"/>
  <circle class="st7" cx="58.3" cy="115.2" r=".5"/>
  <circle class="st7" cx="64.3" cy="150.8" r=".5"/>
  <circle class="st7" cx="30.5" cy="128.1" r=".5"/>
  <circle class="st7" cx="67.1" cy="114.3" r=".5"/>
  <circle class="st7" cx="56.2" cy="150.8" r=".5"/>
  <circle class="st7" cx="38.5" cy="135" r=".5"/>
  <circle class="st7" cx="68" cy="116.7" r=".5"/>
  <circle class="st7" cx="84.6" cy="107.8" r=".5"/>
  <circle class="st7" cx="47.5" cy="80.6" r=".5"/>
  <circle class="st7" cx="37.7" cy="84.5" r=".5"/>
  <circle class="st7" cx="45.7" cy="66.5" r=".5"/>
  <circle class="st7" cx="8.9" cy="57.5" r=".5"/>
  <circle class="st7" cx="52.7" cy="41.8" r=".5"/>
  <circle class="st7" cx="109.7" cy="4" r=".5"/>
  <circle class="st7" cx="70" cy="10.1" r=".5"/>
  <circle class="st7" cx="38.4" cy="40.2" r=".5"/>
  <circle class="st7" cx="45.8" cy="10.8" r=".5"/>
  <circle class="st7" cx="27.2" cy="11.5" r=".5"/>
  <circle class="st7" cx="53.6" cy="106.2" r=".5"/>
  <circle class="st7" cx="65.5" cy="71.8" r=".5"/>
  <circle class="st7" cx="56.7" cy="47.8" r=".5"/>
  <circle class="st7" cx="85.4" cy="52.1" r=".5"/>
  <circle class="st7" cx="58.3" cy="60.9" r=".5"/>
  <circle class="st7" cx="68.5" cy="42.1" r=".5"/>
  <circle class="st7" cx="137.2" cy="50.2" r=".5"/>
  <circle class="st7" cx="132.8" cy="32.4" r=".5"/>
  <circle class="st7" cx="105.6" cy="43" r=".5"/>
  <circle class="st7" cx="107.2" cy="10.1" r=".5"/>
  <circle class="st7" cx="81.9" cy="53.5" r=".5"/>
  <circle class="st7" cx="107.7" cy="66.1" r=".5"/>
  <circle class="st7" cx="122" cy="63.6" r=".5"/>
  <circle class="st7" cx="146.8" cy="74.1" r=".5"/>
  <circle class="st7" cx="60.6" cy="83" r=".5"/>
  <circle class="st7" cx="73.1" cy="100.6" r=".5"/>
  <circle class="st7" cx="68.6" cy="96" r=".5"/>
  <circle class="st7" cx="126.4" cy="78.7" r=".5"/>
  <circle class="st7" cx="112.6" cy="112.1" r=".5"/>
  <circle class="st7" cx="95.9" cy="74.8" r=".5"/>
  <circle class="st7" cx="134.3" cy="82.7" r=".5"/>
  <circle class="st7" cx="105.7" cy="107.8" r=".5"/>
  <circle class="st7" cx="99.1" cy="85" r=".5"/>
  <circle class="st7" cx="133.8" cy="85.1" r=".5"/>
  <circle class="st7" cx="152.6" cy="86.5" r=".5"/>
  <circle class="st7" cx="135.6" cy="43.7" r=".5"/>
  <circle class="st7" cx="125.3" cy="41.8" r=".5"/>
  <circle class="st7" cx="141.5" cy="30.8" r=".5"/>
  <circle class="st7" cx="115.1" cy="3.6" r=".5"/>
  <circle class="st7" cx="160.6" cy="13.5" r=".5"/>
  <circle class="st7" cx="229" cy="11.8" r=".5"/>
  <circle class="st7" cx="149.4" cy="4.6" r=".5"/>
  <circle class="st7" cx="127.2" cy="68.6" r=".5"/>
  <circle class="st7" cx="155.6" cy="45.7" r=".5"/>
  <circle class="st7" cx="160.8" cy="20.8" r=".5"/>
  <circle class="st7" cx="182.8" cy="39.7" r=".5"/>
  <circle class="st7" cx="155.2" cy="32.7" r=".5"/>
  <circle class="st7" cx="173.8" cy="22.2" r=".5"/>
  <path class="st7" d="M523 260.1c.7 0 1.1 0 1.1-.1 0 0-.5-.1-1.2-.1 0-.4-.2-.6-.6-.6 0-.7 0-1.2-.1-1.2s-.1.5-.1 1.2c-.4 0-.6.2-.6.6-.7 0-1.2.1-1.2.1s.5.1 1.2.1c0 .4.2.6.6.7 0 .7.1 1.1.1 1.1l.1-1.1c.4-.1.6-.3.7-.7z"/>
  <radialGradient id="SVGID_00000103962643001537689190000010213491514472827069_" cx="522.2" cy="746" r="2.76" gradientTransform="translate(0 -486)" gradientUnits="userSpaceOnUse">
    <stop offset="0" stop-color="#fff"/>
    <stop offset=".6" stop-color="#fff" stop-opacity="0"/>
  </radialGradient>
  <circle cx="522.2" cy="260" r="2.8" fill="url(#SVGID_00000103962643001537689190000010213491514472827069_)"/>
  <path class="st7" d="M397.1 64.4c0-.1-1.1-.2-2.5-.2 0-1.4-.1-2.5-.2-2.5s-.2 1.1-.2 2.4c-1.4.1-2.4.2-2.4.2s1 .2 2.4.2c0 1.4.1 2.4.2 2.4s.2-1 .2-2.4c.9.1 1.8.1 2.5-.1z"/>
  <circle transform="rotate(-45 394.5 64.4)" class="st7" cx="394.5" cy="64.4" r=".8"/>
  <path class="st7" d="M395.8 65.8c.1-.1-.4-.6-1.1-1.4.7-.7 1.2-1.3 1.2-1.3-.1-.1-.7.4-1.4 1.1-.4-.5-.9-.9-1.4-1.2-.1.1.4.7 1.1 1.4-.5.4-.9.8-1.2 1.4.1 0 .7-.5 1.4-1.2.7.7 1.3 1.2 1.4 1.2z"/>
  <radialGradient id="SVGID_00000004505672790437704500000013948787292553954727_" cx="394.5" cy="550.4" r="2.82" gradientTransform="translate(0 -486)" gradientUnits="userSpaceOnUse">
    <stop offset="0" stop-color="#fff"/>
    <stop offset=".6" stop-color="#fff" stop-opacity="0"/>
  </radialGradient>
  <circle cx="394.5" cy="64.4" r="2.8" fill="url(#SVGID_00000004505672790437704500000013948787292553954727_)"/>
  <circle class="st7" cx="502.7" cy="113.1" r=".7"/>
  <path class="st7" d="M110.8 90c.6 0 1-.1 1-.1l-1-.1a.9.9 0 0 0-.6-.6c0-.3 0-.6-.1-1l-.1 1c-.3 0-.5.2-.6.6h-1l1 .2c.1.3.3.5.6.6 0 .6.1 1 .1 1l.1-1c.3 0 .6-.3.6-.6z"/>
  <radialGradient id="SVGID_00000085928825442274995890000012306952321651872649_" cx="110.1" cy="575.9" r="2.46" gradientTransform="translate(0 -486)" gradientUnits="userSpaceOnUse">
    <stop offset="0" stop-color="#fff"/>
    <stop offset=".6" stop-color="#fff" stop-opacity="0"/>
  </radialGradient>
  <circle cx="110.1" cy="89.9" r="2.5" fill="url(#SVGID_00000085928825442274995890000012306952321651872649_)"/>
  <path class="st7" d="M48.3 22.4c.8 0 1.4-.1 1.4-.2l-1.4-.2c-.1-.4-.4-.7-.8-.8 0-.8-.1-1.4-.2-1.4l-.2 1.4c-.4.1-.7.4-.8.8-.8 0-1.4.1-1.4.2l1.4.2c.1.4.4.7.8.8 0 .8.1 1.4.2 1.4l.2-1.4c.4-.1.7-.5.8-.8z"/>
  <radialGradient id="SVGID_00000093885073618384644920000015967301738412957835_" cx="47.3" cy="508.2" r="3.48" gradientTransform="translate(0 -486)" gradientUnits="userSpaceOnUse">
    <stop offset="0" stop-color="#fff"/>
    <stop offset=".6" stop-color="#fff" stop-opacity="0"/>
  </radialGradient>
  <circle cx="47.3" cy="22.2" r="3.5" fill="url(#SVGID_00000093885073618384644920000015967301738412957835_)"/>
  <circle class="st7" cx="215.2" cy="146.1" r=".5"/>
  <circle class="st7" cx="202" cy="133.3" r=".5"/>
  <circle class="st7" cx="177.2" cy="86" r=".5"/>
  <circle class="st7" cx="184.6" cy="156.8" r=".5"/>
  <circle class="st7" cx="198.7" cy="175.2" r=".5"/>
  <circle class="st7" cx="209.5" cy="165.6" r=".5"/>
  <circle class="st7" cx="236" cy="161.3" r=".5"/>
  <circle class="st7" cx="221.2" cy="176" r=".5"/>
  <circle class="st7" cx="230" cy="175.2" r=".5"/>
  <circle class="st7" cx="230.9" cy="177.5" r=".5"/>
  <circle class="st7" cx="247.5" cy="168.8" r=".5"/>
  <circle class="st7" cx="210.4" cy="141.5" r=".5"/>
  <circle class="st7" cx="200.6" cy="145.3" r=".5"/>
  <circle class="st7" cx="208.6" cy="127.3" r=".5"/>
  <circle class="st7" cx="171.8" cy="118.3" r=".5"/>
  <circle class="st7" cx="215.6" cy="102.6" r=".5"/>
  <circle class="st7" cx="216.6" cy="167" r=".5"/>
  <circle class="st7" cx="56" cy="200" r=".5"/>
  <circle class="st7" cx="42.8" cy="187.3" r=".5"/>
  <circle class="st7" cx="18" cy="139.9" r=".5"/>
  <circle class="st7" cx="25.5" cy="210.8" r=".5"/>
  <circle class="st7" cx="9.3" cy="182" r=".5"/>
  <circle class="st7" cx="10.9" cy="232.2" r=".5"/>
  <circle class="st7" cx="39.5" cy="229.2" r=".5"/>
  <circle class="st7" cx="50.3" cy="219.5" r=".5"/>
  <circle class="st7" cx="76.8" cy="215.2" r=".5"/>
  <circle class="st7" cx="8.6" cy="268.5" r=".5"/>
  <circle class="st7" cx="28.5" cy="276.8" r=".5"/>
  <circle class="st7" cx="22.2" cy="275.3" r=".5"/>
  <circle class="st7" cx="61.9" cy="230" r=".5"/>
  <circle transform="rotate(-32.9 68 265.49)" class="st7" cx="68" cy="265.5" r=".5"/>
  <circle class="st7" cx="34.1" cy="242.8" r=".5"/>
  <circle class="st7" cx="70.8" cy="229.2" r=".5"/>
  <circle class="st7" cx="60" cy="265.6" r=".5"/>
  <circle class="st7" cx="42.2" cy="249.8" r=".5"/>
  <circle class="st7" cx="71.7" cy="231.4" r=".5"/>
  <circle class="st7" cx="88.4" cy="222.6" r=".5"/>
  <circle class="st7" cx="51.2" cy="195.4" r=".5"/>
  <circle class="st7" cx="41.4" cy="199.3" r=".5"/>
  <circle class="st7" cx="49.4" cy="181.3" r=".5"/>
  <circle class="st7" cx="12.5" cy="172.2" r=".5"/>
  <circle class="st7" cx="56.4" cy="156.5" r=".5"/>
  <circle class="st7" cx="113.4" cy="118.8" r=".5"/>
  <circle class="st7" cx="73.7" cy="124.8" r=".5"/>
  <circle class="st7" cx="41.9" cy="154.9" r=".5"/>
  <circle class="st7" cx="49.5" cy="125.5" r=".5"/>
  <circle class="st7" cx="30.9" cy="126.3" r=".5"/>
  <circle class="st7" cx="57.3" cy="221" r=".5"/>
  <circle class="st7" cx="69.2" cy="186.5" r=".5"/>
  <circle class="st7" cx="60.4" cy="162.6" r=".5"/>
  <circle class="st7" cx="88.9" cy="166.9" r=".5"/>
  <circle class="st7" cx="62" cy="175.7" r=".5"/>
  <circle class="st7" cx="72.2" cy="156.9" r=".5"/>
  <circle class="st7" cx="140.9" cy="165" r=".5"/>
  <circle class="st7" cx="136.5" cy="147.1" r=".5"/>
  <circle class="st7" cx="140.6" cy="93.8" r=".5"/>
  <circle class="st7" cx="109.3" cy="157.8" r=".5"/>
  <circle class="st7" cx="110.9" cy="124.9" r=".5"/>
  <circle class="st7" cx="85.6" cy="168.3" r=".5"/>
  <circle class="st7" cx="111.4" cy="181" r=".5"/>
  <circle class="st7" cx="125.7" cy="178.4" r=".5"/>
  <circle class="st7" cx="150.5" cy="188.9" r=".5"/>
  <circle class="st7" cx="64.3" cy="197.8" r=".5"/>
  <circle class="st7" cx="76.8" cy="215.4" r=".5"/>
  <circle class="st7" cx="72.3" cy="210.8" r=".5"/>
  <circle class="st7" cx="130.1" cy="193.5" r=".5"/>
  <circle class="st7" cx="116.3" cy="226.8" r=".5"/>
  <circle class="st7" cx="99.6" cy="189.6" r=".5"/>
  <circle class="st7" cx="138" cy="197.5" r=".5"/>
  <circle class="st7" cx="109.4" cy="222.5" r=".5"/>
  <circle class="st7" cx="102.8" cy="199.8" r=".5"/>
  <circle class="st7" cx="137.5" cy="199.9" r=".5"/>
  <circle class="st7" cx="156.3" cy="201.2" r=".5"/>
  <circle class="st7" cx="164" cy="207.7" r=".5"/>
  <circle class="st7" cx="139.3" cy="158.4" r=".5"/>
  <circle class="st7" cx="129" cy="156.5" r=".5"/>
  <circle class="st7" cx="145.2" cy="145.5" r=".5"/>
  <circle class="st7" cx="118.8" cy="118.3" r=".5"/>
  <circle class="st7" cx="164.3" cy="128.3" r=".5"/>
  <circle class="st7" cx="195.8" cy="110.5" r=".5"/>
  <circle class="st7" cx="153.1" cy="119.3" r=".5"/>
  <circle class="st7" cx="175" cy="98.4" r=".5"/>
  <circle class="st7" cx="158.7" cy="89.1" r=".5"/>
  <circle class="st7" cx="130.9" cy="183.4" r=".5"/>
  <circle class="st7" cx="159.3" cy="160.5" r=".5"/>
  <circle class="st7" cx="164.5" cy="135.6" r=".5"/>
  <circle class="st7" cx="186.5" cy="154.4" r=".5"/>
  <circle class="st7" cx="159" cy="147.5" r=".5"/>
  <circle class="st7" cx="177.5" cy="136.9" r=".5"/>
  <path class="st7" d="M415.7 129.5c.6 0 1.1 0 1.1-.1 0 0-.5-.1-1.1-.1-.1-.3-.3-.6-.6-.6l-.2-1.1s-.1.4-.1 1.1c-.3 0-.6.3-.6.6-.6 0-1.1.1-1.1.1s.4.1 1.1.1c0 .4.3.6.6.6 0 .7.1 1.1.1 1.1s.1-.4.1-1.1c.4 0 .6-.2.7-.6z"/>
  <radialGradient id="SVGID_00000148663059355589278070000003894645902280835237_" cx="414.9" cy="615.4" r="2.64" gradientTransform="translate(0 -486)" gradientUnits="userSpaceOnUse">
    <stop offset="0" stop-color="#fff"/>
    <stop offset=".6" stop-color="#fff" stop-opacity="0"/>
  </radialGradient>
  <circle cx="414.9" cy="129.4" r="2.6" fill="url(#SVGID_00000148663059355589278070000003894645902280835237_)"/>
  <circle class="st7" cx="218.9" cy="260.8" r=".5"/>
  <circle class="st7" cx="205.7" cy="248.1" r=".5"/>
  <circle class="st7" cx="180.9" cy="200.8" r=".5"/>
  <circle class="st7" cx="170.3" cy="202.9" r=".5"/>
  <circle class="st7" cx="167.8" cy="208.4" r=".5"/>
  <circle class="st7" cx="188.4" cy="271.6" r=".5"/>
  <circle class="st7" cx="223.9" cy="264.8" r=".5"/>
  <path class="st7" d="M213.8 255.7c.2-.1.5-.1.7.1s.1.5-.1.7c-.2.1-.5.1-.7-.1-.2-.2-.1-.5.1-.7z"/>
  <circle transform="rotate(-32.9 204.38 260.09)" class="st7" cx="204.4" cy="260.1" r=".5"/>
  <circle class="st7" cx="212.4" cy="242.1" r=".5"/>
  <circle class="st7" cx="175.6" cy="233" r=".5"/>
  <circle class="st7" cx="148.4" cy="237.9" r=".5"/>
  <circle class="st7" cx="116.8" cy="230.8" r=".5"/>
  <circle class="st7" cx="87.4" cy="246" r=".5"/>
  <circle class="st7" cx="101.7" cy="243.5" r=".5"/>
  <circle class="st7" cx="126.4" cy="254" r=".5"/>
  <circle transform="rotate(-.8 106.1 258.6)" class="st7" cx="106.1" cy="258.6" r=".5"/>
  <circle transform="rotate(-.8 113.9 262.6)" class="st7" cx="113.9" cy="262.6" r=".5"/>
  <circle transform="rotate(-.8 113.51 265)" class="st7" cx="113.5" cy="265" r=".5"/>
  <circle transform="rotate(-.8 132.31 266.4)" class="st7" cx="132.3" cy="266.4" r=".5"/>
  <circle transform="rotate(-.8 139.91 272.8)" class="st7" cx="139.9" cy="272.8" r=".5"/>
  <circle class="st7" cx="146.8" cy="231.4" r=".5"/>
  <circle class="st7" cx="136.5" cy="229.5" r=".5"/>
  <circle class="st7" cx="106.9" cy="248.5" r=".5"/>
  <circle class="st7" cx="166.8" cy="233.5" r=".5"/>
  <circle class="st7" cx="188.4" cy="273.7" r=".5"/>
  <circle class="st7" cx="177.8" cy="275.9" r=".5"/>
  <circle class="st7" cx="143.8" cy="273.6" r=".5"/>
  <circle class="st7" cx="219.3" cy="217.4" r=".5"/>
  <circle class="st7" cx="228.4" cy="132.6" r=".5"/>
  <circle class="st7" cx="221.2" cy="121.7" r=".5"/>
  <circle class="st7" cx="218.1" cy="76.1" r=".5"/>
  <circle class="st7" cx="203.1" cy="65.6" r=".5"/>
  <circle class="st7" cx="171.2" cy="22.7" r=".5"/>
  <circle class="st7" cx="189.6" cy="91.5" r=".5"/>
  <circle class="st7" cx="169.2" cy="65.7" r=".5"/>
  <circle class="st7" cx="178.6" cy="115" r=".5"/>
  <circle class="st7" cx="206.3" cy="107.5" r=".5"/>
  <circle class="st7" cx="215.5" cy="96.3" r=".5"/>
  <circle class="st7" cx="240.9" cy="88" r=".5"/>
  <circle class="st7" cx="181.9" cy="151.4" r=".5"/>
  <circle class="st7" cx="202.9" cy="156.5" r=".5"/>
  <circle class="st7" cx="196.5" cy="155.8" r=".5"/>
  <circle class="st7" cx="228.7" cy="104.8" r=".5"/>
  <circle class="st7" cx="240.2" cy="139" r=".5"/>
  <circle class="st7" cx="203" cy="121.9" r=".5"/>
  <circle class="st7" cx="237.3" cy="102.6" r=".5"/>
  <circle class="st7" cx="232.2" cy="140.3" r=".5"/>
  <circle class="st7" cx="212.2" cy="127.6" r=".5"/>
  <circle class="st7" cx="238.4" cy="104.7" r=".5"/>
  <circle class="st7" cx="253.6" cy="93.4" r=".5"/>
  <circle class="st7" cx="212.6" cy="72.3" r=".5"/>
  <circle class="st7" cx="203.6" cy="77.7" r=".5"/>
  <circle class="st7" cx="208.6" cy="58.7" r=".5"/>
  <circle class="st7" cx="170.9" cy="55.6" r=".5"/>
  <circle class="st7" cx="211.7" cy="33.1" r=".5"/>
  <circle class="st7" cx="197.4" cy="33.8" r=".5"/>
  <circle class="st7" cx="200.1" cy="3.4" r=".5"/>
  <circle class="st7" cx="181.8" cy="7.3" r=".5"/>
  <circle class="st7" cx="222.7" cy="96.7" r=".5"/>
  <circle class="st7" cx="229.1" cy="60.6" r=".5"/>
  <circle class="st7" cx="216.6" cy="38.5" r=".5"/>
  <circle class="st7" cx="245.6" cy="38.3" r=".5"/>
  <circle class="st7" cx="220.3" cy="51.2" r=".5"/>
  <circle class="st7" cx="227.3" cy="31" r=".5"/>
  <circle class="st7" cx="296.5" cy="28.2" r=".5"/>
  <circle class="st7" cx="289.3" cy="11.3" r=".5"/>
  <circle class="st7" cx="264.2" cy="26.1" r=".5"/>
  <circle class="st7" cx="242.4" cy="40.2" r=".5"/>
  <circle class="st7" cx="269.9" cy="48.6" r=".5"/>
  <circle class="st7" cx="283.5" cy="44" r=".5"/>
  <circle class="st7" cx="309.7" cy="50.4" r=".5"/>
  <circle class="st7" cx="226" cy="72.7" r=".5"/>
  <circle class="st7" cx="241.1" cy="88.1" r=".5"/>
  <circle class="st7" cx="235.9" cy="84.3" r=".5"/>
  <circle class="st7" cx="290.3" cy="58.1" r=".5"/>
  <circle transform="rotate(-9.8 281.91 93.24)" class="st7" cx="281.9" cy="93.2" r=".5"/>
  <circle class="st7" cx="259.5" cy="59.1" r=".5"/>
  <circle class="st7" cx="298.7" cy="60.9" r=".5"/>
  <circle transform="rotate(-9.8 274.41 90.02)" class="st7" cx="274.4" cy="90" r=".5"/>
  <circle transform="rotate(-9.8 264.31 68.62)" class="st7" cx="264.3" cy="68.6" r=".5"/>
  <circle class="st7" cx="298.6" cy="63.3" r=".5"/>
  <circle class="st7" cx="317.4" cy="61.7" r=".5"/>
  <circle class="st7" cx="293.9" cy="22.1" r=".5"/>
  <circle class="st7" cx="283.4" cy="21.8" r=".5"/>
  <circle class="st7" cx="297.7" cy="8.4" r=".5"/>
  <circle class="st7" cx="289.5" cy="48" r=".5"/>
  <circle class="st7" cx="313.9" cy="21" r=".5"/>
  <circle class="st7" cx="339.9" cy="10.8" r=".5"/>
  <circle class="st7" cx="311.6" cy="8.2" r=".5"/>
  <circle transform="rotate(-9 388.6 110.82)" class="st7" cx="388.5" cy="110.8" r=".5"/>
  <circle transform="rotate(-9 387.7 135.42)" class="st7" cx="387.6" cy="135.4" r=".5"/>
  <circle transform="rotate(-9 383.1 136.2)" class="st7" cx="383" cy="136.2" r=".5"/>
  <circle transform="rotate(-9 356.7 122.12)" class="st7" cx="356.6" cy="122.1" r=".5"/>
  <circle transform="rotate(-9 373.6 100.32)" class="st7" cx="373.5" cy="100.3" r=".5"/>
  <circle class="st7" cx="341.6" cy="57.4" r=".5"/>
  <circle class="st7" cx="358.3" cy="39.7" r=".5"/>
  <circle transform="rotate(-9 360.09 126.2)" class="st7" cx="360" cy="126.2" r=".5"/>
  <circle transform="rotate(-9 364.7 133.82)" class="st7" cx="364.6" cy="133.8" r=".5"/>
  <circle transform="rotate(-9 354.09 142.91)" class="st7" cx="354" cy="142.9" r=".5"/>
  <circle transform="rotate(-9 376.8 142.23)" class="st7" cx="376.7" cy="142.2" r=".5"/>
  <circle transform="rotate(-9 452.21 179.93)" class="st7" cx="452.1" cy="179.9" r=".5"/>
  <circle transform="rotate(-9 358.4 152.23)" class="st7" cx="358.3" cy="152.2" r=".5"/>
  <circle transform="rotate(-9 452.41 142.22)" class="st7" cx="452.3" cy="142.2" r=".5"/>
  <circle transform="rotate(-9 467.92 165.24)" class="st7" cx="467.8" cy="165.2" r=".5"/>
  <circle transform="rotate(-41.8 411.42 122.6)" class="st7" cx="411.4" cy="122.6" r=".5"/>
  <circle transform="rotate(-41.8 399.12 139.4)" class="st7" cx="399.1" cy="139.4" r=".5"/>
  <circle transform="rotate(-41.8 407.72 137.3)" class="st7" cx="407.7" cy="137.3" r=".5"/>
  <circle transform="rotate(-41.8 411.02 149.8)" class="st7" cx="411" cy="149.8" r=".5"/>
  <circle transform="rotate(-41.8 424.17 128)" class="st7" cx="424.1" cy="128" r=".5"/>
  <circle transform="rotate(-41.8 383.02 107)" class="st7" cx="383" cy="107" r=".5"/>
  <circle transform="rotate(-41.8 379.02 144.8)" class="st7" cx="379" cy="144.8" r=".5"/>
  <circle transform="rotate(-41.8 374.02 112.3)" class="st7" cx="374" cy="112.3" r=".5"/>
  <circle transform="rotate(-41.8 362.12 116.4)" class="st7" cx="362.1" cy="116.4" r=".5"/>
  <circle transform="rotate(-41.8 379.02 93.3)" class="st7" cx="379" cy="93.3" r=".5"/>
  <circle transform="rotate(-41.8 341.32 90.2)" class="st7" cx="341.3" cy="90.2" r=".5"/>
  <circle transform="rotate(-41.8 382.12 67.8)" class="st7" cx="382.1" cy="67.8" r=".5"/>
  <circle transform="rotate(-41.8 393.12 131.2)" class="st7" cx="393.1" cy="131.2" r=".5"/>
  <circle transform="rotate(-41.8 379.02 134.9)" class="st7" cx="379" cy="134.9" r=".5"/>
  <circle class="st7" cx="239.7" cy="188.9" r=".5"/>
  <circle class="st7" cx="224.6" cy="178.4" r=".5"/>
  <circle class="st7" cx="192.8" cy="135.5" r=".5"/>
  <circle class="st7" cx="211.2" cy="204.3" r=".5"/>
  <circle class="st7" cx="190.7" cy="178.5" r=".5"/>
  <circle class="st7" cx="200.2" cy="227.8" r=".5"/>
  <circle class="st7" cx="227.9" cy="220.3" r=".5"/>
  <circle class="st7" cx="237.1" cy="209.1" r=".5"/>
  <circle transform="rotate(-41.8 262.62 200.7)" class="st7" cx="262.6" cy="200.7" r=".5"/>
  <circle class="st7" cx="250.3" cy="217.5" r=".5"/>
  <circle transform="rotate(-41.8 258.94 215.47)" class="st7" cx="258.9" cy="215.5" r=".5"/>
  <circle transform="rotate(-41.8 260.12 217.5)" class="st7" cx="260.1" cy="217.5" r=".5"/>
  <circle transform="rotate(-41.8 275.22 206.2)" class="st7" cx="275.2" cy="206.2" r=".5"/>
  <circle class="st7" cx="234.2" cy="185.1" r=".5"/>
  <circle class="st7" cx="225.1" cy="190.4" r=".5"/>
  <circle class="st7" cx="230.2" cy="171.5" r=".5"/>
  <circle class="st7" cx="192.5" cy="168.3" r=".5"/>
  <circle class="st7" cx="233.1" cy="145.9" r=".5"/>
  <circle transform="rotate(-41.8 283.64 99.77)" class="st7" cx="283.6" cy="99.8" r=".5"/>
  <circle class="st7" cx="245.3" cy="111.8" r=".5"/>
  <circle class="st7" cx="218.9" cy="146.8" r=".5"/>
  <circle class="st7" cx="221.7" cy="116.4" r=".5"/>
  <circle class="st7" cx="203.3" cy="120" r=".5"/>
  <circle class="st7" cx="244.2" cy="209.4" r=".5"/>
  <circle class="st7" cx="250.6" cy="173.5" r=".5"/>
  <circle class="st7" cx="238.2" cy="151.3" r=".5"/>
  <circle transform="rotate(-41.8 267.38 151.08)" class="st7" cx="267.4" cy="151.1" r=".5"/>
  <circle class="st7" cx="241.6" cy="163.9" r=".5"/>
  <circle class="st7" cx="248.9" cy="144" r=".5"/>
  <circle transform="rotate(-66.9 318.1 141)" class="st7" cx="318.1" cy="141" r=".5"/>
  <circle transform="rotate(-66.9 310.9 124.1)" class="st7" cx="310.9" cy="124.1" r=".5"/>
  <circle transform="rotate(-66.9 306.7 70.8)" class="st7" cx="306.7" cy="70.8" r=".5"/>
  <circle transform="rotate(-66.9 285.6 138.9)" class="st7" cx="285.6" cy="138.9" r=".5"/>
  <circle transform="rotate(-66.9 282.1 106.2)" class="st7" cx="282.1" cy="106.2" r=".5"/>
  <circle transform="rotate(-66.9 263.96 153.1)" class="st7" cx="264" cy="153.1" r=".5"/>
  <circle transform="rotate(-66.9 291.5 161.4)" class="st7" cx="291.5" cy="161.4" r=".5"/>
  <circle transform="rotate(-66.9 305.2 156.7)" class="st7" cx="305.2" cy="156.7" r=".5"/>
  <circle transform="rotate(-9.8 331.3 163.23)" class="st7" cx="331.3" cy="163.2" r=".5"/>
  <circle class="st7" cx="247.6" cy="185.4" r=".5"/>
  <circle transform="rotate(-9.8 262.59 200.93)" class="st7" cx="262.6" cy="200.9" r=".5"/>
  <circle transform="rotate(-9.8 257.5 197.02)" class="st7" cx="257.5" cy="197" r=".5"/>
  <circle transform="rotate(-9.8 311.89 170.93)" class="st7" cx="311.9" cy="170.9" r=".5"/>
  <circle transform="rotate(-9.8 303.5 206.03)" class="st7" cx="303.5" cy="206" r=".5"/>
  <circle transform="rotate(-9.8 281.1 171.8)" class="st7" cx="281.1" cy="171.8" r=".5"/>
  <circle transform="rotate(-9.8 320.3 173.63)" class="st7" cx="320.3" cy="173.6" r=".5"/>
  <circle transform="rotate(-9.8 296 202.83)" class="st7" cx="296" cy="202.8" r=".5"/>
  <circle transform="rotate(-9.8 285.9 181.44)" class="st7" cx="285.9" cy="181.4" r=".5"/>
  <circle transform="rotate(-9.8 320.2 176.13)" class="st7" cx="320.2" cy="176.1" r=".5"/>
  <circle transform="rotate(-9.8 339 174.53)" class="st7" cx="339" cy="174.5" r=".5"/>
  <circle transform="rotate(-9.8 315.5 134.92)" class="st7" cx="315.5" cy="134.9" r=".5"/>
  <circle transform="rotate(-9.8 305 134.62)" class="st7" cx="305" cy="134.6" r=".5"/>
  <circle transform="rotate(-9.8 319.31 121.22)" class="st7" cx="319.3" cy="121.2" r=".5"/>
  <circle transform="rotate(-9.8 289.01 98.42)" class="st7" cx="289" cy="98.4" r=".5"/>
  <circle transform="rotate(-9.8 335.51 101.22)" class="st7" cx="335.5" cy="101.2" r=".5"/>
  <circle transform="rotate(-9.8 363.81 78.72)" class="st7" cx="363.8" cy="78.7" r=".5"/>
  <circle transform="rotate(-9.8 323.01 94.12)" class="st7" cx="323" cy="94.1" r=".5"/>
  <circle transform="rotate(-9.8 341.3 69.92)" class="st7" cx="341.3" cy="69.9" r=".5"/>
  <circle class="st7" cx="364.6" cy="57.9" r=".5"/>
  <circle class="st7" cx="323.8" cy="63.3" r=".5"/>
  <circle transform="rotate(-9.8 311.1 160.82)" class="st7" cx="311.1" cy="160.8" r=".5"/>
  <circle transform="rotate(-9.8 335.51 133.82)" class="st7" cx="335.5" cy="133.8" r=".5"/>
  <circle transform="rotate(-9.8 336.81 108.32)" class="st7" cx="336.8" cy="108.3" r=".5"/>
  <circle transform="rotate(-9.8 367.71 126.23)" class="st7" cx="367.7" cy="126.2" r=".5"/>
  <circle transform="rotate(-9.8 363.21 142.23)" class="st7" cx="363.2" cy="142.2" r=".5"/>
  <circle transform="rotate(-9.8 333.21 121.02)" class="st7" cx="333.2" cy="121" r=".5"/>
  <circle transform="rotate(-9.8 349.91 107.74)" class="st7" cx="349.9" cy="107.7" r=".5"/>
  <circle class="st7" cx="557.5" cy="29.3" r=".5"/>
  <circle class="st7" cx="571.1" cy="16.9" r=".5"/>
  <circle class="st7" cx="529.6" cy="10.6" r=".5"/>
  <circle class="st7" cx="538.6" cy="22" r=".5"/>
  <circle class="st7" cx="540.7" cy="48.8" r=".5"/>
  <circle class="st7" cx="527.2" cy="33" r=".5"/>
  <circle class="st7" cx="491.2" cy="36.3" r=".5"/>
  <circle class="st7" cx="516.4" cy="4.2" r=".5"/>
  <circle class="st7" cx="527.3" cy="41.8" r=".5"/>
  <circle class="st7" cx="491.9" cy="28.2" r=".5"/>
  <circle class="st7" cx="508.9" cy="11.7" r=".5"/>
  <circle class="st7" cx="525" cy="42.5" r=".5"/>
  <circle class="st7" cx="532.5" cy="59.8" r=".5"/>
  <circle class="st7" cx="562.4" cy="24.8" r=".5"/>
  <circle class="st7" cx="559.3" cy="14.8" r=".5"/>
  <circle class="st7" cx="576.7" cy="24" r=".5"/>
  <circle class="st7" cx="598" cy="18.9" r=".5"/>
  <circle class="st7" cx="536.5" cy="29" r=".5"/>
  <circle class="st7" cx="569.9" cy="43.4" r=".5"/>
  <circle class="st7" cx="594.5" cy="36.5" r=".5"/>
  <circle transform="rotate(-28.6 588 64.68)" class="st7" cx="588" cy="64.7" r=".5"/>
  <circle class="st7" cx="581.3" cy="37.1" r=".5"/>
  <circle class="st7" cx="599.3" cy="48.6" r=".5"/>
  <circle transform="rotate(-53.6 586.05 116.53)" class="st7" cx="586.1" cy="116.5" r=".5"/>
  <circle transform="rotate(-53.6 595.49 85.7)" class="st7" cx="595.5" cy="85.7" r=".5"/>
  <circle class="st7" cx="586.9" cy="61.3" r=".5"/>
  <circle transform="rotate(-53.6 572.39 86)" class="st7" cx="572.4" cy="86" r=".5"/>
  <circle transform="rotate(-53.6 573.79 100.4)" class="st7" cx="573.8" cy="100.4" r=".5"/>
  <circle transform="scale(.99997) rotate(-86.5 561.52 124.3)" class="st7" cx="561.5" cy="124.3" r=".5"/>
  <circle class="st7" cx="559" cy="37.6" r=".5"/>
  <circle class="st7" cx="540.6" cy="48.8" r=".5"/>
  <circle class="st7" cx="545.5" cy="44.7" r=".5"/>
  <circle transform="scale(.99997) rotate(-86.5 558.42 103.7)" class="st7" cx="558.4" cy="103.7" r=".5"/>
  <circle transform="scale(.99997) rotate(-86.5 526.22 87.4)" class="st7" cx="526.2" cy="87.4" r=".5"/>
  <circle transform="scale(.99997) rotate(-86.5 564.62 73.5)" class="st7" cx="564.6" cy="73.5" r=".5"/>
  <circle transform="matrix(.06105 -.9981 .9981 .06105 409 657.18)" class="st7" cx="553.8" cy="111.2" r=".5"/>
  <circle transform="scale(.99997) rotate(-86.5 531.02 80.8)" class="st7" cx="531" cy="80.8" r=".5"/>
  <circle transform="scale(.99997) rotate(-86.5 554.12 76)" class="st7" cx="554.1" cy="76" r=".5"/>
  <circle transform="scale(.99997) rotate(-86.5 551.52 110.5)" class="st7" cx="551.5" cy="110.5" r=".5"/>
  <circle transform="scale(.99997) rotate(-86.5 548.72 129.2)" class="st7" cx="548.7" cy="129.2" r=".5"/>
  <circle transform="scale(.99997) rotate(-86.5 592.72 115.4)" class="st7" cx="592.7" cy="115.4" r=".5"/>
  <circle transform="scale(.99997) rotate(-86.5 595.42 105.4)" class="st7" cx="595.4" cy="105.4" r=".5"/>
  <circle transform="scale(.99997) rotate(-86.5 568.42 105.2)" class="st7" cx="568.4" cy="105.2" r=".5"/>
  <circle transform="scale(.99997) rotate(-86.5 589.12 135.2)" class="st7" cx="589.1" cy="135.2" r=".5"/>
  <circle transform="scale(.99997) rotate(-86.5 593.12 162.8)" class="st7" cx="593.1" cy="162.8" r=".5"/>
  <circle transform="rotate(-67.3 326.72 221.7)" class="st7" cx="326.7" cy="221.7" r=".5"/>
  <circle transform="rotate(-67.3 343.52 214.4)" class="st7" cx="343.5" cy="214.4" r=".5"/>
  <circle transform="matrix(.07498 -.9972 .9972 .07498 353 687.94)" class="st7" cx="547.3" cy="153.7" r=".5"/>
  <circle transform="rotate(-67.3 328.62 189.4)" class="st7" cx="328.6" cy="189.4" r=".5"/>
  <circle transform="rotate(-67.3 306.21 195.2)" class="st7" cx="306.2" cy="195.2" r=".5"/>
  <circle transform="rotate(-67.3 310.88 209.06)" class="st7" cx="310.9" cy="209.1" r=".5"/>
  <circle transform="rotate(-28.6 467.8 206.68)" class="st7" cx="467.8" cy="206.7" r=".5"/>
  <circle transform="rotate(-10.1 296.64 215.64)" class="st7" cx="296.7" cy="215.7" r=".5"/>
  <circle transform="rotate(-28.6 454.4 199.68)" class="st7" cx="454.4" cy="199.7" r=".5"/>
  <circle transform="rotate(-28.6 452.14 200.32)" class="st7" cx="452.1" cy="200.3" r=".5"/>
  <circle transform="rotate(-28.6 459.6 217.68)" class="st7" cx="459.6" cy="217.7" r=".5"/>
  <circle transform="rotate(-10.1 332.73 218.94)" class="st7" cx="332.8" cy="219" r=".5"/>
  <circle transform="rotate(-10.1 332.94 208.56)" class="st7" cx="333" cy="208.6" r=".5"/>
  <circle transform="rotate(-28.6 503.85 181.87)" class="st7" cx="503.8" cy="181.9" r=".5"/>
  <circle transform="rotate(-28.6 515.5 145.88)" class="st7" cx="515.5" cy="145.9" r=".5"/>
  <circle transform="rotate(-28.6 527.9 190.78)" class="st7" cx="527.9" cy="190.8" r=".5"/>
  <circle transform="rotate(-10.1 306.74 214.74)" class="st7" cx="306.8" cy="214.8" r=".5"/>
  <circle class="st7" cx="442.8" cy="24.3" r=".5"/>
  <circle class="st7" cx="456.5" cy="12" r=".5"/>
  <circle class="st7" cx="415" cy="5.8" r=".5"/>
  <circle class="st7" cx="367.7" cy="36.3" r=".5"/>
  <circle class="st7" cx="423.7" cy="17" r=".5"/>
  <circle class="st7" cx="426" cy="43.9" r=".5"/>
  <circle class="st7" cx="412.5" cy="28.1" r=".5"/>
  <circle class="st7" cx="412.6" cy="36.9" r=".5"/>
  <circle class="st7" cx="377.5" cy="10" r=".5"/>
  <circle class="st7" cx="417.8" cy="54.9" r=".5"/>
  <circle class="st7" cx="447.7" cy="19.9" r=".5"/>
  <circle class="st7" cx="444.6" cy="9.9" r=".5"/>
  <circle class="st7" cx="461.9" cy="19.1" r=".5"/>
  <circle class="st7" cx="486.1" cy="28" r=".5"/>
  <circle transform="rotate(-28.6 519.4 87.68)" class="st7" cx="519.4" cy="87.7" r=".5"/>
  <circle transform="rotate(-28.6 495 99.68)" class="st7" cx="495" cy="99.7" r=".5"/>
  <circle class="st7" cx="516.5" cy="47.6" r=".5"/>
  <circle class="st7" cx="488.8" cy="13.9" r=".5"/>
  <circle class="st7" cx="517.5" cy="23.5" r=".5"/>
  <circle class="st7" cx="518.2" cy="4.8" r=".5"/>
  <circle class="st7" cx="421.7" cy="24.1" r=".5"/>
  <circle class="st7" cx="455.2" cy="38.5" r=".5"/>
  <circle class="st7" cx="479.7" cy="31.5" r=".5"/>
  <circle class="st7" cx="473.3" cy="59.8" r=".5"/>
  <circle class="st7" cx="466.6" cy="32.2" r=".5"/>
  <circle class="st7" cx="484.6" cy="43.7" r=".5"/>
  <circle transform="rotate(-53.6 471.3 111.6)" class="st7" cx="471.3" cy="111.6" r=".5"/>
  <circle transform="rotate(-53.6 495.8 105.2)" class="st7" cx="495.8" cy="105.2" r=".5"/>
  <circle transform="rotate(-53.6 542.19 116.6)" class="st7" cx="542.2" cy="116.6" r=".5"/>
  <circle transform="rotate(-53.6 480.8 80.7)" class="st7" cx="480.8" cy="80.7" r=".5"/>
  <circle transform="rotate(-53.6 513.5 84.8)" class="st7" cx="513.5" cy="84.8" r=".5"/>
  <path class="st7" d="M511 89.1c.2-.2.5-.3.7-.1s.3.5.1.7c-.2.2-.5.3-.7.1-.2-.2-.2-.5-.1-.7z"/>
  <circle transform="rotate(-53.6 498.9 92.7)" class="st7" cx="498.9" cy="92.7" r=".5"/>
  <circle class="st7" cx="472.2" cy="56.2" r=".5"/>
  <circle transform="rotate(-53.6 457.7 81)" class="st7" cx="457.7" cy="81" r=".5"/>
  <circle transform="rotate(-53.6 459.05 95.33)" class="st7" cx="459.1" cy="95.3" r=".5"/>
  <circle transform="scale(.99997) rotate(-86.5 446.82 119.4)" class="st7" cx="446.8" cy="119.4" r=".5"/>
  <circle class="st7" cx="444.3" cy="32.8" r=".5"/>
  <circle class="st7" cx="425.8" cy="44.1" r=".5"/>
  <circle class="st7" cx="430.7" cy="39.8" r=".5"/>
  <circle transform="scale(.99997) rotate(-86.5 443.72 98.7)" class="st7" cx="443.7" cy="98.7" r=".5"/>
  <circle transform="scale(.99997) rotate(-86.5 411.51 82.5)" class="st7" cx="411.5" cy="82.5" r=".5"/>
  <circle transform="scale(.99997) rotate(-86.5 449.92 68.6)" class="st7" cx="449.9" cy="68.6" r=".5"/>
  <circle transform="matrix(.06105 -.9981 .9981 .06105 306.2 538.1)" class="st7" cx="439.1" cy="106.3" r=".5"/>
  <circle transform="scale(.99997) rotate(-86.5 416.21 76)" class="st7" cx="416.2" cy="76" r=".5"/>
  <circle transform="scale(.99997) rotate(-86.5 439.52 71)" class="st7" cx="439.5" cy="71" r=".5"/>
  <circle transform="scale(.99997) rotate(-86.5 436.82 105.6)" class="st7" cx="436.8" cy="105.6" r=".5"/>
  <circle transform="scale(.99997) rotate(-86.5 434.02 124.3)" class="st7" cx="434" cy="124.3" r=".5"/>
  <circle transform="scale(.99997) rotate(-86.5 478.02 110.6)" class="st7" cx="478" cy="110.6" r=".5"/>
  <circle transform="scale(.99997) rotate(-86.5 480.62 100.4)" class="st7" cx="480.6" cy="100.4" r=".5"/>
  <circle transform="scale(.99997) rotate(-86.5 490.42 117.4)" class="st7" cx="490.4" cy="117.4" r=".5"/>
  <circle transform="scale(.99997) rotate(-86.5 519.52 93.1)" class="st7" cx="519.5" cy="93.1" r=".5"/>
  <circle transform="scale(.99997) rotate(-86.5 506.22 95.5)" class="st7" cx="506.2" cy="95.5" r=".5"/>
  <circle transform="scale(.99997) rotate(-86.5 506.22 137.8)" class="st7" cx="506.2" cy="137.8" r=".5"/>
  <circle transform="scale(.99997) rotate(-86.5 521.42 170.5)" class="st7" cx="521.4" cy="170.5" r=".5"/>
  <circle transform="scale(.99997) rotate(-86.5 516.02 127.3)" class="st7" cx="516" cy="127.3" r=".5"/>
  <circle transform="matrix(.06105 -.9981 .9981 .06105 352.2 675.6)" class="st7" cx="535.2" cy="150.6" r=".5"/>
  <circle transform="scale(.99997) rotate(-86.5 545.72 135.1)" class="st7" cx="545.7" cy="135.1" r=".5"/>
  <circle class="st7" cx="315.4" cy="269.1" r=".5"/>
  <circle transform="rotate(-53.6 324.97 238.06)" class="st7" cx="325" cy="238.1" r=".5"/>
  <circle transform="rotate(-53.6 301.7 238.5)" class="st7" cx="301.7" cy="238.5" r=".5"/>
  <circle transform="rotate(-53.6 303 252.9)" class="st7" cx="303" cy="252.9" r=".5"/>
  <circle class="st7" cx="375" cy="276" r=".5"/>
  <circle class="st7" cx="342.8" cy="275.1" r=".5"/>
  <path class="st7" d="M254.9 240c0-.3.2-.5.5-.4.3 0 .5.2.4.5s-.2.5-.5.4c-.2 0-.4-.3-.4-.5z"/>
  <circle transform="scale(.99997) rotate(-86.5 293.81 226)" class="st7" cx="293.8" cy="226" r=".5"/>
  <circle class="st7" cx="289.2" cy="278.7" r=".5"/>
  <circle transform="scale(.99997) rotate(-86.5 260.21 233.4)" class="st7" cx="260.2" cy="233.4" r=".5"/>
  <circle transform="scale(.99997) rotate(-86.5 283.51 228.5)" class="st7" cx="283.5" cy="228.5" r=".5"/>
  <circle class="st7" cx="280.8" cy="263" r=".5"/>
  <path class="st7" d="M356.8 255.6c0-.3.2-.5.5-.4.3 0 .5.2.4.5 0 .3-.2.5-.5.4-.2 0-.4-.3-.4-.5z"/>
  <circle class="st7" cx="321.9" cy="268.1" r=".5"/>
  <circle class="st7" cx="324.6" cy="257.8" r=".5"/>
  <circle class="st7" cx="297.7" cy="257.7" r=".5"/>
  <circle class="st7" cx="397.7" cy="261.6" r=".5"/>
  <circle class="st7" cx="248.7" cy="240.2" r=".5"/>
  <circle class="st7" cx="271.6" cy="269.2" r=".5"/>
  <circle class="st7" cx="248.8" cy="245.7" r=".5"/>
  <circle transform="scale(.99997) rotate(-86.5 251.4 264.4)" class="st7" cx="251.4" cy="264.4" r=".5"/>
  <circle class="st7" cx="354.3" cy="261.5" r=".5"/>
  <circle transform="scale(.99997) rotate(-86.5 453.72 100.2)" class="st7" cx="453.7" cy="100.2" r=".5"/>
  <circle transform="scale(.99997) rotate(-86.5 474.42 130.3)" class="st7" cx="474.4" cy="130.3" r=".5"/>
  <circle transform="scale(.99997) rotate(-86.5 498.92 137.4)" class="st7" cx="498.9" cy="137.4" r=".5"/>
  <circle transform="rotate(-68.1 330.02 192)" class="st7" cx="330" cy="192" r=".5"/>
  <circle transform="scale(.99997) rotate(-86.5 487.32 131)" class="st7" cx="487.3" cy="131" r=".5"/>
  <circle transform="scale(.99997) rotate(-86.5 496.52 150.2)" class="st7" cx="496.5" cy="150.2" r=".5"/>
  <circle transform="scale(1.00001) rotate(-85.7 383.5 170)" class="st7" cx="383.5" cy="170" r=".5"/>
  <circle transform="scale(1.00001) rotate(-85.7 432.6 148.8)" class="st7" cx="432.6" cy="148.8" r=".5"/>
  <circle transform="rotate(-28.6 389 176.98)" class="st7" cx="389" cy="177" r=".5"/>
  <circle transform="rotate(-28.6 385.2 154.28)" class="st7" cx="385.2" cy="154.3" r=".5"/>
  <circle transform="rotate(-28.6 378.35 150.47)" class="st7" cx="378.3" cy="150.5" r=".5"/>
  <circle transform="rotate(-28.6 413.2 185.78)" class="st7" cx="413.2" cy="185.8" r=".5"/>
  <circle transform="rotate(-28.6 497 201.28)" class="st7" cx="497" cy="201.3" r=".5"/>
  <circle transform="rotate(-28.6 508.4 194.88)" class="st7" cx="508.4" cy="194.9" r=".5"/>
  <circle transform="scale(.99996) rotate(-4.7 554.1 195.33)" class="st7" cx="554.1" cy="195.3" r=".5"/>
  <circle transform="scale(.99996) rotate(-4.7 565.7 181.02)" class="st7" cx="565.7" cy="181" r=".5"/>
  <circle transform="scale(.99996) rotate(-4.7 540.9 165.73)" class="st7" cx="540.9" cy="165.7" r=".5"/>
  <circle transform="scale(.99996) rotate(-4.7 568.2 147.23)" class="st7" cx="568.2" cy="147.2" r=".5"/>
  <circle transform="scale(.99996) rotate(-4.7 518.3 152.92)" class="st7" cx="518.3" cy="152.9" r=".5"/>
  <circle transform="scale(.99996) rotate(-4.7 523.7 181.23)" class="st7" cx="523.7" cy="181.2" r=".5"/>
  <circle transform="scale(.99996) rotate(-4.7 534.2 191.13)" class="st7" cx="534.2" cy="191.1" r=".5"/>
  <circle transform="rotate(-37.5 540.57 217.19)" class="st7" cx="540.6" cy="217.2" r=".5"/>
  <circle transform="rotate(-37.5 481.97 153.6)" class="st7" cx="482" cy="153.6" r=".5"/>
  <circle transform="rotate(-19.1 322.02 206.41)" class="st7" cx="322" cy="206.4" r=".5"/>
  <circle transform="rotate(-19.1 324.92 200.74)" class="st7" cx="324.9" cy="200.7" r=".5"/>
  <circle transform="rotate(-37.5 524.75 203.53)" class="st7" cx="524.8" cy="203.5" r=".5"/>
  <circle transform="rotate(-37.5 489.77 212.59)" class="st7" cx="489.8" cy="212.6" r=".5"/>
  <circle transform="rotate(-37.5 473.27 187.39)" class="st7" cx="473.3" cy="187.4" r=".5"/>
  <circle transform="rotate(-37.5 526.17 212.39)" class="st7" cx="526.2" cy="212.4" r=".5"/>
  <circle transform="rotate(-37.5 489.05 204.33)" class="st7" cx="489.1" cy="204.3" r=".5"/>
  <circle transform="rotate(-37.5 503.35 185.53)" class="st7" cx="503.4" cy="185.5" r=".5"/>
  <circle transform="rotate(-37.5 524.05 213.43)" class="st7" cx="524.1" cy="213.4" r=".5"/>
  <circle transform="rotate(-37.5 534.17 229.29)" class="st7" cx="534.2" cy="229.3" r=".5"/>
  <circle transform="rotate(-37.5 518.15 250.32)" class="st7" cx="518.2" cy="250.3" r=".5"/>
  <circle transform="rotate(-37.5 558.4 190)" class="st7" cx="558.4" cy="190" r=".5"/>
  <circle transform="rotate(-37.5 553.64 180.53)" class="st7" cx="553.7" cy="180.5" r=".5"/>
  <circle transform="rotate(-37.5 572.22 187.07)" class="st7" cx="572.3" cy="187.1" r=".5"/>
  <circle transform="rotate(-37.5 578.16 149.7)" class="st7" cx="578.2" cy="149.7" r=".5"/>
  <circle transform="rotate(-37.5 597.46 191.99)" class="st7" cx="597.5" cy="192" r=".5"/>
  <circle transform="rotate(-37.5 597.86 177.69)" class="st7" cx="597.9" cy="177.7" r=".5"/>
  <circle transform="rotate(-37.5 533.27 198.29)" class="st7" cx="533.3" cy="198.3" r=".5"/>
  <circle transform="rotate(-37.5 568.56 207.29)" class="st7" cx="568.6" cy="207.3" r=".5"/>
  <circle transform="rotate(-37.5 591.66 196.59)" class="st7" cx="591.7" cy="196.6" r=".5"/>
  <circle transform="rotate(-37.5 589.84 225.53)" class="st7" cx="589.9" cy="225.5" r=".5"/>
  <circle transform="rotate(-37.5 578.84 199.13)" class="st7" cx="578.9" cy="199.1" r=".5"/>
  <circle transform="rotate(-37.5 598.44 207.83)" class="st7" cx="598.5" cy="207.8" r=".5"/>
  <circle class="st7" cx="596" cy="277" r=".5"/>
  <circle transform="rotate(-62.6 599.3 244.9)" class="st7" cx="599.3" cy="244.9" r=".5"/>
  <circle transform="rotate(-62.6 588.1 222.2)" class="st7" cx="588.1" cy="222.2" r=".5"/>
  <circle transform="rotate(-62.6 577.6 248.9)" class="st7" cx="577.6" cy="248.9" r=".5"/>
  <circle class="st7" cx="581.3" cy="263" r=".5"/>
  <circle transform="rotate(-5.5 557 203.43)" class="st7" cx="557" cy="203.4" r=".5"/>
  <circle transform="rotate(-5.5 540.4 217.23)" class="st7" cx="540.4" cy="217.2" r=".5"/>
  <circle transform="rotate(-5.5 544.7 212.43)" class="st7" cx="544.7" cy="212.4" r=".5"/>
  <circle class="st7" cx="566.6" cy="268.6" r=".5"/>
  <circle transform="rotate(-5.5 384.3 231.82)" class="st7" cx="384.3" cy="231.8" r=".5"/>
  <circle transform="rotate(-5.5 568 237.93)" class="st7" cx="568" cy="237.9" r=".5"/>
  <circle class="st7" cx="563.3" cy="276.8" r=".5"/>
  <circle transform="rotate(-5.5 388.1 224.62)" class="st7" cx="388.1" cy="224.6" r=".5"/>
  <circle transform="rotate(-5.5 558.1 241.93)" class="st7" cx="558.1" cy="241.9" r=".5"/>
  <circle class="st7" cx="499.7" cy="266.7" r=".5"/>
  <circle class="st7" cx="560.9" cy="276.5" r=".5"/>
  <circle class="st7" cx="576.8" cy="268.5" r=".5"/>
  <circle transform="scale(.99996) rotate(-4.7 440 208.32)" class="st7" cx="440" cy="208.3" r=".5"/>
  <circle transform="rotate(-76.2 293.1 218)" class="st7" cx="293.1" cy="218" r=".5"/>
  <circle transform="rotate(-76.2 345 205.01)" class="st7" cx="345" cy="205" r=".5"/>
  <circle transform="scale(.99996) rotate(-4.7 426.8 178.72)" class="st7" cx="426.8" cy="178.7" r=".5"/>
  <circle transform="rotate(-76.2 306.3 186.6)" class="st7" cx="306.3" cy="186.6" r=".5"/>
  <circle transform="scale(.99996) rotate(-4.7 404.3 166.02)" class="st7" cx="404.3" cy="166" r=".5"/>
  <circle transform="scale(.99996) rotate(-4.7 409.6 194.22)" class="st7" cx="409.6" cy="194.2" r=".5"/>
  <circle transform="scale(.99996) rotate(-4.7 420.1 204.22)" class="st7" cx="420.1" cy="204.2" r=".5"/>
  <circle transform="rotate(-37.5 426.47 230.29)" class="st7" cx="426.5" cy="230.3" r=".5"/>
  <circle transform="rotate(-37.5 410.75 216.73)" class="st7" cx="410.8" cy="216.7" r=".5"/>
  <circle transform="rotate(-37.5 384.28 211.79)" class="st7" cx="384.3" cy="211.8" r=".5"/>
  <circle transform="rotate(-37.5 412.17 225.29)" class="st7" cx="412.2" cy="225.3" r=".5"/>
  <circle transform="rotate(-37.5 409.97 226.49)" class="st7" cx="410" cy="226.5" r=".5"/>
  <circle transform="rotate(-37.5 420.05 242.32)" class="st7" cx="420.1" cy="242.3" r=".5"/>
  <circle transform="rotate(-37.5 444.23 203.07)" class="st7" cx="444.3" cy="203.1" r=".5"/>
  <circle transform="rotate(-19.1 281.92 213.84)" class="st7" cx="281.9" cy="213.8" r=".5"/>
  <circle transform="rotate(-37.5 458.05 200.13)" class="st7" cx="458.1" cy="200.1" r=".5"/>
  <circle transform="rotate(-19.1 315.02 192.11)" class="st7" cx="315" cy="192.1" r=".5"/>
  <circle transform="rotate(-37.5 483.45 205.13)" class="st7" cx="483.5" cy="205.1" r=".5"/>
  <circle class="st7" cx="378.4" cy="278.7" r=".5"/>
  <circle transform="rotate(-37.5 516.37 219.79)" class="st7" cx="516.4" cy="219.8" r=".5"/>
  <circle transform="rotate(-19.1 324.82 225.01)" class="st7" cx="324.8" cy="225" r=".5"/>
  <circle transform="rotate(-37.5 513.67 195.79)" class="st7" cx="513.7" cy="195.8" r=".5"/>
  <path class="st7" d="M511.1 176.8c.2-.2.5-.1.7.1.2.2.1.5-.1.7s-.5.1-.7-.1c-.1-.2-.1-.5.1-.7z"/>
  <circle transform="rotate(-37.5 419.17 211.29)" class="st7" cx="419.2" cy="211.3" r=".5"/>
  <circle transform="rotate(-37.5 455.27 222.49)" class="st7" cx="455.3" cy="222.5" r=".5"/>
  <circle transform="rotate(-37.5 477.67 209.59)" class="st7" cx="477.7" cy="209.6" r=".5"/>
  <circle transform="rotate(-37.5 475.67 238.59)" class="st7" cx="475.7" cy="238.6" r=".5"/>
  <circle transform="rotate(-37.5 506.15 245.32)" class="st7" cx="506.2" cy="245.3" r=".5"/>
  <circle transform="rotate(-37.5 464.77 212.29)" class="st7" cx="464.8" cy="212.3" r=".5"/>
  <circle transform="rotate(-37.5 484.27 220.89)" class="st7" cx="484.3" cy="220.9" r=".5"/>
  <circle class="st7" cx="486.4" cy="258" r=".5"/>
  <circle transform="rotate(-62.6 371.4 231.1)" class="st7" cx="371.4" cy="231.1" r=".5"/>
  <circle transform="rotate(-62.6 474 235.1)" class="st7" cx="474" cy="235.1" r=".5"/>
  <circle class="st7" cx="463.6" cy="262" r=".5"/>
  <circle class="st7" cx="467.2" cy="276" r=".5"/>
  <circle transform="rotate(-5.5 442.9 216.42)" class="st7" cx="442.9" cy="216.4" r=".5"/>
  <circle transform="rotate(-5.5 426.4 230.32)" class="st7" cx="426.4" cy="230.3" r=".5"/>
  <circle transform="rotate(-5.5 430.6 225.42)" class="st7" cx="430.6" cy="225.4" r=".5"/>
  <circle class="st7" cx="418.2" cy="270.6" r=".5"/>
  <circle transform="rotate(-5.5 453.9 250.92)" class="st7" cx="453.9" cy="250.9" r=".5"/>
  <circle class="st7" cx="421.9" cy="263.4" r=".5"/>
  <circle transform="rotate(-5.5 444 254.92)" class="st7" cx="444" cy="254.9" r=".5"/>
  <circle class="st7" cx="489.3" cy="277.5" r=".5"/>
  <circle transform="rotate(-5.5 378.6 238.52)" class="st7" cx="378.6" cy="238.5" r=".5"/>
  <circle transform="rotate(-9 363.3 170.23)" class="st7" cx="363.2" cy="170.2" r=".5"/>
  <circle transform="rotate(-41.8 362.78 203)" class="st7" cx="362.8" cy="203" r=".5"/>
  <circle transform="rotate(-41.8 384.52 196.7)" class="st7" cx="384.5" cy="196.7" r=".5"/>
  <circle transform="rotate(-41.8 403.72 180.6)" class="st7" cx="403.7" cy="180.6" r=".5"/>
  <circle transform="rotate(-41.8 399.42 95.5)" class="st7" cx="399.4" cy="95.5" r=".5"/>
  <circle transform="rotate(-41.8 390.72 85.8)" class="st7" cx="390.7" cy="85.8" r=".5"/>
  <path class="st7" d="M159.3 215.9c.9 0 1.6 0 1.6-.1l-1.6-.2c0-.4-.4-.8-.8-.8l-.2-1.6-.2 1.6c-.4 0-.8.4-.8.8l-1.6.2c0 .1.6.2 1.6.2 0 .5.4.8.8.8 0 1 .2 1.6.2 1.6s.2-.6.2-1.6c.5 0 .8-.4.8-.8v-.1z"/>
  <radialGradient id="SVGID_00000056423032891781814750000001985393357099683476_" cx="158.2" cy="701.8" r="3.84" gradientTransform="translate(0 -486)" gradientUnits="userSpaceOnUse">
    <stop offset="0" stop-color="#fff"/>
    <stop offset=".6" stop-color="#fff" stop-opacity="0"/>
  </radialGradient>
  <circle cx="158.2" cy="215.8" r="3.8" fill="url(#SVGID_00000056423032891781814750000001985393357099683476_)"/>
  <path d="M314.9 280.2h3.4a3 3 0 0 0-3.4 0z" fill="none"/>
  <path class="st1" d="M323.9 2.5c4.6 4.6 7.9 1.8 8.8-1h-10l1.2 1z"/>
</svg>
