<?xml version="1.0" encoding="UTF-8"?>
<svg id="Layer_2" data-name="Layer 2" xmlns="http://www.w3.org/2000/svg" xmlns:xlink="http://www.w3.org/1999/xlink" viewBox="0 0 188.37 179.3">
  <defs>
    <style>
      .cls-1 {
        fill: #823eed;
      }

      .cls-2 {
        fill: #383838;
      }

      .cls-3 {
        fill: #fff;
        filter: url(#drop-shadow-1);
        stroke: #949494;
      }

      .cls-3, .cls-4, .cls-5, .cls-6 {
        stroke-width: 2px;
      }

      .cls-3, .cls-7 {
        stroke-miterlimit: 10;
      }

      .cls-4 {
        fill: #f3b572;
        stroke: #a66d29;
      }

      .cls-4, .cls-5, .cls-6 {
        stroke-linecap: round;
        stroke-linejoin: round;
      }

      .cls-5 {
        fill: #c1a584;
        stroke: #92672b;
      }

      .cls-6 {
        fill: #f8e7b8;
        stroke: #b38c3e;
      }

      .cls-7 {
        fill: none;
        stroke: #666;
      }
    </style>
    <filter id="drop-shadow-1" x="83.09" y="0" width="105.28" height="44.05" filterUnits="userSpaceOnUse">
      <feOffset dx="0" dy="3"/>
      <feGaussianBlur result="blur" stdDeviation="0"/>
      <feFlood flood-color="#000" flood-opacity=".14"/>
      <feComposite in2="blur" operator="in"/>
      <feComposite in="SourceGraphic"/>
    </filter>
  </defs>
  <g id="Layer_1-2" data-name="Layer 1">
    <g>
      <g>
        <path class="cls-2" d="M102.86,77.25c.18.07.45-.22.6.15-.02-.32.25-.08.27-.33.27,0,.49.03.62.15.59-.4,2.07.1,2.15.95.94.08.85.46,1.49.83-.03,1.75-.33,3.41,0,5.19.09-.13.14-.24.23-.36.21-.04.06.43.22.45.36.07.3-.49.3-.8.16.09.24.14.22.39.09-.15.14.02.21-.27.25-.24.14.09.17.27.22.01.24.55.35.97-.78.79-.41,1.75-1.7,2-.46-.54-.6-.79-1.11-1.25-.31-.55-.09-1.35-.42-2.05-.08.42-.42,1.21-.58.91-.9,1.56-2.27,2.8-4.26,1.96-.64-.96-1.34-1.82-1.73-3.06.13-.92.07-1.64.11-2.59.16.03.2-.06.3-.09-.06-.16.08-.52-.08-.56.21-.24.27-.06.63-.12-.02-.13-.27-.11-.29-.37-.09-.25.29-.15.43-.17-.5-.77.41-.31.36-1.21.22.14.34-.02.3-.17.11-.25.45.07.46-.42.18.29.72-.04.77-.41ZM104.95,83.17c.15-.7.72-1.45,1.18-1.94.1-.78.15-1.21.21-2.02-.47.02-.76-.53-1.2-.62-.13-.02-.27-.14-.47-.12-.77.03-.74.1-1.32.63.02-.02-.09-.12-.16-.09-.38.22-.85.79-.81,1.34-.73.39-.75,1.83-.67,2.42-.11,0-.14.22-.25.22.17.52-.08,1.14.27,1.49.25-.2.73.77,1.04.76.78-.59,1.25-.56,2.19-2.08Z"/>
        <path class="cls-2" d="M115.61,77.84c-1.78-.01-2.38,1.36-3.26,2.35-.13,1.28-.46,2.04.86,2.65,1.57.25,2.6-.7,3.26-1,.08-.86-.04-1.4-.15-2.05.25-.2.42-.56.73-.6,1.24-.16,1.04,1.01.98,2.24-.03.43.12,1.06.2,1.46.06.25.24.38.31.57.08.29.03.65.01.94-.01.25.04.56.06.75.02.13-.16.15-.16.15.06.5.27,1.4.24,1.73.14,2.2-2.12,2.91-3.78,2.91-.41-.01-1.6.04-1.32-.32-.2-.05-.78-.12-.99-.22-.24-.12-.83-.17-.62-.48-.38-.03-.49-.28-.7-.19-.27.11-.29-.43-.46-.62-.62-.77-.85-1.57.35-2.24,0,.07.34.14.45.14.22,2.03,3.39,3.02,5.21,1.73.77-1.38.09-3.08-.15-4.46-.07.04-.44.73-.56.19-1.09.72-3.64,1.42-4.88-.04-.51-.61-.82-2.24-.48-3.38.35-1.07,1.5-2.5,2.79-3.01.43-.19,1.69-.54,2.06-.66.36.08.56.33.96.37.41.84,1.4.67.18,1.53-.54-.32-.63.08-1.16-.42Z"/>
        <path class="cls-2" d="M122.18,86.35c-.78-.17-1.23-.74-1.04-1.32-.11-.27-.35-.68-.17-.9-.27-1.22-.67-3.43-1.18-4.58.07-.34.01-.4-.15-.79.27.09.49-.98,1.48-.79.2.05.49,1.65.51,1.69.4-.08.72-1.14.85-1.5.76-.03,1.09-.99,1.7-.69.86-.46,1.11-.3,1.86.14.35.28.26.83.36,1.04-.2,0-.29.09-.46.28-1.16-.29-2.71.41-3.38,3.07-.12.42.06.76.21.93-.02.07-.1.43-.1.4,0,.67.56,1.47.21,2.63-.21.13-.47.26-.68.41Z"/>
        <path class="cls-2" d="M135.81,84.44c-1.71,1.16-3.52,1.9-6.13,2.02-1.3-.34-2.52-1.08-2.61-2.63-.04-.07-.11-.11-.2-.16.18-1.28-.73-.86-1.51-1.28,0-.63.28-.96.47-1.34.47.12.56-.15.96.19.16,0,.14-.25.32-.24.13-1.32,1.25-2.2,1.85-3.23.34-.22.9-.23,1-.75.09.05.15.11.15.25.16-.43.88-.37,1-.61.85.21,1.49-.22,2.45.26.24.66.69.42.81,1.11.2,1.26-.8,2.08-1.46,2.83-.34.08-.52-.08-.61.31-.72.08-1.05,1.09-1.66.96-.07.15-.18.24-.21.42-.24-.23-.29-.01-.54-.23-.35.65-1.71.18-1.73,1.05.02-.11.13.43.13.45.41.79,1.6,1.02,2.78.86.54-.06,1.13-.43,1.74-.65.39-.13.86-.17,1.17-.27.09-.04.27-.36.36-.38.11-.04.27.16.36.12.54-.12.35-.6.69-.71.31.52.35.95.44,1.65ZM128.54,81.22c1.19-.03,1.41-.68,2.38-.82.23-.43.8-.75,1.13-.68.23-.58,1.18-.7,1.15-1.53-2.08-.67-3.29.75-4.38,2.04-.02.2-.35.9-.28.99Z"/>
        <path class="cls-2" d="M145.81,84.31c-1.71,1.16-3.52,1.9-6.13,2.02-1.3-.34-2.52-1.08-2.61-2.63-.04-.07-.11-.11-.2-.16.18-1.28-.73-.85-1.51-1.28,0-.63.28-.96.47-1.34.47.12.56-.15.96.18.16,0,.14-.25.32-.24.13-1.32,1.25-2.2,1.85-3.23.34-.22.9-.23,1-.75.09.05.15.11.15.25.16-.43.88-.37,1-.61.85.2,1.49-.22,2.45.26.24.66.69.42.81,1.11.2,1.26-.8,2.08-1.46,2.83-.34.08-.52-.08-.61.31-.72.08-1.05,1.09-1.66.96-.07.15-.18.24-.21.42-.24-.23-.29-.01-.54-.23-.35.65-1.71.18-1.73,1.05.02-.11.13.43.13.45.41.79,1.6,1.02,2.79.86.54-.06,1.13-.43,1.74-.65.39-.13.86-.17,1.17-.27.09-.04.27-.36.36-.38.11-.04.27.16.36.12.54-.12.35-.6.69-.71.31.52.35.95.44,1.65ZM138.55,81.09c1.19-.03,1.41-.68,2.38-.82.23-.44.8-.75,1.12-.68.23-.58,1.18-.7,1.15-1.53-2.08-.68-3.29.75-4.38,2.04-.01.2-.35.9-.27.99Z"/>
      </g>
      <g>
        <path class="cls-2" d="M21.58,65.84c0-.09-.15-.34-.15-.43-1.46-1.28-3.96-.94-5.02.5,1.12,1.55,2.26.92,3.96,1.39-.05.2.35.28.35.43,1.05.06,2.19.73,2.8,1.69.23,2.55-1.61,3.48-3.97,3.51-.83-.04-2.68.02-3.49-.82-.29.06-.38-.12-.54-.21.07-.43-.22-.63-.21-.79.35-.47.24-1.17.85-1.16.14.03.15.11.08.21.34-.18.47-.06.79.06-.07.24-.23.67-.39.58.5.89,1.86.44,2.89.7.05-.05.11-.15.12-.22.79.06,1.36-.34,1.9-.78,0-.2.12-.51-.13-.47-.09-.11.12-.25.12-.24.02,0-.4-.62-.6-.69-.04-.02-.16.13-.27.08-.2-.11-.2-.16-.56-.3-.49-.19-1.1-.4-1.59-.54-.51-.14-1.06.14-1.53.07-.04,0-.13-.2-.2-.21-.45-.14-.55-.46-.82-.85-.16-.03-.14.13-.34.08-.42-.46-.94-2.02.1-2.34-.06-.21.07-.25.07-.43.48-.13.39-.13.51-.67.3-.13.18,0,.29-.18.2.11.72.08.75-.32.25.25.93-.66,1.17.09.25-.06,0-.25.14-.36.29.1.42.17.67,0,.04.34.09.11.27.07.11.14-.02.09,0,.29.25.07.12-.24.27-.29.42.12.69.19.89.58.11-.02.07-.18.07-.29.78.26.93.55,1.63,1.04.12.7-.33,1.05-.87,1.24Z"/>
        <path class="cls-2" d="M29.11,63.63c-.49.89-1.72.98-2.59,1.37-.23,1.7-.22,3.87-.1,5.87,0,.13.6.26.58.42.73-.37,1.21-.18,1.8.07-.11,1.12-1.39,1.39-2.32,1.51-.18-.29-.46-.3-.67-.26-1.64-1.51-.54-5.09-.83-7.14-.25-.14-.66.19-.93.23-.51-.23-.73-.73-.95-1.25.36-.33.91-.55,1.47-.56.45-.17.3-.71.38-1.41.1-.78.38-1.23.44-2.02.43.01.78.1,1.21.25.46.64-.07,1.78-.04,2.41.93-.44,2.03-.6,2.56.51Z"/>
        <path class="cls-2" d="M31.35,72.72c-.78-.17-1.23-.74-1.04-1.32-.11-.27-.35-.68-.17-.9-.27-1.22-.67-3.43-1.18-4.58.07-.34.01-.4-.15-.79.27.09.49-.98,1.48-.79.2.05.49,1.65.51,1.69.4-.08.72-1.14.85-1.51.76-.03,1.08-.99,1.7-.69.86-.46,1.11-.3,1.86.14.35.28.26.83.36,1.04-.2,0-.29.09-.46.28-1.16-.29-2.71.41-3.38,3.07-.12.42.06.76.21.93-.02.07-.1.43-.1.4,0,.67.56,1.47.21,2.63-.21.13-.46.26-.68.41Z"/>
        <path class="cls-2" d="M42.82,64.46c.22.05.14.05.36,0,.29.39.66.71.93,1.14.84,2.04-.18,3.86-1.14,5.13-.13.02-.13-.05-.15-.14-.26.67-.92.97-1.33,1.51-.42-.05-.57.13-.62.44-.63.17-1.46.38-1.93.15-.07.05-.07.18-.21.15.1-.25-.23-.03-.22-.21-.88.03-1.43-.32-1.92-1.04-1.41-.43-1.65-2.41-1.41-4.32.36.03.05-.47.41-.64.31-1.19,1.19-2.39,2.39-2.95.23-.25.5-.53.91-.59.2-.07.43-.24.81-.17,1.02-.14,1.86.25,2.48.99.4,0,.63.15.64.55ZM37.89,65.77c-.65,1.41-1.75,2.49-.75,4.75.46.73,1.25.56,2.29.48.03-.2.45-.22.48-.42.76.12,1.11-.74,1.75-.96.14-.61.56-.93.97-1.29.17-.85.33-1.21.17-2.23-.34-.19-.66-.8-1.2-.78.03-.23.03-.14,0-.36-.87-.15-1.35.05-2.09-.39-.61.3-.98.97-1.62,1.21Z"/>
        <path class="cls-2" d="M53.29,72.21c-.25.11-.47-.48-.82-.51.01-1.66.08-3.75-.5-5.27-.39-1.02-1.64-2.95-2.58-1.53-.26.43-.48,1.37-.73,1.9-.3.63-.54,1.3-.75,1.97,0,.02-.18.04-.2.07-.49,1.34-.11,2.59-.56,3.75-.7.44-1.23-.27-1.49-.81-.11-2.86-.2-5.26-.38-8.64.29.1.23-.18.39-.22.44.19.69.12.94.51-.15,1.16.1,2.09.32,3.67.02-.14.17-.76.33-.69.1-.34.02-1.49.52-1.65.03-.83.62-1.02.84-1.61.52-.15.91-.46,1.54-.49.71.31,1.77.45,2.28.98,1.1,2.58,2.11,5.7,1.35,8.48-.23.17-.59-.06-.52.08Z"/>
        <path class="cls-2" d="M60.79,63.74c-1.78-.01-2.38,1.36-3.26,2.35-.13,1.28-.46,2.04.86,2.65,1.57.25,2.6-.7,3.26-1,.08-.87-.04-1.4-.15-2.05.25-.2.42-.56.73-.6,1.24-.16,1.04,1.01.98,2.24-.03.43.12,1.06.2,1.46.06.25.24.38.31.57.08.29.03.65.01.94-.02.25.04.56.06.75.02.13-.16.15-.16.15.06.5.27,1.4.24,1.73.14,2.2-2.12,2.91-3.78,2.91-.41-.01-1.6.04-1.32-.33-.2-.05-.78-.12-.99-.22-.24-.12-.83-.17-.62-.48-.38-.03-.49-.28-.71-.19-.27.11-.29-.43-.46-.62-.62-.77-.85-1.57.35-2.24,0,.07.34.14.45.14.22,2.03,3.39,3.02,5.21,1.73.77-1.38.09-3.08-.15-4.46-.07.04-.44.73-.56.19-1.09.72-3.64,1.42-4.88-.04-.51-.61-.82-2.24-.48-3.38.35-1.07,1.5-2.5,2.79-3.01.43-.19,1.69-.54,2.06-.66.36.08.56.33.96.37.41.84,1.39.67.18,1.53-.54-.32-.63.08-1.16-.42Z"/>
        <path class="cls-2" d="M67.49,71.89c-.12.4-.41.13-.35.6-1.92.13-1.34-1.71-1.36-3.28-.01-.77.23-1.55.17-2.31-.09-1.73-.21-3.67-.2-5.53,0-.77-.19-2.27-.13-2.86.36-.15.75.69,1.29.61.65,4.21.72,8.53.58,12.76Z"/>
        <path class="cls-2" d="M74.52,62.72c.27.05.27-.13.39-.02.23.02.2.29.53.21.32.75.42,1.74.7,2.55.37.41.52.93.47,1.58.41.95.12,2.01.87,2.74-.07,1.19.21,2.27-.17,3.37-.54,1.46-2.15,2.58-3.86,2.59-.34,0-.81-.3-1.41-.11-.25-.25-.78-.24-.91-.62-.38.24-.27,0-.75-.48-.4-.37-.89-.46-.77-1.09-.07.05-.07.16-.21.15,0-.32.06-.76-.09-1.04.57-.28.72-.04,1.19-.21.22.16.09.34.33.41-.05.11-.16.27-.23.27-.05.34.51.64.8.89,1.93.44,3.13.1,4.36-1.08q.05-.29,0-.56c.81-1.52-.22-3.4-.42-4.46-.43.22-.57.69-.72,1.18-.93.21-.99,1.15-2.2.93-.9-.17-1.41-.72-1.67-1.06-.15-.21-.12-.68-.3-.97-.07-.11-.25-.1-.31-.19-.26-.5-.25-1.15-.4-1.72-.13-.52-.54-1.04-.56-1.58-.06-.86.11-1.68.04-2.34.49.05.72.19,1.12.18.35.8.67,1.85.77,2.67-.18,0-.12.11-.18.22.08.54.21,1.19.38,1.8.17.54.23,1.38,1.23,1.48-.07-.07.32-.4.66-.5,1.28-1.13.73-1.81,1.22-3.06-.16-1.13-.23-1.44-.19-2.41.14.02.31.12.29.28Z"/>
        <path class="cls-2" d="M29.3,83.4c.18.07.45-.22.6.15-.02-.32.25-.08.27-.33.27,0,.49.03.62.15.59-.4,2.07.1,2.15.95.94.08.85.46,1.49.83-.03,1.75-.33,3.41,0,5.19.09-.13.14-.24.23-.36.21-.04.06.43.22.45.36.07.3-.49.3-.8.16.09.24.14.22.39.09-.15.14.02.21-.27.25-.24.14.09.17.27.22.01.24.55.35.97-.78.79-.41,1.75-1.7,2-.46-.54-.6-.79-1.11-1.25-.31-.55-.09-1.35-.42-2.05-.08.42-.42,1.21-.58.91-.9,1.56-2.27,2.8-4.26,1.96-.64-.96-1.34-1.82-1.73-3.06.13-.92.07-1.64.11-2.59.16.03.2-.06.31-.09-.06-.16.08-.52-.08-.56.21-.24.27-.06.63-.12-.02-.13-.27-.11-.29-.37-.09-.25.29-.15.43-.17-.5-.77.41-.31.36-1.21.22.14.34-.02.3-.17.11-.25.45.07.46-.42.18.29.72-.04.77-.41ZM31.39,89.31c.15-.7.72-1.45,1.18-1.94.1-.78.15-1.21.21-2.02-.47.02-.76-.53-1.2-.62-.13-.02-.27-.14-.47-.12-.77.03-.74.1-1.32.63.02-.02-.09-.12-.16-.09-.38.22-.85.79-.81,1.34-.73.39-.75,1.83-.67,2.42-.11,0-.14.22-.25.22.17.52-.08,1.14.27,1.49.25-.2.73.77,1.04.76.78-.59,1.25-.56,2.19-2.08Z"/>
        <path class="cls-2" d="M42.05,83.99c-1.78-.01-2.38,1.36-3.26,2.35-.13,1.28-.46,2.04.86,2.65,1.57.25,2.6-.7,3.26-1,.08-.87-.04-1.4-.15-2.05.25-.2.42-.56.73-.6,1.24-.16,1.04,1.01.98,2.24-.03.43.12,1.06.2,1.46.06.25.24.38.31.57.08.29.03.65.01.94-.02.25.04.56.06.75.02.13-.16.15-.16.15.06.5.27,1.4.24,1.72.14,2.2-2.12,2.91-3.78,2.91-.41-.01-1.6.04-1.32-.32-.2-.05-.78-.12-.99-.22-.24-.12-.83-.17-.62-.48-.38-.03-.49-.28-.7-.19-.27.11-.29-.43-.46-.62-.62-.77-.85-1.57.35-2.24,0,.07.34.14.45.14.22,2.03,3.39,3.02,5.21,1.73.77-1.38.09-3.08-.15-4.46-.07.04-.44.73-.56.19-1.09.72-3.64,1.42-4.88-.04-.51-.61-.82-2.24-.48-3.38.35-1.07,1.5-2.5,2.79-3.01.43-.19,1.69-.54,2.06-.66.36.08.56.33.96.37.41.84,1.4.67.18,1.53-.54-.32-.63.08-1.16-.42Z"/>
        <path class="cls-2" d="M48.62,92.49c-.78-.17-1.23-.74-1.04-1.32-.11-.27-.35-.68-.17-.9-.27-1.22-.67-3.43-1.18-4.58.07-.34.01-.4-.15-.79.27.09.49-.98,1.48-.79.2.05.49,1.65.51,1.69.4-.08.72-1.14.85-1.5.76-.03,1.08-.99,1.7-.69.86-.46,1.11-.3,1.86.14.35.28.26.83.36,1.04-.2,0-.29.09-.46.28-1.16-.29-2.71.41-3.38,3.07-.12.42.06.76.21.93-.02.07-.1.43-.1.4,0,.67.56,1.47.21,2.62-.21.13-.46.26-.68.41Z"/>
        <path class="cls-2" d="M62.24,90.59c-1.71,1.16-3.52,1.9-6.13,2.02-1.3-.34-2.52-1.08-2.61-2.63-.04-.07-.11-.11-.2-.16.18-1.28-.73-.86-1.51-1.28,0-.63.28-.96.47-1.34.47.12.56-.15.96.19.16,0,.14-.25.32-.24.13-1.32,1.25-2.2,1.85-3.23.34-.22.9-.23,1-.75.09.05.15.11.15.25.16-.43.88-.37,1-.61.85.21,1.49-.22,2.45.26.24.66.69.42.81,1.11.2,1.26-.8,2.08-1.46,2.83-.34.08-.52-.08-.61.31-.72.08-1.05,1.09-1.66.96-.07.15-.18.24-.21.42-.24-.23-.29-.01-.54-.23-.35.65-1.71.18-1.73,1.05.02-.11.13.43.13.45.41.79,1.6,1.02,2.78.86.54-.06,1.13-.43,1.74-.65.39-.13.86-.17,1.17-.27.09-.04.27-.36.36-.38.11-.04.27.16.36.12.54-.12.35-.6.69-.71.31.52.35.95.44,1.65ZM54.98,87.37c1.19-.03,1.41-.69,2.38-.82.23-.43.8-.75,1.13-.68.23-.58,1.18-.7,1.15-1.53-2.08-.67-3.29.75-4.38,2.04-.02.2-.35.9-.28.99Z"/>
        <path class="cls-2" d="M72.25,90.46c-1.71,1.16-3.52,1.9-6.13,2.02-1.3-.34-2.52-1.08-2.61-2.63-.04-.07-.11-.11-.2-.16.18-1.28-.73-.85-1.51-1.28,0-.63.28-.96.47-1.34.47.12.56-.15.96.19.16,0,.14-.25.32-.24.13-1.32,1.25-2.2,1.85-3.23.34-.22.9-.23,1-.75.09.05.15.11.15.25.16-.43.88-.37,1-.61.85.2,1.49-.22,2.45.26.24.66.69.42.81,1.11.2,1.26-.8,2.08-1.46,2.83-.34.08-.52-.08-.61.32-.72.08-1.05,1.09-1.66.96-.07.15-.18.24-.21.42-.24-.23-.29-.01-.54-.23-.35.65-1.71.18-1.73,1.05.02-.11.13.43.13.45.41.79,1.6,1.02,2.79.86.54-.06,1.13-.43,1.74-.65.39-.13.86-.17,1.17-.27.09-.04.27-.36.36-.38.11-.04.27.16.36.12.54-.12.35-.6.69-.71.31.52.35.95.44,1.65ZM64.99,87.24c1.19-.03,1.41-.69,2.38-.82.23-.44.8-.75,1.12-.68.23-.58,1.18-.7,1.15-1.53-2.08-.68-3.29.75-4.38,2.04-.02.2-.35.9-.28.99Z"/>
      </g>
      <g>
        <path class="cls-2" d="M105.68,117.57c0-.09-.15-.34-.15-.43-1.46-1.28-3.96-.94-5.02.5,1.12,1.55,2.26.92,3.96,1.39-.05.2.35.28.35.43,1.04.06,2.19.73,2.79,1.69.23,2.55-1.61,3.48-3.97,3.51-.83-.04-2.68.02-3.49-.82-.29.06-.38-.12-.54-.21.07-.43-.22-.63-.21-.79.35-.47.24-1.17.85-1.16.14.03.14.11.07.21.34-.18.47-.06.79.06-.07.24-.23.67-.39.58.5.89,1.86.44,2.89.7.05-.05.11-.15.12-.22.79.06,1.36-.34,1.9-.78,0-.2.12-.51-.13-.47-.09-.11.12-.25.12-.24.02,0-.41-.62-.6-.69-.04-.02-.16.13-.27.08-.2-.11-.2-.16-.56-.3-.49-.19-1.1-.4-1.59-.54-.51-.14-1.06.14-1.53.07-.04,0-.13-.2-.2-.21-.45-.14-.55-.46-.82-.85-.16-.03-.14.13-.34.08-.42-.46-.95-2.02.1-2.34-.06-.21.07-.25.07-.43.48-.13.39-.13.51-.67.3-.13.18,0,.29-.18.2.11.72.08.75-.32.26.25.93-.66,1.17.09.25-.06,0-.25.14-.36.29.1.42.17.67,0,.04.34.09.11.27.07.11.14-.02.09,0,.29.25.07.12-.24.27-.29.42.12.69.19.89.58.11-.02.07-.18.07-.29.78.26.93.55,1.63,1.04.12.7-.33,1.05-.87,1.24Z"/>
        <path class="cls-2" d="M113.21,115.37c-.49.89-1.71.98-2.59,1.37-.23,1.7-.22,3.87-.1,5.87,0,.13.6.26.58.42.73-.37,1.21-.18,1.8.07-.11,1.12-1.39,1.39-2.32,1.51-.18-.29-.45-.3-.67-.26-1.64-1.51-.53-5.09-.83-7.14-.25-.14-.66.19-.93.23-.51-.23-.73-.73-.95-1.25.36-.33.91-.55,1.47-.56.45-.17.3-.71.38-1.41.1-.78.38-1.23.44-2.02.43.01.78.1,1.21.25.46.64-.07,1.78-.04,2.41.93-.44,2.03-.6,2.56.51Z"/>
        <path class="cls-2" d="M115.45,124.45c-.78-.17-1.23-.74-1.04-1.32-.11-.27-.35-.68-.17-.9-.27-1.22-.68-3.43-1.18-4.58.07-.34.01-.4-.15-.79.27.09.49-.98,1.48-.79.2.05.49,1.65.51,1.69.4-.08.72-1.14.84-1.51.76-.03,1.09-.99,1.7-.69.86-.46,1.11-.3,1.86.14.35.28.26.83.36,1.04-.2,0-.29.09-.46.28-1.16-.29-2.71.41-3.38,3.07-.12.42.06.76.21.93-.02.07-.1.43-.1.4,0,.67.56,1.47.21,2.63-.21.13-.47.26-.68.41Z"/>
        <path class="cls-2" d="M126.92,116.2c.22.05.15.05.36,0,.29.39.66.71.93,1.14.84,2.04-.18,3.86-1.14,5.13-.13.02-.13-.05-.15-.14-.26.67-.92.97-1.33,1.51-.42-.05-.57.13-.62.44-.63.17-1.45.38-1.92.15-.07.05-.07.18-.21.15.1-.25-.23-.03-.22-.21-.88.03-1.43-.32-1.92-1.04-1.41-.43-1.65-2.41-1.41-4.32.36.03.05-.47.41-.64.31-1.19,1.19-2.39,2.39-2.95.23-.25.5-.53.91-.59.2-.07.43-.24.81-.17,1.02-.14,1.86.25,2.48.99.4,0,.63.15.64.55ZM121.99,117.51c-.65,1.41-1.75,2.49-.75,4.75.46.73,1.25.56,2.29.48.03-.2.45-.22.48-.42.76.12,1.11-.74,1.75-.96.14-.61.56-.93.97-1.29.17-.85.33-1.21.17-2.23-.34-.19-.66-.8-1.2-.78.03-.23.03-.14,0-.36-.87-.15-1.35.05-2.09-.39-.61.3-.98.97-1.62,1.21Z"/>
        <path class="cls-2" d="M137.39,123.95c-.25.11-.47-.48-.82-.51.01-1.66.08-3.75-.5-5.27-.39-1.02-1.64-2.95-2.58-1.53-.26.43-.49,1.37-.73,1.9-.3.63-.54,1.3-.75,1.97,0,.02-.18.04-.2.07-.49,1.34-.11,2.59-.56,3.75-.7.44-1.23-.27-1.49-.81-.11-2.86-.2-5.26-.38-8.64.29.1.23-.18.39-.22.43.19.69.12.94.51-.15,1.16.1,2.09.32,3.67.02-.14.17-.76.33-.69.1-.34.02-1.49.52-1.65.03-.83.62-1.02.84-1.61.52-.15.91-.46,1.54-.49.71.31,1.77.45,2.28.98,1.1,2.58,2.11,5.7,1.35,8.48-.23.17-.6-.06-.52.08Z"/>
        <path class="cls-2" d="M144.89,115.48c-1.78-.01-2.38,1.36-3.26,2.35-.13,1.28-.46,2.04.86,2.65,1.57.25,2.6-.7,3.26-1,.08-.87-.04-1.4-.15-2.05.25-.2.42-.56.73-.6,1.24-.16,1.04,1.01.98,2.24-.03.43.12,1.06.2,1.46.06.25.24.38.31.57.08.29.03.65.01.94-.01.25.04.56.06.75.02.13-.16.15-.16.15.06.5.27,1.4.24,1.73.14,2.2-2.12,2.91-3.78,2.91-.41-.01-1.6.04-1.32-.33-.2-.05-.78-.12-.99-.22-.24-.12-.83-.17-.62-.48-.38-.03-.49-.28-.7-.19-.27.11-.29-.43-.46-.62-.62-.77-.85-1.57.35-2.24,0,.07.34.14.45.14.22,2.03,3.39,3.02,5.21,1.73.77-1.38.09-3.08-.15-4.46-.07.04-.44.73-.56.19-1.09.72-3.64,1.42-4.88-.04-.51-.61-.82-2.24-.48-3.38.35-1.07,1.5-2.5,2.79-3.01.43-.19,1.69-.54,2.06-.66.36.08.56.33.96.37.41.84,1.4.67.18,1.53-.54-.32-.63.08-1.16-.42Z"/>
        <path class="cls-2" d="M151.59,123.62c-.12.4-.41.13-.35.6-1.92.13-1.34-1.71-1.36-3.28-.01-.77.23-1.55.17-2.31-.09-1.73-.21-3.67-.2-5.53,0-.77-.19-2.27-.13-2.86.36-.15.75.69,1.29.61.65,4.21.72,8.53.58,12.76Z"/>
        <path class="cls-2" d="M158.62,114.45c.27.05.27-.13.4-.02.23.02.2.29.53.21.32.75.42,1.74.7,2.55.37.41.52.93.47,1.58.41.95.12,2.01.86,2.74-.07,1.19.21,2.27-.17,3.37-.54,1.46-2.15,2.58-3.86,2.59-.34,0-.81-.3-1.41-.11-.26-.25-.78-.24-.91-.62-.38.24-.27,0-.75-.48-.4-.37-.89-.46-.77-1.09-.07.05-.07.16-.21.15,0-.32.06-.76-.09-1.04.57-.28.72-.04,1.19-.21.22.16.09.34.33.41-.05.11-.16.27-.23.27-.05.34.51.64.8.89,1.93.44,3.13.1,4.36-1.08q.05-.29,0-.56c.81-1.52-.22-3.4-.42-4.46-.43.22-.57.69-.72,1.18-.93.21-.99,1.15-2.2.93-.9-.17-1.41-.72-1.67-1.06-.15-.21-.12-.68-.3-.97-.07-.11-.25-.1-.31-.19-.26-.5-.25-1.15-.4-1.72-.13-.52-.54-1.04-.56-1.58-.07-.86.1-1.68.04-2.34.49.05.72.19,1.12.18.35.8.67,1.85.77,2.67-.18,0-.12.11-.18.22.08.54.21,1.19.38,1.8.17.54.23,1.38,1.23,1.48-.07-.07.32-.4.66-.5,1.28-1.13.73-1.81,1.22-3.06-.16-1.13-.24-1.44-.19-2.41.14.02.31.12.29.28Z"/>
        <path class="cls-2" d="M106.57,137.35c.28.66.38,1.83.3,2.62.23.79.55,1.85.49,2.69.28.36.36,1.15.07,1.47-.61.1-.88.48-1.35.22-.02-.32-.33-.46-.14-.79-.11,0-.14,0-.16-.07.09-.29.05-.38-.03-.56-.22.63-1.16,1-1.58,1.59-.07-.05-.16-.09-.27-.09-3.96,1.46-5.31-1.42-4.83-3.27.05-.14-.11-.11-.11-.21-.13-1.53,1.29-3.35,2.35-3.78-.06-.47,0-.36.1-.65.25.02.42.19.63.12,0-.13-.04-.2-.04-.32.21-.51,1.45.5,1.61-.47.41.07.9-.05,1.3.2-.09-1.04.11-.99-.17-1.6.45-1.37,0-2.07.3-3.32.16-.18.74-.06.8-.33.62.28.53.75.58,1.65.02.52.07,1.19-.13,1.33.39.95.27,2.52.26,3.56ZM100.44,141.48c.45,1.13.22,1.51,1.32,1.82.32-.09,1.05.11,1.35-.07.12-.07.75-.73.91-.3.07-.54.89-.77,1.21-1.02-.1-.54.05-1.35-.22-2,.43-.19.05-1.82-.12-2.29-.23.02-.85-.03-1.01-.08-1.81.65-3,1.7-3.45,3.29.31.03.04.59,0,.65Z"/>
        <path class="cls-2" d="M111.29,136.57c.53,2.23-.44,5.05.02,7.04-.14.52-.47.87-.92,1.11-.23.09-.51-.07-.31-.43-.34.11-.27,0-.42-.16-.37-.37-.38-.44-.14-1.26.07-.22-.26-.37-.26-.63.03-.78.27-1.7.35-2.4.05-.65-.02-1.46.04-2.18.03-.43.42-.56.13-1.15.48-.56.97-.16,1.51.05ZM109.34,131.84c-.13.78.23,1.42.62,1.88,1.28.15,1.68-.94,1.47-1.84-.38-.08-.15-.54-.49-.57-.41.11-.56-.03-.87-.2-.12.36-.35.62-.73.73Z"/>
        <path class="cls-2" d="M119.44,137.4c0-.09-.15-.34-.15-.43-1.46-1.28-3.96-.94-5.02.5,1.12,1.55,2.26.92,3.96,1.39-.05.2.35.28.35.43,1.04.06,2.19.73,2.79,1.69.23,2.55-1.61,3.48-3.97,3.51-.83-.04-2.68.02-3.49-.82-.29.06-.38-.12-.54-.21.07-.43-.22-.63-.21-.79.35-.47.24-1.17.85-1.16.14.03.14.11.07.21.34-.18.47-.06.79.06-.07.24-.23.67-.39.58.5.89,1.86.44,2.89.7.05-.05.11-.15.12-.22.79.06,1.36-.34,1.9-.78,0-.2.12-.51-.13-.47-.09-.11.12-.25.12-.24.02,0-.41-.62-.6-.69-.04-.02-.16.13-.27.08-.2-.11-.2-.16-.56-.3-.49-.19-1.1-.4-1.59-.54-.51-.14-1.06.14-1.53.07-.04,0-.13-.2-.2-.21-.45-.14-.55-.46-.82-.85-.16-.03-.14.13-.34.08-.42-.46-.94-2.02.1-2.34-.06-.21.07-.25.07-.43.49-.13.39-.13.51-.67.3-.13.18,0,.29-.18.2.1.72.08.75-.32.25.25.93-.66,1.17.09.25-.06,0-.25.14-.36.29.1.42.17.67,0,.04.34.09.11.27.07.11.14-.02.09,0,.29.25.07.12-.24.27-.29.42.12.69.19.89.58.11-.02.07-.18.07-.29.78.26.93.55,1.63,1.04.12.7-.33,1.05-.87,1.24Z"/>
        <path class="cls-2" d="M124.9,134.98c.18.07.45-.22.6.15-.02-.32.25-.08.27-.33.27,0,.49.03.61.15.59-.4,2.07.1,2.16.94.94.08.85.46,1.49.83-.03,1.75-.33,3.41,0,5.19.09-.13.14-.24.23-.36.22-.04.06.43.22.45.36.07.3-.49.3-.8.16.09.24.14.22.39.09-.15.14.02.21-.27.25-.24.15.09.17.27.22.01.24.55.36.97-.78.79-.41,1.75-1.7,2-.46-.54-.6-.79-1.11-1.25-.31-.55-.09-1.35-.42-2.05-.08.42-.42,1.21-.58.91-.9,1.56-2.27,2.8-4.26,1.96-.64-.96-1.34-1.82-1.73-3.06.13-.92.07-1.64.11-2.59.16.03.2-.06.3-.09-.06-.16.08-.52-.08-.56.21-.24.27-.06.63-.12-.02-.13-.27-.1-.29-.37-.09-.25.29-.15.43-.17-.5-.77.41-.31.36-1.21.22.14.34-.02.3-.17.1-.25.45.07.46-.42.18.29.72-.05.77-.41ZM126.99,140.9c.15-.7.72-1.45,1.18-1.94.1-.78.15-1.21.21-2.02-.47.02-.76-.53-1.2-.62-.13-.02-.27-.14-.47-.12-.78.03-.74.1-1.33.63.02-.02-.09-.12-.16-.09-.38.22-.85.79-.81,1.34-.73.39-.75,1.83-.67,2.42-.11,0-.14.22-.25.22.17.52-.08,1.14.27,1.49.25-.2.73.76,1.04.76.78-.59,1.25-.56,2.19-2.08Z"/>
        <path class="cls-2" d="M137.65,135.57c-1.78-.01-2.38,1.36-3.26,2.35-.13,1.28-.46,2.04.86,2.65,1.57.25,2.6-.7,3.27-1,.08-.87-.04-1.4-.15-2.05.25-.2.42-.56.73-.6,1.24-.16,1.04,1.01.98,2.24-.03.43.12,1.06.2,1.46.06.25.24.38.31.57.08.29.03.65.01.94-.02.25.04.56.06.76.02.12-.16.15-.16.15.06.5.27,1.4.24,1.72.14,2.2-2.12,2.91-3.78,2.91-.41-.01-1.6.04-1.32-.33-.2-.05-.78-.12-.99-.22-.24-.12-.83-.17-.62-.48-.38-.03-.49-.28-.7-.19-.27.11-.29-.43-.46-.62-.62-.77-.85-1.57.35-2.24,0,.07.34.14.45.14.22,2.03,3.39,3.02,5.21,1.73.77-1.38.09-3.08-.15-4.46-.07.04-.44.73-.56.19-1.09.72-3.64,1.42-4.88-.04-.51-.61-.82-2.24-.48-3.38.35-1.07,1.5-2.5,2.79-3.01.43-.19,1.69-.54,2.06-.66.36.08.56.33.96.37.41.84,1.39.67.18,1.53-.54-.32-.63.08-1.16-.42Z"/>
        <path class="cls-2" d="M144.22,144.08c-.78-.17-1.23-.74-1.04-1.32-.11-.27-.35-.68-.17-.9-.27-1.22-.67-3.43-1.18-4.58.07-.34.01-.4-.15-.79.27.09.49-.98,1.48-.79.2.05.49,1.65.51,1.69.39-.08.72-1.14.84-1.51.76-.03,1.09-.99,1.7-.69.86-.46,1.11-.3,1.86.14.35.28.26.83.36,1.04-.2,0-.29.09-.46.28-1.16-.29-2.71.41-3.38,3.07-.12.42.06.76.21.93-.02.07-.1.43-.1.4,0,.67.56,1.47.21,2.62-.21.13-.46.26-.68.41Z"/>
        <path class="cls-2" d="M157.84,142.17c-1.71,1.16-3.52,1.9-6.13,2.02-1.3-.34-2.52-1.08-2.61-2.63-.04-.07-.11-.11-.2-.16.18-1.28-.73-.85-1.51-1.28,0-.63.28-.96.47-1.34.47.12.56-.15.96.19.16,0,.14-.25.32-.24.13-1.32,1.25-2.2,1.85-3.23.34-.22.9-.23,1-.75.09.05.15.11.15.25.16-.43.88-.37,1-.61.85.2,1.49-.22,2.45.26.24.66.69.42.81,1.11.2,1.26-.8,2.08-1.46,2.83-.34.08-.52-.08-.61.32-.72.08-1.05,1.09-1.66.96-.07.15-.18.24-.21.42-.24-.23-.29-.01-.54-.23-.35.65-1.71.18-1.73,1.05.02-.11.13.43.13.45.41.79,1.6,1.02,2.79.86.54-.06,1.13-.43,1.74-.65.39-.13.86-.17,1.17-.27.09-.04.27-.36.36-.38.11-.04.27.16.36.12.54-.12.35-.6.69-.71.31.52.35.95.44,1.65ZM150.58,138.95c1.19-.03,1.41-.69,2.38-.82.23-.43.8-.75,1.13-.68.23-.58,1.18-.7,1.15-1.53-2.08-.67-3.29.75-4.38,2.04-.02.2-.35.9-.28.99Z"/>
        <path class="cls-2" d="M167.85,142.04c-1.71,1.16-3.52,1.9-6.13,2.02-1.3-.34-2.52-1.08-2.61-2.63-.04-.07-.11-.11-.2-.16.18-1.28-.73-.86-1.51-1.28,0-.63.28-.96.47-1.34.47.12.56-.15.96.19.16,0,.14-.25.32-.24.13-1.32,1.25-2.2,1.85-3.23.34-.22.9-.23,1-.75.09.05.15.11.15.25.16-.43.88-.37,1-.61.85.21,1.49-.22,2.45.26.24.66.69.42.81,1.11.2,1.26-.8,2.08-1.46,2.83-.34.08-.52-.08-.61.31-.72.08-1.05,1.09-1.66.96-.07.15-.18.24-.21.42-.24-.23-.29-.01-.54-.23-.35.65-1.71.18-1.73,1.05.02-.11.13.43.13.45.41.79,1.6,1.02,2.78.86.54-.06,1.13-.43,1.74-.65.39-.13.86-.17,1.17-.27.09-.04.27-.36.36-.38.11-.04.27.16.36.12.54-.12.35-.6.69-.71.31.52.35.95.44,1.65ZM160.59,138.82c1.19-.03,1.41-.69,2.38-.82.23-.43.8-.75,1.12-.68.23-.58,1.18-.7,1.15-1.53-2.08-.67-3.29.75-4.38,2.04-.02.2-.35.9-.28.99Z"/>
      </g>
      <g>
        <path class="cls-2" d="M15.56,126c.28.66.38,1.83.3,2.62.23.79.55,1.85.49,2.69.27.36.36,1.15.07,1.48-.61.1-.88.48-1.35.22-.02-.32-.33-.46-.14-.79-.11,0-.14,0-.16-.07.09-.29.05-.38-.03-.56-.23.63-1.16,1.01-1.58,1.59-.07-.05-.16-.09-.27-.09-3.96,1.46-5.31-1.42-4.83-3.27.05-.14-.11-.11-.11-.21-.13-1.53,1.29-3.35,2.35-3.78-.06-.47,0-.36.1-.65.25.02.42.19.63.12,0-.13-.04-.2-.04-.32.21-.51,1.45.5,1.61-.47.42.07.9-.05,1.3.2-.09-1.04.11-.99-.17-1.6.45-1.37,0-2.07.3-3.32.16-.18.74-.06.81-.33.62.28.53.75.58,1.65.02.52.07,1.19-.13,1.33.39.95.27,2.52.26,3.56ZM9.44,130.13c.45,1.13.22,1.51,1.32,1.82.32-.09,1.04.11,1.35-.07.12-.07.75-.73.91-.3.06-.54.89-.77,1.21-1.02-.1-.54.05-1.35-.22-2,.43-.19.05-1.82-.12-2.28-.23.02-.85-.03-1.01-.08-1.81.65-3,1.7-3.45,3.29.31.03.04.59,0,.65Z"/>
        <path class="cls-2" d="M20.28,125.22c.53,2.23-.44,5.05.02,7.04-.14.52-.47.87-.92,1.11-.23.09-.5-.07-.31-.43-.34.11-.27,0-.42-.16-.37-.37-.38-.44-.14-1.26.07-.22-.26-.37-.26-.63.03-.78.27-1.7.35-2.4.04-.65-.02-1.46.04-2.18.03-.43.43-.56.13-1.15.48-.56.97-.16,1.51.05ZM18.33,120.49c-.13.78.23,1.42.62,1.88,1.28.15,1.68-.94,1.47-1.84-.38-.08-.15-.54-.49-.57-.41.11-.56-.03-.87-.2-.12.36-.35.62-.73.73Z"/>
        <path class="cls-2" d="M28.43,126.05c0-.09-.15-.34-.15-.43-1.46-1.28-3.96-.94-5.02.5,1.12,1.55,2.26.92,3.96,1.39-.05.2.35.28.35.43,1.05.06,2.19.73,2.8,1.69.23,2.55-1.61,3.48-3.97,3.51-.83-.04-2.68.02-3.49-.82-.29.06-.38-.12-.54-.21.07-.43-.22-.63-.21-.79.35-.47.24-1.17.85-1.16.14.03.15.11.08.21.34-.18.47-.06.79.06-.07.24-.23.67-.39.58.5.89,1.86.44,2.89.7.05-.05.11-.15.12-.22.79.06,1.36-.34,1.9-.78,0-.2.12-.51-.13-.47-.09-.11.12-.25.12-.24.02,0-.4-.62-.6-.69-.04-.02-.16.13-.27.08-.2-.11-.2-.16-.56-.3-.49-.19-1.1-.4-1.59-.54-.51-.14-1.06.14-1.53.07-.04,0-.13-.2-.2-.21-.45-.14-.55-.46-.82-.85-.16-.03-.14.13-.34.08-.42-.46-.94-2.02.1-2.34-.06-.21.07-.25.07-.43.48-.13.39-.13.51-.67.3-.13.18,0,.29-.18.2.1.72.08.75-.32.25.25.93-.66,1.17.09.25-.06,0-.25.14-.36.29.1.42.17.67,0,.04.34.09.11.27.07.11.14-.02.09,0,.29.25.07.12-.24.27-.29.42.12.69.19.89.58.11-.02.07-.18.07-.29.78.26.93.55,1.63,1.04.12.7-.33,1.05-.87,1.24Z"/>
        <path class="cls-2" d="M33.89,123.63c.18.07.45-.22.6.15-.02-.32.25-.08.27-.33.27,0,.49.03.61.15.59-.4,2.07.1,2.15.94.94.08.85.46,1.49.83-.03,1.75-.33,3.41,0,5.19.09-.13.14-.24.23-.36.21-.04.06.43.22.45.36.07.3-.49.3-.8.16.09.24.14.22.39.09-.15.14.02.21-.27.25-.24.15.09.17.27.22.01.24.55.36.97-.78.79-.41,1.75-1.7,2-.46-.54-.61-.79-1.12-1.25-.31-.55-.09-1.35-.42-2.05-.08.42-.42,1.21-.58.91-.9,1.56-2.27,2.8-4.26,1.96-.64-.96-1.34-1.82-1.73-3.06.13-.92.07-1.64.11-2.59.16.03.2-.06.3-.09-.06-.16.08-.52-.08-.56.21-.24.27-.06.63-.12-.02-.13-.27-.1-.29-.37-.09-.25.29-.15.43-.17-.5-.77.41-.31.36-1.21.22.14.34-.02.3-.17.1-.25.45.07.46-.42.18.29.72-.05.77-.41ZM35.98,129.55c.15-.7.72-1.45,1.18-1.94.1-.78.15-1.21.21-2.02-.47.02-.76-.53-1.2-.62-.13-.02-.27-.14-.47-.12-.77.03-.74.1-1.32.63.02-.02-.09-.12-.16-.09-.38.22-.85.79-.81,1.34-.73.39-.75,1.83-.67,2.42-.11,0-.14.22-.25.22.17.52-.08,1.14.27,1.49.25-.2.73.76,1.04.76.79-.59,1.25-.56,2.19-2.08Z"/>
        <path class="cls-2" d="M46.64,124.22c-1.78-.01-2.38,1.36-3.27,2.35-.13,1.28-.46,2.04.86,2.65,1.57.25,2.6-.7,3.26-1,.08-.86-.04-1.4-.15-2.05.25-.2.43-.56.73-.6,1.24-.16,1.04,1.01.98,2.24-.03.43.12,1.06.2,1.46.06.25.24.38.31.57.08.29.03.65.01.94-.01.25.04.56.06.76.02.12-.16.15-.16.15.06.5.27,1.4.24,1.73.14,2.2-2.12,2.91-3.78,2.91-.41-.01-1.6.04-1.32-.33-.2-.05-.78-.12-.99-.22-.23-.12-.83-.17-.62-.48-.38-.03-.49-.28-.7-.19-.27.11-.29-.43-.46-.62-.62-.77-.85-1.57.35-2.24,0,.07.34.14.45.14.22,2.03,3.39,3.02,5.21,1.73.78-1.38.09-3.08-.15-4.46-.07.04-.44.73-.55.19-1.09.72-3.64,1.42-4.88-.04-.51-.61-.82-2.24-.48-3.38.35-1.07,1.5-2.5,2.79-3.01.43-.19,1.69-.54,2.06-.66.36.08.56.33.96.37.41.84,1.4.67.18,1.53-.54-.32-.63.08-1.16-.42Z"/>
        <path class="cls-2" d="M53.21,132.73c-.78-.17-1.23-.74-1.04-1.32-.11-.27-.35-.68-.17-.9-.27-1.22-.67-3.43-1.18-4.58.07-.34.01-.4-.15-.79.27.09.49-.98,1.48-.79.2.05.49,1.65.51,1.69.4-.08.72-1.14.84-1.51.76-.03,1.09-.99,1.7-.69.86-.46,1.11-.3,1.86.14.35.28.26.83.36,1.04-.2,0-.29.09-.46.28-1.16-.29-2.71.41-3.38,3.07-.12.42.06.76.21.93-.02.07-.1.43-.1.4,0,.67.56,1.47.21,2.62-.21.13-.47.26-.68.41Z"/>
        <path class="cls-2" d="M66.84,130.82c-1.71,1.16-3.52,1.9-6.13,2.02-1.3-.34-2.52-1.08-2.61-2.63-.04-.07-.11-.11-.2-.16.18-1.28-.73-.85-1.51-1.28,0-.63.28-.96.47-1.34.47.12.56-.15.96.18.16,0,.14-.25.32-.24.13-1.32,1.25-2.2,1.85-3.23.34-.22.9-.23,1-.75.09.05.14.11.15.25.16-.43.88-.37,1-.61.85.2,1.49-.22,2.45.26.24.66.69.42.81,1.11.2,1.26-.8,2.08-1.46,2.83-.34.08-.52-.08-.61.31-.72.08-1.05,1.09-1.66.96-.07.15-.18.24-.21.42-.24-.23-.29-.01-.54-.23-.35.65-1.71.18-1.73,1.05.02-.11.13.43.13.45.41.79,1.6,1.02,2.78.86.54-.06,1.13-.43,1.74-.65.39-.13.86-.17,1.17-.27.09-.04.27-.36.36-.38.11-.04.27.16.36.12.54-.12.35-.6.69-.71.31.52.35.95.44,1.65ZM59.57,127.6c1.19-.03,1.41-.68,2.38-.82.23-.43.8-.75,1.12-.68.23-.58,1.18-.7,1.15-1.53-2.08-.67-3.29.75-4.38,2.04-.02.2-.35.9-.28.99Z"/>
        <path class="cls-2" d="M76.84,130.69c-1.71,1.16-3.52,1.9-6.13,2.02-1.3-.34-2.52-1.08-2.61-2.63-.04-.07-.11-.11-.2-.16.18-1.28-.73-.86-1.51-1.28,0-.63.28-.96.47-1.34.47.12.56-.15.96.19.16,0,.14-.25.32-.24.13-1.32,1.25-2.2,1.85-3.23.34-.22.9-.23,1-.75.09.05.15.11.15.25.16-.43.88-.37,1-.61.85.21,1.49-.22,2.45.26.24.66.69.42.81,1.11.2,1.26-.8,2.08-1.46,2.83-.34.08-.52-.08-.61.31-.72.08-1.05,1.09-1.66.96-.07.15-.18.24-.21.42-.24-.23-.29-.01-.54-.23-.35.65-1.71.18-1.73,1.05.02-.11.13.43.13.45.41.79,1.6,1.02,2.79.86.54-.06,1.13-.43,1.74-.65.39-.13.86-.17,1.17-.27.09-.04.27-.36.36-.38.11-.04.27.16.36.12.54-.12.35-.6.69-.71.31.52.35.95.44,1.65ZM69.58,127.47c1.19-.03,1.41-.68,2.38-.82.23-.43.8-.75,1.13-.68.23-.58,1.18-.7,1.15-1.53-2.08-.67-3.29.75-4.38,2.04-.01.2-.35.9-.27.99Z"/>
      </g>
      <circle class="cls-6" cx="38.65" cy="40.89" r="9.45"/>
      <circle class="cls-6" cx="39.9" cy="156.05" r="9.45"/>
      <circle class="cls-4" cx="107.77" cy="53.05" r="9.45"/>
      <circle class="cls-4" cx="12.27" cy="154.94" r="9.45"/>
      <circle class="cls-6" cx="136.51" cy="54.34" r="9.45"/>
      <circle class="cls-4" cx="161.84" cy="65.67" r="9.45"/>
      <circle class="cls-4" cx="125.07" cy="165.62" r="9.45"/>
      <circle class="cls-5" cx="10.45" cy="44" r="9.45"/>
      <circle class="cls-5" cx="154.08" cy="164.97" r="9.45"/>
      <circle class="cls-5" cx="68.49" cy="155.17" r="9.45"/>
      <path class="cls-7" d="M88.12,27.28c-1.57,54.66-.76,97.4,2.42,151.99"/>
      <path class="cls-7" d="M167.26,103.1c-54.68-.9-109.4.58-163.95,4.42"/>
      <path class="cls-3" d="M178.39,2.12c-6.03-.34-12.05-.69-18.08-1.03-5.08-.29-51.44.22-56.06.74-5.76.65-4.68.1-10.43.84-9.6,1.24-8.59,6.66-9.18,13.97-.83,10.26-.82,8.92.75,11.47,2.36,3.82,6.19,3.5,10.23,3.63,12.05.4,53.04-.13,55.78,1.16,3.59,1.68,4.69,3.91,6.93,6.48.64.73,1.73.88,2.55.36,4.61-2.97,4.13-3.72,6.89-5.87,1.75-1.36,6.8-.74,9.14-.79,4.11-.09,8.05-1.09,9.77-5.26,1.09-2.64.58-6.03.54-8.82-.05-3.53-.27-4.38-.25-9.32s-3.64-7.64-8.58-7.57Z"/>
      <g>
        <path class="cls-1" d="M102.42,20.88c-.45.99-.59,2.07-1.19,2.99-.45.11-.77,0-.99-.32-.07.05-.22,0-.34-.02-.07-.11-.05-.27-.29-.22-.05-.22.07-.25.07-.41-.14-.09-.29-.16-.42-.27.2-.32-.2-.56-.49-.43.14-.5-.85-.74-.5-1.46-.25-.05-.32-.31-.49-.49.04-.45.09-.36-.2-.41-.04-.4-.22-.63-.14-1.12-.47-.4-.56-1.44-.85-2.02.27.13.02-.07.27-.11-.07-.27-.27-.16-.38-.18.25-.36.07-.32.18-.61-.27-.11-.11.05-.36.07.07-.52-.56-.81-.27-1.39-.18-.09-.07-.36-.34-.22.02-.13.13-.58-.22-.54.27-.59-.9-1.4-.38-1.84-.07.05-.07.07-.4.02.25-.22-.29-.58,0-.68-.07-.25-.13-.14-.27-.22-.02-.41-.05-.43,0-.83.27.04.61-.18.9-.14.83.76.83,2,1.67,2.65.45,2.07,1.58,3.78,1.96,5.69.67.85.56,2.47,1.55,2.99-.07-2.18.95-3.96,1.12-6.05.07,0,.22,0,.29.14-.22-.97.49-1.62.47-2.84.63.09.34-.54,1.44-.32.52,1.91.52,3.73,1.3,5.26.05,1.19.79,2.52,1.26,3.62.29-.13.59-.63.54-1.1.77-.72.72-2.03,1.3-2.93.27-2.36,1.03-4.05.97-6.19.34-.02.45.2.7.29.2-.27.43-.31.59-.14-.04.23.13.32.31.27.09.04-.02.31.22.36-.27.83.07,2.02-.41,2.56.05.31.16.61-.14.7-.22,2-.9,3.82-1.48,5.91-.72.83-.81,2.5-1.96,2.72-.59-.13-.76-.34-1.46-.29-.63-.58-1.03-1.4-1.26-2.36-.22-.16-.25-.49-.49-.63.05-.58-.59-.99-.29-1.39-.07-.18-.09-.23-.25-.32.02-.07-.04-1.6-.29-1.64-.23.85-.67,2.97-.58,3.91Z"/>
        <path class="cls-1" d="M121.19,21.83c-1.73,1.13-3.55,1.85-6.16,1.94-1.3-.36-2.5-1.12-2.57-2.66-.04-.07-.11-.11-.2-.16.2-1.28-.72-.86-1.49-1.3,0-.63.29-.95.49-1.33.47.13.56-.14.95.2.16,0,.14-.25.32-.23.14-1.31,1.28-2.18,1.89-3.21.34-.22.9-.22,1.01-.74.09.05.14.11.14.25.16-.43.88-.36,1.01-.59.85.22,1.49-.2,2.45.29.23.67.68.43.79,1.12.18,1.26-.83,2.07-1.49,2.81-.34.07-.52-.09-.61.31-.72.07-1.06,1.08-1.67.94-.07.14-.18.23-.22.41-.23-.23-.29-.02-.54-.23-.36.65-1.71.16-1.75,1.03.02-.11.13.43.13.45.4.79,1.58,1.04,2.77.9.54-.05,1.13-.42,1.75-.63.4-.13.86-.16,1.17-.25.09-.04.27-.36.36-.38.11-.04.27.16.36.13.54-.11.36-.59.7-.7.31.52.34.95.41,1.66ZM113.97,18.52c1.19-.02,1.42-.67,2.39-.79.23-.43.81-.74,1.13-.67.23-.58,1.19-.68,1.17-1.51-2.07-.7-3.29.7-4.41,1.98-.02.2-.36.9-.29.99Z"/>
        <path class="cls-1" d="M131.43,14.45c-.5.88-1.73.95-2.61,1.33-.25,1.69-.27,3.87-.18,5.87,0,.13.59.27.58.43.74-.36,1.21-.16,1.8.09-.13,1.12-1.4,1.37-2.34,1.48-.18-.29-.45-.31-.67-.27-1.62-1.53-.47-5.1-.74-7.15-.25-.14-.67.18-.94.22-.5-.23-.72-.74-.94-1.26.36-.32.92-.54,1.48-.54.45-.16.31-.7.4-1.41.11-.77.4-1.22.47-2.02.43.02.77.11,1.21.27.45.65-.09,1.78-.07,2.41.94-.43,2.04-.58,2.56.54Z"/>
        <path class="cls-1" d="M133.09,10.92c.02.2-.05.31-.05.49,0,.27.25.54.27.67.11.36-.2.4-.05,1.1.4,1.73.27,3.26.4,4.41.18-.47.34-.97,1.26-1.91.18-.18.56-.29.61-.61.32,0,.99-.29,1.64-.13.2.27.88.2,1.13.45.11.11.13.43.27.61.13.14.65.97.72,1.21.04.13-.11.22-.07.34.05.13.22.2.27.32.34.86.22,2.86.43,3.69.18.72.67,2.12-.81,2.09-.99-1.03-.59-3.42-.9-5.26-.32-.7-.45-2-2.03-1.8-.59.22-1.22,1.3-1.6,1.94-.14.23-.05.81-.32.83-.11.45-.16.92-.2,1.24-.09.94-.05,1.48,0,2.49-.22.23-.47.45-.76.63-.99-.4-.72-2-.67-2.88-.07.14-.16.04-.16-.05-.11-1.57-.07-3.19-.31-4.5.2-.22-.04-.4-.04-.36.38-.49-.12-.61-.11-.9.29-1.82-.34-3.03.02-4.97.92-.47.77.31,1.06.86Z"/>
        <path class="cls-1" d="M143.74,15.62c.5,2.23-.5,5.04-.07,7.04-.14.52-.49.86-.94,1.1-.23.09-.5-.07-.31-.43-.34.11-.27,0-.41-.16-.36-.38-.38-.45-.13-1.26.07-.22-.25-.38-.25-.63.04-.77.29-1.69.38-2.4.05-.65,0-1.46.07-2.18.04-.43.43-.56.14-1.15.49-.56.97-.14,1.51.07ZM141.85,10.87c-.14.77.22,1.42.59,1.89,1.28.16,1.69-.92,1.49-1.82-.38-.09-.14-.54-.49-.58-.41.11-.56-.04-.86-.22-.13.36-.36.61-.74.72Z"/>
        <path class="cls-1" d="M153.5,23.34c-.25.11-.47-.49-.81-.52.04-1.66.13-3.75-.43-5.28-.38-1.03-1.6-2.97-2.56-1.57-.27.43-.5,1.37-.76,1.89-.31.63-.56,1.3-.77,1.96,0,.02-.18.04-.2.07-.5,1.33-.14,2.59-.61,3.75-.7.43-1.22-.29-1.48-.83-.07-2.86-.13-5.26-.27-8.64.29.11.23-.18.4-.22.43.2.68.13.94.52-.16,1.15.07,2.09.27,3.67.02-.14.18-.76.34-.68.11-.34.04-1.49.54-1.64.04-.83.63-1.01.87-1.6.52-.14.92-.45,1.55-.47.7.32,1.76.47,2.27,1.01,1.06,2.59,2.04,5.73,1.24,8.5-.23.16-.59-.07-.52.07Z"/>
        <path class="cls-1" d="M157.32,10.33c.61,2.23.36,4.61.7,7.31,1.12-.86,2.68-2.9,4.09-3.46.38.31.31.67.56,1.08-.23.63-1.01.72-1.26,1.33-.13.02-.13-.07-.22-.07-.23.34-.11.31-.38.67-.34.47-1.33.99-1.57,1.37-.07.13,0,.36-.07.45-.25.32-.63.34.05.79,1.28.83,2.9.81,4.3,2.23.56.58.2.59.52.95-.34.13-.09.27-.27.41-.18-.16-.27-.07-.49-.04-.58-.43-2.3-.97-2.86-1.62-.59-.04-1.33-.83-2.2-.79-.52.74-.11,2.09-.18,2.79-.58.22-1.58-.11-1.71-.81-.14-.77.68-2.16-.43-2.59.2-1.01.54-1.37.5-2.3-.02-.59-.14-1.08-.22-1.85-.09-.88.25-1.85-.22-2.67.18-1.64-.31-2.48-.16-3.92.67.07.9.58,1.5.74Z"/>
        <path class="cls-1" d="M165.47,23.61c.04-.32-.16-.72-.27-1.21.22-.47.16-1.51.86-1.28.4-.41.77-.18,1.35,0,.41.85-.2,1.6-.22,2.14-.54.22-1.17.92-1.73.34Z"/>
        <path class="cls-1" d="M170.47,23.61c.04-.32-.16-.72-.27-1.21.22-.47.16-1.51.87-1.28.4-.41.77-.18,1.35,0,.41.85-.2,1.6-.22,2.14-.54.22-1.17.92-1.73.34Z"/>
        <path class="cls-1" d="M175.48,23.61c.04-.32-.16-.72-.27-1.21.22-.47.16-1.51.87-1.28.4-.41.77-.18,1.35,0,.41.85-.2,1.6-.22,2.14-.54.22-1.17.92-1.73.34Z"/>
      </g>
    </g>
  </g>
</svg>