<?xml version="1.0" encoding="UTF-8"?>
<svg id="Layer_2" data-name="Layer 2" xmlns="http://www.w3.org/2000/svg" xmlns:xlink="http://www.w3.org/1999/xlink" viewBox="0 0 176.83 196.92">
  <defs>
    <style>
      .cls-1 {
        fill: #3a3a3a;
        stroke: #3a3a3a;
      }

      .cls-1, .cls-2, .cls-3, .cls-4, .cls-5, .cls-6, .cls-7 {
        stroke-linecap: round;
      }

      .cls-1, .cls-8, .Graphic_Style_9, .cls-9, .cls-10 {
        stroke-miterlimit: 10;
      }

      .cls-11 {
        fill: url(#linear-gradient-2);
      }

      .cls-12 {
        mask: url(#mask-1);
      }

      .cls-13 {
        filter: url(#luminosity-invert-3);
      }

      .cls-2 {
        fill: #e5bd6e;
        stroke: #bc8a2c;
      }

      .cls-2, .cls-3, .cls-4, .cls-5, .cls-6, .cls-7 {
        stroke-linejoin: round;
      }

      .cls-8 {
        filter: url(#drop-shadow-3);
      }

      .cls-8, .cls-14, .Graphic_Style_9, .cls-9, .cls-10, .cls-6 {
        fill: #fff;
      }

      .cls-8, .Graphic_Style_9, .cls-4, .cls-9, .cls-5, .cls-10, .cls-6, .cls-7 {
        stroke-width: 2px;
      }

      .cls-8, .Graphic_Style_9, .cls-9, .cls-10, .cls-6 {
        stroke: #949494;
      }

      .cls-15 {
        fill: #823eed;
      }

      .cls-16 {
        mask: url(#mask);
      }

      .cls-17, .cls-7 {
        fill: none;
      }

      .cls-18 {
        fill: url(#linear-gradient-4);
      }

      .cls-3 {
        fill: #ffdc4a;
        stroke: #b77023;
      }

      .Graphic_Style_9 {
        filter: url(#drop-shadow-1);
      }

      .cls-19 {
        mask: url(#mask-2);
      }

      .cls-20 {
        fill: url(#linear-gradient-3);
      }

      .cls-21 {
        filter: url(#luminosity-invert-4);
      }

      .cls-4 {
        fill: #f3b572;
        stroke: #a66d29;
      }

      .cls-9 {
        filter: url(#drop-shadow-1-1);
      }

      .cls-5 {
        fill: #c1a584;
        stroke: #92672b;
      }

      .cls-22 {
        fill: #939598;
      }

      .cls-10 {
        filter: url(#drop-shadow-2);
      }

      .cls-6 {
        filter: url(#drop-shadow-4);
      }

      .cls-23 {
        fill: #bf6400;
      }

      .cls-24 {
        filter: url(#luminosity-invert-2);
      }

      .cls-7 {
        stroke: #757575;
      }

      .cls-25 {
        filter: url(#luminosity-invert);
      }

      .cls-26 {
        fill: url(#linear-gradient);
      }

      .cls-27 {
        fill: #ff64c4;
      }

      .cls-28 {
        mask: url(#mask-3);
      }
    </style>
    <filter id="drop-shadow-1" filterUnits="userSpaceOnUse">
      <feOffset dx="0" dy="3"/>
      <feGaussianBlur result="blur" stdDeviation="0"/>
      <feFlood flood-color="#000" flood-opacity=".14"/>
      <feComposite in2="blur" operator="in"/>
      <feComposite in="SourceGraphic"/>
    </filter>
    <filter id="luminosity-invert" x="29.57" y="110.66" width="41.93" height="61.46" color-interpolation-filters="sRGB" filterUnits="userSpaceOnUse">
      <feColorMatrix result="cm" values="-1 0 0 0 1 0 -1 0 0 1 0 0 -1 0 1 0 0 0 1 0"/>
    </filter>
    <linearGradient id="linear-gradient" x1="-1014.81" y1="6793.16" x2="-1015.43" y2="6793.16" gradientTransform="translate(642336.39 -95837.35) rotate(-90) scale(94.55 -94.55)" gradientUnits="userSpaceOnUse">
      <stop offset="0" stop-color="#000"/>
      <stop offset=".82" stop-color="#000"/>
      <stop offset=".96" stop-color="#fff" stop-opacity="0"/>
    </linearGradient>
    <mask id="mask" x="29.57" y="110.66" width="41.93" height="61.46" maskUnits="userSpaceOnUse">
      <g class="cls-25">
        <rect class="cls-26" x="29.57" y="110.66" width="41.93" height="61.46"/>
      </g>
    </mask>
    <filter id="luminosity-invert-2" x="18.55" y="46.04" width="39.97" height="58.59" color-interpolation-filters="sRGB" filterUnits="userSpaceOnUse">
      <feColorMatrix result="cm" values="-1 0 0 0 1 0 -1 0 0 1 0 0 -1 0 1 0 0 0 1 0"/>
    </filter>
    <linearGradient id="linear-gradient-2" x1="-1014.12" y1="6793.28" x2="-1014.72" y2="6793.28" xlink:href="#linear-gradient"/>
    <mask id="mask-1" x="18.55" y="46.04" width="39.97" height="58.59" maskUnits="userSpaceOnUse">
      <g class="cls-24">
        <rect class="cls-11" x="18.55" y="46.04" width="39.97" height="58.59"/>
      </g>
    </mask>
    <filter id="luminosity-invert-3" x="105.3" y="47.02" width="39.97" height="58.59" color-interpolation-filters="sRGB" filterUnits="userSpaceOnUse">
      <feColorMatrix result="cm" values="-1 0 0 0 1 0 -1 0 0 1 0 0 -1 0 1 0 0 0 1 0"/>
    </filter>
    <linearGradient id="linear-gradient-3" x1="-1014.13" y1="6792.37" x2="-1014.73" y2="6792.37" xlink:href="#linear-gradient"/>
    <mask id="mask-2" x="105.3" y="47.02" width="39.97" height="58.59" maskUnits="userSpaceOnUse">
      <g class="cls-13">
        <rect class="cls-20" x="105.3" y="47.02" width="39.97" height="58.59"/>
      </g>
    </mask>
    <filter id="luminosity-invert-4" x=".02" y="116.87" width="39.97" height="58.59" color-interpolation-filters="sRGB" filterUnits="userSpaceOnUse">
      <feColorMatrix result="cm" values="-1 0 0 0 1 0 -1 0 0 1 0 0 -1 0 1 0 0 0 1 0"/>
    </filter>
    <linearGradient id="linear-gradient-4" x1="-1014.87" y1="6793.48" x2="-1015.47" y2="6793.48" xlink:href="#linear-gradient"/>
    <mask id="mask-3" x=".02" y="116.87" width="39.97" height="58.59" maskUnits="userSpaceOnUse">
      <g class="cls-21">
        <rect class="cls-18" x=".02" y="116.87" width="39.97" height="58.59"/>
      </g>
    </mask>
    <filter id="drop-shadow-1-1" x="14.54" y="44.72" width="10.93" height="12.47" filterUnits="userSpaceOnUse">
      <feOffset dx="0" dy="3"/>
      <feGaussianBlur result="blur-2" stdDeviation="0"/>
      <feFlood flood-color="#000" flood-opacity=".14"/>
      <feComposite in2="blur-2" operator="in"/>
      <feComposite in="SourceGraphic"/>
    </filter>
    <filter id="drop-shadow-2" x="19.96" y="29.33" width="16.44" height="17.58" filterUnits="userSpaceOnUse">
      <feOffset dx="0" dy="3"/>
      <feGaussianBlur result="blur-3" stdDeviation="0"/>
      <feFlood flood-color="#000" flood-opacity=".14"/>
      <feComposite in2="blur-3" operator="in"/>
      <feComposite in="SourceGraphic"/>
    </filter>
    <filter id="drop-shadow-3" x="101.4" y="120.25" width="75.44" height="44.89" filterUnits="userSpaceOnUse">
      <feOffset dx="0" dy="3"/>
      <feGaussianBlur result="blur-4" stdDeviation="0"/>
      <feFlood flood-color="#000" flood-opacity=".14"/>
      <feComposite in2="blur-4" operator="in"/>
      <feComposite in="SourceGraphic"/>
    </filter>
    <filter id="drop-shadow-4" x="8.86" y="0" width="82.68" height="44.32" filterUnits="userSpaceOnUse">
      <feOffset dx="0" dy="3"/>
      <feGaussianBlur result="blur-5" stdDeviation="0"/>
      <feFlood flood-color="#000" flood-opacity=".14"/>
      <feComposite in2="blur-5" operator="in"/>
      <feComposite in="SourceGraphic"/>
    </filter>
  </defs>
  <g id="Layer_1-2" data-name="Layer 1">
    <g>
      <g>
        <path class="cls-14" d="M123.95,34.47c-.76,6.47-3.1,12.63-5.41,18.72-2.95,7.76-5.92,15.56-10.14,22.71,4.7.57,9.23,2.02,13.72,3.52,8.48,2.84,16.88,5.88,25.22,9.13,6.06-13.36,8.95-27.98,14.86-41.41-13.06-3.43-22.13-5.76-34.46-11.27l-3.79-1.39Z"/>
        <path class="cls-22" d="M123.78,34.45c-.68,5.66-2.54,11.08-4.54,16.4-2.04,5.42-4.07,10.85-6.46,16.13-1.36,3.01-2.84,5.96-4.52,8.81-.06.08-.04.19.04.25.02.02.05.03.08.03,5.23.64,10.24,2.34,15.2,4.02,5.1,1.72,10.17,3.52,15.22,5.39,2.83,1.05,5.65,2.12,8.47,3.22.09.03.19-.01.23-.1,2.37-5.23,4.26-10.65,6.03-16.11,1.76-5.42,3.4-10.88,5.3-16.25,1.08-3.05,2.24-6.08,3.54-9.04.04-.09,0-.19-.1-.23-5.93-1.56-11.88-3.09-17.73-4.93-2.79-.88-5.56-1.83-8.3-2.86-1.45-.55-2.89-1.12-4.32-1.71-1.38-.57-2.74-1.22-4.12-1.78-1.24-.5-2.51-.92-3.77-1.39-.21-.08-.34.25-.13.33l3.56,1.3c1.1.4,2.16.94,3.24,1.4,1.45.61,2.91,1.2,4.37,1.77,5.46,2.11,11.06,3.86,16.7,5.42,3.45.96,6.91,1.86,10.37,2.77l-.1-.23c-2.31,5.26-4.17,10.69-5.92,16.16-1.74,5.42-3.4,10.88-5.33,16.24-1.1,3.05-2.28,6.06-3.62,9.01l.23-.1c-5.04-1.96-10.1-3.85-15.2-5.67-5.04-1.79-10.09-3.61-15.22-5.12-2.8-.83-5.65-1.51-8.56-1.87l.12.28c2.97-5.05,5.34-10.41,7.5-15.84,1.09-2.73,2.13-5.48,3.17-8.23,1.01-2.67,2-5.35,2.85-8.08.94-3.05,1.69-6.17,2.07-9.35.03-.22-.33-.26-.35-.04Z"/>
        <path class="cls-22" d="M125.87,42.18c2.12.38,4.11,1.21,6.08,2.04.96.4,1.91.81,2.89,1.17.98.36,1.99.61,2.98.92.5.15.98.37,1.42.66.43.3.81.65,1.25.93.76.47,1.63.69,2.51.8.98.12,1.96.12,2.93.25,1.03.13,2.02.46,2.97.87,2.08.9,4,2.18,6.2,2.76.22.06.35-.27.13-.33-2-.53-3.76-1.62-5.61-2.49-.9-.42-1.82-.79-2.79-1.01s-1.96-.25-2.94-.32c-.96-.07-1.94-.18-2.82-.6-.93-.45-1.6-1.25-2.56-1.64-.98-.4-2.04-.6-3.04-.95-.98-.34-1.94-.74-2.9-1.14-2.17-.91-4.34-1.85-6.67-2.27-.22-.04-.26.31-.04.35h0Z"/>
        <path class="cls-22" d="M124.22,47.05l5.89,2.29c1.95.76,3.91,1.45,5.68,2.59,1.7,1.09,3.41,2.14,5.27,2.94,1.86.81,3.8,1.33,5.79,1.7,2.31.43,4.63.81,6.94,1.22.22.04.26-.32.04-.36-2.04-.36-4.09-.72-6.13-1.08-2.03-.36-4.02-.81-5.94-1.59-1.91-.77-3.68-1.79-5.41-2.91-.81-.52-1.63-1.03-2.51-1.42-.96-.43-1.96-.79-2.94-1.17l-6.55-2.55c-.21-.08-.34.25-.13.33Z"/>
        <path class="cls-22" d="M121.56,53.16c3.86.96,7.29,3.04,10.88,4.69,3.65,1.67,7.41,3.11,11.13,4.6l6.39,2.48c.16.21.29-.12.08-.2l-11.22-4.36c-1.79-.94-3.65-1.7-5.49-2.51-1.82-.81-3.59-1.72-5.38-2.59-2.02-.99-4.09-1.9-6.28-2.44-.22-.05-.35.27-.13.33h0Z"/>
        <path class="cls-22" d="M118.7,60.52c1.06-.07,2.13.04,3.15.33,1.05.3,2.03.79,2.98,1.32,1.87,1.04,3.72,2.09,5.63,3.06,3.85,1.96,7.82,3.69,11.9,5.1,2.3.8,4.63,1.49,7,2.07.22.05.35-.27.13-.33-4.28-1.07-8.47-2.47-12.53-4.2-4.06-1.72-7.95-3.76-11.8-5.92-1.05-.59-2.13-1.15-3.3-1.46-1.05-.28-2.14-.39-3.22-.32-.23.01-.17.36.06.35h0Z"/>
        <path class="cls-22" d="M116.09,67.64c4.03.99,7.91,2.51,11.77,4.02l11.65,4.6,6.54,2.56c.22.09.36-.26.14-.35l-11.78-4.61c-3.86-1.51-7.71-3.08-11.61-4.49-2.19-.79-4.41-1.5-6.67-2.06-.22-.05-.25.28-.03.33h0Z"/>
      </g>
      <polygon points="143.48 74.38 143.57 74.48 143.45 74.51 143.48 74.38"/>
      <g>
        <path class="cls-27" d="M165.33,34.39l1.68-1.93c.36-.42,1-.46,1.41-.09l3.3,2.94c.41.36.45.99.09,1.4l-1.7,1.95-4.79-4.26Z"/>
        <polygon class="cls-3" points="143.48 59.82 165.1 34.64 169.89 38.9 148.27 64.08 141.7 66.4 143.48 59.82"/>
        <polyline class="cls-2" points="148.27 64.08 141.7 66.4 143.48 59.82"/>
        <polygon class="cls-1" points="144.32 65.48 141.7 66.4 142.37 63.9 144.32 65.48"/>
      </g>
      <g>
        <rect class="cls-17" y="177.33" width="175.78" height="19.59"/>
        <path class="cls-15" d="M10.49,178.53c.79-.5,1.55.38,1.96.9-.02.43-.54.34-.72.59-1.62-.36-3.08-.47-4.9-.49-.34.18.25.95-.09,1.17.16,1.98,0,3.19.29,5.22.05.22-.29.22-.25.38.2,1.62.04,2.92.32,4.43-.18.18-.13.2-.27.4-1.69.4-1.85-1.51-1.94-3.02-.05-.87-.13-1.8-.07-2.61.04-.56.23-.94,0-1.4.23-1.44.07-2.77.27-4.29-1.26-.43-2.59.18-4.21.2-.16-.05-.43-.38-.67-.36-.27-.9.25-.85.27-1.28.96.18.83-.36,1.44-.05,1.33-1.15,2.36.72,3.24-.61.45.13.99-.09,1.13.36.4.02.36-.11.59.14.41-.11.81-.34,1.08.13.27-.4,1.21.13,1.53-.13.2.29.5.4.68,0,.05.11.38-.05.31.32Z"/>
        <path class="cls-15" d="M13.53,178.46c.02.2-.05.31-.05.49,0,.27.25.54.27.67.11.36-.2.4-.05,1.1.4,1.73.27,3.26.4,4.41.18-.47.34-.97,1.26-1.91.18-.18.56-.29.61-.61.32,0,.99-.29,1.64-.13.2.27.88.2,1.13.45.11.11.13.43.27.61.13.14.65.97.72,1.21.04.13-.11.22-.07.34.05.13.22.2.27.32.34.86.21,2.86.43,3.69.18.72.67,2.12-.81,2.09-.99-1.03-.59-3.42-.9-5.26-.32-.7-.45-2-2.03-1.8-.59.22-1.22,1.3-1.6,1.94-.14.23-.05.81-.32.83-.11.45-.16.92-.2,1.24-.09.94-.05,1.48,0,2.49-.22.23-.47.45-.76.63-.99-.4-.72-2-.67-2.88-.07.14-.16.04-.16-.05-.11-1.57-.07-3.19-.31-4.5.2-.22-.04-.4-.04-.36.38-.49-.12-.61-.11-.9.29-1.82-.34-3.03.02-4.97.92-.47.77.31,1.06.86Z"/>
        <path class="cls-15" d="M24.18,183.16c.5,2.23-.5,5.04-.07,7.04-.14.52-.49.86-.94,1.1-.23.09-.5-.07-.31-.43-.34.11-.27,0-.41-.16-.36-.38-.38-.45-.13-1.26.07-.22-.25-.38-.25-.63.04-.77.29-1.69.38-2.4.05-.65,0-1.46.07-2.18.04-.43.43-.56.14-1.15.49-.56.97-.14,1.51.07ZM22.29,178.41c-.14.77.22,1.42.59,1.89,1.28.16,1.69-.92,1.5-1.82-.38-.09-.14-.54-.49-.58-.41.11-.56-.04-.86-.22-.13.36-.36.61-.74.72Z"/>
        <path class="cls-15" d="M33.94,190.89c-.25.11-.47-.49-.81-.52.04-1.66.13-3.75-.43-5.28-.38-1.03-1.6-2.97-2.56-1.57-.27.43-.5,1.37-.76,1.89-.31.63-.56,1.3-.77,1.96,0,.02-.18.04-.2.07-.5,1.33-.14,2.59-.61,3.75-.7.43-1.22-.29-1.48-.83-.07-2.86-.13-5.26-.27-8.64.29.11.23-.18.4-.22.43.2.68.13.94.52-.16,1.15.07,2.09.27,3.67.02-.14.18-.76.34-.68.11-.34.04-1.49.54-1.64.04-.83.63-1.01.87-1.6.52-.14.92-.45,1.55-.47.7.32,1.76.47,2.27,1.01,1.06,2.59,2.04,5.73,1.24,8.5-.23.16-.59-.07-.52.07Z"/>
        <path class="cls-15" d="M37.75,177.87c.61,2.23.36,4.61.7,7.31,1.12-.86,2.68-2.9,4.09-3.46.38.31.31.67.56,1.08-.23.63-1.01.72-1.26,1.33-.13.02-.13-.07-.22-.07-.23.34-.11.31-.38.67-.34.47-1.33.99-1.57,1.37-.07.13,0,.36-.07.45-.25.32-.63.34.05.79,1.28.83,2.9.81,4.3,2.23.56.58.2.59.52.95-.34.13-.09.27-.27.41-.18-.16-.27-.07-.49-.04-.58-.43-2.3-.97-2.86-1.62-.59-.04-1.33-.83-2.2-.79-.52.74-.11,2.09-.18,2.79-.58.22-1.58-.11-1.71-.81-.14-.77.68-2.16-.43-2.59.2-1.01.54-1.37.5-2.3-.02-.59-.14-1.08-.22-1.85-.09-.88.25-1.85-.22-2.67.18-1.64-.31-2.48-.16-3.92.67.07.9.58,1.5.74Z"/>
        <path class="cls-15" d="M48.48,185.27c.45.09,1.06.09,1.13.16.05.14.16.34.36.29-.04.32.22.45.22.63,0,.9-1.51.63-2.03.58-.47.16-2.02.23-3.42.23-.18-.5.16-1.03.11-1.39.54-.47,2.14-.29,2.9-.5.16.04.63.27.74,0Z"/>
        <path class="cls-15" d="M60.35,190.29c-1.24-.74-2.04-3.15-2.68-4.59-.95,1.3-1.31,4.39-2.61,5.46-.32-.02-.22-.29-.58-.14-1.1-1.03-1.44-2.56-2.23-3.38-.11-.99-.61-1.51-.74-2.27-.04-.29.05-.45,0-.65-.09-.31-.34-.45-.5-.81-.11-.22-.13-.56-.29-.86-.16-.29-.4-.83-.43-1.44.38,0,1.33-.09,1.75.2.59,2.12,1.1,3.42,1.93,5.53.02.13.63.31.67,1.37.43-.72.61-2.14,1.31-2.83.32-1.76.65-1.4,1.35-3.15.52.02.5.18.95.43.23.47.13.86.5.99-.41.54.79,1.62.88,2.52.13,0,.43.68.47.77,1.31-1.85,1.1-4.39,1.57-6.27.56-.18,1.08-.11,1.66.22.25,2.2-.97,4.16-1.37,6.45-.74.61-.72,1.98-1.6,2.47Z"/>
        <path class="cls-15" d="M65.99,191.1c-.77-.18-1.22-.76-1.03-1.33-.11-.27-.34-.68-.16-.9-.25-1.22-.63-3.44-1.12-4.59.07-.34.02-.4-.14-.79.27.09.5-.97,1.49-.77.2.05.47,1.66.49,1.69.4-.07.74-1.13.86-1.49.76-.02,1.1-.97,1.71-.67.86-.45,1.12-.29,1.85.16.34.29.25.83.34,1.04-.2,0-.29.09-.47.27-1.15-.31-2.72.38-3.42,3.02-.13.41.05.76.2.94-.02.07-.11.43-.11.4-.02.67.54,1.48.18,2.63-.22.13-.47.25-.68.4Z"/>
        <path class="cls-15" d="M72.17,183.16c.5,2.23-.5,5.04-.07,7.04-.14.52-.49.86-.94,1.1-.23.09-.5-.07-.31-.43-.34.11-.27,0-.41-.16-.36-.38-.38-.45-.13-1.26.07-.22-.25-.38-.25-.63.04-.77.29-1.69.38-2.4.05-.65,0-1.46.07-2.18.04-.43.43-.56.14-1.15.49-.56.97-.14,1.51.07ZM70.28,178.41c-.14.77.22,1.42.59,1.89,1.28.16,1.69-.92,1.49-1.82-.38-.09-.14-.54-.49-.58-.41.11-.56-.04-.86-.22-.13.36-.36.61-.74.72Z"/>
        <path class="cls-15" d="M78.87,181.99c-.5.88-1.73.95-2.61,1.33-.25,1.69-.27,3.87-.18,5.87,0,.13.59.27.58.43.74-.36,1.21-.16,1.8.09-.13,1.12-1.4,1.37-2.34,1.48-.18-.29-.45-.31-.67-.27-1.62-1.53-.47-5.1-.74-7.15-.25-.14-.67.18-.94.22-.5-.23-.72-.74-.94-1.26.36-.32.92-.54,1.48-.54.45-.16.31-.7.4-1.41.11-.77.4-1.22.47-2.02.43.02.77.11,1.21.27.45.65-.09,1.78-.07,2.41.94-.43,2.04-.58,2.56.54Z"/>
        <path class="cls-15" d="M88.64,189.37c-1.73,1.13-3.55,1.85-6.16,1.94-1.3-.36-2.5-1.12-2.58-2.66-.04-.07-.11-.11-.2-.16.2-1.28-.72-.86-1.5-1.3,0-.63.29-.95.49-1.33.47.13.56-.14.95.2.16,0,.14-.25.32-.23.14-1.31,1.28-2.18,1.89-3.21.34-.22.9-.22,1.01-.74.09.05.14.11.14.25.16-.43.88-.36,1.01-.59.85.22,1.5-.2,2.45.29.23.67.68.43.79,1.12.18,1.26-.83,2.07-1.49,2.81-.34.07-.52-.09-.61.31-.72.07-1.06,1.08-1.67.94-.07.14-.18.23-.22.41-.23-.23-.29-.02-.54-.23-.36.65-1.71.16-1.75,1.03.02-.11.13.43.13.45.4.79,1.58,1.04,2.77.9.54-.05,1.13-.41,1.75-.63.4-.13.86-.16,1.17-.25.09-.04.27-.36.36-.38.11-.04.27.16.36.13.54-.11.36-.59.7-.7.31.52.34.95.41,1.66ZM81.42,186.06c1.19-.02,1.42-.67,2.39-.79.23-.43.81-.74,1.13-.67.23-.58,1.19-.68,1.17-1.51-2.07-.7-3.29.7-4.41,1.98-.02.2-.36.9-.29.99Z"/>
        <path class="cls-15" d="M92.47,185.27c.45.09,1.06.09,1.13.16.05.14.16.34.36.29-.04.32.22.45.22.63,0,.9-1.51.63-2.03.58-.47.16-2.02.23-3.42.23-.18-.5.16-1.03.11-1.39.54-.47,2.14-.29,2.9-.5.16.04.63.27.74,0Z"/>
        <path class="cls-15" d="M103.65,186.1c-.43.2-.74,1.8-.88,2.12-.22-.04-.22.11-.45.16-1.01.79-1.42,1.21-2.99,1.44-.45-.07-1.26-1.21-1.71-1.06.09.7.2,2.56.41,3.8.13.7.43,1.84-.43,2-.38.09-.47.16-.74.02-.02-.04-.02-.07-.04-.11.09-.05.16-.13.11-.23-.05-.13-.18-.2-.25-.31-.23-.99-.29-2.95-.4-4.07-.14-1.37-.47-2.52-.61-4.21-.07-.79-.41-1.67-.47-2.75.36-.22,1.08-.2,1.28.31.23-.58.63-1.91,1.62-1.85-.09-.11,0-.29.09-.4.41.13.99-.38,1.57-.29.27.04.36.29.59.36.34.14,1.31.45,1.28.45.11-.05.54.2.74.31.77,1.57,1.37,1.76,1.28,4.32ZM102.23,184.91c-.09-1.13-.09-.86-.49-1.71-.18-.02-.38-.23-.52-.11-.07-.09-.22-.43-.29-.54-.29-.07-.47.2-.52-.07-.02-.09.11-.23-.18-.36-.16.14-.32.11-.52-.13-.22.11-.25-.04-.59,0-1.4.74-1.66,1.26-1.82,2.67-.07.74-.14.77.13,1.55.07.18.32.74.05.86.74.52,1.17.63,1.95.99.97-.25,1.35-.65,1.94-1.08.76.02.67-1.04.85-1.31-.11-.14-.11-.47.02-.76Z"/>
        <path class="cls-15" d="M107.81,181.76c.18.07.45-.22.59.16-.02-.32.25-.07.27-.32.27,0,.49.04.61.16.59-.4,2.07.13,2.14.97.94.09.85.47,1.48.85-.05,1.75-.38,3.4-.07,5.19.09-.13.14-.23.23-.36.22-.04.05.43.22.45.36.07.31-.49.31-.79.16.09.23.14.22.4.09-.14.14.02.22-.27.25-.23.14.09.16.27.22.02.23.56.34.97-.79.77-.43,1.75-1.73,1.98-.45-.54-.59-.79-1.1-1.26-.31-.56-.07-1.35-.4-2.05-.09.41-.43,1.21-.59.9-.92,1.55-2.3,2.77-4.29,1.91-.63-.97-1.31-1.84-1.69-3.08.14-.92.09-1.64.14-2.59.16.04.2-.05.31-.09-.05-.16.09-.52-.07-.56.22-.23.27-.05.63-.11-.02-.13-.27-.11-.29-.38-.09-.25.29-.14.43-.16-.49-.77.41-.31.38-1.21.22.14.34-.02.31-.16.11-.25.45.07.47-.41.18.29.72-.04.77-.4ZM109.83,187.7c.16-.7.74-1.44,1.21-1.93.11-.77.16-1.21.23-2.02-.47.02-.76-.54-1.19-.63-.13-.02-.27-.14-.47-.13-.77.02-.74.09-1.33.61.02-.02-.09-.13-.16-.09-.38.22-.86.77-.83,1.33-.74.38-.77,1.82-.7,2.41-.11,0-.14.22-.25.22.16.52-.09,1.13.25,1.49.25-.2.72.77,1.03.77.79-.58,1.26-.54,2.21-2.05Z"/>
        <path class="cls-15" d="M117.19,183.16c.5,2.23-.5,5.04-.07,7.04-.14.52-.49.86-.94,1.1-.23.09-.5-.07-.31-.43-.34.11-.27,0-.42-.16-.36-.38-.38-.45-.13-1.26.07-.22-.25-.38-.25-.63.04-.77.29-1.69.38-2.4.05-.65,0-1.46.07-2.18.04-.43.43-.56.14-1.15.49-.56.97-.14,1.51.07ZM115.3,178.41c-.14.77.21,1.42.59,1.89,1.28.16,1.69-.92,1.49-1.82-.38-.09-.14-.54-.49-.58-.41.11-.56-.04-.86-.22-.13.36-.36.61-.74.72Z"/>
        <path class="cls-15" d="M121,191.1c-.77-.18-1.22-.76-1.03-1.33-.11-.27-.34-.68-.16-.9-.25-1.22-.63-3.44-1.12-4.59.07-.34.02-.4-.14-.79.27.09.5-.97,1.49-.77.2.05.47,1.66.49,1.69.4-.07.74-1.13.86-1.49.76-.02,1.1-.97,1.71-.67.86-.45,1.12-.29,1.85.16.34.29.25.83.34,1.04-.2,0-.29.09-.47.27-1.15-.31-2.72.38-3.42,3.02-.12.41.05.76.2.94-.02.07-.11.43-.11.4-.02.67.54,1.48.18,2.63-.22.13-.47.25-.68.4Z"/>
        <path class="cls-15" d="M128.47,185.27c.45.09,1.06.09,1.13.16.05.14.16.34.36.29-.04.32.22.45.22.63,0,.9-1.51.63-2.04.58-.47.16-2.02.23-3.42.23-.18-.5.16-1.03.11-1.39.54-.47,2.14-.29,2.9-.5.16.04.63.27.74,0Z"/>
        <path class="cls-15" d="M137.31,184.1c0-.09-.14-.34-.14-.43-1.44-1.3-3.94-.99-5.02.43,1.1,1.57,2.25.95,3.94,1.44-.05.2.34.29.34.43,1.04.07,2.18.76,2.77,1.73.2,2.56-1.66,3.46-4.02,3.46-.83-.05-2.68-.02-3.47-.86-.29.05-.38-.13-.54-.22.07-.43-.22-.63-.2-.79.36-.47.25-1.17.86-1.15.14.04.14.11.07.22.34-.18.47-.05.79.07-.07.23-.23.67-.4.58.49.9,1.85.47,2.88.74.05-.05.11-.14.13-.22.79.07,1.37-.32,1.91-.76,0-.2.13-.5-.13-.47-.09-.11.13-.25.13-.23.02,0-.4-.63-.59-.7-.04-.02-.16.13-.27.07-.2-.11-.2-.16-.56-.31-.49-.2-1.1-.41-1.58-.56-.5-.14-1.06.13-1.53.05-.04,0-.12-.2-.2-.22-.45-.14-.54-.47-.81-.86-.16-.04-.14.13-.34.07-.41-.47-.92-2.04.13-2.34-.05-.22.07-.25.07-.43.49-.13.4-.13.52-.67.31-.13.18,0,.29-.18.2.11.72.09.76-.31.25.25.94-.65,1.17.11.25-.05,0-.25.14-.36.29.11.41.18.67,0,.04.34.09.11.27.07.11.14-.02.09,0,.29.25.07.13-.23.27-.29.41.13.68.2.88.59.11-.02.07-.18.07-.29.77.27.92.56,1.62,1.06.11.7-.34,1.04-.88,1.22Z"/>
        <path class="cls-15" d="M141.52,178.46c.02.2-.05.31-.05.49,0,.27.25.54.27.67.11.36-.2.4-.05,1.1.4,1.73.27,3.26.4,4.41.18-.47.34-.97,1.26-1.91.18-.18.56-.29.61-.61.32,0,.99-.29,1.64-.13.2.27.88.2,1.13.45.11.11.13.43.27.61.12.14.65.97.72,1.21.04.13-.11.22-.07.34.05.13.22.2.27.32.34.86.22,2.86.43,3.69.18.72.67,2.12-.81,2.09-.99-1.03-.59-3.42-.9-5.26-.32-.7-.45-2-2.03-1.8-.59.22-1.22,1.3-1.6,1.94-.14.23-.05.81-.32.83-.11.45-.16.92-.2,1.24-.09.94-.05,1.48,0,2.49-.22.23-.47.45-.76.63-.99-.4-.72-2-.67-2.88-.07.14-.16.04-.16-.05-.11-1.57-.07-3.19-.31-4.5.2-.22-.04-.4-.04-.36.38-.49-.13-.61-.11-.9.29-1.82-.34-3.03.02-4.97.92-.47.77.31,1.06.86Z"/>
        <path class="cls-15" d="M152.81,181.76c.18.07.45-.22.59.16-.02-.32.25-.07.27-.32.27,0,.49.04.61.16.59-.4,2.07.13,2.14.97.94.09.85.47,1.48.85-.05,1.75-.38,3.4-.07,5.19.09-.13.14-.23.23-.36.22-.04.05.43.22.45.36.07.31-.49.31-.79.16.09.23.14.22.4.09-.14.14.02.22-.27.25-.23.14.09.16.27.22.02.23.56.34.97-.79.77-.43,1.75-1.73,1.98-.45-.54-.59-.79-1.1-1.26-.31-.56-.07-1.35-.4-2.05-.09.41-.43,1.21-.59.9-.92,1.55-2.3,2.77-4.29,1.91-.63-.97-1.31-1.84-1.69-3.08.14-.92.09-1.64.14-2.59.16.04.2-.05.31-.09-.05-.16.09-.52-.07-.56.22-.23.27-.05.63-.11-.02-.13-.27-.11-.29-.38-.09-.25.29-.14.43-.16-.49-.77.41-.31.38-1.21.22.14.34-.02.31-.16.11-.25.45.07.47-.41.18.29.72-.04.77-.4ZM154.83,187.7c.16-.7.74-1.44,1.21-1.93.11-.77.16-1.21.23-2.02-.47.02-.76-.54-1.19-.63-.13-.02-.27-.14-.47-.13-.77.02-.74.09-1.33.61.02-.02-.09-.13-.16-.09-.38.22-.86.77-.83,1.33-.74.38-.77,1.82-.7,2.41-.11,0-.14.22-.25.22.16.52-.09,1.13.25,1.49.25-.2.72.77,1.03.77.79-.58,1.26-.54,2.21-2.05Z"/>
        <path class="cls-15" d="M162.01,191.1c-.77-.18-1.22-.76-1.03-1.33-.11-.27-.34-.68-.16-.9-.25-1.22-.63-3.44-1.12-4.59.07-.34.02-.4-.14-.79.27.09.5-.97,1.49-.77.2.05.47,1.66.49,1.69.4-.07.74-1.13.86-1.49.76-.02,1.1-.97,1.71-.67.86-.45,1.12-.29,1.85.16.34.29.25.83.34,1.04-.2,0-.29.09-.47.27-1.15-.31-2.72.38-3.42,3.02-.12.41.05.76.2.94-.02.07-.11.43-.11.4-.02.67.54,1.48.18,2.63-.22.13-.47.25-.68.4Z"/>
        <path class="cls-15" d="M175.65,189.37c-1.73,1.13-3.55,1.85-6.16,1.94-1.3-.36-2.5-1.12-2.57-2.66-.04-.07-.11-.11-.2-.16.2-1.28-.72-.86-1.49-1.3,0-.63.29-.95.49-1.33.47.13.56-.14.96.2.16,0,.14-.25.32-.23.14-1.31,1.28-2.18,1.89-3.21.34-.22.9-.22,1.01-.74.09.05.14.11.14.25.16-.43.88-.36,1.01-.59.85.22,1.49-.2,2.45.29.23.67.68.43.79,1.12.18,1.26-.83,2.07-1.5,2.81-.34.07-.52-.09-.61.31-.72.07-1.06,1.08-1.67.94-.07.14-.18.23-.22.41-.23-.23-.29-.02-.54-.23-.36.65-1.71.16-1.75,1.03.02-.11.13.43.13.45.4.79,1.58,1.04,2.77.9.54-.05,1.13-.41,1.75-.63.4-.13.86-.16,1.17-.25.09-.04.27-.36.36-.38.11-.04.27.16.36.13.54-.11.36-.59.7-.7.31.52.34.95.41,1.66ZM168.43,186.06c1.19-.02,1.42-.67,2.39-.79.23-.43.81-.74,1.13-.67.23-.58,1.19-.68,1.17-1.51-2.07-.7-3.29.7-4.41,1.98-.02.2-.36.9-.29.99Z"/>
      </g>
      <g class="cls-16">
        <path class="cls-5" d="M45.35,132.44c-4.58-1.31-7.71-5.86-7.32-10.28.39-4.42,4.08-8.36,8.68-9.58,4.6-1.22,9.83.2,13.21,3.34,2.61,2.44,4.16,5.95,3.64,9.35-.52,3.4-3.32,6.52-6.95,7.2,3.49,1.24,5.48,4.62,6.9,7.82,3.71,8.33,5.66,17.32,5.73,26.33,0,.53,0,1.1-.32,1.55-.42.61-1.26.83-2.02.99-10.04,2.08-20.61,1.97-30.6-.32-1.09-.25-2.28-.59-2.9-1.46-.43-.6-.5-1.36-.55-2.08-.79-12.25,2.57-23.85,10.53-33.66"/>
      </g>
      <g class="cls-12">
        <path class="cls-4" d="M33.59,66.81c-4.36-1.25-7.35-5.59-6.98-9.8.37-4.22,3.89-7.97,8.28-9.13,4.39-1.17,9.37.19,12.59,3.19,2.49,2.32,3.97,5.67,3.47,8.91-.5,3.24-3.17,6.21-6.63,6.87,3.33,1.18,5.22,4.4,6.58,7.46,3.53,7.94,5.4,16.51,5.46,25.1,0,.51,0,1.05-.3,1.48-.4.58-1.2.79-1.93.94-9.58,1.98-19.65,1.87-29.17-.31-1.04-.24-2.17-.56-2.76-1.4-.41-.58-.48-1.29-.52-1.98-.75-11.68,2.45-22.74,10.04-32.09"/>
      </g>
      <g class="cls-19">
        <path class="cls-4" d="M120.34,67.78c-4.36-1.25-7.35-5.59-6.98-9.8.37-4.22,3.89-7.97,8.28-9.13,4.39-1.17,9.37.19,12.59,3.19,2.49,2.32,3.97,5.67,3.47,8.91-.5,3.24-3.17,6.21-6.63,6.87,3.33,1.18,5.22,4.4,6.58,7.46,3.53,7.94,5.4,16.51,5.46,25.1,0,.51,0,1.05-.3,1.48-.4.58-1.2.79-1.93.94-9.58,1.98-19.65,1.87-29.17-.31-1.04-.24-2.17-.56-2.76-1.4-.41-.58-.48-1.29-.52-1.98-.75-11.68,2.45-22.74,10.04-32.09"/>
      </g>
      <g class="cls-28">
        <path class="cls-4" d="M15.07,137.64c-4.36-1.25-7.35-5.59-6.98-9.8.37-4.22,3.89-7.97,8.28-9.13,4.39-1.17,9.37.19,12.59,3.19,2.49,2.32,3.97,5.67,3.47,8.91-.5,3.24-3.17,6.21-6.63,6.87,3.33,1.18,5.22,4.4,6.58,7.46,3.53,7.94,5.4,16.51,5.46,25.1,0,.51,0,1.05-.3,1.48-.4.58-1.2.79-1.93.94-9.58,1.98-19.65,1.87-29.17-.31-1.04-.24-2.17-.56-2.76-1.4-.41-.58-.48-1.29-.52-1.98-.75-11.68,2.45-22.74,10.04-32.09"/>
      </g>
      <path class="cls-9" d="M23.73,51.29c.23-.25.45-.53.57-.83.11-.27.15-.55.16-.82.06-1.6-.93-2.87-2.27-3.47-1.23-.54-2.75-.6-4.26-.14-.94.28-2,.9-2.31,1.84-.15.46-.08.91.02,1.33.77,3.12,4.45,6.03,8.08,2.09Z"/>
      <path class="cls-10" d="M26.47,30.39c-1.31.22-2.5.93-3.46,1.85-1.1,1.04-1.95,2.42-2.04,3.93-.08,1.42.54,2.81,1.5,3.86.96,1.05,2.23,1.76,3.56,2.25,2.34.86,5.17.99,7.16-.51.43-.32.8-.71,1.15-1.12.39-.48.75-1,.93-1.59.3-.99.08-2.06-.17-3.06-.31-1.21-.67-2.45-1.45-3.43-.99-1.26-1.96-1.16-3.32-1.45-1.34-.29-2.39-.97-3.85-.72Z"/>
      <path class="cls-8" d="M110.21,122.42c5.21-.36,10.42-.71,15.64-1.07,4.4-.3,28.6.15,32.59.67,4.99.64,4.05.09,9.02.82,8.3,1.22,7.42,6.64,7.91,13.95.7,10.26.69,8.92-.67,11.47-2.05,3.83-5.36,3.51-8.85,3.66-10.42.42-29.11-.06-31.49,1.23-3.61,1.96-3.75,4.64-6.1,7.75-5.15,1.54-6.32-4.4-8.93-6.75-1.51-1.36-5.88-.72-7.91-.77-3.56-.08-6.96-1.07-8.44-5.24-.94-2.64-.49-6.03-.45-8.81.05-3.53.25-4.38.23-9.32-.01-4.69,3.17-7.65,7.44-7.59Z"/>
      <g>
        <path class="cls-15" d="M113.83,137.64c-.03-.32.18-.69-.03-1.42-.02-.64,0-1.38.11-2.35-.11-.11-.18-.4-.13-.72.06-.27,0-.62.03-.85.06-.48.14-.72.38-.72.32.27.4-.02.51.4.26-.29.5.99.14,1.1.34.11.18.19.18.19-.3.32.27.54-.05.85.05.05.11.1.18.11-.22.64.27,1.23-.14,1.76.16.14.03.48.21.62-.18,1.5.13,1.44-.02,3.09.34.03-.03.62-.05.62.21.54-.03.48.02.74.02.16-.14.32.1.45,0,0,.18,1.06.16,1.28-.02.3-.13.4-.22.5-.03,0-.06.02-.08.02-.35-.05-.56-.06-.91-.11-.21-.05-.43-.29-.48-.48-.03-.11.08-.42.08-.53.03-.03.03-.1.08-.13.08-.3.03-.37-.1-.74.27-1.95.11-2.53.03-3.68Z"/>
        <path class="cls-15" d="M126.11,135.03c-.45.78-1.54.85-2.32,1.18-.22,1.5-.24,3.44-.16,5.22,0,.11.53.24.51.38.66-.32,1.07-.14,1.6.08-.11.99-1.25,1.22-2.08,1.31-.16-.26-.4-.27-.59-.24-1.44-1.36-.42-4.53-.66-6.36-.22-.13-.59.16-.83.19-.45-.21-.64-.66-.83-1.12.32-.29.82-.48,1.31-.48.4-.14.27-.62.35-1.25.1-.69.35-1.09.42-1.79.38.02.69.1,1.07.24.4.58-.08,1.58-.06,2.14.83-.38,1.81-.51,2.27.48Z"/>
        <path class="cls-15" d="M127.58,131.89c.02.18-.05.27-.05.43,0,.24.22.48.24.59.1.32-.18.35-.05.98.35,1.54.24,2.9.35,3.92.16-.42.3-.86,1.12-1.7.16-.16.5-.26.54-.54.29,0,.88-.26,1.46-.11.18.24.78.18,1.01.4.1.1.11.38.24.54.11.13.58.86.64,1.07.03.11-.1.19-.06.3.05.11.19.18.24.29.3.77.19,2.54.38,3.28.16.64.59,1.89-.72,1.86-.88-.91-.53-3.04-.8-4.67-.29-.62-.4-1.78-1.81-1.6-.53.19-1.09,1.15-1.42,1.73-.13.21-.05.72-.29.74-.1.4-.14.82-.18,1.1-.08.83-.05,1.31,0,2.21-.19.21-.42.4-.67.56-.88-.35-.64-1.78-.59-2.56-.06.13-.14.03-.14-.05-.1-1.39-.06-2.83-.27-4,.18-.19-.03-.35-.03-.32.34-.43-.11-.54-.1-.8.26-1.62-.3-2.69.02-4.42.82-.42.69.27.94.77Z"/>
        <path class="cls-15" d="M137.05,136.07c.45,1.99-.45,4.48-.06,6.26-.13.46-.43.77-.83.98-.21.08-.45-.06-.27-.38-.3.1-.24,0-.37-.14-.32-.34-.34-.4-.11-1.12.06-.19-.22-.34-.22-.56.03-.69.26-1.5.34-2.13.05-.58,0-1.3.06-1.94.03-.38.38-.5.13-1.02.43-.5.86-.13,1.34.06ZM135.37,131.85c-.13.69.19,1.26.53,1.68,1.14.14,1.5-.82,1.33-1.62-.34-.08-.13-.48-.43-.51-.37.1-.5-.03-.77-.19-.11.32-.32.54-.66.64Z"/>
        <path class="cls-15" d="M145.73,142.94c-.22.1-.42-.43-.72-.46.03-1.47.11-3.33-.38-4.69-.34-.91-1.42-2.64-2.27-1.39-.24.38-.45,1.22-.67,1.68-.27.56-.5,1.15-.69,1.75,0,.02-.16.03-.18.06-.45,1.18-.13,2.3-.54,3.33-.62.38-1.09-.26-1.31-.74-.06-2.54-.11-4.67-.24-7.68.26.1.21-.16.35-.19.38.18.61.11.83.46-.14,1.02.06,1.86.24,3.26.02-.13.16-.67.3-.61.1-.3.03-1.33.48-1.46.03-.74.56-.9.77-1.42.46-.13.82-.4,1.38-.42.62.29,1.57.42,2.02.9.94,2.3,1.81,5.09,1.1,7.55-.21.14-.53-.06-.46.06Z"/>
        <path class="cls-15" d="M149.12,131.37c.54,1.99.32,4.1.62,6.5.99-.77,2.38-2.58,3.63-3.07.34.27.27.59.5.96-.21.56-.9.64-1.12,1.18-.11.02-.11-.06-.19-.06-.21.3-.1.27-.34.59-.3.42-1.18.88-1.39,1.22-.06.11,0,.32-.06.4-.22.29-.56.3.05.7,1.14.74,2.58.72,3.83,1.98.5.51.18.53.46.85-.3.11-.08.24-.24.37-.16-.14-.24-.06-.43-.03-.51-.38-2.05-.86-2.54-1.44-.53-.03-1.18-.74-1.95-.7-.46.66-.1,1.86-.16,2.48-.51.19-1.41-.1-1.52-.72-.13-.69.61-1.92-.38-2.3.18-.9.48-1.22.45-2.05-.02-.53-.13-.96-.19-1.65-.08-.78.22-1.65-.19-2.37.16-1.46-.27-2.21-.14-3.49.59.06.8.51,1.33.66Z"/>
        <path class="cls-15" d="M156.36,143.18c.03-.29-.14-.64-.24-1.07.19-.42.14-1.34.77-1.14.35-.37.69-.16,1.2,0,.37.75-.18,1.42-.19,1.9-.48.19-1.04.82-1.54.3Z"/>
        <path class="cls-15" d="M160.81,143.18c.03-.29-.14-.64-.24-1.07.19-.42.14-1.34.77-1.14.35-.37.69-.16,1.2,0,.37.75-.18,1.42-.19,1.9-.48.19-1.04.82-1.54.3Z"/>
        <path class="cls-15" d="M165.26,143.18c.03-.29-.14-.64-.24-1.07.19-.42.14-1.34.77-1.14.35-.37.69-.16,1.2,0,.37.75-.18,1.42-.19,1.9-.48.19-1.04.82-1.54.3Z"/>
      </g>
      <path class="cls-6" d="M35.54,1.82c4.03-.07,8.49,0,11.47,2.43,4.1-4.84,26.44-4.94,31.53,4.18,1.97-.51,4.15-.39,6.04.33,4.13,1.59,6.41,6.02,5.72,10-.7,3.99-2.38,2.23-.49,5.47,1.46,2.51.68,5.78-1.47,7.85-2.16,2.06-4.87,3.27-8.02,3.14-1.86-.08-7.62-.05-8.53-2.07-1.26,3.62-4.41,4.2-8.53,5.03-5.03,1.01-8.4,1.66-13.54,1.98-7.39.46-15.39.13-20.12-4.99-.64-.69-1.31-1.51-2.31-1.61-.84-.08-1.6.39-2.36.71-3.65,1.56-10.77-2.55-12.89-5.64-2.13-3.09-2.45-8.95-1.92-12.56C11.88,3.79,32.52,1.88,35.54,1.82Z"/>
      <g>
        <path class="cls-23" d="M25.83,25.52h-.14s-.09-.11-.09-.11c-.43-.6-.54-1.45-.68-2.26-.08-.47-.13-.92-.26-1.28-.1-.08-.19-.15-.3-.23-.25-.2-.54-.41-.63-.84-.09-.58.43-1.05.6-1.2l.16-.16c.02-.08-.01-.18-.16-.32l-.06-.06v-.13c-.01-.35.04-.51.17-.67-.2-.55-.13-1.31-.06-2.03.04-.32.07-.62.07-.88-.32.08-.51.22-.53.3v.1h-.02l.19.08-.05.24c-.03.14-.11.24-.15.27l-.06.05-.1.03s-.05,0-.05.02l-.1.09h-.14c-.06,0-.1,0-.16,0h-.06s-.02,0-.03,0c-.18,0-.26-.04-.4-.15-.03-.05-.11-.08-.27-.2,0,0-.19-.15-.32-.18.03-.1.13-.14.13-.14-.05-.05-.1-.11-.11-.18l-.05-.11.07-.13s.03-.03.05-.06c0-.02.03-.06.05-.11,0,0-.16.08-.24-.05.08-.26.36-.41.36-.41.03-.03.11-.08.19-.13.18-.13.45-.28.47-.47l.02-.14.11-.06c.86-.6,1.08-.65,2.07-.7l.02-.08.21-.04h.02c.1-.02.27-.06.43-.06.1,0,.18.02.26.05.45-.12.91-.18,1.41-.18.93,0,1.95.26,2.97.7l.03.02h.02c.78.5,1.41,1.49,1.53,2.42.07.66-.11,1.26-.55,1.74-.23.81-.89,1.27-1.49,1.65-.18.13-.35.24-.5.38-.37.56-1,.68-1.5.77-.29.06-.58.12-.77.25-.15.27-.49.41-.77.55-.06.03-.13.06-.18.08,0,.53.18,1.06.33,1.57.11.34.2.69.26,1.04.08.4,0,.74-.2,1.01-.16.17-.45.38-.98.37,0,0-.02,0-.03,0ZM26.16,19.65c.23-.08.43-.16.71-.33.13-.1.26-.14.39-.2.05-.02.11-.03.16-.06l.02-.02c.03-.08.08-.19.2-.3.19-.19.39-.2.55-.23.13,0,.19-.01.26-.08.13-.14.29-.22.42-.32.11-.06.21-.14.26-.19.23-.22.36-.49.54-.79.07-.13.12-.24.2-.37.08-.1.16-.25.18-.3.13-.37.1-.67-.08-.95-.32-.45-1.03-.67-1.58-.67-.11,0-.24.01-.35.01l-.06.02-.06-.02c-.24-.05-.51-.08-.77-.09-.35,0-.67.06-.9.13.09.4,0,.85-.09,1.26-.04.3-.1.59-.09.85s.03.46.04.66c.03.48.04.88,0,1.54.09.16.11.34.09.45Z"/>
        <path class="cls-23" d="M34.18,24.58c-.09-.24-.14-.5-.07-.75-.02-.02-.02-.03-.03-.06-.09-.21-.22-.53-.1-.8-.05-.19-.08-.4-.12-.63-.2-1.06-.45-2.5-.77-3.31l-.03-.1.02-.09q.05-.16-.04-.37s-.03-.1-.06-.15c0,0-.06-.22-.03-.34.08-.14.32-.12.32-.12.02-.02.03-.05.05-.06.16-.22.47-.6,1.02-.6.1,0,.19.02.3.04.21.05.3.26.35.45.03.15.08.32.12.55,0,.03.02.06.02.1.02,0,.02-.02.02-.02.12-.24.2-.49.26-.65l.08-.25h.22c.18,0,.35-.14.55-.28.21-.16.4-.35.71-.34.06,0,.13.02.19.03.29-.16.51-.22.75-.22.34,0,.62.18,1,.43l.02.02.03.03c.29.26.33.64.36.88,0,.06,0,.14.01.18,0,0,.06.26-.02.35-.05.06-.29.08-.29.08-.03,0-.05,0-.16.14l-.11.14-.19-.05c-.13-.03-.26-.07-.38-.07-.95,0-1.77.93-2.2,2.49-.07.26.04.46.12.56l.08.11-.02.13c-.02.06-.05.19-.07.24,0,.03-.02.08-.03.11v.02c0,.14.04.32.09.53.12.48.28,1.09.03,1.84l-.05.1-.1.06c-.1.08-.21.13-.31.19-.06.06-.16.11-.26.17l-.11.06-.13-.03c-.45-.1-.83-.38-1.03-.73Z"/>
        <path class="cls-23" d="M42.26,25.34c.08-.05.02-.11.02-.11-.37-.02-.62-.09-.89-.25-.27-.16-.51-.39-.75-.66-.32-.13-.57-.34-.79-.58-.21-.24-.35-.6-.45-.93-.2-.8-.13-1.73-.02-2.34l.04-.3c.07-.08.16-.06.16-.06.02-.14.07-.21.23-.3.36-1.08,1.24-2.04,2.27-2.44.18-.17.47-.44.92-.5h.05c.15-.06.34-.14.59-.14.06,0,.13,0,.18.02.11-.01.22-.01.32-.01.43,0,.83.09,1.18.24.3.15.59.38.83.63.22.03.4.08.53.2.06.07.13.16.16.26l.18-.03.13.16c.09.14.22.26.33.36.17.19.33.39.49.63l.02.02.02.02c.33.8.35,1.65.04,2.53-.23.61-.62,1.27-1.21,1.96l-.08.08h-.11s-.05.01-.08.01c-.18.22-.4.41-.6.59-.18.13-.34.24-.47.38l-.11.14-.19-.02s-.05-.02-.08-.02c-.06,0-.1,0-.13.14l-.05.19-.18.03c-.42.09-.88.18-1.31.18-.14,0-.27-.02-.38-.05-.06.05-.18.13-.42.06,0,0-.08.03-.33-.05ZM42.43,23.38c.19,0,.42-.01.66-.04.03,0,.08,0,.13-.02.08-.06.18-.09.24-.14.18-.13.1-.22.1-.22l.32.04s.06,0,.08,0c.22,0,.4-.12.63-.31.16-.13.34-.28.55-.39.18-.41.54-.71.84-.92t.03-.02c.02-.08.03-.16.05-.24.12-.43.2-.72.12-1.26-.08-.07-.16-.15-.24-.23-.21-.21-.35-.34-.51-.34h-.4s.11-.12.08-.31c-.02-.02-.27-.02-.38-.02-.37-.02-.72-.04-1.15-.27-.16.09-.31.22-.45.36-.23.16-.47.36-.79.5-.1.21-.21.37-.33.53-.52.86-.99,1.59-.38,2.96.16.24.38.34.8.34Z"/>
        <path class="cls-23" d="M50.14,24.76l-.1-.08v-.14c-.05-.99-.14-2.04-.24-3.12-.11-1.36-.23-2.77-.29-4.28v-.19s.15-.09.15-.09c.27-.17.5-.25.72-.25.26,0,.48.12.65.33.13.14.24.35.31.63.14.47.2,1.04.26,1.59.01.11.01.24.03.34.08-.21.18-.49.3-.89.03-.11.05-.13.06-.14v-.02c.2-.38.46-.6.67-.81.24-.22.42-.4.52-.7l.02-.06.05-.06c.32-.33.74-.33.88-.33.11,0,.21,0,.32.02.08,0,.16,0,.22,0,.11,0,.14,0,.16-.01l.19-.11.17.13c.13.1.27.18.41.26.29.15.6.33.79.73.08.15.08.29.09.42v.1c.1.03.19.1.24.21.06.11.08.24.09.37.38-.84.8-1.5,1.17-2.04l.16-.25.21.03h.03c.08,0,.19-.01.32-.03.16-.03.34-.06.51-.06.11,0,.21.02.29.04.14.03.24.11.32.19l.16-.08.19.27c.06.11.16.24.25.39.09.15.21.29.3.47,0,0,.1-.08.16.05.08.13.25.67.25.67.33.92.32,1.49.3,2.28.21.15.27.32.27.45.01.08,0,.16-.04.21l.08.03v.21c.04.24,0,.42-.07.53.05.03.18.13.21.24.03.1-.03.24-.03.24-.12.24-.07.5-.03.78.06.32.12.69-.03,1.07,0,0,.16.06.22.19-.02.1-.16.29-.16.29-.05.08-.11.14-.18.21-.1.1-.15.16-.16.26l-.05.22h-.22c-.08.03-.14.03-.22.03-.61,0-1.2-.37-1.5-.9-.17-.34-.2-.69-.08-.98-.11-.59-.08-1.18-.06-1.78.04-.96.08-1.87-.47-2.82-.02.06-.05.11-.07.14-.03.05-.05.11-.08.14.03.08.06.18.04.29l-.02.1-.05.06c-.32.38-.51.89-.67,1.43-.18.49-.35,1.02-.67,1.46.04.61-.03.93-.13,1.41-.05.22-.1.48-.17.83l-.03.19-.18.06c-.14.05-.29.08-.43.08-.67,0-1-.62-1.22-1.04l-.03-.06v-.08c-.01-.24,0-.48,0-.7.02-1.78.02-3.09-.46-4.89-.11.01-.14.03-.14.05-.02.02-.03.06-.03.18,0,0,.01.13-.04.22-.06.1-.19.11-.19.11-.02.02-.03.03-.06.05-.03.03-.08.08-.16.11l.11.1-.19.22c-.11.13-.2.3-.28.49-.1.21-.21.45-.38.64.01.43-.19.78-.38,1.08-.1.17-.21.35-.26.53-.08.29-.14.64-.19,1.02-.1.82-.23,1.66-.71,2.19l-.06.06-.1.03-.14-.02s.05.18-.1.19l-.26-.13c-.37-.21-.7-.46-1.05-.78Z"/>
        <path class="cls-23" d="M65.08,28.8l-.13-.07s-.27-.29-.14-.45c.13,0,.11-.08.11-.08-.02-.05-.08-.03-.11-.07l-.03-.05-.02-.06c-.14-.59-.21-1.59-.26-2.45-.03-.38-.04-.77-.07-1.06-.06-.54-.13-1.03-.22-1.54-.1-.64-.21-1.28-.28-2.08-.03-.26-.09-.55-.15-.87-.11-.43-.21-.95-.24-1.51v-.18s.16-.08.16-.08c.18-.11.4-.16.63-.15.21,0,.4.05.54.13.11-.24.23-.51.41-.72.24-.33.53-.54.85-.6.03-.08.08-.14.15-.22l.15-.17.21.07s.02,0,.03,0c.1,0,.26-.05.4-.11.22-.08.47-.17.75-.17.05,0,.11,0,.16.02.22.03.37.16.48.26.05.05.08.08.11.1.14.05.42.13.65.2.13.05.24.08.34.12.02.02.05.02.06.03.19,0,.4.1.69.26.03.02.06.03.08.05l.1.05.05.1c.14.27.3.53.42.76.46.76.79,1.3.7,3.1l-.02.16-.18.08s-.1.09-.23.45c-.1.22-.18.53-.25.78-.07.21-.12.33-.15.43,0,0-.05.16-.15.21-.11.06-.21-.02-.21-.02-.05.03-.11.08-.21.11-.05.05-.1.08-.15.11-.77.58-1.24.93-2.62,1.11h-.05s-.05,0-.05,0c-.27-.05-.53-.25-.81-.5-.1-.1-.19-.18-.29-.24.02.05.01.11.01.18.07.75.14,1.79.28,2.55.02.06.01.1.03.16.06.33.14.7.08,1.04-.05.48-.33.78-.79.86-.06.02-.11.03-.16.03-.11.03-.21.05-.3.04-.13,0-.24-.02-.38-.08ZM67.22,22.49c.11.05.24.1.37.17.56-.15.87-.39,1.24-.63.08-.08.18-.14.27-.21l.08-.08.11.02h.02c.16,0,.23-.12.33-.56.02-.08.05-.18.07-.26-.06-.21-.04-.45.04-.69-.04-.63-.04-.64-.18-.93-.03-.07-.08-.15-.13-.21-.03-.02-.06-.03-.1-.05,0,0,0,.11-.14.08-.14-.05-.24-.2-.24-.2-.06-.08-.09-.16-.17-.31,0-.02-.02-.03-.02-.05-.06.02-.11.03-.19.03-.16,0-.35-.1-.4-.33h-.03c-.16,0-.29-.08-.38-.16-.02,0-.02.02-.03.02-.08,0-.14-.02-.18-.03-.05-.02-.08-.02-.13-.02-1.09.53-1.27.9-1.41,1.99-.02.1-.02.19-.04.26-.05.37-.05.42.12.93,0,.02.01.03.01.05.05.11.11.26.14.43.01.1.01.19,0,.27.35.2.62.29.97.46Z"/>
        <path class="cls-23" d="M75.06,25.54s-.06,0-.08,0l-.13.03-.13-.11c-.47-.47-.72-1.14-.81-2.07-.05-.77.02-1.6.09-2.42.06-.64.13-1.26.1-1.78-.05.02-.1.03-.13.05-.11.05-.24.11-.37.12l-.1.02-.08-.05c-.56-.28-.79-.87-.93-1.31l-.08-.21.18-.14c.32-.33.85-.54,1.38-.54.02-.02.02-.03.03-.06.03-.08.04-.22.05-.4,0-.16.02-.32.04-.51.05-.33.1-.62.2-.88.08-.29.17-.54.2-.89l.04-.3.3.02c.4.04.75.14,1.1.27l.1.03.05.1c.35.48.2,1.15.08,1.7-.02.05-.02.1-.03.13.26-.06.46-.11.69-.1.62,0,1.13.35,1.38.96l.06.16-.08.14c-.36.67-1.07.88-1.69,1.07-.18.05-.37.11-.53.16-.17,1.26-.24,2.96-.2,4.83.03.02.05.03.06.03.08.05.16.08.24.13.19-.08.38-.11.56-.11.4,0,.72.17,1.02.3l.21.1-.04.24c-.17,1.31-1.65,1.49-2.27,1.56l-.21.03-.09-.18c-.06-.08-.13-.1-.19-.1Z"/>
      </g>
      <path class="cls-7" d="M67.61,77.89c8.38-.16,22.44-1.01,30.52-.8-3.19-3.29-3.56-4-8.04-7.35,4.22,2.28,5.48,3.31,8.75,8.44-5.56,2.4-3.96,3.99-9.49,6.37"/>
      <path class="cls-7" d="M73.61,140.12c8.38-.16,12.44-.01,20.52.2q-3.56-4-8.04-7.35c4.22,2.28,5.48,3.31,8.75,8.44-5.56,2.4-3.96,2.99-9.49,5.37"/>
      <path class="cls-7" d="M95.35,98.53c-7.13,4.42-16.42,9.38-23.47,13.31,4.56,1.14,5.1,1.62,10.66,2.22-4.79.19-6.4-.05-11.83-2.8,3.56-4.9,1.88-4.59,5.42-9.46"/>
    </g>
  </g>
</svg>