<?xml version="1.0" encoding="UTF-8"?>
<svg id="Layer_2" data-name="Layer 2" xmlns="http://www.w3.org/2000/svg" viewBox="0 0 268.05 170.71">
  <defs>
    <style>
      .cls-1, .cls-2, .cls-3, .cls-4, .cls-5, .cls-6, .cls-7, .cls-8, .cls-9, .cls-10 {
        stroke-linecap: round;
        stroke-linejoin: round;
      }

      .cls-1, .cls-3, .cls-4, .cls-5 {
        fill: none;
      }

      .cls-1, .cls-6 {
        stroke: #cc6b00;
      }

      .cls-2, .cls-6, .cls-10 {
        fill: #fff;
      }

      .cls-2, .cls-7 {
        stroke: #008a10;
      }

      .cls-11 {
        fill: #823eed;
      }

      .cls-3 {
        stroke: #e07500;
      }

      .cls-4 {
        stroke: #757575;
      }

      .cls-5 {
        stroke: #757575;
      }

      .cls-7, .cls-9 {
        fill: #008a10;
      }

      .cls-8 {
        fill: #fcebff;
        stroke: #da0cfc;
      }

      .cls-12 {
        fill: #bb00e2;
      }

      .cls-9, .cls-10 {
        stroke: #1d74ff;
      }
    </style>
  </defs>
  <g id="Layer_1-2" data-name="Layer 1">
    <g>
      <g>
        <path class="cls-11" d="M56.85,20.65s-.11-.12-.13-.12l-.25-.04-.07-.25c-.34-1.51-.29-3.15.08-5.06l-.02-.13-.09-.61.04-.11c.45-.99.56-2.07.69-3.16.06-.44.09-.92.17-1.35v-.02c.06-.32.16-.59.26-.84.08-.15.14-.32.21-.47.02-.19.02-.38.01-.59,0-.25,0-.48.01-.71v-.02l.1-.34.08-.08c.06-.06.12-.15.19-.21.02-.15.02-.32.01-.46,0-.46-.01-.97.3-1.43,0,0,.08-.13.17-.17.1-.04.27.02.27.02.06.02.15.02.23.04.34.08.76.18,1.1.43l.13.08.02.19c.15,1.72-.23,3.34-.63,4.94-.26,1.03-.5,2.06-.59,3.14,0,.06,0,.15.02.23.04.15.07.33.05.52-.03.67-.19,1.3-.33,1.96-.16.74-.32,1.43-.31,2.19.11-.02.23-.04.31-.09,1.55-.44,3.1-.86,4.69-.88.67,0,1.24.03,1.85.14l.27.06v.34c0,.06.05.17.07.27.06.15.13.27.13.46,0,.21-.06.4-.18.57-.04.19-.1.36-.24.51l-.15.15-.44-.06-.02.02s-.08.11-.21.15c-.08.02-.23-.08-.23-.08-.02,0-.02-.02-.04-.02l-.06.04h-.11c-.06,0-.13,0-.17-.02h-.15s-.08-.04-.08-.04c-.02,0-.04-.02-.06-.02h-.02s-.19,0-.33.17c-.04-.25-.23-.23-.23-.23-.04,0-.13.02-.19.04-.12.04-.27.09-.44.09-.02,0-.04,0-.08-.02-.17.13-.38.19-.58.2-.06,0-.15-.02-.21-.02-1.19.6-2.61,1-4.23,1.13h-.1s-.11-.06-.11-.06c-.19-.1-.3-.25-.38-.37Z"/>
        <path class="cls-11" d="M75.4,19.94c-.19-.37-.37-.67-.58-.98l-.06-.08-.02-.08c-.07-.38-.03-.65.05-1.01-.06.02-.12.04-.19.07-1.45,1.59-2.8,2.43-4.13,2.45-.52,0-.99-.09-1.47-.34l-.13-.08-.09-.25c-.41-1.04-.87-2.15-.9-3.29v-.08l.04-.08c.26-.61.45-1.22.65-1.79.08-.36.16-.72.26-1.01,0,0,.06-.15.12-.17.06-.04.27-.09.27-.09.02-.04.04-.08.04-.13,0-.02.02-.02.02-.04,0,0-.02-.15-.15-.21.1-.15.25-.26.25-.26.12-.08.27-.13.38-.17,0-.04.02-.11.04-.17v-.06s.31-.4.31-.4h.13c.04-.11.08-.19.12-.26.12-.13.29-.24.44-.34.21-.17.25-.21.25-.3,0,0-.02-.21.02-.31.12-.13.44-.09.44-.09l.02-.11.29-.11.02-.02c.17-.09.23-.13.25-.13,0,0,.17-.28.29-.3.21.17.38.12.38.12.04-.02.23-.17.29-.32l.1-.21h.27s.06,0,.1,0c.08-.02.17-.02.25-.02.04,0,.13,0,.21.02l.12-.02.1-.11h.21c.19,0,.42,0,.65.09.17-.07.38-.11.59-.11.59,0,1.18.21,1.5.59.15.21.26.42.3.6.42.08.7.43.93.7.11.12.19.19.28.25,0,0,.15.1.17.19.02.08-.04.23-.04.23-.18.55-.38,1.1-.59,1.58-.32,1.01-.71,2.07-.93,3.12l.06.06c0-.06.06-.13.08-.17,0,0,.29-.19.31-.42.15,0,.21.12.21.12.02.02.04.02.06.04,0,0,.19-.13.36-.15.19.14.3.77.3.77.24.33.18.65.14.9-.02.13-.02.23-.02.31l.02.23-.19.11c-.31.17-.54.51-.75.87-.43.57-.91,1.25-1.92,1.37h-.27s-.13-.21-.13-.21c-.06-.1-.11-.19-.17-.31ZM70.78,17.73s.04.1.07.15c1.21-.6,2.04-1.29,2.64-1.99.49-.85,1.24-1.59,1.88-2.12.08-.19.16-.4.25-.51.16-.4.3-.82.45-1.16-.17-.1-.28-.25-.36-.35-.11-.12-.19-.23-.28-.23h-.02v-.02c-.11-.02-.19-.06-.27-.1-.02,0-.06-.02-.1-.02h-.08s-.06,0-.08,0c-.44,0-.86.29-1.19.6l-.23.21-.31-.04c-.4.24-.69.6-.81,1l-.04.15-.15.04c-.79.47-1.03,1.42-1.27,2.33l-.04.23-.29.23c-.02.21-.08.32-.14.51-.06.25-.12.42-.1.59.27.12.4.33.49.5Z"/>
        <path class="cls-11" d="M81.35,20.07s-.02,0-.04.02c0,0-.19.09-.27.02-.11-.04-.17-.27-.17-.27-.82-1.88-.26-3.71.35-5.48.22-.8.46-1.52.6-2.21-.15.06-.31.15-.52.17l-.11.02-.13-.08c-.72-.47-.81-1.29-.86-1.75l-.02-.21.17-.15c.56-.43,1.19-.67,1.84-.7.14-.11.23-.38.33-.78.04-.19.1-.34.16-.53.14-.4.33-.74.51-1.06.16-.42.37-.76.49-1.16l.08-.32.34.02c.4.02.82.12,1.33.32l.21.08.04.23c.2.75-.11,1.41-.37,2.02-.02.02-.04.04-.04.06.21-.05.42-.07.63-.07.4,0,.74.07,1.03.24.34.23.53.6.6,1.02l.02.19-.1.13c-.6.81-1.52,1.09-2.31,1.35-.27.09-.52.15-.77.26-.63,1.79-1.13,3.79-1.56,6.11,0,0,.02,0,.02.02.06.02.11.06.17.1.23-.07.44-.11.69-.11.46,0,.88.09,1.29.34,0,0,.17.12.21.21.02.08-.04.27-.04.27-.22.65-.7,1.16-1.37,1.49-.48.26-1.13.43-1.84.51,0,0-.25.02-.29,0-.11-.08-.15-.27-.15-.27-.02-.04-.06-.06-.13-.06Z"/>
        <path class="cls-11" d="M88.08,18.94c-.36-.56-.52-1.11-.44-1.71l-.21-.1.06-.29c.02-.06.02-.13.04-.21.04-.08.1-.29.08-.36-.11-.04-.19-.06-.29-.08-.38-.04-.71-.12-.97-.28l-.23-.17.04-.25c.1-.55.43-1.03.76-1.44.04-.06.1-.11.14-.17l.19-.25.25.1s.06.02.13.02c.02,0,.06,0,.11,0,.06,0,.1,0,.17,0,.08,0,.27,0,.48.08.02-.02.04-.04.06-.04.37-.99,1.09-1.74,1.82-2.46.31-.34.64-.66.93-1.02l.06-.04.06-.04c.15-.09.29-.15.46-.22.38-.13.54-.2.6-.37,0,0,.06-.23.25-.34.23-.11.36.1.36.1.17-.06.33-.11.48-.15.12-.04.29-.09.38-.15l.17-.15.21.06c.17.04.32.06.57.05.13,0,.25-.02.38-.03.15,0,.29,0,.4,0,.38,0,.9.03,1.35.26l.19.12v.21c0,.11.09.17.22.31.21.21.47.46.39.96-.07,1.32-1.08,2.22-2.02,3.01-.08.11-.19.19-.29.26l-.1.11h-.15s-.06,0-.1,0c-.08.02-.21.02-.27.04l-.06.27-.25.03c-.27.02-.52.24-.79.45-.27.21-.62.49-1.11.56t0,.04c-.04.08-.1.17-.14.23,0,0-.1.23-.29.23-.06.02-.42-.14-.42-.14l-.17-.02c-.29.21-.69.28-1,.33-.48.09-.67.13-.75.3.02.13.02.23.03.31,0,.02,0,.04,0,.08.11.19.41.71,1.75.69.19,0,.42-.03.67-.05.4-.07.82-.24,1.25-.44.21-.11.44-.17.69-.26h.02s.02,0,.02,0c.29-.07.52-.13.82-.18.15-.04.29-.07.46-.11.04-.04.1-.08.15-.15.04-.08.12-.15.23-.21l.19-.15.46.18s.08-.11.17-.23c.1-.13.27-.34.52-.47,0,0,.29-.13.38-.07.11.06.17.27.17.27.26.67.21,1.34.15,1.99l-.02.17-.17.09c-2.27,1.42-4.84,2.18-7.36,2.26h-.04s-.04,0-.04,0c-.88-.2-1.71-.69-2.18-1.38ZM90.97,13.78c.23-.09.48-.2.67-.32.4-.17.81-.35,1.23-.44.33-.34.77-.7,1.4-.77.21-.21.44-.4.66-.55.27-.17.46-.32.58-.45-.19-.04-.4-.04-.59-.04-1.41.02-2.67,1.11-3.77,2.17-.04.15-.12.28-.18.4Z"/>
        <path class="cls-11" d="M98.43,18.84c-.11-.4-.1-.84.09-1.16-.03-.32,0-.74.22-1.05.06-.46.14-.88.21-1.35.2-1.22.37-2.48.33-3.66v-.17s.06-.1.06-.1c.08-.11.08-.27.08-.53,0-.04,0-.11,0-.15v-.21s.23-.13.23-.13c.17-.09.33-.21.5-.34.33-.3.75-.58,1.27-.58.11,0,.23,0,.36.04l.25.06.07.21c.07.33.07.67.03.94.19-.19.33-.47.5-.74.02-.04.06-.08.08-.15l.12-.17h.25c.25,0,.44-.13.71-.31.33-.21.67-.45,1.13-.46.04,0,.08,0,.12,0,.33-.17.67-.26,1.03-.27.5,0,.97.22,1.25.63v.02l.02.02c.19.44.12.94.06,1.32-.02.02-.02.04-.02.08l-.08.32-.29.03c-.11,0-.23.09-.38.21l-.15.13-.15-.02c-.13-.02-.27-.04-.42-.04-1.68.02-2.96,1.68-3.95,3.33h-.02c-.12.25-.2.46-.14.63l.09.19-.1.19s-.04.08-.06.08c-.04.08-.1.19-.16.3-.06.25-.1.5-.12.74-.07.8-.19,1.62-.73,2.32l-.06.08-.1.04c-.25.15-.54.3-.81.47l-.15.09-.15-.02c-.46-.08-.85-.43-1.02-.89Z"/>
        <path class="cls-11" d="M114.02,19.65s-.02,0-.04.02c0,0-.19.09-.27.02-.11-.04-.17-.27-.17-.27-.82-1.88-.26-3.71.35-5.48.22-.8.46-1.52.6-2.21-.15.06-.31.15-.52.17l-.1.02-.13-.08c-.72-.47-.81-1.29-.86-1.75l-.02-.21.17-.15c.56-.43,1.19-.67,1.84-.7.15-.11.23-.38.33-.78.04-.19.1-.34.16-.53.14-.4.33-.74.51-1.06.16-.42.37-.76.49-1.16l.08-.32.34.02c.4.02.82.12,1.33.32l.21.08.04.23c.2.75-.11,1.41-.37,2.02-.02.02-.04.04-.04.06.21-.05.42-.07.63-.07.4,0,.74.07,1.03.24.34.23.53.6.6,1.02l.02.19-.1.13c-.6.81-1.52,1.09-2.31,1.35-.27.09-.52.15-.77.26-.63,1.79-1.12,3.79-1.56,6.11,0,0,.02,0,.02.02.06.02.11.06.17.1.23-.07.44-.11.69-.11.46,0,.88.09,1.29.34,0,0,.17.12.21.21.02.08-.04.27-.04.27-.22.65-.7,1.16-1.37,1.49-.48.26-1.13.43-1.84.51,0,0-.25.02-.29,0-.11-.08-.15-.27-.15-.27-.02-.04-.06-.06-.13-.06Z"/>
        <path class="cls-11" d="M120.1,18.29c.04-.48.22-.97.38-1.45q.04-.15.1-.27l-.11-.19.06-.36c.12-.59.26-1.18.4-1.75.26-1.14.52-2.32.67-3.47l.02-.06.02-.06s.04-.08.04-.1l-.11-.21.19-.21c.04-.06.1-.13.14-.19-.04-.19-.07-.38-.09-.56v-.11s.04-.11.04-.11c.35-.84.5-1.73.66-2.65.2-1.05.39-2.15.88-3.16l.06-.15.17-.07c.17-.07.4-.17.63-.18.25,0,.48.1.63.29l.11.12v.15c0,.36.03.63.1.9l.02.11-.04.11c-.04.13-.08.23-.12.34-.04.06-.06.15-.1.21,0,.15.05.36.09.57l.02.08v.1c-.06.23-.14.44-.22.63-.08.21-.16.4-.16.57v.02c-.05,1.18-.29,2.29-.52,3.41.25-.28.54-.53.85-.81l.02-.02.02-.02c.06-.04.15-.09.21-.13.23-.15.44-.28.52-.45l.12-.23h.23c.21,0,.4-.05.63-.09.25-.05.52-.11.82-.12.21,0,.38.02.57.08l.11.04.08.08c.06.08.21.12.36.16.21.08.49.16.7.37l.06.06.04.08c.07.19.07.34.07.48,0,.08,0,.17.02.21l.02.02c.15.44.33.94.42,1.49l.02.12-.16.34.15.27v.11c.03.84-.15,1.66-.32,2.46-.12.63-.26,1.2-.29,1.81.07.71-.04,1.74-.6,2.38-.31.36-.73.56-1.19.56-.08,0-.17-.02-.25-.02l-.25-.04-.09-.25c-.46-1.44-.12-2.83.22-4.18.18-.72.34-1.39.39-2.08-.02-.13-.02-.27-.05-.42-.03-.34-.05-.67-.16-.94-.17-.21-.47-.33-.78-.33-.04,0-.08,0-.13,0-.71.37-1.23,1-1.78,1.66-.12.17-.27.32-.39.47-.06.08-.1.17-.14.28-.1.23-.2.5-.45.7-.06.13-.1.25-.16.38-.14.32-.26.63-.39.95-.32.95-.54,1.94-.76,2.91l-.02.13-.1.09c-.35.32-.71.55-1.04.79,0,0-.21.13-.27.11-.08,0-.25-.16-.25-.16-.43-.42-.6-.94-.57-1.57Z"/>
        <path class="cls-11" d="M139.57,19.1c-.19-.37-.37-.67-.58-.98l-.06-.08-.02-.08c-.07-.38-.03-.65.05-1.01-.06.02-.13.04-.19.07-1.45,1.59-2.8,2.43-4.13,2.45-.52,0-.99-.09-1.47-.34l-.13-.08-.09-.25c-.41-1.04-.87-2.15-.9-3.29v-.08s.04-.08.04-.08c.26-.61.45-1.22.65-1.79.08-.36.16-.72.26-1.01,0,0,.06-.15.12-.17.06-.04.27-.09.27-.09.02-.04.04-.08.04-.13,0-.02.02-.02.02-.04,0,0-.02-.15-.15-.21.1-.15.25-.26.25-.26.12-.08.27-.13.38-.17,0-.04.02-.11.04-.17v-.06l.31-.4h.13c.04-.11.08-.19.12-.25.12-.13.29-.24.44-.34.21-.17.25-.21.25-.3,0,0-.02-.21.02-.31.12-.13.44-.09.44-.09l.02-.11.29-.11.02-.02c.17-.09.23-.13.25-.13,0,0,.17-.28.29-.3.21.17.38.12.38.12.04-.02.23-.17.29-.32l.1-.21h.27s.06,0,.1,0c.08-.02.17-.02.25-.02.04,0,.13,0,.21.02l.12-.02.1-.11h.21c.19,0,.42,0,.65.09.17-.07.38-.11.59-.11.59,0,1.18.21,1.5.59.15.21.26.42.3.6.42.08.7.43.93.7.11.12.19.19.28.25,0,0,.15.1.17.19.02.08-.04.23-.04.23-.18.55-.38,1.1-.59,1.58-.32,1.01-.71,2.07-.93,3.12l.06.06c0-.06.06-.13.08-.17,0,0,.29-.19.31-.42.15,0,.21.12.21.12.02.02.04.02.06.04,0,0,.19-.13.36-.15.19.14.3.77.3.77.24.33.18.65.14.9-.02.13-.02.23-.02.32l.02.23-.19.11c-.31.17-.54.51-.75.87-.43.57-.91,1.25-1.91,1.37h-.27s-.13-.21-.13-.21c-.06-.1-.11-.19-.17-.31ZM134.95,16.9s.04.1.07.15c1.21-.6,2.04-1.29,2.64-1.99.49-.85,1.24-1.59,1.88-2.12.08-.19.16-.4.25-.51.16-.4.3-.82.45-1.16-.17-.1-.28-.25-.36-.35-.11-.13-.19-.23-.28-.23h-.02v-.02c-.11-.02-.19-.06-.27-.1-.02,0-.06-.02-.11-.02h-.08s-.06,0-.08,0c-.44,0-.86.29-1.19.6l-.23.21-.31-.04c-.4.24-.69.6-.81,1l-.04.15-.15.04c-.79.47-1.03,1.42-1.27,2.33l-.04.23-.29.23c-.02.21-.08.32-.14.51-.06.25-.12.42-.1.59.27.12.4.33.49.5Z"/>
        <path class="cls-11" d="M145.52,19.24s-.02,0-.04.02c0,0-.19.09-.27.02-.11-.04-.17-.27-.17-.27-.82-1.88-.26-3.71.35-5.48.22-.8.46-1.52.6-2.21-.15.06-.31.15-.52.17l-.1.02-.13-.08c-.72-.47-.82-1.29-.86-1.75l-.02-.21.17-.15c.56-.43,1.19-.67,1.84-.7.14-.11.23-.38.33-.78.04-.19.1-.34.16-.53.14-.4.33-.74.51-1.06.16-.42.37-.76.49-1.16l.08-.32.34.02c.4.02.82.12,1.33.32l.21.08.04.23c.2.75-.11,1.41-.37,2.02-.02.02-.04.04-.04.06.21-.05.42-.07.63-.07.4,0,.74.08,1.03.24.34.23.53.6.6,1.02l.02.19-.1.13c-.6.81-1.52,1.09-2.31,1.35-.27.09-.52.15-.77.26-.63,1.79-1.13,3.79-1.56,6.11,0,0,.02,0,.02.02.06.02.11.06.17.1.23-.07.44-.11.69-.11.46,0,.88.09,1.29.34,0,0,.17.12.21.21.02.08-.04.27-.04.27-.22.65-.7,1.16-1.37,1.49-.48.26-1.13.43-1.84.51,0,0-.25.02-.29,0-.11-.08-.15-.27-.15-.27-.02-.04-.06-.06-.13-.06Z"/>
        <path class="cls-11" d="M165.56,19.33c-.13,0-.25-.02-.38-.02h-.04s-.38.03-.46-.06c.1-.23.02-.4.02-.4h-.02c-.13-.1-.3-.27-.36-.52l-.02-.08.04-.1c.12-.49.2-.95.23-1.41-.06.04-.08.11-.15.15-.29.26-.58.47-.75.77l-.06.12-.1.07c-.25.15-.54.32-.83.51-.73.51-1.54,1.05-2.51,1.06-.31,0-.65-.05-.9-.16l-.02-.02h-.04c-.25-.1-.44-.29-.61-.47-.06-.04-.11-.1-.15-.14l-.06-.06-.02-.13c-.73-2.93-.16-5.98.54-8.87l.02-.11.1-.06c.17-.13.25-.34.33-.57.06-.17.14-.32.25-.47l.1-.15.17-.04c.11,0,.19-.02.29-.02.74,0,1.31.51,1.59.99l.13.21-.12.15c-.08.15-.1.36-.12.57-.02.1-.02.23-.04.34l-.02.02-.02.06c-.06.11-.14.23-.21.34-.02.08-.08.17-.12.23,0,.02,0,.12.02.19.02.13.05.33-.03.57-.08.21-.19.32-.29.42-.02.02-.04.04-.04.06-.08.17-.1.38-.12.65,0,.17-.02.34-.04.48-.02.23-.04.48-.08.69-.04.34-.08.65-.07.97v.06c-.08.48.01,1.05.12,1.55,2.69-1.46,4.58-4.34,5-7.71l.02-.17.19-.11c.21-.13.46-.2.67-.2.46,0,.95.22,1.33.57l.11.1.02.12c.16,1.01-.14,1.96-.42,2.9-.14.55-.28,1.03-.34,1.6-.12.63-.19,1.3-.27,1.94v.1c-.01.4.03.84.08,1.28.05.55.12,1.07.06,1.64l-.02.17-.12.08c-.35.28-.71.32-.98.33-.17,0-.34-.02-.46-.04Z"/>
        <path class="cls-11" d="M170.32,19.02c-.3-.27-.45-.67-.41-1.02v-.04c.28-1.39.59-2.8.85-4.11.4-1.71.79-3.52,1.05-5.12,0,0,.06-.34.08-.44.15-.09.42,0,.42,0,.02,0,.02-.02.02-.02.06-.04.12-.08.19-.13l.15-.11.19.06s.11.04.15.06c.32.08.74.2.95.66l.09.12-.06.17c-.24.57-.34,1.16-.42,1.79.1-.27.27-.55.58-.74.18-.49.51-.85.87-1.15.19-.19.37-.36.52-.55l.08-.11.1-.04c.21-.04.4-.11.61-.18.4-.15.81-.33,1.32-.35h.08s.11.06.11.06c.23.12.51.2.78.28.51.14,1.12.34,1.54.88l.06.08.02.08c.3,1.87.4,3.35.31,4.76-.1,1.79-.52,3.28-1.24,4.64l-.08.17-.4.11c-.15.02-.31.03-.44.03h-.02c-.42-.02-.57-.29-.68-.47-.02-.02-.06-.06-.08-.08,0,0-.17-.19-.36-.21-.02-.1.02-.25.02-.25.1-.36.18-.69.26-1.01.38-1.58.76-3.03.63-4.61-.05-.44-.24-.9-.44-1.36-.11-.17-.26-.37-.47-.46-.27,0-.54.15-.75.39-.25.3-.45.64-.68,1.02-.14.3-.35.66-.62,1.02-.46.55-.8,1.25-1.21,1.86-.04.08-.08.17-.14.23l-.08.13-.12.02s-.04.02-.04.02c-.35.57-.53,1.18-.73,1.84-.18.71-.42,1.47-.88,2.13l-.04.06-.06.04c-.19.15-.4.24-.65.24-.34,0-.63-.16-.91-.41Z"/>
        <path class="cls-11" d="M183.45,19.08c.08-.13.02-.27.02-.27-.11-.08-.17-.17-.21-.25-.57-.58-.25-1.34-.07-1.8v-.02s-.04-.1-.09-.19c-.04-.1-.11-.23-.13-.4v-.06s0-.08,0-.08c.1-.49.24-.97.38-1.43s.26-.88.34-1.35c.08-.4.14-.82.19-1.24.04-.42.09-.84.17-1.28.06-.21.14-.4.2-.55.14-.3.21-.44.14-.57,0,0-.09-.15-.09-.21.02-.06.12-.23.12-.23.21-.32.54-.49.94-.5.46,0,.97.26,1.29.49l.17.1.02.21c.12,1.51-.19,2.98-.51,4.39-.28,1.3-.53,2.55-.5,3.85v.06l-.02.04c-.16.67-.63,1.23-1.37,1.59l-.08.04h-.1s-.02,0-.04,0c-.04.02-.11.02-.17.02h-.11s-.46-.16-.51-.37ZM185.28,6.52l-.17-.04-.09-.12c-.51-.81-.67-1.76-.45-2.56l.06-.25.23-.04c.36-.11.56-.41.64-.6,0,0,.1-.23.23-.28.1-.04.4.12.4.12.17.1.36.2.49.2.02,0,.04,0,.06,0l.25-.09.17.19c.17.17.3.35.32.56l.02.04.17.12.04.17c.11.63-.09,1.37-.52,1.92-.37.45-.87.7-1.42.71-.15,0-.29-.02-.44-.06Z"/>
        <path class="cls-11" d="M189.85,18.66s-.02,0-.04.02c0,0-.19.09-.27.02-.11-.04-.17-.27-.17-.27-.82-1.88-.26-3.71.35-5.48.22-.8.46-1.52.6-2.21-.15.06-.31.15-.52.17l-.1.02-.13-.08c-.72-.47-.81-1.29-.86-1.75l-.02-.21.17-.15c.56-.43,1.19-.67,1.84-.7.15-.11.23-.38.33-.78.04-.19.1-.34.16-.53.14-.4.33-.74.51-1.06.16-.42.37-.76.49-1.16l.08-.32.34.02c.4.02.82.12,1.33.32l.21.08.04.23c.2.75-.11,1.41-.37,2.02-.02.02-.04.04-.04.06.21-.04.42-.07.63-.07.4,0,.74.07,1.03.24.34.23.53.6.6,1.02l.02.19-.1.13c-.6.81-1.52,1.09-2.31,1.35-.27.09-.52.15-.77.26-.63,1.79-1.13,3.79-1.56,6.11,0,0,.02,0,.02.02.06.02.11.06.17.1.23-.07.44-.11.69-.11.46,0,.88.09,1.29.34,0,0,.17.12.21.21.02.08-.04.27-.04.27-.22.65-.7,1.16-1.37,1.49-.48.26-1.13.43-1.84.51,0,0-.25.02-.29,0-.11-.08-.15-.27-.15-.27-.02-.04-.06-.06-.13-.06Z"/>
        <path class="cls-11" d="M195.33,18.57s-.11-.1-.11-.14c-.02-.06.02-.23.02-.23.06-.19.04-.42.03-.65-.02-.17-.03-.4,0-.63l.02-.11.06-.08c.08-.13.16-.3.2-.46.12-.25.25-.51.41-.74.25-.25.54-.41.83-.41.23-.17.48-.24.75-.24.29,0,.65.08,1.03.28l.19.1.04.17c.14.82-.23,1.45-.54,1.98-.14.23-.27.46-.37.68l-.06.19-.19.04c-.1.04-.27.13-.46.21-.33.19-.67.41-1.07.41-.32,0-.59-.12-.8-.37Z"/>
        <path class="cls-11" d="M201.17,18.49s-.11-.1-.11-.14c-.02-.06.02-.23.02-.23.06-.19.04-.42.03-.65-.02-.17-.03-.4,0-.63l.02-.11.06-.08c.08-.13.16-.3.2-.46.12-.25.25-.51.41-.74.25-.25.54-.41.83-.41.23-.17.48-.24.75-.24.29,0,.65.08,1.03.28l.19.1.04.17c.14.82-.23,1.45-.54,1.98-.14.23-.27.47-.37.68l-.06.19-.19.04c-.1.04-.27.13-.46.21-.33.19-.67.41-1.07.41-.32,0-.59-.12-.8-.37Z"/>
        <path class="cls-11" d="M207,18.42s-.11-.1-.11-.14c-.02-.06.02-.23.02-.23.06-.19.04-.42.03-.65-.02-.17-.03-.4,0-.63l.02-.11.06-.08c.08-.13.16-.3.2-.46.12-.25.25-.51.41-.74.25-.26.54-.41.83-.41.23-.17.48-.24.75-.24.29,0,.65.08,1.03.28l.19.1.04.17c.14.82-.23,1.45-.54,1.98-.14.23-.27.47-.37.68l-.06.19-.19.04c-.11.04-.27.13-.46.22-.33.19-.67.41-1.07.41-.31,0-.59-.12-.8-.37Z"/>
      </g>
      <path class="cls-6" d="M114.84,34.83c.05-.76.03-1.65-.53-2.06-.45-.33-14.08.09-20.92.34-16.6.6-33.2-.1-49.78-.1-.31,15-.6,12.19-1.92,27.17,8.25,1.87,16.75.85,25.23,1.02,15.6.32,31.52,1.38,47.09-.34,1.68-7.06.28-16.88.83-26.03Z"/>
      <path class="cls-8" d="M74.53,83c-1,.93-1.96,1.95-2.5,3.2-.52,1.2-.61,2.54-.69,3.84-.13,2.08-.27,4.16-.4,6.24-.18,2.86-.35,5.84.7,8.51,1.49,3.79,5.18,6.3,8.98,7.82,7.28,2.9,15.35,2.93,23.2,2.92,15.01-.02,30.02-.04,45.02-.06,7.78-.01,16-.14,22.63-4.19,3.66-2.23,6.75-5.96,6.77-10.23.01-2.19-.78-4.3-1.64-6.3-2.08-4.81-4.95-9.64-9.62-12.04-2.95-1.52-6.34-1.92-9.64-2.27-12.62-1.31-25.29-2.12-37.95-2.93-4.77-.31-9.55.52-14.32.15-3.13-.24-24.92.15-30.53,5.34Z"/>
      <g>
        <path class="cls-12" d="M86.4,89.37c.23.44.43.92.4,1.4-.1,1.38-.58,3.01-.4,4.55.04.48.31.94.34,1.44.64-.29,1.33-.96,1.8-1.62,2.08-1.43,3.53-3.57,5.52-4.87,2.39.65.66,1.21-.37,2.53-.04.06-.02.24-.08.3-.73.77-1.55,1.14-2.04,1.93-.16.02-.18-.08-.32-.06-.18-.02-.04.26-.07.38-1.39,1.18-2.71,1.98-3.88,3.35.68.23,1.39.84,2.18,1.11.16.06.08.18.24.24.6-.31.56.05.72.11,2.13.77,4.25,1.75,5.54,3.19-.21.76-1.15.9-1.6.24-.08,0-.06.1-.08.16-.18-.14-.4-.22-.57-.37-.24-.08-.18,0-.48,0-.65-.61-1.43-.64-2-1.35-.28.16-.56-.13-.8-.05-.2-.32-.48-.09-1.04-.23-.76-.19-1.68-1.42-2.62-1.11.61,1.01.31,2.58.05,3.62-.16.16-.14-.04-.32-.08-.12.16.02.1,0,.3-.4,0-.38-.08-.62.09-1.63-.58-.07-3.94-1.46-4.46-.09-.64-.47-.99-.36-1.64.24-.12.42-.42.67-.53.02-1.9.13-3.62.15-5.5.01-.6-.26-1.3.3-1.74-.15-.64.15-.86.14-1.6.4.15.64.25,1.04.29Z"/>
        <path class="cls-12" d="M107.73,102.14c-1.9,1.29-3.91,2.11-6.81,2.25-1.45-.38-2.8-1.2-2.9-2.92-.04-.08-.12-.12-.22-.18.2-1.42-.81-.95-1.68-1.42,0-.7.31-1.06.52-1.49.52.13.62-.17,1.06.21.18,0,.16-.28.36-.26.14-1.46,1.39-2.44,2.05-3.59.38-.25,1-.25,1.11-.83.1.06.16.12.16.28.17-.48.97-.41,1.11-.67.94.23,1.66-.24,2.72.28.27.74.77.47.9,1.23.22,1.4-.89,2.31-1.62,3.14-.38.08-.58-.09-.67.35-.8.09-1.17,1.21-1.85,1.06-.08.16-.2.26-.23.46-.26-.26-.32-.02-.6-.25-.39.73-1.9.21-1.93,1.17.02-.12.15.48.15.5.45.87,1.78,1.14,3.09.96.6-.07,1.25-.48,1.93-.73.44-.15.96-.19,1.3-.3.1-.04.29-.4.39-.43.12-.04.3.18.4.14.6-.13.39-.67.77-.79.35.58.39,1.05.48,1.83ZM99.67,98.56c1.32-.04,1.57-.76,2.65-.92.25-.48.89-.83,1.25-.76.25-.64,1.31-.78,1.28-1.7-2.31-.75-3.65.83-4.87,2.26-.02.22-.39,1.01-.3,1.1Z"/>
        <path class="cls-12" d="M113.88,93.5c.3.06.3-.14.44-.03.26.02.22.32.58.23.35.84.46,1.94.78,2.83.41.45.57,1.03.52,1.75.45,1.05.13,2.24.96,3.05-.08,1.32.23,2.52-.19,3.74-.6,1.63-2.38,2.87-4.28,2.88-.38,0-.9-.33-1.56-.12-.28-.28-.86-.27-1.01-.69-.42.27-.3,0-.83-.53-.45-.42-.99-.51-.86-1.21-.08.06-.08.18-.24.16,0-.36.07-.84-.1-1.16.64-.31.8-.05,1.32-.24.24.18.1.38.37.46-.06.12-.18.3-.26.3-.06.38.57.71.89.99,2.15.49,3.48.12,4.85-1.2q.06-.32,0-.62c.9-1.69-.25-3.78-.46-4.96-.48.25-.63.77-.8,1.31-1.04.23-1.1,1.27-2.45,1.03-1-.19-1.57-.8-1.86-1.18-.16-.24-.13-.76-.33-1.08-.08-.12-.28-.12-.34-.22-.29-.55-.28-1.28-.45-1.91-.15-.58-.6-1.15-.62-1.75-.07-.96.12-1.86.05-2.6.54.05.8.21,1.24.2.39.9.75,2.05.86,2.97-.2,0-.14.12-.2.24.09.6.24,1.32.43,2,.19.6.26,1.54,1.36,1.64-.08-.08.35-.44.73-.55,1.42-1.26.81-2.01,1.36-3.4-.18-1.26-.26-1.6-.21-2.68.16.02.34.14.32.32Z"/>
        <path class="cls-12" d="M124.83,96.98c-.04-.4.21-.86-.06-1.78-.03-.8-.02-1.72.1-2.94-.14-.14-.23-.5-.17-.9.08-.34,0-.78.03-1.06.07-.6.17-.9.47-.91.41.33.5-.03.65.49.32-.36.64,1.23.2,1.38.42.13.22.24.22.24-.38.41.35.68-.05,1.06.06.06.14.12.22.14-.27.8.36,1.54-.15,2.2.2.18.05.6.27.78-.2,1.88.18,1.8.03,3.86.42.03-.03.78-.05.78.27.68-.03.6.03.92.02.2-.17.4.13.56,0,0,.24,1.32.22,1.6-.01.38-.15.5-.27.62-.04,0-.08.02-.1.02-.44-.05-.7-.07-1.14-.12-.26-.06-.54-.35-.61-.59-.04-.14.09-.52.09-.66.04-.04.04-.12.1-.16.1-.38.03-.46-.13-.92.31-2.44.1-3.16-.02-4.6Z"/>
        <path class="cls-12" d="M137.45,95.65c.31.74.43,2.04.34,2.92.25.88.61,2.05.54,2.99.3.4.4,1.28.08,1.64-.68.11-.97.53-1.5.24-.02-.36-.37-.52-.15-.88-.12,0-.16,0-.18-.08.1-.32.05-.42-.03-.62-.25.7-1.29,1.12-1.76,1.76-.08-.06-.18-.1-.3-.1-4.4,1.62-5.9-1.58-5.37-3.63.06-.16-.12-.12-.12-.24-.14-1.7,1.43-3.72,2.61-4.19-.07-.52,0-.4.11-.72.28.02.46.21.7.13,0-.14-.04-.22-.04-.36.23-.56,1.61.56,1.79-.52.46.07,1-.05,1.44.22-.09-1.16.13-1.1-.18-1.78.5-1.53,0-2.3.33-3.69.18-.2.82-.07.9-.37.68.31.59.83.64,1.83.03.58.08,1.32-.14,1.48.43,1.05.3,2.8.29,3.96ZM130.65,100.24c.5,1.25.24,1.68,1.47,2.02.36-.1,1.16.12,1.5-.08.14-.08.83-.81,1.02-.33.07-.6.99-.85,1.35-1.14-.11-.6.06-1.5-.25-2.22.48-.21.05-2.02-.13-2.54-.26.02-.94-.03-1.12-.08-2.01.73-3.34,1.88-3.83,3.65.34.04.05.66,0,.72Z"/>
        <path class="cls-12" d="M151.09,101.57c-1.9,1.29-3.91,2.11-6.81,2.25-1.45-.38-2.8-1.2-2.9-2.92-.04-.08-.12-.12-.22-.18.2-1.42-.81-.95-1.68-1.42,0-.7.31-1.06.52-1.49.52.13.62-.17,1.06.21.18,0,.16-.28.36-.26.14-1.46,1.39-2.44,2.05-3.59.38-.25,1-.25,1.11-.83.1.06.16.12.16.28.17-.48.98-.41,1.11-.67.94.23,1.66-.24,2.72.28.27.74.77.47.9,1.23.22,1.4-.89,2.31-1.62,3.14-.38.08-.58-.09-.68.35-.8.09-1.16,1.21-1.85,1.06-.08.16-.2.26-.23.46-.26-.26-.32-.02-.6-.25-.39.73-1.9.21-1.93,1.17.02-.12.15.48.15.5.45.87,1.78,1.14,3.09.96.6-.07,1.25-.48,1.93-.72.44-.15.96-.19,1.3-.3.1-.04.29-.4.4-.42.12-.04.3.18.4.14.6-.13.39-.67.77-.79.35.58.39,1.05.48,1.83ZM143.02,98c1.32-.04,1.57-.76,2.65-.91.25-.48.89-.83,1.25-.76.25-.64,1.31-.78,1.28-1.7-2.31-.75-3.65.83-4.87,2.27-.02.22-.39,1-.31,1.1Z"/>
        <path class="cls-12" d="M154.5,93.07c.2.08.5-.25.66.17-.02-.36.28-.08.3-.36.3,0,.54.03.68.17.65-.45,2.3.11,2.39,1.05,1.04.09.95.51,1.65.92-.04,1.94-.37,3.79,0,5.76.1-.14.16-.26.25-.4.24-.04.07.48.25.5.4.08.33-.54.33-.88.18.1.26.16.25.44.1-.16.16.02.24-.3.28-.26.16.1.18.3.24.02.27.62.39,1.07-.87.87-.46,1.95-1.89,2.23-.51-.59-.67-.87-1.24-1.38-.35-.62-.1-1.5-.47-2.27-.09.46-.46,1.35-.65,1.01-1,1.73-2.52,3.11-4.73,2.18-.71-1.07-1.49-2.02-1.92-3.4.15-1.02.08-1.82.12-2.88.18.04.22-.06.34-.11-.06-.18.09-.58-.09-.62.24-.26.3-.06.7-.13-.02-.14-.3-.12-.33-.42-.1-.28.32-.16.48-.19-.55-.85.46-.35.4-1.35.24.16.38-.03.34-.19.12-.28.5.07.51-.47.2.32.8-.05.85-.45ZM156.83,99.64c.17-.78.8-1.61,1.31-2.16.11-.86.16-1.34.23-2.24-.52.03-.85-.59-1.33-.68-.14-.02-.3-.16-.52-.13-.86.03-.82.11-1.47.7.02-.02-.1-.14-.18-.1-.42.25-.95.87-.9,1.49-.81.43-.83,2.03-.75,2.69-.12,0-.16.24-.28.24.19.58-.08,1.26.3,1.66.28-.22.81.85,1.15.84.87-.65,1.39-.62,2.43-2.31Z"/>
      </g>
      <path class="cls-1" d="M48.15,40.05c.48,1.29,1.13,2.76,2.46,3.12.81.22,1.66-.04,2.46-.3,1.26-.41,2.52-.82,3.79-1.23,2.09-.68,4.58-1.3,6.31.05.65.5,1.14,1.25,1.91,1.54.84.31,1.78-.02,2.54-.5s1.42-1.1,2.24-1.47c1.89-.84,4.07-.11,6.02.59s4.19,1.34,6.01.35c1.23-.67,2.14-2.03,3.53-2.14.65-.05,1.29.19,1.9.44,2.25.93,4.62,2.03,7.01,1.58.81-.15,1.58-.48,2.38-.67,1.05-.25,2.16-.27,3.22-.04,1.01.22,1.97.65,2.99.81,1.02.17,2.18,0,2.87-.76"/>
      <path class="cls-1" d="M49.27,51.41l1.85,1.11c.97.58,2.01,1.18,3.14,1.17,1.44-.02,2.64-1.02,3.91-1.69,1.99-1.06,4.28-1.38,6.53-1.56.39-.03.79-.06,1.17.06,1.16.38,1.46,1.9,2.4,2.7.8.68,1.96.73,2.99.56,2.51-.4,4.94-1.84,7.44-1.36.58.11,1.14.33,1.71.5,1.45.42,2.98.52,4.47.29"/>
      <path class="cls-10" d="M267.41,41.3c-.81-.22-1.66.04-2.46.3-1.26.41-2.52.82-3.79,1.23-2.09.68-4.58,1.3-6.31-.05-.65-.5-1.14-1.25-1.91-1.54-.84-.31-1.78.02-2.54.5s-1.42,1.1-2.24,1.47c-1.89.84-4.07.11-6.02-.59s-4.19-1.34-6.01-.35c-1.23.67-2.14,2.03-3.53,2.14-.65.05-1.29-.19-1.9-.44-2.25-.93-4.62-2.03-7.01-1.58-.81.15-1.58.48-2.38.67-1.05.25-2.16.27-3.22.04-1.01-.22-1.97-.65-2.99-.81s-2.18,0-2.87.76"/>
      <path class="cls-10" d="M214.37,48.49l1.85,1.11c.97.58,2.01,1.18,3.14,1.17,1.44-.02,2.64-.02,3.91-.69,1.99-1.06,4.28-1.38,6.53-1.56.39-.03.79-.06,1.17.06,1.16.38,2.46.9,3.4,1.7.8.68,1.96.73,2.99.56,2.51-.4,3.94-1.84,6.44-1.36.58.11,1.14-.67,1.71-.5,1.45.42,2.98.52,4.47.29"/>
      <path class="cls-10" d="M44.71,130.72c-.59-.22-1.21.04-1.79.3-.92.41-1.84.82-2.76,1.23-1.52.68-3.33,1.3-4.59-.05-.47-.5-.83-1.25-1.39-1.54-.61-.31-1.3.02-1.85.5s-1.03,1.1-1.63,1.47c-1.38.84-2.96.11-4.38-.59s-3.05-1.34-4.37-.35c-.89.67-1.56,2.03-2.57,2.14-.48.05-.94-.19-1.38-.44-1.64-.93-3.36-2.03-5.1-1.58-.59.15-1.15.48-1.73.67-.77.25-1.57.27-2.34.04-.73-.22-1.43-.65-2.17-.81s-1.59,0-2.09.76"/>
      <path class="cls-10" d="M6.11,137.91c.45.37.9.74,1.35,1.11.71.58,1.46,1.18,2.29,1.17,1.04-.02,1.92-.02,2.84-.69,1.45-1.06,3.12-1.38,4.75-1.56.28-.03.58-.06.85.06.85.38,1.79.9,2.47,1.7.58.68,1.42.73,2.17.56,1.83-.4,2.87-1.84,4.69-1.36.42.11.83-.67,1.25-.5,1.05.42,2.17.52,3.25.29"/>
      <path class="cls-6" d="M267.53,70.19c.05-.76.03-1.65-.53-2.06-.45-.33-14.08.09-20.92.34-16.6.6-33.2-.1-49.78-.1-.31,15-.6,12.19-1.92,27.17,8.25,1.87,16.75.85,25.23,1.02,15.6.32,31.52,1.38,47.09-.34,1.68-7.06.28-16.88.83-26.03Z"/>
      <path class="cls-1" d="M200.84,75.41c.48,1.29,1.13,2.76,2.46,3.12.81.22,1.66-.04,2.46-.3,1.26-.41,2.52-.82,3.79-1.23,2.09-.68,4.58-1.3,6.31.05.65.5,1.14,1.25,1.91,1.54.84.31,1.78-.02,2.54-.5s1.42-1.1,2.24-1.47c1.89-.84,4.07-.11,6.02.59s4.19,1.34,6.01.35c1.23-.67,2.14-2.03,3.53-2.14.65-.05,1.29.19,1.9.44,2.25.93,4.62,2.03,7.01,1.58.81-.15,1.58-.48,2.38-.67,1.05-.25,2.16-.27,3.22-.04,1.01.22,1.97.65,2.99.81s2.18,0,2.87-.76"/>
      <path class="cls-1" d="M201.95,86.77l1.85,1.11c.97.58,2.01,1.18,3.14,1.17,1.44-.02,2.64-1.02,3.91-1.69,1.99-1.06,4.28-1.38,6.53-1.56.39-.03.79-.06,1.17.06,1.16.38,1.46,1.9,2.4,2.7.8.68,1.96.73,2.99.56,2.51-.4,4.94-1.84,7.44-1.36.58.11,1.14.33,1.71.5,1.45.42,2.98.52,4.47.29,1.04.51,2.16.41,3.21-.09.88-.42,1.58-1.17,2.49-1.53,1.26-.5,2.68-.19,3.96.26,1.28.45,2.55,1.03,3.9,1.05,1.04.02,2.08-.31,3.12-.2"/>
      <path class="cls-6" d="M135.39,135.03c.05-.76.03-1.65-.53-2.06-.45-.33-14.08.09-20.92.34-16.6.6-33.2-.1-49.78-.1-.31,15-.6,12.19-1.92,27.17,8.25,1.87,16.75.85,25.23,1.02,15.6.32,31.52,1.38,47.09-.34,1.68-7.06.28-16.88.83-26.03Z"/>
      <path class="cls-1" d="M68.7,140.25c.48,1.29,1.13,2.76,2.46,3.12.81.22,1.66-.04,2.46-.3,1.26-.41,2.52-.82,3.79-1.23,2.09-.68,4.58-1.3,6.31.05.65.5,1.14,1.25,1.91,1.54.84.31,1.78-.02,2.54-.5s1.42-1.1,2.24-1.47c1.89-.84,4.07-.11,6.02.59s4.19,1.34,6.01.35c1.23-.67,2.14-2.03,3.53-2.14.65-.05,1.29.19,1.9.44,2.25.93,4.62,2.03,7.01,1.58.81-.15,1.58-.48,2.38-.67,1.05-.25,2.16-.27,3.22-.04,1.01.22,1.97.65,2.99.81s2.18,0,2.87-.76"/>
      <path class="cls-1" d="M69.81,151.62c.62.37,1.24.74,1.85,1.11.97.58,2.01,1.18,3.14,1.17,1.44-.02,2.64-1.02,3.91-1.69,1.99-1.06,9.16.41,10.1,1.2.8.68,1.96.73,2.99.56"/>
      <path class="cls-4" d="M86.7,73.91c.08-.92-1.82-3.4-3.68-8.25"/>
      <path class="cls-4" d="M99.35,129.11c.43-.81-.35-3.84-.16-9.03"/>
      <path class="cls-4" d="M21.22,126.53c.43-.81-.35-3.84-.16-9.03"/>
      <path class="cls-4" d="M230.28,63.98c.72-.58,1.2-3.67,3.41-8.37"/>
      <path class="cls-4" d="M180.09,87.63c.89.25,3.68-1.16,8.79-2.09"/>
      <path class="cls-4" d="M129.36,40.51c-.89-.24-3.67,1.2-8.77,2.19"/>
      <path class="cls-4" d="M233.44,110.96c.08-.92-1.82-3.4-3.68-8.25"/>
      <path class="cls-4" d="M149.32,147.87c-.79-.47-3.85.17-9.03-.26"/>
      <path class="cls-4" d="M191.69,154.49c-.41-.82-3.34-1.94-7.47-5.09"/>
      <path class="cls-7" d="M134.91,36.68c-.48.39-.46,1.11-.39,1.73,0,.08.02.17.08.23.06.06.15.07.23.08.46.04.95-.05,1.3-.34s.51-.84.3-1.24c-.3-.57-1.09-.6-1.73-.53"/>
      <path class="cls-7" d="M134.85,44.5l-.26.12c-.2.3-.41.61-.46.97s.11.77.45.89c.28.1.61-.03.82-.25s.33-.51.44-.79c.06-.16.13-.32.14-.49.02-.32-.17-.65-.46-.79s-.67-.07-.9.15"/>
      <path class="cls-2" d="M142.19,38.33c.79.3,1.67-.05,2.37-.52.7-.47,1.32-1.07,2.1-1.39.95-.38,2.02-.28,3.01-.02,1.16.31,2.26.83,3.22,1.54.29-.76,1.25-1.04,2.06-.95s1.57.46,2.38.54c1.42.16,3.08-.48,4.18.44.3.25.55.61.93.69.35.07.69-.12,1-.3,2.74-1.57,4.9-1.65,8.06-1.48,1.13.06,2.24.29,3.36.41,3.67.41,7.36-.24,10.99-.9"/>
      <path class="cls-2" d="M142.42,45.72c2.25-.48,4.68-.09,6.67,1.08.1-1.25,1.4-2.12,2.65-2.24,1.25-.12,2.48.32,3.68.66,3.58,1,7.39,1.2,11.05.57,1.76-.3,3.67-.78,5.27,0,.42.21.8.49,1.25.64.63.21,1.31.13,1.96.04,1.91-.26,3.81-.59,5.7-.98"/>
      <path class="cls-9" d="M198.96,160.1c-.48.39-.46,1.11-.39,1.73,0,.08.02.17.08.23.06.06.15.07.23.08.46.04.95-.05,1.3-.34.35-.3.51-.84.3-1.24-.3-.57-1.09-.6-1.73-.53"/>
      <path class="cls-9" d="M198.9,167.92l-.26.12c-.2.3-.41.61-.46.97s.11.77.45.89c.28.1.61-.03.82-.25s.33-.51.44-.79c.06-.16.13-.32.14-.49.02-.32-.17-.65-.46-.79s-.67-.07-.9.15"/>
      <path class="cls-10" d="M206.24,161.75c.79.3,1.67-.05,2.37-.52.7-.47,1.32-1.07,2.1-1.39.95-.38,2.02-.28,3.01-.02,1.16.31,2.26.83,3.22,1.54.29-.76,1.25-1.04,2.06-.95s1.57.46,2.38.54c1.42.16,3.08-.48,4.18.44.3.25.55.61.93.69.35.07.69-.12,1-.3,2.74-1.57,4.9-1.65,8.06-1.48"/>
      <path class="cls-10" d="M206.47,169.14c2.25-.48,4.68-.09,6.67,1.08.1-1.25,1.4-2.12,2.65-2.24s2.48.32,3.68.66c3.58,1,7.39,1.2,11.05.57"/>
      <path class="cls-2" d="M218.97,116.73c.85.35,1.86.07,2.67-.35.81-.42,1.55-.98,2.45-1.24,1.08-.31,2.27-.14,3.34.18,1.26.39,2.43.99,3.44,1.76.39-.74,1.48-.95,2.37-.8s1.7.56,2.59.71c1.57.25,3.45-.26,4.59.72.31.27.55.65.97.75.38.1.78-.07,1.13-.23,3.17-1.38,6.71-2.3,10.19-1.91,1.24.14,2.45.44,3.68.64"/>
      <path class="cls-2" d="M218.56,123.29c2.52-.47,5.2-.05,7.37,1.13.15-1.25,1.61-2.11,3.01-2.22,1.39-.11,2.74.34,4.07.69,3.95,1.03,8.17,1.26,12.26.65,1.97-.29,4.1-.75,5.86.05.46.21.88.5,1.37.66.69.22,1.45.14,2.18.06"/>
      <path class="cls-10" d="M197.28,146.18c.85.35,1.86.07,2.67-.35.81-.42,1.55-.98,2.45-1.24,1.08-.31,2.27-.14,3.34.18,1.26.39,2.43.99,3.44,1.76.39-.74,1.48-.95,2.37-.8s1.7.56,2.59.71c1.57.25,3.45-.26,4.59.72.31.27.55.65.97.75.38.1.78-.07,1.13-.23,3.17-1.38,6.71-2.3,10.19-1.91,1.24.14,2.45.44,3.68.64"/>
      <path class="cls-10" d="M196.86,152.74c2.52-.47,5.2-.05,7.37,1.13.15-1.25,1.61-2.11,3.01-2.22s2.74.34,4.07.69c3.95,1.03,8.17,1.26,12.26.65,1.97-.29,4.1-.75,5.86.05.46.21.88.5,1.37.66.69.22,3.45.14,4.18.06"/>
      <path class="cls-2" d="M156.36,143.85c.69.98,1.61,2.08,2.81,1.98.77-.07,1.38-.62,2.02-1.06s1.49-.77,2.15-.37c.17.1.31.25.49.33.56.26,1.2-.19,1.58-.68s.73-1.08,1.32-1.26c1.04-.31,1.88.83,2.85,1.33.98.51,2.17.34,3.27.2,2.14-.27,4.31-.35,6.46-.25"/>
      <path class="cls-2" d="M219.37,129.45c.69.98,1.61,2.08,2.81,1.98.77-.07,1.38-.62,2.02-1.06s1.49-.77,2.15-.37c.17.1.31.25.49.33.56.26,1.2-.19,1.58-.68s.73-1.08,1.32-1.26c1.04-.31,1.88.83,2.85,1.33.98.51,2.17.34,3.27.2,2.14-.27,4.31-.35,6.46-.25"/>
      <path class="cls-2" d="M156.14,152.14c.76-.89,1.77-1.57,2.88-1.93.79-.26,1.71-.35,2.41.1.79.5,1.25,1.62,2.19,1.65.68.02,1.19-.56,1.69-1.02.48-.45,1.05-.85,1.71-.96s1.39.09,1.77.64c.25.35.32.82.63,1.12.34.34.89.39,1.36.28s.9-.36,1.34-.55c.99-.42,2.07-.56,3.14-.69"/>
      <path class="cls-1" d="M121.27,56.98c.44.28.79.69,1.16,1.07,3.03,3.14,13.46,8.87,29.1,12.61s34.05,4.54,38.1,3.53"/>
      <path class="cls-3" d="M123.9,63.49c-.11-1.47-1.72-4.89-1.95-5.37-.32-.66-.87-1.21-1.53-1.51,1.01.26,1.94.83,2.96,1.06,1.98.44,3.34-.69,3.86-1.04"/>
      <path class="cls-6" d="M50.03,86.6c.03-.76.02-1.65-.36-2.06-.31-.33-9.53.09-14.16.34-11.24.6-22.48-.1-33.71-.1-.21,15-.4,12.19-1.3,27.17,5.59,1.87,11.34.85,17.08,1.02,10.56.32,21.34,1.38,31.88-.34,1.13-7.06.19-16.88.56-26.03Z"/>
      <path class="cls-1" d="M4.87,91.82c.32,1.29.76,2.76,1.66,3.12.55.22,1.12-.04,1.66-.3.85-.41,1.71-.82,2.56-1.23,1.41-.68,3.1-1.3,4.27.05.44.5.77,1.25,1.29,1.54.57.31,1.21-.02,1.72-.5s.96-1.1,1.52-1.47c1.28-.84,2.76-.11,4.08.59s2.84,1.34,4.07.35c.83-.67,1.45-2.03,2.39-2.14.44-.05.87.19,1.28.44,1.52.93,3.13,2.03,4.75,1.58.55-.15,1.07-.48,1.61-.67.71-.25,1.46-.27,2.18-.04.68.22,1.33.65,2.02.81s1.48,0,1.94-.76"/>
      <path class="cls-1" d="M5.63,103.18l1.25,1.11c.66.58,1.36,1.18,2.13,1.17.97-.02,1.79-1.02,2.64-1.69,1.35-1.06,2.9-1.38,4.42-1.56.27-.03.54-.06.79.06.79.38.99,1.9,1.62,2.7.54.68,1.32.73,2.02.56,1.7-.4,3.35-1.84,5.04-1.36.4.11,3.77,1.33,4.16,1.5.98.42,6.02-1.48,7.03-1.71"/>
      <path class="cls-5" d="M64.75,99.91c-.81-.44-3.85.32-9.03.09"/>
    </g>
  </g>
</svg>