<?xml version="1.0" encoding="UTF-8"?>
<svg id="Layer_2" data-name="Layer 2" xmlns="http://www.w3.org/2000/svg" xmlns:xlink="http://www.w3.org/1999/xlink" viewBox="0 0 237.78 171.51">
  <defs>
    <style>
      .cls-1 {
        fill: url(#linear-gradient-2);
      }

      .cls-2 {
        mask: url(#mask-1);
      }

      .cls-3 {
        filter: url(#luminosity-invert-3);
      }

      .cls-4 {
        fill: #823eed;
      }

      .cls-5 {
        mask: url(#mask);
      }

      .cls-6 {
        fill: #c1a584;
        stroke: #92672b;
      }

      .cls-6, .cls-7, .cls-8 {
        stroke-width: 3px;
      }

      .cls-6, .cls-7, .cls-8, .cls-9 {
        stroke-linecap: round;
        stroke-linejoin: round;
      }

      .cls-7 {
        fill: #f8e7b8;
        stroke: #b38c3e;
      }

      .cls-10 {
        fill: url(#linear-gradient-4);
      }

      .cls-11 {
        mask: url(#mask-2);
      }

      .cls-12 {
        fill: url(#linear-gradient-3);
      }

      .cls-13 {
        filter: url(#luminosity-invert-4);
      }

      .cls-14 {
        fill: #bbf0f9;
        stroke: #0093bc;
      }

      .cls-14, .cls-15, .cls-16, .cls-17, .cls-18 {
        stroke-miterlimit: 10;
      }

      .cls-14, .cls-16 {
        stroke-width: 2px;
      }

      .cls-15 {
        fill: #fff;
      }

      .cls-15, .cls-18 {
        stroke: #4c4c4c;
      }

      .cls-8 {
        fill: #f3b572;
        stroke: #a66d29;
      }

      .cls-16 {
        fill: #ffddb0;
        stroke: #e07500;
      }

      .cls-9 {
        stroke: #b3b3b3;
      }

      .cls-9, .cls-17, .cls-18 {
        fill: none;
      }

      .cls-17 {
        stroke: #949494;
      }

      .cls-19 {
        filter: url(#luminosity-invert-2);
      }

      .cls-20 {
        filter: url(#luminosity-invert);
      }

      .cls-21 {
        fill: url(#linear-gradient);
      }

      .cls-22 {
        mask: url(#mask-3);
      }
    </style>
    <filter id="luminosity-invert" x="130.68" y="86.64" width="52.48" height="76.93" color-interpolation-filters="sRGB" filterUnits="userSpaceOnUse">
      <feColorMatrix result="cm" values="-1 0 0 0 1 0 -1 0 0 1 0 0 -1 0 1 0 0 0 1 0"/>
    </filter>
    <linearGradient id="linear-gradient" x1="-173.86" y1="7078.06" x2="-174.64" y2="7078.06" gradientTransform="translate(669380.27 -16350.07) rotate(-90) scale(94.55 -94.55)" gradientUnits="userSpaceOnUse">
      <stop offset="0" stop-color="#000"/>
      <stop offset=".82" stop-color="#000"/>
      <stop offset=".96" stop-color="#fff" stop-opacity="0"/>
    </linearGradient>
    <mask id="mask" x="130.68" y="86.64" width="52.48" height="76.93" maskUnits="userSpaceOnUse">
      <g class="cls-20">
        <rect class="cls-21" x="130.68" y="86.64" width="52.48" height="76.93"/>
      </g>
    </mask>
    <filter id="luminosity-invert-2" x="54.93" y="84.23" width="52.48" height="76.93" color-interpolation-filters="sRGB" filterUnits="userSpaceOnUse">
      <feColorMatrix result="cm" values="-1 0 0 0 1 0 -1 0 0 1 0 0 -1 0 1 0 0 0 1 0"/>
    </filter>
    <linearGradient id="linear-gradient-2" x1="-173.83" y1="7078.86" x2="-174.61" y2="7078.86" xlink:href="#linear-gradient"/>
    <mask id="mask-1" x="54.93" y="84.23" width="52.48" height="76.93" maskUnits="userSpaceOnUse">
      <g class="cls-19">
        <rect class="cls-1" x="54.93" y="84.23" width="52.48" height="76.93"/>
      </g>
    </mask>
    <filter id="luminosity-invert-3" x="14.32" y="90.79" width="52.48" height="76.93" color-interpolation-filters="sRGB" filterUnits="userSpaceOnUse">
      <feColorMatrix result="cm" values="-1 0 0 0 1 0 -1 0 0 1 0 0 -1 0 1 0 0 0 1 0"/>
    </filter>
    <linearGradient id="linear-gradient-3" x1="-173.9" y1="7079.29" x2="-174.68" y2="7079.29" xlink:href="#linear-gradient"/>
    <mask id="mask-2" x="14.32" y="90.79" width="52.48" height="76.93" maskUnits="userSpaceOnUse">
      <g class="cls-3">
        <rect class="cls-12" x="14.32" y="90.79" width="52.48" height="76.93"/>
      </g>
    </mask>
    <filter id="luminosity-invert-4" x="171.31" y="94.94" width="52.48" height="76.93" color-interpolation-filters="sRGB" filterUnits="userSpaceOnUse">
      <feColorMatrix result="cm" values="-1 0 0 0 1 0 -1 0 0 1 0 0 -1 0 1 0 0 0 1 0"/>
    </filter>
    <linearGradient id="linear-gradient-4" x1="-173.94" y1="7077.63" x2="-174.72" y2="7077.63" xlink:href="#linear-gradient"/>
    <mask id="mask-3" x="171.31" y="94.94" width="52.48" height="76.93" maskUnits="userSpaceOnUse">
      <g class="cls-13">
        <rect class="cls-10" x="171.31" y="94.94" width="52.48" height="76.93"/>
      </g>
    </mask>
  </defs>
  <g id="Layer_1-2" data-name="Layer 1">
    <g>
      <g>
        <path class="cls-9" d="M63.86,63.2c-.02,1.99-.07,3.97-.14,5.96,4.22-.49,8.43-.97,12.65-1.46-.63-3.53-1.01-7.1-1.12-10.69-3.1.11-6.41.18-9.46.81-2.71.56-1.9,3.08-1.93,5.38Z"/>
        <g>
          <path class="cls-4" d="M13.21,16.15c.09-.01.53-.14.54-.23.32.54,1.58.49,1.14,1.26-.54.23-1.61.35-2.04.18-.69.15-.93.42-1.73.68-.1.08-.14.22-.2.31-.69.46-1.28,1.33-1.77,2.07-.95,1.45-.8,4.77.38,6.32,1.19,1.64,2.66,1.36,3.9,1.38.12-.03,0-.26.11-.32.4.19.65-.31.97-.04.47-.47.76-.65,1.66-.88-.1-.08-.38-.74.35-.55-.39-.97-.3-1.92-.84-2.71.11-.12.22-.57.21-.81-.83-.26-2.14.58-2.88,1.12-.35-.16-.92-.07-1.36-.13-.19-.54.13-.63-.15-1.31.69-.77,2.04-.89,2.87-1.03.09,0,.04-.28.05-.37.48-.08,1.53-.6,1.83-.43,1.21-.52-.04.1,1.42-.44.42.51.95-.42.92.74.07,0,.11-.03.27-.14.19,1.46-2.46.52-1.49,2.42.04.34.24,1.11.19,1.61.11.04.36-.21.42,0,0,.58-.08,1.59.11,2.2-.51,1.2-1.2.9-2.03,1.73-.35-.09-1.1.49-1.35.72-1.79.03-4.1.79-5.24-.65-.68.06-1.07-.94-1.72-1.21-.54-1.01-.82-2.37-.86-3.65-.03-.85-.21-1.93.31-2.45-.21-.28-.01-.56-.11-.96.34-.17.56-.45.57-.88.54-.23.74-.85.74-1.28.43.26.14-.67.8-.47.21-.1.06-.41.16-.65.2-.02.32-.02.35.18.1-.1.22-.17.19-.35.46.09.81-.19.91-.56.9-.36,1.41-.51,2.33-.66,0,.13.08.1.08.25Z"/>
          <path class="cls-4" d="M23.11,28.42c-.79-.09-1.3-.61-1.17-1.2-.14-.26-.42-.64-.27-.88-.39-1.19-1.03-3.34-1.64-4.43.03-.35-.03-.39-.24-.77.28.06.39-1.03,1.39-.94.2.03.66,1.59.68,1.62.39-.12.6-1.21.68-1.58.75-.11.98-1.09,1.62-.86.81-.55,1.07-.42,1.86-.05.37.25.35.79.46,1-.2.02-.28.12-.43.32-1.18-.17-2.66.69-3.05,3.4-.08.43.14.75.31.91,0,.07-.06.44-.06.41.06.66.71,1.4.48,2.59-.2.15-.44.31-.63.47Z"/>
          <path class="cls-4" d="M33.67,19.02c.22.03.15.04.36-.04.33.36.73.64,1.05,1.04,1.04,1.94.22,3.85-.6,5.22-.12.03-.13-.04-.16-.13-.19.69-.82,1.06-1.17,1.64-.42,0-.56.19-.58.5-.61.23-1.41.53-1.9.35-.07.06-.05.19-.2.17.08-.26-.24,0-.24-.19-.87.12-1.45-.17-2.02-.83-1.45-.28-1.89-2.23-1.85-4.15.36,0,0-.47.34-.67.18-1.22.94-2.5,2.08-3.18.2-.28.44-.58.84-.68.19-.09.4-.28.79-.25,1-.25,1.87.05,2.57.73.39-.05.64.09.69.48ZM28.89,20.83c-.5,1.47-1.48,2.66-.25,4.8.53.68,1.3.43,2.33.24.01-.2.42-.27.43-.47.77.04,1.03-.85,1.64-1.14.07-.62.47-.98.83-1.38.08-.86.2-1.24-.06-2.24-.36-.16-.74-.73-1.27-.65,0-.24.02-.15-.04-.36-.88-.06-1.34.19-2.12-.17-.57.36-.87,1.06-1.49,1.37Z"/>
          <path class="cls-4" d="M42.24,16.89c.57-.38,1.04-.1,1.52.13.71,1.53.27,2.78.55,4.05.15.64.23,1.31.38,1.88.23.84.77,1.63.98,2.61-.31.43-.79.24-1.39.33.12-.36-.46-.25-.59-.55-.06-.81-.23-1.79-.54-2.29-.15.6-.87,1.12-.96,1.71-.88.65-1.4,2-3.14,1.66-.31-.06-.62-.33-.79-.43-1.5-2.43-1.82-4.81-2.06-7.84.25-.23.11-.76.25-1.08.61-.2,1.22.18,1.57.58-.12.5.11.48.1.89,0,.18-.16.36-.15.54-.02.33.2.32.23.72.02.2-.16.18-.17.4-.03.22.14.85.21,1.19.1.57.36,1.5.4,1.53.09.61.42,1.15.84,1.95,2.1-1.57,3.45-3.81,2.77-7.96Z"/>
          <path class="cls-4" d="M54.98,19.64c-.41.25-.52,1.88-.63,2.21-.22-.01-.2.13-.43.21-.91.9-1.27,1.36-2.8,1.78-.46-.02-1.39-1.05-1.82-.86.17.69.5,2.52.85,3.73.21.68.64,1.77-.2,2.04-.37.13-.45.21-.73.1-.02-.03-.03-.07-.05-.1.08-.06.15-.14.08-.25-.07-.12-.2-.18-.29-.27-.35-.96-.63-2.9-.87-4-.3-1.34-.76-2.45-1.1-4.11-.16-.78-.61-1.62-.79-2.68.33-.26,1.05-.32,1.31.15.17-.6.4-1.97,1.39-2.03-.1-.1-.03-.29.04-.41.43.08.94-.49,1.52-.47.27,0,.39.24.63.29.36.1,1.36.29,1.32.3.1-.07.56.13.77.22.95,1.47,1.56,1.59,1.77,4.14ZM53.43,18.62c-.22-1.12-.19-.85-.68-1.64-.18,0-.4-.19-.53-.05-.08-.08-.26-.4-.35-.5-.29-.04-.44.25-.53,0-.03-.09.08-.25-.22-.34-.14.16-.31.14-.53-.06-.2.13-.25,0-.59.07-1.31.9-1.5,1.44-1.5,2.86.01.74-.05.79.31,1.52.09.17.41.7.15.85.79.43,1.24.49,2.05.76.94-.36,1.27-.8,1.8-1.3.75-.07.54-1.11.69-1.4-.12-.13-.16-.45-.07-.75Z"/>
          <path class="cls-4" d="M68.42,22.07c-.03.51-.83,1.22-1.26,1.02-1.12.35-3.14,1.49-3.33-.91.63-.04.35-.4,1.17-.36.06-1.02-.28-1.78-.32-3.06-.02-.76-.27-1.84-.18-2.81,0-.13.15-.24.16-.36-.02-.81-.25-1.66-.31-2.65-.49.28-.39.72-1.01.81-.52.08-.71-.15-.97-.72.45-.78.55-.7.73-1.7.11-.12.07,0,.25-.03.07-.82.5-1,.99-1.46.41.22.86.41,1.23.73.12.38.06,1.26.29,1.38.37,2.86.38,6.35.98,9.46.72-.07,1.33.04,1.6.66Z"/>
        </g>
        <g>
          <path class="cls-4" d="M151.92,10.19c.09,0,.54-.01.57-.1.19.6,1.43.83.83,1.49-.57.1-1.65-.02-2.03-.28-.71,0-1,.2-1.84.27-.12.06-.18.18-.26.26-.77.3-1.54,1.01-2.19,1.63-1.25,1.2-1.84,4.47-1.04,6.24.79,1.86,2.29,1.92,3.49,2.21.13,0,.06-.25.18-.29.35.27.71-.16.96.18.56-.36.88-.47,1.81-.49-.08-.1-.2-.8.47-.46-.16-1.03.14-1.94-.22-2.83.14-.09.34-.51.39-.74-.75-.44-2.22.08-3.05.45-.3-.23-.88-.28-1.29-.43-.07-.57.26-.59.14-1.31.84-.6,2.18-.42,3.03-.36.09,0,.1-.26.13-.35.49.03,1.62-.24,1.89-.01,1.29-.24-.06.08,1.48-.11.3.59,1.02-.2.73.93.07,0,.11,0,.3-.08-.14,1.47-2.51-.04-2,2.03-.04.34-.01,1.14-.17,1.61.1.06.39-.12.41.1-.13.57-.44,1.53-.38,2.17-.77,1.06-1.37.61-2.36,1.23-.33-.16-1.18.23-1.47.4-1.75-.37-4.17-.15-4.97-1.81-.68-.09-.83-1.16-1.41-1.57-.3-1.1-.27-2.49-.03-3.75.16-.83.23-1.93.85-2.32-.15-.32.11-.55.1-.97.37-.09.65-.31.75-.73.57-.1.9-.66,1-1.09.36.35.29-.62.88-.28.22-.05.15-.38.3-.6.2.02.32.05.3.25.12-.08.25-.12.27-.3.43.19.83,0,1.02-.34.96-.15,1.49-.18,2.42-.12-.03.12.06.11.03.26Z"/>
          <path class="cls-4" d="M158.84,24.36c-.75-.26-1.14-.88-.88-1.43-.08-.28-.27-.72-.06-.91-.12-1.24-.25-3.49-.61-4.68.11-.33.06-.39-.06-.8.26.12.61-.91,1.57-.61.19.08.29,1.7.3,1.73.4-.03.86-1.05,1.02-1.39.75.06,1.2-.85,1.77-.48.91-.36,1.14-.17,1.83.36.31.32.16.85.23,1.07-.2-.02-.3.06-.49.22-1.11-.43-2.74.08-3.73,2.64-.17.4-.03.76.1.95-.03.07-.15.42-.15.38-.09.66.38,1.52-.11,2.63-.23.1-.49.2-.72.32Z"/>
          <path class="cls-4" d="M171.22,17.56c.21.08.14.07.36.04.24.43.57.79.79,1.25.58,2.13-.65,3.81-1.75,4.96-.13,0-.12-.07-.13-.16-.34.63-1.03.85-1.5,1.34-.41-.1-.59.06-.67.36-.64.09-1.49.2-1.93-.08-.08.05-.09.17-.23.12.13-.24-.23-.06-.19-.24-.88-.08-1.38-.49-1.78-1.26-1.35-.6-1.35-2.59-.87-4.46.35.08.1-.46.48-.58.45-1.15,1.47-2.23,2.73-2.64.26-.22.56-.47.98-.47.2-.05.45-.19.82-.07,1.03-.02,1.81.47,2.34,1.29.39.04.61.23.57.62ZM166.16,18.26c-.81,1.32-2.04,2.26-1.32,4.62.37.78,1.17.71,2.22.75.06-.19.47-.17.53-.36.74.21,1.19-.6,1.86-.74.21-.59.67-.85,1.12-1.16.27-.82.47-1.16.44-2.2-.32-.23-.56-.88-1.1-.92.06-.23.05-.14.04-.36-.84-.25-1.35-.11-2.03-.64-.64.22-1.09.84-1.76,1Z"/>
          <path class="cls-4" d="M180.06,17.39c.64-.24,1.04.13,1.45.47.35,1.65-.35,2.77-.37,4.07,0,.65-.07,1.33-.04,1.91.03.87.39,1.76.37,2.76-.4.36-.82.06-1.43,0,.2-.32-.4-.35-.45-.66.12-.8.18-1.79-.02-2.36-.28.55-1.09.9-1.32,1.45-1.01.43-1.81,1.63-3.43.91-.29-.12-.53-.46-.68-.6-.92-2.71-.7-5.09-.26-8.11.29-.17.28-.71.49-1,.64-.06,1.15.45,1.4.92-.23.46,0,.49-.1.89-.04.18-.23.32-.27.5-.09.32.12.36.06.75-.02.2-.2.14-.26.35-.08.21-.06.86-.06,1.21-.03.58.01,1.54.05,1.58-.05.61.16,1.21.39,2.09,2.4-1.06,4.21-2.95,4.47-7.14Z"/>
          <path class="cls-4" d="M191.86,22.91c-.45.15-.93,1.71-1.11,2.02-.21-.06-.23.08-.47.11-1.09.68-1.54,1.05-3.13,1.11-.44-.12-1.12-1.33-1.59-1.24.01.71-.08,2.56,0,3.82.05.71.23,1.87-.65,1.94-.38.05-.48.11-.74-.06-.01-.04-.01-.07-.02-.11.1-.04.17-.11.13-.22-.04-.13-.16-.22-.22-.33-.13-1.01.03-2.97.05-4.09,0-1.38-.19-2.56-.15-4.25.01-.8-.23-1.71-.17-2.79.38-.18,1.1-.08,1.24.44.29-.55.83-1.83,1.81-1.67-.08-.12.03-.29.13-.38.4.17,1.03-.27,1.59-.12.26.07.33.33.55.42.32.18,1.26.59,1.22.58.11-.04.52.26.7.39.6,1.64,1.17,1.9.8,4.43ZM190.57,21.58c.03-1.14,0-.87-.3-1.75-.18-.04-.35-.27-.51-.16-.06-.1-.17-.45-.23-.57-.28-.1-.49.15-.51-.13,0-.09.13-.22-.14-.38-.18.12-.33.07-.51-.18-.23.08-.25-.06-.59-.06-1.48.58-1.78,1.07-2.09,2.45-.15.73-.23.75-.04,1.55.05.19.24.77-.04.87.68.6,1.09.75,1.83,1.19.99-.15,1.41-.5,2.05-.87.75.1.78-.96.98-1.21-.09-.16-.06-.48.1-.75Z"/>
          <path class="cls-4" d="M202.68,16.26c.16-.31.47.03.51-.34.29.18.49.14.65.32.06-.05.02-.2.27-.17,0,.07.13.14.12.2.79-.1,1.52.98,2.09,1.26,1.03,2.2-1.32,3.7-2.05,5.25-.83.31-1.02,1.39-1.87,1.68-.18.8-1.71,1.59-2.14,2.49.3.21,1.73-.21,2.13-.6.22-.03.27.17.23.22,1.05.19,1.11-.22,1.81.2,1.03-.29,2.1-.13,2.7.86-.14-.03-.35.18-.2.36.48.07-.32.82-.83.8-.47-.03-.87-.51-1.13-.12-.47-.32-2.04-.2-3.08-.14-1.31.08-2.66.8-3.88.38-.19-.56-.59-.72-.65-1.55.49-.51.7-1.28,1.33-1.36-.06-.1-.05-.57.27-.35.03-.1-.06-.15-.02-.27.7-.41.96-1.35,1.79-1.62.61-1.47,2.18-1.77,2.72-3.35.34-.11.62-.39.6-.53.13-.04.26-.1.41-.1-.01-.54.55-.86.25-1.28,0-.05.2-.14.25-.15-.11-.34-.68-.54-1.13-.79-.21.3-.41-.1-.68.13-.11-.03-.21-.11-.2-.18-.53.03-1.44.28-1.76.86-.25.43-.77.91-1.1.82-.11-.03-.23.1-.21.1-.19-.08-.13-.27-.18-.35-.16-.34-.58-.68-.4-1.13.54-.48.57-.93,1.25-1,.14.02.06-.23.11-.33.29.05.97.05,1.12-.48.18.02.08.26.24.3.14-.46.31-.04.5-.22.03.09.02.11.17.22Z"/>
        </g>
        <path class="cls-17" d="M13.22,145.58c22.45-4.03,12.35-2.41,34.55-7.66,20.75-4.91,42.16-13.57,63.23-16.39,17.34-2.32,38.49,4.22,55.04,8.89,20.1,5.68,39.56,13.66,57.83,23.78.05.03.09.05.14.08"/>
        <path class="cls-17" d="M112.51.02c-1.62,38.2-1.86,76.46-.72,114.67"/>
        <g>
          <path class="cls-15" d="M6.01,104.92c25.67-5.34,51.52-9.79,77.49-13.33-.95-20.27-1.42-40.56-1.41-60.85-11.05,2.08-22.1,4.16-33.15,6.25-9.5,1.79-19.07,3.59-28.74,3.68-4,.04-10.56,1.53-15.48,3-2.27.68.33,6.27.51,8.55.28,3.56.49,7.12.65,10.68.16,3.73,1.94,41.65.12,42.02Z"/>
          <path class="cls-15" d="M67.88,104.1c6.94-1.95,13.89-3.89,20.83-5.84.11-10.75.21-21.5.32-32.25-5.32.51-10.67,1.02-15.89,2.23-1.59.37-5.19.67-5.92,2.26-.55,1.2.85,4.55.93,6.03.16,2.91.26,27.42-.27,27.57Z"/>
          <path class="cls-18" d="M31.21,48.38c.09,15.96.78,29.88.78,43.31"/>
          <path class="cls-18" d="M57.76,43.71c.81,13.2,1.61,26.39,2.42,39.59.1,1.65.19,3.36-.44,4.89"/>
        </g>
        <g>
          <path class="cls-18" d="M183.85,46.68c-1.31,15.35-1.33,29.6-2.86,44.31"/>
          <path class="cls-18" d="M155.23,43.01c-.81,13.2-1.61,26.39-2.42,39.59-.1,1.65-.19,3.36.44,4.89"/>
          <g>
            <path class="cls-15" d="M206.98,104.23c-25.67-5.34-51.52-9.79-77.49-13.33.95-20.27,1.42-40.56,1.41-60.85,11.05,2.08,22.1,4.16,33.15,6.25,9.5,1.79,19.07,3.59,28.74,3.68,4,.04,10.56,1.53,15.48,3,2.27.68-.33,6.27-.51,8.55-.28,3.56-.49,7.12-.65,10.68s-1.94,41.65-.12,42.02Z"/>
            <path class="cls-15" d="M236.49,86.18c-6.94-1.95-13.89-3.89-20.83-5.84-.11-10.75-.21-21.5-.32-32.25,5.32.51,10.67,1.02,15.89,2.23,1.59.37,5.19.67,5.92,2.26.55,1.2-.85,4.55-.93,6.03-.16,2.91-.26,27.42.27,27.57Z"/>
            <path class="cls-15" d="M234.2,127.19c-6.94-1.95-13.89-3.89-20.83-5.84-.11-10.75-.21-21.5-.32-32.25,5.32.51,10.67,1.02,15.89,2.23,1.59.37,5.19.67,5.92,2.26.55,1.2-.85,4.55-.93,6.03-.16,2.91-.26,27.42.27,27.57Z"/>
          </g>
        </g>
        <path class="cls-9" d="M71.41,73.67c.23.56,1.07.49,1.59.18s1.03-.78,1.63-.72c.58.07,1.01.63,1.59.72,1.03.15,1.74-1.23,2.78-1.26.46-.01.89.25,1.35.27.74.03,1.37-.57,2.11-.65.41-.05.83.07,1.24.11s.88-.03,1.15-.35"/>
        <path class="cls-9" d="M71.5,78.34c.25.49.64,1.05,1.18,1,.2-.02.39-.13.57-.21,1.36-.59,3.1.16,4.33-.66.12-.08.25-.18.39-.21.19-.03.38.07.57.15.77.34,1.7.3,2.44-.1"/>
        <path class="cls-9" d="M71.76,91.02c2.14-.83,4.46-1.19,6.74-1.02-.31-.2-.39-.6-.45-.96-.24-1.53-.48-3.07-.72-4.6.05.32-5.68,0-5.88.6-.09.25.26.68.34.9.16.51.21,1.03.23,1.57.05,1.18-.1,2.36-.26,3.52Z"/>
        <path class="cls-9" d="M71.51,93.96c.11.65.94.9,1.58.77s1.24-.48,1.89-.51c.8-.04,1.6.42,2.37.21.29-.08.55-.24.84-.35.51-.2,1.08-.22,1.63-.24.97-.03,1.93-.06,2.9-.08"/>
        <path class="cls-9" d="M218.88,52.07c-.17.74.4,1.57,1.16,1.67.57.07,1.14-.21,1.7-.12.66.11,1.18.72,1.85.74.51.01.96-.32,1.44-.47,2-.61,3.93,1.98,5.93,1.41"/>
        <path class="cls-9" d="M218.53,57.16c-.08.39-.15.85.13,1.14.24.24.64.24.96.14s.62-.29.95-.37c1.13-.28,2.16.71,3.3.94,1.22.25,2.58-.38,3.69.19.21.11.4.25.61.37.56.31,1.23.37,1.87.43"/>
        <path class="cls-9" d="M220.28,65.32c-.34.81-.2,1.88.53,2.37.58.39,1.34.34,1.99.6.9.36,1.45,1.31,1.61,2.26.16.95,0,1.93-.17,2.88.93-.49,1.93-.85,2.96-1.08.92-.2,2-.39,2.42-1.23.31-.62.12-1.37-.12-2.03-.36-.98-.83-1.92-1.39-2.8-.45-.71-1.11-1.45-1.95-1.4-.8.04-1.54.81-2.3.56-.84-.27-.89-1.68-1.68-1.86-.71-.17-1.65,1.17-1.89,1.72Z"/>
        <path class="cls-9" d="M218.79,76.09c-.16.36.12.8.5.94s.79.04,1.17-.08.76-.28,1.16-.26c.66.02,1.22.49,1.86.66.47.12.98.08,1.45.18.65.15,1.19.57,1.8.83.86.36,1.85.39,2.72.08"/>
        <path class="cls-9" d="M219.73,93.31c0,.21.01.44.11.63s.31.34.52.3c.09-.02.16-.07.24-.11.57-.3,1.26-.18,1.89-.04.21.05.43.09.62.2.14.08.26.2.4.28.65.4,1.58.06,2.22.49"/>
        <path class="cls-9" d="M215.41,98.65c-.11.6-.13,1.39.44,1.61.22.09.47.05.7-.01.58-.16,1.1-.49,1.67-.68s1.25-.25,1.73.11c.21.16.37.38.58.54.94.72,2.41-.08,3.46.49.49.27.79.79,1.22,1.14,1.09.89,2.69.55,4.05.17-.09-.02-.19-.03-.28-.05"/>
        <path class="cls-9" d="M215.55,104.13c-.06.33-.05.69.12.99s.51.5.84.43c.35-.08.58-.44.91-.59.82-.38,1.61.61,2.5.77.89.16,1.95-.51,2.64.08.28.24.4.63.68.85.21.17.49.22.76.25.78.11,1.58.12,2.36.04.8.35,1.65.59,2.52.7"/>
        <path class="cls-9" d="M227.98,115.42c-.44-.73-.94-1.48-1.7-1.88-.59-.31-1.27-.39-1.94-.41-2-.07-4.23.42-5.35,2.08-.6.88-.79,1.98-1.36,2.88.15-.24,4.58,1.29,5.06,1.44,1.71.53,3.39,1.13,5.08,1.7,1.35.45,2.35.51,2.08-1.21s-1.02-3.19-1.87-4.61Z"/>
        <path class="cls-9" d="M9.71,50.12c-.13.5.41.98.93,1s1-.25,1.46-.49.99-.46,1.49-.32c.41.11.73.45,1.15.54.95.21,1.69-.91,2.65-1.05,1.01-.15,1.98.81,2.95.52.75-.23,1.29-1.16,2.05-1,.18.04.35.14.54.15.69.04.88-1.07,1.55-1.24"/>
        <path class="cls-9" d="M36.27,45.84c-.04.52.25,1.04.7,1.29s1.06.19,1.46-.14c.52-.42.74-1.25,1.39-1.39.73-.15,1.29.69,2.02.83.54.1,1.07-.19,1.51-.51s.87-.7,1.41-.81,1.2.19,1.25.73c.74-.15,1.29-1.05,2.03-.9.2.04.38.15.58.17.2.01.39-.07.58-.16.8-.38,1.6-.76,2.4-1.14"/>
        <path class="cls-9" d="M63.21,52.92c4.68-.56,9.35-1.18,14.01-1.86-1.79-3.66-.51-8.2-2.08-11.97-3.95,1.55-7.94,2.05-12,3.07-1.17.3-1.07.14-.98,1.37.07,1.03.35,2.08.48,3.11.07.53.73,6.26.56,6.28Z"/>
        <path class="cls-9" d="M36.27,52.67c.37.41.88.73,1.43.78.8.07,1.53-.4,2.24-.8s1.56-.73,2.29-.38c.17.08.33.21.52.24.19.03.38-.02.56-.06,2.55-.64,5.42.04,7.72-1.22"/>
        <path class="cls-9" d="M36.82,59.85c.26.58.73,1.05,1.31,1.31.5-.56,1.03-1.13,1.73-1.4s1.62-.13,2,.52c.42-.15.61-.65.96-.93.6-.47,1.45-.19,2.18.02.97.28,1.99.39,3,.34-.34-.12-.69-.24-1.03-.36"/>
        <path class="cls-9" d="M36.25,76.46c-.42,1.87-.07,3.83.4,5.69.19.75.41,1.52.93,2.09.5.54,1.21.83,1.9,1.07,2.04.73,4.46,1.2,6.24-.03,1.12-.77,1.75-2.07,2.14-3.37.3-1.02.47-2.08.37-3.14-.2-2.01-1.43-3.83-3.04-5.04-3.59-2.7-7.82-2.22-8.93,2.72Z"/>
        <path class="cls-9" d="M43.48,74.94c-1.37,2.15-2.06,5.02-.8,7.23.55.96,1.41,1.69,2.3,2.35,1.14.85,2.41,1.61,3.83,1.78,2.06.26,4.16-.85,5.38-2.53,1.22-1.68,1.65-3.86,1.48-5.93-.2-2.54-1.79-6.85-4.56-7.71-2.76-.86-6.31,2.74-7.63,4.81Z"/>
        <path class="cls-9" d="M11.95,57.01c.17,2.93.43,5.85.77,8.76"/>
        <path class="cls-9" d="M12.87,68.89c-.74.5-1.29,1.29-1.49,2.16-.09.4-.08.89.26,1.12.18.13.41.14.63.14.73,0,1.57-.28,1.79-.97.24-.78-.44-1.52-1.07-2.05"/>
        <path class="cls-9" d="M12.51,75.52l.25,3.63"/>
        <path class="cls-9" d="M12.88,81.4c-.84.48-1.77,1.18-1.73,2.15,0,.25.09.5.22.71.45.73,1.56.92,2.23.4s.74-1.66.15-2.27c-.24-.24-.55-.4-.81-.62s-.47-.54-.41-.88"/>
        <path class="cls-9" d="M13.13,86.88c-.4.23-.42.79-.39,1.25.14,2.07.28,4.15.42,6.22-.05-.19-.11-.39-.16-.58"/>
        <path class="cls-9" d="M16.62,67.75c-.16.28.08.66.4.73s.64-.07.9-.27.47-.44.75-.61c.1-.06.22-.12.34-.11.13.01.24.09.35.15.66.38,1.47.21,2.22.07,1.89-.36,3.81-.48,5.73-.6-.29-.12-.61-.17-.92-.14"/>
        <path class="cls-9" d="M16.62,70.87c-.17.08-.11.37.06.44s.38-.02.51-.15.23-.3.36-.44c.42-.43,1.13-.42,1.68-.19.34.15.68.37,1.05.36.24,0,.48-.1.71-.18,1.74-.58,3.71.07,5.47-.45"/>
        <path class="cls-9" d="M16.77,81.47c0,.39.11.91.49.92.12,0,.24-.05.34-.11.32-.2.58-.5.91-.68s.81-.22,1.04.08c.22-.18.45-.37.73-.44s.62.03.74.29c.08.18.09.46.28.49.19.03.29-.21.37-.38.17-.38.58-.65.99-.66s.84.23,1.03.6c.32-.29.64-.58.97-.87.58.55,1.55.61,2.19.15"/>
        <path class="cls-9" d="M10.29,96.96c0,.39.33.75.72.8.45.05.85-.27,1.23-.53s.9-.47,1.27-.2c.22.16.32.45.53.61.32.24.81.11,1.09-.18s.4-.69.51-1.08c.73.14,1.49.27,2.21.07.11-.03.23-.07.34-.05.21.03.4.24.6.18-.06-.17-.2-.3-.37-.36"/>
        <path class="cls-9" d="M166.95,52.85c-1.1.33-2.2.76-3.08,1.51-1.09.93-1.76,2.3-1.97,3.71s.03,2.87.52,4.22c.57,1.52,1.55,2.99,3.03,3.66.84.38,1.78.48,2.7.55,1.27.09,2.59.12,3.76-.39.84-.36,1.55-.98,2.24-1.58.86-.75,1.73-1.51,2.35-2.47.33-.5.59-1.07.58-1.67,0-.51-.2-1-.4-1.47-.73-1.66-1.65-3.28-2.98-4.51-1.92-1.78-4.29-2.29-6.76-1.55Z"/>
        <path class="cls-9" d="M160.76,81.14c.24,1.02.68,2.02,1.4,2.78.69.72,1.61,1.19,2.52,1.59,1.29.56,2.65,1.01,4.06,1.07,1.38.05,2.75-.28,4.05-.74.28-.1.57-.21.77-.43.16-.18.25-.41.33-.63.43-1.18.86-2.38.91-3.63.04-1.1-.21-2.2-.61-3.23-.86-2.23-2.44-4.25-4.61-5.25-1.16-.54-2.39-.72-3.63-.93-1.08-.18-1.51-.1-2.37.66-1.54,1.38-2.57,3.3-2.92,5.33-.19,1.13-.17,2.3.09,3.41Z"/>
        <path class="cls-9" d="M159.95,88.24c-.12.32-.25.66-.2,1s.33.67.67.65c.26-.02.46-.22.68-.35.61-.36,1.5-.12,1.84.5.14.25.25.59.53.64.15.02.3-.06.43-.13.41-.23.81-.46,1.22-.69.11-.06.23-.13.35-.11.13.02.23.12.33.22.42.45.96.9,1.57.83.5-.05.94-.45,1.44-.44.58,0,1,.53,1.49.83.84.51,1.9.38,2.87.23-.04-.19-.08-.38-.11-.56"/>
        <path class="cls-9" d="M161.12,67.15c.14.66.77,1.19,1.45,1.21.95.04,1.87-.8,2.78-.49.52.17.85.68,1.33.93,1.04.55,2.39-.22,3.48.23.37.15.72.45,1.12.41.25-.02.47-.18.7-.28.74-.33,1.59-.15,2.38.02.55.11,1.32.08,1.42-.47"/>
        <path class="cls-9" d="M162.01,42.15c-.39.6.15,1.45.84,1.66s1.42,0,2.12-.17,1.49-.27,2.09.12c.42.27.75.77,1.26.77.25,0,.48-.13.71-.24,1.21-.57,2.73-.41,3.79.41.25.19.48.42.78.53.58.2,1.2-.14,1.82-.22,1.27-.16,2.47.82,3.74.66-.16-.17-.33-.35-.49-.52"/>
        <path class="cls-9" d="M184.03,89.44c2.03.28,4.17-.81,5.14-2.62-.08,1.03.26,2.09.93,2.88.15.17.31.34.53.41.37.12.76-.09,1.09-.28.93-.55,1.87-1.09,2.8-1.64-.23.87.36,1.76,1.09,2.27,1.48,1.05,3.65.99,5.08-.14-.09-.06-.19-.12-.28-.17"/>
        <path class="cls-9" d="M187.44,58.75c2.3.92,4.93.82,7.21,1.79,1.31-2.87,1.9-6.06,1.71-9.21-.02-.31-7.03-.92-7.83-.37-.91.64-.74,1.97-.79,2.94-.08,1.62-.18,3.23-.3,4.84Z"/>
        <path class="cls-9" d="M186.12,74.14c2.52.01,5.04.41,7.45,1.19.06-2.92.42-5.83,1.09-8.67.05-.22.1-.47-.03-.66-.11-.16-.32-.22-.51-.27-1.46-.36-2.93-.7-4.4-1-.99-.2-2.63-.98-3.05.16-.46,1.24-.19,3.26-.27,4.58-.09,1.56-.18,3.12-.28,4.68Z"/>
        <path class="cls-9" d="M198.85,52.44c-.14.24.16.54.45.53s.53-.17.81-.24c.13-.03.27-.05.38.01.22.12.25.43.43.6.27.23.68.04,1.03,0,.28-.04.55.03.83.08.65.13,1.3.21,1.96.23.01.12,0,.24-.06.35"/>
        <path class="cls-9" d="M198.52,55.33c-.16.29-.3.7-.04.91.2.17.5.09.74,0,.2-.08.41-.16.63-.17s.46.07.57.26c.14.22.07.55.27.73.19.18.51.07.72-.08s.41-.36.67-.39c.32-.03.6.22.83.45s.55.45.86.35"/>
        <path class="cls-9" d="M196.8,67.01c.72.56,1.7.76,2.58.54.3-.08.7-.16.85.11.04.08.05.17.08.25.11.37.51.58.9.6s.76-.09,1.14-.15.79-.08,1.12.12c-.24-.02-.48-.04-.73-.06"/>
        <path class="cls-9" d="M196.3,69.55c.06.49.34.94.74,1.22.05.03.11.07.16.06.08,0,.13-.08.18-.14.14-.19.3-.36.49-.51.08-.06.16-.12.25-.14.13-.02.26.04.38.09.5.24,1,.48,1.5.71.34.16.7.33,1.07.32.34,0,.67-.14.91-.38.24.41.6.74,1.02.94-.17,0-.33-.02-.5-.03"/>
        <path class="cls-9" d="M186.69,77.66c-.38.46-.15,1.24.37,1.54s1.19.22,1.72-.07c.36-.19.71-.48,1.12-.43.25.03.47.18.67.33.4.29.8.58,1.2.88.14.1.28.2.44.25.3.08.61-.04.91-.14.42-.13.85-.21,1.29-.23.23-.01.48,0,.69.11.49.26.63,1.02,1.18,1.15.21.05.42-.02.63-.06.69-.12,1.42.05,1.97.48.09.07.17.14.27.17.3.09.61-.21.92-.13"/>
        <path class="cls-9" d="M134.88,38.96c-.04.63-.05,1.26,0,1.89,0,.17.02.34.12.48.28.42.93.19,1.35-.08.7-.44,1.4-.88,2.1-1.32.15-.1.31-.19.49-.2.16,0,.32.07.47.14.74.38,1.43.86,2.04,1.42.22.2.44.42.72.5.27.08.55.03.83-.01,1.22-.21,2.44-.41,3.66-.62.4,1.23,1.66,2.12,2.95,2.09"/>
        <path class="cls-9" d="M134.08,47.22l.33.83c.55.16.95-.7,1.51-.64.18.02.34.13.47.26.42.4.78.99,1.35.99.17,0,.33-.06.5-.1.85-.21,1.8.06,2.4.69.2.21.39.47.67.55.32.09.64-.08.96-.17,1.3-.36,2.55.63,3.87.93.95.21,1.98.04,2.82-.47"/>
        <path class="cls-9" d="M135.02,53.43c-.31.28-.54.66-.64,1.07-.02.08-.03.16,0,.24.06.14.23.17.38.18.19.02.38.03.56,0s.36-.15.43-.32c.1-.24-.02-.53-.22-.69s-.46-.23-.72-.29c-.07.12-.14.24-.22.36"/>
        <path class="cls-9" d="M133.94,59.98c.02.11.04.22.1.3.14.2.45.25.67.13s.35-.37.37-.61c.04-.38-.28-1.1-.74-1.11s-.46.92-.41,1.29Z"/>
        <path class="cls-9" d="M138.67,54.44c-.15.29-.1.67.11.92s.59.34.9.23c.15-.05.29-.16.45-.16.13,0,.26.06.38.12.41.2.84.35,1.29.44.43.09.96.19,1.1.6.49-.26.92-.62,1.27-1.04.55.4,1.11.8,1.66,1.21.07.05.14.1.23.1.09,0,.18-.06.26-.11.55-.36,1.33-.32,1.84.09.27.22.57.55.9.42-.12-.09-.26-.15-.42-.17"/>
        <path class="cls-9" d="M137.55,60.07c.2.45.67.75,1.16.74.71-.01,1.43-.61,2.05-.28.52.27.72,1.1,1.31,1.09.18,0,.35-.09.52-.15.75-.23,1.52.23,2.13.72.15.12.3.24.49.28.14.03.29,0,.44-.03.91-.17,1.84-.04,2.75.08-.6-.06-1.2-.05-1.79.04"/>
        <path class="cls-9" d="M133.45,84.02c1.69-.32,3.37.44,5.06.79,3.27.67,6.96-.19,9.78,1.61-.23-4.72-.1-9.45.39-14.14.04-.43.08-.89-.14-1.26-.12-.2-2.32-.06-2.65-.08-.98-.05-1.97-.12-2.95-.21-1.93-.18-3.85-.44-5.76-.79-.54-.1-1.9-.65-2.41-.42-.67.3-.47,1.24-.52,1.91-.13,1.96-.25,3.92-.38,5.89-.14,2.24-.29,4.48-.43,6.71Z"/>
      </g>
      <path class="cls-15" d="M68.51,104.45c6.94-1.95,13.89-3.89,20.83-5.84.11-10.75.21-21.5.32-32.25-5.32.51-10.67,1.02-15.89,2.23-1.59.37-5.19.67-5.92,2.26-.55,1.2.85,4.55.93,6.03.16,2.91.26,27.42-.27,27.57Z"/>
      <rect class="cls-14" x="1.6" y="71.81" width="14.74" height="14.74" rx="1.3" ry="1.3" transform="translate(-8.18 1.36) rotate(-5.96)"/>
      <rect class="cls-16" x="3.33" y="92.93" width="14.74" height="14.74" rx="1.3" ry="1.3" transform="translate(-10.36 1.65) rotate(-5.96)"/>
      <rect class="cls-14" x="124.06" y="60.09" width="14.74" height="14.74" rx="1.3" ry="1.3" transform="translate(59.28 196.37) rotate(-87.93)"/>
      <rect class="cls-16" x="123.64" y="80.52" width="14.74" height="14.74" rx="1.3" ry="1.3" transform="translate(38.46 215.65) rotate(-87.93)"/>
      <rect class="cls-14" x="76.7" y="44.37" width="14.74" height="14.74" rx="1.3" ry="1.3"/>
      <rect class="cls-16" x="76.22" y="64.55" width="14.74" height="14.74" rx="1.3" ry="1.3"/>
      <path class="cls-9" d="M5.43,76.78l.02.57c.22.17.55.17.76,0,.22-.17.32-.49.57-.63.34-.19.74.06,1.09.24.57.28,1.22.36,1.84.31.41-.03.82-.12,1.23-.2.04,0,.09-.02.13-.03.37-.08.74-.16,1.11-.23"/>
      <path class="cls-9" d="M6.33,98.38c.22.47.86.7,1.34.47.23-.11.4-.31.62-.43.45-.26,1.06-.18,1.42.18.09.09.16.19.27.26.37.24.84-.02,1.23-.23.9-.48,1.98-.63,2.98-.41"/>
      <path class="cls-9" d="M6.68,102.95l.84.42c.07.03.14.07.22.07.17,0,.31-.13.44-.25.63-.57,1.61-.7,2.36-.33.17.09.34.2.53.25.77.21,1.64-.65,2.32-.24.23.14.46.41.71.31"/>
      <path class="cls-9" d="M79.86,47.9c.46.27.59.93,1.07,1.17.39.19.86.02,1.25-.18s.82-.42,1.25-.31c.56.14.92.82,1.49.8.3,0,.56-.21.82-.36.43-.25.92-.37,1.41-.34"/>
      <path class="cls-9" d="M78.74,68.78c.1.32.24.69.56.8.35.11.69-.14,1.01-.31.38-.21.85-.31,1.24-.12.22.11.38.3.61.39.41.17.87-.01,1.3-.09,1.44-.25,2.94.71,4.32.24"/>
      <path class="cls-9" d="M82.23,74.65c-.05.15.13.28.28.27s.28-.11.42-.19c.34-.19.77-.21,1.13-.07.14.06.27.14.41.18.19.06.38.05.58.04.45-.02.91-.05,1.36-.07"/>
      <path class="cls-9" d="M127.03,67.22v.38c.22.18.56.06.78-.11s.44-.4.72-.43c.52-.06.89.54,1.4.66.63.15,1.19-.46,1.83-.5.82-.05,1.47.84,2.29.8-.11-.04-.23-.08-.34-.12"/>
      <path class="cls-9" d="M127.09,63.6c.08.45.36.92.81,1.01.72.14,1.31-.77,2.04-.7.62.06.99.81,1.61.9.56.09,1.08-.4,1.65-.36.25.02.47.13.7.22.75.31,1.58.4,2.38.27"/>
      <path class="cls-9" d="M127.01,84.53c-.02.45.16.92.51,1.21s.87.37,1.28.17c.12-.06.22-.14.33-.2.65-.38,1.5-.22,2.14.17.11.07.22.14.34.15.15.02.29-.05.43-.1.77-.31,1.64-.34,2.43-.1"/>
      <g class="cls-5">
        <path class="cls-6" d="M150.43,113.9c-5.73-1.64-9.65-7.33-9.16-12.87.48-5.53,5.11-10.46,10.87-11.99,5.76-1.53,12.31.25,16.53,4.18,3.27,3.05,5.21,7.45,4.55,11.7-.65,4.25-4.16,8.16-8.7,9.02,4.37,1.55,6.86,5.78,8.64,9.79,4.64,10.42,7.09,21.68,7.17,32.96,0,.67-.01,1.37-.4,1.94-.53.76-1.57,1.04-2.53,1.24-12.57,2.6-25.79,2.46-38.3-.41-1.37-.31-2.85-.74-3.63-1.83-.53-.76-.63-1.7-.69-2.6-.99-15.34,3.21-29.85,13.18-42.13"/>
      </g>
      <g class="cls-2">
        <path class="cls-8" d="M74.68,111.49c-5.73-1.64-9.65-7.33-9.16-12.87.48-5.53,5.11-10.46,10.87-11.99,5.76-1.53,12.31.25,16.53,4.18,3.27,3.05,5.21,7.45,4.55,11.7-.65,4.25-4.16,8.16-8.7,9.02,4.37,1.55,6.86,5.78,8.64,9.79,4.64,10.42,7.09,21.68,7.17,32.96,0,.67-.01,1.37-.4,1.94-.53.76-1.57,1.04-2.53,1.24-12.57,2.6-25.79,2.46-38.3-.41-1.37-.31-2.85-.74-3.63-1.83-.53-.76-.63-1.7-.69-2.6-.99-15.34,3.21-29.85,13.18-42.13"/>
      </g>
      <g class="cls-11">
        <path class="cls-7" d="M34.07,118.05c-5.73-1.64-9.65-7.33-9.16-12.87.48-5.53,5.11-10.46,10.87-11.99,5.76-1.53,12.31.25,16.53,4.18,3.27,3.05,5.21,7.45,4.55,11.7-.65,4.25-4.16,8.16-8.7,9.02,4.37,1.55,6.86,5.78,8.64,9.79,4.64,10.42,7.09,21.68,7.17,32.96,0,.67-.01,1.37-.4,1.94-.53.76-1.57,1.04-2.53,1.24-12.57,2.6-25.79,2.46-38.3-.41-1.37-.31-2.85-.74-3.63-1.83-.53-.76-.63-1.7-.69-2.6-.99-15.34,3.21-29.85,13.18-42.13"/>
      </g>
      <g class="cls-22">
        <path class="cls-7" d="M191.06,122.2c-5.73-1.64-9.65-7.33-9.16-12.87.48-5.53,5.11-10.46,10.87-11.99,5.76-1.53,12.31.25,16.53,4.18,3.27,3.05,5.21,7.45,4.55,11.7-.65,4.25-4.16,8.16-8.7,9.02,4.37,1.55,6.86,5.78,8.64,9.79,4.64,10.42,7.09,21.68,7.17,32.96,0,.67-.01,1.37-.4,1.94-.53.76-1.57,1.04-2.53,1.24-12.57,2.6-25.79,2.46-38.3-.41-1.37-.31-2.85-.74-3.63-1.83-.53-.76-.63-1.7-.69-2.6-.99-15.34,3.21-29.85,13.18-42.13"/>
      </g>
    </g>
  </g>
</svg>